<?xml version="1.0" encoding="UTF-8" standalone="no"?>
<!DOCTYPE svg PUBLIC "-//W3C//DTD SVG 1.1//EN"
 "http://www.w3.org/Graphics/SVG/1.1/DTD/svg11.dtd">
<!-- Generated by graphviz version 12.2.1 (20241206.2353)
 -->
<!-- Title: include/all_includes.h Pages: 1 -->
<!--zoomable 380 -->

<svg id="main" version="1.1" xmlns="http://www.w3.org/2000/svg" xmlns:xlink="http://www.w3.org/1999/xlink" xml:space="preserve" onload="init(evt)">

<style type="text/css"><![CDATA[
.node, .edge {opacity: 0.7;}
.node.selected, .edge.selected {opacity: 1;}
.edge:hover path { stroke: red; }
.edge:hover polygon { stroke: red; fill: red; }
]]></style>

<defs>
  <circle id="rim" cx="0" cy="0" r="7"/>
  <circle id="rim2" cx="0" cy="0" r="3.5"/>
  <g id="zoomPlus">
    <use xlink:href="#rim" fill="#404040"><set attributeName="fill" to="#808080" begin="zoomplus.mouseover" end="zoomplus.mouseout"/></use>
    <path d="M-4,0h8M0,-4v8" fill="none" stroke="white" stroke-width="1.5" pointer-events="none"/>
  </g>
  <g id="zoomMin">
    <use xlink:href="#rim" fill="#404040"><set attributeName="fill" to="#808080" begin="zoomminus.mouseover" end="zoomminus.mouseout"/></use>
    <path d="M-4,0h8" fill="none" stroke="white" stroke-width="1.5" pointer-events="none"/>
  </g>
  <g id="arrowUp" transform="translate(30 24)">
    <use xlink:href="#rim"/>
    <path pointer-events="none" fill="none" stroke="white" stroke-width="1.5" d="M0,-3.0v7 M-2.5,-0.5L0,-3.0L2.5,-0.5"/>
  </g>
  <g id="arrowRight" transform="rotate(90) translate(36 -43)">
    <use xlink:href="#rim"/>
    <path pointer-events="none" fill="none" stroke="white" stroke-width="1.5" d="M0,-3.0v7 M-2.5,-0.5L0,-3.0L2.5,-0.5"/>
  </g>
  <g id="arrowDown" transform="rotate(180) translate(-30 -48)">
    <use xlink:href="#rim"/>
    <path pointer-events="none" fill="none" stroke="white" stroke-width="1.5" d="M0,-3.0v7 M-2.5,-0.5L0,-3.0L2.5,-0.5"/>
  </g>
  <g id="arrowLeft" transform="rotate(270) translate(-36 17)">
    <use xlink:href="#rim"/>
    <path pointer-events="none" fill="none" stroke="white" stroke-width="1.5" d="M0,-3.0v7 M-2.5,-0.5L0,-3.0L2.5,-0.5"/>
  </g>
  <g id="resetDef">
    <use xlink:href="#rim2" fill="#404040"><set attributeName="fill" to="#808080" begin="reset.mouseover" end="reset.mouseout"/></use>
  </g>
</defs>
<script type="application/ecmascript">
var viewWidth = 2398;
var viewHeight = 380;
var sectionId = 'dynsection-1';
</script>
<script type="application/ecmascript" xlink:href="svg.min.js"/>
<svg id="graph" class="graph">
<g id="viewport">
<title>include/all_includes.h</title>
<!-- Node1 -->
<g id="Node000001" class="node">
<title>Node1</title>
<g id="a_Node000001"><a xlink:title="Contains the system wide includes for esp&#45;idf and c++, along with structs and enums.">
<polygon fill="#999999" stroke="#666666" points="970.12,-371.75 837.88,-371.75 837.88,-349.5 970.12,-349.5 970.12,-371.75"/>
<text text-anchor="middle" x="904" y="-356.35" font-family="Arial" font-size="12.00">include/all_includes.h</text>
</a>
</g>
</g>
<!-- Node2 -->
<g id="Node000002" class="node">
<title>Node2</title>
<g id="a_Node000002"><a xlink:href="ps4_8h.html" target="_top" xlink:title="This is the file that contains the ps4 controller class (and internal tasks for usb host)">
<polygon fill="white" stroke="#666666" points="922.12,-313.5 795.88,-313.5 795.88,-291.25 922.12,-291.25 922.12,-313.5"/>
<text text-anchor="middle" x="859" y="-298.1" font-family="Arial" font-size="12.00">include/drivers/ps4.h</text>
</a>
</g>
</g>
<!-- Node1&#45;&gt;Node2 -->
<g id="edge1_Node000001_Node000002" class="edge">
<title>Node1&#45;&gt;Node2</title>
<g id="a_edge1_Node000001_Node000002"><a xlink:title=" ">
<path fill="none" stroke="#63b8ff" d="M888.43,-340.16C881.38,-331.35 873.33,-321.28 867.43,-313.91"/>
<polygon fill="#63b8ff" stroke="#63b8ff" points="885.61,-342.24 894.59,-347.86 891.08,-337.87 885.61,-342.24"/>
</a>
</g>
</g>
<!-- Node3 -->
<g id="Node000003" class="node">
<title>Node3</title>
<g id="a_Node000003"><a xlink:href="ps4__task_8h.html" target="_top" xlink:title="This is the file that contains the ps4 task.">
<polygon fill="white" stroke="#666666" points="1028.25,-255.25 881.75,-255.25 881.75,-233 1028.25,-233 1028.25,-255.25"/>
<text text-anchor="middle" x="955" y="-239.85" font-family="Arial" font-size="12.00">include/tasks/ps4_task.h</text>
</a>
</g>
</g>
<!-- Node1&#45;&gt;Node3 -->
<g id="edge43_Node000001_Node000003" class="edge">
<title>Node1&#45;&gt;Node3</title>
<g id="a_edge43_Node000001_Node000003"><a xlink:title=" ">
<path fill="none" stroke="#63b8ff" d="M916.73,-339.8C921.56,-331.81 926.88,-322.4 931,-313.5 940.2,-293.64 947.98,-269.19 952.02,-255.56"/>
<polygon fill="#63b8ff" stroke="#63b8ff" points="913.93,-337.69 911.61,-348.02 919.87,-341.38 913.93,-337.69"/>
</a>
</g>
</g>
<!-- Node4 -->
<g id="Node000004" class="node">
<title>Node4</title>
<g id="a_Node000004"><a xlink:href="main_8cpp.html" target="_top" xlink:title="This is the file that contains the main function and all other tasks for the robot controller.">
<polygon fill="white" stroke="#666666" points="951,-22.25 857,-22.25 857,0 951,0 951,-22.25"/>
<text text-anchor="middle" x="904" y="-6.85" font-family="Arial" font-size="12.00">main/main.cpp</text>
</a>
</g>
</g>
<!-- Node1&#45;&gt;Node4 -->
<g id="edge48_Node000001_Node000004" class="edge">
<title>Node1&#45;&gt;Node4</title>
<g id="a_edge48_Node000001_Node000004"><a xlink:title=" ">
<path fill="none" stroke="#63b8ff" d="M981.77,-358.68C1257.76,-355.08 2176.66,-341.08 2233,-313.5 2268.53,-296.1 2290,-284.69 2290,-245.12 2290,-245.12 2290,-245.12 2290,-126.62 2290,-105.6 2616.77,-153.43 2089,-58.25 1864.86,-17.83 1143.02,-12.82 951.19,-12.21"/>
<polygon fill="#63b8ff" stroke="#63b8ff" points="981.75,-355.18 971.8,-358.8 981.84,-362.18 981.75,-355.18"/>
</a>
</g>
</g>
<!-- Node7 -->
<g id="Node000007" class="node">
<title>Node7</title>
<g id="a_Node000007"><a xlink:href="ssd1306_8h.html" target="_top" xlink:title="Contains the code for ssd1306 display, setting it up, and writing text to it.">
<polygon fill="white" stroke="#666666" points="394.25,-255.25 241.75,-255.25 241.75,-233 394.25,-233 394.25,-255.25"/>
<text text-anchor="middle" x="318" y="-239.85" font-family="Arial" font-size="12.00">include/drivers/ssd1306.h</text>
</a>
</g>
</g>
<!-- Node1&#45;&gt;Node7 -->
<g id="edge7_Node000001_Node000007" class="edge">
<title>Node1&#45;&gt;Node7</title>
<g id="a_edge7_Node000001_Node000007"><a xlink:title=" ">
<path fill="none" stroke="#63b8ff" d="M826.12,-349.3C765.82,-340.89 680.33,-328.05 606,-313.5 516.73,-296.02 413.23,-270.03 357.85,-255.65"/>
<polygon fill="#63b8ff" stroke="#63b8ff" points="825.57,-352.76 835.96,-350.66 826.53,-345.82 825.57,-352.76"/>
</a>
</g>
</g>
<!-- Node9 -->
<g id="Node000009" class="node">
<title>Node9</title>
<g id="a_Node000009"><a xlink:href="menu__handler_8h.html" target="_top" xlink:title="This is the file that contains the class for switching between menus.">
<polygon fill="white" stroke="#666666" points="773.75,-138.75 570.25,-138.75 570.25,-116.5 773.75,-116.5 773.75,-138.75"/>
<text text-anchor="middle" x="672" y="-123.35" font-family="Arial" font-size="12.00">include/supporting/menu_handler.h</text>
</a>
</g>
</g>
<!-- Node1&#45;&gt;Node9 -->
<g id="edge38_Node000001_Node000009" class="edge">
<title>Node1&#45;&gt;Node9</title>
<g id="a_edge38_Node000001_Node000009"><a xlink:title=" ">
<path fill="none" stroke="#63b8ff" d="M838.23,-346.09C788.87,-332.2 724.3,-305.29 691,-255.25 666.49,-218.42 668.61,-162.34 670.76,-139.18"/>
<polygon fill="#63b8ff" stroke="#63b8ff" points="837.12,-349.41 847.68,-348.63 838.93,-342.65 837.12,-349.41"/>
</a>
</g>
</g>
<!-- Node10 -->
<g id="Node000010" class="node">
<title>Node10</title>
<g id="a_Node000010"><a xlink:href="display__task_8h.html" target="_top" xlink:title="This is the file that contains the display task.">
<polygon fill="white" stroke="#666666" points="501.62,-80.5 336.38,-80.5 336.38,-58.25 501.62,-58.25 501.62,-80.5"/>
<text text-anchor="middle" x="419" y="-65.1" font-family="Arial" font-size="12.00">include/tasks/display_task.h</text>
</a>
</g>
</g>
<!-- Node1&#45;&gt;Node10 -->
<g id="edge39_Node000001_Node000010" class="edge">
<title>Node1&#45;&gt;Node10</title>
<g id="a_edge39_Node000001_Node000010"><a xlink:title=" ">
<path fill="none" stroke="#63b8ff" d="M826.16,-360.24C652.12,-360.79 236.4,-357.32 104,-313.5 51.48,-296.12 0,-300.44 0,-245.12 0,-245.12 0,-245.12 0,-184.88 0,-115.92 213.82,-87.05 335.97,-76.19"/>
<polygon fill="#63b8ff" stroke="#63b8ff" points="826.02,-363.74 836,-360.2 825.99,-356.74 826.02,-363.74"/>
</a>
</g>
</g>
<!-- Node14 -->
<g id="Node000014" class="node">
<title>Node14</title>
<g id="a_Node000014"><a xlink:href="ssd1306_8cpp.html" target="_top" xlink:title=" ">
<polygon fill="white" stroke="#666666" points="180.25,-197 27.75,-197 27.75,-174.75 180.25,-174.75 180.25,-197"/>
<text text-anchor="middle" x="104" y="-181.6" font-family="Arial" font-size="12.00">main/drivers/ssd1306.cpp</text>
</a>
</g>
</g>
<!-- Node1&#45;&gt;Node14 -->
<g id="edge47_Node000001_Node000014" class="edge">
<title>Node1&#45;&gt;Node14</title>
<g id="a_edge47_Node000001_Node000014"><a xlink:title=" ">
<path fill="none" stroke="#63b8ff" d="M826.18,-356.84C675.01,-351 346.8,-336.12 236,-313.5 158.57,-297.7 113.82,-319.64 68,-255.25 54.39,-236.12 76.21,-211.19 91.38,-197.33"/>
<polygon fill="#63b8ff" stroke="#63b8ff" points="825.98,-360.33 836.11,-357.22 826.25,-353.34 825.98,-360.33"/>
</a>
</g>
</g>
<!-- Node15 -->
<g id="Node000015" class="node">
<title>Node15</title>
<g id="a_Node000015"><a xlink:href="esp__now__callback__setup_8h.html" target="_top" xlink:title="Contains the callback functions for esp&#45;now.">
<polygon fill="white" stroke="#666666" points="1270.88,-313.5 1035.12,-313.5 1035.12,-291.25 1270.88,-291.25 1270.88,-313.5"/>
<text text-anchor="middle" x="1153" y="-298.1" font-family="Arial" font-size="12.00">include/setup/esp_now_callback_setup.h</text>
</a>
</g>
</g>
<!-- Node1&#45;&gt;Node15 -->
<g id="edge21_Node000001_Node000015" class="edge">
<title>Node1&#45;&gt;Node15</title>
<g id="a_edge21_Node000001_Node000015"><a xlink:title=" ">
<path fill="none" stroke="#63b8ff" d="M961.93,-346.54C1005.87,-336.61 1065.49,-323.14 1106.38,-313.91"/>
<polygon fill="#63b8ff" stroke="#63b8ff" points="961.29,-343.09 952.31,-348.71 962.84,-349.92 961.29,-343.09"/>
</a>
</g>
</g>
<!-- Node16 -->
<g id="Node000016" class="node">
<title>Node16</title>
<g id="a_Node000016"><a xlink:href="esp__now__setup_8h.html" target="_top" xlink:title="Contains the code that sets up the ESP&#45;NOW communication.">
<polygon fill="white" stroke="#666666" points="1522.38,-255.25 1337.62,-255.25 1337.62,-233 1522.38,-233 1522.38,-255.25"/>
<text text-anchor="middle" x="1430" y="-239.85" font-family="Arial" font-size="12.00">include/setup/esp_now_setup.h</text>
</a>
</g>
</g>
<!-- Node1&#45;&gt;Node16 -->
<g id="edge27_Node000001_Node000016" class="edge">
<title>Node1&#45;&gt;Node16</title>
<g id="a_edge27_Node000001_Node000016"><a xlink:title=" ">
<path fill="none" stroke="#63b8ff" d="M981.44,-357.02C1058.43,-352.83 1179.25,-341.91 1280,-313.5 1329.86,-299.44 1384.2,-271.08 1411.76,-255.67"/>
<polygon fill="#63b8ff" stroke="#63b8ff" points="981.73,-353.5 971.92,-357.51 982.09,-360.49 981.73,-353.5"/>
</a>
</g>
</g>
<!-- Node19 -->
<g id="Node000019" class="node">
<title>Node19</title>
<g id="a_Node000019"><a xlink:href="i2c__setup_8h.html" target="_top" xlink:title="Contains the code that sets up the i2c bus.">
<polygon fill="white" stroke="#666666" points="1625.88,-313.5 1474.12,-313.5 1474.12,-291.25 1625.88,-291.25 1625.88,-313.5"/>
<text text-anchor="middle" x="1550" y="-298.1" font-family="Arial" font-size="12.00">include/setup/i2c_setup.h</text>
</a>
</g>
</g>
<!-- Node1&#45;&gt;Node19 -->
<g id="edge28_Node000001_Node000019" class="edge">
<title>Node1&#45;&gt;Node19</title>
<g id="a_edge28_Node000001_Node000019"><a xlink:title=" ">
<path fill="none" stroke="#63b8ff" d="M981.73,-352.86C1106.45,-342 1349.8,-320.81 1473.65,-310.02"/>
<polygon fill="#63b8ff" stroke="#63b8ff" points="981.57,-349.36 971.91,-353.71 982.17,-356.33 981.57,-349.36"/>
</a>
</g>
</g>
<!-- Node21 -->
<g id="Node000021" class="node">
<title>Node21</title>
<g id="a_Node000021"><a xlink:href="changeable__values_8h.html" target="_top" xlink:title="Contains the information for the changeable values class, this class allows a value to be modifed by ...">
<polygon fill="white" stroke="#666666" points="644,-255.25 412,-255.25 412,-233 644,-233 644,-255.25"/>
<text text-anchor="middle" x="528" y="-239.85" font-family="Arial" font-size="12.00">include/supporting/changeable_values.h</text>
</a>
</g>
</g>
<!-- Node1&#45;&gt;Node21 -->
<g id="edge31_Node000001_Node000021" class="edge">
<title>Node1&#45;&gt;Node21</title>
<g id="a_edge31_Node000001_Node000021"><a xlink:title=" ">
<path fill="none" stroke="#63b8ff" d="M826.41,-351.12C777.2,-344.26 712.73,-332.54 658,-313.5 614.65,-298.42 567.99,-270.74 544.11,-255.64"/>
<polygon fill="#63b8ff" stroke="#63b8ff" points="825.74,-354.56 836.12,-352.43 826.67,-347.62 825.74,-354.56"/>
</a>
</g>
</g>
<!-- Node22 -->
<g id="Node000022" class="node">
<title>Node22</title>
<g id="a_Node000022"><a xlink:href="font_8h.html" target="_top" xlink:title="This file contains the class for the 12x16 font class.">
<polygon fill="white" stroke="#666666" points="391.25,-313.5 244.75,-313.5 244.75,-291.25 391.25,-291.25 391.25,-313.5"/>
<text text-anchor="middle" x="318" y="-298.1" font-family="Arial" font-size="12.00">include/supporting/font.h</text>
</a>
</g>
</g>
<!-- Node1&#45;&gt;Node22 -->
<g id="edge35_Node000001_Node000022" class="edge">
<title>Node1&#45;&gt;Node22</title>
<g id="a_edge35_Node000001_Node000022"><a xlink:title=" ">
<path fill="none" stroke="#63b8ff" d="M826.28,-352.16C712.68,-341.26 502.74,-321.11 391.55,-310.44"/>
<polygon fill="#63b8ff" stroke="#63b8ff" points="825.84,-355.64 836.13,-353.11 826.51,-348.67 825.84,-355.64"/>
</a>
</g>
</g>
<!-- Node24 -->
<g id="Node000024" class="node">
<title>Node24</title>
<g id="a_Node000024"><a xlink:href="ps4__data__processor__task_8h.html" target="_top" xlink:title="This is the file that contains the ps4 data processor task.">
<polygon fill="white" stroke="#666666" points="1983.88,-313.5 1748.12,-313.5 1748.12,-291.25 1983.88,-291.25 1983.88,-313.5"/>
<text text-anchor="middle" x="1866" y="-298.1" font-family="Arial" font-size="12.00">include/tasks/ps4_data_processor_task.h</text>
</a>
</g>
</g>
<!-- Node1&#45;&gt;Node24 -->
<g id="edge40_Node000001_Node000024" class="edge">
<title>Node1&#45;&gt;Node24</title>
<g id="a_edge40_Node000001_Node000024"><a xlink:title=" ">
<path fill="none" stroke="#63b8ff" d="M981.98,-355.07C1150.29,-345.22 1548.52,-321.94 1747.94,-310.28"/>
<polygon fill="#63b8ff" stroke="#63b8ff" points="981.79,-351.57 972.01,-355.65 982.2,-358.56 981.79,-351.57"/>
</a>
</g>
</g>
<!-- Node26 -->
<g id="Node000026" class="node">
<title>Node26</title>
<g id="a_Node000026"><a xlink:href="send__data__task_8h.html" target="_top" xlink:title=" ">
<polygon fill="white" stroke="#666666" points="2223.62,-313.5 2040.38,-313.5 2040.38,-291.25 2223.62,-291.25 2223.62,-313.5"/>
<text text-anchor="middle" x="2132" y="-298.1" font-family="Arial" font-size="12.00">include/tasks/send_data_task.h</text>
</a>
</g>
</g>
<!-- Node1&#45;&gt;Node26 -->
<g id="edge44_Node000001_Node000026" class="edge">
<title>Node1&#45;&gt;Node26</title>
<g id="a_edge44_Node000001_Node000026"><a xlink:title=" ">
<path fill="none" stroke="#63b8ff" d="M981.69,-357.15C1160.33,-351.27 1614.04,-335.32 1993,-313.5 2008.22,-312.62 2024.36,-311.57 2040.06,-310.47"/>
<polygon fill="#63b8ff" stroke="#63b8ff" points="981.72,-353.64 971.84,-357.47 981.95,-360.64 981.72,-353.64"/>
</a>
</g>
</g>
<!-- Node2&#45;&gt;Node3 -->
<g id="edge2_Node000002_Node000003" class="edge">
<title>Node2&#45;&gt;Node3</title>
<g id="a_edge2_Node000002_Node000003"><a xlink:title=" ">
<path fill="none" stroke="#63b8ff" d="M886.57,-285.22C902.79,-275.72 922.83,-263.97 937.02,-255.66"/>
<polygon fill="#63b8ff" stroke="#63b8ff" points="885.22,-281.95 878.36,-290.03 888.76,-287.99 885.22,-281.95"/>
</a>
</g>
</g>
<!-- Node2&#45;&gt;Node4 -->
<g id="edge6_Node000002_Node000004" class="edge">
<title>Node2&#45;&gt;Node4</title>
<g id="a_edge6_Node000002_Node000004"><a xlink:title=" ">
<path fill="none" stroke="#63b8ff" d="M862.37,-279.73C871.38,-221.77 895.83,-64.66 902.37,-22.6"/>
<polygon fill="#63b8ff" stroke="#63b8ff" points="858.91,-279.17 860.83,-289.58 865.83,-280.24 858.91,-279.17"/>
</a>
</g>
</g>
<!-- Node6 -->
<g id="Node000006" class="node">
<title>Node6</title>
<g id="a_Node000006"><a xlink:href="ps4_8cpp.html" target="_top" xlink:title="This is the file that contains the ps4 controller class (and internal tasks for usb host)">
<polygon fill="white" stroke="#666666" points="826.12,-255.25 699.88,-255.25 699.88,-233 826.12,-233 826.12,-255.25"/>
<text text-anchor="middle" x="763" y="-239.85" font-family="Arial" font-size="12.00">main/drivers/ps4.cpp</text>
</a>
</g>
</g>
<!-- Node2&#45;&gt;Node6 -->
<g id="edge5_Node000002_Node000006" class="edge">
<title>Node2&#45;&gt;Node6</title>
<g id="a_edge5_Node000002_Node000006"><a xlink:title=" ">
<path fill="none" stroke="#63b8ff" d="M831.43,-285.22C815.21,-275.72 795.17,-263.97 780.98,-255.66"/>
<polygon fill="#63b8ff" stroke="#63b8ff" points="829.24,-287.99 839.64,-290.03 832.78,-281.95 829.24,-287.99"/>
</a>
</g>
</g>
<!-- Node3&#45;&gt;Node4 -->
<g id="edge3_Node000003_Node000004" class="edge">
<title>Node3&#45;&gt;Node4</title>
<g id="a_edge3_Node000003_Node000004"><a xlink:title=" ">
<path fill="none" stroke="#63b8ff" d="M938.28,-223.72C932.47,-215.91 926.52,-206.51 923,-197 899.71,-134.06 901.72,-51.35 903.3,-22.55"/>
<polygon fill="#63b8ff" stroke="#63b8ff" points="935.48,-225.82 944.45,-231.46 940.96,-221.46 935.48,-225.82"/>
</a>
</g>
</g>
<!-- Node5 -->
<g id="Node000005" class="node">
<title>Node5</title>
<g id="a_Node000005"><a xlink:href="ps4__task_8cpp.html" target="_top" xlink:title="This is the file that contains the ps4 task.">
<polygon fill="white" stroke="#666666" points="1078.25,-197 931.75,-197 931.75,-174.75 1078.25,-174.75 1078.25,-197"/>
<text text-anchor="middle" x="1005" y="-181.6" font-family="Arial" font-size="12.00">main/tasks/ps4_task.cpp</text>
</a>
</g>
</g>
<!-- Node3&#45;&gt;Node5 -->
<g id="edge4_Node000003_Node000005" class="edge">
<title>Node3&#45;&gt;Node5</title>
<g id="a_edge4_Node000003_Node000005"><a xlink:title=" ">
<path fill="none" stroke="#63b8ff" d="M972.05,-223.94C979.94,-215.07 989.01,-204.86 995.64,-197.41"/>
<polygon fill="#63b8ff" stroke="#63b8ff" points="969.44,-221.61 965.41,-231.41 974.67,-226.26 969.44,-221.61"/>
</a>
</g>
</g>
<!-- Node7&#45;&gt;Node4 -->
<g id="edge20_Node000007_Node000004" class="edge">
<title>Node7&#45;&gt;Node4</title>
<g id="a_edge20_Node000007_Node000004"><a xlink:title=" ">
<path fill="none" stroke="#63b8ff" d="M288.34,-226.37C277.66,-218.8 266.63,-208.87 260,-197 242.49,-165.64 237.32,-148.81 253,-116.5 271.28,-78.85 288.03,-73.52 327,-58.25 423.14,-20.59 736.74,-13.67 856.72,-12.41"/>
<polygon fill="#63b8ff" stroke="#63b8ff" points="286.36,-229.25 296.64,-231.81 290.2,-223.4 286.36,-229.25"/>
</a>
</g>
</g>
<!-- Node8 -->
<g id="Node000008" class="node">
<title>Node8</title>
<g id="a_Node000008"><a xlink:href="menus_8h.html" target="_top" xlink:title="This is the file that contains the class for menus.">
<polygon fill="white" stroke="#666666" points="475.5,-197 312.5,-197 312.5,-174.75 475.5,-174.75 475.5,-197"/>
<text text-anchor="middle" x="394" y="-181.6" font-family="Arial" font-size="12.00">include/supporting/menus.h</text>
</a>
</g>
</g>
<!-- Node7&#45;&gt;Node8 -->
<g id="edge8_Node000007_Node000008" class="edge">
<title>Node7&#45;&gt;Node8</title>
<g id="a_edge8_Node000007_Node000008"><a xlink:title=" ">
<path fill="none" stroke="#63b8ff" d="M341.3,-225.88C353.86,-216.58 368.96,-205.41 379.77,-197.41"/>
<polygon fill="#63b8ff" stroke="#63b8ff" points="339.47,-222.88 333.51,-231.64 343.63,-228.51 339.47,-222.88"/>
</a>
</g>
</g>
<!-- Node7&#45;&gt;Node10 -->
<g id="edge18_Node000007_Node000010" class="edge">
<title>Node7&#45;&gt;Node10</title>
<g id="a_edge18_Node000007_Node000010"><a xlink:title=" ">
<path fill="none" stroke="#63b8ff" d="M299.19,-224.5C275.19,-198.46 239.67,-150.53 265,-116.5 281.75,-94 309.08,-82.06 336.11,-75.85"/>
<polygon fill="#63b8ff" stroke="#63b8ff" points="296.59,-226.85 306.03,-231.65 301.64,-222.01 296.59,-226.85"/>
</a>
</g>
</g>
<!-- Node7&#45;&gt;Node14 -->
<g id="edge19_Node000007_Node000014" class="edge">
<title>Node7&#45;&gt;Node14</title>
<g id="a_edge19_Node000007_Node000014"><a xlink:title=" ">
<path fill="none" stroke="#63b8ff" d="M267,-229.72C229.36,-219.83 178.84,-206.55 144.07,-197.41"/>
<polygon fill="#63b8ff" stroke="#63b8ff" points="265.72,-233 276.28,-232.16 267.5,-226.23 265.72,-233"/>
</a>
</g>
</g>
<!-- Node8&#45;&gt;Node4 -->
<g id="edge16_Node000008_Node000004" class="edge">
<title>Node8&#45;&gt;Node4</title>
<g id="a_edge16_Node000008_Node000004"><a xlink:title=" ">
<path fill="none" stroke="#63b8ff" d="M418.82,-167.78C468.99,-133.23 577.72,-58.36 578,-58.25 672.13,-21.56 791.68,-13.55 856.68,-12.1"/>
<polygon fill="#63b8ff" stroke="#63b8ff" points="416.84,-164.89 410.59,-173.45 420.81,-170.66 416.84,-164.89"/>
</a>
</g>
</g>
<!-- Node8&#45;&gt;Node9 -->
<g id="edge9_Node000008_Node000009" class="edge">
<title>Node8&#45;&gt;Node9</title>
<g id="a_edge9_Node000008_Node000009"><a xlink:title=" ">
<path fill="none" stroke="#63b8ff" d="M457.43,-172.04C506.61,-162.09 573.91,-148.47 619.94,-139.16"/>
<polygon fill="#63b8ff" stroke="#63b8ff" points="456.88,-168.58 447.77,-173.99 458.27,-175.44 456.88,-168.58"/>
</a>
</g>
</g>
<!-- Node8&#45;&gt;Node10 -->
<g id="edge15_Node000008_Node000010" class="edge">
<title>Node8&#45;&gt;Node10</title>
<g id="a_edge15_Node000008_Node000010"><a xlink:title=" ">
<path fill="none" stroke="#63b8ff" d="M421.42,-167.8C431.06,-160.21 440.79,-150.34 446,-138.75 455.11,-118.5 439.36,-94.19 428.34,-80.69"/>
<polygon fill="#63b8ff" stroke="#63b8ff" points="419.62,-164.78 413.57,-173.48 423.72,-170.45 419.62,-164.78"/>
</a>
</g>
</g>
<!-- Node13 -->
<g id="Node000013" class="node">
<title>Node13</title>
<g id="a_Node000013"><a xlink:href="menus_8cpp.html" target="_top" xlink:title="source file for the class that handles the creation of menus">
<polygon fill="white" stroke="#666666" points="437.5,-138.75 274.5,-138.75 274.5,-116.5 437.5,-116.5 437.5,-138.75"/>
<text text-anchor="middle" x="356" y="-123.35" font-family="Arial" font-size="12.00">main/supporting/menus.cpp</text>
</a>
</g>
</g>
<!-- Node8&#45;&gt;Node13 -->
<g id="edge17_Node000008_Node000013" class="edge">
<title>Node8&#45;&gt;Node13</title>
<g id="a_edge17_Node000008_Node000013"><a xlink:title=" ">
<path fill="none" stroke="#63b8ff" d="M380.47,-164.85C374.61,-156.17 367.99,-146.37 363.12,-139.16"/>
<polygon fill="#63b8ff" stroke="#63b8ff" points="377.51,-166.71 386.01,-173.04 383.31,-162.79 377.51,-166.71"/>
</a>
</g>
</g>
<!-- Node9&#45;&gt;Node4 -->
<g id="edge13_Node000009_Node000004" class="edge">
<title>Node9&#45;&gt;Node4</title>
<g id="a_edge13_Node000009_Node000004"><a xlink:title=" ">
<path fill="none" stroke="#63b8ff" d="M629.88,-111.83C600.15,-99.12 568.6,-79.52 587,-58.25 621.29,-18.61 776.95,-12.34 856.66,-11.79"/>
<polygon fill="#63b8ff" stroke="#63b8ff" points="628.26,-114.95 638.84,-115.46 630.89,-108.46 628.26,-114.95"/>
</a>
</g>
</g>
<!-- Node9&#45;&gt;Node10 -->
<g id="edge10_Node000009_Node000010" class="edge">
<title>Node9&#45;&gt;Node10</title>
<g id="a_edge10_Node000009_Node000010"><a xlink:title=" ">
<path fill="none" stroke="#63b8ff" d="M613.42,-113.6C568.75,-103.67 508.01,-90.16 466.37,-80.91"/>
<polygon fill="#63b8ff" stroke="#63b8ff" points="612.41,-116.96 622.94,-115.72 613.93,-110.13 612.41,-116.96"/>
</a>
</g>
</g>
<!-- Node12 -->
<g id="Node000012" class="node">
<title>Node12</title>
<g id="a_Node000012"><a xlink:href="menu__handler_8cpp.html" target="_top" xlink:title="This is the file that contains the class for switching between menus.">
<polygon fill="white" stroke="#666666" points="799.75,-80.5 596.25,-80.5 596.25,-58.25 799.75,-58.25 799.75,-80.5"/>
<text text-anchor="middle" x="698" y="-65.1" font-family="Arial" font-size="12.00">main/supporting/menu_handler.cpp</text>
</a>
</g>
</g>
<!-- Node9&#45;&gt;Node12 -->
<g id="edge14_Node000009_Node000012" class="edge">
<title>Node9&#45;&gt;Node12</title>
<g id="a_edge14_Node000009_Node000012"><a xlink:title=" ">
<path fill="none" stroke="#63b8ff" d="M681.65,-105.75C685.56,-97.29 689.9,-87.89 693.13,-80.91"/>
<polygon fill="#63b8ff" stroke="#63b8ff" points="678.54,-104.13 677.53,-114.67 684.9,-107.06 678.54,-104.13"/>
</a>
</g>
</g>
<!-- Node10&#45;&gt;Node4 -->
<g id="edge11_Node000010_Node000004" class="edge">
<title>Node10&#45;&gt;Node4</title>
<g id="a_edge11_Node000010_Node000004"><a xlink:title=" ">
<path fill="none" stroke="#63b8ff" d="M513.43,-57.42C616.46,-45.47 777.24,-26.83 856.52,-17.63"/>
<polygon fill="#63b8ff" stroke="#63b8ff" points="513.13,-53.93 503.6,-58.56 513.94,-60.89 513.13,-53.93"/>
</a>
</g>
</g>
<!-- Node11 -->
<g id="Node000011" class="node">
<title>Node11</title>
<g id="a_Node000011"><a xlink:href="display__task_8cpp.html" target="_top" xlink:title="This is the file that contains the display task.">
<polygon fill="white" stroke="#666666" points="501.62,-22.25 336.38,-22.25 336.38,0 501.62,0 501.62,-22.25"/>
<text text-anchor="middle" x="419" y="-6.85" font-family="Arial" font-size="12.00">main/tasks/display_task.cpp</text>
</a>
</g>
</g>
<!-- Node10&#45;&gt;Node11 -->
<g id="edge12_Node000010_Node000011" class="edge">
<title>Node10&#45;&gt;Node11</title>
<g id="a_edge12_Node000010_Node000011"><a xlink:title=" ">
<path fill="none" stroke="#63b8ff" d="M419,-46.35C419,-38.2 419,-29.33 419,-22.66"/>
<polygon fill="#63b8ff" stroke="#63b8ff" points="415.5,-46.28 419,-56.28 422.5,-46.28 415.5,-46.28"/>
</a>
</g>
</g>
<!-- Node15&#45;&gt;Node4 -->
<g id="edge25_Node000015_Node000004" class="edge">
<title>Node15&#45;&gt;Node4</title>
<g id="a_edge25_Node000015_Node000004"><a xlink:title=" ">
<path fill="none" stroke="#63b8ff" d="M1109.93,-286.01C1096.3,-278.86 1082.76,-268.86 1075,-255.25 1057.08,-223.83 1101.82,-207.75 1087,-174.75 1053.13,-99.34 965.09,-44.64 924.75,-22.72"/>
<polygon fill="#63b8ff" stroke="#63b8ff" points="1108.38,-289.14 1118.92,-290.27 1111.38,-282.82 1108.38,-289.14"/>
</a>
</g>
</g>
<!-- Node15&#45;&gt;Node16 -->
<g id="edge22_Node000015_Node000016" class="edge">
<title>Node15&#45;&gt;Node16</title>
<g id="a_edge22_Node000015_Node000016"><a xlink:title=" ">
<path fill="none" stroke="#63b8ff" d="M1216.2,-288.54C1265.2,-278.59 1332.26,-264.97 1378.13,-255.66"/>
<polygon fill="#63b8ff" stroke="#63b8ff" points="1215.69,-285.07 1206.58,-290.49 1217.08,-291.93 1215.69,-285.07"/>
</a>
</g>
</g>
<!-- Node18 -->
<g id="Node000018" class="node">
<title>Node18</title>
<g id="a_Node000018"><a xlink:href="esp__now__callback__setup_8cpp.html" target="_top" xlink:title="source file that sets up esp&#45;now callbacks">
<polygon fill="white" stroke="#666666" points="1319.88,-255.25 1084.12,-255.25 1084.12,-233 1319.88,-233 1319.88,-255.25"/>
<text text-anchor="middle" x="1202" y="-239.85" font-family="Arial" font-size="12.00">main/setup/esp_now_callback_setup.cpp</text>
</a>
</g>
</g>
<!-- Node15&#45;&gt;Node18 -->
<g id="edge26_Node000015_Node000018" class="edge">
<title>Node15&#45;&gt;Node18</title>
<g id="a_edge26_Node000015_Node000018"><a xlink:title=" ">
<path fill="none" stroke="#63b8ff" d="M1169.71,-282.19C1177.44,-273.32 1186.33,-263.11 1192.82,-255.66"/>
<polygon fill="#63b8ff" stroke="#63b8ff" points="1167.14,-279.81 1163.21,-289.65 1172.42,-284.41 1167.14,-279.81"/>
</a>
</g>
</g>
<!-- Node16&#45;&gt;Node4 -->
<g id="edge23_Node000016_Node000004" class="edge">
<title>Node16&#45;&gt;Node4</title>
<g id="a_edge23_Node000016_Node000004"><a xlink:title=" ">
<path fill="none" stroke="#63b8ff" d="M1393.54,-228.13C1374.03,-219.7 1349.8,-208.56 1329,-197 1231.54,-142.84 1222.77,-101.49 1120,-58.25 1064.69,-34.98 996.28,-22.92 951.46,-17.07"/>
<polygon fill="#63b8ff" stroke="#63b8ff" points="1392.17,-231.35 1402.74,-232.05 1394.91,-224.91 1392.17,-231.35"/>
</a>
</g>
</g>
<!-- Node17 -->
<g id="Node000017" class="node">
<title>Node17</title>
<g id="a_Node000017"><a xlink:href="esp__now__setup_8cpp.html" target="_top" xlink:title="source file that sets up esp&#45;now">
<polygon fill="white" stroke="#666666" points="1522.38,-197 1337.62,-197 1337.62,-174.75 1522.38,-174.75 1522.38,-197"/>
<text text-anchor="middle" x="1430" y="-181.6" font-family="Arial" font-size="12.00">main/setup/esp_now_setup.cpp</text>
</a>
</g>
</g>
<!-- Node16&#45;&gt;Node17 -->
<g id="edge24_Node000016_Node000017" class="edge">
<title>Node16&#45;&gt;Node17</title>
<g id="a_edge24_Node000016_Node000017"><a xlink:title=" ">
<path fill="none" stroke="#63b8ff" d="M1430,-221.1C1430,-212.95 1430,-204.08 1430,-197.41"/>
<polygon fill="#63b8ff" stroke="#63b8ff" points="1426.5,-221.03 1430,-231.03 1433.5,-221.03 1426.5,-221.03"/>
</a>
</g>
</g>
<!-- Node19&#45;&gt;Node4 -->
<g id="edge29_Node000019_Node000004" class="edge">
<title>Node19&#45;&gt;Node4</title>
<g id="a_edge29_Node000019_Node000004"><a xlink:title=" ">
<path fill="none" stroke="#63b8ff" d="M1550,-279.46C1550,-256.42 1550,-219.1 1550,-186.88 1550,-186.88 1550,-186.88 1550,-126.62 1550,-65.79 1100.16,-26.76 951.24,-15.5"/>
<polygon fill="#63b8ff" stroke="#63b8ff" points="1546.5,-279.44 1550,-289.44 1553.5,-279.44 1546.5,-279.44"/>
</a>
</g>
</g>
<!-- Node20 -->
<g id="Node000020" class="node">
<title>Node20</title>
<g id="a_Node000020"><a xlink:href="i2c__setup_8cpp.html" target="_top" xlink:title="source file that sets up the i2c bus">
<polygon fill="white" stroke="#666666" points="1729.88,-255.25 1578.12,-255.25 1578.12,-233 1729.88,-233 1729.88,-255.25"/>
<text text-anchor="middle" x="1654" y="-239.85" font-family="Arial" font-size="12.00">main/setup/i2c_setup.cpp</text>
</a>
</g>
</g>
<!-- Node19&#45;&gt;Node20 -->
<g id="edge30_Node000019_Node000020" class="edge">
<title>Node19&#45;&gt;Node20</title>
<g id="a_edge30_Node000019_Node000020"><a xlink:title=" ">
<path fill="none" stroke="#63b8ff" d="M1579.38,-285.49C1597.03,-275.94 1619.01,-264.05 1634.53,-255.66"/>
<polygon fill="#63b8ff" stroke="#63b8ff" points="1578.02,-282.24 1570.89,-290.07 1581.35,-288.4 1578.02,-282.24"/>
</a>
</g>
</g>
<!-- Node21&#45;&gt;Node4 -->
<g id="edge34_Node000021_Node000004" class="edge">
<title>Node21&#45;&gt;Node4</title>
<g id="a_edge34_Node000021_Node000004"><a xlink:title=" ">
<path fill="none" stroke="#63b8ff" d="M580.63,-229.55C634.9,-213.81 720.23,-184.07 783,-138.75 821.2,-111.17 818.96,-91.85 852,-58.25 864.69,-45.34 880.36,-31.73 891.16,-22.66"/>
<polygon fill="#63b8ff" stroke="#63b8ff" points="579.99,-226.09 571.33,-232.19 581.91,-232.82 579.99,-226.09"/>
</a>
</g>
</g>
<!-- Node21&#45;&gt;Node8 -->
<g id="edge32_Node000021_Node000008" class="edge">
<title>Node21&#45;&gt;Node8</title>
<g id="a_edge32_Node000021_Node000008"><a xlink:title=" ">
<path fill="none" stroke="#63b8ff" d="M492.36,-228.17C469.26,-218.47 439.74,-206.08 419.09,-197.41"/>
<polygon fill="#63b8ff" stroke="#63b8ff" points="490.82,-231.32 501.4,-231.96 493.53,-224.86 490.82,-231.32"/>
</a>
</g>
</g>
<!-- Node21&#45;&gt;Node10 -->
<g id="edge33_Node000021_Node000010" class="edge">
<title>Node21&#45;&gt;Node10</title>
<g id="a_edge33_Node000021_Node000010"><a xlink:title=" ">
<path fill="none" stroke="#63b8ff" d="M518.98,-222.34C507.31,-196.47 485.56,-151.44 461,-116.5 451.66,-103.21 438.84,-89.66 429.83,-80.71"/>
<polygon fill="#63b8ff" stroke="#63b8ff" points="515.74,-223.67 522.99,-231.39 522.14,-220.83 515.74,-223.67"/>
</a>
</g>
</g>
<!-- Node22&#45;&gt;Node7 -->
<g id="edge36_Node000022_Node000007" class="edge">
<title>Node22&#45;&gt;Node7</title>
<g id="a_edge36_Node000022_Node000007"><a xlink:title=" ">
<path fill="none" stroke="#63b8ff" d="M318,-279.35C318,-271.2 318,-262.33 318,-255.66"/>
<polygon fill="#63b8ff" stroke="#63b8ff" points="314.5,-279.28 318,-289.28 321.5,-279.28 314.5,-279.28"/>
</a>
</g>
</g>
<!-- Node23 -->
<g id="Node000023" class="node">
<title>Node23</title>
<g id="a_Node000023"><a xlink:href="font_8cpp.html" target="_top" xlink:title="source file for the class that maps ascii characters to their font representation">
<polygon fill="white" stroke="#666666" points="223.25,-255.25 76.75,-255.25 76.75,-233 223.25,-233 223.25,-255.25"/>
<text text-anchor="middle" x="150" y="-239.85" font-family="Arial" font-size="12.00">main/supporting/font.cpp</text>
</a>
</g>
</g>
<!-- Node22&#45;&gt;Node23 -->
<g id="edge37_Node000022_Node000023" class="edge">
<title>Node22&#45;&gt;Node23</title>
<g id="a_edge37_Node000022_Node000023"><a xlink:title=" ">
<path fill="none" stroke="#63b8ff" d="M275.66,-287.2C246.38,-277.39 208.05,-264.56 181.46,-255.66"/>
<polygon fill="#63b8ff" stroke="#63b8ff" points="274.37,-290.46 284.97,-290.31 276.59,-283.82 274.37,-290.46"/>
</a>
</g>
</g>
<!-- Node24&#45;&gt;Node4 -->
<g id="edge41_Node000024_Node000004" class="edge">
<title>Node24&#45;&gt;Node4</title>
<g id="a_edge41_Node000024_Node000004"><a xlink:title=" ">
<path fill="none" stroke="#63b8ff" d="M1940.35,-287.37C1959.7,-280.53 1979.02,-270.36 1993,-255.25 2014.42,-232.1 2012,-218.42 2012,-186.88 2012,-186.88 2012,-186.88 2012,-126.62 2012,-18.27 1162.74,-11.88 951.25,-11.97"/>
<polygon fill="#63b8ff" stroke="#63b8ff" points="1939.5,-283.96 1931.06,-290.37 1941.66,-290.62 1939.5,-283.96"/>
</a>
</g>
</g>
<!-- Node25 -->
<g id="Node000025" class="node">
<title>Node25</title>
<g id="a_Node000025"><a xlink:href="ps4__data__processor__task_8cpp.html" target="_top" xlink:title="This is the file that contains the ps4 data processor task.">
<polygon fill="white" stroke="#666666" points="1983.88,-255.25 1748.12,-255.25 1748.12,-233 1983.88,-233 1983.88,-255.25"/>
<text text-anchor="middle" x="1866" y="-239.85" font-family="Arial" font-size="12.00">main/tasks/ps4_data_processor_task.cpp</text>
</a>
</g>
</g>
<!-- Node24&#45;&gt;Node25 -->
<g id="edge42_Node000024_Node000025" class="edge">
<title>Node24&#45;&gt;Node25</title>
<g id="a_edge42_Node000024_Node000025"><a xlink:title=" ">
<path fill="none" stroke="#63b8ff" d="M1866,-279.35C1866,-271.2 1866,-262.33 1866,-255.66"/>
<polygon fill="#63b8ff" stroke="#63b8ff" points="1862.5,-279.28 1866,-289.28 1869.5,-279.28 1862.5,-279.28"/>
</a>
</g>
</g>
<!-- Node26&#45;&gt;Node4 -->
<g id="edge45_Node000026_Node000004" class="edge">
<title>Node26&#45;&gt;Node4</title>
<g id="a_edge45_Node000026_Node000004"><a xlink:title=" ">
<path fill="none" stroke="#63b8ff" d="M2185.84,-286.8C2203.01,-279.77 2220.72,-269.64 2233,-255.25 2253.48,-231.26 2252,-218.42 2252,-186.88 2252,-186.88 2252,-186.88 2252,-126.62 2252,29.25 2062.74,-77.07 1908,-58.25 1541.66,-13.68 1095.35,-11.27 951.26,-11.78"/>
<polygon fill="#63b8ff" stroke="#63b8ff" points="2184.81,-283.45 2176.69,-290.25 2187.28,-290 2184.81,-283.45"/>
</a>
</g>
</g>
<!-- Node27 -->
<g id="Node000027" class="node">
<title>Node27</title>
<g id="a_Node000027"><a xlink:href="send__data__task_8cpp.html" target="_top" xlink:title="This is the file that contains the send data task.">
<polygon fill="white" stroke="#666666" points="2223.62,-255.25 2040.38,-255.25 2040.38,-233 2223.62,-233 2223.62,-255.25"/>
<text text-anchor="middle" x="2132" y="-239.85" font-family="Arial" font-size="12.00">main/tasks/send_data_task.cpp</text>
</a>
</g>
</g>
<!-- Node26&#45;&gt;Node27 -->
<g id="edge46_Node000026_Node000027" class="edge">
<title>Node26&#45;&gt;Node27</title>
<g id="a_edge46_Node000026_Node000027"><a xlink:title=" ">
<path fill="none" stroke="#63b8ff" d="M2132,-279.35C2132,-271.2 2132,-262.33 2132,-255.66"/>
<polygon fill="#63b8ff" stroke="#63b8ff" points="2128.5,-279.28 2132,-289.28 2135.5,-279.28 2128.5,-279.28"/>
</a>
</g>
</g>
</g>
</svg>

<g id="navigator" transform="translate(0 0)" fill="#404254">
  <rect fill="#f2f5e9" fill-opacity="0.5" stroke="#606060" stroke-width=".5" x="0" y="0" width="60" height="60"/>
  <use id="zoomplus" xlink:href="#zoomPlus" x="17" y="9" onmousedown="handleZoom(evt,'in')"/>
  <use id="zoomminus" xlink:href="#zoomMin" x="42" y="9" onmousedown="handleZoom(evt,'out')"/>
  <use id="reset" xlink:href="#resetDef" x="30" y="36" onmousedown="handleReset()"/>
   <use id="arrowup" xlink:href="#arrowUp" x="0" y="0" onmousedown="handlePan(0,-1)"/>
  <use id="arrowright" xlink:href="#arrowRight" x="0" y="0" onmousedown="handlePan(1,0)"/>
  <use id="arrowdown" xlink:href="#arrowDown" x="0" y="0" onmousedown="handlePan(0,1)"/>
  <use id="arrowleft" xlink:href="#arrowLeft" x="0" y="0" onmousedown="handlePan(-1,0)"/>
</g>
<svg viewBox="0 0 15 15" width="100%" height="30px" preserveAspectRatio="xMaxYMin meet">
 <g id="arrow_out" transform="scale(0.3 0.3)">
  <a xlink:href="all__includes_8h__dep__incl_org.svg" target="_base">
   <rect id="button" ry="5" rx="5" y="6" x="6" height="38" width="38"
        fill="#f2f5e9" fill-opacity="0.5" stroke="#606060" stroke-width="1.0"/>
   <path id="arrow"
     d="M 11.500037,31.436501 C 11.940474,20.09759 22.043105,11.32322 32.158766,21.979434 L 37.068811,17.246167 C 37.068811,17.246167 37.088388,32 37.088388,32 L 22.160133,31.978069 C 22.160133,31.978069 26.997745,27.140456 26.997745,27.140456 C 18.528582,18.264221 13.291696,25.230495 11.500037,31.436501 z"
     style="fill:#404040;"/>
  </a>
 </g>
</svg>

<style type='text/css'>
<![CDATA[
[data-mouse-over-selected='false'] { opacity: 0.7; }
[data-mouse-over-selected='true']  { opacity: 1.0; }
]]>
</style>
<script type="application/ecmascript"><![CDATA[
document.addEventListener('DOMContentLoaded', (event) => {
  highlightEdges();
  highlightAdjacentNodes();
});
]]></script>
</svg>
