<?xml version="1.0" encoding="UTF-8" standalone="no"?>
<!DOCTYPE svg PUBLIC "-//W3C//DTD SVG 1.1//EN"
 "http://www.w3.org/Graphics/SVG/1.1/DTD/svg11.dtd">
<!-- Generated by graphviz version 12.2.1 (20241206.2353)
 -->
<!-- Title: include/supporting/changeable_values.h Pages: 1 -->
<svg width="502pt" height="263pt"
 viewBox="0.00 0.00 501.64 263.25" xmlns="http://www.w3.org/2000/svg" xmlns:xlink="http://www.w3.org/1999/xlink">
<g id="graph0" class="graph" transform="scale(1 1) rotate(0) translate(4 259.25)">
<title>include/supporting/changeable_values.h</title>
<!-- Node1 -->
<g id="Node000001" class="node">
<title>Node1</title>
<g id="a_Node000001"><a xlink:title="Contains the information for the changeable values class, this class allows a value to be modifed by ...">
<polygon fill="#999999" stroke="#666666" points="339,-255.25 107,-255.25 107,-233 339,-233 339,-255.25"/>
<text text-anchor="middle" x="223" y="-239.85" font-family="Arial" font-size="12.00">include/supporting/changeable_values.h</text>
</a>
</g>
</g>
<!-- Node2 -->
<g id="Node000002" class="node">
<title>Node2</title>
<g id="a_Node000002"><a xlink:href="menus_8h.html" target="_top" xlink:title="This is the file that contains the class for menus.">
<polygon fill="white" stroke="#666666" points="304.5,-197 141.5,-197 141.5,-174.75 304.5,-174.75 304.5,-197"/>
<text text-anchor="middle" x="223" y="-181.6" font-family="Arial" font-size="12.00">include/supporting/menus.h</text>
</a>
</g>
</g>
<!-- Node1&#45;&gt;Node2 -->
<g id="edge1_Node000001_Node000002" class="edge">
<title>Node1&#45;&gt;Node2</title>
<g id="a_edge1_Node000001_Node000002"><a xlink:title=" ">
<path fill="none" stroke="#63b8ff" d="M223,-221.1C223,-212.95 223,-204.08 223,-197.41"/>
<polygon fill="#63b8ff" stroke="#63b8ff" points="219.5,-221.03 223,-231.03 226.5,-221.03 219.5,-221.03"/>
</a>
</g>
</g>
<!-- Node4 -->
<g id="Node000004" class="node">
<title>Node4</title>
<g id="a_Node000004"><a xlink:href="display__task_8h.html" target="_top" xlink:title="This is the file that contains the display task.">
<polygon fill="white" stroke="#666666" points="480.62,-80.5 315.38,-80.5 315.38,-58.25 480.62,-58.25 480.62,-80.5"/>
<text text-anchor="middle" x="398" y="-65.1" font-family="Arial" font-size="12.00">include/tasks/display_task.h</text>
</a>
</g>
</g>
<!-- Node1&#45;&gt;Node4 -->
<g id="edge11_Node000001_Node000004" class="edge">
<title>Node1&#45;&gt;Node4</title>
<g id="a_edge11_Node000001_Node000004"><a xlink:title=" ">
<path fill="none" stroke="#63b8ff" d="M329.8,-230.14C387.22,-217.12 453.36,-191.02 489,-138.75 506.81,-112.63 466.81,-92.45 434.31,-80.99"/>
<polygon fill="#63b8ff" stroke="#63b8ff" points="329.34,-226.66 320.3,-232.18 330.82,-233.5 329.34,-226.66"/>
</a>
</g>
</g>
<!-- Node5 -->
<g id="Node000005" class="node">
<title>Node5</title>
<g id="a_Node000005"><a xlink:href="main_8cpp.html" target="_top" xlink:title="This is the file that contains the main function and all other tasks for the robot controller.">
<polygon fill="white" stroke="#666666" points="94,-22.25 0,-22.25 0,0 94,0 94,-22.25"/>
<text text-anchor="middle" x="47" y="-6.85" font-family="Arial" font-size="12.00">main/main.cpp</text>
</a>
</g>
</g>
<!-- Node1&#45;&gt;Node5 -->
<g id="edge12_Node000001_Node000005" class="edge">
<title>Node1&#45;&gt;Node5</title>
<g id="a_edge12_Node000001_Node000005"><a xlink:title=" ">
<path fill="none" stroke="#63b8ff" d="M168.25,-229.29C123.28,-214.78 62.23,-187.17 32,-138.75 8.67,-101.38 30.67,-45.59 41.63,-22.6"/>
<polygon fill="#63b8ff" stroke="#63b8ff" points="166.99,-232.57 177.58,-232.17 169.06,-225.88 166.99,-232.57"/>
</a>
</g>
</g>
<!-- Node3 -->
<g id="Node000003" class="node">
<title>Node3</title>
<g id="a_Node000003"><a xlink:href="menu__handler_8h.html" target="_top" xlink:title="This is the file that contains the class for switching between menus.">
<polygon fill="white" stroke="#666666" points="259.75,-138.75 56.25,-138.75 56.25,-116.5 259.75,-116.5 259.75,-138.75"/>
<text text-anchor="middle" x="158" y="-123.35" font-family="Arial" font-size="12.00">include/supporting/menu_handler.h</text>
</a>
</g>
</g>
<!-- Node2&#45;&gt;Node3 -->
<g id="edge2_Node000002_Node000003" class="edge">
<title>Node2&#45;&gt;Node3</title>
<g id="a_edge2_Node000002_Node000003"><a xlink:title=" ">
<path fill="none" stroke="#63b8ff" d="M202.12,-166.81C191.57,-157.68 179.15,-146.92 170.17,-139.16"/>
<polygon fill="#63b8ff" stroke="#63b8ff" points="199.78,-169.41 209.63,-173.3 204.36,-164.11 199.78,-169.41"/>
</a>
</g>
</g>
<!-- Node2&#45;&gt;Node4 -->
<g id="edge8_Node000002_Node000004" class="edge">
<title>Node2&#45;&gt;Node4</title>
<g id="a_edge8_Node000002_Node000004"><a xlink:title=" ">
<path fill="none" stroke="#63b8ff" d="M242.9,-166.93C259.58,-152.36 284.41,-131.81 308,-116.5 329.5,-102.55 355.75,-89.51 374.34,-80.88"/>
<polygon fill="#63b8ff" stroke="#63b8ff" points="240.83,-164.08 235.66,-173.33 245.47,-169.33 240.83,-164.08"/>
</a>
</g>
</g>
<!-- Node2&#45;&gt;Node5 -->
<g id="edge9_Node000002_Node000005" class="edge">
<title>Node2&#45;&gt;Node5</title>
<g id="a_edge9_Node000002_Node000005"><a xlink:title=" ">
<path fill="none" stroke="#63b8ff" d="M135.38,-172.13C97.17,-164.6 58.46,-153.6 47,-138.75 20.14,-103.94 35.25,-46.24 43.14,-22.65"/>
<polygon fill="#63b8ff" stroke="#63b8ff" points="134.69,-175.56 145.17,-173.97 135.99,-168.68 134.69,-175.56"/>
</a>
</g>
</g>
<!-- Node8 -->
<g id="Node000008" class="node">
<title>Node8</title>
<g id="a_Node000008"><a xlink:href="menus_8cpp.html" target="_top" xlink:title="source file for the class that handles the creation of menus">
<polygon fill="white" stroke="#666666" points="479.5,-138.75 316.5,-138.75 316.5,-116.5 479.5,-116.5 479.5,-138.75"/>
<text text-anchor="middle" x="398" y="-123.35" font-family="Arial" font-size="12.00">main/supporting/menus.cpp</text>
</a>
</g>
</g>
<!-- Node2&#45;&gt;Node8 -->
<g id="edge10_Node000002_Node000008" class="edge">
<title>Node2&#45;&gt;Node8</title>
<g id="a_edge10_Node000002_Node000008"><a xlink:title=" ">
<path fill="none" stroke="#63b8ff" d="M266.7,-170.83C297.25,-161.01 337.41,-148.1 365.23,-139.16"/>
<polygon fill="#63b8ff" stroke="#63b8ff" points="265.81,-167.44 257.36,-173.83 267.95,-174.1 265.81,-167.44"/>
</a>
</g>
</g>
<!-- Node3&#45;&gt;Node4 -->
<g id="edge3_Node000003_Node000004" class="edge">
<title>Node3&#45;&gt;Node4</title>
<g id="a_edge3_Node000003_Node000004"><a xlink:title=" ">
<path fill="none" stroke="#63b8ff" d="M214.11,-113.47C256.43,-103.55 313.73,-90.12 353.06,-80.91"/>
<polygon fill="#63b8ff" stroke="#63b8ff" points="213.55,-110.01 204.62,-115.7 215.15,-116.83 213.55,-110.01"/>
</a>
</g>
</g>
<!-- Node3&#45;&gt;Node5 -->
<g id="edge6_Node000003_Node000005" class="edge">
<title>Node3&#45;&gt;Node5</title>
<g id="a_edge6_Node000003_Node000005"><a xlink:title=" ">
<path fill="none" stroke="#63b8ff" d="M125.19,-110.58C111.61,-102.83 96.41,-92.57 85,-80.5 68.39,-62.93 56.51,-36.74 50.81,-22.41"/>
<polygon fill="#63b8ff" stroke="#63b8ff" points="123.38,-113.58 133.83,-115.29 126.73,-107.44 123.38,-113.58"/>
</a>
</g>
</g>
<!-- Node7 -->
<g id="Node000007" class="node">
<title>Node7</title>
<g id="a_Node000007"><a xlink:href="menu__handler_8cpp.html" target="_top" xlink:title="This is the file that contains the class for switching between menus.">
<polygon fill="white" stroke="#666666" points="297.75,-80.5 94.25,-80.5 94.25,-58.25 297.75,-58.25 297.75,-80.5"/>
<text text-anchor="middle" x="196" y="-65.1" font-family="Arial" font-size="12.00">main/supporting/menu_handler.cpp</text>
</a>
</g>
</g>
<!-- Node3&#45;&gt;Node7 -->
<g id="edge7_Node000003_Node000007" class="edge">
<title>Node3&#45;&gt;Node7</title>
<g id="a_edge7_Node000003_Node000007"><a xlink:title=" ">
<path fill="none" stroke="#63b8ff" d="M171.53,-106.6C177.39,-97.92 184.01,-88.12 188.88,-80.91"/>
<polygon fill="#63b8ff" stroke="#63b8ff" points="168.69,-104.54 165.99,-114.79 174.49,-108.46 168.69,-104.54"/>
</a>
</g>
</g>
<!-- Node4&#45;&gt;Node5 -->
<g id="edge4_Node000004_Node000005" class="edge">
<title>Node4&#45;&gt;Node5</title>
<g id="a_edge4_Node000004_Node000005"><a xlink:title=" ">
<path fill="none" stroke="#63b8ff" d="M320.73,-55.99C251.61,-44.92 152.51,-29.03 94.45,-19.73"/>
<polygon fill="#63b8ff" stroke="#63b8ff" points="320.06,-59.43 330.49,-57.56 321.16,-52.52 320.06,-59.43"/>
</a>
</g>
</g>
<!-- Node6 -->
<g id="Node000006" class="node">
<title>Node6</title>
<g id="a_Node000006"><a xlink:href="display__task_8cpp.html" target="_top" xlink:title="This is the file that contains the display task.">
<polygon fill="white" stroke="#666666" points="480.62,-22.25 315.38,-22.25 315.38,0 480.62,0 480.62,-22.25"/>
<text text-anchor="middle" x="398" y="-6.85" font-family="Arial" font-size="12.00">main/tasks/display_task.cpp</text>
</a>
</g>
</g>
<!-- Node4&#45;&gt;Node6 -->
<g id="edge5_Node000004_Node000006" class="edge">
<title>Node4&#45;&gt;Node6</title>
<g id="a_edge5_Node000004_Node000006"><a xlink:title=" ">
<path fill="none" stroke="#63b8ff" d="M398,-46.35C398,-38.2 398,-29.33 398,-22.66"/>
<polygon fill="#63b8ff" stroke="#63b8ff" points="394.5,-46.28 398,-56.28 401.5,-46.28 394.5,-46.28"/>
</a>
</g>
</g>
</g>
</svg>
