<?xml version="1.0" encoding="UTF-8" standalone="no"?>
<!DOCTYPE svg PUBLIC "-//W3C//DTD SVG 1.1//EN"
 "http://www.w3.org/Graphics/SVG/1.1/DTD/svg11.dtd">
<!-- Generated by graphviz version 12.2.1 (20241206.2353)
 -->
<!-- Title: ps4::hid_host_device_event Pages: 1 -->
<svg width="658pt" height="30pt"
 viewBox="0.00 0.00 658.25 30.25" xmlns="http://www.w3.org/2000/svg" xmlns:xlink="http://www.w3.org/1999/xlink">
<g id="graph0" class="graph" transform="scale(1 1) rotate(0) translate(4 26.25)">
<title>ps4::hid_host_device_event</title>
<!-- Node1 -->
<g id="Node000001" class="node">
<title>Node1</title>
<g id="a_Node000001"><a xlink:title="USB HID Host Device event.">
<polygon fill="#999999" stroke="#666666" points="165.25,-22.25 0,-22.25 0,0 165.25,0 165.25,-22.25"/>
<text text-anchor="middle" x="82.62" y="-6.85" font-family="Arial" font-size="12.00">ps4::hid_host_device_event</text>
</a>
</g>
</g>
<!-- Node2 -->
<g id="Node000002" class="node">
<title>Node2</title>
<g id="a_Node000002"><a xlink:href="classps4.html#a33c070f3c1106c8ffe493c73756cb388" target="_top" xlink:title="USB HID Host interface callback.">
<polygon fill="white" stroke="#666666" points="392,-22.25 201.25,-22.25 201.25,0 392,0 392,-22.25"/>
<text text-anchor="middle" x="296.62" y="-6.85" font-family="Arial" font-size="12.00">ps4::hid_host_interface_callback</text>
</a>
</g>
</g>
<!-- Node1&#45;&gt;Node2 -->
<g id="edge1_Node000001_Node000002" class="edge">
<title>Node1&#45;&gt;Node2</title>
<g id="a_edge1_Node000001_Node000002"><a xlink:title=" ">
<path fill="none" stroke="#63b8ff" d="M165.59,-11.12C173.43,-11.12 181.46,-11.12 189.48,-11.12"/>
<polygon fill="#63b8ff" stroke="#63b8ff" points="189.3,-14.63 199.3,-11.13 189.3,-7.63 189.3,-14.63"/>
</a>
</g>
</g>
<!-- Node3 -->
<g id="Node000003" class="node">
<title>Node3</title>
<g id="a_Node000003"><a xlink:href="classps4.html#ab98da929c3d1305de189ea698a2d6833" target="_top" xlink:title="USB HID Host Generic Interface report callback handler.">
<polygon fill="white" stroke="#666666" points="650.25,-22.25 428,-22.25 428,0 650.25,0 650.25,-22.25"/>
<text text-anchor="middle" x="539.12" y="-6.85" font-family="Arial" font-size="12.00">ps4::hid_host_generic_report_callback</text>
</a>
</g>
</g>
<!-- Node2&#45;&gt;Node3 -->
<g id="edge2_Node000002_Node000003" class="edge">
<title>Node2&#45;&gt;Node3</title>
<g id="a_edge2_Node000002_Node000003"><a xlink:title=" ">
<path fill="none" stroke="#63b8ff" d="M392.33,-11.12C400.19,-11.12 408.21,-11.12 416.23,-11.12"/>
<polygon fill="#63b8ff" stroke="#63b8ff" points="416.06,-14.63 426.06,-11.13 416.06,-7.63 416.06,-14.63"/>
</a>
</g>
</g>
</g>
</svg>
