<?xml version="1.0" encoding="UTF-8" standalone="no"?>
<!DOCTYPE svg PUBLIC "-//W3C//DTD SVG 1.1//EN"
 "http://www.w3.org/Graphics/SVG/1.1/DTD/svg11.dtd">
<!-- Generated by graphviz version 12.2.1 (20241206.2353)
 -->
<!-- Title: ssd1306::clear_buffer Pages: 1 -->
<svg width="394pt" height="70pt"
 viewBox="0.00 0.00 393.50 70.25" xmlns="http://www.w3.org/2000/svg" xmlns:xlink="http://www.w3.org/1999/xlink">
<g id="graph0" class="graph" transform="scale(1 1) rotate(0) translate(4 66.25)">
<title>ssd1306::clear_buffer</title>
<!-- Node1 -->
<g id="Node000001" class="node">
<title>Node1</title>
<g id="a_Node000001"><a xlink:title="Clears the display buffer.">
<polygon fill="#999999" stroke="#666666" points="385.5,-42.25 254.75,-42.25 254.75,-20 385.5,-20 385.5,-42.25"/>
<text text-anchor="middle" x="320.12" y="-26.85" font-family="Arial" font-size="12.00">ssd1306::clear_buffer</text>
</a>
</g>
</g>
<!-- Node2 -->
<g id="Node000002" class="node">
<title>Node2</title>
<g id="a_Node000002"><a xlink:href="display__task_8cpp.html#a9f61f48e689e3ceb92895a85cd380e17" target="_top" xlink:title="This is the task that handles driving the display with the menus and values.">
<polygon fill="white" stroke="#666666" points="203.38,-62.25 120.62,-62.25 120.62,-40 203.38,-40 203.38,-62.25"/>
<text text-anchor="middle" x="162" y="-46.85" font-family="Arial" font-size="12.00">display_task</text>
</a>
</g>
</g>
<!-- Node1&#45;&gt;Node2 -->
<g id="edge1_Node000001_Node000002" class="edge">
<title>Node1&#45;&gt;Node2</title>
<g id="a_edge1_Node000001_Node000002"><a xlink:title=" ">
<path fill="none" stroke="#63b8ff" d="M242.97,-40.88C229.44,-42.61 215.84,-44.36 203.79,-45.9"/>
<polygon fill="#63b8ff" stroke="#63b8ff" points="243.29,-44.37 252.77,-39.63 242.41,-37.42 243.29,-44.37"/>
</a>
</g>
</g>
<!-- Node4 -->
<g id="Node000004" class="node">
<title>Node4</title>
<g id="a_Node000004"><a xlink:href="classssd1306.html#a2518946b016e3c7f651eacaa1416864f" target="_top" xlink:title="Constructor for the SSD1306 class.">
<polygon fill="white" stroke="#666666" points="218.75,-22.25 105.25,-22.25 105.25,0 218.75,0 218.75,-22.25"/>
<text text-anchor="middle" x="162" y="-6.85" font-family="Arial" font-size="12.00">ssd1306::ssd1306</text>
</a>
</g>
</g>
<!-- Node1&#45;&gt;Node4 -->
<g id="edge3_Node000001_Node000004" class="edge">
<title>Node1&#45;&gt;Node4</title>
<g id="a_edge3_Node000001_Node000004"><a xlink:title=" ">
<path fill="none" stroke="#63b8ff" d="M242.91,-21.36C234.84,-20.33 226.74,-19.29 218.95,-18.29"/>
<polygon fill="#63b8ff" stroke="#63b8ff" points="242.41,-24.83 252.77,-22.62 243.29,-17.88 242.41,-24.83"/>
</a>
</g>
</g>
<!-- Node3 -->
<g id="Node000003" class="node">
<title>Node3</title>
<g id="a_Node000003"><a xlink:href="main_8cpp.html#a630544a7f0a2cc40d8a7fefab7e2fe70" target="_top" xlink:title="the main function for the program, creates all semaphores, tasks, and runs setup functions">
<polygon fill="white" stroke="#666666" points="69.25,-62.25 0,-62.25 0,-40 69.25,-40 69.25,-62.25"/>
<text text-anchor="middle" x="34.62" y="-46.85" font-family="Arial" font-size="12.00">app_main</text>
</a>
</g>
</g>
<!-- Node2&#45;&gt;Node3 -->
<g id="edge2_Node000002_Node000003" class="edge">
<title>Node2&#45;&gt;Node3</title>
<g id="a_edge2_Node000002_Node000003"><a xlink:title=" ">
<path fill="none" stroke="#63b8ff" d="M108.82,-51.12C95.51,-51.12 81.54,-51.12 69.42,-51.12"/>
<polygon fill="#63b8ff" stroke="#63b8ff" points="108.78,-54.63 118.78,-51.13 108.78,-47.63 108.78,-54.63"/>
</a>
</g>
</g>
</g>
</svg>
