<?xml version="1.0" encoding="UTF-8" standalone="no"?>
<!DOCTYPE svg PUBLIC "-//W3C//DTD SVG 1.1//EN"
 "http://www.w3.org/Graphics/SVG/1.1/DTD/svg11.dtd">
<!-- Generated by graphviz version 12.2.1 (20241206.2353)
 -->
<!-- Title: ps4::hid_host_interface_callback Pages: 1 -->
<svg width="497pt" height="30pt"
 viewBox="0.00 0.00 497.00 30.25" xmlns="http://www.w3.org/2000/svg" xmlns:xlink="http://www.w3.org/1999/xlink">
<g id="graph0" class="graph" transform="scale(1 1) rotate(0) translate(4 26.25)">
<title>ps4::hid_host_interface_callback</title>
<!-- Node1 -->
<g id="Node000001" class="node">
<title>Node1</title>
<g id="a_Node000001"><a xlink:title="USB HID Host interface callback.">
<polygon fill="#999999" stroke="#666666" points="489,-22.25 298.25,-22.25 298.25,0 489,0 489,-22.25"/>
<text text-anchor="middle" x="393.62" y="-6.85" font-family="Arial" font-size="12.00">ps4::hid_host_interface_callback</text>
</a>
</g>
</g>
<!-- Node2 -->
<g id="Node000002" class="node">
<title>Node2</title>
<g id="a_Node000002"><a xlink:href="classps4.html#ac862ec12615387da7a5820a29443cb2b" target="_top" xlink:title="USB HID Host Device event.">
<polygon fill="white" stroke="#666666" points="262.25,-22.25 97,-22.25 97,0 262.25,0 262.25,-22.25"/>
<text text-anchor="middle" x="179.62" y="-6.85" font-family="Arial" font-size="12.00">ps4::hid_host_device_event</text>
</a>
</g>
</g>
<!-- Node1&#45;&gt;Node2 -->
<g id="edge1_Node000001_Node000002" class="edge">
<title>Node1&#45;&gt;Node2</title>
<g id="a_edge1_Node000001_Node000002"><a xlink:title=" ">
<path fill="none" stroke="#63b8ff" d="M286.41,-11.12C278.36,-11.12 270.3,-11.12 262.43,-11.12"/>
<polygon fill="#63b8ff" stroke="#63b8ff" points="286.27,-14.63 296.27,-11.13 286.27,-7.63 286.27,-14.63"/>
</a>
</g>
</g>
<!-- Node3 -->
<g id="Node000003" class="node">
<title>Node3</title>
<g id="a_Node000003"><a xlink:href="classps4.html#af911de391cd5275009d1fbe81dd7c644" target="_top" xlink:title="Construct the ps4 object, which creates the required tasks for the usb host, and processing the usb d...">
<polygon fill="white" stroke="#666666" points="61,-22.25 0,-22.25 0,0 61,0 61,-22.25"/>
<text text-anchor="middle" x="30.5" y="-6.85" font-family="Arial" font-size="12.00">ps4::ps4</text>
</a>
</g>
</g>
<!-- Node2&#45;&gt;Node3 -->
<g id="edge2_Node000002_Node000003" class="edge">
<title>Node2&#45;&gt;Node3</title>
<g id="a_edge2_Node000002_Node000003"><a xlink:title=" ">
<path fill="none" stroke="#63b8ff" d="M85.42,-11.12C76.82,-11.12 68.62,-11.12 61.32,-11.12"/>
<polygon fill="#63b8ff" stroke="#63b8ff" points="85.37,-14.63 95.37,-11.13 85.37,-7.63 85.37,-14.63"/>
</a>
</g>
</g>
</g>
</svg>
