<?xml version="1.0" encoding="UTF-8" standalone="no"?>
<!DOCTYPE svg PUBLIC "-//W3C//DTD SVG 1.1//EN"
 "http://www.w3.org/Graphics/SVG/1.1/DTD/svg11.dtd">
<!-- Generated by graphviz version 12.2.1 (20241206.2353)
 -->
<!-- Title: edge_dector Pages: 1 -->
<svg width="196pt" height="85pt"
 viewBox="0.00 0.00 196.25 85.00" xmlns="http://www.w3.org/2000/svg" xmlns:xlink="http://www.w3.org/1999/xlink">
<g id="graph0" class="graph" transform="scale(1 1) rotate(0) translate(4 81)">
<title>edge_dector</title>
<!-- Node1 -->
<g id="Node000001" class="node">
<title>Node1</title>
<g id="a_Node000001"><a xlink:title="This class is for edge detection (rising edge)">
<polygon fill="#999999" stroke="none" points="188.25,-77 0,-77 0,0 188.25,0 188.25,-77"/>
<text text-anchor="start" x="60.75" y="-61.6" font-family="Arial" font-size="12.00">edge_dector</text>
<text text-anchor="start" x="5.5" y="-43.35" font-family="Arial" font-size="12.00">&#45;</text>
<text text-anchor="start" x="14.75" y="-43.35" font-family="Arial" font-size="12.00">bool old_state</text>
<text text-anchor="start" x="4" y="-25.1" font-family="Arial" font-size="12.00">+</text>
<text text-anchor="start" x="14.75" y="-25.1" font-family="Arial" font-size="12.00">edge_dector(bool current_state)</text>
<text text-anchor="start" x="4" y="-6.85" font-family="Arial" font-size="12.00">+</text>
<text text-anchor="start" x="14.75" y="-6.85" font-family="Arial" font-size="12.00">bool update(bool new_state)</text>
<polygon fill="#666666" stroke="#666666" points="0,-56.75 0,-56.75 188.25,-56.75 188.25,-56.75 0,-56.75"/>
<polygon fill="#666666" stroke="#666666" points="0,-38.5 0,-38.5 12.75,-38.5 12.75,-38.5 0,-38.5"/>
<polygon fill="#666666" stroke="#666666" points="12.75,-38.5 12.75,-38.5 188.25,-38.5 188.25,-38.5 12.75,-38.5"/>
<polygon fill="none" stroke="#666666" points="0,0 0,-77 188.25,-77 188.25,0 0,0"/>
</a>
</g>
</g>
</g>
</svg>
