<?xml version="1.0" encoding="UTF-8" standalone="no"?>
<!DOCTYPE svg PUBLIC "-//W3C//DTD SVG 1.1//EN"
 "http://www.w3.org/Graphics/SVG/1.1/DTD/svg11.dtd">
<!-- Generated by graphviz version 12.2.1 (20241206.2353)
 -->
<!-- Title: ps4::ps4 Pages: 1 -->
<svg width="770pt" height="110pt"
 viewBox="0.00 0.00 770.25 110.25" xmlns="http://www.w3.org/2000/svg" xmlns:xlink="http://www.w3.org/1999/xlink">
<g id="graph0" class="graph" transform="scale(1 1) rotate(0) translate(4 106.25)">
<title>ps4::ps4</title>
<!-- Node1 -->
<g id="Node000001" class="node">
<title>Node1</title>
<g id="a_Node000001"><a xlink:title="Construct the ps4 object, which creates the required tasks for the usb host, and processing the usb d...">
<polygon fill="#999999" stroke="#666666" points="61,-62.25 0,-62.25 0,-40 61,-40 61,-62.25"/>
<text text-anchor="middle" x="30.5" y="-46.85" font-family="Arial" font-size="12.00">ps4::ps4</text>
</a>
</g>
</g>
<!-- Node2 -->
<g id="Node000002" class="node">
<title>Node2</title>
<g id="a_Node000002"><a xlink:href="classps4.html#a1b5ebe7b0b2164899555e4f4b495fbf7" target="_top" xlink:title="HID Host Device callback.">
<polygon fill="white" stroke="#666666" points="277.25,-102.25 97,-102.25 97,-80 277.25,-80 277.25,-102.25"/>
<text text-anchor="middle" x="187.12" y="-86.85" font-family="Arial" font-size="12.00">ps4::hid_host_device_callback</text>
</a>
</g>
</g>
<!-- Node1&#45;&gt;Node2 -->
<g id="edge1_Node000001_Node000002" class="edge">
<title>Node1&#45;&gt;Node2</title>
<g id="a_edge1_Node000001_Node000002"><a xlink:title=" ">
<path fill="none" stroke="#63b8ff" d="M61.36,-60.76C72.5,-64.22 85.28,-68.02 97,-71.12 104.5,-73.11 112.39,-75.07 120.25,-76.93"/>
<polygon fill="#63b8ff" stroke="#63b8ff" points="119.28,-80.3 129.82,-79.16 120.87,-73.48 119.28,-80.3"/>
</a>
</g>
</g>
<!-- Node3 -->
<g id="Node000003" class="node">
<title>Node3</title>
<g id="a_Node000003"><a xlink:href="classps4.html#ac862ec12615387da7a5820a29443cb2b" target="_top" xlink:title="USB HID Host Device event.">
<polygon fill="white" stroke="#666666" points="269.75,-62.25 104.5,-62.25 104.5,-40 269.75,-40 269.75,-62.25"/>
<text text-anchor="middle" x="187.12" y="-46.85" font-family="Arial" font-size="12.00">ps4::hid_host_device_event</text>
</a>
</g>
</g>
<!-- Node1&#45;&gt;Node3 -->
<g id="edge2_Node000001_Node000003" class="edge">
<title>Node1&#45;&gt;Node3</title>
<g id="a_edge2_Node000001_Node000003"><a xlink:title=" ">
<path fill="none" stroke="#63b8ff" d="M61.31,-51.12C70.66,-51.12 81.52,-51.12 92.85,-51.12"/>
<polygon fill="#63b8ff" stroke="#63b8ff" points="92.8,-54.63 102.8,-51.13 92.8,-47.63 92.8,-54.63"/>
</a>
</g>
</g>
<!-- Node6 -->
<g id="Node000006" class="node">
<title>Node6</title>
<g id="a_Node000006"><a xlink:href="classps4.html#a54ba84c2fddbdf97ae7ae24d99eff02c" target="_top" xlink:title="Start USB Host install and handle common USB host library events while app pin not low.">
<polygon fill="white" stroke="#666666" points="241.62,-22.25 132.62,-22.25 132.62,0 241.62,0 241.62,-22.25"/>
<text text-anchor="middle" x="187.12" y="-6.85" font-family="Arial" font-size="12.00">ps4::usb_lib_task</text>
</a>
</g>
</g>
<!-- Node1&#45;&gt;Node6 -->
<g id="edge5_Node000001_Node000006" class="edge">
<title>Node1&#45;&gt;Node6</title>
<g id="a_edge5_Node000001_Node000006"><a xlink:title=" ">
<path fill="none" stroke="#63b8ff" d="M61.36,-41.49C72.5,-38.03 85.28,-34.23 97,-31.12 104.8,-29.06 113.02,-27.03 121.18,-25.1"/>
<polygon fill="#63b8ff" stroke="#63b8ff" points="121.81,-28.54 130.76,-22.87 120.23,-21.72 121.81,-28.54"/>
</a>
</g>
</g>
<!-- Node4 -->
<g id="Node000004" class="node">
<title>Node4</title>
<g id="a_Node000004"><a xlink:href="classps4.html#a33c070f3c1106c8ffe493c73756cb388" target="_top" xlink:title="USB HID Host interface callback.">
<polygon fill="white" stroke="#666666" points="504,-62.25 313.25,-62.25 313.25,-40 504,-40 504,-62.25"/>
<text text-anchor="middle" x="408.62" y="-46.85" font-family="Arial" font-size="12.00">ps4::hid_host_interface_callback</text>
</a>
</g>
</g>
<!-- Node3&#45;&gt;Node4 -->
<g id="edge3_Node000003_Node000004" class="edge">
<title>Node3&#45;&gt;Node4</title>
<g id="a_edge3_Node000003_Node000004"><a xlink:title=" ">
<path fill="none" stroke="#63b8ff" d="M270.17,-51.12C280.45,-51.12 291.09,-51.12 301.67,-51.12"/>
<polygon fill="#63b8ff" stroke="#63b8ff" points="301.6,-54.63 311.6,-51.13 301.6,-47.63 301.6,-54.63"/>
</a>
</g>
</g>
<!-- Node5 -->
<g id="Node000005" class="node">
<title>Node5</title>
<g id="a_Node000005"><a xlink:href="classps4.html#ab98da929c3d1305de189ea698a2d6833" target="_top" xlink:title="USB HID Host Generic Interface report callback handler.">
<polygon fill="white" stroke="#666666" points="762.25,-62.25 540,-62.25 540,-40 762.25,-40 762.25,-62.25"/>
<text text-anchor="middle" x="651.12" y="-46.85" font-family="Arial" font-size="12.00">ps4::hid_host_generic_report_callback</text>
</a>
</g>
</g>
<!-- Node4&#45;&gt;Node5 -->
<g id="edge4_Node000004_Node000005" class="edge">
<title>Node4&#45;&gt;Node5</title>
<g id="a_edge4_Node000004_Node000005"><a xlink:title=" ">
<path fill="none" stroke="#63b8ff" d="M504.33,-51.12C512.19,-51.12 520.21,-51.12 528.23,-51.12"/>
<polygon fill="#63b8ff" stroke="#63b8ff" points="528.06,-54.63 538.06,-51.13 528.06,-47.63 528.06,-54.63"/>
</a>
</g>
</g>
</g>
</svg>
