<?xml version="1.0" encoding="UTF-8" standalone="no"?>
<!DOCTYPE svg PUBLIC "-//W3C//DTD SVG 1.1//EN"
 "http://www.w3.org/Graphics/SVG/1.1/DTD/svg11.dtd">
<!-- Generated by graphviz version 12.2.1 (20241206.2353)
 -->
<!-- Title: menu&lt; T &gt; Pages: 1 -->
<svg width="621pt" height="1015pt"
 viewBox="0.00 0.00 620.75 1014.75" xmlns="http://www.w3.org/2000/svg" xmlns:xlink="http://www.w3.org/1999/xlink">
<g id="graph0" class="graph" transform="scale(1 1) rotate(0) translate(4 1010.75)">
<title>menu&lt; T &gt;</title>
<!-- Node1 -->
<g id="Node000001" class="node">
<title>Node1</title>
<g id="a_Node000001"><a xlink:title="This class is for creating menus.">
<polygon fill="#999999" stroke="none" points="612.75,-405.5 0,-405.5 0,0 612.75,0 612.75,-405.5"/>
<text text-anchor="start" x="278.25" y="-390.1" font-family="Arial" font-size="12.00">menu&lt; T &gt;</text>
<text text-anchor="start" x="5.5" y="-371.85" font-family="Arial" font-size="12.00">&#45;</text>
<text text-anchor="start" x="14.75" y="-371.85" font-family="Arial" font-size="12.00">uint8_t lines</text>
<text text-anchor="start" x="5.5" y="-353.6" font-family="Arial" font-size="12.00">&#45;</text>
<text text-anchor="start" x="14.75" y="-353.6" font-family="Arial" font-size="12.00">std::string words</text>
<text text-anchor="start" x="5.5" y="-335.35" font-family="Arial" font-size="12.00">&#45;</text>
<text text-anchor="start" x="14.75" y="-335.35" font-family="Arial" font-size="12.00">bool have_values</text>
<text text-anchor="start" x="5.5" y="-317.1" font-family="Arial" font-size="12.00">&#45;</text>
<text text-anchor="start" x="14.75" y="-317.1" font-family="Arial" font-size="12.00">T ** values</text>
<text text-anchor="start" x="5.5" y="-298.85" font-family="Arial" font-size="12.00">&#45;</text>
<text text-anchor="start" x="14.75" y="-298.85" font-family="Arial" font-size="12.00">int8_t currently_selected</text>
<text text-anchor="start" x="5.5" y="-280.6" font-family="Arial" font-size="12.00">&#45;</text>
<text text-anchor="start" x="14.75" y="-280.6" font-family="Arial" font-size="12.00">const uint8_t font_rows</text>
<text text-anchor="start" x="5.5" y="-262.35" font-family="Arial" font-size="12.00">&#45;</text>
<text text-anchor="start" x="14.75" y="-262.35" font-family="Arial" font-size="12.00">bool has_selectable_values</text>
<text text-anchor="start" x="5.5" y="-244.1" font-family="Arial" font-size="12.00">&#45;</text>
<text text-anchor="start" x="14.75" y="-244.1" font-family="Arial" font-size="12.00">bool selectable_values</text>
<text text-anchor="start" x="4" y="-225.85" font-family="Arial" font-size="12.00">+</text>
<text text-anchor="start" x="14.75" y="-225.85" font-family="Arial" font-size="12.00">menu(uint8_t lines, bool *have_values, std::string *words, T **values, ssd1306 *display, bool *selectable_values)</text>
<text text-anchor="start" x="4" y="-207.6" font-family="Arial" font-size="12.00">+</text>
<text text-anchor="start" x="14.75" y="-207.6" font-family="Arial" font-size="12.00">void change_selected(int8_t direction)</text>
<text text-anchor="start" x="4" y="-189.35" font-family="Arial" font-size="12.00">+</text>
<text text-anchor="start" x="14.75" y="-189.35" font-family="Arial" font-size="12.00">void draw_to_display()</text>
<text text-anchor="start" x="4" y="-171.1" font-family="Arial" font-size="12.00">+</text>
<text text-anchor="start" x="14.75" y="-171.1" font-family="Arial" font-size="12.00">void increase_selected_value()</text>
<text text-anchor="start" x="4" y="-152.85" font-family="Arial" font-size="12.00">+</text>
<text text-anchor="start" x="14.75" y="-152.85" font-family="Arial" font-size="12.00">void decrease_selected_value()</text>
<text text-anchor="start" x="4" y="-134.6" font-family="Arial" font-size="12.00">+</text>
<text text-anchor="start" x="14.75" y="-134.6" font-family="Arial" font-size="12.00">void draw_to_display()</text>
<text text-anchor="start" x="4" y="-116.35" font-family="Arial" font-size="12.00">+</text>
<text text-anchor="start" x="14.75" y="-116.35" font-family="Arial" font-size="12.00">void draw_to_display()</text>
<text text-anchor="start" x="4" y="-98.1" font-family="Arial" font-size="12.00">+</text>
<text text-anchor="start" x="14.75" y="-98.1" font-family="Arial" font-size="12.00">void draw_to_display()</text>
<text text-anchor="start" x="4" y="-79.85" font-family="Arial" font-size="12.00">+</text>
<text text-anchor="start" x="14.75" y="-79.85" font-family="Arial" font-size="12.00">void draw_to_display()</text>
<text text-anchor="start" x="4" y="-61.6" font-family="Arial" font-size="12.00">+</text>
<text text-anchor="start" x="14.75" y="-61.6" font-family="Arial" font-size="12.00">void increase_selected_value()</text>
<text text-anchor="start" x="4" y="-43.35" font-family="Arial" font-size="12.00">+</text>
<text text-anchor="start" x="14.75" y="-43.35" font-family="Arial" font-size="12.00">void decrease_selected_value()</text>
<text text-anchor="start" x="4" y="-25.1" font-family="Arial" font-size="12.00">+</text>
<text text-anchor="start" x="14.75" y="-25.1" font-family="Arial" font-size="12.00">void increase_selected_value()</text>
<text text-anchor="start" x="4" y="-6.85" font-family="Arial" font-size="12.00">+</text>
<text text-anchor="start" x="14.75" y="-6.85" font-family="Arial" font-size="12.00">void decrease_selected_value()</text>
<polygon fill="#666666" stroke="#666666" points="0,-385.25 0,-385.25 612.75,-385.25 612.75,-385.25 0,-385.25"/>
<polygon fill="#666666" stroke="#666666" points="0,-239.25 0,-239.25 12.75,-239.25 12.75,-239.25 0,-239.25"/>
<polygon fill="#666666" stroke="#666666" points="12.75,-239.25 12.75,-239.25 612.75,-239.25 612.75,-239.25 12.75,-239.25"/>
<polygon fill="none" stroke="#666666" points="0,0 0,-405.5 612.75,-405.5 612.75,0 0,0"/>
</a>
</g>
</g>
<!-- Node2 -->
<g id="Node000002" class="node">
<title>Node2</title>
<g id="a_Node000002"><a xlink:href="classssd1306.html" target="_top" xlink:title="This class is for interfacing with the ssd1306 display.">
<polygon fill="white" stroke="none" points="510,-697 102.75,-697 102.75,-455.75 510,-455.75 510,-697"/>
<text text-anchor="start" x="283.5" y="-681.6" font-family="Arial" font-size="12.00">ssd1306</text>
<text text-anchor="start" x="108.25" y="-663.35" font-family="Arial" font-size="12.00">&#45;</text>
<text text-anchor="start" x="117.5" y="-663.35" font-family="Arial" font-size="12.00">uint8_t buffer</text>
<text text-anchor="start" x="108.25" y="-645.1" font-family="Arial" font-size="12.00">&#45;</text>
<text text-anchor="start" x="117.5" y="-645.1" font-family="Arial" font-size="12.00">i2c_master_dev_handle_t ssd1306_handle</text>
<text text-anchor="start" x="106.75" y="-626.85" font-family="Arial" font-size="12.00">+</text>
<text text-anchor="start" x="117.5" y="-626.85" font-family="Arial" font-size="12.00">ssd1306(i2c_master_dev_handle_t ssd1306_handle)</text>
<text text-anchor="start" x="106.75" y="-608.6" font-family="Arial" font-size="12.00">+</text>
<text text-anchor="start" x="117.5" y="-608.6" font-family="Arial" font-size="12.00">void write_string_SSD1306(std::string word, uint8_t x_pos, uint8_t y_pos)</text>
<text text-anchor="start" x="106.75" y="-590.35" font-family="Arial" font-size="12.00">+</text>
<text text-anchor="start" x="117.5" y="-590.35" font-family="Arial" font-size="12.00">void clear_buffer()</text>
<text text-anchor="start" x="106.75" y="-572.1" font-family="Arial" font-size="12.00">+</text>
<text text-anchor="start" x="117.5" y="-572.1" font-family="Arial" font-size="12.00">void write_buffer_SSD1306()</text>
<text text-anchor="start" x="108.25" y="-553.85" font-family="Arial" font-size="12.00">&#45;</text>
<text text-anchor="start" x="117.5" y="-553.85" font-family="Arial" font-size="12.00">void send_command_SSD1306(uint8_t command)</text>
<text text-anchor="start" x="108.25" y="-535.6" font-family="Arial" font-size="12.00">&#45;</text>
<text text-anchor="start" x="117.5" y="-535.6" font-family="Arial" font-size="12.00">void send_data_SSD1306(uint8_t *data, size_t len)</text>
<text text-anchor="start" x="108.25" y="-517.35" font-family="Arial" font-size="12.00">&#45;</text>
<text text-anchor="start" x="117.5" y="-517.35" font-family="Arial" font-size="12.00">void init_SSD1306()</text>
<text text-anchor="start" x="108.25" y="-499.1" font-family="Arial" font-size="12.00">&#45;</text>
<text text-anchor="start" x="117.5" y="-499.1" font-family="Arial" font-size="12.00">void clear_SSD1306()</text>
<text text-anchor="start" x="108.25" y="-480.85" font-family="Arial" font-size="12.00">&#45;</text>
<text text-anchor="start" x="117.5" y="-480.85" font-family="Arial" font-size="12.00">void draw_pixel_SSD1306(uint8_t x, uint8_t y)</text>
<text text-anchor="start" x="108.25" y="-462.6" font-family="Arial" font-size="12.00">&#45;</text>
<text text-anchor="start" x="117.5" y="-462.6" font-family="Arial" font-size="12.00">void write_letter_SSD1306(uint8_t letter, uint8_t x_pos, uint8_t y_pos)</text>
<polygon fill="#666666" stroke="#666666" points="102.75,-676.75 102.75,-676.75 510,-676.75 510,-676.75 102.75,-676.75"/>
<polygon fill="#666666" stroke="#666666" points="102.75,-640.25 102.75,-640.25 115.5,-640.25 115.5,-640.25 102.75,-640.25"/>
<polygon fill="#666666" stroke="#666666" points="115.5,-640.25 115.5,-640.25 510,-640.25 510,-640.25 115.5,-640.25"/>
<polygon fill="none" stroke="#666666" points="102.75,-455.75 102.75,-697 510,-697 510,-455.75 102.75,-455.75"/>
</a>
</g>
</g>
<!-- Node2&#45;&gt;Node1 -->
<g id="edge1_Node000001_Node000002" class="edge">
<title>Node2&#45;&gt;Node1</title>
<g id="a_edge1_Node000001_Node000002"><a xlink:title=" ">
<path fill="none" stroke="#63b8ff" d="M306.38,-456C306.38,-443.74 306.38,-431.04 306.38,-418.15"/>
<polygon fill="none" stroke="#63b8ff" points="306.38,-418.11 302.38,-412.11 306.38,-406.11 310.38,-412.11 306.38,-418.11"/>
</a>
</g>
<text text-anchor="middle" x="328.88" y="-426.35" font-family="Arial" font-size="12.00" fill="grey"> &#45;display</text>
</g>
<!-- Node3 -->
<g id="Node000003" class="node">
<title>Node3</title>
<g id="a_Node000003"><a xlink:href="classfont.html" target="_top" xlink:title="12x16 pixel font.">
<polygon fill="white" stroke="none" points="435,-1006.75 177.75,-1006.75 177.75,-747.25 435,-747.25 435,-1006.75"/>
<text text-anchor="start" x="296.62" y="-991.35" font-family="Arial" font-size="12.00">font</text>
<text text-anchor="start" x="183.25" y="-973.1" font-family="Arial" font-size="12.00">&#45;</text>
<text text-anchor="start" x="192.5" y="-973.1" font-family="Arial" font-size="12.00">const uint16_t * font_map</text>
<text text-anchor="start" x="183.25" y="-954.85" font-family="Arial" font-size="12.00">&#45;</text>
<text text-anchor="start" x="192.5" y="-954.85" font-family="Arial" font-size="12.00">const uint16_t zero</text>
<text text-anchor="start" x="183.25" y="-936.6" font-family="Arial" font-size="12.00">&#45;</text>
<text text-anchor="start" x="192.5" y="-936.6" font-family="Arial" font-size="12.00">const uint16_t one</text>
<text text-anchor="start" x="183.25" y="-918.35" font-family="Arial" font-size="12.00">&#45;</text>
<text text-anchor="start" x="192.5" y="-918.35" font-family="Arial" font-size="12.00">const uint16_t two</text>
<text text-anchor="start" x="183.25" y="-900.1" font-family="Arial" font-size="12.00">&#45;</text>
<text text-anchor="start" x="192.5" y="-900.1" font-family="Arial" font-size="12.00">const uint16_t three</text>
<text text-anchor="start" x="183.25" y="-881.85" font-family="Arial" font-size="12.00">&#45;</text>
<text text-anchor="start" x="192.5" y="-881.85" font-family="Arial" font-size="12.00">const uint16_t four</text>
<text text-anchor="start" x="183.25" y="-863.6" font-family="Arial" font-size="12.00">&#45;</text>
<text text-anchor="start" x="192.5" y="-863.6" font-family="Arial" font-size="12.00">const uint16_t five</text>
<text text-anchor="start" x="183.25" y="-845.35" font-family="Arial" font-size="12.00">&#45;</text>
<text text-anchor="start" x="192.5" y="-845.35" font-family="Arial" font-size="12.00">const uint16_t six</text>
<text text-anchor="start" x="183.25" y="-827.1" font-family="Arial" font-size="12.00">&#45;</text>
<text text-anchor="start" x="192.5" y="-827.1" font-family="Arial" font-size="12.00">const uint16_t seven</text>
<text text-anchor="start" x="183.25" y="-808.85" font-family="Arial" font-size="12.00">&#45;</text>
<text text-anchor="start" x="192.5" y="-808.85" font-family="Arial" font-size="12.00">const uint16_t eight</text>
<text text-anchor="start" x="192.5" y="-790.6" font-family="Arial" font-size="12.00">and 59 more...</text>
<text text-anchor="start" x="181.75" y="-772.35" font-family="Arial" font-size="12.00">+</text>
<text text-anchor="start" x="192.5" y="-772.35" font-family="Arial" font-size="12.00">font()</text>
<text text-anchor="start" x="181.75" y="-754.1" font-family="Arial" font-size="12.00">+</text>
<text text-anchor="start" x="192.5" y="-754.1" font-family="Arial" font-size="12.00">const uint16_t * get_letter(const uint8_t letter)</text>
<polygon fill="#666666" stroke="#666666" points="177.75,-986.5 177.75,-986.5 435,-986.5 435,-986.5 177.75,-986.5"/>
<polygon fill="#666666" stroke="#666666" points="177.75,-785.75 177.75,-785.75 190.5,-785.75 190.5,-785.75 177.75,-785.75"/>
<polygon fill="#666666" stroke="#666666" points="190.5,-785.75 190.5,-785.75 435,-785.75 435,-785.75 190.5,-785.75"/>
<polygon fill="none" stroke="#666666" points="177.75,-747.25 177.75,-1006.75 435,-1006.75 435,-747.25 177.75,-747.25"/>
</a>
</g>
</g>
<!-- Node3&#45;&gt;Node2 -->
<g id="edge2_Node000002_Node000003" class="edge">
<title>Node3&#45;&gt;Node2</title>
<g id="a_edge2_Node000002_Node000003"><a xlink:title=" ">
<path fill="none" stroke="#63b8ff" d="M306.38,-747.62C306.38,-735.07 306.38,-722.31 306.38,-709.72"/>
<polygon fill="none" stroke="#63b8ff" points="306.38,-709.57 302.38,-703.57 306.38,-697.57 310.38,-703.57 306.38,-709.57"/>
</a>
</g>
<text text-anchor="middle" x="345.38" y="-717.85" font-family="Arial" font-size="12.00" fill="grey"> &#45;font_instance</text>
</g>
</g>
</svg>
