<?xml version="1.0" encoding="UTF-8" standalone="no"?>
<!DOCTYPE svg PUBLIC "-//W3C//DTD SVG 1.1//EN"
 "http://www.w3.org/Graphics/SVG/1.1/DTD/svg11.dtd">
<!-- Generated by graphviz version 12.2.1 (20241206.2353)
 -->
<!-- Title: ssd1306::write_string_SSD1306 Pages: 1 -->
<svg width="640pt" height="30pt"
 viewBox="0.00 0.00 639.50 30.25" xmlns="http://www.w3.org/2000/svg" xmlns:xlink="http://www.w3.org/1999/xlink">
<g id="graph0" class="graph" transform="scale(1 1) rotate(0) translate(4 26.25)">
<title>ssd1306::write_string_SSD1306</title>
<!-- Node1 -->
<g id="Node000001" class="node">
<title>Node1</title>
<g id="a_Node000001"><a xlink:title="Writes a string to the display.">
<polygon fill="#999999" stroke="#666666" points="188.5,-22.25 0,-22.25 0,0 188.5,0 188.5,-22.25"/>
<text text-anchor="middle" x="94.25" y="-6.85" font-family="Arial" font-size="12.00">ssd1306::write_string_SSD1306</text>
</a>
</g>
</g>
<!-- Node2 -->
<g id="Node000002" class="node">
<title>Node2</title>
<g id="a_Node000002"><a xlink:href="classssd1306.html#a25af4462629732754f55c29d5f374a73" target="_top" xlink:title="Writes a letter to the display buffer.">
<polygon fill="white" stroke="#666666" points="410,-22.25 224.5,-22.25 224.5,0 410,0 410,-22.25"/>
<text text-anchor="middle" x="317.25" y="-6.85" font-family="Arial" font-size="12.00">ssd1306::write_letter_SSD1306</text>
</a>
</g>
</g>
<!-- Node1&#45;&gt;Node2 -->
<g id="edge1_Node000001_Node000002" class="edge">
<title>Node1&#45;&gt;Node2</title>
<g id="a_edge1_Node000001_Node000002"><a xlink:title=" ">
<path fill="none" stroke="#63b8ff" d="M188.97,-11.12C196.8,-11.12 204.74,-11.12 212.63,-11.12"/>
<polygon fill="#63b8ff" stroke="#63b8ff" points="212.63,-14.63 222.63,-11.13 212.63,-7.63 212.63,-14.63"/>
</a>
</g>
</g>
<!-- Node3 -->
<g id="Node000003" class="node">
<title>Node3</title>
<g id="a_Node000003"><a xlink:href="classssd1306.html#a387d658f291cf5a82d75d07b47d81359" target="_top" xlink:title="Draws a pixel on the display buffer.">
<polygon fill="white" stroke="#666666" points="631.5,-22.25 446,-22.25 446,0 631.5,0 631.5,-22.25"/>
<text text-anchor="middle" x="538.75" y="-6.85" font-family="Arial" font-size="12.00">ssd1306::draw_pixel_SSD1306</text>
</a>
</g>
</g>
<!-- Node2&#45;&gt;Node3 -->
<g id="edge2_Node000002_Node000003" class="edge">
<title>Node2&#45;&gt;Node3</title>
<g id="a_edge2_Node000002_Node000003"><a xlink:title=" ">
<path fill="none" stroke="#63b8ff" d="M410.38,-11.12C418.19,-11.12 426.11,-11.12 434,-11.12"/>
<polygon fill="#63b8ff" stroke="#63b8ff" points="433.99,-14.63 443.99,-11.13 433.99,-7.63 433.99,-14.63"/>
</a>
</g>
</g>
</g>
</svg>
