<?xml version="1.0" encoding="UTF-8" standalone="no"?>
<!DOCTYPE svg PUBLIC "-//W3C//DTD SVG 1.1//EN"
 "http://www.w3.org/Graphics/SVG/1.1/DTD/svg11.dtd">
<!-- Generated by graphviz version 12.2.1 (20241206.2353)
 -->
<!-- Title: relinker.relink_c.save Pages: 1 -->
<svg width="557pt" height="30pt"
 viewBox="0.00 0.00 557.00 30.25" xmlns="http://www.w3.org/2000/svg" xmlns:xlink="http://www.w3.org/1999/xlink">
<g id="graph0" class="graph" transform="scale(1 1) rotate(0) translate(4 26.25)">
<title>relinker.relink_c.save</title>
<!-- Node1 -->
<g id="Node000001" class="node">
<title>Node1</title>
<g id="a_Node000001"><a xlink:title=" ">
<polygon fill="#999999" stroke="#666666" points="128.5,-22.25 0,-22.25 0,0 128.5,0 128.5,-22.25"/>
<text text-anchor="middle" x="64.25" y="-6.85" font-family="Arial" font-size="12.00">relinker.relink_c.save</text>
</a>
</g>
</g>
<!-- Node2 -->
<g id="Node000002" class="node">
<title>Node2</title>
<g id="a_Node000002"><a xlink:href="classrelinker_1_1relink__c.html#ac432114284107c25ae9a19b1a534a597" target="_top" xlink:title=" ">
<polygon fill="white" stroke="#666666" points="334.25,-22.25 164.5,-22.25 164.5,0 334.25,0 334.25,-22.25"/>
<text text-anchor="middle" x="249.38" y="-6.85" font-family="Arial" font-size="12.00">relinker.relink_c.__replace__</text>
</a>
</g>
</g>
<!-- Node1&#45;&gt;Node2 -->
<g id="edge1_Node000001_Node000002" class="edge">
<title>Node1&#45;&gt;Node2</title>
<g id="a_edge1_Node000001_Node000002"><a xlink:title=" ">
<path fill="none" stroke="#63b8ff" d="M128.78,-11.12C136.58,-11.12 144.67,-11.12 152.81,-11.12"/>
<polygon fill="#63b8ff" stroke="#63b8ff" points="152.8,-14.63 162.8,-11.13 152.8,-7.63 152.8,-14.63"/>
</a>
</g>
</g>
<!-- Node3 -->
<g id="Node000003" class="node">
<title>Node3</title>
<g id="a_Node000003"><a xlink:href="classrelinker_1_1relink__c.html#a2fff872d017ba397cd18cd06796f7169" target="_top" xlink:title=" ">
<polygon fill="white" stroke="#666666" points="549,-22.25 370.25,-22.25 370.25,0 549,0 549,-22.25"/>
<text text-anchor="middle" x="459.62" y="-6.85" font-family="Arial" font-size="12.00">relinker.relink_c._replace_func</text>
</a>
</g>
</g>
<!-- Node2&#45;&gt;Node3 -->
<g id="edge2_Node000002_Node000003" class="edge">
<title>Node2&#45;&gt;Node3</title>
<g id="a_edge2_Node000002_Node000003"><a xlink:title=" ">
<path fill="none" stroke="#63b8ff" d="M334.48,-11.12C342.38,-11.12 350.44,-11.12 358.47,-11.12"/>
<polygon fill="#63b8ff" stroke="#63b8ff" points="358.27,-14.63 368.27,-11.13 358.27,-7.63 358.27,-14.63"/>
</a>
</g>
</g>
</g>
</svg>
