<?xml version="1.0" encoding="UTF-8" standalone="no"?>
<!DOCTYPE svg PUBLIC "-//W3C//DTD SVG 1.1//EN"
 "http://www.w3.org/Graphics/SVG/1.1/DTD/svg11.dtd">
<!-- Generated by graphviz version 12.2.1 (20241206.2353)
 -->
<!-- Title: configuration.libraries_c Pages: 1 -->
<svg width="265pt" height="103pt"
 viewBox="0.00 0.00 264.50 103.25" xmlns="http://www.w3.org/2000/svg" xmlns:xlink="http://www.w3.org/1999/xlink">
<g id="graph0" class="graph" transform="scale(1 1) rotate(0) translate(4 99.25)">
<title>configuration.libraries_c</title>
<!-- Node1 -->
<g id="Node000001" class="node">
<title>Node1</title>
<g id="a_Node000001"><a xlink:title=" ">
<polygon fill="#999999" stroke="none" points="256.5,-95.25 0,-95.25 0,0 256.5,0 256.5,-95.25"/>
<text text-anchor="start" x="64.5" y="-79.85" font-family="Arial" font-size="12.00">configuration.libraries_c</text>
<text text-anchor="start" x="4" y="-61.6" font-family="Arial" font-size="12.00">+</text>
<text text-anchor="start" x="14.75" y="-61.6" font-family="Arial" font-size="12.00">libs</text>
<text text-anchor="start" x="4" y="-43.35" font-family="Arial" font-size="12.00">+</text>
<text text-anchor="start" x="14.75" y="-43.35" font-family="Arial" font-size="12.00">__init__(self)</text>
<text text-anchor="start" x="4" y="-25.1" font-family="Arial" font-size="12.00">+</text>
<text text-anchor="start" x="14.75" y="-25.1" font-family="Arial" font-size="12.00">append(self, lib, lib_path, obj, obj_path, func)</text>
<text text-anchor="start" x="4" y="-6.85" font-family="Arial" font-size="12.00">+</text>
<text text-anchor="start" x="14.75" y="-6.85" font-family="Arial" font-size="12.00">dump(self)</text>
<polygon fill="#666666" stroke="#666666" points="0,-75 0,-75 256.5,-75 256.5,-75 0,-75"/>
<polygon fill="#666666" stroke="#666666" points="0,-56.75 0,-56.75 12.75,-56.75 12.75,-56.75 0,-56.75"/>
<polygon fill="#666666" stroke="#666666" points="12.75,-56.75 12.75,-56.75 256.5,-56.75 256.5,-56.75 12.75,-56.75"/>
<polygon fill="none" stroke="#666666" points="0,0 0,-95.25 256.5,-95.25 256.5,0 0,0"/>
</a>
</g>
</g>
</g>
</svg>
