<?xml version="1.0" encoding="UTF-8" standalone="no"?>
<!DOCTYPE svg PUBLIC "-//W3C//DTD SVG 1.1//EN"
 "http://www.w3.org/Graphics/SVG/1.1/DTD/svg11.dtd">
<!-- Generated by graphviz version 12.2.1 (20241206.2353)
 -->
<!-- Title: menu_handler::options_pressed Pages: 1 -->
<svg width="592pt" height="30pt"
 viewBox="0.00 0.00 591.75 30.25" xmlns="http://www.w3.org/2000/svg" xmlns:xlink="http://www.w3.org/1999/xlink">
<g id="graph0" class="graph" transform="scale(1 1) rotate(0) translate(4 26.25)">
<title>menu_handler::options_pressed</title>
<!-- Node1 -->
<g id="Node000001" class="node">
<title>Node1</title>
<g id="a_Node000001"><a xlink:title="This function cycles throught the status, motor speed, and ramped velocity menu menus.">
<polygon fill="#999999" stroke="#666666" points="583.75,-22.25 396,-22.25 396,0 583.75,0 583.75,-22.25"/>
<text text-anchor="middle" x="489.88" y="-6.85" font-family="Arial" font-size="12.00">menu_handler::options_pressed</text>
</a>
</g>
</g>
<!-- Node2 -->
<g id="Node000002" class="node">
<title>Node2</title>
<g id="a_Node000002"><a xlink:href="classmenu__handler.html#a23740b6e7279e5a39ab4377d1e440813" target="_top" xlink:title="This function will update the menu handler.">
<polygon fill="white" stroke="#666666" points="360,-22.25 224,-22.25 224,0 360,0 360,-22.25"/>
<text text-anchor="middle" x="292" y="-6.85" font-family="Arial" font-size="12.00">menu_handler::update</text>
</a>
</g>
</g>
<!-- Node1&#45;&gt;Node2 -->
<g id="edge1_Node000001_Node000002" class="edge">
<title>Node1&#45;&gt;Node2</title>
<g id="a_edge1_Node000001_Node000002"><a xlink:title=" ">
<path fill="none" stroke="#63b8ff" d="M384.16,-11.12C376.13,-11.12 368.17,-11.12 360.48,-11.12"/>
<polygon fill="#63b8ff" stroke="#63b8ff" points="384.01,-14.63 394.01,-11.13 384.01,-7.63 384.01,-14.63"/>
</a>
</g>
</g>
<!-- Node3 -->
<g id="Node000003" class="node">
<title>Node3</title>
<g id="a_Node000003"><a xlink:href="display__task_8cpp.html#a9f61f48e689e3ceb92895a85cd380e17" target="_top" xlink:title="This is the task that handles driving the display with the menus and values.">
<polygon fill="white" stroke="#666666" points="188,-22.25 105.25,-22.25 105.25,0 188,0 188,-22.25"/>
<text text-anchor="middle" x="146.62" y="-6.85" font-family="Arial" font-size="12.00">display_task</text>
</a>
</g>
</g>
<!-- Node2&#45;&gt;Node3 -->
<g id="edge2_Node000002_Node000003" class="edge">
<title>Node2&#45;&gt;Node3</title>
<g id="a_edge2_Node000002_Node000003"><a xlink:title=" ">
<path fill="none" stroke="#63b8ff" d="M212.2,-11.12C203.94,-11.12 195.8,-11.12 188.23,-11.12"/>
<polygon fill="#63b8ff" stroke="#63b8ff" points="212,-14.63 222,-11.13 212,-7.63 212,-14.63"/>
</a>
</g>
</g>
<!-- Node4 -->
<g id="Node000004" class="node">
<title>Node4</title>
<g id="a_Node000004"><a xlink:href="main_8cpp.html#a630544a7f0a2cc40d8a7fefab7e2fe70" target="_top" xlink:title="the main function for the program, creates all semaphores, tasks, and runs setup functions">
<polygon fill="white" stroke="#666666" points="69.25,-22.25 0,-22.25 0,0 69.25,0 69.25,-22.25"/>
<text text-anchor="middle" x="34.62" y="-6.85" font-family="Arial" font-size="12.00">app_main</text>
</a>
</g>
</g>
<!-- Node3&#45;&gt;Node4 -->
<g id="edge3_Node000003_Node000004" class="edge">
<title>Node3&#45;&gt;Node4</title>
<g id="a_edge3_Node000003_Node000004"><a xlink:title=" ">
<path fill="none" stroke="#63b8ff" d="M93.6,-11.12C85.45,-11.12 77.22,-11.12 69.62,-11.12"/>
<polygon fill="#63b8ff" stroke="#63b8ff" points="93.46,-14.63 103.46,-11.13 93.46,-7.63 93.46,-14.63"/>
</a>
</g>
</g>
</g>
</svg>
