<?xml version="1.0" encoding="UTF-8" standalone="no"?>
<!DOCTYPE svg PUBLIC "-//W3C//DTD SVG 1.1//EN"
 "http://www.w3.org/Graphics/SVG/1.1/DTD/svg11.dtd">
<!-- Generated by graphviz version 12.2.1 (20241206.2353)
 -->
<!-- Title: ssd1306::send_command_SSD1306 Pages: 1 -->
<svg width="701pt" height="110pt"
 viewBox="0.00 0.00 700.50 110.25" xmlns="http://www.w3.org/2000/svg" xmlns:xlink="http://www.w3.org/1999/xlink">
<g id="graph0" class="graph" transform="scale(1 1) rotate(0) translate(4 106.25)">
<title>ssd1306::send_command_SSD1306</title>
<!-- Node1 -->
<g id="Node000001" class="node">
<title>Node1</title>
<g id="a_Node000001"><a xlink:title="Sends a command to the SSD1306.">
<polygon fill="#999999" stroke="#666666" points="692.5,-62.25 480,-62.25 480,-40 692.5,-40 692.5,-62.25"/>
<text text-anchor="middle" x="586.25" y="-46.85" font-family="Arial" font-size="12.00">ssd1306::send_command_SSD1306</text>
</a>
</g>
</g>
<!-- Node2 -->
<g id="Node000002" class="node">
<title>Node2</title>
<g id="a_Node000002"><a xlink:href="classssd1306.html#a1aae212504a93232231113bfe2e864a5" target="_top" xlink:title=" ">
<polygon fill="white" stroke="#666666" points="426,-102.25 272.75,-102.25 272.75,-80 426,-80 426,-102.25"/>
<text text-anchor="middle" x="349.38" y="-86.85" font-family="Arial" font-size="12.00">ssd1306::clear_SSD1306</text>
</a>
</g>
</g>
<!-- Node1&#45;&gt;Node2 -->
<g id="edge1_Node000001_Node000002" class="edge">
<title>Node1&#45;&gt;Node2</title>
<g id="a_edge1_Node000001_Node000002"><a xlink:title=" ">
<path fill="none" stroke="#63b8ff" d="M505.88,-64.64C477.48,-69.48 445.75,-74.88 418.39,-79.54"/>
<polygon fill="#63b8ff" stroke="#63b8ff" points="506.24,-68.13 515.51,-63 505.06,-61.23 506.24,-68.13"/>
</a>
</g>
</g>
<!-- Node4 -->
<g id="Node000004" class="node">
<title>Node4</title>
<g id="a_Node000004"><a xlink:href="classssd1306.html#a5196c8d2e984359da2cc876c8d5f58db" target="_top" xlink:title="Initializes the SSD1306.">
<polygon fill="white" stroke="#666666" points="420.75,-62.25 278,-62.25 278,-40 420.75,-40 420.75,-62.25"/>
<text text-anchor="middle" x="349.38" y="-46.85" font-family="Arial" font-size="12.00">ssd1306::init_SSD1306</text>
</a>
</g>
</g>
<!-- Node1&#45;&gt;Node4 -->
<g id="edge3_Node000001_Node000004" class="edge">
<title>Node1&#45;&gt;Node4</title>
<g id="a_edge3_Node000001_Node000004"><a xlink:title=" ">
<path fill="none" stroke="#63b8ff" d="M468.62,-51.12C452.39,-51.12 436.15,-51.12 421.12,-51.12"/>
<polygon fill="#63b8ff" stroke="#63b8ff" points="468.32,-54.63 478.32,-51.13 468.32,-47.63 468.32,-54.63"/>
</a>
</g>
</g>
<!-- Node5 -->
<g id="Node000005" class="node">
<title>Node5</title>
<g id="a_Node000005"><a xlink:href="classssd1306.html#a8534651a9db59a3d8c5162b91457e322" target="_top" xlink:title="Writes the buffer to the display.">
<polygon fill="white" stroke="#666666" points="444,-22.25 254.75,-22.25 254.75,0 444,0 444,-22.25"/>
<text text-anchor="middle" x="349.38" y="-6.85" font-family="Arial" font-size="12.00">ssd1306::write_buffer_SSD1306</text>
</a>
</g>
</g>
<!-- Node1&#45;&gt;Node5 -->
<g id="edge5_Node000001_Node000005" class="edge">
<title>Node1&#45;&gt;Node5</title>
<g id="a_edge5_Node000001_Node000005"><a xlink:title=" ">
<path fill="none" stroke="#63b8ff" d="M505.88,-37.61C477.48,-32.77 445.75,-27.37 418.39,-22.71"/>
<polygon fill="#63b8ff" stroke="#63b8ff" points="505.06,-41.02 515.51,-39.25 506.24,-34.12 505.06,-41.02"/>
</a>
</g>
</g>
<!-- Node3 -->
<g id="Node000003" class="node">
<title>Node3</title>
<g id="a_Node000003"><a xlink:href="classssd1306.html#a2518946b016e3c7f651eacaa1416864f" target="_top" xlink:title="Constructor for the SSD1306 class.">
<polygon fill="white" stroke="#666666" points="218.75,-82.25 105.25,-82.25 105.25,-60 218.75,-60 218.75,-82.25"/>
<text text-anchor="middle" x="162" y="-66.85" font-family="Arial" font-size="12.00">ssd1306::ssd1306</text>
</a>
</g>
</g>
<!-- Node2&#45;&gt;Node3 -->
<g id="edge2_Node000002_Node000003" class="edge">
<title>Node2&#45;&gt;Node3</title>
<g id="a_edge2_Node000002_Node000003"><a xlink:title=" ">
<path fill="none" stroke="#63b8ff" d="M261.09,-81.71C246.86,-80.17 232.46,-78.62 219.23,-77.19"/>
<polygon fill="#63b8ff" stroke="#63b8ff" points="260.62,-85.18 270.94,-82.77 261.37,-78.22 260.62,-85.18"/>
</a>
</g>
</g>
<!-- Node4&#45;&gt;Node3 -->
<g id="edge4_Node000004_Node000003" class="edge">
<title>Node4&#45;&gt;Node3</title>
<g id="a_edge4_Node000004_Node000003"><a xlink:title=" ">
<path fill="none" stroke="#63b8ff" d="M266.71,-59.94C250.6,-61.67 234.04,-63.46 219.01,-65.08"/>
<polygon fill="#63b8ff" stroke="#63b8ff" points="266.69,-63.46 276.26,-58.91 265.94,-56.5 266.69,-63.46"/>
</a>
</g>
</g>
<!-- Node6 -->
<g id="Node000006" class="node">
<title>Node6</title>
<g id="a_Node000006"><a xlink:href="display__task_8cpp.html#a9f61f48e689e3ceb92895a85cd380e17" target="_top" xlink:title="This is the task that handles driving the display with the menus and values.">
<polygon fill="white" stroke="#666666" points="203.38,-22.25 120.62,-22.25 120.62,0 203.38,0 203.38,-22.25"/>
<text text-anchor="middle" x="162" y="-6.85" font-family="Arial" font-size="12.00">display_task</text>
</a>
</g>
</g>
<!-- Node5&#45;&gt;Node6 -->
<g id="edge6_Node000005_Node000006" class="edge">
<title>Node5&#45;&gt;Node6</title>
<g id="a_edge6_Node000005_Node000006"><a xlink:title=" ">
<path fill="none" stroke="#63b8ff" d="M243.02,-11.12C228.99,-11.12 215.36,-11.12 203.44,-11.12"/>
<polygon fill="#63b8ff" stroke="#63b8ff" points="242.82,-14.63 252.82,-11.13 242.82,-7.63 242.82,-14.63"/>
</a>
</g>
</g>
<!-- Node7 -->
<g id="Node000007" class="node">
<title>Node7</title>
<g id="a_Node000007"><a xlink:href="main_8cpp.html#a630544a7f0a2cc40d8a7fefab7e2fe70" target="_top" xlink:title="the main function for the program, creates all semaphores, tasks, and runs setup functions">
<polygon fill="white" stroke="#666666" points="69.25,-22.25 0,-22.25 0,0 69.25,0 69.25,-22.25"/>
<text text-anchor="middle" x="34.62" y="-6.85" font-family="Arial" font-size="12.00">app_main</text>
</a>
</g>
</g>
<!-- Node6&#45;&gt;Node7 -->
<g id="edge7_Node000006_Node000007" class="edge">
<title>Node6&#45;&gt;Node7</title>
<g id="a_edge7_Node000006_Node000007"><a xlink:title=" ">
<path fill="none" stroke="#63b8ff" d="M108.82,-11.12C95.51,-11.12 81.54,-11.12 69.42,-11.12"/>
<polygon fill="#63b8ff" stroke="#63b8ff" points="108.78,-14.63 118.78,-11.13 108.78,-7.63 108.78,-14.63"/>
</a>
</g>
</g>
</g>
</svg>
