<?xml version="1.0" encoding="UTF-8" standalone="no"?>
<!DOCTYPE svg PUBLIC "-//W3C//DTD SVG 1.1//EN"
 "http://www.w3.org/Graphics/SVG/1.1/DTD/svg11.dtd">
<!-- Generated by graphviz version 12.2.1 (20241206.2353)
 -->
<!-- Title: relinker.relink_c Pages: 1 -->
<svg width="523pt" height="213pt"
 viewBox="0.00 0.00 522.50 212.75" xmlns="http://www.w3.org/2000/svg" xmlns:xlink="http://www.w3.org/1999/xlink">
<g id="graph0" class="graph" transform="scale(1 1) rotate(0) translate(4 208.75)">
<title>relinker.relink_c</title>
<!-- Node1 -->
<g id="Node000001" class="node">
<title>Node1</title>
<g id="a_Node000001"><a xlink:title=" ">
<polygon fill="#999999" stroke="none" points="514.5,-204.75 0,-204.75 0,0 514.5,0 514.5,-204.75"/>
<text text-anchor="start" x="215.25" y="-189.35" font-family="Arial" font-size="12.00">relinker.relink_c</text>
<text text-anchor="start" x="4" y="-171.1" font-family="Arial" font-size="12.00">+</text>
<text text-anchor="start" x="14.75" y="-171.1" font-family="Arial" font-size="12.00">filter</text>
<text text-anchor="start" x="4" y="-152.85" font-family="Arial" font-size="12.00">+</text>
<text text-anchor="start" x="14.75" y="-152.85" font-family="Arial" font-size="12.00">targets</text>
<text text-anchor="start" x="4" y="-134.6" font-family="Arial" font-size="12.00">+</text>
<text text-anchor="start" x="14.75" y="-134.6" font-family="Arial" font-size="12.00">str iram1_exclude</text>
<text text-anchor="start" x="4" y="-116.35" font-family="Arial" font-size="12.00">+</text>
<text text-anchor="start" x="14.75" y="-116.35" font-family="Arial" font-size="12.00">str iram1_include</text>
<text text-anchor="start" x="4" y="-98.1" font-family="Arial" font-size="12.00">+</text>
<text text-anchor="start" x="14.75" y="-98.1" font-family="Arial" font-size="12.00">str flash_include</text>
<text text-anchor="start" x="4" y="-79.85" font-family="Arial" font-size="12.00">+</text>
<text text-anchor="start" x="14.75" y="-79.85" font-family="Arial" font-size="12.00">__init__(self, input, library_file, object_file, function_file, sdkconfig_file, missing_function_info)</text>
<text text-anchor="start" x="4" y="-61.6" font-family="Arial" font-size="12.00">+</text>
<text text-anchor="start" x="14.75" y="-61.6" font-family="Arial" font-size="12.00">__transform__(self)</text>
<text text-anchor="start" x="4" y="-43.35" font-family="Arial" font-size="12.00">+</text>
<text text-anchor="start" x="14.75" y="-43.35" font-family="Arial" font-size="12.00">__replace__(self, lines)</text>
<text text-anchor="start" x="4" y="-25.1" font-family="Arial" font-size="12.00">+</text>
<text text-anchor="start" x="14.75" y="-25.1" font-family="Arial" font-size="12.00">save(self, input, output)</text>
<text text-anchor="start" x="4" y="-6.85" font-family="Arial" font-size="12.00">#</text>
<text text-anchor="start" x="14.75" y="-6.85" font-family="Arial" font-size="12.00">_replace_func(self, l)</text>
<polygon fill="#666666" stroke="#666666" points="0,-184.5 0,-184.5 514.5,-184.5 514.5,-184.5 0,-184.5"/>
<polygon fill="#666666" stroke="#666666" points="0,-93.25 0,-93.25 12.75,-93.25 12.75,-93.25 0,-93.25"/>
<polygon fill="#666666" stroke="#666666" points="12.75,-93.25 12.75,-93.25 514.5,-93.25 514.5,-93.25 12.75,-93.25"/>
<polygon fill="none" stroke="#666666" points="0,0 0,-204.75 514.5,-204.75 514.5,0 0,0"/>
</a>
</g>
</g>
</g>
</svg>
