<?xml version="1.0" encoding="UTF-8" standalone="no"?>
<!DOCTYPE svg PUBLIC "-//W3C//DTD SVG 1.1//EN"
 "http://www.w3.org/Graphics/SVG/1.1/DTD/svg11.dtd">
<!-- Generated by graphviz version 12.2.1 (20241206.2353)
 -->
<!-- Title: ssd1306::ssd1306 Pages: 1 -->
<svg width="559pt" height="110pt"
 viewBox="0.00 0.00 559.25 110.25" xmlns="http://www.w3.org/2000/svg" xmlns:xlink="http://www.w3.org/1999/xlink">
<g id="graph0" class="graph" transform="scale(1 1) rotate(0) translate(4 106.25)">
<title>ssd1306::ssd1306</title>
<!-- Node1 -->
<g id="Node000001" class="node">
<title>Node1</title>
<g id="a_Node000001"><a xlink:title="Constructor for the SSD1306 class.">
<polygon fill="#999999" stroke="#666666" points="113.5,-62.25 0,-62.25 0,-40 113.5,-40 113.5,-62.25"/>
<text text-anchor="middle" x="56.75" y="-46.85" font-family="Arial" font-size="12.00">ssd1306::ssd1306</text>
</a>
</g>
</g>
<!-- Node2 -->
<g id="Node000002" class="node">
<title>Node2</title>
<g id="a_Node000002"><a xlink:href="classssd1306.html#a23098da61ef8c67a1b1f530526dc4507" target="_top" xlink:title="Clears the display buffer.">
<polygon fill="white" stroke="#666666" points="291.5,-102.25 160.75,-102.25 160.75,-80 291.5,-80 291.5,-102.25"/>
<text text-anchor="middle" x="226.12" y="-86.85" font-family="Arial" font-size="12.00">ssd1306::clear_buffer</text>
</a>
</g>
</g>
<!-- Node1&#45;&gt;Node2 -->
<g id="edge1_Node000001_Node000002" class="edge">
<title>Node1&#45;&gt;Node2</title>
<g id="a_edge1_Node000001_Node000002"><a xlink:title=" ">
<path fill="none" stroke="#63b8ff" d="M106.16,-62.69C124.64,-67.11 145.94,-72.2 165.35,-76.84"/>
<polygon fill="#63b8ff" stroke="#63b8ff" points="164.52,-80.24 175.06,-79.16 166.15,-73.43 164.52,-80.24"/>
</a>
</g>
</g>
<!-- Node3 -->
<g id="Node000003" class="node">
<title>Node3</title>
<g id="a_Node000003"><a xlink:href="classssd1306.html#a1aae212504a93232231113bfe2e864a5" target="_top" xlink:title=" ">
<polygon fill="white" stroke="#666666" points="302.75,-22.25 149.5,-22.25 149.5,0 302.75,0 302.75,-22.25"/>
<text text-anchor="middle" x="226.12" y="-6.85" font-family="Arial" font-size="12.00">ssd1306::clear_SSD1306</text>
</a>
</g>
</g>
<!-- Node1&#45;&gt;Node3 -->
<g id="edge2_Node000001_Node000003" class="edge">
<title>Node1&#45;&gt;Node3</title>
<g id="a_edge2_Node000001_Node000003"><a xlink:title=" ">
<path fill="none" stroke="#63b8ff" d="M106.16,-39.56C124.64,-35.14 145.94,-30.05 165.35,-25.41"/>
<polygon fill="#63b8ff" stroke="#63b8ff" points="166.15,-28.82 175.06,-23.09 164.52,-22.01 166.15,-28.82"/>
</a>
</g>
</g>
<!-- Node6 -->
<g id="Node000006" class="node">
<title>Node6</title>
<g id="a_Node000006"><a xlink:href="classssd1306.html#a5196c8d2e984359da2cc876c8d5f58db" target="_top" xlink:title="Initializes the SSD1306.">
<polygon fill="white" stroke="#666666" points="297.5,-62.25 154.75,-62.25 154.75,-40 297.5,-40 297.5,-62.25"/>
<text text-anchor="middle" x="226.12" y="-46.85" font-family="Arial" font-size="12.00">ssd1306::init_SSD1306</text>
</a>
</g>
</g>
<!-- Node1&#45;&gt;Node6 -->
<g id="edge5_Node000001_Node000006" class="edge">
<title>Node1&#45;&gt;Node6</title>
<g id="a_edge5_Node000001_Node000006"><a xlink:title=" ">
<path fill="none" stroke="#63b8ff" d="M113.95,-51.12C123.3,-51.12 133.17,-51.12 143,-51.12"/>
<polygon fill="#63b8ff" stroke="#63b8ff" points="142.99,-54.63 152.99,-51.13 142.99,-47.63 142.99,-54.63"/>
</a>
</g>
</g>
<!-- Node4 -->
<g id="Node000004" class="node">
<title>Node4</title>
<g id="a_Node000004"><a xlink:href="classssd1306.html#ab1436aa90d5c6404a1246e8f740e80b4" target="_top" xlink:title="Sends a command to the SSD1306.">
<polygon fill="white" stroke="#666666" points="551.25,-62.25 338.75,-62.25 338.75,-40 551.25,-40 551.25,-62.25"/>
<text text-anchor="middle" x="445" y="-46.85" font-family="Arial" font-size="12.00">ssd1306::send_command_SSD1306</text>
</a>
</g>
</g>
<!-- Node3&#45;&gt;Node4 -->
<g id="edge3_Node000003_Node000004" class="edge">
<title>Node3&#45;&gt;Node4</title>
<g id="a_edge3_Node000003_Node000004"><a xlink:title=" ">
<path fill="none" stroke="#63b8ff" d="M290.15,-22.75C315.09,-27.35 343.96,-32.67 369.9,-37.46"/>
<polygon fill="#63b8ff" stroke="#63b8ff" points="369.24,-40.9 379.71,-39.27 370.51,-34.01 369.24,-40.9"/>
</a>
</g>
</g>
<!-- Node5 -->
<g id="Node000005" class="node">
<title>Node5</title>
<g id="a_Node000005"><a xlink:href="classssd1306.html#a81795f6478fb00df3bca485ba125fb02" target="_top" xlink:title="Sends data to the SSD1306.">
<polygon fill="white" stroke="#666666" points="536.62,-22.25 353.38,-22.25 353.38,0 536.62,0 536.62,-22.25"/>
<text text-anchor="middle" x="445" y="-6.85" font-family="Arial" font-size="12.00">ssd1306::send_data_SSD1306</text>
</a>
</g>
</g>
<!-- Node3&#45;&gt;Node5 -->
<g id="edge4_Node000003_Node000005" class="edge">
<title>Node3&#45;&gt;Node5</title>
<g id="a_edge4_Node000003_Node000005"><a xlink:title=" ">
<path fill="none" stroke="#63b8ff" d="M302.98,-11.12C315.45,-11.12 328.55,-11.12 341.54,-11.12"/>
<polygon fill="#63b8ff" stroke="#63b8ff" points="341.4,-14.63 351.4,-11.13 341.4,-7.63 341.4,-14.63"/>
</a>
</g>
</g>
<!-- Node6&#45;&gt;Node4 -->
<g id="edge6_Node000006_Node000004" class="edge">
<title>Node6&#45;&gt;Node4</title>
<g id="a_edge6_Node000006_Node000004"><a xlink:title=" ">
<path fill="none" stroke="#63b8ff" d="M297.84,-51.12C307.27,-51.12 317.13,-51.12 327.09,-51.12"/>
<polygon fill="#63b8ff" stroke="#63b8ff" points="326.85,-54.63 336.85,-51.13 326.85,-47.63 326.85,-54.63"/>
</a>
</g>
</g>
</g>
</svg>
