<?xml version="1.0" encoding="UTF-8" standalone="no"?>
<!DOCTYPE svg PUBLIC "-//W3C//DTD SVG 1.1//EN"
 "http://www.w3.org/Graphics/SVG/1.1/DTD/svg11.dtd">
<!-- Generated by graphviz version 12.2.1 (20241206.2353)
 -->
<!-- Title: ps4::ps4 Pages: 1 -->
<!--zoomable 110 -->

<svg id="main" version="1.1" xmlns="http://www.w3.org/2000/svg" xmlns:xlink="http://www.w3.org/1999/xlink" xml:space="preserve" onload="init(evt)">

<style type="text/css"><![CDATA[
.node, .edge {opacity: 0.7;}
.node.selected, .edge.selected {opacity: 1;}
.edge:hover path { stroke: red; }
.edge:hover polygon { stroke: red; fill: red; }
]]></style>

<defs>
  <circle id="rim" cx="0" cy="0" r="7"/>
  <circle id="rim2" cx="0" cy="0" r="3.5"/>
  <g id="zoomPlus">
    <use xlink:href="#rim" fill="#404040"><set attributeName="fill" to="#808080" begin="zoomplus.mouseover" end="zoomplus.mouseout"/></use>
    <path d="M-4,0h8M0,-4v8" fill="none" stroke="white" stroke-width="1.5" pointer-events="none"/>
  </g>
  <g id="zoomMin">
    <use xlink:href="#rim" fill="#404040"><set attributeName="fill" to="#808080" begin="zoomminus.mouseover" end="zoomminus.mouseout"/></use>
    <path d="M-4,0h8" fill="none" stroke="white" stroke-width="1.5" pointer-events="none"/>
  </g>
  <g id="arrowUp" transform="translate(30 24)">
    <use xlink:href="#rim"/>
    <path pointer-events="none" fill="none" stroke="white" stroke-width="1.5" d="M0,-3.0v7 M-2.5,-0.5L0,-3.0L2.5,-0.5"/>
  </g>
  <g id="arrowRight" transform="rotate(90) translate(36 -43)">
    <use xlink:href="#rim"/>
    <path pointer-events="none" fill="none" stroke="white" stroke-width="1.5" d="M0,-3.0v7 M-2.5,-0.5L0,-3.0L2.5,-0.5"/>
  </g>
  <g id="arrowDown" transform="rotate(180) translate(-30 -48)">
    <use xlink:href="#rim"/>
    <path pointer-events="none" fill="none" stroke="white" stroke-width="1.5" d="M0,-3.0v7 M-2.5,-0.5L0,-3.0L2.5,-0.5"/>
  </g>
  <g id="arrowLeft" transform="rotate(270) translate(-36 17)">
    <use xlink:href="#rim"/>
    <path pointer-events="none" fill="none" stroke="white" stroke-width="1.5" d="M0,-3.0v7 M-2.5,-0.5L0,-3.0L2.5,-0.5"/>
  </g>
  <g id="resetDef">
    <use xlink:href="#rim2" fill="#404040"><set attributeName="fill" to="#808080" begin="reset.mouseover" end="reset.mouseout"/></use>
  </g>
</defs>
<script type="application/ecmascript">
var viewWidth = 770;
var viewHeight = 110;
var sectionId = 'dynsection-1';
</script>
<script type="application/ecmascript" xlink:href="svg.min.js"/>
<svg id="graph" class="graph">
<g id="viewport">
<title>ps4::ps4</title>
<!-- Node1 -->
<g id="Node000001" class="node">
<title>Node1</title>
<g id="a_Node000001"><a xlink:title="Construct the ps4 object, which creates the required tasks for the usb host, and processing the usb d...">
<polygon fill="#999999" stroke="#666666" points="61,-62.25 0,-62.25 0,-40 61,-40 61,-62.25"/>
<text text-anchor="middle" x="30.5" y="-46.85" font-family="Arial" font-size="12.00">ps4::ps4</text>
</a>
</g>
</g>
<!-- Node2 -->
<g id="Node000002" class="node">
<title>Node2</title>
<g id="a_Node000002"><a xlink:href="classps4.html#a1b5ebe7b0b2164899555e4f4b495fbf7" target="_top" xlink:title="HID Host Device callback.">
<polygon fill="white" stroke="#666666" points="277.25,-102.25 97,-102.25 97,-80 277.25,-80 277.25,-102.25"/>
<text text-anchor="middle" x="187.12" y="-86.85" font-family="Arial" font-size="12.00">ps4::hid_host_device_callback</text>
</a>
</g>
</g>
<!-- Node1&#45;&gt;Node2 -->
<g id="edge1_Node000001_Node000002" class="edge">
<title>Node1&#45;&gt;Node2</title>
<g id="a_edge1_Node000001_Node000002"><a xlink:title=" ">
<path fill="none" stroke="#63b8ff" d="M61.36,-60.76C72.5,-64.22 85.28,-68.02 97,-71.12 104.5,-73.11 112.39,-75.07 120.25,-76.93"/>
<polygon fill="#63b8ff" stroke="#63b8ff" points="119.28,-80.3 129.82,-79.16 120.87,-73.48 119.28,-80.3"/>
</a>
</g>
</g>
<!-- Node3 -->
<g id="Node000003" class="node">
<title>Node3</title>
<g id="a_Node000003"><a xlink:href="classps4.html#ac862ec12615387da7a5820a29443cb2b" target="_top" xlink:title="USB HID Host Device event.">
<polygon fill="white" stroke="#666666" points="269.75,-62.25 104.5,-62.25 104.5,-40 269.75,-40 269.75,-62.25"/>
<text text-anchor="middle" x="187.12" y="-46.85" font-family="Arial" font-size="12.00">ps4::hid_host_device_event</text>
</a>
</g>
</g>
<!-- Node1&#45;&gt;Node3 -->
<g id="edge2_Node000001_Node000003" class="edge">
<title>Node1&#45;&gt;Node3</title>
<g id="a_edge2_Node000001_Node000003"><a xlink:title=" ">
<path fill="none" stroke="#63b8ff" d="M61.31,-51.12C70.66,-51.12 81.52,-51.12 92.85,-51.12"/>
<polygon fill="#63b8ff" stroke="#63b8ff" points="92.8,-54.63 102.8,-51.13 92.8,-47.63 92.8,-54.63"/>
</a>
</g>
</g>
<!-- Node6 -->
<g id="Node000006" class="node">
<title>Node6</title>
<g id="a_Node000006"><a xlink:href="classps4.html#a54ba84c2fddbdf97ae7ae24d99eff02c" target="_top" xlink:title="Start USB Host install and handle common USB host library events while app pin not low.">
<polygon fill="white" stroke="#666666" points="241.62,-22.25 132.62,-22.25 132.62,0 241.62,0 241.62,-22.25"/>
<text text-anchor="middle" x="187.12" y="-6.85" font-family="Arial" font-size="12.00">ps4::usb_lib_task</text>
</a>
</g>
</g>
<!-- Node1&#45;&gt;Node6 -->
<g id="edge5_Node000001_Node000006" class="edge">
<title>Node1&#45;&gt;Node6</title>
<g id="a_edge5_Node000001_Node000006"><a xlink:title=" ">
<path fill="none" stroke="#63b8ff" d="M61.36,-41.49C72.5,-38.03 85.28,-34.23 97,-31.12 104.8,-29.06 113.02,-27.03 121.18,-25.1"/>
<polygon fill="#63b8ff" stroke="#63b8ff" points="121.81,-28.54 130.76,-22.87 120.23,-21.72 121.81,-28.54"/>
</a>
</g>
</g>
<!-- Node4 -->
<g id="Node000004" class="node">
<title>Node4</title>
<g id="a_Node000004"><a xlink:href="classps4.html#a33c070f3c1106c8ffe493c73756cb388" target="_top" xlink:title="USB HID Host interface callback.">
<polygon fill="white" stroke="#666666" points="504,-62.25 313.25,-62.25 313.25,-40 504,-40 504,-62.25"/>
<text text-anchor="middle" x="408.62" y="-46.85" font-family="Arial" font-size="12.00">ps4::hid_host_interface_callback</text>
</a>
</g>
</g>
<!-- Node3&#45;&gt;Node4 -->
<g id="edge3_Node000003_Node000004" class="edge">
<title>Node3&#45;&gt;Node4</title>
<g id="a_edge3_Node000003_Node000004"><a xlink:title=" ">
<path fill="none" stroke="#63b8ff" d="M270.17,-51.12C280.45,-51.12 291.09,-51.12 301.67,-51.12"/>
<polygon fill="#63b8ff" stroke="#63b8ff" points="301.6,-54.63 311.6,-51.13 301.6,-47.63 301.6,-54.63"/>
</a>
</g>
</g>
<!-- Node5 -->
<g id="Node000005" class="node">
<title>Node5</title>
<g id="a_Node000005"><a xlink:href="classps4.html#ab98da929c3d1305de189ea698a2d6833" target="_top" xlink:title="USB HID Host Generic Interface report callback handler.">
<polygon fill="white" stroke="#666666" points="762.25,-62.25 540,-62.25 540,-40 762.25,-40 762.25,-62.25"/>
<text text-anchor="middle" x="651.12" y="-46.85" font-family="Arial" font-size="12.00">ps4::hid_host_generic_report_callback</text>
</a>
</g>
</g>
<!-- Node4&#45;&gt;Node5 -->
<g id="edge4_Node000004_Node000005" class="edge">
<title>Node4&#45;&gt;Node5</title>
<g id="a_edge4_Node000004_Node000005"><a xlink:title=" ">
<path fill="none" stroke="#63b8ff" d="M504.33,-51.12C512.19,-51.12 520.21,-51.12 528.23,-51.12"/>
<polygon fill="#63b8ff" stroke="#63b8ff" points="528.06,-54.63 538.06,-51.13 528.06,-47.63 528.06,-54.63"/>
</a>
</g>
</g>
</g>
</svg>

<g id="navigator" transform="translate(0 0)" fill="#404254">
  <rect fill="#f2f5e9" fill-opacity="0.5" stroke="#606060" stroke-width=".5" x="0" y="0" width="60" height="60"/>
  <use id="zoomplus" xlink:href="#zoomPlus" x="17" y="9" onmousedown="handleZoom(evt,'in')"/>
  <use id="zoomminus" xlink:href="#zoomMin" x="42" y="9" onmousedown="handleZoom(evt,'out')"/>
  <use id="reset" xlink:href="#resetDef" x="30" y="36" onmousedown="handleReset()"/>
   <use id="arrowup" xlink:href="#arrowUp" x="0" y="0" onmousedown="handlePan(0,-1)"/>
  <use id="arrowright" xlink:href="#arrowRight" x="0" y="0" onmousedown="handlePan(1,0)"/>
  <use id="arrowdown" xlink:href="#arrowDown" x="0" y="0" onmousedown="handlePan(0,1)"/>
  <use id="arrowleft" xlink:href="#arrowLeft" x="0" y="0" onmousedown="handlePan(-1,0)"/>
</g>
<svg viewBox="0 0 15 15" width="100%" height="30px" preserveAspectRatio="xMaxYMin meet">
 <g id="arrow_out" transform="scale(0.3 0.3)">
  <a xlink:href="classps4_af911de391cd5275009d1fbe81dd7c644_cgraph_org.svg" target="_base">
   <rect id="button" ry="5" rx="5" y="6" x="6" height="38" width="38"
        fill="#f2f5e9" fill-opacity="0.5" stroke="#606060" stroke-width="1.0"/>
   <path id="arrow"
     d="M 11.500037,31.436501 C 11.940474,20.09759 22.043105,11.32322 32.158766,21.979434 L 37.068811,17.246167 C 37.068811,17.246167 37.088388,32 37.088388,32 L 22.160133,31.978069 C 22.160133,31.978069 26.997745,27.140456 26.997745,27.140456 C 18.528582,18.264221 13.291696,25.230495 11.500037,31.436501 z"
     style="fill:#404040;"/>
  </a>
 </g>
</svg>

<style type='text/css'>
<![CDATA[
[data-mouse-over-selected='false'] { opacity: 0.7; }
[data-mouse-over-selected='true']  { opacity: 1.0; }
]]>
</style>
<script type="application/ecmascript"><![CDATA[
document.addEventListener('DOMContentLoaded', (event) => {
  highlightEdges();
  highlightAdjacentNodes();
});
]]></script>
</svg>
