<?xml version="1.0" encoding="UTF-8" standalone="no"?>
<!DOCTYPE svg PUBLIC "-//W3C//DTD SVG 1.1//EN"
 "http://www.w3.org/Graphics/SVG/1.1/DTD/svg11.dtd">
<!-- Generated by graphviz version 12.2.1 (20241206.2353)
 -->
<!-- Title: changeable_values&lt; T &gt; Pages: 1 -->
<svg width="403pt" height="176pt"
 viewBox="0.00 0.00 403.25 176.25" xmlns="http://www.w3.org/2000/svg" xmlns:xlink="http://www.w3.org/1999/xlink">
<g id="graph0" class="graph" transform="scale(1 1) rotate(0) translate(4 172.25)">
<title>changeable_values&lt; T &gt;</title>
<!-- Node1 -->
<g id="Node000001" class="node">
<title>Node1</title>
<g id="a_Node000001"><a xlink:title="This class is for creating a value than can be changed by a set amount with limits.">
<polygon fill="#999999" stroke="none" points="395.25,-168.25 0,-168.25 0,0 395.25,0 395.25,-168.25"/>
<text text-anchor="start" x="132" y="-152.85" font-family="Arial" font-size="12.00">changeable_values&lt; T &gt;</text>
<text text-anchor="start" x="5.5" y="-134.6" font-family="Arial" font-size="12.00">&#45;</text>
<text text-anchor="start" x="14.75" y="-134.6" font-family="Arial" font-size="12.00">T * value</text>
<text text-anchor="start" x="5.5" y="-116.35" font-family="Arial" font-size="12.00">&#45;</text>
<text text-anchor="start" x="14.75" y="-116.35" font-family="Arial" font-size="12.00">T min_value</text>
<text text-anchor="start" x="5.5" y="-98.1" font-family="Arial" font-size="12.00">&#45;</text>
<text text-anchor="start" x="14.75" y="-98.1" font-family="Arial" font-size="12.00">T max_value</text>
<text text-anchor="start" x="5.5" y="-79.85" font-family="Arial" font-size="12.00">&#45;</text>
<text text-anchor="start" x="14.75" y="-79.85" font-family="Arial" font-size="12.00">T change_by</text>
<text text-anchor="start" x="4" y="-61.6" font-family="Arial" font-size="12.00">+</text>
<text text-anchor="start" x="14.75" y="-61.6" font-family="Arial" font-size="12.00">changeable_values(T *value, T min_value, T max_value, T change_by)</text>
<text text-anchor="start" x="4" y="-43.35" font-family="Arial" font-size="12.00">+</text>
<text text-anchor="start" x="14.75" y="-43.35" font-family="Arial" font-size="12.00">void increase_value()</text>
<text text-anchor="start" x="4" y="-25.1" font-family="Arial" font-size="12.00">+</text>
<text text-anchor="start" x="14.75" y="-25.1" font-family="Arial" font-size="12.00">void decrease_value()</text>
<text text-anchor="start" x="4" y="-6.85" font-family="Arial" font-size="12.00">+</text>
<text text-anchor="start" x="14.75" y="-6.85" font-family="Arial" font-size="12.00">T get_value()</text>
<polygon fill="#666666" stroke="#666666" points="0,-148 0,-148 395.25,-148 395.25,-148 0,-148"/>
<polygon fill="#666666" stroke="#666666" points="0,-75 0,-75 12.75,-75 12.75,-75 0,-75"/>
<polygon fill="#666666" stroke="#666666" points="12.75,-75 12.75,-75 395.25,-75 395.25,-75 12.75,-75"/>
<polygon fill="none" stroke="#666666" points="0,0 0,-168.25 395.25,-168.25 395.25,0 0,0"/>
</a>
</g>
</g>
</g>
</svg>
