<?xml version="1.0" encoding="UTF-8" standalone="no"?>
<!DOCTYPE svg PUBLIC "-//W3C//DTD SVG 1.1//EN"
 "http://www.w3.org/Graphics/SVG/1.1/DTD/svg11.dtd">
<!-- Generated by graphviz version 12.2.1 (20241206.2353)
 -->
<!-- Title: ps4 Pages: 1 -->
<svg width="753pt" height="158pt"
 viewBox="0.00 0.00 752.75 158.00" xmlns="http://www.w3.org/2000/svg" xmlns:xlink="http://www.w3.org/1999/xlink">
<g id="graph0" class="graph" transform="scale(1 1) rotate(0) translate(4 154)">
<title>ps4</title>
<!-- Node1 -->
<g id="Node000001" class="node">
<title>Node1</title>
<g id="a_Node000001"><a xlink:title="This class is for creating a ps4 controller object and handling all tasks related to the ps4 controll...">
<polygon fill="#999999" stroke="none" points="744.75,-150 0,-150 0,0 744.75,0 744.75,-150"/>
<text text-anchor="start" x="362.62" y="-134.6" font-family="Arial" font-size="12.00">ps4</text>
<text text-anchor="start" x="5.5" y="-116.35" font-family="Arial" font-size="12.00">&#45;</text>
<text text-anchor="start" x="14.75" y="-116.35" font-family="Arial" font-size="12.00">static QueueHandle_t app_event_queue</text>
<text text-anchor="start" x="4" y="-98.1" font-family="Arial" font-size="12.00">+</text>
<text text-anchor="start" x="14.75" y="-98.1" font-family="Arial" font-size="12.00">ps4()</text>
<text text-anchor="start" x="5.5" y="-79.85" font-family="Arial" font-size="12.00">&#45;</text>
<text text-anchor="start" x="14.75" y="-79.85" font-family="Arial" font-size="12.00">void hid_host_device_event(hid_host_device_handle_t hid_device_handle, const hid_host_driver_event_t event, void *arg)</text>
<text text-anchor="start" x="5.5" y="-61.6" font-family="Arial" font-size="12.00">&#45;</text>
<text text-anchor="start" x="14.75" y="-61.6" font-family="Arial" font-size="12.00">static void hid_host_generic_report_callback(const uint8_t *const data, const int length)</text>
<text text-anchor="start" x="5.5" y="-43.35" font-family="Arial" font-size="12.00">&#45;</text>
<text text-anchor="start" x="14.75" y="-43.35" font-family="Arial" font-size="12.00">static void hid_host_interface_callback(hid_host_device_handle_t hid_device_handle, const hid_host_interface_event_t event, void *arg)</text>
<text text-anchor="start" x="5.5" y="-25.1" font-family="Arial" font-size="12.00">&#45;</text>
<text text-anchor="start" x="14.75" y="-25.1" font-family="Arial" font-size="12.00">static void usb_lib_task(void *arg)</text>
<text text-anchor="start" x="5.5" y="-6.85" font-family="Arial" font-size="12.00">&#45;</text>
<text text-anchor="start" x="14.75" y="-6.85" font-family="Arial" font-size="12.00">static void hid_host_device_callback(hid_host_device_handle_t hid_device_handle, const hid_host_driver_event_t event, void *arg)</text>
<polygon fill="#666666" stroke="#666666" points="0,-129.75 0,-129.75 744.75,-129.75 744.75,-129.75 0,-129.75"/>
<polygon fill="#666666" stroke="#666666" points="0,-111.5 0,-111.5 12.75,-111.5 12.75,-111.5 0,-111.5"/>
<polygon fill="#666666" stroke="#666666" points="12.75,-111.5 12.75,-111.5 744.75,-111.5 744.75,-111.5 12.75,-111.5"/>
<polygon fill="none" stroke="#666666" points="0,0 0,-150 744.75,-150 744.75,0 0,0"/>
</a>
</g>
</g>
</g>
</svg>
