<?xml version="1.0" encoding="UTF-8" standalone="no"?>
<!DOCTYPE svg PUBLIC "-//W3C//DTD SVG 1.1//EN"
 "http://www.w3.org/Graphics/SVG/1.1/DTD/svg11.dtd">
<!-- Generated by graphviz version 12.2.1 (20241206.2353)
 -->
<!-- Title: menu_handler::update Pages: 1 -->
<!--zoomable 428 -->

<svg id="main" version="1.1" xmlns="http://www.w3.org/2000/svg" xmlns:xlink="http://www.w3.org/1999/xlink" xml:space="preserve" onload="init(evt)">

<style type="text/css"><![CDATA[
.node, .edge {opacity: 0.7;}
.node.selected, .edge.selected {opacity: 1;}
.edge:hover path { stroke: red; }
.edge:hover polygon { stroke: red; fill: red; }
]]></style>

<defs>
  <circle id="rim" cx="0" cy="0" r="7"/>
  <circle id="rim2" cx="0" cy="0" r="3.5"/>
  <g id="zoomPlus">
    <use xlink:href="#rim" fill="#404040"><set attributeName="fill" to="#808080" begin="zoomplus.mouseover" end="zoomplus.mouseout"/></use>
    <path d="M-4,0h8M0,-4v8" fill="none" stroke="white" stroke-width="1.5" pointer-events="none"/>
  </g>
  <g id="zoomMin">
    <use xlink:href="#rim" fill="#404040"><set attributeName="fill" to="#808080" begin="zoomminus.mouseover" end="zoomminus.mouseout"/></use>
    <path d="M-4,0h8" fill="none" stroke="white" stroke-width="1.5" pointer-events="none"/>
  </g>
  <g id="arrowUp" transform="translate(30 24)">
    <use xlink:href="#rim"/>
    <path pointer-events="none" fill="none" stroke="white" stroke-width="1.5" d="M0,-3.0v7 M-2.5,-0.5L0,-3.0L2.5,-0.5"/>
  </g>
  <g id="arrowRight" transform="rotate(90) translate(36 -43)">
    <use xlink:href="#rim"/>
    <path pointer-events="none" fill="none" stroke="white" stroke-width="1.5" d="M0,-3.0v7 M-2.5,-0.5L0,-3.0L2.5,-0.5"/>
  </g>
  <g id="arrowDown" transform="rotate(180) translate(-30 -48)">
    <use xlink:href="#rim"/>
    <path pointer-events="none" fill="none" stroke="white" stroke-width="1.5" d="M0,-3.0v7 M-2.5,-0.5L0,-3.0L2.5,-0.5"/>
  </g>
  <g id="arrowLeft" transform="rotate(270) translate(-36 17)">
    <use xlink:href="#rim"/>
    <path pointer-events="none" fill="none" stroke="white" stroke-width="1.5" d="M0,-3.0v7 M-2.5,-0.5L0,-3.0L2.5,-0.5"/>
  </g>
  <g id="resetDef">
    <use xlink:href="#rim2" fill="#404040"><set attributeName="fill" to="#808080" begin="reset.mouseover" end="reset.mouseout"/></use>
  </g>
</defs>
<script type="application/ecmascript">
var viewWidth = 637;
var viewHeight = 428;
var sectionId = 'dynsection-6';
</script>
<script type="application/ecmascript" xlink:href="svg.min.js"/>
<svg id="graph" class="graph">
<g id="viewport">
<title>menu_handler::update</title>
<!-- Node1 -->
<g id="Node000001" class="node">
<title>Node1</title>
<g id="a_Node000001"><a xlink:title="This function will update the menu handler.">
<polygon fill="#999999" stroke="#666666" points="136,-222.25 0,-222.25 0,-200 136,-200 136,-222.25"/>
<text text-anchor="middle" x="68" y="-206.85" font-family="Arial" font-size="12.00">menu_handler::update</text>
</a>
</g>
</g>
<!-- Node2 -->
<g id="Node000002" class="node">
<title>Node2</title>
<g id="a_Node000002"><a xlink:href="classmenu__handler.html#a5359c304e788501a02e8aaf6d289266f" target="_top" xlink:title="This function draws the motor calibration menu to the display.">
<polygon fill="white" stroke="#666666" points="366.5,-420.25 189.25,-420.25 189.25,-398 366.5,-398 366.5,-420.25"/>
<text text-anchor="middle" x="277.88" y="-404.85" font-family="Arial" font-size="12.00">menu_handler::circle_pressed</text>
</a>
</g>
</g>
<!-- Node1&#45;&gt;Node2 -->
<g id="edge1_Node000001_Node000002" class="edge">
<title>Node1&#45;&gt;Node2</title>
<g id="a_edge1_Node000001_Node000002"><a xlink:title=" ">
<path fill="none" stroke="#63b8ff" d="M72.33,-222.55C82.04,-253.77 113.42,-341.06 172,-384.12 176.69,-387.57 181.78,-390.55 187.12,-393.12"/>
<polygon fill="#63b8ff" stroke="#63b8ff" points="185.66,-396.3 196.23,-396.99 188.4,-389.86 185.66,-396.3"/>
</a>
</g>
</g>
<!-- Node3 -->
<g id="Node000003" class="node">
<title>Node3</title>
<g id="a_Node000003"><a xlink:href="classmenu__handler.html#af3008a9c0396d06b3b772a31096d31ac" target="_top" xlink:title="This function draws the status menu to the display.">
<polygon fill="white" stroke="#666666" points="628.5,-142.25 419.75,-142.25 419.75,-120 628.5,-120 628.5,-142.25"/>
<text text-anchor="middle" x="524.12" y="-126.85" font-family="Arial" font-size="12.00">menu_handler::draw_status_display</text>
</a>
</g>
</g>
<!-- Node1&#45;&gt;Node3 -->
<g id="edge7_Node000001_Node000003" class="edge">
<title>Node1&#45;&gt;Node3</title>
<g id="a_edge7_Node000001_Node000003"><a xlink:title=" ">
<path fill="none" stroke="#63b8ff" d="M73.22,-222.67C84.28,-250.94 117.07,-323.34 172,-351.12 255.98,-393.6 301.3,-396.5 383.75,-351.12 462.1,-308.01 502.58,-200.2 516.94,-153.39"/>
<polygon fill="#63b8ff" stroke="#63b8ff" points="520.21,-154.67 519.67,-144.09 513.49,-152.7 520.21,-154.67"/>
</a>
</g>
</g>
<!-- Node4 -->
<g id="Node000004" class="node">
<title>Node4</title>
<g id="a_Node000004"><a xlink:href="classmenu__handler.html#a1761326e4755be032ead895f0128a241" target="_top" xlink:title="This function will switch which variable can be modified in the menus (if modifiable)">
<polygon fill="white" stroke="#666666" points="383.75,-342.25 172,-342.25 172,-320 383.75,-320 383.75,-342.25"/>
<text text-anchor="middle" x="277.88" y="-326.85" font-family="Arial" font-size="12.00">menu_handler::dpad_down_pressed</text>
</a>
</g>
</g>
<!-- Node1&#45;&gt;Node4 -->
<g id="edge3_Node000001_Node000004" class="edge">
<title>Node1&#45;&gt;Node4</title>
<g id="a_edge3_Node000001_Node000004"><a xlink:title=" ">
<path fill="none" stroke="#63b8ff" d="M77.13,-222.61C92.83,-243.84 129.54,-289.05 172,-311.12 175.11,-312.74 178.33,-314.23 181.62,-315.59"/>
<polygon fill="#63b8ff" stroke="#63b8ff" points="180.37,-318.86 190.97,-319.04 182.8,-312.29 180.37,-318.86"/>
</a>
</g>
</g>
<!-- Node5 -->
<g id="Node000005" class="node">
<title>Node5</title>
<g id="a_Node000005"><a xlink:href="classmenu__handler.html#a217a2b1671785e4d03511d7a62901e0a" target="_top" xlink:title="This function will decrease the value of the selected variable if modifiable)">
<polygon fill="white" stroke="#666666" points="377,-302.25 178.75,-302.25 178.75,-280 377,-280 377,-302.25"/>
<text text-anchor="middle" x="277.88" y="-286.85" font-family="Arial" font-size="12.00">menu_handler::dpad_left_pressed</text>
</a>
</g>
</g>
<!-- Node1&#45;&gt;Node5 -->
<g id="edge4_Node000001_Node000005" class="edge">
<title>Node1&#45;&gt;Node5</title>
<g id="a_edge4_Node000001_Node000005"><a xlink:title=" ">
<path fill="none" stroke="#63b8ff" d="M84.91,-222.72C104.44,-236.38 139.05,-258.8 172,-271.12 177.4,-273.14 183.03,-274.97 188.76,-276.61"/>
<polygon fill="#63b8ff" stroke="#63b8ff" points="187.84,-279.99 198.4,-279.17 189.63,-273.22 187.84,-279.99"/>
</a>
</g>
</g>
<!-- Node6 -->
<g id="Node000006" class="node">
<title>Node6</title>
<g id="a_Node000006"><a xlink:href="classmenu__handler.html#a4515106db4f1601ab9dd85d12482de3c" target="_top" xlink:title="This function will increase the value of the selected variable if modifiable)">
<polygon fill="white" stroke="#666666" points="380.75,-262.25 175,-262.25 175,-240 380.75,-240 380.75,-262.25"/>
<text text-anchor="middle" x="277.88" y="-246.85" font-family="Arial" font-size="12.00">menu_handler::dpad_right_pressed</text>
</a>
</g>
</g>
<!-- Node1&#45;&gt;Node6 -->
<g id="edge5_Node000001_Node000006" class="edge">
<title>Node1&#45;&gt;Node6</title>
<g id="a_edge5_Node000001_Node000006"><a xlink:title=" ">
<path fill="none" stroke="#63b8ff" d="M128.63,-222.74C142.84,-225.5 157.96,-228.42 172,-231.12 182.54,-233.15 193.67,-235.29 204.59,-237.37"/>
<polygon fill="#63b8ff" stroke="#63b8ff" points="203.9,-240.8 214.38,-239.24 205.21,-233.93 203.9,-240.8"/>
</a>
</g>
</g>
<!-- Node7 -->
<g id="Node000007" class="node">
<title>Node7</title>
<g id="a_Node000007"><a xlink:href="classmenu__handler.html#af2c07a9bc76fa5db69a736029600b2ce" target="_top" xlink:title="This function will switch which variable can be modified in the menus (if modifiable)">
<polygon fill="white" stroke="#666666" points="375.88,-222.25 179.88,-222.25 179.88,-200 375.88,-200 375.88,-222.25"/>
<text text-anchor="middle" x="277.88" y="-206.85" font-family="Arial" font-size="12.00">menu_handler::dpad_up_pressed</text>
</a>
</g>
</g>
<!-- Node1&#45;&gt;Node7 -->
<g id="edge6_Node000001_Node000007" class="edge">
<title>Node1&#45;&gt;Node7</title>
<g id="a_edge6_Node000001_Node000007"><a xlink:title=" ">
<path fill="none" stroke="#63b8ff" d="M136.49,-211.12C146.7,-211.12 157.44,-211.12 168.25,-211.12"/>
<polygon fill="#63b8ff" stroke="#63b8ff" points="168.01,-214.63 178.01,-211.13 168.01,-207.63 168.01,-214.63"/>
</a>
</g>
</g>
<!-- Node8 -->
<g id="Node000008" class="node">
<title>Node8</title>
<g id="a_Node000008"><a xlink:href="classmenu__handler.html#a501ff5ac964f8ed7775397311071c34f" target="_top" xlink:title="This function draws the servo latched menu to the display.">
<polygon fill="white" stroke="#666666" points="357.12,-182.25 198.62,-182.25 198.62,-160 357.12,-160 357.12,-182.25"/>
<text text-anchor="middle" x="277.88" y="-166.85" font-family="Arial" font-size="12.00">menu_handler::l2_pressed</text>
</a>
</g>
</g>
<!-- Node1&#45;&gt;Node8 -->
<g id="edge8_Node000001_Node000008" class="edge">
<title>Node1&#45;&gt;Node8</title>
<g id="a_edge8_Node000001_Node000008"><a xlink:title=" ">
<path fill="none" stroke="#63b8ff" d="M128.63,-199.51C142.84,-196.75 157.96,-193.83 172,-191.12 182.54,-189.1 193.67,-186.96 204.59,-184.88"/>
<polygon fill="#63b8ff" stroke="#63b8ff" points="205.21,-188.32 214.38,-183.01 203.9,-181.45 205.21,-188.32"/>
</a>
</g>
</g>
<!-- Node9 -->
<g id="Node000009" class="node">
<title>Node9</title>
<g id="a_Node000009"><a xlink:href="classmenu__handler.html#af947e2fc4fecee6f2240e9d25db90961" target="_top" xlink:title="This function cycles throught the status, motor speed, and ramped velocity menu menus.">
<polygon fill="white" stroke="#666666" points="371.75,-142.25 184,-142.25 184,-120 371.75,-120 371.75,-142.25"/>
<text text-anchor="middle" x="277.88" y="-126.85" font-family="Arial" font-size="12.00">menu_handler::options_pressed</text>
</a>
</g>
</g>
<!-- Node1&#45;&gt;Node9 -->
<g id="edge10_Node000001_Node000009" class="edge">
<title>Node1&#45;&gt;Node9</title>
<g id="a_edge10_Node000001_Node000009"><a xlink:title=" ">
<path fill="none" stroke="#63b8ff" d="M84.91,-199.53C104.44,-185.87 139.05,-163.45 172,-151.12 177.4,-149.11 183.03,-147.28 188.76,-145.64"/>
<polygon fill="#63b8ff" stroke="#63b8ff" points="189.63,-149.03 198.4,-143.08 187.84,-142.26 189.63,-149.03"/>
</a>
</g>
</g>
<!-- Node10 -->
<g id="Node000010" class="node">
<title>Node10</title>
<g id="a_Node000010"><a xlink:href="classmenu__handler.html#af1b665a4320c38333e0081864ce797ad" target="_top" xlink:title="This function draws the servo released menu to the display.">
<polygon fill="white" stroke="#666666" points="368.75,-102.25 187,-102.25 187,-80 368.75,-80 368.75,-102.25"/>
<text text-anchor="middle" x="277.88" y="-86.85" font-family="Arial" font-size="12.00">menu_handler::servo_released</text>
</a>
</g>
</g>
<!-- Node1&#45;&gt;Node10 -->
<g id="edge11_Node000001_Node000010" class="edge">
<title>Node1&#45;&gt;Node10</title>
<g id="a_edge11_Node000001_Node000010"><a xlink:title=" ">
<path fill="none" stroke="#63b8ff" d="M77.13,-199.64C92.83,-178.41 129.54,-133.2 172,-111.12 175.11,-109.51 178.33,-108.02 181.62,-106.66"/>
<polygon fill="#63b8ff" stroke="#63b8ff" points="182.8,-109.96 190.97,-103.21 180.37,-103.39 182.8,-109.96"/>
</a>
</g>
</g>
<!-- Node11 -->
<g id="Node000011" class="node">
<title>Node11</title>
<g id="a_Node000011"><a xlink:href="classmenu__handler.html#abb48889d1582aa32c4ef201a3707c21d" target="_top" xlink:title="This function draws the errors clear menu to the display.">
<polygon fill="white" stroke="#666666" points="370.62,-62.25 185.12,-62.25 185.12,-40 370.62,-40 370.62,-62.25"/>
<text text-anchor="middle" x="277.88" y="-46.85" font-family="Arial" font-size="12.00">menu_handler::square_pressed</text>
</a>
</g>
</g>
<!-- Node1&#45;&gt;Node11 -->
<g id="edge13_Node000001_Node000011" class="edge">
<title>Node1&#45;&gt;Node11</title>
<g id="a_edge13_Node000001_Node000011"><a xlink:title=" ">
<path fill="none" stroke="#63b8ff" d="M73.75,-199.81C85.78,-172.68 120.18,-103.79 172,-71.12 174.13,-69.78 176.34,-68.52 178.6,-67.34"/>
<polygon fill="#63b8ff" stroke="#63b8ff" points="179.8,-70.64 187.44,-63.31 176.89,-64.27 179.8,-70.64"/>
</a>
</g>
</g>
<!-- Node12 -->
<g id="Node000012" class="node">
<title>Node12</title>
<g id="a_Node000012"><a xlink:href="classmenu__handler.html#a0d65822629745990561b91fc423d3aaa" target="_top" xlink:title="This function draws the motors en/dis abled menu to the display.">
<polygon fill="white" stroke="#666666" points="372.12,-22.25 183.62,-22.25 183.62,0 372.12,0 372.12,-22.25"/>
<text text-anchor="middle" x="277.88" y="-6.85" font-family="Arial" font-size="12.00">menu_handler::triangle_pressed</text>
</a>
</g>
</g>
<!-- Node1&#45;&gt;Node12 -->
<g id="edge15_Node000001_Node000012" class="edge">
<title>Node1&#45;&gt;Node12</title>
<g id="a_edge15_Node000001_Node000012"><a xlink:title=" ">
<path fill="none" stroke="#63b8ff" d="M71.95,-199.57C80.86,-167.15 110.74,-74.83 172,-31.12 173.58,-30 175.21,-28.93 176.88,-27.91"/>
<polygon fill="#63b8ff" stroke="#63b8ff" points="178.25,-31.14 185.48,-23.4 175,-24.94 178.25,-31.14"/>
</a>
</g>
</g>
<!-- Node2&#45;&gt;Node3 -->
<g id="edge2_Node000002_Node000003" class="edge">
<title>Node2&#45;&gt;Node3</title>
<g id="a_edge2_Node000002_Node000003"><a xlink:title=" ">
<path fill="none" stroke="#63b8ff" d="M359.11,-397.52C367.94,-394.11 376.38,-389.74 383.75,-384.12 463.39,-323.5 503.57,-203.63 517.41,-153.74"/>
<polygon fill="#63b8ff" stroke="#63b8ff" points="520.78,-154.67 519.97,-144.1 514.02,-152.86 520.78,-154.67"/>
</a>
</g>
</g>
<!-- Node8&#45;&gt;Node3 -->
<g id="edge9_Node000008_Node000003" class="edge">
<title>Node8&#45;&gt;Node3</title>
<g id="a_edge9_Node000008_Node000003"><a xlink:title=" ">
<path fill="none" stroke="#63b8ff" d="M349.85,-159.5C378.45,-154.82 411.62,-149.39 441.24,-144.54"/>
<polygon fill="#63b8ff" stroke="#63b8ff" points="441.6,-148.02 450.9,-142.95 440.47,-141.12 441.6,-148.02"/>
</a>
</g>
</g>
<!-- Node10&#45;&gt;Node3 -->
<g id="edge12_Node000010_Node000003" class="edge">
<title>Node10&#45;&gt;Node3</title>
<g id="a_edge12_Node000010_Node000003"><a xlink:title=" ">
<path fill="none" stroke="#63b8ff" d="M349.85,-102.75C378.45,-107.43 411.62,-112.86 441.24,-117.71"/>
<polygon fill="#63b8ff" stroke="#63b8ff" points="440.47,-121.13 450.9,-119.3 441.6,-114.23 440.47,-121.13"/>
</a>
</g>
</g>
<!-- Node11&#45;&gt;Node3 -->
<g id="edge14_Node000011_Node000003" class="edge">
<title>Node11&#45;&gt;Node3</title>
<g id="a_edge14_Node000011_Node000003"><a xlink:title=" ">
<path fill="none" stroke="#63b8ff" d="M351.03,-62.73C362.09,-65.13 373.29,-67.92 383.75,-71.12 421.33,-82.65 462.44,-101.12 490.21,-114.52"/>
<polygon fill="#63b8ff" stroke="#63b8ff" points="488.64,-117.65 499.16,-118.9 491.72,-111.37 488.64,-117.65"/>
</a>
</g>
</g>
<!-- Node12&#45;&gt;Node3 -->
<g id="edge16_Node000012_Node000003" class="edge">
<title>Node12&#45;&gt;Node3</title>
<g id="a_edge16_Node000012_Node000003"><a xlink:title=" ">
<path fill="none" stroke="#63b8ff" d="M359.27,-22.71C367.69,-25.02 376,-27.8 383.75,-31.12 430.55,-51.21 477.01,-89.08 502.71,-112.02"/>
<polygon fill="#63b8ff" stroke="#63b8ff" points="500.32,-114.58 510.08,-118.71 505.03,-109.4 500.32,-114.58"/>
</a>
</g>
</g>
</g>
</svg>

<g id="navigator" transform="translate(0 0)" fill="#404254">
  <rect fill="#f2f5e9" fill-opacity="0.5" stroke="#606060" stroke-width=".5" x="0" y="0" width="60" height="60"/>
  <use id="zoomplus" xlink:href="#zoomPlus" x="17" y="9" onmousedown="handleZoom(evt,'in')"/>
  <use id="zoomminus" xlink:href="#zoomMin" x="42" y="9" onmousedown="handleZoom(evt,'out')"/>
  <use id="reset" xlink:href="#resetDef" x="30" y="36" onmousedown="handleReset()"/>
   <use id="arrowup" xlink:href="#arrowUp" x="0" y="0" onmousedown="handlePan(0,-1)"/>
  <use id="arrowright" xlink:href="#arrowRight" x="0" y="0" onmousedown="handlePan(1,0)"/>
  <use id="arrowdown" xlink:href="#arrowDown" x="0" y="0" onmousedown="handlePan(0,1)"/>
  <use id="arrowleft" xlink:href="#arrowLeft" x="0" y="0" onmousedown="handlePan(-1,0)"/>
</g>
<svg viewBox="0 0 15 15" width="100%" height="30px" preserveAspectRatio="xMaxYMin meet">
 <g id="arrow_out" transform="scale(0.3 0.3)">
  <a xlink:href="classmenu__handler_a23740b6e7279e5a39ab4377d1e440813_cgraph_org.svg" target="_base">
   <rect id="button" ry="5" rx="5" y="6" x="6" height="38" width="38"
        fill="#f2f5e9" fill-opacity="0.5" stroke="#606060" stroke-width="1.0"/>
   <path id="arrow"
     d="M 11.500037,31.436501 C 11.940474,20.09759 22.043105,11.32322 32.158766,21.979434 L 37.068811,17.246167 C 37.068811,17.246167 37.088388,32 37.088388,32 L 22.160133,31.978069 C 22.160133,31.978069 26.997745,27.140456 26.997745,27.140456 C 18.528582,18.264221 13.291696,25.230495 11.500037,31.436501 z"
     style="fill:#404040;"/>
  </a>
 </g>
</svg>

<style type='text/css'>
<![CDATA[
[data-mouse-over-selected='false'] { opacity: 0.7; }
[data-mouse-over-selected='true']  { opacity: 1.0; }
]]>
</style>
<script type="application/ecmascript"><![CDATA[
document.addEventListener('DOMContentLoaded', (event) => {
  highlightEdges();
  highlightAdjacentNodes();
});
]]></script>
</svg>
