<?xml version="1.0" encoding="UTF-8" standalone="no"?>
<!DOCTYPE svg PUBLIC "-//W3C//DTD SVG 1.1//EN"
 "http://www.w3.org/Graphics/SVG/1.1/DTD/svg11.dtd">
<!-- Generated by graphviz version 12.2.1 (20241206.2353)
 -->
<!-- Title: menu_handler::draw_status_display Pages: 1 -->
<!--zoomable 228 -->

<svg id="main" version="1.1" xmlns="http://www.w3.org/2000/svg" xmlns:xlink="http://www.w3.org/1999/xlink" xml:space="preserve" onload="init(evt)">

<style type="text/css"><![CDATA[
.node, .edge {opacity: 0.7;}
.node.selected, .edge.selected {opacity: 1;}
.edge:hover path { stroke: red; }
.edge:hover polygon { stroke: red; fill: red; }
]]></style>

<defs>
  <circle id="rim" cx="0" cy="0" r="7"/>
  <circle id="rim2" cx="0" cy="0" r="3.5"/>
  <g id="zoomPlus">
    <use xlink:href="#rim" fill="#404040"><set attributeName="fill" to="#808080" begin="zoomplus.mouseover" end="zoomplus.mouseout"/></use>
    <path d="M-4,0h8M0,-4v8" fill="none" stroke="white" stroke-width="1.5" pointer-events="none"/>
  </g>
  <g id="zoomMin">
    <use xlink:href="#rim" fill="#404040"><set attributeName="fill" to="#808080" begin="zoomminus.mouseover" end="zoomminus.mouseout"/></use>
    <path d="M-4,0h8" fill="none" stroke="white" stroke-width="1.5" pointer-events="none"/>
  </g>
  <g id="arrowUp" transform="translate(30 24)">
    <use xlink:href="#rim"/>
    <path pointer-events="none" fill="none" stroke="white" stroke-width="1.5" d="M0,-3.0v7 M-2.5,-0.5L0,-3.0L2.5,-0.5"/>
  </g>
  <g id="arrowRight" transform="rotate(90) translate(36 -43)">
    <use xlink:href="#rim"/>
    <path pointer-events="none" fill="none" stroke="white" stroke-width="1.5" d="M0,-3.0v7 M-2.5,-0.5L0,-3.0L2.5,-0.5"/>
  </g>
  <g id="arrowDown" transform="rotate(180) translate(-30 -48)">
    <use xlink:href="#rim"/>
    <path pointer-events="none" fill="none" stroke="white" stroke-width="1.5" d="M0,-3.0v7 M-2.5,-0.5L0,-3.0L2.5,-0.5"/>
  </g>
  <g id="arrowLeft" transform="rotate(270) translate(-36 17)">
    <use xlink:href="#rim"/>
    <path pointer-events="none" fill="none" stroke="white" stroke-width="1.5" d="M0,-3.0v7 M-2.5,-0.5L0,-3.0L2.5,-0.5"/>
  </g>
  <g id="resetDef">
    <use xlink:href="#rim2" fill="#404040"><set attributeName="fill" to="#808080" begin="reset.mouseover" end="reset.mouseout"/></use>
  </g>
</defs>
<script type="application/ecmascript">
var viewWidth = 837;
var viewHeight = 228;
var sectionId = 'dynsection-7';
</script>
<script type="application/ecmascript" xlink:href="svg.min.js"/>
<svg id="graph" class="graph">
<g id="viewport">
<title>menu_handler::draw_status_display</title>
<!-- Node1 -->
<g id="Node000001" class="node">
<title>Node1</title>
<g id="a_Node000001"><a xlink:title="This function draws the status menu to the display.">
<polygon fill="#999999" stroke="#666666" points="829.25,-122.25 620.5,-122.25 620.5,-100 829.25,-100 829.25,-122.25"/>
<text text-anchor="middle" x="724.88" y="-106.85" font-family="Arial" font-size="12.00">menu_handler::draw_status_display</text>
</a>
</g>
</g>
<!-- Node2 -->
<g id="Node000002" class="node">
<title>Node2</title>
<g id="a_Node000002"><a xlink:href="classmenu__handler.html#a5359c304e788501a02e8aaf6d289266f" target="_top" xlink:title="This function draws the motor calibration menu to the display.">
<polygon fill="white" stroke="#666666" points="578.88,-220.25 401.62,-220.25 401.62,-198 578.88,-198 578.88,-220.25"/>
<text text-anchor="middle" x="490.25" y="-204.85" font-family="Arial" font-size="12.00">menu_handler::circle_pressed</text>
</a>
</g>
</g>
<!-- Node1&#45;&gt;Node2 -->
<g id="edge1_Node000001_Node000002" class="edge">
<title>Node1&#45;&gt;Node2</title>
<g id="a_edge1_Node000001_Node000002"><a xlink:title=" ">
<path fill="none" stroke="#63b8ff" d="M695.36,-128.45C667.79,-144.62 624.44,-168.53 584.5,-184.12 571.07,-189.37 556.14,-193.91 542.24,-197.63"/>
<polygon fill="#63b8ff" stroke="#63b8ff" points="697,-131.55 703.81,-123.44 693.43,-125.53 697,-131.55"/>
</a>
</g>
</g>
<!-- Node3 -->
<g id="Node000003" class="node">
<title>Node3</title>
<g id="a_Node000003"><a xlink:href="classmenu__handler.html#a23740b6e7279e5a39ab4377d1e440813" target="_top" xlink:title="This function will update the menu handler.">
<polygon fill="white" stroke="#666666" points="360,-122.25 224,-122.25 224,-100 360,-100 360,-122.25"/>
<text text-anchor="middle" x="292" y="-106.85" font-family="Arial" font-size="12.00">menu_handler::update</text>
</a>
</g>
</g>
<!-- Node1&#45;&gt;Node3 -->
<g id="edge13_Node000001_Node000003" class="edge">
<title>Node1&#45;&gt;Node3</title>
<g id="a_edge13_Node000001_Node000003"><a xlink:title=" ">
<path fill="none" stroke="#63b8ff" d="M682.13,-126.42C654.78,-135.61 618.02,-146.41 584.5,-151.12 501.54,-162.79 478.34,-166.55 396,-151.12 367.15,-145.72 336,-132.49 315.59,-122.72"/>
<polygon fill="#63b8ff" stroke="#63b8ff" points="683.11,-129.78 691.44,-123.23 680.84,-123.16 683.11,-129.78"/>
</a>
</g>
</g>
<!-- Node6 -->
<g id="Node000006" class="node">
<title>Node6</title>
<g id="a_Node000006"><a xlink:href="classmenu__handler.html#a501ff5ac964f8ed7775397311071c34f" target="_top" xlink:title="This function draws the servo latched menu to the display.">
<polygon fill="white" stroke="#666666" points="569.5,-142.25 411,-142.25 411,-120 569.5,-120 569.5,-142.25"/>
<text text-anchor="middle" x="490.25" y="-126.85" font-family="Arial" font-size="12.00">menu_handler::l2_pressed</text>
</a>
</g>
</g>
<!-- Node1&#45;&gt;Node6 -->
<g id="edge5_Node000001_Node000006" class="edge">
<title>Node1&#45;&gt;Node6</title>
<g id="a_edge5_Node000001_Node000006"><a xlink:title=" ">
<path fill="none" stroke="#63b8ff" d="M609.06,-121C595.84,-122.13 582.58,-123.27 569.99,-124.36"/>
<polygon fill="#63b8ff" stroke="#63b8ff" points="608.98,-124.52 618.64,-120.17 608.38,-117.54 608.98,-124.52"/>
</a>
</g>
</g>
<!-- Node7 -->
<g id="Node000007" class="node">
<title>Node7</title>
<g id="a_Node000007"><a xlink:href="classmenu__handler.html#af1b665a4320c38333e0081864ce797ad" target="_top" xlink:title="This function draws the servo released menu to the display.">
<polygon fill="white" stroke="#666666" points="581.12,-102.25 399.38,-102.25 399.38,-80 581.12,-80 581.12,-102.25"/>
<text text-anchor="middle" x="490.25" y="-86.85" font-family="Arial" font-size="12.00">menu_handler::servo_released</text>
</a>
</g>
</g>
<!-- Node1&#45;&gt;Node7 -->
<g id="edge7_Node000001_Node000007" class="edge">
<title>Node1&#45;&gt;Node7</title>
<g id="a_edge7_Node000001_Node000007"><a xlink:title=" ">
<path fill="none" stroke="#63b8ff" d="M608.87,-101.24C599.6,-100.44 590.33,-99.64 581.28,-98.87"/>
<polygon fill="#63b8ff" stroke="#63b8ff" points="608.38,-104.71 618.64,-102.08 608.98,-97.73 608.38,-104.71"/>
</a>
</g>
</g>
<!-- Node8 -->
<g id="Node000008" class="node">
<title>Node8</title>
<g id="a_Node000008"><a xlink:href="classmenu__handler.html#abb48889d1582aa32c4ef201a3707c21d" target="_top" xlink:title="This function draws the errors clear menu to the display.">
<polygon fill="white" stroke="#666666" points="583,-62.25 397.5,-62.25 397.5,-40 583,-40 583,-62.25"/>
<text text-anchor="middle" x="490.25" y="-46.85" font-family="Arial" font-size="12.00">menu_handler::square_pressed</text>
</a>
</g>
</g>
<!-- Node1&#45;&gt;Node8 -->
<g id="edge9_Node000001_Node000008" class="edge">
<title>Node1&#45;&gt;Node8</title>
<g id="a_edge9_Node000001_Node000008"><a xlink:title=" ">
<path fill="none" stroke="#63b8ff" d="M675.24,-96.28C648.56,-88.37 614.84,-78.72 584.5,-71.12 572.78,-68.19 560.15,-65.3 548.1,-62.67"/>
<polygon fill="#63b8ff" stroke="#63b8ff" points="674.17,-99.62 684.75,-99.13 676.17,-92.91 674.17,-99.62"/>
</a>
</g>
</g>
<!-- Node9 -->
<g id="Node000009" class="node">
<title>Node9</title>
<g id="a_Node000009"><a xlink:href="classmenu__handler.html#a0d65822629745990561b91fc423d3aaa" target="_top" xlink:title="This function draws the motors en/dis abled menu to the display.">
<polygon fill="white" stroke="#666666" points="584.5,-22.25 396,-22.25 396,0 584.5,0 584.5,-22.25"/>
<text text-anchor="middle" x="490.25" y="-6.85" font-family="Arial" font-size="12.00">menu_handler::triangle_pressed</text>
</a>
</g>
</g>
<!-- Node1&#45;&gt;Node9 -->
<g id="edge11_Node000001_Node000009" class="edge">
<title>Node1&#45;&gt;Node9</title>
<g id="a_edge11_Node000001_Node000009"><a xlink:title=" ">
<path fill="none" stroke="#63b8ff" d="M698.51,-93.32C671.45,-75.14 626.77,-47.33 584.5,-31.12 576,-27.86 566.84,-25.08 557.71,-22.72"/>
<polygon fill="#63b8ff" stroke="#63b8ff" points="696.48,-96.18 706.72,-98.93 700.43,-90.4 696.48,-96.18"/>
</a>
</g>
</g>
<!-- Node2&#45;&gt;Node3 -->
<g id="edge2_Node000002_Node000003" class="edge">
<title>Node2&#45;&gt;Node3</title>
<g id="a_edge2_Node000002_Node000003"><a xlink:title=" ">
<path fill="none" stroke="#63b8ff" d="M422.37,-194.3C413.32,-191.4 404.3,-188.03 396,-184.12 360.69,-167.53 324.69,-138.72 306.03,-122.71"/>
<polygon fill="#63b8ff" stroke="#63b8ff" points="421.33,-197.64 431.92,-197.16 423.34,-190.94 421.33,-197.64"/>
</a>
</g>
</g>
<!-- Node4 -->
<g id="Node000004" class="node">
<title>Node4</title>
<g id="a_Node000004"><a xlink:href="display__task_8cpp.html#a9f61f48e689e3ceb92895a85cd380e17" target="_top" xlink:title="This is the task that handles driving the display with the menus and values.">
<polygon fill="white" stroke="#666666" points="188,-122.25 105.25,-122.25 105.25,-100 188,-100 188,-122.25"/>
<text text-anchor="middle" x="146.62" y="-106.85" font-family="Arial" font-size="12.00">display_task</text>
</a>
</g>
</g>
<!-- Node3&#45;&gt;Node4 -->
<g id="edge3_Node000003_Node000004" class="edge">
<title>Node3&#45;&gt;Node4</title>
<g id="a_edge3_Node000003_Node000004"><a xlink:title=" ">
<path fill="none" stroke="#63b8ff" d="M212.2,-111.12C203.94,-111.12 195.8,-111.12 188.23,-111.12"/>
<polygon fill="#63b8ff" stroke="#63b8ff" points="212,-114.63 222,-111.13 212,-107.63 212,-114.63"/>
</a>
</g>
</g>
<!-- Node5 -->
<g id="Node000005" class="node">
<title>Node5</title>
<g id="a_Node000005"><a xlink:href="main_8cpp.html#a630544a7f0a2cc40d8a7fefab7e2fe70" target="_top" xlink:title="the main function for the program, creates all semaphores, tasks, and runs setup functions">
<polygon fill="white" stroke="#666666" points="69.25,-122.25 0,-122.25 0,-100 69.25,-100 69.25,-122.25"/>
<text text-anchor="middle" x="34.62" y="-106.85" font-family="Arial" font-size="12.00">app_main</text>
</a>
</g>
</g>
<!-- Node4&#45;&gt;Node5 -->
<g id="edge4_Node000004_Node000005" class="edge">
<title>Node4&#45;&gt;Node5</title>
<g id="a_edge4_Node000004_Node000005"><a xlink:title=" ">
<path fill="none" stroke="#63b8ff" d="M93.6,-111.12C85.45,-111.12 77.22,-111.12 69.62,-111.12"/>
<polygon fill="#63b8ff" stroke="#63b8ff" points="93.46,-114.63 103.46,-111.13 93.46,-107.63 93.46,-114.63"/>
</a>
</g>
</g>
<!-- Node6&#45;&gt;Node3 -->
<g id="edge6_Node000006_Node000003" class="edge">
<title>Node6&#45;&gt;Node3</title>
<g id="a_edge6_Node000006_Node000003"><a xlink:title=" ">
<path fill="none" stroke="#63b8ff" d="M399.16,-121.94C386.1,-120.61 372.85,-119.26 360.34,-117.99"/>
<polygon fill="#63b8ff" stroke="#63b8ff" points="398.75,-125.42 409.05,-122.95 399.46,-118.46 398.75,-125.42"/>
</a>
</g>
</g>
<!-- Node7&#45;&gt;Node3 -->
<g id="edge8_Node000007_Node000003" class="edge">
<title>Node7&#45;&gt;Node3</title>
<g id="a_edge8_Node000007_Node000003"><a xlink:title=" ">
<path fill="none" stroke="#63b8ff" d="M387.6,-101.48C378.36,-102.43 369.15,-103.36 360.32,-104.26"/>
<polygon fill="#63b8ff" stroke="#63b8ff" points="387.78,-104.98 397.37,-100.49 387.07,-98.02 387.78,-104.98"/>
</a>
</g>
</g>
<!-- Node8&#45;&gt;Node3 -->
<g id="edge10_Node000008_Node000003" class="edge">
<title>Node8&#45;&gt;Node3</title>
<g id="a_edge10_Node000008_Node000003"><a xlink:title=" ">
<path fill="none" stroke="#63b8ff" d="M417.59,-65.28C410.26,-67.09 402.95,-69.04 396,-71.12 369.35,-79.1 339.85,-90.87 319.27,-99.58"/>
<polygon fill="#63b8ff" stroke="#63b8ff" points="418.3,-68.71 427.23,-62.99 416.69,-61.9 418.3,-68.71"/>
</a>
</g>
</g>
<!-- Node9&#45;&gt;Node3 -->
<g id="edge12_Node000009_Node000003" class="edge">
<title>Node9&#45;&gt;Node3</title>
<g id="a_edge12_Node000009_Node000003"><a xlink:title=" ">
<path fill="none" stroke="#63b8ff" d="M408.26,-26.1C404.05,-27.62 399.94,-29.29 396,-31.12 358.44,-48.62 321.94,-81.98 304.19,-99.59"/>
<polygon fill="#63b8ff" stroke="#63b8ff" points="409.02,-29.54 417.44,-23.1 406.84,-22.88 409.02,-29.54"/>
</a>
</g>
</g>
</g>
</svg>

<g id="navigator" transform="translate(0 0)" fill="#404254">
  <rect fill="#f2f5e9" fill-opacity="0.5" stroke="#606060" stroke-width=".5" x="0" y="0" width="60" height="60"/>
  <use id="zoomplus" xlink:href="#zoomPlus" x="17" y="9" onmousedown="handleZoom(evt,'in')"/>
  <use id="zoomminus" xlink:href="#zoomMin" x="42" y="9" onmousedown="handleZoom(evt,'out')"/>
  <use id="reset" xlink:href="#resetDef" x="30" y="36" onmousedown="handleReset()"/>
   <use id="arrowup" xlink:href="#arrowUp" x="0" y="0" onmousedown="handlePan(0,-1)"/>
  <use id="arrowright" xlink:href="#arrowRight" x="0" y="0" onmousedown="handlePan(1,0)"/>
  <use id="arrowdown" xlink:href="#arrowDown" x="0" y="0" onmousedown="handlePan(0,1)"/>
  <use id="arrowleft" xlink:href="#arrowLeft" x="0" y="0" onmousedown="handlePan(-1,0)"/>
</g>
<svg viewBox="0 0 15 15" width="100%" height="30px" preserveAspectRatio="xMaxYMin meet">
 <g id="arrow_out" transform="scale(0.3 0.3)">
  <a xlink:href="classmenu__handler_af3008a9c0396d06b3b772a31096d31ac_icgraph_org.svg" target="_base">
   <rect id="button" ry="5" rx="5" y="6" x="6" height="38" width="38"
        fill="#f2f5e9" fill-opacity="0.5" stroke="#606060" stroke-width="1.0"/>
   <path id="arrow"
     d="M 11.500037,31.436501 C 11.940474,20.09759 22.043105,11.32322 32.158766,21.979434 L 37.068811,17.246167 C 37.068811,17.246167 37.088388,32 37.088388,32 L 22.160133,31.978069 C 22.160133,31.978069 26.997745,27.140456 26.997745,27.140456 C 18.528582,18.264221 13.291696,25.230495 11.500037,31.436501 z"
     style="fill:#404040;"/>
  </a>
 </g>
</svg>

<style type='text/css'>
<![CDATA[
[data-mouse-over-selected='false'] { opacity: 0.7; }
[data-mouse-over-selected='true']  { opacity: 1.0; }
]]>
</style>
<script type="application/ecmascript"><![CDATA[
document.addEventListener('DOMContentLoaded', (event) => {
  highlightEdges();
  highlightAdjacentNodes();
});
]]></script>
</svg>
