<?xml version="1.0" encoding="UTF-8" standalone="no"?>
<!DOCTYPE svg PUBLIC "-//W3C//DTD SVG 1.1//EN"
 "http://www.w3.org/Graphics/SVG/1.1/DTD/svg11.dtd">
<!-- Generated by graphviz version 12.2.1 (20241206.2353)
 -->
<!-- Title: configuration.sdkconfig_c Pages: 1 -->
<svg width="152pt" height="103pt"
 viewBox="0.00 0.00 151.75 103.25" xmlns="http://www.w3.org/2000/svg" xmlns:xlink="http://www.w3.org/1999/xlink">

<svg id="main" version="1.1" xmlns="http://www.w3.org/2000/svg" xmlns:xlink="http://www.w3.org/1999/xlink" xml:space="preserve">

<style type="text/css"><![CDATA[
.node, .edge {opacity: 0.7;}
.node.selected, .edge.selected {opacity: 1;}
.edge:hover path { stroke: red; }
.edge:hover polygon { stroke: red; fill: red; }
]]></style>
<script type="application/ecmascript" xlink:href="svg.min.js"/>
<svg id="graph" class="graph">
<g id="graph0" class="graph" transform="scale(1 1) rotate(0) translate(4 99.25)">
<title>configuration.sdkconfig_c</title>
<!-- Node1 -->
<g id="Node000001" class="node">
<title>Node1</title>
<g id="a_Node000001"><a xlink:title=" ">
<polygon fill="#999999" stroke="none" points="143.75,-95.25 0,-95.25 0,0 143.75,0 143.75,-95.25"/>
<text text-anchor="start" x="4" y="-79.85" font-family="Arial" font-size="12.00">configuration.sdkconfig_c</text>
<text text-anchor="start" x="9.56" y="-61.6" font-family="Arial" font-size="12.00">+</text>
<text text-anchor="start" x="25.88" y="-61.6" font-family="Arial" font-size="12.00">config</text>
<text text-anchor="start" x="9.56" y="-43.35" font-family="Arial" font-size="12.00">+</text>
<text text-anchor="start" x="25.88" y="-43.35" font-family="Arial" font-size="12.00">__init__(self, path)</text>
<text text-anchor="start" x="9.56" y="-25.1" font-family="Arial" font-size="12.00">+</text>
<text text-anchor="start" x="25.88" y="-25.1" font-family="Arial" font-size="12.00">index(self, i)</text>
<text text-anchor="start" x="9.56" y="-6.85" font-family="Arial" font-size="12.00">+</text>
<text text-anchor="start" x="25.88" y="-6.85" font-family="Arial" font-size="12.00">check(self, options)</text>
<polygon fill="#666666" stroke="#666666" points="0,-75 0,-75 143.75,-75 143.75,-75 0,-75"/>
<polygon fill="#666666" stroke="#666666" points="0,-56.75 0,-56.75 23.88,-56.75 23.88,-56.75 0,-56.75"/>
<polygon fill="#666666" stroke="#666666" points="23.88,-56.75 23.88,-56.75 143.75,-56.75 143.75,-56.75 23.88,-56.75"/>
<polygon fill="none" stroke="#666666" points="0,0 0,-95.25 143.75,-95.25 143.75,0 0,0"/>
</a>
</g>
</g>
</g>
</svg>
</svg>

<style type='text/css'>
<![CDATA[
[data-mouse-over-selected='false'] { opacity: 0.7; }
[data-mouse-over-selected='true']  { opacity: 1.0; }
]]>
</style>
<script type="application/ecmascript"><![CDATA[
document.addEventListener('DOMContentLoaded', (event) => {
  highlightEdges();
  highlightAdjacentNodes();
});
]]></script>
</svg>
