<?xml version="1.0" encoding="UTF-8" standalone="no"?>
<!DOCTYPE svg PUBLIC "-//W3C//DTD SVG 1.1//EN"
 "http://www.w3.org/Graphics/SVG/1.1/DTD/svg11.dtd">
<!-- Generated by graphviz version 12.2.1 (20241206.2353)
 -->
<!-- Title: register_iperf Pages: 1 -->
<svg width="273pt" height="70pt"
 viewBox="0.00 0.00 273.25 70.25" xmlns="http://www.w3.org/2000/svg" xmlns:xlink="http://www.w3.org/1999/xlink">
<g id="graph0" class="graph" transform="scale(1 1) rotate(0) translate(4 66.25)">
<title>register_iperf</title>
<!-- Node1 -->
<g id="Node000001" class="node">
<title>Node1</title>
<g id="a_Node000001"><a xlink:title=" ">
<polygon fill="#999999" stroke="#666666" points="85.75,-42.25 0,-42.25 0,-20 85.75,-20 85.75,-42.25"/>
<text text-anchor="middle" x="42.88" y="-26.85" font-family="Arial" font-size="12.00">register_iperf</text>
</a>
</g>
</g>
<!-- Node2 -->
<g id="Node000002" class="node">
<title>Node2</title>
<g id="a_Node000002"><a xlink:href="cmd__iperf_8c.html#a59752ecd5d3a975453892e77911181f3" target="_top" xlink:title=" ">
<polygon fill="white" stroke="#666666" points="265.25,-62.25 121.75,-62.25 121.75,-40 265.25,-40 265.25,-62.25"/>
<text text-anchor="middle" x="193.5" y="-46.85" font-family="Arial" font-size="12.00">register_espnow_config</text>
</a>
</g>
</g>
<!-- Node1&#45;&gt;Node2 -->
<g id="edge1_Node000001_Node000002" class="edge">
<title>Node1&#45;&gt;Node2</title>
<g id="a_edge1_Node000001_Node000002"><a xlink:title=" ">
<path fill="none" stroke="#63b8ff" d="M86.07,-36.8C93.68,-37.83 101.85,-38.93 110.15,-40.04"/>
<polygon fill="#63b8ff" stroke="#63b8ff" points="109.64,-43.51 120.02,-41.37 110.57,-36.57 109.64,-43.51"/>
</a>
</g>
</g>
<!-- Node3 -->
<g id="Node000003" class="node">
<title>Node3</title>
<g id="a_Node000003"><a xlink:href="cmd__iperf_8c.html#a3e3a4b00f06201a66ee042ac3363f9de" target="_top" xlink:title=" ">
<polygon fill="white" stroke="#666666" points="260.75,-22.25 126.25,-22.25 126.25,0 260.75,0 260.75,-22.25"/>
<text text-anchor="middle" x="193.5" y="-6.85" font-family="Arial" font-size="12.00">register_espnow_iperf</text>
</a>
</g>
</g>
<!-- Node1&#45;&gt;Node3 -->
<g id="edge2_Node000001_Node000003" class="edge">
<title>Node1&#45;&gt;Node3</title>
<g id="a_edge2_Node000001_Node000003"><a xlink:title=" ">
<path fill="none" stroke="#63b8ff" d="M86.07,-25.45C95.11,-24.23 104.94,-22.91 114.84,-21.58"/>
<polygon fill="#63b8ff" stroke="#63b8ff" points="115.08,-25.08 124.52,-20.27 114.14,-18.14 115.08,-25.08"/>
</a>
</g>
</g>
</g>
</svg>
