<?xml version="1.0" encoding="UTF-8" standalone="no"?>
<!DOCTYPE svg PUBLIC "-//W3C//DTD SVG 1.1//EN"
 "http://www.w3.org/Graphics/SVG/1.1/DTD/svg11.dtd">
<!-- Generated by graphviz version 12.2.1 (20241206.2353)
 -->
<!-- Title: app_main Pages: 1 -->
<!--zoomable 170 -->

<svg id="main" version="1.1" xmlns="http://www.w3.org/2000/svg" xmlns:xlink="http://www.w3.org/1999/xlink" xml:space="preserve" onload="init(evt)">

<style type="text/css"><![CDATA[
.node, .edge {opacity: 0.7;}
.node.selected, .edge.selected {opacity: 1;}
.edge:hover path { stroke: red; }
.edge:hover polygon { stroke: red; fill: red; }
]]></style>

<defs>
  <circle id="rim" cx="0" cy="0" r="7"/>
  <circle id="rim2" cx="0" cy="0" r="3.5"/>
  <g id="zoomPlus">
    <use xlink:href="#rim" fill="#404040"><set attributeName="fill" to="#808080" begin="zoomplus.mouseover" end="zoomplus.mouseout"/></use>
    <path d="M-4,0h8M0,-4v8" fill="none" stroke="white" stroke-width="1.5" pointer-events="none"/>
  </g>
  <g id="zoomMin">
    <use xlink:href="#rim" fill="#404040"><set attributeName="fill" to="#808080" begin="zoomminus.mouseover" end="zoomminus.mouseout"/></use>
    <path d="M-4,0h8" fill="none" stroke="white" stroke-width="1.5" pointer-events="none"/>
  </g>
  <g id="arrowUp" transform="translate(30 24)">
    <use xlink:href="#rim"/>
    <path pointer-events="none" fill="none" stroke="white" stroke-width="1.5" d="M0,-3.0v7 M-2.5,-0.5L0,-3.0L2.5,-0.5"/>
  </g>
  <g id="arrowRight" transform="rotate(90) translate(36 -43)">
    <use xlink:href="#rim"/>
    <path pointer-events="none" fill="none" stroke="white" stroke-width="1.5" d="M0,-3.0v7 M-2.5,-0.5L0,-3.0L2.5,-0.5"/>
  </g>
  <g id="arrowDown" transform="rotate(180) translate(-30 -48)">
    <use xlink:href="#rim"/>
    <path pointer-events="none" fill="none" stroke="white" stroke-width="1.5" d="M0,-3.0v7 M-2.5,-0.5L0,-3.0L2.5,-0.5"/>
  </g>
  <g id="arrowLeft" transform="rotate(270) translate(-36 17)">
    <use xlink:href="#rim"/>
    <path pointer-events="none" fill="none" stroke="white" stroke-width="1.5" d="M0,-3.0v7 M-2.5,-0.5L0,-3.0L2.5,-0.5"/>
  </g>
  <g id="resetDef">
    <use xlink:href="#rim2" fill="#404040"><set attributeName="fill" to="#808080" begin="reset.mouseover" end="reset.mouseout"/></use>
  </g>
</defs>
<script type="application/ecmascript">
var viewWidth = 577;
var viewHeight = 170;
var sectionId = 'dynsection-0';
</script>
<script type="application/ecmascript" xlink:href="svg.min.js"/>
<svg id="graph" class="graph">
<g id="viewport">
<title>app_main</title>
<!-- Node1 -->
<g id="Node000001" class="node">
<title>Node1</title>
<g id="a_Node000001"><a xlink:title=" ">
<polygon fill="#999999" stroke="#666666" points="69.25,-82.25 0,-82.25 0,-60 69.25,-60 69.25,-82.25"/>
<text text-anchor="middle" x="34.62" y="-66.85" font-family="Arial" font-size="12.00">app_main</text>
</a>
</g>
</g>
<!-- Node2 -->
<g id="Node000002" class="node">
<title>Node2</title>
<g id="a_Node000002"><a xlink:href="coin__cell__demo_2bulb_2main_2app__main_8c.html#a573965c259aeab522fcdeaea791279e9" target="_top" xlink:title=" ">
<polygon fill="white" stroke="#666666" points="226.25,-122.25 111.25,-122.25 111.25,-100 226.25,-100 226.25,-122.25"/>
<text text-anchor="middle" x="168.75" y="-106.85" font-family="Arial" font-size="12.00">app_led_set_color</text>
</a>
</g>
</g>
<!-- Node1&#45;&gt;Node2 -->
<g id="edge1_Node000001_Node000002" class="edge">
<title>Node1&#45;&gt;Node2</title>
<g id="a_edge1_Node000001_Node000002"><a xlink:title=" ">
<path fill="none" stroke="#63b8ff" d="M69.65,-81.43C84.56,-85.94 102.34,-91.32 118.65,-96.26"/>
<polygon fill="#63b8ff" stroke="#63b8ff" points="117.61,-99.6 128.2,-99.15 119.64,-92.9 117.61,-99.6"/>
</a>
</g>
</g>
<!-- Node3 -->
<g id="Node000003" class="node">
<title>Node3</title>
<g id="a_Node000003"><a xlink:href="espnow_8c.html#a82456d56cc86371962135c5ff82fd954" target="_top" xlink:title="Initialize ESP&#45;NOW function.">
<polygon fill="white" stroke="#666666" points="209,-82.25 128.5,-82.25 128.5,-60 209,-60 209,-82.25"/>
<text text-anchor="middle" x="168.75" y="-66.85" font-family="Arial" font-size="12.00">espnow_init</text>
</a>
</g>
</g>
<!-- Node1&#45;&gt;Node3 -->
<g id="edge2_Node000001_Node000003" class="edge">
<title>Node1&#45;&gt;Node3</title>
<g id="a_edge2_Node000001_Node000003"><a xlink:title=" ">
<path fill="none" stroke="#63b8ff" d="M69.65,-71.12C84.05,-71.12 101.12,-71.12 116.96,-71.12"/>
<polygon fill="#63b8ff" stroke="#63b8ff" points="116.7,-74.63 126.7,-71.13 116.7,-67.63 116.7,-74.63"/>
</a>
</g>
</g>
<!-- Node12 -->
<g id="Node000012" class="node">
<title>Node12</title>
<g id="a_Node000012"><a xlink:href="espnow__storage_8c.html#afcdac79eafab05bba3191708b3d6c672" target="_top" xlink:title="Intialise ESP Storage.">
<polygon fill="white" stroke="#666666" points="232.25,-42.25 105.25,-42.25 105.25,-20 232.25,-20 232.25,-42.25"/>
<text text-anchor="middle" x="168.75" y="-26.85" font-family="Arial" font-size="12.00">espnow_storage_init</text>
</a>
</g>
</g>
<!-- Node1&#45;&gt;Node12 -->
<g id="edge11_Node000001_Node000012" class="edge">
<title>Node1&#45;&gt;Node12</title>
<g id="a_edge11_Node000001_Node000012"><a xlink:title=" ">
<path fill="none" stroke="#63b8ff" d="M69.65,-60.82C84.56,-56.31 102.34,-50.93 118.65,-45.99"/>
<polygon fill="#63b8ff" stroke="#63b8ff" points="119.64,-49.35 128.2,-43.1 117.61,-42.65 119.64,-49.35"/>
</a>
</g>
</g>
<!-- Node4 -->
<g id="Node000004" class="node">
<title>Node4</title>
<g id="a_Node000004"><a xlink:href="espnow_8c.html#ab9e96f875511fcc24184f7b863ff8747" target="_top" xlink:title="When used for unicast, add the target device.">
<polygon fill="white" stroke="#666666" points="384,-142.25 268.25,-142.25 268.25,-120 384,-120 384,-142.25"/>
<text text-anchor="middle" x="326.12" y="-126.85" font-family="Arial" font-size="12.00">espnow_add_peer</text>
</a>
</g>
</g>
<!-- Node3&#45;&gt;Node4 -->
<g id="edge3_Node000003_Node000004" class="edge">
<title>Node3&#45;&gt;Node4</title>
<g id="a_edge3_Node000003_Node000004"><a xlink:title=" ">
<path fill="none" stroke="#63b8ff" d="M209.2,-82.44C216.94,-85.03 224.93,-87.96 232.25,-91.12 249.05,-98.39 251.56,-103.62 268.25,-111.12 271.59,-112.63 275.08,-114.09 278.62,-115.5"/>
<polygon fill="#63b8ff" stroke="#63b8ff" points="277.26,-118.73 287.85,-119.01 279.75,-112.19 277.26,-118.73"/>
</a>
</g>
</g>
<!-- Node5 -->
<g id="Node000005" class="node">
<title>Node5</title>
<g id="a_Node000005"><a xlink:href="espnow_8c.html#ae2e7d37b72ff59a530a9447bea4aa106" target="_top" xlink:title=" ">
<polygon fill="white" stroke="#666666" points="379.5,-102.25 272.75,-102.25 272.75,-80 379.5,-80 379.5,-102.25"/>
<text text-anchor="middle" x="326.12" y="-86.85" font-family="Arial" font-size="12.00">espnow_recv_cb</text>
</a>
</g>
</g>
<!-- Node3&#45;&gt;Node5 -->
<g id="edge4_Node000003_Node000005" class="edge">
<title>Node3&#45;&gt;Node5</title>
<g id="a_edge4_Node000003_Node000005"><a xlink:title=" ">
<path fill="none" stroke="#63b8ff" d="M209.36,-76.22C225.07,-78.25 243.54,-80.62 261.05,-82.88"/>
<polygon fill="#63b8ff" stroke="#63b8ff" points="260.52,-86.34 270.89,-84.14 261.42,-79.4 260.52,-86.34"/>
</a>
</g>
</g>
<!-- Node10 -->
<g id="Node000010" class="node">
<title>Node10</title>
<g id="a_Node000010"><a xlink:href="espnow__security_8c.html#accbf76d2b120ee4e43003ad1472c2b05" target="_top" xlink:title="Initialize the specified security info.">
<polygon fill="white" stroke="#666666" points="379.12,-62.25 273.12,-62.25 273.12,-40 379.12,-40 379.12,-62.25"/>
<text text-anchor="middle" x="326.12" y="-46.85" font-family="Arial" font-size="12.00">espnow_sec_init</text>
</a>
</g>
</g>
<!-- Node3&#45;&gt;Node10 -->
<g id="edge9_Node000003_Node000010" class="edge">
<title>Node3&#45;&gt;Node10</title>
<g id="a_edge9_Node000003_Node000010"><a xlink:title=" ">
<path fill="none" stroke="#63b8ff" d="M209.36,-66.03C225.14,-63.99 243.71,-61.6 261.3,-59.34"/>
<polygon fill="#63b8ff" stroke="#63b8ff" points="261.71,-62.82 271.18,-58.07 260.81,-55.87 261.71,-62.82"/>
</a>
</g>
</g>
<!-- Node11 -->
<g id="Node000011" class="node">
<title>Node11</title>
<g id="a_Node000011"><a xlink:href="espnow_8c.html#ae3d39a3c355f8c0a8297f76a28f7eaee" target="_top" xlink:title=" ">
<polygon fill="white" stroke="#666666" points="381.38,-22.25 270.88,-22.25 270.88,0 381.38,0 381.38,-22.25"/>
<text text-anchor="middle" x="326.12" y="-6.85" font-family="Arial" font-size="12.00">espnow_send_cb</text>
</a>
</g>
</g>
<!-- Node3&#45;&gt;Node11 -->
<g id="edge10_Node000003_Node000011" class="edge">
<title>Node3&#45;&gt;Node11</title>
<g id="a_edge10_Node000003_Node000011"><a xlink:title=" ">
<path fill="none" stroke="#63b8ff" d="M209.2,-59.81C216.94,-57.22 224.93,-54.29 232.25,-51.12 249.05,-43.86 251.56,-38.63 268.25,-31.12 271.59,-29.62 275.08,-28.16 278.62,-26.75"/>
<polygon fill="#63b8ff" stroke="#63b8ff" points="279.75,-30.06 287.85,-23.24 277.26,-23.52 279.75,-30.06"/>
</a>
</g>
</g>
<!-- Node6 -->
<g id="Node000006" class="node">
<title>Node6</title>
<g id="a_Node000006"><a xlink:href="espnow_8h.html#af0be4b97c8dad6c432c969e960110c1e" target="_top" xlink:title="Set group ID addresses.">
<polygon fill="white" stroke="#666666" points="555.62,-162.25 433.12,-162.25 433.12,-140 555.62,-140 555.62,-162.25"/>
<text text-anchor="middle" x="494.38" y="-146.85" font-family="Arial" font-size="12.00">espnow_add_group</text>
</a>
</g>
</g>
<!-- Node5&#45;&gt;Node6 -->
<g id="edge5_Node000005_Node000006" class="edge">
<title>Node5&#45;&gt;Node6</title>
<g id="a_edge5_Node000005_Node000006"><a xlink:title=" ">
<path fill="none" stroke="#63b8ff" d="M362.99,-102.7C370.04,-105.26 377.32,-108.12 384,-111.12 400.69,-118.63 403.05,-124.22 420,-131.12 424.33,-132.89 428.87,-134.55 433.48,-136.1"/>
<polygon fill="#63b8ff" stroke="#63b8ff" points="432.25,-139.38 442.84,-139.05 434.36,-132.7 432.25,-139.38"/>
</a>
</g>
</g>
<!-- Node7 -->
<g id="Node000007" class="node">
<title>Node7</title>
<g id="a_Node000007"><a xlink:href="espnow__group_8c.html#a875855b479ddb660719afebdc90b8b4d" target="_top" xlink:title="Delete group ID addresses.">
<polygon fill="white" stroke="#666666" points="553.75,-122.25 435,-122.25 435,-100 553.75,-100 553.75,-122.25"/>
<text text-anchor="middle" x="494.38" y="-106.85" font-family="Arial" font-size="12.00">espnow_del_group</text>
</a>
</g>
</g>
<!-- Node5&#45;&gt;Node7 -->
<g id="edge6_Node000005_Node000007" class="edge">
<title>Node5&#45;&gt;Node7</title>
<g id="a_edge6_Node000005_Node000007"><a xlink:title=" ">
<path fill="none" stroke="#63b8ff" d="M379.73,-97.45C393.68,-99.13 408.96,-100.97 423.66,-102.74"/>
<polygon fill="#63b8ff" stroke="#63b8ff" points="422.91,-106.17 433.26,-103.89 423.75,-99.22 422.91,-106.17"/>
</a>
</g>
</g>
<!-- Node8 -->
<g id="Node000008" class="node">
<title>Node8</title>
<g id="a_Node000008"><a xlink:href="espnow__group_8c.html#aa7b993563fd6da0fb75573573733daa3" target="_top" xlink:title="Get the number of group ID addresses.">
<polygon fill="white" stroke="#666666" points="568.75,-82.25 420,-82.25 420,-60 568.75,-60 568.75,-82.25"/>
<text text-anchor="middle" x="494.38" y="-66.85" font-family="Arial" font-size="12.00">espnow_get_group_num</text>
</a>
</g>
</g>
<!-- Node5&#45;&gt;Node8 -->
<g id="edge7_Node000005_Node000008" class="edge">
<title>Node5&#45;&gt;Node8</title>
<g id="a_edge7_Node000005_Node000008"><a xlink:title=" ">
<path fill="none" stroke="#63b8ff" d="M379.73,-84.8C388.82,-83.7 398.48,-82.54 408.18,-81.37"/>
<polygon fill="#63b8ff" stroke="#63b8ff" points="408.53,-84.86 418.04,-80.19 407.7,-77.91 408.53,-84.86"/>
</a>
</g>
</g>
<!-- Node9 -->
<g id="Node000009" class="node">
<title>Node9</title>
<g id="a_Node000009"><a xlink:href="espnow__group_8c.html#af826ca7f397223b5075b39529f9ba115" target="_top" xlink:title="Check whether the specified group address is my group.">
<polygon fill="white" stroke="#666666" points="561.25,-42.25 427.5,-42.25 427.5,-20 561.25,-20 561.25,-42.25"/>
<text text-anchor="middle" x="494.38" y="-26.85" font-family="Arial" font-size="12.00">espnow_is_my_group</text>
</a>
</g>
</g>
<!-- Node5&#45;&gt;Node9 -->
<g id="edge8_Node000005_Node000009" class="edge">
<title>Node5&#45;&gt;Node9</title>
<g id="a_edge8_Node000005_Node000009"><a xlink:title=" ">
<path fill="none" stroke="#63b8ff" d="M362.99,-79.55C370.04,-76.99 377.32,-74.13 384,-71.12 400.69,-63.62 403.05,-58.03 420,-51.12 424.33,-49.36 428.87,-47.7 433.48,-46.15"/>
<polygon fill="#63b8ff" stroke="#63b8ff" points="434.36,-49.55 442.84,-43.2 432.25,-42.87 434.36,-49.55"/>
</a>
</g>
</g>
</g>
</svg>

<g id="navigator" transform="translate(0 0)" fill="#404254">
  <rect fill="#f2f5e9" fill-opacity="0.5" stroke="#606060" stroke-width=".5" x="0" y="0" width="60" height="60"/>
  <use id="zoomplus" xlink:href="#zoomPlus" x="17" y="9" onmousedown="handleZoom(evt,'in')"/>
  <use id="zoomminus" xlink:href="#zoomMin" x="42" y="9" onmousedown="handleZoom(evt,'out')"/>
  <use id="reset" xlink:href="#resetDef" x="30" y="36" onmousedown="handleReset()"/>
   <use id="arrowup" xlink:href="#arrowUp" x="0" y="0" onmousedown="handlePan(0,-1)"/>
  <use id="arrowright" xlink:href="#arrowRight" x="0" y="0" onmousedown="handlePan(1,0)"/>
  <use id="arrowdown" xlink:href="#arrowDown" x="0" y="0" onmousedown="handlePan(0,1)"/>
  <use id="arrowleft" xlink:href="#arrowLeft" x="0" y="0" onmousedown="handlePan(-1,0)"/>
</g>
<svg viewBox="0 0 15 15" width="100%" height="30px" preserveAspectRatio="xMaxYMin meet">
 <g id="arrow_out" transform="scale(0.3 0.3)">
  <a xlink:href="coin__cell__demo_2bulb_2main_2app__main_8c_a630544a7f0a2cc40d8a7fefab7e2fe70_cgraph_org.svg" target="_base">
   <rect id="button" ry="5" rx="5" y="6" x="6" height="38" width="38"
        fill="#f2f5e9" fill-opacity="0.5" stroke="#606060" stroke-width="1.0"/>
   <path id="arrow"
     d="M 11.500037,31.436501 C 11.940474,20.09759 22.043105,11.32322 32.158766,21.979434 L 37.068811,17.246167 C 37.068811,17.246167 37.088388,32 37.088388,32 L 22.160133,31.978069 C 22.160133,31.978069 26.997745,27.140456 26.997745,27.140456 C 18.528582,18.264221 13.291696,25.230495 11.500037,31.436501 z"
     style="fill:#404040;"/>
  </a>
 </g>
</svg>

<style type='text/css'>
<![CDATA[
[data-mouse-over-selected='false'] { opacity: 0.7; }
[data-mouse-over-selected='true']  { opacity: 1.0; }
]]>
</style>
<script type="application/ecmascript"><![CDATA[
document.addEventListener('DOMContentLoaded', (event) => {
  highlightEdges();
  highlightAdjacentNodes();
});
]]></script>
</svg>
