<?xml version="1.0" encoding="UTF-8" standalone="no"?>
<!DOCTYPE svg PUBLIC "-//W3C//DTD SVG 1.1//EN"
 "http://www.w3.org/Graphics/SVG/1.1/DTD/svg11.dtd">
<!-- Generated by graphviz version 12.2.1 (20241206.2353)
 -->
<!-- Title: app_main Pages: 1 -->
<svg width="577pt" height="170pt"
 viewBox="0.00 0.00 576.75 170.25" xmlns="http://www.w3.org/2000/svg" xmlns:xlink="http://www.w3.org/1999/xlink">
<g id="graph0" class="graph" transform="scale(1 1) rotate(0) translate(4 166.25)">
<title>app_main</title>
<!-- Node1 -->
<g id="Node000001" class="node">
<title>Node1</title>
<g id="a_Node000001"><a xlink:title=" ">
<polygon fill="#999999" stroke="#666666" points="69.25,-62.25 0,-62.25 0,-40 69.25,-40 69.25,-62.25"/>
<text text-anchor="middle" x="34.62" y="-46.85" font-family="Arial" font-size="12.00">app_main</text>
</a>
</g>
</g>
<!-- Node2 -->
<g id="Node000002" class="node">
<title>Node2</title>
<g id="a_Node000002"><a xlink:href="espnow_8c.html#a82456d56cc86371962135c5ff82fd954" target="_top" xlink:title="Initialize ESP&#45;NOW function.">
<polygon fill="white" stroke="#666666" points="209,-82.25 128.5,-82.25 128.5,-60 209,-60 209,-82.25"/>
<text text-anchor="middle" x="168.75" y="-66.85" font-family="Arial" font-size="12.00">espnow_init</text>
</a>
</g>
</g>
<!-- Node1&#45;&gt;Node2 -->
<g id="edge1_Node000001_Node000002" class="edge">
<title>Node1&#45;&gt;Node2</title>
<g id="a_edge1_Node000001_Node000002"><a xlink:title=" ">
<path fill="none" stroke="#63b8ff" d="M69.65,-56.28C84.05,-58.45 101.12,-61.04 116.96,-63.44"/>
<polygon fill="#63b8ff" stroke="#63b8ff" points="116.31,-66.88 126.72,-64.91 117.36,-59.96 116.31,-66.88"/>
</a>
</g>
</g>
<!-- Node11 -->
<g id="Node000011" class="node">
<title>Node11</title>
<g id="a_Node000011"><a xlink:href="espnow__storage_8c.html#afcdac79eafab05bba3191708b3d6c672" target="_top" xlink:title="Intialise ESP Storage.">
<polygon fill="white" stroke="#666666" points="232.25,-42.25 105.25,-42.25 105.25,-20 232.25,-20 232.25,-42.25"/>
<text text-anchor="middle" x="168.75" y="-26.85" font-family="Arial" font-size="12.00">espnow_storage_init</text>
</a>
</g>
</g>
<!-- Node1&#45;&gt;Node11 -->
<g id="edge10_Node000001_Node000011" class="edge">
<title>Node1&#45;&gt;Node11</title>
<g id="a_edge10_Node000001_Node000011"><a xlink:title=" ">
<path fill="none" stroke="#63b8ff" d="M69.65,-45.97C77.06,-44.85 85.18,-43.62 93.48,-42.37"/>
<polygon fill="#63b8ff" stroke="#63b8ff" points="93.99,-45.83 103.36,-40.87 92.95,-38.91 93.99,-45.83"/>
</a>
</g>
</g>
<!-- Node3 -->
<g id="Node000003" class="node">
<title>Node3</title>
<g id="a_Node000003"><a xlink:href="espnow_8c.html#ab9e96f875511fcc24184f7b863ff8747" target="_top" xlink:title="When used for unicast, add the target device.">
<polygon fill="white" stroke="#666666" points="384,-142.25 268.25,-142.25 268.25,-120 384,-120 384,-142.25"/>
<text text-anchor="middle" x="326.12" y="-126.85" font-family="Arial" font-size="12.00">espnow_add_peer</text>
</a>
</g>
</g>
<!-- Node2&#45;&gt;Node3 -->
<g id="edge2_Node000002_Node000003" class="edge">
<title>Node2&#45;&gt;Node3</title>
<g id="a_edge2_Node000002_Node000003"><a xlink:title=" ">
<path fill="none" stroke="#63b8ff" d="M197.21,-82.68C216.89,-90.87 244.08,-101.98 268.25,-111.12 272.32,-112.67 276.56,-114.23 280.82,-115.78"/>
<polygon fill="#63b8ff" stroke="#63b8ff" points="279.33,-118.96 289.92,-119.03 281.69,-112.37 279.33,-118.96"/>
</a>
</g>
</g>
<!-- Node4 -->
<g id="Node000004" class="node">
<title>Node4</title>
<g id="a_Node000004"><a xlink:href="espnow_8c.html#ae2e7d37b72ff59a530a9447bea4aa106" target="_top" xlink:title=" ">
<polygon fill="white" stroke="#666666" points="379.5,-102.25 272.75,-102.25 272.75,-80 379.5,-80 379.5,-102.25"/>
<text text-anchor="middle" x="326.12" y="-86.85" font-family="Arial" font-size="12.00">espnow_recv_cb</text>
</a>
</g>
</g>
<!-- Node2&#45;&gt;Node4 -->
<g id="edge3_Node000002_Node000004" class="edge">
<title>Node2&#45;&gt;Node4</title>
<g id="a_edge3_Node000002_Node000004"><a xlink:title=" ">
<path fill="none" stroke="#63b8ff" d="M209.36,-76.22C225.07,-78.25 243.54,-80.62 261.05,-82.88"/>
<polygon fill="#63b8ff" stroke="#63b8ff" points="260.52,-86.34 270.89,-84.14 261.42,-79.4 260.52,-86.34"/>
</a>
</g>
</g>
<!-- Node9 -->
<g id="Node000009" class="node">
<title>Node9</title>
<g id="a_Node000009"><a xlink:href="espnow__security_8c.html#accbf76d2b120ee4e43003ad1472c2b05" target="_top" xlink:title="Initialize the specified security info.">
<polygon fill="white" stroke="#666666" points="379.12,-62.25 273.12,-62.25 273.12,-40 379.12,-40 379.12,-62.25"/>
<text text-anchor="middle" x="326.12" y="-46.85" font-family="Arial" font-size="12.00">espnow_sec_init</text>
</a>
</g>
</g>
<!-- Node2&#45;&gt;Node9 -->
<g id="edge8_Node000002_Node000009" class="edge">
<title>Node2&#45;&gt;Node9</title>
<g id="a_edge8_Node000002_Node000009"><a xlink:title=" ">
<path fill="none" stroke="#63b8ff" d="M209.36,-66.03C225.14,-63.99 243.71,-61.6 261.3,-59.34"/>
<polygon fill="#63b8ff" stroke="#63b8ff" points="261.71,-62.82 271.18,-58.07 260.81,-55.87 261.71,-62.82"/>
</a>
</g>
</g>
<!-- Node10 -->
<g id="Node000010" class="node">
<title>Node10</title>
<g id="a_Node000010"><a xlink:href="espnow_8c.html#ae3d39a3c355f8c0a8297f76a28f7eaee" target="_top" xlink:title=" ">
<polygon fill="white" stroke="#666666" points="381.38,-22.25 270.88,-22.25 270.88,0 381.38,0 381.38,-22.25"/>
<text text-anchor="middle" x="326.12" y="-6.85" font-family="Arial" font-size="12.00">espnow_send_cb</text>
</a>
</g>
</g>
<!-- Node2&#45;&gt;Node10 -->
<g id="edge9_Node000002_Node000010" class="edge">
<title>Node2&#45;&gt;Node10</title>
<g id="a_edge9_Node000002_Node000010"><a xlink:title=" ">
<path fill="none" stroke="#63b8ff" d="M209.2,-59.81C216.94,-57.22 224.93,-54.29 232.25,-51.12 249.05,-43.86 251.56,-38.63 268.25,-31.12 271.59,-29.62 275.08,-28.16 278.62,-26.75"/>
<polygon fill="#63b8ff" stroke="#63b8ff" points="279.75,-30.06 287.85,-23.24 277.26,-23.52 279.75,-30.06"/>
</a>
</g>
</g>
<!-- Node5 -->
<g id="Node000005" class="node">
<title>Node5</title>
<g id="a_Node000005"><a xlink:href="espnow_8h.html#af0be4b97c8dad6c432c969e960110c1e" target="_top" xlink:title="Set group ID addresses.">
<polygon fill="white" stroke="#666666" points="555.62,-162.25 433.12,-162.25 433.12,-140 555.62,-140 555.62,-162.25"/>
<text text-anchor="middle" x="494.38" y="-146.85" font-family="Arial" font-size="12.00">espnow_add_group</text>
</a>
</g>
</g>
<!-- Node4&#45;&gt;Node5 -->
<g id="edge4_Node000004_Node000005" class="edge">
<title>Node4&#45;&gt;Node5</title>
<g id="a_edge4_Node000004_Node000005"><a xlink:title=" ">
<path fill="none" stroke="#63b8ff" d="M362.99,-102.7C370.04,-105.26 377.32,-108.12 384,-111.12 400.69,-118.63 403.05,-124.22 420,-131.12 424.33,-132.89 428.87,-134.55 433.48,-136.1"/>
<polygon fill="#63b8ff" stroke="#63b8ff" points="432.25,-139.38 442.84,-139.05 434.36,-132.7 432.25,-139.38"/>
</a>
</g>
</g>
<!-- Node6 -->
<g id="Node000006" class="node">
<title>Node6</title>
<g id="a_Node000006"><a xlink:href="espnow__group_8c.html#a875855b479ddb660719afebdc90b8b4d" target="_top" xlink:title="Delete group ID addresses.">
<polygon fill="white" stroke="#666666" points="553.75,-122.25 435,-122.25 435,-100 553.75,-100 553.75,-122.25"/>
<text text-anchor="middle" x="494.38" y="-106.85" font-family="Arial" font-size="12.00">espnow_del_group</text>
</a>
</g>
</g>
<!-- Node4&#45;&gt;Node6 -->
<g id="edge5_Node000004_Node000006" class="edge">
<title>Node4&#45;&gt;Node6</title>
<g id="a_edge5_Node000004_Node000006"><a xlink:title=" ">
<path fill="none" stroke="#63b8ff" d="M379.73,-97.45C393.68,-99.13 408.96,-100.97 423.66,-102.74"/>
<polygon fill="#63b8ff" stroke="#63b8ff" points="422.91,-106.17 433.26,-103.89 423.75,-99.22 422.91,-106.17"/>
</a>
</g>
</g>
<!-- Node7 -->
<g id="Node000007" class="node">
<title>Node7</title>
<g id="a_Node000007"><a xlink:href="espnow__group_8c.html#aa7b993563fd6da0fb75573573733daa3" target="_top" xlink:title="Get the number of group ID addresses.">
<polygon fill="white" stroke="#666666" points="568.75,-82.25 420,-82.25 420,-60 568.75,-60 568.75,-82.25"/>
<text text-anchor="middle" x="494.38" y="-66.85" font-family="Arial" font-size="12.00">espnow_get_group_num</text>
</a>
</g>
</g>
<!-- Node4&#45;&gt;Node7 -->
<g id="edge6_Node000004_Node000007" class="edge">
<title>Node4&#45;&gt;Node7</title>
<g id="a_edge6_Node000004_Node000007"><a xlink:title=" ">
<path fill="none" stroke="#63b8ff" d="M379.73,-84.8C388.82,-83.7 398.48,-82.54 408.18,-81.37"/>
<polygon fill="#63b8ff" stroke="#63b8ff" points="408.53,-84.86 418.04,-80.19 407.7,-77.91 408.53,-84.86"/>
</a>
</g>
</g>
<!-- Node8 -->
<g id="Node000008" class="node">
<title>Node8</title>
<g id="a_Node000008"><a xlink:href="espnow__group_8c.html#af826ca7f397223b5075b39529f9ba115" target="_top" xlink:title="Check whether the specified group address is my group.">
<polygon fill="white" stroke="#666666" points="561.25,-42.25 427.5,-42.25 427.5,-20 561.25,-20 561.25,-42.25"/>
<text text-anchor="middle" x="494.38" y="-26.85" font-family="Arial" font-size="12.00">espnow_is_my_group</text>
</a>
</g>
</g>
<!-- Node4&#45;&gt;Node8 -->
<g id="edge7_Node000004_Node000008" class="edge">
<title>Node4&#45;&gt;Node8</title>
<g id="a_edge7_Node000004_Node000008"><a xlink:title=" ">
<path fill="none" stroke="#63b8ff" d="M362.99,-79.55C370.04,-76.99 377.32,-74.13 384,-71.12 400.69,-63.62 403.05,-58.03 420,-51.12 424.33,-49.36 428.87,-47.7 433.48,-46.15"/>
<polygon fill="#63b8ff" stroke="#63b8ff" points="434.36,-49.55 442.84,-43.2 432.25,-42.87 434.36,-49.55"/>
</a>
</g>
</g>
</g>
</svg>
