<?xml version="1.0" encoding="UTF-8" standalone="no"?>
<!DOCTYPE svg PUBLIC "-//W3C//DTD SVG 1.1//EN"
 "http://www.w3.org/Graphics/SVG/1.1/DTD/svg11.dtd">
<!-- Generated by graphviz version 12.2.1 (20241206.2353)
 -->
<!-- Title: main/tasks/display_task.cpp Pages: 1 -->
<!--zoomable 438 -->

<svg id="main" version="1.1" xmlns="http://www.w3.org/2000/svg" xmlns:xlink="http://www.w3.org/1999/xlink" xml:space="preserve" onload="init(evt)">

<style type="text/css"><![CDATA[
.node, .edge {opacity: 0.7;}
.node.selected, .edge.selected {opacity: 1;}
.edge:hover path { stroke: red; }
.edge:hover polygon { stroke: red; fill: red; }
]]></style>

<defs>
  <circle id="rim" cx="0" cy="0" r="7"/>
  <circle id="rim2" cx="0" cy="0" r="3.5"/>
  <g id="zoomPlus">
    <use xlink:href="#rim" fill="#404040"><set attributeName="fill" to="#808080" begin="zoomplus.mouseover" end="zoomplus.mouseout"/></use>
    <path d="M-4,0h8M0,-4v8" fill="none" stroke="white" stroke-width="1.5" pointer-events="none"/>
  </g>
  <g id="zoomMin">
    <use xlink:href="#rim" fill="#404040"><set attributeName="fill" to="#808080" begin="zoomminus.mouseover" end="zoomminus.mouseout"/></use>
    <path d="M-4,0h8" fill="none" stroke="white" stroke-width="1.5" pointer-events="none"/>
  </g>
  <g id="arrowUp" transform="translate(30 24)">
    <use xlink:href="#rim"/>
    <path pointer-events="none" fill="none" stroke="white" stroke-width="1.5" d="M0,-3.0v7 M-2.5,-0.5L0,-3.0L2.5,-0.5"/>
  </g>
  <g id="arrowRight" transform="rotate(90) translate(36 -43)">
    <use xlink:href="#rim"/>
    <path pointer-events="none" fill="none" stroke="white" stroke-width="1.5" d="M0,-3.0v7 M-2.5,-0.5L0,-3.0L2.5,-0.5"/>
  </g>
  <g id="arrowDown" transform="rotate(180) translate(-30 -48)">
    <use xlink:href="#rim"/>
    <path pointer-events="none" fill="none" stroke="white" stroke-width="1.5" d="M0,-3.0v7 M-2.5,-0.5L0,-3.0L2.5,-0.5"/>
  </g>
  <g id="arrowLeft" transform="rotate(270) translate(-36 17)">
    <use xlink:href="#rim"/>
    <path pointer-events="none" fill="none" stroke="white" stroke-width="1.5" d="M0,-3.0v7 M-2.5,-0.5L0,-3.0L2.5,-0.5"/>
  </g>
  <g id="resetDef">
    <use xlink:href="#rim2" fill="#404040"><set attributeName="fill" to="#808080" begin="reset.mouseover" end="reset.mouseout"/></use>
  </g>
</defs>
<script type="application/ecmascript">
var viewWidth = 2548;
var viewHeight = 438;
var sectionId = 'dynsection-0';
</script>
<script type="application/ecmascript" xlink:href="svg.min.js"/>
<svg id="graph" class="graph">
<g id="viewport">
<title>main/tasks/display_task.cpp</title>
<!-- Node1 -->
<g id="Node000001" class="node">
<title>Node1</title>
<g id="a_Node000001"><a xlink:title="This is the file that contains the display task.">
<polygon fill="#999999" stroke="#666666" points="1612.25,-430 1447,-430 1447,-407.75 1612.25,-407.75 1612.25,-430"/>
<text text-anchor="middle" x="1529.62" y="-414.6" font-family="Arial" font-size="12.00">main/tasks/display_task.cpp</text>
</a>
</g>
</g>
<!-- Node2 -->
<g id="Node000002" class="node">
<title>Node2</title>
<g id="a_Node000002"><a xlink:href="display__task_8h.html" target="_top" xlink:title="This is the file that contains the display task.">
<polygon fill="white" stroke="#666666" points="1621.25,-371.75 1438,-371.75 1438,-349.5 1621.25,-349.5 1621.25,-371.75"/>
<text text-anchor="middle" x="1529.62" y="-356.35" font-family="Arial" font-size="12.00">../../include/tasks/display_task.h</text>
</a>
</g>
</g>
<!-- Node1&#45;&gt;Node2 -->
<g id="edge1_Node000001_Node000002" class="edge">
<title>Node1&#45;&gt;Node2</title>
<g id="a_edge1_Node000001_Node000002"><a xlink:title=" ">
<path fill="none" stroke="#63b8ff" d="M1529.62,-407.29C1529.62,-400.62 1529.62,-391.74 1529.62,-383.59"/>
<polygon fill="#63b8ff" stroke="#63b8ff" points="1533.13,-383.67 1529.63,-373.67 1526.13,-383.67 1533.13,-383.67"/>
</a>
</g>
</g>
<!-- Node3 -->
<g id="Node000003" class="node">
<title>Node3</title>
<g id="a_Node000003"><a xlink:href="all__includes_8h.html" target="_top" xlink:title="Contains the system wide includes for esp&#45;idf and c++, along with structs and enums.">
<polygon fill="white" stroke="#666666" points="1384.25,-80.5 1285,-80.5 1285,-58.25 1384.25,-58.25 1384.25,-80.5"/>
<text text-anchor="middle" x="1334.62" y="-65.1" font-family="Arial" font-size="12.00">../all_includes.h</text>
</a>
</g>
</g>
<!-- Node2&#45;&gt;Node3 -->
<g id="edge2_Node000002_Node000003" class="edge">
<title>Node2&#45;&gt;Node3</title>
<g id="a_edge2_Node000002_Node000003"><a xlink:title=" ">
<path fill="none" stroke="#63b8ff" d="M1437.68,-356.42C1361.15,-348.23 1264.62,-322.56 1264.62,-245.12 1264.62,-245.12 1264.62,-245.12 1264.62,-184.88 1264.62,-146.34 1293.84,-109.81 1314.52,-88.78"/>
<polygon fill="#63b8ff" stroke="#63b8ff" points="1316.95,-91.29 1321.67,-81.81 1312.06,-86.28 1316.95,-91.29"/>
</a>
</g>
</g>
<!-- Node30 -->
<g id="Node000030" class="node">
<title>Node30</title>
<g id="a_Node000030"><a xlink:href="ssd1306_8h.html" target="_top" xlink:title="Contains the code for ssd1306 display, setting it up, and writing text to it.">
<polygon fill="white" stroke="#666666" points="1667.38,-197 1547.88,-197 1547.88,-174.75 1667.38,-174.75 1667.38,-197"/>
<text text-anchor="middle" x="1607.62" y="-181.6" font-family="Arial" font-size="12.00">../drivers/ssd1306.h</text>
</a>
</g>
</g>
<!-- Node2&#45;&gt;Node30 -->
<g id="edge29_Node000002_Node000030" class="edge">
<title>Node2&#45;&gt;Node30</title>
<g id="a_edge29_Node000002_Node000030"><a xlink:title=" ">
<path fill="none" stroke="#63b8ff" d="M1531.22,-349.2C1534.97,-326.79 1545.72,-272.82 1567.62,-233 1573.12,-223.01 1581.06,-213.28 1588.41,-205.35"/>
<polygon fill="#63b8ff" stroke="#63b8ff" points="1590.78,-207.93 1595.26,-198.32 1585.77,-203.04 1590.78,-207.93"/>
</a>
</g>
</g>
<!-- Node31 -->
<g id="Node000031" class="node">
<title>Node31</title>
<g id="a_Node000031"><a xlink:href="pinout_8h.html" target="_top" xlink:title="This is the file that contains the pinout and other configuration information.">
<polygon fill="white" stroke="#666666" points="1791.5,-138.75 1723.75,-138.75 1723.75,-116.5 1791.5,-116.5 1791.5,-138.75"/>
<text text-anchor="middle" x="1757.62" y="-123.35" font-family="Arial" font-size="12.00">../pinout.h</text>
</a>
</g>
</g>
<!-- Node2&#45;&gt;Node31 -->
<g id="edge34_Node000002_Node000031" class="edge">
<title>Node2&#45;&gt;Node31</title>
<g id="a_edge34_Node000002_Node000031"><a xlink:title=" ">
<path fill="none" stroke="#63b8ff" d="M1549.21,-349.11C1589.47,-326.54 1682.08,-269.56 1733.62,-197 1743.54,-183.04 1749.7,-164.59 1753.29,-150.38"/>
<polygon fill="#63b8ff" stroke="#63b8ff" points="1756.69,-151.2 1755.48,-140.67 1749.87,-149.65 1756.69,-151.2"/>
</a>
</g>
</g>
<!-- Node33 -->
<g id="Node000033" class="node">
<title>Node33</title>
<g id="a_Node000033"><a xlink:href="changeable__values_8h.html" target="_top" xlink:title="Contains the information for the changeable values class, this class allows a value to be modifed by ...">
<polygon fill="white" stroke="#666666" points="1530.12,-197 1331.12,-197 1331.12,-174.75 1530.12,-174.75 1530.12,-197"/>
<text text-anchor="middle" x="1430.62" y="-181.6" font-family="Arial" font-size="12.00">../supporting/changeable_values.h</text>
</a>
</g>
</g>
<!-- Node2&#45;&gt;Node33 -->
<g id="edge35_Node000002_Node000033" class="edge">
<title>Node2&#45;&gt;Node33</title>
<g id="a_edge35_Node000002_Node000033"><a xlink:title=" ">
<path fill="none" stroke="#63b8ff" d="M1524.03,-349.39C1516.68,-335.99 1503.33,-311.78 1491.62,-291.25 1474.9,-261.9 1455.09,-228.2 1442.69,-207.22"/>
<polygon fill="#63b8ff" stroke="#63b8ff" points="1445.81,-205.62 1437.71,-198.8 1439.79,-209.19 1445.81,-205.62"/>
</a>
</g>
</g>
<!-- Node34 -->
<g id="Node000034" class="node">
<title>Node34</title>
<g id="a_Node000034"><a xlink:href="menu__handler_8h.html" target="_top" xlink:title="This is the file that contains the class for switching between menus.">
<polygon fill="white" stroke="#666666" points="1482.88,-313.5 1312.38,-313.5 1312.38,-291.25 1482.88,-291.25 1482.88,-313.5"/>
<text text-anchor="middle" x="1397.62" y="-298.1" font-family="Arial" font-size="12.00">../supporting/menu_handler.h</text>
</a>
</g>
</g>
<!-- Node2&#45;&gt;Node34 -->
<g id="edge37_Node000002_Node000034" class="edge">
<title>Node2&#45;&gt;Node34</title>
<g id="a_edge37_Node000002_Node000034"><a xlink:title=" ">
<path fill="none" stroke="#63b8ff" d="M1504.8,-349.04C1484.52,-340.4 1455.6,-328.08 1432.91,-318.41"/>
<polygon fill="#63b8ff" stroke="#63b8ff" points="1434.31,-315.2 1423.73,-314.5 1431.56,-321.64 1434.31,-315.2"/>
</a>
</g>
</g>
<!-- Node36 -->
<g id="Node000036" class="node">
<title>Node36</title>
<g id="a_Node000036"><a xlink:href="menus_8h.html" target="_top" xlink:title="This is the file that contains the class for menus.">
<polygon fill="white" stroke="#666666" points="1638.5,-255.25 1576.75,-255.25 1576.75,-233 1638.5,-233 1638.5,-255.25"/>
<text text-anchor="middle" x="1607.62" y="-239.85" font-family="Arial" font-size="12.00">menus.h</text>
</a>
</g>
</g>
<!-- Node2&#45;&gt;Node36 -->
<g id="edge45_Node000002_Node000036" class="edge">
<title>Node2&#45;&gt;Node36</title>
<g id="a_edge45_Node000002_Node000036"><a xlink:title=" ">
<path fill="none" stroke="#63b8ff" d="M1537.35,-349.08C1544.11,-339.79 1554.16,-325.84 1562.62,-313.5 1573.78,-297.25 1586.05,-278.55 1594.96,-264.81"/>
<polygon fill="#63b8ff" stroke="#63b8ff" points="1597.73,-266.97 1600.22,-256.67 1591.85,-263.17 1597.73,-266.97"/>
</a>
</g>
</g>
<!-- Node4 -->
<g id="Node000004" class="node">
<title>Node4</title>
<g id="a_Node000004"><a xlink:title=" ">
<polygon fill="#e0e0e0" stroke="#999999" points="2394.25,-22.25 2343,-22.25 2343,0 2394.25,0 2394.25,-22.25"/>
<text text-anchor="middle" x="2368.62" y="-6.85" font-family="Arial" font-size="12.00">atomic</text>
</a>
</g>
</g>
<!-- Node3&#45;&gt;Node4 -->
<g id="edge3_Node000003_Node000004" class="edge">
<title>Node3&#45;&gt;Node4</title>
<g id="a_edge3_Node000003_Node000004"><a xlink:title=" ">
<path fill="none" stroke="#63b8ff" d="M1384.67,-66.76C1567.99,-60.73 2198.58,-39.18 2331.51,-21.98"/>
<polygon fill="#63b8ff" stroke="#63b8ff" points="2331.9,-25.46 2341.29,-20.55 2330.89,-18.54 2331.9,-25.46"/>
</a>
</g>
</g>
<!-- Node5 -->
<g id="Node000005" class="node">
<title>Node5</title>
<g id="a_Node000005"><a xlink:title=" ">
<polygon fill="#e0e0e0" stroke="#999999" points="2477,-22.25 2412.25,-22.25 2412.25,0 2477,0 2477,-22.25"/>
<text text-anchor="middle" x="2444.62" y="-6.85" font-family="Arial" font-size="12.00">stdbool.h</text>
</a>
</g>
</g>
<!-- Node3&#45;&gt;Node5 -->
<g id="edge4_Node000003_Node000005" class="edge">
<title>Node3&#45;&gt;Node5</title>
<g id="a_edge4_Node000003_Node000005"><a xlink:title=" ">
<path fill="none" stroke="#63b8ff" d="M1384.75,-66.8C1576.64,-60.69 2260.53,-38.18 2400.87,-22.21"/>
<polygon fill="#63b8ff" stroke="#63b8ff" points="2401.09,-25.71 2410.57,-20.98 2400.2,-18.77 2401.09,-25.71"/>
</a>
</g>
</g>
<!-- Node6 -->
<g id="Node000006" class="node">
<title>Node6</title>
<g id="a_Node000006"><a xlink:title=" ">
<polygon fill="#e0e0e0" stroke="#999999" points="51.25,-22.25 0,-22.25 0,0 51.25,0 51.25,-22.25"/>
<text text-anchor="middle" x="25.62" y="-6.85" font-family="Arial" font-size="12.00">stdio.h</text>
</a>
</g>
</g>
<!-- Node3&#45;&gt;Node6 -->
<g id="edge5_Node000003_Node000006" class="edge">
<title>Node3&#45;&gt;Node6</title>
<g id="a_edge5_Node000003_Node000006"><a xlink:title=" ">
<path fill="none" stroke="#63b8ff" d="M1284.59,-68.25C1082.38,-67.51 324.35,-62.17 62.79,-22.35"/>
<polygon fill="#63b8ff" stroke="#63b8ff" points="63.38,-18.9 52.95,-20.79 62.28,-25.81 63.38,-18.9"/>
</a>
</g>
</g>
<!-- Node7 -->
<g id="Node000007" class="node">
<title>Node7</title>
<g id="a_Node000007"><a xlink:title=" ">
<polygon fill="#e0e0e0" stroke="#999999" points="124.12,-22.25 69.12,-22.25 69.12,0 124.12,0 124.12,-22.25"/>
<text text-anchor="middle" x="96.62" y="-6.85" font-family="Arial" font-size="12.00">string.h</text>
</a>
</g>
</g>
<!-- Node3&#45;&gt;Node7 -->
<g id="edge6_Node000003_Node000007" class="edge">
<title>Node3&#45;&gt;Node7</title>
<g id="a_edge6_Node000003_Node000007"><a xlink:title=" ">
<path fill="none" stroke="#63b8ff" d="M1284.81,-68.03C1090.44,-66.43 381.96,-58.33 135.43,-22.31"/>
<polygon fill="#63b8ff" stroke="#63b8ff" points="136.3,-18.91 125.89,-20.86 135.24,-25.83 136.3,-18.91"/>
</a>
</g>
</g>
<!-- Node8 -->
<g id="Node000008" class="node">
<title>Node8</title>
<g id="a_Node000008"><a xlink:title=" ">
<polygon fill="#e0e0e0" stroke="#999999" points="2540.25,-22.25 2495,-22.25 2495,0 2540.25,0 2540.25,-22.25"/>
<text text-anchor="middle" x="2517.62" y="-6.85" font-family="Arial" font-size="12.00">string</text>
</a>
</g>
</g>
<!-- Node3&#45;&gt;Node8 -->
<g id="edge7_Node000003_Node000008" class="edge">
<title>Node3&#45;&gt;Node8</title>
<g id="a_edge7_Node000003_Node000008"><a xlink:title=" ">
<path fill="none" stroke="#63b8ff" d="M1384.69,-66.74C1590.44,-59.98 2365.13,-34.05 2483.45,-21.65"/>
<polygon fill="#63b8ff" stroke="#63b8ff" points="2483.77,-25.14 2493.23,-20.37 2482.86,-18.2 2483.77,-25.14"/>
</a>
</g>
</g>
<!-- Node9 -->
<g id="Node000009" class="node">
<title>Node9</title>
<g id="a_Node000009"><a xlink:title=" ">
<polygon fill="#e0e0e0" stroke="#999999" points="267.38,-22.25 141.88,-22.25 141.88,0 267.38,0 267.38,-22.25"/>
<text text-anchor="middle" x="204.62" y="-6.85" font-family="Arial" font-size="12.00">freertos/FreeRTOS.h</text>
</a>
</g>
</g>
<!-- Node3&#45;&gt;Node9 -->
<g id="edge8_Node000003_Node000009" class="edge">
<title>Node3&#45;&gt;Node9</title>
<g id="a_edge8_Node000003_Node000009"><a xlink:title=" ">
<path fill="none" stroke="#63b8ff" d="M1284.61,-67.94C1134.08,-66.25 671.86,-58.37 279,-22.49"/>
<polygon fill="#63b8ff" stroke="#63b8ff" points="279.47,-19.02 269.2,-21.58 278.83,-25.99 279.47,-19.02"/>
</a>
</g>
</g>
<!-- Node10 -->
<g id="Node000010" class="node">
<title>Node10</title>
<g id="a_Node000010"><a xlink:title=" ">
<polygon fill="#e0e0e0" stroke="#999999" points="426.25,-22.25 285,-22.25 285,0 426.25,0 426.25,-22.25"/>
<text text-anchor="middle" x="355.62" y="-6.85" font-family="Arial" font-size="12.00">freertos/event_groups.h</text>
</a>
</g>
</g>
<!-- Node3&#45;&gt;Node10 -->
<g id="edge9_Node000003_Node000010" class="edge">
<title>Node3&#45;&gt;Node10</title>
<g id="a_edge9_Node000003_Node000010"><a xlink:title=" ">
<path fill="none" stroke="#63b8ff" d="M1284.83,-67.12C1150.18,-63.46 767.37,-51.22 437.9,-22.39"/>
<polygon fill="#63b8ff" stroke="#63b8ff" points="438.47,-18.92 428.2,-21.53 437.86,-25.9 438.47,-18.92"/>
</a>
</g>
</g>
<!-- Node11 -->
<g id="Node000011" class="node">
<title>Node11</title>
<g id="a_Node000011"><a xlink:title=" ">
<polygon fill="#e0e0e0" stroke="#999999" points="546.75,-22.25 444.5,-22.25 444.5,0 546.75,0 546.75,-22.25"/>
<text text-anchor="middle" x="495.62" y="-6.85" font-family="Arial" font-size="12.00">freertos/queue.h</text>
</a>
</g>
</g>
<!-- Node3&#45;&gt;Node11 -->
<g id="edge10_Node000003_Node000011" class="edge">
<title>Node3&#45;&gt;Node11</title>
<g id="a_edge10_Node000003_Node000011"><a xlink:title=" ">
<path fill="none" stroke="#63b8ff" d="M1284.79,-67.29C1162.68,-64.23 838.6,-53.7 558.18,-22.43"/>
<polygon fill="#63b8ff" stroke="#63b8ff" points="558.79,-18.97 548.46,-21.33 558.01,-25.93 558.79,-18.97"/>
</a>
</g>
</g>
<!-- Node12 -->
<g id="Node000012" class="node">
<title>Node12</title>
<g id="a_Node000012"><a xlink:title=" ">
<polygon fill="#e0e0e0" stroke="#999999" points="654.75,-22.25 564.5,-22.25 564.5,0 654.75,0 654.75,-22.25"/>
<text text-anchor="middle" x="609.62" y="-6.85" font-family="Arial" font-size="12.00">freertos/task.h</text>
</a>
</g>
</g>
<!-- Node3&#45;&gt;Node12 -->
<g id="edge11_Node000003_Node000012" class="edge">
<title>Node3&#45;&gt;Node12</title>
<g id="a_edge11_Node000003_Node000012"><a xlink:title=" ">
<path fill="none" stroke="#63b8ff" d="M1284.77,-66.94C1174.87,-63.34 903.36,-52.11 666.48,-22.49"/>
<polygon fill="#63b8ff" stroke="#63b8ff" points="667.09,-19.04 656.73,-21.25 666.21,-25.98 667.09,-19.04"/>
</a>
</g>
</g>
<!-- Node13 -->
<g id="Node000013" class="node">
<title>Node13</title>
<g id="a_Node000013"><a xlink:title=" ">
<polygon fill="#e0e0e0" stroke="#999999" points="726.38,-22.25 672.88,-22.25 672.88,0 726.38,0 726.38,-22.25"/>
<text text-anchor="middle" x="699.62" y="-6.85" font-family="Arial" font-size="12.00">errno.h</text>
</a>
</g>
</g>
<!-- Node3&#45;&gt;Node13 -->
<g id="edge12_Node000003_Node000013" class="edge">
<title>Node3&#45;&gt;Node13</title>
<g id="a_edge12_Node000003_Node000013"><a xlink:title=" ">
<path fill="none" stroke="#63b8ff" d="M1284.51,-67.84C1182.92,-66.05 945.46,-58.23 737.74,-22.29"/>
<polygon fill="#63b8ff" stroke="#63b8ff" points="738.57,-18.88 728.11,-20.6 737.35,-25.78 738.57,-18.88"/>
</a>
</g>
</g>
<!-- Node14 -->
<g id="Node000014" class="node">
<title>Node14</title>
<g id="a_Node000014"><a xlink:title=" ">
<polygon fill="#e0e0e0" stroke="#999999" points="810.38,-22.25 744.88,-22.25 744.88,0 810.38,0 810.38,-22.25"/>
<text text-anchor="middle" x="777.62" y="-6.85" font-family="Arial" font-size="12.00">esp_err.h</text>
</a>
</g>
</g>
<!-- Node3&#45;&gt;Node14 -->
<g id="edge13_Node000003_Node000014" class="edge">
<title>Node3&#45;&gt;Node14</title>
<g id="a_edge13_Node000003_Node000014"><a xlink:title=" ">
<path fill="none" stroke="#63b8ff" d="M1284.6,-66.34C1194.16,-62.14 997.3,-50.56 821.81,-22.38"/>
<polygon fill="#63b8ff" stroke="#63b8ff" points="822.47,-18.94 812.04,-20.79 821.35,-25.85 822.47,-18.94"/>
</a>
</g>
</g>
<!-- Node15 -->
<g id="Node000015" class="node">
<title>Node15</title>
<g id="a_Node000015"><a xlink:title=" ">
<polygon fill="#e0e0e0" stroke="#999999" points="896.88,-22.25 828.38,-22.25 828.38,0 896.88,0 896.88,-22.25"/>
<text text-anchor="middle" x="862.62" y="-6.85" font-family="Arial" font-size="12.00">esp_log.h</text>
</a>
</g>
</g>
<!-- Node3&#45;&gt;Node15 -->
<g id="edge14_Node000003_Node000015" class="edge">
<title>Node3&#45;&gt;Node15</title>
<g id="a_edge14_Node000003_Node000015"><a xlink:title=" ">
<path fill="none" stroke="#63b8ff" d="M1284.61,-64.92C1206.48,-59.11 1050.59,-45.81 908.23,-22.33"/>
<polygon fill="#63b8ff" stroke="#63b8ff" points="909.07,-18.92 898.63,-20.72 907.91,-25.83 909.07,-18.92"/>
</a>
</g>
</g>
<!-- Node16 -->
<g id="Node000016" class="node">
<title>Node16</title>
<g id="a_Node000016"><a xlink:title=" ">
<polygon fill="#e0e0e0" stroke="#999999" points="989.88,-22.25 915.38,-22.25 915.38,0 989.88,0 989.88,-22.25"/>
<text text-anchor="middle" x="952.62" y="-6.85" font-family="Arial" font-size="12.00">esp_mac.h</text>
</a>
</g>
</g>
<!-- Node3&#45;&gt;Node16 -->
<g id="edge15_Node000003_Node000016" class="edge">
<title>Node3&#45;&gt;Node16</title>
<g id="a_edge15_Node000003_Node000016"><a xlink:title=" ">
<path fill="none" stroke="#63b8ff" d="M1284.62,-62.78C1221.05,-55.39 1107.71,-41.28 1001.48,-22.65"/>
<polygon fill="#63b8ff" stroke="#63b8ff" points="1002.18,-19.22 991.72,-20.92 1000.96,-26.12 1002.18,-19.22"/>
</a>
</g>
</g>
<!-- Node17 -->
<g id="Node000017" class="node">
<title>Node17</title>
<g id="a_Node000017"><a xlink:title=" ">
<polygon fill="#e0e0e0" stroke="#999999" points="1097.38,-22.25 1007.88,-22.25 1007.88,0 1097.38,0 1097.38,-22.25"/>
<text text-anchor="middle" x="1052.62" y="-6.85" font-family="Arial" font-size="12.00">esp_system.h</text>
</a>
</g>
</g>
<!-- Node3&#45;&gt;Node17 -->
<g id="edge16_Node000003_Node000017" class="edge">
<title>Node3&#45;&gt;Node17</title>
<g id="a_edge16_Node000003_Node000017"><a xlink:title=" ">
<path fill="none" stroke="#63b8ff" d="M1284.53,-58.38C1235.24,-48.55 1160.11,-33.56 1108.81,-23.33"/>
<polygon fill="#63b8ff" stroke="#63b8ff" points="1109.58,-19.92 1099.08,-21.39 1108.21,-26.78 1109.58,-19.92"/>
</a>
</g>
</g>
<!-- Node18 -->
<g id="Node000018" class="node">
<title>Node18</title>
<g id="a_Node000018"><a xlink:title=" ">
<polygon fill="#e0e0e0" stroke="#999999" points="1193.38,-22.25 1115.88,-22.25 1115.88,0 1193.38,0 1193.38,-22.25"/>
<text text-anchor="middle" x="1154.62" y="-6.85" font-family="Arial" font-size="12.00">esp_timer.h</text>
</a>
</g>
</g>
<!-- Node3&#45;&gt;Node18 -->
<g id="edge17_Node000003_Node000018" class="edge">
<title>Node3&#45;&gt;Node18</title>
<g id="a_edge17_Node000003_Node000018"><a xlink:title=" ">
<path fill="none" stroke="#63b8ff" d="M1300.77,-57.79C1271.98,-48.8 1230.44,-35.82 1198.99,-25.99"/>
<polygon fill="#63b8ff" stroke="#63b8ff" points="1200.36,-22.75 1189.77,-23.11 1198.28,-29.43 1200.36,-22.75"/>
</a>
</g>
</g>
<!-- Node19 -->
<g id="Node000019" class="node">
<title>Node19</title>
<g id="a_Node000019"><a xlink:title=" ">
<polygon fill="#e0e0e0" stroke="#999999" points="1279.5,-22.25 1211.75,-22.25 1211.75,0 1279.5,0 1279.5,-22.25"/>
<text text-anchor="middle" x="1245.62" y="-6.85" font-family="Arial" font-size="12.00">esp_crc.h</text>
</a>
</g>
</g>
<!-- Node3&#45;&gt;Node19 -->
<g id="edge18_Node000003_Node000019" class="edge">
<title>Node3&#45;&gt;Node19</title>
<g id="a_edge18_Node000003_Node000019"><a xlink:title=" ">
<path fill="none" stroke="#63b8ff" d="M1317.88,-57.79C1304.96,-49.62 1286.82,-38.16 1271.96,-28.77"/>
<polygon fill="#63b8ff" stroke="#63b8ff" points="1273.89,-25.85 1263.57,-23.47 1270.15,-31.77 1273.89,-25.85"/>
</a>
</g>
</g>
<!-- Node20 -->
<g id="Node000020" class="node">
<title>Node20</title>
<g id="a_Node000020"><a xlink:title=" ">
<polygon fill="#e0e0e0" stroke="#999999" points="1371.88,-22.25 1297.38,-22.25 1297.38,0 1371.88,0 1371.88,-22.25"/>
<text text-anchor="middle" x="1334.62" y="-6.85" font-family="Arial" font-size="12.00">esp_netif.h</text>
</a>
</g>
</g>
<!-- Node3&#45;&gt;Node20 -->
<g id="edge19_Node000003_Node000020" class="edge">
<title>Node3&#45;&gt;Node20</title>
<g id="a_edge19_Node000003_Node000020"><a xlink:title=" ">
<path fill="none" stroke="#63b8ff" d="M1334.62,-57.79C1334.62,-51.12 1334.62,-42.24 1334.62,-34.09"/>
<polygon fill="#63b8ff" stroke="#63b8ff" points="1338.13,-34.17 1334.63,-24.17 1331.13,-34.17 1338.13,-34.17"/>
</a>
</g>
</g>
<!-- Node21 -->
<g id="Node000021" class="node">
<title>Node21</title>
<g id="a_Node000021"><a xlink:title=" ">
<polygon fill="#e0e0e0" stroke="#999999" points="1459.62,-22.25 1389.62,-22.25 1389.62,0 1459.62,0 1459.62,-22.25"/>
<text text-anchor="middle" x="1424.62" y="-6.85" font-family="Arial" font-size="12.00">esp_wifi.h</text>
</a>
</g>
</g>
<!-- Node3&#45;&gt;Node21 -->
<g id="edge20_Node000003_Node000021" class="edge">
<title>Node3&#45;&gt;Node21</title>
<g id="a_edge20_Node000003_Node000021"><a xlink:title=" ">
<path fill="none" stroke="#63b8ff" d="M1351.55,-57.79C1364.75,-49.55 1383.32,-37.94 1398.43,-28.5"/>
<polygon fill="#63b8ff" stroke="#63b8ff" points="1399.86,-31.73 1406.49,-23.46 1396.15,-25.79 1399.86,-31.73"/>
</a>
</g>
</g>
<!-- Node22 -->
<g id="Node000022" class="node">
<title>Node22</title>
<g id="a_Node000022"><a xlink:title=" ">
<polygon fill="#e0e0e0" stroke="#999999" points="1545.12,-22.25 1478.12,-22.25 1478.12,0 1545.12,0 1545.12,-22.25"/>
<text text-anchor="middle" x="1511.62" y="-6.85" font-family="Arial" font-size="12.00">espnow.h</text>
</a>
</g>
</g>
<!-- Node3&#45;&gt;Node22 -->
<g id="edge21_Node000003_Node000022" class="edge">
<title>Node3&#45;&gt;Node22</title>
<g id="a_edge21_Node000003_Node000022"><a xlink:title=" ">
<path fill="none" stroke="#63b8ff" d="M1367.92,-57.79C1396.1,-48.84 1436.72,-35.93 1467.59,-26.12"/>
<polygon fill="#63b8ff" stroke="#63b8ff" points="1468.57,-29.48 1477.04,-23.12 1466.45,-22.81 1468.57,-29.48"/>
</a>
</g>
</g>
<!-- Node23 -->
<g id="Node000023" class="node">
<title>Node23</title>
<g id="a_Node000023"><a xlink:title=" ">
<polygon fill="#e0e0e0" stroke="#999999" points="1653.75,-22.25 1563.5,-22.25 1563.5,0 1653.75,0 1653.75,-22.25"/>
<text text-anchor="middle" x="1608.62" y="-6.85" font-family="Arial" font-size="12.00">espnow_ctrl.h</text>
</a>
</g>
</g>
<!-- Node3&#45;&gt;Node23 -->
<g id="edge22_Node000003_Node000023" class="edge">
<title>Node3&#45;&gt;Node23</title>
<g id="a_edge22_Node000003_Node000023"><a xlink:title=" ">
<path fill="none" stroke="#63b8ff" d="M1384.56,-58.12C1431.82,-48.42 1502.67,-33.88 1552.01,-23.75"/>
<polygon fill="#63b8ff" stroke="#63b8ff" points="1552.55,-27.21 1561.64,-21.77 1551.14,-20.35 1552.55,-27.21"/>
</a>
</g>
</g>
<!-- Node24 -->
<g id="Node000024" class="node">
<title>Node24</title>
<g id="a_Node000024"><a xlink:title=" ">
<polygon fill="#e0e0e0" stroke="#999999" points="1767.75,-22.25 1671.5,-22.25 1671.5,0 1767.75,0 1767.75,-22.25"/>
<text text-anchor="middle" x="1719.62" y="-6.85" font-family="Arial" font-size="12.00">espnow_utils.h</text>
</a>
</g>
</g>
<!-- Node3&#45;&gt;Node24 -->
<g id="edge23_Node000003_Node000024" class="edge">
<title>Node3&#45;&gt;Node24</title>
<g id="a_edge23_Node000003_Node000024"><a xlink:title=" ">
<path fill="none" stroke="#63b8ff" d="M1384.72,-61.9C1446.86,-53.75 1556.34,-38.96 1659.85,-22.65"/>
<polygon fill="#63b8ff" stroke="#63b8ff" points="1660.31,-26.12 1669.64,-21.1 1659.22,-19.21 1660.31,-26.12"/>
</a>
</g>
</g>
<!-- Node25 -->
<g id="Node000025" class="node">
<title>Node25</title>
<g id="a_Node000025"><a xlink:title=" ">
<polygon fill="#e0e0e0" stroke="#999999" points="1863,-22.25 1786.25,-22.25 1786.25,0 1863,0 1863,-22.25"/>
<text text-anchor="middle" x="1824.62" y="-6.85" font-family="Arial" font-size="12.00">nvs_flash.h</text>
</a>
</g>
</g>
<!-- Node3&#45;&gt;Node25 -->
<g id="edge24_Node000003_Node000025" class="edge">
<title>Node3&#45;&gt;Node25</title>
<g id="a_edge24_Node000003_Node000025"><a xlink:title=" ">
<path fill="none" stroke="#63b8ff" d="M1384.56,-64.86C1464.67,-58.86 1627.06,-45.17 1774.85,-22.38"/>
<polygon fill="#63b8ff" stroke="#63b8ff" points="1775.08,-25.89 1784.42,-20.88 1774,-18.97 1775.08,-25.89"/>
</a>
</g>
</g>
<!-- Node26 -->
<g id="Node000026" class="node">
<title>Node26</title>
<g id="a_Node000026"><a xlink:title=" ">
<polygon fill="#e0e0e0" stroke="#999999" points="1974.62,-22.25 1880.62,-22.25 1880.62,0 1974.62,0 1974.62,-22.25"/>
<text text-anchor="middle" x="1927.62" y="-6.85" font-family="Arial" font-size="12.00">usb/hid_host.h</text>
</a>
</g>
</g>
<!-- Node3&#45;&gt;Node26 -->
<g id="edge25_Node000003_Node000026" class="edge">
<title>Node3&#45;&gt;Node26</title>
<g id="a_edge25_Node000003_Node000026"><a xlink:title=" ">
<path fill="none" stroke="#63b8ff" d="M1384.4,-65.65C1477.51,-60.23 1684.56,-46.57 1869.04,-22.49"/>
<polygon fill="#63b8ff" stroke="#63b8ff" points="1869.36,-25.98 1878.82,-21.2 1868.44,-19.04 1869.36,-25.98"/>
</a>
</g>
</g>
<!-- Node27 -->
<g id="Node000027" class="node">
<title>Node27</title>
<g id="a_Node000027"><a xlink:title=" ">
<polygon fill="#e0e0e0" stroke="#999999" points="2090.12,-22.25 1993.12,-22.25 1993.12,0 2090.12,0 2090.12,-22.25"/>
<text text-anchor="middle" x="2041.62" y="-6.85" font-family="Arial" font-size="12.00">usb/usb_host.h</text>
</a>
</g>
</g>
<!-- Node3&#45;&gt;Node27 -->
<g id="edge26_Node000003_Node000027" class="edge">
<title>Node3&#45;&gt;Node27</title>
<g id="a_edge26_Node000003_Node000027"><a xlink:title=" ">
<path fill="none" stroke="#63b8ff" d="M1384.46,-66.57C1491.69,-62.3 1752.48,-49.92 1981.41,-22.4"/>
<polygon fill="#63b8ff" stroke="#63b8ff" points="1981.62,-25.9 1991.13,-21.22 1980.78,-18.95 1981.62,-25.9"/>
</a>
</g>
</g>
<!-- Node28 -->
<g id="Node000028" class="node">
<title>Node28</title>
<g id="a_Node000028"><a xlink:title=" ">
<polygon fill="#e0e0e0" stroke="#999999" points="2190.62,-22.25 2108.62,-22.25 2108.62,0 2190.62,0 2190.62,-22.25"/>
<text text-anchor="middle" x="2149.62" y="-6.85" font-family="Arial" font-size="12.00">driver/gpio.h</text>
</a>
</g>
</g>
<!-- Node3&#45;&gt;Node28 -->
<g id="edge27_Node000003_Node000028" class="edge">
<title>Node3&#45;&gt;Node28</title>
<g id="a_edge27_Node000003_Node000028"><a xlink:title=" ">
<path fill="none" stroke="#63b8ff" d="M1384.53,-67.77C1505.23,-65.8 1822.64,-57.54 2096.85,-22.45"/>
<polygon fill="#63b8ff" stroke="#63b8ff" points="2097.26,-25.92 2106.73,-21.17 2096.36,-18.98 2097.26,-25.92"/>
</a>
</g>
</g>
<!-- Node29 -->
<g id="Node000029" class="node">
<title>Node29</title>
<g id="a_Node000029"><a xlink:title=" ">
<polygon fill="#e0e0e0" stroke="#999999" points="2324.88,-22.25 2208.38,-22.25 2208.38,0 2324.88,0 2324.88,-22.25"/>
<text text-anchor="middle" x="2266.62" y="-6.85" font-family="Arial" font-size="12.00">driver/i2c_master.h</text>
</a>
</g>
</g>
<!-- Node3&#45;&gt;Node29 -->
<g id="edge28_Node000003_Node000029" class="edge">
<title>Node3&#45;&gt;Node29</title>
<g id="a_edge28_Node000003_Node000029"><a xlink:title=" ">
<path fill="none" stroke="#63b8ff" d="M1384.49,-67.4C1515.76,-64.48 1881.96,-54.01 2197.02,-22.43"/>
<polygon fill="#63b8ff" stroke="#63b8ff" points="2197.1,-25.94 2206.7,-21.45 2196.39,-18.97 2197.1,-25.94"/>
</a>
</g>
</g>
<!-- Node30&#45;&gt;Node3 -->
<g id="edge30_Node000030_Node000003" class="edge">
<title>Node30&#45;&gt;Node3</title>
<g id="a_edge30_Node000030_Node000003"><a xlink:title=" ">
<path fill="none" stroke="#63b8ff" d="M1603.33,-174.41C1596.48,-159.12 1581.58,-130.9 1559.62,-116.5 1510.8,-84.48 1444.22,-74 1396.17,-70.89"/>
<polygon fill="#63b8ff" stroke="#63b8ff" points="1396.36,-67.4 1386.19,-70.35 1395.98,-74.39 1396.36,-67.4"/>
</a>
</g>
</g>
<!-- Node30&#45;&gt;Node31 -->
<g id="edge31_Node000030_Node000031" class="edge">
<title>Node30&#45;&gt;Node31</title>
<g id="a_edge31_Node000030_Node000031"><a xlink:title=" ">
<path fill="none" stroke="#63b8ff" d="M1635.84,-174.29C1659.3,-165.5 1692.94,-152.88 1718.92,-143.14"/>
<polygon fill="#63b8ff" stroke="#63b8ff" points="1719.99,-146.48 1728.12,-139.69 1717.53,-139.92 1719.99,-146.48"/>
</a>
</g>
</g>
<!-- Node32 -->
<g id="Node000032" class="node">
<title>Node32</title>
<g id="a_Node000032"><a xlink:href="font_8h.html" target="_top" xlink:title="This file contains the class for the 12x16 font class.">
<polygon fill="white" stroke="#666666" points="1550.38,-138.75 1436.88,-138.75 1436.88,-116.5 1550.38,-116.5 1550.38,-138.75"/>
<text text-anchor="middle" x="1493.62" y="-123.35" font-family="Arial" font-size="12.00">../supporting/font.h</text>
</a>
</g>
</g>
<!-- Node30&#45;&gt;Node32 -->
<g id="edge32_Node000030_Node000032" class="edge">
<title>Node30&#45;&gt;Node32</title>
<g id="a_edge32_Node000030_Node000032"><a xlink:title=" ">
<path fill="none" stroke="#63b8ff" d="M1586.18,-174.29C1568.99,-165.81 1544.6,-153.78 1525.18,-144.19"/>
<polygon fill="#63b8ff" stroke="#63b8ff" points="1526.85,-141.11 1516.33,-139.83 1523.75,-147.39 1526.85,-141.11"/>
</a>
</g>
</g>
<!-- Node32&#45;&gt;Node3 -->
<g id="edge33_Node000032_Node000003" class="edge">
<title>Node32&#45;&gt;Node3</title>
<g id="a_edge33_Node000032_Node000003"><a xlink:title=" ">
<path fill="none" stroke="#63b8ff" d="M1463.72,-116.04C1438.62,-107.17 1402.55,-94.41 1374.91,-84.63"/>
<polygon fill="#63b8ff" stroke="#63b8ff" points="1376.42,-81.45 1365.82,-81.41 1374.08,-88.05 1376.42,-81.45"/>
</a>
</g>
</g>
<!-- Node33&#45;&gt;Node3 -->
<g id="edge36_Node000033_Node000003" class="edge">
<title>Node33&#45;&gt;Node3</title>
<g id="a_edge36_Node000033_Node000003"><a xlink:title=" ">
<path fill="none" stroke="#63b8ff" d="M1421.77,-174.31C1405.62,-155.05 1371.19,-113.99 1350.78,-89.64"/>
<polygon fill="#63b8ff" stroke="#63b8ff" points="1353.54,-87.49 1344.44,-82.08 1348.18,-91.99 1353.54,-87.49"/>
</a>
</g>
</g>
<!-- Node34&#45;&gt;Node3 -->
<g id="edge38_Node000034_Node000003" class="edge">
<title>Node34&#45;&gt;Node3</title>
<g id="a_edge38_Node000034_Node000003"><a xlink:title=" ">
<path fill="none" stroke="#63b8ff" d="M1380.58,-290.76C1368.47,-282.43 1352.64,-269.84 1342.62,-255.25 1327.13,-232.69 1327.13,-224 1322.62,-197 1316.53,-160.48 1323.57,-117.48 1329.15,-92.15"/>
<polygon fill="#63b8ff" stroke="#63b8ff" points="1332.56,-92.96 1331.44,-82.42 1325.74,-91.35 1332.56,-92.96"/>
</a>
</g>
</g>
<!-- Node35 -->
<g id="Node000035" class="node">
<title>Node35</title>
<g id="a_Node000035"><a xlink:href="edge__dector_8h.html" target="_top" xlink:title="This is the file that contains the class for edge detection.">
<polygon fill="white" stroke="#666666" points="1443.5,-255.25 1351.75,-255.25 1351.75,-233 1443.5,-233 1443.5,-255.25"/>
<text text-anchor="middle" x="1397.62" y="-239.85" font-family="Arial" font-size="12.00">edge_dector.h</text>
</a>
</g>
</g>
<!-- Node34&#45;&gt;Node35 -->
<g id="edge39_Node000034_Node000035" class="edge">
<title>Node34&#45;&gt;Node35</title>
<g id="a_edge39_Node000034_Node000035"><a xlink:title=" ">
<path fill="none" stroke="#63b8ff" d="M1397.62,-290.79C1397.62,-284.12 1397.62,-275.24 1397.62,-267.09"/>
<polygon fill="#63b8ff" stroke="#63b8ff" points="1401.13,-267.17 1397.63,-257.17 1394.13,-267.17 1401.13,-267.17"/>
</a>
</g>
</g>
<!-- Node34&#45;&gt;Node36 -->
<g id="edge40_Node000034_Node000036" class="edge">
<title>Node34&#45;&gt;Node36</title>
<g id="a_edge40_Node000034_Node000036"><a xlink:title=" ">
<path fill="none" stroke="#63b8ff" d="M1437.12,-290.79C1473.73,-280.99 1528.03,-266.45 1565.47,-256.42"/>
<polygon fill="#63b8ff" stroke="#63b8ff" points="1566.29,-259.82 1575.04,-253.85 1564.48,-253.06 1566.29,-259.82"/>
</a>
</g>
</g>
<!-- Node36&#45;&gt;Node8 -->
<g id="edge44_Node000036_Node000008" class="edge">
<title>Node36&#45;&gt;Node8</title>
<g id="a_edge44_Node000036_Node000008"><a xlink:title=" ">
<path fill="none" stroke="#63b8ff" d="M1629.5,-232.54C1644.33,-224.47 1663.55,-212.17 1676.62,-197 1702.45,-167.03 1682.56,-139.67 1714.62,-116.5 1851.73,-17.43 2298.57,-57.23 2483.68,-22.18"/>
<polygon fill="#63b8ff" stroke="#63b8ff" points="2484.11,-25.67 2493.21,-20.24 2482.71,-18.81 2484.11,-25.67"/>
</a>
</g>
</g>
<!-- Node36&#45;&gt;Node30 -->
<g id="edge41_Node000036_Node000030" class="edge">
<title>Node36&#45;&gt;Node30</title>
<g id="a_edge41_Node000036_Node000030"><a xlink:title=" ">
<path fill="none" stroke="#63b8ff" d="M1607.62,-232.54C1607.62,-225.87 1607.62,-216.99 1607.62,-208.84"/>
<polygon fill="#63b8ff" stroke="#63b8ff" points="1611.13,-208.92 1607.63,-198.92 1604.13,-208.92 1611.13,-208.92"/>
</a>
</g>
</g>
<!-- Node36&#45;&gt;Node31 -->
<g id="edge42_Node000036_Node000031" class="edge">
<title>Node36&#45;&gt;Node31</title>
<g id="a_edge42_Node000036_Node000031"><a xlink:title=" ">
<path fill="none" stroke="#63b8ff" d="M1638.57,-233.99C1660.13,-226.52 1688.67,-214.36 1709.62,-197 1725.62,-183.75 1738.75,-163.92 1747.2,-149.02"/>
<polygon fill="#63b8ff" stroke="#63b8ff" points="1750.11,-151.01 1751.79,-140.54 1743.95,-147.68 1750.11,-151.01"/>
</a>
</g>
</g>
<!-- Node36&#45;&gt;Node33 -->
<g id="edge43_Node000036_Node000033" class="edge">
<title>Node36&#45;&gt;Node33</title>
<g id="a_edge43_Node000036_Node000033"><a xlink:title=" ">
<path fill="none" stroke="#63b8ff" d="M1576.39,-233.2C1548.16,-224.23 1506.3,-210.92 1474.68,-200.87"/>
<polygon fill="#63b8ff" stroke="#63b8ff" points="1475.99,-197.62 1465.4,-197.93 1473.87,-204.29 1475.99,-197.62"/>
</a>
</g>
</g>
</g>
</svg>

<g id="navigator" transform="translate(0 0)" fill="#404254">
  <rect fill="#f2f5e9" fill-opacity="0.5" stroke="#606060" stroke-width=".5" x="0" y="0" width="60" height="60"/>
  <use id="zoomplus" xlink:href="#zoomPlus" x="17" y="9" onmousedown="handleZoom(evt,'in')"/>
  <use id="zoomminus" xlink:href="#zoomMin" x="42" y="9" onmousedown="handleZoom(evt,'out')"/>
  <use id="reset" xlink:href="#resetDef" x="30" y="36" onmousedown="handleReset()"/>
   <use id="arrowup" xlink:href="#arrowUp" x="0" y="0" onmousedown="handlePan(0,-1)"/>
  <use id="arrowright" xlink:href="#arrowRight" x="0" y="0" onmousedown="handlePan(1,0)"/>
  <use id="arrowdown" xlink:href="#arrowDown" x="0" y="0" onmousedown="handlePan(0,1)"/>
  <use id="arrowleft" xlink:href="#arrowLeft" x="0" y="0" onmousedown="handlePan(-1,0)"/>
</g>
<svg viewBox="0 0 15 15" width="100%" height="30px" preserveAspectRatio="xMaxYMin meet">
 <g id="arrow_out" transform="scale(0.3 0.3)">
  <a xlink:href="display__task_8cpp__incl_org.svg" target="_base">
   <rect id="button" ry="5" rx="5" y="6" x="6" height="38" width="38"
        fill="#f2f5e9" fill-opacity="0.5" stroke="#606060" stroke-width="1.0"/>
   <path id="arrow"
     d="M 11.500037,31.436501 C 11.940474,20.09759 22.043105,11.32322 32.158766,21.979434 L 37.068811,17.246167 C 37.068811,17.246167 37.088388,32 37.088388,32 L 22.160133,31.978069 C 22.160133,31.978069 26.997745,27.140456 26.997745,27.140456 C 18.528582,18.264221 13.291696,25.230495 11.500037,31.436501 z"
     style="fill:#404040;"/>
  </a>
 </g>
</svg>

<style type='text/css'>
<![CDATA[
[data-mouse-over-selected='false'] { opacity: 0.7; }
[data-mouse-over-selected='true']  { opacity: 1.0; }
]]>
</style>
<script type="application/ecmascript"><![CDATA[
document.addEventListener('DOMContentLoaded', (event) => {
  highlightEdges();
  highlightAdjacentNodes();
});
]]></script>
</svg>
