<?xml version="1.0" encoding="UTF-8" standalone="no"?>
<!DOCTYPE svg PUBLIC "-//W3C//DTD SVG 1.1//EN"
 "http://www.w3.org/Graphics/SVG/1.1/DTD/svg11.dtd">
<!-- Generated by graphviz version 12.2.1 (20241206.2353)
 -->
<!-- Title: display_task Pages: 1 -->
<!--zoomable 508 -->

<svg id="main" version="1.1" xmlns="http://www.w3.org/2000/svg" xmlns:xlink="http://www.w3.org/1999/xlink" xml:space="preserve" onload="init(evt)">

<style type="text/css"><![CDATA[
.node, .edge {opacity: 0.7;}
.node.selected, .edge.selected {opacity: 1;}
.edge:hover path { stroke: red; }
.edge:hover polygon { stroke: red; fill: red; }
]]></style>

<defs>
  <circle id="rim" cx="0" cy="0" r="7"/>
  <circle id="rim2" cx="0" cy="0" r="3.5"/>
  <g id="zoomPlus">
    <use xlink:href="#rim" fill="#404040"><set attributeName="fill" to="#808080" begin="zoomplus.mouseover" end="zoomplus.mouseout"/></use>
    <path d="M-4,0h8M0,-4v8" fill="none" stroke="white" stroke-width="1.5" pointer-events="none"/>
  </g>
  <g id="zoomMin">
    <use xlink:href="#rim" fill="#404040"><set attributeName="fill" to="#808080" begin="zoomminus.mouseover" end="zoomminus.mouseout"/></use>
    <path d="M-4,0h8" fill="none" stroke="white" stroke-width="1.5" pointer-events="none"/>
  </g>
  <g id="arrowUp" transform="translate(30 24)">
    <use xlink:href="#rim"/>
    <path pointer-events="none" fill="none" stroke="white" stroke-width="1.5" d="M0,-3.0v7 M-2.5,-0.5L0,-3.0L2.5,-0.5"/>
  </g>
  <g id="arrowRight" transform="rotate(90) translate(36 -43)">
    <use xlink:href="#rim"/>
    <path pointer-events="none" fill="none" stroke="white" stroke-width="1.5" d="M0,-3.0v7 M-2.5,-0.5L0,-3.0L2.5,-0.5"/>
  </g>
  <g id="arrowDown" transform="rotate(180) translate(-30 -48)">
    <use xlink:href="#rim"/>
    <path pointer-events="none" fill="none" stroke="white" stroke-width="1.5" d="M0,-3.0v7 M-2.5,-0.5L0,-3.0L2.5,-0.5"/>
  </g>
  <g id="arrowLeft" transform="rotate(270) translate(-36 17)">
    <use xlink:href="#rim"/>
    <path pointer-events="none" fill="none" stroke="white" stroke-width="1.5" d="M0,-3.0v7 M-2.5,-0.5L0,-3.0L2.5,-0.5"/>
  </g>
  <g id="resetDef">
    <use xlink:href="#rim2" fill="#404040"><set attributeName="fill" to="#808080" begin="reset.mouseover" end="reset.mouseout"/></use>
  </g>
</defs>
<script type="application/ecmascript">
var viewWidth = 809;
var viewHeight = 508;
var sectionId = 'dynsection-0';
</script>
<script type="application/ecmascript" xlink:href="svg.min.js"/>
<svg id="graph" class="graph">
<g id="viewport">
<title>display_task</title>
<!-- Node1 -->
<g id="Node000001" class="node">
<title>Node1</title>
<g id="a_Node000001"><a xlink:title="This is the task that handles driving the display with the menus and values.">
<polygon fill="#999999" stroke="#666666" points="82.75,-302.25 0,-302.25 0,-280 82.75,-280 82.75,-302.25"/>
<text text-anchor="middle" x="41.38" y="-286.85" font-family="Arial" font-size="12.00">display_task</text>
</a>
</g>
</g>
<!-- Node2 -->
<g id="Node000002" class="node">
<title>Node2</title>
<g id="a_Node000002"><a xlink:href="classssd1306.html#a23098da61ef8c67a1b1f530526dc4507" target="_top" xlink:title="Clears the display buffer.">
<polygon fill="white" stroke="#666666" points="278.75,-362.25 148,-362.25 148,-340 278.75,-340 278.75,-362.25"/>
<text text-anchor="middle" x="213.38" y="-346.85" font-family="Arial" font-size="12.00">ssd1306::clear_buffer</text>
</a>
</g>
</g>
<!-- Node1&#45;&gt;Node2 -->
<g id="edge1_Node000001_Node000002" class="edge">
<title>Node1&#45;&gt;Node2</title>
<g id="a_edge1_Node000001_Node000002"><a xlink:title=" ">
<path fill="none" stroke="#63b8ff" d="M60.87,-302.64C75.94,-311.57 98.05,-323.65 118.75,-331.12 124.47,-333.19 130.46,-335.07 136.53,-336.78"/>
<polygon fill="#63b8ff" stroke="#63b8ff" points="135.49,-340.12 146.05,-339.29 137.27,-333.36 135.49,-340.12"/>
</a>
</g>
</g>
<!-- Node3 -->
<g id="Node000003" class="node">
<title>Node3</title>
<g id="a_Node000003"><a xlink:href="classmenu.html#ace9a681a44f014b790e060eb82ad109d" target="_top" xlink:title="This function draws the menu to the display.">
<polygon fill="white" stroke="#666666" points="283.25,-322.25 143.5,-322.25 143.5,-300 283.25,-300 283.25,-322.25"/>
<text text-anchor="middle" x="213.38" y="-306.85" font-family="Arial" font-size="12.00">menu::draw_to_display</text>
</a>
</g>
</g>
<!-- Node1&#45;&gt;Node3 -->
<g id="edge2_Node000001_Node000003" class="edge">
<title>Node1&#45;&gt;Node3</title>
<g id="a_edge2_Node000001_Node000003"><a xlink:title=" ">
<path fill="none" stroke="#63b8ff" d="M83.09,-295.92C97.84,-297.65 115.05,-299.68 132.02,-301.67"/>
<polygon fill="#63b8ff" stroke="#63b8ff" points="131.26,-305.11 141.6,-302.8 132.08,-298.15 131.26,-305.11"/>
</a>
</g>
</g>
<!-- Node4 -->
<g id="Node000004" class="node">
<title>Node4</title>
<g id="a_Node000004"><a xlink:href="classmenu__handler.html#a23740b6e7279e5a39ab4377d1e440813" target="_top" xlink:title="This function will update the menu handler.">
<polygon fill="white" stroke="#666666" points="281.38,-282.25 145.38,-282.25 145.38,-260 281.38,-260 281.38,-282.25"/>
<text text-anchor="middle" x="213.38" y="-266.85" font-family="Arial" font-size="12.00">menu_handler::update</text>
</a>
</g>
</g>
<!-- Node1&#45;&gt;Node4 -->
<g id="edge3_Node000001_Node000004" class="edge">
<title>Node1&#45;&gt;Node4</title>
<g id="a_edge3_Node000001_Node000004"><a xlink:title=" ">
<path fill="none" stroke="#63b8ff" d="M83.09,-286.33C98.32,-284.54 116.18,-282.44 133.69,-280.38"/>
<polygon fill="#63b8ff" stroke="#63b8ff" points="134.08,-283.86 143.6,-279.22 133.26,-276.91 134.08,-283.86"/>
</a>
</g>
</g>
<!-- Node16 -->
<g id="Node000016" class="node">
<title>Node16</title>
<g id="a_Node000016"><a xlink:href="classssd1306.html#a8534651a9db59a3d8c5162b91457e322" target="_top" xlink:title="Writes the buffer to the display.">
<polygon fill="white" stroke="#666666" points="308,-62.25 118.75,-62.25 118.75,-40 308,-40 308,-62.25"/>
<text text-anchor="middle" x="213.38" y="-46.85" font-family="Arial" font-size="12.00">ssd1306::write_buffer_SSD1306</text>
</a>
</g>
</g>
<!-- Node1&#45;&gt;Node16 -->
<g id="edge20_Node000001_Node000016" class="edge">
<title>Node1&#45;&gt;Node16</title>
<g id="a_edge20_Node000001_Node000016"><a xlink:title=" ">
<path fill="none" stroke="#63b8ff" d="M50.57,-279.55C77.45,-241.61 163.12,-120.67 197.69,-71.85"/>
<polygon fill="#63b8ff" stroke="#63b8ff" points="200.46,-74 203.38,-63.82 194.75,-69.96 200.46,-74"/>
</a>
</g>
</g>
<!-- Node5 -->
<g id="Node000005" class="node">
<title>Node5</title>
<g id="a_Node000005"><a xlink:href="classmenu__handler.html#a5359c304e788501a02e8aaf6d289266f" target="_top" xlink:title="This function draws the motor calibration menu to the display.">
<polygon fill="white" stroke="#666666" points="538.88,-500.25 361.62,-500.25 361.62,-478 538.88,-478 538.88,-500.25"/>
<text text-anchor="middle" x="450.25" y="-484.85" font-family="Arial" font-size="12.00">menu_handler::circle_pressed</text>
</a>
</g>
</g>
<!-- Node4&#45;&gt;Node5 -->
<g id="edge4_Node000004_Node000005" class="edge">
<title>Node4&#45;&gt;Node5</title>
<g id="a_edge4_Node000004_Node000005"><a xlink:title=" ">
<path fill="none" stroke="#63b8ff" d="M281.66,-275.59C291.49,-278.88 300.73,-283.82 308,-291.12 363.39,-346.81 289.25,-407.82 344,-464.12 346.68,-466.89 349.61,-469.36 352.73,-471.59"/>
<polygon fill="#63b8ff" stroke="#63b8ff" points="350.92,-474.59 361.3,-476.74 354.53,-468.59 350.92,-474.59"/>
</a>
</g>
</g>
<!-- Node6 -->
<g id="Node000006" class="node">
<title>Node6</title>
<g id="a_Node000006"><a xlink:href="classmenu__handler.html#af3008a9c0396d06b3b772a31096d31ac" target="_top" xlink:title="This function draws the status menu to the display.">
<polygon fill="white" stroke="#666666" points="801.25,-222.25 592.5,-222.25 592.5,-200 801.25,-200 801.25,-222.25"/>
<text text-anchor="middle" x="696.88" y="-206.85" font-family="Arial" font-size="12.00">menu_handler::draw_status_display</text>
</a>
</g>
</g>
<!-- Node4&#45;&gt;Node6 -->
<g id="edge10_Node000004_Node000006" class="edge">
<title>Node4&#45;&gt;Node6</title>
<g id="a_edge10_Node000004_Node000006"><a xlink:title=" ">
<path fill="none" stroke="#63b8ff" d="M281.85,-276.04C291.54,-279.3 300.68,-284.11 308,-291.12 354.36,-335.61 293.23,-391.76 344,-431.12 381.32,-460.06 515.13,-453.89 556.5,-431.12 634.85,-388.01 675.33,-280.2 689.69,-233.39"/>
<polygon fill="#63b8ff" stroke="#63b8ff" points="692.96,-234.67 692.42,-224.09 686.24,-232.7 692.96,-234.67"/>
</a>
</g>
</g>
<!-- Node7 -->
<g id="Node000007" class="node">
<title>Node7</title>
<g id="a_Node000007"><a xlink:href="classmenu__handler.html#a1761326e4755be032ead895f0128a241" target="_top" xlink:title="This function will switch which variable can be modified in the menus (if modifiable)">
<polygon fill="white" stroke="#666666" points="556.12,-422.25 344.38,-422.25 344.38,-400 556.12,-400 556.12,-422.25"/>
<text text-anchor="middle" x="450.25" y="-406.85" font-family="Arial" font-size="12.00">menu_handler::dpad_down_pressed</text>
</a>
</g>
</g>
<!-- Node4&#45;&gt;Node7 -->
<g id="edge6_Node000004_Node000007" class="edge">
<title>Node4&#45;&gt;Node7</title>
<g id="a_edge6_Node000004_Node000007"><a xlink:title=" ">
<path fill="none" stroke="#63b8ff" d="M281.77,-276.81C291.35,-279.98 300.49,-284.57 308,-291.12 343.58,-322.2 308.07,-360.46 344,-391.12 344.95,-391.94 345.93,-392.73 346.93,-393.48"/>
<polygon fill="#63b8ff" stroke="#63b8ff" points="344.85,-396.31 355.16,-398.76 348.63,-390.41 344.85,-396.31"/>
</a>
</g>
</g>
<!-- Node8 -->
<g id="Node000008" class="node">
<title>Node8</title>
<g id="a_Node000008"><a xlink:href="classmenu__handler.html#a217a2b1671785e4d03511d7a62901e0a" target="_top" xlink:title="This function will decrease the value of the selected variable if modifiable)">
<polygon fill="white" stroke="#666666" points="549.38,-382.25 351.12,-382.25 351.12,-360 549.38,-360 549.38,-382.25"/>
<text text-anchor="middle" x="450.25" y="-366.85" font-family="Arial" font-size="12.00">menu_handler::dpad_left_pressed</text>
</a>
</g>
</g>
<!-- Node4&#45;&gt;Node8 -->
<g id="edge7_Node000004_Node000008" class="edge">
<title>Node4&#45;&gt;Node8</title>
<g id="a_edge7_Node000004_Node000008"><a xlink:title=" ">
<path fill="none" stroke="#63b8ff" d="M281.68,-278.45C291.06,-281.43 300.16,-285.52 308,-291.12 333.3,-309.2 318.49,-333.33 344,-351.12 345.63,-352.26 347.3,-353.33 349.01,-354.35"/>
<polygon fill="#63b8ff" stroke="#63b8ff" points="347.37,-357.44 357.87,-358.89 350.56,-351.21 347.37,-357.44"/>
</a>
</g>
</g>
<!-- Node9 -->
<g id="Node000009" class="node">
<title>Node9</title>
<g id="a_Node000009"><a xlink:href="classmenu__handler.html#a4515106db4f1601ab9dd85d12482de3c" target="_top" xlink:title="This function will increase the value of the selected variable if modifiable)">
<polygon fill="white" stroke="#666666" points="553.12,-342.25 347.38,-342.25 347.38,-320 553.12,-320 553.12,-342.25"/>
<text text-anchor="middle" x="450.25" y="-326.85" font-family="Arial" font-size="12.00">menu_handler::dpad_right_pressed</text>
</a>
</g>
</g>
<!-- Node4&#45;&gt;Node9 -->
<g id="edge8_Node000004_Node000009" class="edge">
<title>Node4&#45;&gt;Node9</title>
<g id="a_edge8_Node000004_Node000009"><a xlink:title=" ">
<path fill="none" stroke="#63b8ff" d="M280.56,-282.69C289.9,-285.06 299.28,-287.86 308,-291.12 325.14,-297.55 326.79,-304.89 344,-311.12 349.68,-313.18 355.62,-315.04 361.65,-316.72"/>
<polygon fill="#63b8ff" stroke="#63b8ff" points="360.56,-320.05 371.12,-319.16 362.31,-313.27 360.56,-320.05"/>
</a>
</g>
</g>
<!-- Node10 -->
<g id="Node000010" class="node">
<title>Node10</title>
<g id="a_Node000010"><a xlink:href="classmenu__handler.html#af2c07a9bc76fa5db69a736029600b2ce" target="_top" xlink:title="This function will switch which variable can be modified in the menus (if modifiable)">
<polygon fill="white" stroke="#666666" points="548.25,-302.25 352.25,-302.25 352.25,-280 548.25,-280 548.25,-302.25"/>
<text text-anchor="middle" x="450.25" y="-286.85" font-family="Arial" font-size="12.00">menu_handler::dpad_up_pressed</text>
</a>
</g>
</g>
<!-- Node4&#45;&gt;Node10 -->
<g id="edge9_Node000004_Node000010" class="edge">
<title>Node4&#45;&gt;Node10</title>
<g id="a_edge9_Node000004_Node000010"><a xlink:title=" ">
<path fill="none" stroke="#63b8ff" d="M281.68,-276.86C300.12,-278.43 320.6,-280.17 340.72,-281.88"/>
<polygon fill="#63b8ff" stroke="#63b8ff" points="340.41,-285.37 350.67,-282.73 341,-278.39 340.41,-285.37"/>
</a>
</g>
</g>
<!-- Node11 -->
<g id="Node000011" class="node">
<title>Node11</title>
<g id="a_Node000011"><a xlink:href="classmenu__handler.html#a501ff5ac964f8ed7775397311071c34f" target="_top" xlink:title="This function draws the servo latched menu to the display.">
<polygon fill="white" stroke="#666666" points="529.5,-262.25 371,-262.25 371,-240 529.5,-240 529.5,-262.25"/>
<text text-anchor="middle" x="450.25" y="-246.85" font-family="Arial" font-size="12.00">menu_handler::l2_pressed</text>
</a>
</g>
</g>
<!-- Node4&#45;&gt;Node11 -->
<g id="edge11_Node000004_Node000011" class="edge">
<title>Node4&#45;&gt;Node11</title>
<g id="a_edge11_Node000004_Node000011"><a xlink:title=" ">
<path fill="none" stroke="#63b8ff" d="M281.68,-265.39C305.89,-263.33 333.59,-260.97 359.41,-258.77"/>
<polygon fill="#63b8ff" stroke="#63b8ff" points="359.56,-262.28 369.22,-257.94 358.96,-255.3 359.56,-262.28"/>
</a>
</g>
</g>
<!-- Node12 -->
<g id="Node000012" class="node">
<title>Node12</title>
<g id="a_Node000012"><a xlink:href="classmenu__handler.html#af947e2fc4fecee6f2240e9d25db90961" target="_top" xlink:title="This function cycles throught the status, motor speed, and ramped velocity menu menus.">
<polygon fill="white" stroke="#666666" points="544.12,-222.25 356.38,-222.25 356.38,-200 544.12,-200 544.12,-222.25"/>
<text text-anchor="middle" x="450.25" y="-206.85" font-family="Arial" font-size="12.00">menu_handler::options_pressed</text>
</a>
</g>
</g>
<!-- Node4&#45;&gt;Node12 -->
<g id="edge13_Node000004_Node000012" class="edge">
<title>Node4&#45;&gt;Node12</title>
<g id="a_edge13_Node000004_Node000012"><a xlink:title=" ">
<path fill="none" stroke="#63b8ff" d="M248.2,-259.55C274.19,-250.94 311.09,-239.3 344,-231.12 352.73,-228.96 361.91,-226.89 371.07,-224.97"/>
<polygon fill="#63b8ff" stroke="#63b8ff" points="371.61,-228.44 380.71,-223.01 370.21,-221.58 371.61,-228.44"/>
</a>
</g>
</g>
<!-- Node13 -->
<g id="Node000013" class="node">
<title>Node13</title>
<g id="a_Node000013"><a xlink:href="classmenu__handler.html#af1b665a4320c38333e0081864ce797ad" target="_top" xlink:title="This function draws the servo released menu to the display.">
<polygon fill="white" stroke="#666666" points="541.12,-182.25 359.38,-182.25 359.38,-160 541.12,-160 541.12,-182.25"/>
<text text-anchor="middle" x="450.25" y="-166.85" font-family="Arial" font-size="12.00">menu_handler::servo_released</text>
</a>
</g>
</g>
<!-- Node4&#45;&gt;Node13 -->
<g id="edge14_Node000004_Node000013" class="edge">
<title>Node4&#45;&gt;Node13</title>
<g id="a_edge14_Node000004_Node000013"><a xlink:title=" ">
<path fill="none" stroke="#63b8ff" d="M228.98,-259.59C252.03,-242 298.89,-208.64 344,-191.12 349.04,-189.17 354.3,-187.39 359.66,-185.79"/>
<polygon fill="#63b8ff" stroke="#63b8ff" points="360.58,-189.17 369.3,-183.14 358.73,-182.42 360.58,-189.17"/>
</a>
</g>
</g>
<!-- Node14 -->
<g id="Node000014" class="node">
<title>Node14</title>
<g id="a_Node000014"><a xlink:href="classmenu__handler.html#abb48889d1582aa32c4ef201a3707c21d" target="_top" xlink:title="This function draws the errors clear menu to the display.">
<polygon fill="white" stroke="#666666" points="543,-142.25 357.5,-142.25 357.5,-120 543,-120 543,-142.25"/>
<text text-anchor="middle" x="450.25" y="-126.85" font-family="Arial" font-size="12.00">menu_handler::square_pressed</text>
</a>
</g>
</g>
<!-- Node4&#45;&gt;Node14 -->
<g id="edge16_Node000004_Node000014" class="edge">
<title>Node4&#45;&gt;Node14</title>
<g id="a_edge16_Node000004_Node000014"><a xlink:title=" ">
<path fill="none" stroke="#63b8ff" d="M222.97,-259.65C241.89,-235.3 289.79,-178.48 344,-151.12 347.28,-149.47 350.68,-147.95 354.16,-146.56"/>
<polygon fill="#63b8ff" stroke="#63b8ff" points="355.16,-149.92 363.39,-143.25 352.8,-143.33 355.16,-149.92"/>
</a>
</g>
</g>
<!-- Node15 -->
<g id="Node000015" class="node">
<title>Node15</title>
<g id="a_Node000015"><a xlink:href="classmenu__handler.html#a0d65822629745990561b91fc423d3aaa" target="_top" xlink:title="This function draws the motors en/dis abled menu to the display.">
<polygon fill="white" stroke="#666666" points="544.5,-102.25 356,-102.25 356,-80 544.5,-80 544.5,-102.25"/>
<text text-anchor="middle" x="450.25" y="-86.85" font-family="Arial" font-size="12.00">menu_handler::triangle_pressed</text>
</a>
</g>
</g>
<!-- Node4&#45;&gt;Node15 -->
<g id="edge18_Node000004_Node000015" class="edge">
<title>Node4&#45;&gt;Node15</title>
<g id="a_edge18_Node000004_Node000015"><a xlink:title=" ">
<path fill="none" stroke="#63b8ff" d="M220.04,-259.52C235.37,-229.49 280.79,-148.92 344,-111.12 346.32,-109.74 348.72,-108.44 351.18,-107.23"/>
<polygon fill="#63b8ff" stroke="#63b8ff" points="352.41,-110.52 360.2,-103.34 349.63,-104.09 352.41,-110.52"/>
</a>
</g>
</g>
<!-- Node5&#45;&gt;Node6 -->
<g id="edge5_Node000005_Node000006" class="edge">
<title>Node5&#45;&gt;Node6</title>
<g id="a_edge5_Node000005_Node000006"><a xlink:title=" ">
<path fill="none" stroke="#63b8ff" d="M531.77,-477.55C540.63,-474.14 549.1,-469.75 556.5,-464.12 636.16,-403.53 676.33,-283.64 690.16,-233.74"/>
<polygon fill="#63b8ff" stroke="#63b8ff" points="693.53,-234.67 692.73,-224.1 686.77,-232.87 693.53,-234.67"/>
</a>
</g>
</g>
<!-- Node11&#45;&gt;Node6 -->
<g id="edge12_Node000011_Node000006" class="edge">
<title>Node11&#45;&gt;Node6</title>
<g id="a_edge12_Node000011_Node000006"><a xlink:title=" ">
<path fill="none" stroke="#63b8ff" d="M522.33,-239.5C550.98,-234.82 584.2,-229.39 613.86,-224.54"/>
<polygon fill="#63b8ff" stroke="#63b8ff" points="614.24,-228.02 623.54,-222.95 613.11,-221.11 614.24,-228.02"/>
</a>
</g>
</g>
<!-- Node13&#45;&gt;Node6 -->
<g id="edge15_Node000013_Node000006" class="edge">
<title>Node13&#45;&gt;Node6</title>
<g id="a_edge15_Node000013_Node000006"><a xlink:title=" ">
<path fill="none" stroke="#63b8ff" d="M522.33,-182.75C550.98,-187.43 584.2,-192.86 613.86,-197.71"/>
<polygon fill="#63b8ff" stroke="#63b8ff" points="613.11,-201.14 623.54,-199.3 614.24,-194.23 613.11,-201.14"/>
</a>
</g>
</g>
<!-- Node14&#45;&gt;Node6 -->
<g id="edge17_Node000014_Node000006" class="edge">
<title>Node14&#45;&gt;Node6</title>
<g id="a_edge17_Node000014_Node000006"><a xlink:title=" ">
<path fill="none" stroke="#63b8ff" d="M523.66,-142.72C534.76,-145.12 546.01,-147.91 556.5,-151.12 594.08,-162.63 635.2,-181.11 662.96,-194.52"/>
<polygon fill="#63b8ff" stroke="#63b8ff" points="661.39,-197.65 671.92,-198.9 664.47,-191.36 661.39,-197.65"/>
</a>
</g>
</g>
<!-- Node15&#45;&gt;Node6 -->
<g id="edge19_Node000015_Node000006" class="edge">
<title>Node15&#45;&gt;Node6</title>
<g id="a_edge19_Node000015_Node000006"><a xlink:title=" ">
<path fill="none" stroke="#63b8ff" d="M531.93,-102.69C540.38,-105.01 548.72,-107.79 556.5,-111.12 603.3,-131.19 649.77,-169.07 675.46,-192.01"/>
<polygon fill="#63b8ff" stroke="#63b8ff" points="673.08,-194.57 682.83,-198.71 677.78,-189.39 673.08,-194.57"/>
</a>
</g>
</g>
<!-- Node17 -->
<g id="Node000017" class="node">
<title>Node17</title>
<g id="a_Node000017"><a xlink:href="classssd1306.html#ab1436aa90d5c6404a1246e8f740e80b4" target="_top" xlink:title="Sends a command to the SSD1306.">
<polygon fill="white" stroke="#666666" points="556.5,-62.25 344,-62.25 344,-40 556.5,-40 556.5,-62.25"/>
<text text-anchor="middle" x="450.25" y="-46.85" font-family="Arial" font-size="12.00">ssd1306::send_command_SSD1306</text>
</a>
</g>
</g>
<!-- Node16&#45;&gt;Node17 -->
<g id="edge21_Node000016_Node000017" class="edge">
<title>Node16&#45;&gt;Node17</title>
<g id="a_edge21_Node000016_Node000017"><a xlink:title=" ">
<path fill="none" stroke="#63b8ff" d="M308.22,-51.12C316.12,-51.12 324.17,-51.12 332.22,-51.12"/>
<polygon fill="#63b8ff" stroke="#63b8ff" points="332.07,-54.63 342.07,-51.13 332.07,-47.63 332.07,-54.63"/>
</a>
</g>
</g>
<!-- Node18 -->
<g id="Node000018" class="node">
<title>Node18</title>
<g id="a_Node000018"><a xlink:href="classssd1306.html#a81795f6478fb00df3bca485ba125fb02" target="_top" xlink:title="Sends data to the SSD1306.">
<polygon fill="white" stroke="#666666" points="541.88,-22.25 358.62,-22.25 358.62,0 541.88,0 541.88,-22.25"/>
<text text-anchor="middle" x="450.25" y="-6.85" font-family="Arial" font-size="12.00">ssd1306::send_data_SSD1306</text>
</a>
</g>
</g>
<!-- Node16&#45;&gt;Node18 -->
<g id="edge22_Node000016_Node000018" class="edge">
<title>Node16&#45;&gt;Node18</title>
<g id="a_edge22_Node000016_Node000018"><a xlink:title=" ">
<path fill="none" stroke="#63b8ff" d="M282.63,-39.5C310.01,-34.84 341.74,-29.43 370.13,-24.6"/>
<polygon fill="#63b8ff" stroke="#63b8ff" points="370.47,-28.09 379.74,-22.96 369.3,-21.19 370.47,-28.09"/>
</a>
</g>
</g>
</g>
</svg>

<g id="navigator" transform="translate(0 0)" fill="#404254">
  <rect fill="#f2f5e9" fill-opacity="0.5" stroke="#606060" stroke-width=".5" x="0" y="0" width="60" height="60"/>
  <use id="zoomplus" xlink:href="#zoomPlus" x="17" y="9" onmousedown="handleZoom(evt,'in')"/>
  <use id="zoomminus" xlink:href="#zoomMin" x="42" y="9" onmousedown="handleZoom(evt,'out')"/>
  <use id="reset" xlink:href="#resetDef" x="30" y="36" onmousedown="handleReset()"/>
   <use id="arrowup" xlink:href="#arrowUp" x="0" y="0" onmousedown="handlePan(0,-1)"/>
  <use id="arrowright" xlink:href="#arrowRight" x="0" y="0" onmousedown="handlePan(1,0)"/>
  <use id="arrowdown" xlink:href="#arrowDown" x="0" y="0" onmousedown="handlePan(0,1)"/>
  <use id="arrowleft" xlink:href="#arrowLeft" x="0" y="0" onmousedown="handlePan(-1,0)"/>
</g>
<svg viewBox="0 0 15 15" width="100%" height="30px" preserveAspectRatio="xMaxYMin meet">
 <g id="arrow_out" transform="scale(0.3 0.3)">
  <a xlink:href="display__task_8cpp_a9f61f48e689e3ceb92895a85cd380e17_cgraph_org.svg" target="_base">
   <rect id="button" ry="5" rx="5" y="6" x="6" height="38" width="38"
        fill="#f2f5e9" fill-opacity="0.5" stroke="#606060" stroke-width="1.0"/>
   <path id="arrow"
     d="M 11.500037,31.436501 C 11.940474,20.09759 22.043105,11.32322 32.158766,21.979434 L 37.068811,17.246167 C 37.068811,17.246167 37.088388,32 37.088388,32 L 22.160133,31.978069 C 22.160133,31.978069 26.997745,27.140456 26.997745,27.140456 C 18.528582,18.264221 13.291696,25.230495 11.500037,31.436501 z"
     style="fill:#404040;"/>
  </a>
 </g>
</svg>

<style type='text/css'>
<![CDATA[
[data-mouse-over-selected='false'] { opacity: 0.7; }
[data-mouse-over-selected='true']  { opacity: 1.0; }
]]>
</style>
<script type="application/ecmascript"><![CDATA[
document.addEventListener('DOMContentLoaded', (event) => {
  highlightEdges();
  highlightAdjacentNodes();
});
]]></script>
</svg>
