<?xml version="1.0" encoding="UTF-8" standalone="no"?>
<!DOCTYPE svg PUBLIC "-//W3C//DTD SVG 1.1//EN"
 "http://www.w3.org/Graphics/SVG/1.1/DTD/svg11.dtd">
<!-- Generated by graphviz version 12.2.1 (20241206.2353)
 -->
<!-- Title: include/tasks/display_task.h Pages: 1 -->
<svg width="286pt" height="89pt"
 viewBox="0.00 0.00 285.62 88.50" xmlns="http://www.w3.org/2000/svg" xmlns:xlink="http://www.w3.org/1999/xlink">
<g id="graph0" class="graph" transform="scale(1 1) rotate(0) translate(4 84.5)">
<title>include/tasks/display_task.h</title>
<!-- Node1 -->
<g id="Node000001" class="node">
<title>Node1</title>
<g id="a_Node000001"><a xlink:title="This is the file that contains the display task.">
<polygon fill="#999999" stroke="#666666" points="203.62,-80.5 38.38,-80.5 38.38,-58.25 203.62,-58.25 203.62,-80.5"/>
<text text-anchor="middle" x="121" y="-65.1" font-family="Arial" font-size="12.00">include/tasks/display_task.h</text>
</a>
</g>
</g>
<!-- Node2 -->
<g id="Node000002" class="node">
<title>Node2</title>
<g id="a_Node000002"><a xlink:href="main_8cpp.html" target="_top" xlink:title="This is the file that contains the main function and all other tasks for the robot controller.">
<polygon fill="white" stroke="#666666" points="94,-22.25 0,-22.25 0,0 94,0 94,-22.25"/>
<text text-anchor="middle" x="47" y="-6.85" font-family="Arial" font-size="12.00">main/main.cpp</text>
</a>
</g>
</g>
<!-- Node1&#45;&gt;Node2 -->
<g id="edge1_Node000001_Node000002" class="edge">
<title>Node1&#45;&gt;Node2</title>
<g id="a_edge1_Node000001_Node000002"><a xlink:title=" ">
<path fill="none" stroke="#63b8ff" d="M97.96,-50.86C85.8,-41.62 71.28,-30.58 60.86,-22.66"/>
<polygon fill="#63b8ff" stroke="#63b8ff" points="95.8,-53.61 105.88,-56.88 100.03,-48.04 95.8,-53.61"/>
</a>
</g>
</g>
<!-- Node3 -->
<g id="Node000003" class="node">
<title>Node3</title>
<g id="a_Node000003"><a xlink:href="display__task_8cpp.html" target="_top" xlink:title="This is the file that contains the display task.">
<polygon fill="white" stroke="#666666" points="277.62,-22.25 112.38,-22.25 112.38,0 277.62,0 277.62,-22.25"/>
<text text-anchor="middle" x="195" y="-6.85" font-family="Arial" font-size="12.00">main/tasks/display_task.cpp</text>
</a>
</g>
</g>
<!-- Node1&#45;&gt;Node3 -->
<g id="edge2_Node000001_Node000003" class="edge">
<title>Node1&#45;&gt;Node3</title>
<g id="a_edge2_Node000001_Node000003"><a xlink:title=" ">
<path fill="none" stroke="#63b8ff" d="M144.04,-50.86C156.2,-41.62 170.72,-30.58 181.14,-22.66"/>
<polygon fill="#63b8ff" stroke="#63b8ff" points="141.97,-48.04 136.12,-56.88 146.2,-53.61 141.97,-48.04"/>
</a>
</g>
</g>
</g>
</svg>
