<?xml version="1.0" encoding="UTF-8" standalone="no"?>
<!DOCTYPE svg PUBLIC "-//W3C//DTD SVG 1.1//EN"
 "http://www.w3.org/Graphics/SVG/1.1/DTD/svg11.dtd">
<!-- Generated by graphviz version 12.2.1 (20241206.2353)
 -->
<!-- Title: include/supporting/edge_dector.h Pages: 1 -->
<svg width="682pt" height="205pt"
 viewBox="0.00 0.00 682.12 205.00" xmlns="http://www.w3.org/2000/svg" xmlns:xlink="http://www.w3.org/1999/xlink">
<g id="graph0" class="graph" transform="scale(1 1) rotate(0) translate(4 201)">
<title>include/supporting/edge_dector.h</title>
<!-- Node1 -->
<g id="Node000001" class="node">
<title>Node1</title>
<g id="a_Node000001"><a xlink:title="This is the file that contains the class for edge detection.">
<polygon fill="#999999" stroke="#666666" points="549.12,-197 356.12,-197 356.12,-174.75 549.12,-174.75 549.12,-197"/>
<text text-anchor="middle" x="452.62" y="-181.6" font-family="Arial" font-size="12.00">include/supporting/edge_dector.h</text>
</a>
</g>
</g>
<!-- Node2 -->
<g id="Node000002" class="node">
<title>Node2</title>
<g id="a_Node000002"><a xlink:href="menu__handler_8h.html" target="_top" xlink:title="This is the file that contains the class for switching between menus.">
<polygon fill="white" stroke="#666666" points="405.38,-138.75 201.88,-138.75 201.88,-116.5 405.38,-116.5 405.38,-138.75"/>
<text text-anchor="middle" x="303.62" y="-123.35" font-family="Arial" font-size="12.00">include/supporting/menu_handler.h</text>
</a>
</g>
</g>
<!-- Node1&#45;&gt;Node2 -->
<g id="edge1_Node000001_Node000002" class="edge">
<title>Node1&#45;&gt;Node2</title>
<g id="a_edge1_Node000001_Node000002"><a xlink:title=" ">
<path fill="none" stroke="#63b8ff" d="M414.04,-170.31C388.21,-160.56 354.8,-147.94 331.53,-139.16"/>
<polygon fill="#63b8ff" stroke="#63b8ff" points="412.59,-173.5 423.18,-173.76 415.06,-166.95 412.59,-173.5"/>
</a>
</g>
</g>
<!-- Node4 -->
<g id="Node000004" class="node">
<title>Node4</title>
<g id="a_Node000004"><a xlink:href="main_8cpp.html" target="_top" xlink:title="This is the file that contains the main function and all other tasks for the robot controller.">
<polygon fill="white" stroke="#666666" points="461.62,-22.25 367.62,-22.25 367.62,0 461.62,0 461.62,-22.25"/>
<text text-anchor="middle" x="414.62" y="-6.85" font-family="Arial" font-size="12.00">main/main.cpp</text>
</a>
</g>
</g>
<!-- Node1&#45;&gt;Node4 -->
<g id="edge7_Node000001_Node000004" class="edge">
<title>Node1&#45;&gt;Node4</title>
<g id="a_edge7_Node000001_Node000004"><a xlink:title=" ">
<path fill="none" stroke="#63b8ff" d="M447.86,-163.2C439.61,-125.72 422.99,-50.15 416.91,-22.53"/>
<polygon fill="#63b8ff" stroke="#63b8ff" points="444.41,-163.84 449.98,-172.85 451.25,-162.33 444.41,-163.84"/>
</a>
</g>
</g>
<!-- Node7 -->
<g id="Node000007" class="node">
<title>Node7</title>
<g id="a_Node000007"><a xlink:href="edge__dector_8cpp.html" target="_top" xlink:title="This is the file that contains the edge (rising) dector class.">
<polygon fill="white" stroke="#666666" points="674.12,-138.75 481.12,-138.75 481.12,-116.5 674.12,-116.5 674.12,-138.75"/>
<text text-anchor="middle" x="577.62" y="-123.35" font-family="Arial" font-size="12.00">main/supporting/edge_dector.cpp</text>
</a>
</g>
</g>
<!-- Node1&#45;&gt;Node7 -->
<g id="edge8_Node000001_Node000007" class="edge">
<title>Node1&#45;&gt;Node7</title>
<g id="a_edge8_Node000001_Node000007"><a xlink:title=" ">
<path fill="none" stroke="#63b8ff" d="M486.45,-169.65C507.91,-160 535.13,-147.75 554.22,-139.16"/>
<polygon fill="#63b8ff" stroke="#63b8ff" points="485.2,-166.38 477.52,-173.67 488.07,-172.76 485.2,-166.38"/>
</a>
</g>
</g>
<!-- Node3 -->
<g id="Node000003" class="node">
<title>Node3</title>
<g id="a_Node000003"><a xlink:href="display__task_8h.html" target="_top" xlink:title="This is the file that contains the display task.">
<polygon fill="white" stroke="#666666" points="165.25,-80.5 0,-80.5 0,-58.25 165.25,-58.25 165.25,-80.5"/>
<text text-anchor="middle" x="82.62" y="-65.1" font-family="Arial" font-size="12.00">include/tasks/display_task.h</text>
</a>
</g>
</g>
<!-- Node2&#45;&gt;Node3 -->
<g id="edge2_Node000002_Node000003" class="edge">
<title>Node2&#45;&gt;Node3</title>
<g id="a_edge2_Node000002_Node000003"><a xlink:title=" ">
<path fill="none" stroke="#63b8ff" d="M250.96,-113.22C212.09,-103.33 159.91,-90.05 124.01,-80.91"/>
<polygon fill="#63b8ff" stroke="#63b8ff" points="250.04,-116.6 260.59,-115.67 251.76,-109.81 250.04,-116.6"/>
</a>
</g>
</g>
<!-- Node2&#45;&gt;Node4 -->
<g id="edge5_Node000002_Node000004" class="edge">
<title>Node2&#45;&gt;Node4</title>
<g id="a_edge5_Node000002_Node000004"><a xlink:title=" ">
<path fill="none" stroke="#63b8ff" d="M351.01,-111.85C367.18,-104.7 384.08,-94.53 395.62,-80.5 409.56,-63.57 413.3,-37.12 414.29,-22.58"/>
<polygon fill="#63b8ff" stroke="#63b8ff" points="349.88,-108.53 341.95,-115.55 352.53,-115.01 349.88,-108.53"/>
</a>
</g>
</g>
<!-- Node6 -->
<g id="Node000006" class="node">
<title>Node6</title>
<g id="a_Node000006"><a xlink:href="menu__handler_8cpp.html" target="_top" xlink:title="This is the file that contains the class for switching between menus.">
<polygon fill="white" stroke="#666666" points="386.38,-80.5 182.88,-80.5 182.88,-58.25 386.38,-58.25 386.38,-80.5"/>
<text text-anchor="middle" x="284.62" y="-65.1" font-family="Arial" font-size="12.00">main/supporting/menu_handler.cpp</text>
</a>
</g>
</g>
<!-- Node2&#45;&gt;Node6 -->
<g id="edge6_Node000002_Node000006" class="edge">
<title>Node2&#45;&gt;Node6</title>
<g id="a_edge6_Node000002_Node000006"><a xlink:title=" ">
<path fill="none" stroke="#63b8ff" d="M296.38,-105.18C293.57,-96.87 290.49,-87.73 288.18,-80.91"/>
<polygon fill="#63b8ff" stroke="#63b8ff" points="293.05,-106.26 299.57,-114.61 299.68,-104.02 293.05,-106.26"/>
</a>
</g>
</g>
<!-- Node3&#45;&gt;Node4 -->
<g id="edge3_Node000003_Node000004" class="edge">
<title>Node3&#45;&gt;Node4</title>
<g id="a_edge3_Node000003_Node000004"><a xlink:title=" ">
<path fill="none" stroke="#63b8ff" d="M156.36,-55.88C220.71,-44.98 312.17,-29.48 367.22,-20.16"/>
<polygon fill="#63b8ff" stroke="#63b8ff" points="155.84,-52.42 146.56,-57.54 157.01,-59.32 155.84,-52.42"/>
</a>
</g>
</g>
<!-- Node5 -->
<g id="Node000005" class="node">
<title>Node5</title>
<g id="a_Node000005"><a xlink:href="display__task_8cpp.html" target="_top" xlink:title="This is the file that contains the display task.">
<polygon fill="white" stroke="#666666" points="165.25,-22.25 0,-22.25 0,0 165.25,0 165.25,-22.25"/>
<text text-anchor="middle" x="82.62" y="-6.85" font-family="Arial" font-size="12.00">main/tasks/display_task.cpp</text>
</a>
</g>
</g>
<!-- Node3&#45;&gt;Node5 -->
<g id="edge4_Node000003_Node000005" class="edge">
<title>Node3&#45;&gt;Node5</title>
<g id="a_edge4_Node000003_Node000005"><a xlink:title=" ">
<path fill="none" stroke="#63b8ff" d="M82.62,-46.35C82.62,-38.2 82.62,-29.33 82.62,-22.66"/>
<polygon fill="#63b8ff" stroke="#63b8ff" points="79.13,-46.28 82.63,-56.28 86.13,-46.28 79.13,-46.28"/>
</a>
</g>
</g>
</g>
</svg>
