<?xml version="1.0" encoding="UTF-8" standalone="no"?>
<!DOCTYPE svg PUBLIC "-//W3C//DTD SVG 1.1//EN"
 "http://www.w3.org/Graphics/SVG/1.1/DTD/svg11.dtd">
<!-- Generated by graphviz version 12.2.1 (20241206.2353)
 -->
<!-- Title: include/supporting/edge_dector.h Pages: 1 -->
<!--zoomable 205 -->

<svg id="main" version="1.1" xmlns="http://www.w3.org/2000/svg" xmlns:xlink="http://www.w3.org/1999/xlink" xml:space="preserve" onload="init(evt)">

<style type="text/css"><![CDATA[
.node, .edge {opacity: 0.7;}
.node.selected, .edge.selected {opacity: 1;}
.edge:hover path { stroke: red; }
.edge:hover polygon { stroke: red; fill: red; }
]]></style>

<defs>
  <circle id="rim" cx="0" cy="0" r="7"/>
  <circle id="rim2" cx="0" cy="0" r="3.5"/>
  <g id="zoomPlus">
    <use xlink:href="#rim" fill="#404040"><set attributeName="fill" to="#808080" begin="zoomplus.mouseover" end="zoomplus.mouseout"/></use>
    <path d="M-4,0h8M0,-4v8" fill="none" stroke="white" stroke-width="1.5" pointer-events="none"/>
  </g>
  <g id="zoomMin">
    <use xlink:href="#rim" fill="#404040"><set attributeName="fill" to="#808080" begin="zoomminus.mouseover" end="zoomminus.mouseout"/></use>
    <path d="M-4,0h8" fill="none" stroke="white" stroke-width="1.5" pointer-events="none"/>
  </g>
  <g id="arrowUp" transform="translate(30 24)">
    <use xlink:href="#rim"/>
    <path pointer-events="none" fill="none" stroke="white" stroke-width="1.5" d="M0,-3.0v7 M-2.5,-0.5L0,-3.0L2.5,-0.5"/>
  </g>
  <g id="arrowRight" transform="rotate(90) translate(36 -43)">
    <use xlink:href="#rim"/>
    <path pointer-events="none" fill="none" stroke="white" stroke-width="1.5" d="M0,-3.0v7 M-2.5,-0.5L0,-3.0L2.5,-0.5"/>
  </g>
  <g id="arrowDown" transform="rotate(180) translate(-30 -48)">
    <use xlink:href="#rim"/>
    <path pointer-events="none" fill="none" stroke="white" stroke-width="1.5" d="M0,-3.0v7 M-2.5,-0.5L0,-3.0L2.5,-0.5"/>
  </g>
  <g id="arrowLeft" transform="rotate(270) translate(-36 17)">
    <use xlink:href="#rim"/>
    <path pointer-events="none" fill="none" stroke="white" stroke-width="1.5" d="M0,-3.0v7 M-2.5,-0.5L0,-3.0L2.5,-0.5"/>
  </g>
  <g id="resetDef">
    <use xlink:href="#rim2" fill="#404040"><set attributeName="fill" to="#808080" begin="reset.mouseover" end="reset.mouseout"/></use>
  </g>
</defs>
<script type="application/ecmascript">
var viewWidth = 682;
var viewHeight = 205;
var sectionId = 'dynsection-0';
</script>
<script type="application/ecmascript" xlink:href="svg.min.js"/>
<svg id="graph" class="graph">
<g id="viewport">
<title>include/supporting/edge_dector.h</title>
<!-- Node1 -->
<g id="Node000001" class="node">
<title>Node1</title>
<g id="a_Node000001"><a xlink:title="This is the file that contains the class for edge detection.">
<polygon fill="#999999" stroke="#666666" points="549.12,-197 356.12,-197 356.12,-174.75 549.12,-174.75 549.12,-197"/>
<text text-anchor="middle" x="452.62" y="-181.6" font-family="Arial" font-size="12.00">include/supporting/edge_dector.h</text>
</a>
</g>
</g>
<!-- Node2 -->
<g id="Node000002" class="node">
<title>Node2</title>
<g id="a_Node000002"><a xlink:href="menu__handler_8h.html" target="_top" xlink:title="This is the file that contains the class for switching between menus.">
<polygon fill="white" stroke="#666666" points="405.38,-138.75 201.88,-138.75 201.88,-116.5 405.38,-116.5 405.38,-138.75"/>
<text text-anchor="middle" x="303.62" y="-123.35" font-family="Arial" font-size="12.00">include/supporting/menu_handler.h</text>
</a>
</g>
</g>
<!-- Node1&#45;&gt;Node2 -->
<g id="edge1_Node000001_Node000002" class="edge">
<title>Node1&#45;&gt;Node2</title>
<g id="a_edge1_Node000001_Node000002"><a xlink:title=" ">
<path fill="none" stroke="#63b8ff" d="M414.04,-170.31C388.21,-160.56 354.8,-147.94 331.53,-139.16"/>
<polygon fill="#63b8ff" stroke="#63b8ff" points="412.59,-173.5 423.18,-173.76 415.06,-166.95 412.59,-173.5"/>
</a>
</g>
</g>
<!-- Node4 -->
<g id="Node000004" class="node">
<title>Node4</title>
<g id="a_Node000004"><a xlink:href="main_8cpp.html" target="_top" xlink:title="This is the file that contains the main function and all other tasks for the robot controller.">
<polygon fill="white" stroke="#666666" points="461.62,-22.25 367.62,-22.25 367.62,0 461.62,0 461.62,-22.25"/>
<text text-anchor="middle" x="414.62" y="-6.85" font-family="Arial" font-size="12.00">main/main.cpp</text>
</a>
</g>
</g>
<!-- Node1&#45;&gt;Node4 -->
<g id="edge7_Node000001_Node000004" class="edge">
<title>Node1&#45;&gt;Node4</title>
<g id="a_edge7_Node000001_Node000004"><a xlink:title=" ">
<path fill="none" stroke="#63b8ff" d="M447.86,-163.2C439.61,-125.72 422.99,-50.15 416.91,-22.53"/>
<polygon fill="#63b8ff" stroke="#63b8ff" points="444.41,-163.84 449.98,-172.85 451.25,-162.33 444.41,-163.84"/>
</a>
</g>
</g>
<!-- Node7 -->
<g id="Node000007" class="node">
<title>Node7</title>
<g id="a_Node000007"><a xlink:href="edge__dector_8cpp.html" target="_top" xlink:title="This is the file that contains the edge (rising) dector class.">
<polygon fill="white" stroke="#666666" points="674.12,-138.75 481.12,-138.75 481.12,-116.5 674.12,-116.5 674.12,-138.75"/>
<text text-anchor="middle" x="577.62" y="-123.35" font-family="Arial" font-size="12.00">main/supporting/edge_dector.cpp</text>
</a>
</g>
</g>
<!-- Node1&#45;&gt;Node7 -->
<g id="edge8_Node000001_Node000007" class="edge">
<title>Node1&#45;&gt;Node7</title>
<g id="a_edge8_Node000001_Node000007"><a xlink:title=" ">
<path fill="none" stroke="#63b8ff" d="M486.45,-169.65C507.91,-160 535.13,-147.75 554.22,-139.16"/>
<polygon fill="#63b8ff" stroke="#63b8ff" points="485.2,-166.38 477.52,-173.67 488.07,-172.76 485.2,-166.38"/>
</a>
</g>
</g>
<!-- Node3 -->
<g id="Node000003" class="node">
<title>Node3</title>
<g id="a_Node000003"><a xlink:href="display__task_8h.html" target="_top" xlink:title="This is the file that contains the display task.">
<polygon fill="white" stroke="#666666" points="165.25,-80.5 0,-80.5 0,-58.25 165.25,-58.25 165.25,-80.5"/>
<text text-anchor="middle" x="82.62" y="-65.1" font-family="Arial" font-size="12.00">include/tasks/display_task.h</text>
</a>
</g>
</g>
<!-- Node2&#45;&gt;Node3 -->
<g id="edge2_Node000002_Node000003" class="edge">
<title>Node2&#45;&gt;Node3</title>
<g id="a_edge2_Node000002_Node000003"><a xlink:title=" ">
<path fill="none" stroke="#63b8ff" d="M250.96,-113.22C212.09,-103.33 159.91,-90.05 124.01,-80.91"/>
<polygon fill="#63b8ff" stroke="#63b8ff" points="250.04,-116.6 260.59,-115.67 251.76,-109.81 250.04,-116.6"/>
</a>
</g>
</g>
<!-- Node2&#45;&gt;Node4 -->
<g id="edge5_Node000002_Node000004" class="edge">
<title>Node2&#45;&gt;Node4</title>
<g id="a_edge5_Node000002_Node000004"><a xlink:title=" ">
<path fill="none" stroke="#63b8ff" d="M351.01,-111.85C367.18,-104.7 384.08,-94.53 395.62,-80.5 409.56,-63.57 413.3,-37.12 414.29,-22.58"/>
<polygon fill="#63b8ff" stroke="#63b8ff" points="349.88,-108.53 341.95,-115.55 352.53,-115.01 349.88,-108.53"/>
</a>
</g>
</g>
<!-- Node6 -->
<g id="Node000006" class="node">
<title>Node6</title>
<g id="a_Node000006"><a xlink:href="menu__handler_8cpp.html" target="_top" xlink:title="This is the file that contains the class for switching between menus.">
<polygon fill="white" stroke="#666666" points="386.38,-80.5 182.88,-80.5 182.88,-58.25 386.38,-58.25 386.38,-80.5"/>
<text text-anchor="middle" x="284.62" y="-65.1" font-family="Arial" font-size="12.00">main/supporting/menu_handler.cpp</text>
</a>
</g>
</g>
<!-- Node2&#45;&gt;Node6 -->
<g id="edge6_Node000002_Node000006" class="edge">
<title>Node2&#45;&gt;Node6</title>
<g id="a_edge6_Node000002_Node000006"><a xlink:title=" ">
<path fill="none" stroke="#63b8ff" d="M296.38,-105.18C293.57,-96.87 290.49,-87.73 288.18,-80.91"/>
<polygon fill="#63b8ff" stroke="#63b8ff" points="293.05,-106.26 299.57,-114.61 299.68,-104.02 293.05,-106.26"/>
</a>
</g>
</g>
<!-- Node3&#45;&gt;Node4 -->
<g id="edge3_Node000003_Node000004" class="edge">
<title>Node3&#45;&gt;Node4</title>
<g id="a_edge3_Node000003_Node000004"><a xlink:title=" ">
<path fill="none" stroke="#63b8ff" d="M156.36,-55.88C220.71,-44.98 312.17,-29.48 367.22,-20.16"/>
<polygon fill="#63b8ff" stroke="#63b8ff" points="155.84,-52.42 146.56,-57.54 157.01,-59.32 155.84,-52.42"/>
</a>
</g>
</g>
<!-- Node5 -->
<g id="Node000005" class="node">
<title>Node5</title>
<g id="a_Node000005"><a xlink:href="display__task_8cpp.html" target="_top" xlink:title="This is the file that contains the display task.">
<polygon fill="white" stroke="#666666" points="165.25,-22.25 0,-22.25 0,0 165.25,0 165.25,-22.25"/>
<text text-anchor="middle" x="82.62" y="-6.85" font-family="Arial" font-size="12.00">main/tasks/display_task.cpp</text>
</a>
</g>
</g>
<!-- Node3&#45;&gt;Node5 -->
<g id="edge4_Node000003_Node000005" class="edge">
<title>Node3&#45;&gt;Node5</title>
<g id="a_edge4_Node000003_Node000005"><a xlink:title=" ">
<path fill="none" stroke="#63b8ff" d="M82.62,-46.35C82.62,-38.2 82.62,-29.33 82.62,-22.66"/>
<polygon fill="#63b8ff" stroke="#63b8ff" points="79.13,-46.28 82.63,-56.28 86.13,-46.28 79.13,-46.28"/>
</a>
</g>
</g>
</g>
</svg>

<g id="navigator" transform="translate(0 0)" fill="#404254">
  <rect fill="#f2f5e9" fill-opacity="0.5" stroke="#606060" stroke-width=".5" x="0" y="0" width="60" height="60"/>
  <use id="zoomplus" xlink:href="#zoomPlus" x="17" y="9" onmousedown="handleZoom(evt,'in')"/>
  <use id="zoomminus" xlink:href="#zoomMin" x="42" y="9" onmousedown="handleZoom(evt,'out')"/>
  <use id="reset" xlink:href="#resetDef" x="30" y="36" onmousedown="handleReset()"/>
   <use id="arrowup" xlink:href="#arrowUp" x="0" y="0" onmousedown="handlePan(0,-1)"/>
  <use id="arrowright" xlink:href="#arrowRight" x="0" y="0" onmousedown="handlePan(1,0)"/>
  <use id="arrowdown" xlink:href="#arrowDown" x="0" y="0" onmousedown="handlePan(0,1)"/>
  <use id="arrowleft" xlink:href="#arrowLeft" x="0" y="0" onmousedown="handlePan(-1,0)"/>
</g>
<svg viewBox="0 0 15 15" width="100%" height="30px" preserveAspectRatio="xMaxYMin meet">
 <g id="arrow_out" transform="scale(0.3 0.3)">
  <a xlink:href="edge__dector_8h__dep__incl_org.svg" target="_base">
   <rect id="button" ry="5" rx="5" y="6" x="6" height="38" width="38"
        fill="#f2f5e9" fill-opacity="0.5" stroke="#606060" stroke-width="1.0"/>
   <path id="arrow"
     d="M 11.500037,31.436501 C 11.940474,20.09759 22.043105,11.32322 32.158766,21.979434 L 37.068811,17.246167 C 37.068811,17.246167 37.088388,32 37.088388,32 L 22.160133,31.978069 C 22.160133,31.978069 26.997745,27.140456 26.997745,27.140456 C 18.528582,18.264221 13.291696,25.230495 11.500037,31.436501 z"
     style="fill:#404040;"/>
  </a>
 </g>
</svg>

<style type='text/css'>
<![CDATA[
[data-mouse-over-selected='false'] { opacity: 0.7; }
[data-mouse-over-selected='true']  { opacity: 1.0; }
]]>
</style>
<script type="application/ecmascript"><![CDATA[
document.addEventListener('DOMContentLoaded', (event) => {
  highlightEdges();
  highlightAdjacentNodes();
});
]]></script>
</svg>
