<?xml version="1.0" encoding="UTF-8" standalone="no"?>
<!DOCTYPE svg PUBLIC "-//W3C//DTD SVG 1.1//EN"
 "http://www.w3.org/Graphics/SVG/1.1/DTD/svg11.dtd">
<!-- Generated by graphviz version 12.2.1 (20241206.2353)
 -->
<!-- Title: include/setup/esp_now_callback_setup.h Pages: 1 -->
<svg width="521pt" height="147pt"
 viewBox="0.00 0.00 520.88 146.75" xmlns="http://www.w3.org/2000/svg" xmlns:xlink="http://www.w3.org/1999/xlink">
<g id="graph0" class="graph" transform="scale(1 1) rotate(0) translate(4 142.75)">
<title>include/setup/esp_now_callback_setup.h</title>
<!-- Node1 -->
<g id="Node000001" class="node">
<title>Node1</title>
<g id="a_Node000001"><a xlink:title="Contains the callback functions for esp&#45;now.">
<polygon fill="#999999" stroke="#666666" points="284.88,-138.75 49.12,-138.75 49.12,-116.5 284.88,-116.5 284.88,-138.75"/>
<text text-anchor="middle" x="167" y="-123.35" font-family="Arial" font-size="12.00">include/setup/esp_now_callback_setup.h</text>
</a>
</g>
</g>
<!-- Node2 -->
<g id="Node000002" class="node">
<title>Node2</title>
<g id="a_Node000002"><a xlink:href="esp__now__setup_8h.html" target="_top" xlink:title="Contains the code that sets up the ESP&#45;NOW communication.">
<polygon fill="white" stroke="#666666" points="259.38,-80.5 74.62,-80.5 74.62,-58.25 259.38,-58.25 259.38,-80.5"/>
<text text-anchor="middle" x="167" y="-65.1" font-family="Arial" font-size="12.00">include/setup/esp_now_setup.h</text>
</a>
</g>
</g>
<!-- Node1&#45;&gt;Node2 -->
<g id="edge1_Node000001_Node000002" class="edge">
<title>Node1&#45;&gt;Node2</title>
<g id="a_edge1_Node000001_Node000002"><a xlink:title=" ">
<path fill="none" stroke="#63b8ff" d="M167,-104.6C167,-96.45 167,-87.58 167,-80.91"/>
<polygon fill="#63b8ff" stroke="#63b8ff" points="163.5,-104.53 167,-114.53 170.5,-104.53 163.5,-104.53"/>
</a>
</g>
</g>
<!-- Node3 -->
<g id="Node000003" class="node">
<title>Node3</title>
<g id="a_Node000003"><a xlink:href="main_8cpp.html" target="_top" xlink:title="This is the file that contains the main function and all other tasks for the robot controller.">
<polygon fill="white" stroke="#666666" points="94,-22.25 0,-22.25 0,0 94,0 94,-22.25"/>
<text text-anchor="middle" x="47" y="-6.85" font-family="Arial" font-size="12.00">main/main.cpp</text>
</a>
</g>
</g>
<!-- Node1&#45;&gt;Node3 -->
<g id="edge4_Node000001_Node000003" class="edge">
<title>Node1&#45;&gt;Node3</title>
<g id="a_edge4_Node000001_Node000003"><a xlink:title=" ">
<path fill="none" stroke="#63b8ff" d="M113.16,-112.05C95.99,-105.02 78.28,-94.89 66,-80.5 51.76,-63.82 48.14,-37.28 47.25,-22.65"/>
<polygon fill="#63b8ff" stroke="#63b8ff" points="111.72,-115.25 122.31,-115.5 114.19,-108.7 111.72,-115.25"/>
</a>
</g>
</g>
<!-- Node5 -->
<g id="Node000005" class="node">
<title>Node5</title>
<g id="a_Node000005"><a xlink:href="esp__now__callback__setup_8cpp.html" target="_top" xlink:title="source file that sets up esp&#45;now callbacks">
<polygon fill="white" stroke="#666666" points="512.88,-80.5 277.12,-80.5 277.12,-58.25 512.88,-58.25 512.88,-80.5"/>
<text text-anchor="middle" x="395" y="-65.1" font-family="Arial" font-size="12.00">main/setup/esp_now_callback_setup.cpp</text>
</a>
</g>
</g>
<!-- Node1&#45;&gt;Node5 -->
<g id="edge5_Node000001_Node000005" class="edge">
<title>Node1&#45;&gt;Node5</title>
<g id="a_edge5_Node000001_Node000005"><a xlink:title=" ">
<path fill="none" stroke="#63b8ff" d="M220.82,-113.35C260.98,-103.44 315.11,-90.09 352.31,-80.91"/>
<polygon fill="#63b8ff" stroke="#63b8ff" points="220.23,-109.89 211.35,-115.68 221.9,-116.69 220.23,-109.89"/>
</a>
</g>
</g>
<!-- Node2&#45;&gt;Node3 -->
<g id="edge2_Node000002_Node000003" class="edge">
<title>Node2&#45;&gt;Node3</title>
<g id="a_edge2_Node000002_Node000003"><a xlink:title=" ">
<path fill="none" stroke="#63b8ff" d="M134.24,-53.02C113.68,-43.38 87.71,-31.21 69.47,-22.66"/>
<polygon fill="#63b8ff" stroke="#63b8ff" points="132.52,-56.08 143.06,-57.15 135.49,-49.74 132.52,-56.08"/>
</a>
</g>
</g>
<!-- Node4 -->
<g id="Node000004" class="node">
<title>Node4</title>
<g id="a_Node000004"><a xlink:href="esp__now__setup_8cpp.html" target="_top" xlink:title="source file that sets up esp&#45;now">
<polygon fill="white" stroke="#666666" points="296.38,-22.25 111.62,-22.25 111.62,0 296.38,0 296.38,-22.25"/>
<text text-anchor="middle" x="204" y="-6.85" font-family="Arial" font-size="12.00">main/setup/esp_now_setup.cpp</text>
</a>
</g>
</g>
<!-- Node2&#45;&gt;Node4 -->
<g id="edge3_Node000002_Node000004" class="edge">
<title>Node2&#45;&gt;Node4</title>
<g id="a_edge3_Node000002_Node000004"><a xlink:title=" ">
<path fill="none" stroke="#63b8ff" d="M180.17,-48.35C185.88,-39.67 192.32,-29.87 197.07,-22.66"/>
<polygon fill="#63b8ff" stroke="#63b8ff" points="177.36,-46.25 174.79,-56.53 183.21,-50.1 177.36,-46.25"/>
</a>
</g>
</g>
</g>
</svg>
