<?xml version="1.0" encoding="UTF-8" standalone="no"?>
<!DOCTYPE svg PUBLIC "-//W3C//DTD SVG 1.1//EN"
 "http://www.w3.org/Graphics/SVG/1.1/DTD/svg11.dtd">
<!-- Generated by graphviz version 12.2.1 (20241206.2353)
 -->
<!-- Title: include/setup/esp_now_setup.h Pages: 1 -->
<svg width="304pt" height="89pt"
 viewBox="0.00 0.00 304.38 88.50" xmlns="http://www.w3.org/2000/svg" xmlns:xlink="http://www.w3.org/1999/xlink">
<g id="graph0" class="graph" transform="scale(1 1) rotate(0) translate(4 84.5)">
<title>include/setup/esp_now_setup.h</title>
<!-- Node1 -->
<g id="Node000001" class="node">
<title>Node1</title>
<g id="a_Node000001"><a xlink:title="Contains the code that sets up the ESP&#45;NOW communication.">
<polygon fill="#999999" stroke="#666666" points="217.38,-80.5 32.62,-80.5 32.62,-58.25 217.38,-58.25 217.38,-80.5"/>
<text text-anchor="middle" x="125" y="-65.1" font-family="Arial" font-size="12.00">include/setup/esp_now_setup.h</text>
</a>
</g>
</g>
<!-- Node2 -->
<g id="Node000002" class="node">
<title>Node2</title>
<g id="a_Node000002"><a xlink:href="main_8cpp.html" target="_top" xlink:title="This is the file that contains the main function and all other tasks for the robot controller.">
<polygon fill="white" stroke="#666666" points="94,-22.25 0,-22.25 0,0 94,0 94,-22.25"/>
<text text-anchor="middle" x="47" y="-6.85" font-family="Arial" font-size="12.00">main/main.cpp</text>
</a>
</g>
</g>
<!-- Node1&#45;&gt;Node2 -->
<g id="edge1_Node000001_Node000002" class="edge">
<title>Node1&#45;&gt;Node2</title>
<g id="a_edge1_Node000001_Node000002"><a xlink:title=" ">
<path fill="none" stroke="#63b8ff" d="M101.09,-51.13C88.2,-41.83 72.7,-30.66 61.61,-22.66"/>
<polygon fill="#63b8ff" stroke="#63b8ff" points="98.94,-53.9 109.1,-56.91 103.04,-48.22 98.94,-53.9"/>
</a>
</g>
</g>
<!-- Node3 -->
<g id="Node000003" class="node">
<title>Node3</title>
<g id="a_Node000003"><a xlink:href="esp__now__setup_8cpp.html" target="_top" xlink:title="source file that sets up esp&#45;now">
<polygon fill="white" stroke="#666666" points="296.38,-22.25 111.62,-22.25 111.62,0 296.38,0 296.38,-22.25"/>
<text text-anchor="middle" x="204" y="-6.85" font-family="Arial" font-size="12.00">main/setup/esp_now_setup.cpp</text>
</a>
</g>
</g>
<!-- Node1&#45;&gt;Node3 -->
<g id="edge2_Node000001_Node000003" class="edge">
<title>Node1&#45;&gt;Node3</title>
<g id="a_edge2_Node000001_Node000003"><a xlink:title=" ">
<path fill="none" stroke="#63b8ff" d="M149.21,-51.13C162.27,-41.83 177.97,-30.66 189.21,-22.66"/>
<polygon fill="#63b8ff" stroke="#63b8ff" points="147.21,-48.27 141.09,-56.92 151.27,-53.97 147.21,-48.27"/>
</a>
</g>
</g>
</g>
</svg>
