<?xml version="1.0" encoding="UTF-8" standalone="no"?>
<!DOCTYPE svg PUBLIC "-//W3C//DTD SVG 1.1//EN"
 "http://www.w3.org/Graphics/SVG/1.1/DTD/svg11.dtd">
<!-- Generated by graphviz version 12.2.1 (20241206.2353)
 -->
<!-- Title: main/setup/esp_now_setup.cpp Pages: 1 -->
<!--zoomable 263 -->

<svg id="main" version="1.1" xmlns="http://www.w3.org/2000/svg" xmlns:xlink="http://www.w3.org/1999/xlink" xml:space="preserve" onload="init(evt)">

<style type="text/css"><![CDATA[
.node, .edge {opacity: 0.7;}
.node.selected, .edge.selected {opacity: 1;}
.edge:hover path { stroke: red; }
.edge:hover polygon { stroke: red; fill: red; }
]]></style>

<defs>
  <circle id="rim" cx="0" cy="0" r="7"/>
  <circle id="rim2" cx="0" cy="0" r="3.5"/>
  <g id="zoomPlus">
    <use xlink:href="#rim" fill="#404040"><set attributeName="fill" to="#808080" begin="zoomplus.mouseover" end="zoomplus.mouseout"/></use>
    <path d="M-4,0h8M0,-4v8" fill="none" stroke="white" stroke-width="1.5" pointer-events="none"/>
  </g>
  <g id="zoomMin">
    <use xlink:href="#rim" fill="#404040"><set attributeName="fill" to="#808080" begin="zoomminus.mouseover" end="zoomminus.mouseout"/></use>
    <path d="M-4,0h8" fill="none" stroke="white" stroke-width="1.5" pointer-events="none"/>
  </g>
  <g id="arrowUp" transform="translate(30 24)">
    <use xlink:href="#rim"/>
    <path pointer-events="none" fill="none" stroke="white" stroke-width="1.5" d="M0,-3.0v7 M-2.5,-0.5L0,-3.0L2.5,-0.5"/>
  </g>
  <g id="arrowRight" transform="rotate(90) translate(36 -43)">
    <use xlink:href="#rim"/>
    <path pointer-events="none" fill="none" stroke="white" stroke-width="1.5" d="M0,-3.0v7 M-2.5,-0.5L0,-3.0L2.5,-0.5"/>
  </g>
  <g id="arrowDown" transform="rotate(180) translate(-30 -48)">
    <use xlink:href="#rim"/>
    <path pointer-events="none" fill="none" stroke="white" stroke-width="1.5" d="M0,-3.0v7 M-2.5,-0.5L0,-3.0L2.5,-0.5"/>
  </g>
  <g id="arrowLeft" transform="rotate(270) translate(-36 17)">
    <use xlink:href="#rim"/>
    <path pointer-events="none" fill="none" stroke="white" stroke-width="1.5" d="M0,-3.0v7 M-2.5,-0.5L0,-3.0L2.5,-0.5"/>
  </g>
  <g id="resetDef">
    <use xlink:href="#rim2" fill="#404040"><set attributeName="fill" to="#808080" begin="reset.mouseover" end="reset.mouseout"/></use>
  </g>
</defs>
<script type="application/ecmascript">
var viewWidth = 2548;
var viewHeight = 263;
var sectionId = 'dynsection-0';
</script>
<script type="application/ecmascript" xlink:href="svg.min.js"/>
<svg id="graph" class="graph">
<g id="viewport">
<title>main/setup/esp_now_setup.cpp</title>
<!-- Node1 -->
<g id="Node000001" class="node">
<title>Node1</title>
<g id="a_Node000001"><a xlink:title="source file that sets up esp&#45;now">
<polygon fill="#999999" stroke="#666666" points="1363,-255.25 1178.25,-255.25 1178.25,-233 1363,-233 1363,-255.25"/>
<text text-anchor="middle" x="1270.62" y="-239.85" font-family="Arial" font-size="12.00">main/setup/esp_now_setup.cpp</text>
</a>
</g>
</g>
<!-- Node2 -->
<g id="Node000002" class="node">
<title>Node2</title>
<g id="a_Node000002"><a xlink:href="esp__now__setup_8h.html" target="_top" xlink:title="Contains the code that sets up the ESP&#45;NOW communication.">
<polygon fill="white" stroke="#666666" points="1372,-197 1169.25,-197 1169.25,-174.75 1372,-174.75 1372,-197"/>
<text text-anchor="middle" x="1270.62" y="-181.6" font-family="Arial" font-size="12.00">../../include/setup/esp_now_setup.h</text>
</a>
</g>
</g>
<!-- Node1&#45;&gt;Node2 -->
<g id="edge1_Node000001_Node000002" class="edge">
<title>Node1&#45;&gt;Node2</title>
<g id="a_edge1_Node000001_Node000002"><a xlink:title=" ">
<path fill="none" stroke="#63b8ff" d="M1270.62,-232.54C1270.62,-225.87 1270.62,-216.99 1270.62,-208.84"/>
<polygon fill="#63b8ff" stroke="#63b8ff" points="1274.13,-208.92 1270.63,-198.92 1267.13,-208.92 1274.13,-208.92"/>
</a>
</g>
</g>
<!-- Node3 -->
<g id="Node000003" class="node">
<title>Node3</title>
<g id="a_Node000003"><a xlink:href="all__includes_8h.html" target="_top" xlink:title="Contains the system wide includes for esp&#45;idf and c++, along with structs and enums.">
<polygon fill="white" stroke="#666666" points="1267.25,-80.5 1168,-80.5 1168,-58.25 1267.25,-58.25 1267.25,-80.5"/>
<text text-anchor="middle" x="1217.62" y="-65.1" font-family="Arial" font-size="12.00">../all_includes.h</text>
</a>
</g>
</g>
<!-- Node2&#45;&gt;Node3 -->
<g id="edge2_Node000002_Node000003" class="edge">
<title>Node2&#45;&gt;Node3</title>
<g id="a_edge2_Node000002_Node000003"><a xlink:title=" ">
<path fill="none" stroke="#63b8ff" d="M1229.31,-174.35C1211.06,-167.42 1191.34,-156.28 1180.62,-138.75 1170.54,-122.25 1183.33,-102.8 1196.55,-88.88"/>
<polygon fill="#63b8ff" stroke="#63b8ff" points="1198.84,-91.54 1203.56,-82.05 1193.95,-86.52 1198.84,-91.54"/>
</a>
</g>
</g>
<!-- Node30 -->
<g id="Node000030" class="node">
<title>Node30</title>
<g id="a_Node000030"><a xlink:href="pinout_8h.html" target="_top" xlink:title="This is the file that contains the pinout and other configuration information.">
<polygon fill="white" stroke="#666666" points="1356.5,-80.5 1288.75,-80.5 1288.75,-58.25 1356.5,-58.25 1356.5,-80.5"/>
<text text-anchor="middle" x="1322.62" y="-65.1" font-family="Arial" font-size="12.00">../pinout.h</text>
</a>
</g>
</g>
<!-- Node2&#45;&gt;Node30 -->
<g id="edge29_Node000002_Node000030" class="edge">
<title>Node2&#45;&gt;Node30</title>
<g id="a_edge29_Node000002_Node000030"><a xlink:title=" ">
<path fill="none" stroke="#63b8ff" d="M1311.94,-174.35C1330.19,-167.42 1349.91,-156.28 1360.62,-138.75 1370.77,-122.15 1357.66,-102.71 1344.15,-88.82"/>
<polygon fill="#63b8ff" stroke="#63b8ff" points="1346.64,-86.36 1336.98,-82 1341.81,-91.43 1346.64,-86.36"/>
</a>
</g>
</g>
<!-- Node31 -->
<g id="Node000031" class="node">
<title>Node31</title>
<g id="a_Node000031"><a xlink:href="esp__now__callback__setup_8h.html" target="_top" xlink:title="Contains the callback functions for esp&#45;now.">
<polygon fill="white" stroke="#666666" points="1351.38,-138.75 1189.88,-138.75 1189.88,-116.5 1351.38,-116.5 1351.38,-138.75"/>
<text text-anchor="middle" x="1270.62" y="-123.35" font-family="Arial" font-size="12.00">esp_now_callback_setup.h</text>
</a>
</g>
</g>
<!-- Node2&#45;&gt;Node31 -->
<g id="edge30_Node000002_Node000031" class="edge">
<title>Node2&#45;&gt;Node31</title>
<g id="a_edge30_Node000002_Node000031"><a xlink:title=" ">
<path fill="none" stroke="#63b8ff" d="M1270.62,-174.29C1270.62,-167.62 1270.62,-158.74 1270.62,-150.59"/>
<polygon fill="#63b8ff" stroke="#63b8ff" points="1274.13,-150.67 1270.63,-140.67 1267.13,-150.67 1274.13,-150.67"/>
</a>
</g>
</g>
<!-- Node4 -->
<g id="Node000004" class="node">
<title>Node4</title>
<g id="a_Node000004"><a xlink:title=" ">
<polygon fill="#e0e0e0" stroke="#999999" points="51.25,-22.25 0,-22.25 0,0 51.25,0 51.25,-22.25"/>
<text text-anchor="middle" x="25.62" y="-6.85" font-family="Arial" font-size="12.00">atomic</text>
</a>
</g>
</g>
<!-- Node3&#45;&gt;Node4 -->
<g id="edge3_Node000003_Node000004" class="edge">
<title>Node3&#45;&gt;Node4</title>
<g id="a_edge3_Node000003_Node000004"><a xlink:title=" ">
<path fill="none" stroke="#63b8ff" d="M1167.71,-67.99C978.01,-66.28 300.96,-57.87 62.8,-22.13"/>
<polygon fill="#63b8ff" stroke="#63b8ff" points="63.38,-18.68 52.95,-20.59 62.29,-25.59 63.38,-18.68"/>
</a>
</g>
</g>
<!-- Node5 -->
<g id="Node000005" class="node">
<title>Node5</title>
<g id="a_Node000005"><a xlink:title=" ">
<polygon fill="#e0e0e0" stroke="#999999" points="134,-22.25 69.25,-22.25 69.25,0 134,0 134,-22.25"/>
<text text-anchor="middle" x="101.62" y="-6.85" font-family="Arial" font-size="12.00">stdbool.h</text>
</a>
</g>
</g>
<!-- Node3&#45;&gt;Node5 -->
<g id="edge4_Node000003_Node000005" class="edge">
<title>Node3&#45;&gt;Node5</title>
<g id="a_edge4_Node000003_Node000005"><a xlink:title=" ">
<path fill="none" stroke="#63b8ff" d="M1167.56,-67.55C986.62,-64.37 366.12,-51.64 145.33,-22.33"/>
<polygon fill="#63b8ff" stroke="#63b8ff" points="146.07,-18.9 135.68,-20.99 145.11,-25.83 146.07,-18.9"/>
</a>
</g>
</g>
<!-- Node6 -->
<g id="Node000006" class="node">
<title>Node6</title>
<g id="a_Node000006"><a xlink:title=" ">
<polygon fill="#e0e0e0" stroke="#999999" points="203.25,-22.25 152,-22.25 152,0 203.25,0 203.25,-22.25"/>
<text text-anchor="middle" x="177.62" y="-6.85" font-family="Arial" font-size="12.00">stdio.h</text>
</a>
</g>
</g>
<!-- Node3&#45;&gt;Node6 -->
<g id="edge5_Node000003_Node000006" class="edge">
<title>Node3&#45;&gt;Node6</title>
<g id="a_edge5_Node000003_Node000006"><a xlink:title=" ">
<path fill="none" stroke="#63b8ff" d="M1167.72,-67.69C994.72,-65.08 420.52,-54.31 214.73,-22.36"/>
<polygon fill="#63b8ff" stroke="#63b8ff" points="215.39,-18.92 204.95,-20.77 214.26,-25.83 215.39,-18.92"/>
</a>
</g>
</g>
<!-- Node7 -->
<g id="Node000007" class="node">
<title>Node7</title>
<g id="a_Node000007"><a xlink:title=" ">
<polygon fill="#e0e0e0" stroke="#999999" points="276.12,-22.25 221.12,-22.25 221.12,0 276.12,0 276.12,-22.25"/>
<text text-anchor="middle" x="248.62" y="-6.85" font-family="Arial" font-size="12.00">string.h</text>
</a>
</g>
</g>
<!-- Node3&#45;&gt;Node7 -->
<g id="edge6_Node000003_Node000007" class="edge">
<title>Node3&#45;&gt;Node7</title>
<g id="a_edge6_Node000003_Node000007"><a xlink:title=" ">
<path fill="none" stroke="#63b8ff" d="M1167.62,-67.38C1003.07,-63.9 478.57,-50.92 287.67,-22.37"/>
<polygon fill="#63b8ff" stroke="#63b8ff" points="288.31,-18.93 277.89,-20.84 287.23,-25.84 288.31,-18.93"/>
</a>
</g>
</g>
<!-- Node8 -->
<g id="Node000008" class="node">
<title>Node8</title>
<g id="a_Node000008"><a xlink:title=" ">
<polygon fill="#e0e0e0" stroke="#999999" points="339.25,-22.25 294,-22.25 294,0 339.25,0 339.25,-22.25"/>
<text text-anchor="middle" x="316.62" y="-6.85" font-family="Arial" font-size="12.00">string</text>
</a>
</g>
</g>
<!-- Node3&#45;&gt;Node8 -->
<g id="edge7_Node000003_Node000008" class="edge">
<title>Node3&#45;&gt;Node8</title>
<g id="a_edge7_Node000003_Node000008"><a xlink:title=" ">
<path fill="none" stroke="#63b8ff" d="M1167.62,-67.45C1010.64,-64.27 527.98,-52.42 350.7,-22.34"/>
<polygon fill="#63b8ff" stroke="#63b8ff" points="351.42,-18.91 340.96,-20.6 350.19,-25.8 351.42,-18.91"/>
</a>
</g>
</g>
<!-- Node9 -->
<g id="Node000009" class="node">
<title>Node9</title>
<g id="a_Node000009"><a xlink:title=" ">
<polygon fill="#e0e0e0" stroke="#999999" points="482.38,-22.25 356.88,-22.25 356.88,0 482.38,0 482.38,-22.25"/>
<text text-anchor="middle" x="419.62" y="-6.85" font-family="Arial" font-size="12.00">freertos/FreeRTOS.h</text>
</a>
</g>
</g>
<!-- Node3&#45;&gt;Node9 -->
<g id="edge8_Node000003_Node000009" class="edge">
<title>Node3&#45;&gt;Node9</title>
<g id="a_edge8_Node000003_Node000009"><a xlink:title=" ">
<path fill="none" stroke="#63b8ff" d="M1167.71,-66.56C1051.39,-62.03 753.05,-48.74 493.84,-22.52"/>
<polygon fill="#63b8ff" stroke="#63b8ff" points="494.5,-19.07 484.2,-21.53 493.79,-26.03 494.5,-19.07"/>
</a>
</g>
</g>
<!-- Node10 -->
<g id="Node000010" class="node">
<title>Node10</title>
<g id="a_Node000010"><a xlink:title=" ">
<polygon fill="#e0e0e0" stroke="#999999" points="641.25,-22.25 500,-22.25 500,0 641.25,0 641.25,-22.25"/>
<text text-anchor="middle" x="570.62" y="-6.85" font-family="Arial" font-size="12.00">freertos/event_groups.h</text>
</a>
</g>
</g>
<!-- Node3&#45;&gt;Node10 -->
<g id="edge9_Node000003_Node000010" class="edge">
<title>Node3&#45;&gt;Node10</title>
<g id="a_edge9_Node000003_Node000010"><a xlink:title=" ">
<path fill="none" stroke="#63b8ff" d="M1167.88,-65.08C1071.02,-58.5 850.07,-42.69 653.15,-22.47"/>
<polygon fill="#63b8ff" stroke="#63b8ff" points="653.52,-18.99 643.21,-21.44 652.8,-25.95 653.52,-18.99"/>
</a>
</g>
</g>
<!-- Node11 -->
<g id="Node000011" class="node">
<title>Node11</title>
<g id="a_Node000011"><a xlink:title=" ">
<polygon fill="#e0e0e0" stroke="#999999" points="761.75,-22.25 659.5,-22.25 659.5,0 761.75,0 761.75,-22.25"/>
<text text-anchor="middle" x="710.62" y="-6.85" font-family="Arial" font-size="12.00">freertos/queue.h</text>
</a>
</g>
</g>
<!-- Node3&#45;&gt;Node11 -->
<g id="edge10_Node000003_Node000011" class="edge">
<title>Node3&#45;&gt;Node11</title>
<g id="a_edge10_Node000003_Node000011"><a xlink:title=" ">
<path fill="none" stroke="#63b8ff" d="M1167.56,-64.27C1086.79,-57.41 922.5,-42.51 773.16,-22.52"/>
<polygon fill="#63b8ff" stroke="#63b8ff" points="773.86,-19.09 763.48,-21.22 772.92,-26.02 773.86,-19.09"/>
</a>
</g>
</g>
<!-- Node12 -->
<g id="Node000012" class="node">
<title>Node12</title>
<g id="a_Node000012"><a xlink:title=" ">
<polygon fill="#e0e0e0" stroke="#999999" points="869.75,-22.25 779.5,-22.25 779.5,0 869.75,0 869.75,-22.25"/>
<text text-anchor="middle" x="824.62" y="-6.85" font-family="Arial" font-size="12.00">freertos/task.h</text>
</a>
</g>
</g>
<!-- Node3&#45;&gt;Node12 -->
<g id="edge11_Node000003_Node000012" class="edge">
<title>Node3&#45;&gt;Node12</title>
<g id="a_edge11_Node000003_Node000012"><a xlink:title=" ">
<path fill="none" stroke="#63b8ff" d="M1167.54,-62.36C1103.48,-54.48 988.87,-39.81 881.05,-22.58"/>
<polygon fill="#63b8ff" stroke="#63b8ff" points="881.89,-19.17 871.46,-21.04 880.78,-26.08 881.89,-19.17"/>
</a>
</g>
</g>
<!-- Node13 -->
<g id="Node000013" class="node">
<title>Node13</title>
<g id="a_Node000013"><a xlink:title=" ">
<polygon fill="#e0e0e0" stroke="#999999" points="941.38,-22.25 887.88,-22.25 887.88,0 941.38,0 941.38,-22.25"/>
<text text-anchor="middle" x="914.62" y="-6.85" font-family="Arial" font-size="12.00">errno.h</text>
</a>
</g>
</g>
<!-- Node3&#45;&gt;Node13 -->
<g id="edge12_Node000003_Node000013" class="edge">
<title>Node3&#45;&gt;Node13</title>
<g id="a_edge12_Node000003_Node000013"><a xlink:title=" ">
<path fill="none" stroke="#63b8ff" d="M1167.62,-61.31C1116.06,-53.68 1033.15,-40.43 952.52,-22.5"/>
<polygon fill="#63b8ff" stroke="#63b8ff" points="953.68,-19.17 943.15,-20.39 952.14,-26 953.68,-19.17"/>
</a>
</g>
</g>
<!-- Node14 -->
<g id="Node000014" class="node">
<title>Node14</title>
<g id="a_Node000014"><a xlink:title=" ">
<polygon fill="#e0e0e0" stroke="#999999" points="1025.38,-22.25 959.88,-22.25 959.88,0 1025.38,0 1025.38,-22.25"/>
<text text-anchor="middle" x="992.62" y="-6.85" font-family="Arial" font-size="12.00">esp_err.h</text>
</a>
</g>
</g>
<!-- Node3&#45;&gt;Node14 -->
<g id="edge13_Node000003_Node000014" class="edge">
<title>Node3&#45;&gt;Node14</title>
<g id="a_edge13_Node000003_Node000014"><a xlink:title=" ">
<path fill="none" stroke="#63b8ff" d="M1175.3,-57.79C1135.71,-47.9 1076.81,-33.17 1036.67,-23.14"/>
<polygon fill="#63b8ff" stroke="#63b8ff" points="1037.64,-19.77 1027.09,-20.74 1035.94,-26.56 1037.64,-19.77"/>
</a>
</g>
</g>
<!-- Node15 -->
<g id="Node000015" class="node">
<title>Node15</title>
<g id="a_Node000015"><a xlink:title=" ">
<polygon fill="#e0e0e0" stroke="#999999" points="1111.88,-22.25 1043.38,-22.25 1043.38,0 1111.88,0 1111.88,-22.25"/>
<text text-anchor="middle" x="1077.62" y="-6.85" font-family="Arial" font-size="12.00">esp_log.h</text>
</a>
</g>
</g>
<!-- Node3&#45;&gt;Node15 -->
<g id="edge14_Node000003_Node000015" class="edge">
<title>Node3&#45;&gt;Node15</title>
<g id="a_edge14_Node000003_Node000015"><a xlink:title=" ">
<path fill="none" stroke="#63b8ff" d="M1191.29,-57.79C1169.59,-49.07 1138.55,-36.61 1114.4,-26.9"/>
<polygon fill="#63b8ff" stroke="#63b8ff" points="1115.83,-23.7 1105.24,-23.22 1113.22,-30.2 1115.83,-23.7"/>
</a>
</g>
</g>
<!-- Node16 -->
<g id="Node000016" class="node">
<title>Node16</title>
<g id="a_Node000016"><a xlink:title=" ">
<polygon fill="#e0e0e0" stroke="#999999" points="1204.88,-22.25 1130.38,-22.25 1130.38,0 1204.88,0 1204.88,-22.25"/>
<text text-anchor="middle" x="1167.62" y="-6.85" font-family="Arial" font-size="12.00">esp_mac.h</text>
</a>
</g>
</g>
<!-- Node3&#45;&gt;Node16 -->
<g id="edge15_Node000003_Node000016" class="edge">
<title>Node3&#45;&gt;Node16</title>
<g id="a_edge15_Node000003_Node000016"><a xlink:title=" ">
<path fill="none" stroke="#63b8ff" d="M1208.22,-57.79C1201.59,-50.33 1192.51,-40.12 1184.62,-31.25"/>
<polygon fill="#63b8ff" stroke="#63b8ff" points="1187.25,-28.94 1177.99,-23.79 1182.02,-33.59 1187.25,-28.94"/>
</a>
</g>
</g>
<!-- Node17 -->
<g id="Node000017" class="node">
<title>Node17</title>
<g id="a_Node000017"><a xlink:title=" ">
<polygon fill="#e0e0e0" stroke="#999999" points="1312.38,-22.25 1222.88,-22.25 1222.88,0 1312.38,0 1312.38,-22.25"/>
<text text-anchor="middle" x="1267.62" y="-6.85" font-family="Arial" font-size="12.00">esp_system.h</text>
</a>
</g>
</g>
<!-- Node3&#45;&gt;Node17 -->
<g id="edge16_Node000003_Node000017" class="edge">
<title>Node3&#45;&gt;Node17</title>
<g id="a_edge16_Node000003_Node000017"><a xlink:title=" ">
<path fill="none" stroke="#63b8ff" d="M1227.03,-57.79C1233.66,-50.33 1242.74,-40.12 1250.63,-31.25"/>
<polygon fill="#63b8ff" stroke="#63b8ff" points="1253.23,-33.59 1257.26,-23.79 1248,-28.94 1253.23,-33.59"/>
</a>
</g>
</g>
<!-- Node18 -->
<g id="Node000018" class="node">
<title>Node18</title>
<g id="a_Node000018"><a xlink:title=" ">
<polygon fill="#e0e0e0" stroke="#999999" points="1408.38,-22.25 1330.88,-22.25 1330.88,0 1408.38,0 1408.38,-22.25"/>
<text text-anchor="middle" x="1369.62" y="-6.85" font-family="Arial" font-size="12.00">esp_timer.h</text>
</a>
</g>
</g>
<!-- Node3&#45;&gt;Node18 -->
<g id="edge17_Node000003_Node000018" class="edge">
<title>Node3&#45;&gt;Node18</title>
<g id="a_edge17_Node000003_Node000018"><a xlink:title=" ">
<path fill="none" stroke="#63b8ff" d="M1246.22,-57.79C1269.99,-49 1304.08,-36.38 1330.41,-26.64"/>
<polygon fill="#63b8ff" stroke="#63b8ff" points="1331.58,-29.94 1339.74,-23.18 1329.15,-23.37 1331.58,-29.94"/>
</a>
</g>
</g>
<!-- Node19 -->
<g id="Node000019" class="node">
<title>Node19</title>
<g id="a_Node000019"><a xlink:title=" ">
<polygon fill="#e0e0e0" stroke="#999999" points="1494.5,-22.25 1426.75,-22.25 1426.75,0 1494.5,0 1494.5,-22.25"/>
<text text-anchor="middle" x="1460.62" y="-6.85" font-family="Arial" font-size="12.00">esp_crc.h</text>
</a>
</g>
</g>
<!-- Node3&#45;&gt;Node19 -->
<g id="edge18_Node000003_Node000019" class="edge">
<title>Node3&#45;&gt;Node19</title>
<g id="a_edge18_Node000003_Node000019"><a xlink:title=" ">
<path fill="none" stroke="#63b8ff" d="M1263.71,-57.81C1301.8,-49.06 1357.61,-36.22 1415.21,-22.81"/>
<polygon fill="#63b8ff" stroke="#63b8ff" points="1415.94,-26.23 1424.89,-20.55 1414.35,-19.41 1415.94,-26.23"/>
</a>
</g>
</g>
<!-- Node20 -->
<g id="Node000020" class="node">
<title>Node20</title>
<g id="a_Node000020"><a xlink:title=" ">
<polygon fill="#e0e0e0" stroke="#999999" points="1586.88,-22.25 1512.38,-22.25 1512.38,0 1586.88,0 1586.88,-22.25"/>
<text text-anchor="middle" x="1549.62" y="-6.85" font-family="Arial" font-size="12.00">esp_netif.h</text>
</a>
</g>
</g>
<!-- Node3&#45;&gt;Node20 -->
<g id="edge19_Node000003_Node000020" class="edge">
<title>Node3&#45;&gt;Node20</title>
<g id="a_edge19_Node000003_Node000020"><a xlink:title=" ">
<path fill="none" stroke="#63b8ff" d="M1267.7,-60.19C1271.74,-59.53 1275.75,-58.88 1279.62,-58.25 1375.66,-42.69 1402.69,-41.19 1500.97,-22.68"/>
<polygon fill="#63b8ff" stroke="#63b8ff" points="1501.35,-26.17 1510.52,-20.87 1500.04,-19.3 1501.35,-26.17"/>
</a>
</g>
</g>
<!-- Node21 -->
<g id="Node000021" class="node">
<title>Node21</title>
<g id="a_Node000021"><a xlink:title=" ">
<polygon fill="#e0e0e0" stroke="#999999" points="1674.62,-22.25 1604.62,-22.25 1604.62,0 1674.62,0 1674.62,-22.25"/>
<text text-anchor="middle" x="1639.62" y="-6.85" font-family="Arial" font-size="12.00">esp_wifi.h</text>
</a>
</g>
</g>
<!-- Node3&#45;&gt;Node21 -->
<g id="edge20_Node000003_Node000021" class="edge">
<title>Node3&#45;&gt;Node21</title>
<g id="a_edge20_Node000003_Node000021"><a xlink:title=" ">
<path fill="none" stroke="#63b8ff" d="M1267.67,-59.99C1271.71,-59.38 1275.74,-58.79 1279.62,-58.25 1416.09,-39.35 1454.38,-45.78 1593.1,-22.53"/>
<polygon fill="#63b8ff" stroke="#63b8ff" points="1593.39,-26.03 1602.66,-20.9 1592.22,-19.13 1593.39,-26.03"/>
</a>
</g>
</g>
<!-- Node22 -->
<g id="Node000022" class="node">
<title>Node22</title>
<g id="a_Node000022"><a xlink:title=" ">
<polygon fill="#e0e0e0" stroke="#999999" points="1760.12,-22.25 1693.12,-22.25 1693.12,0 1760.12,0 1760.12,-22.25"/>
<text text-anchor="middle" x="1726.62" y="-6.85" font-family="Arial" font-size="12.00">espnow.h</text>
</a>
</g>
</g>
<!-- Node3&#45;&gt;Node22 -->
<g id="edge21_Node000003_Node000022" class="edge">
<title>Node3&#45;&gt;Node22</title>
<g id="a_edge21_Node000003_Node000022"><a xlink:title=" ">
<path fill="none" stroke="#63b8ff" d="M1267.66,-59.88C1271.7,-59.29 1275.73,-58.74 1279.62,-58.25 1454.81,-36.17 1503.67,-50.37 1681.57,-22.36"/>
<polygon fill="#63b8ff" stroke="#63b8ff" points="1682.1,-25.82 1691.42,-20.78 1680.99,-18.9 1682.1,-25.82"/>
</a>
</g>
</g>
<!-- Node23 -->
<g id="Node000023" class="node">
<title>Node23</title>
<g id="a_Node000023"><a xlink:title=" ">
<polygon fill="#e0e0e0" stroke="#999999" points="1868.75,-22.25 1778.5,-22.25 1778.5,0 1868.75,0 1868.75,-22.25"/>
<text text-anchor="middle" x="1823.62" y="-6.85" font-family="Arial" font-size="12.00">espnow_ctrl.h</text>
</a>
</g>
</g>
<!-- Node3&#45;&gt;Node23 -->
<g id="edge22_Node000003_Node000023" class="edge">
<title>Node3&#45;&gt;Node23</title>
<g id="a_edge22_Node000003_Node000023"><a xlink:title=" ">
<path fill="none" stroke="#63b8ff" d="M1267.65,-59.82C1271.7,-59.24 1275.73,-58.71 1279.62,-58.25 1492.78,-33.07 1551.1,-49.82 1766.63,-22.51"/>
<polygon fill="#63b8ff" stroke="#63b8ff" points="1767.04,-25.99 1776.52,-21.24 1766.15,-19.05 1767.04,-25.99"/>
</a>
</g>
</g>
<!-- Node24 -->
<g id="Node000024" class="node">
<title>Node24</title>
<g id="a_Node000024"><a xlink:title=" ">
<polygon fill="#e0e0e0" stroke="#999999" points="1982.75,-22.25 1886.5,-22.25 1886.5,0 1982.75,0 1982.75,-22.25"/>
<text text-anchor="middle" x="1934.62" y="-6.85" font-family="Arial" font-size="12.00">espnow_utils.h</text>
</a>
</g>
</g>
<!-- Node3&#45;&gt;Node24 -->
<g id="edge23_Node000003_Node000024" class="edge">
<title>Node3&#45;&gt;Node24</title>
<g id="a_edge23_Node000003_Node000024"><a xlink:title=" ">
<path fill="none" stroke="#63b8ff" d="M1267.65,-59.76C1271.69,-59.2 1275.72,-58.68 1279.62,-58.25 1540.63,-29.16 1611.29,-52.92 1875.09,-22.42"/>
<polygon fill="#63b8ff" stroke="#63b8ff" points="1875.14,-25.94 1884.67,-21.3 1874.33,-18.99 1875.14,-25.94"/>
</a>
</g>
</g>
<!-- Node25 -->
<g id="Node000025" class="node">
<title>Node25</title>
<g id="a_Node000025"><a xlink:title=" ">
<polygon fill="#e0e0e0" stroke="#999999" points="2078,-22.25 2001.25,-22.25 2001.25,0 2078,0 2078,-22.25"/>
<text text-anchor="middle" x="2039.62" y="-6.85" font-family="Arial" font-size="12.00">nvs_flash.h</text>
</a>
</g>
</g>
<!-- Node3&#45;&gt;Node25 -->
<g id="edge24_Node000003_Node000025" class="edge">
<title>Node3&#45;&gt;Node25</title>
<g id="a_edge24_Node000003_Node000025"><a xlink:title=" ">
<path fill="none" stroke="#63b8ff" d="M1267.64,-59.72C1271.69,-59.17 1275.72,-58.67 1279.62,-58.25 1591,-25.06 1675.45,-62.18 1989.67,-22.28"/>
<polygon fill="#63b8ff" stroke="#63b8ff" points="1989.97,-25.77 1999.44,-21.02 1989.08,-18.83 1989.97,-25.77"/>
</a>
</g>
</g>
<!-- Node26 -->
<g id="Node000026" class="node">
<title>Node26</title>
<g id="a_Node000026"><a xlink:title=" ">
<polygon fill="#e0e0e0" stroke="#999999" points="2189.62,-22.25 2095.62,-22.25 2095.62,0 2189.62,0 2189.62,-22.25"/>
<text text-anchor="middle" x="2142.62" y="-6.85" font-family="Arial" font-size="12.00">usb/hid_host.h</text>
</a>
</g>
</g>
<!-- Node3&#45;&gt;Node26 -->
<g id="edge25_Node000003_Node000026" class="edge">
<title>Node3&#45;&gt;Node26</title>
<g id="a_edge25_Node000003_Node000026"><a xlink:title=" ">
<path fill="none" stroke="#63b8ff" d="M1267.64,-59.69C1271.69,-59.15 1275.72,-58.65 1279.62,-58.25 1632.99,-21.64 1727.86,-61.43 2083.91,-22.4"/>
<polygon fill="#63b8ff" stroke="#63b8ff" points="2084.28,-25.89 2093.83,-21.3 2083.5,-18.93 2084.28,-25.89"/>
</a>
</g>
</g>
<!-- Node27 -->
<g id="Node000027" class="node">
<title>Node27</title>
<g id="a_Node000027"><a xlink:title=" ">
<polygon fill="#e0e0e0" stroke="#999999" points="2305.12,-22.25 2208.12,-22.25 2208.12,0 2305.12,0 2305.12,-22.25"/>
<text text-anchor="middle" x="2256.62" y="-6.85" font-family="Arial" font-size="12.00">usb/usb_host.h</text>
</a>
</g>
</g>
<!-- Node3&#45;&gt;Node27 -->
<g id="edge26_Node000003_Node000027" class="edge">
<title>Node3&#45;&gt;Node27</title>
<g id="a_edge26_Node000003_Node000027"><a xlink:title=" ">
<path fill="none" stroke="#63b8ff" d="M1267.64,-59.67C1271.68,-59.13 1275.72,-58.64 1279.62,-58.25 1682.65,-17.6 1790.22,-64.63 2196.46,-22.33"/>
<polygon fill="#63b8ff" stroke="#63b8ff" points="2196.56,-25.84 2206.14,-21.31 2195.83,-18.88 2196.56,-25.84"/>
</a>
</g>
</g>
<!-- Node28 -->
<g id="Node000028" class="node">
<title>Node28</title>
<g id="a_Node000028"><a xlink:title=" ">
<polygon fill="#e0e0e0" stroke="#999999" points="2405.62,-22.25 2323.62,-22.25 2323.62,0 2405.62,0 2405.62,-22.25"/>
<text text-anchor="middle" x="2364.62" y="-6.85" font-family="Arial" font-size="12.00">driver/gpio.h</text>
</a>
</g>
</g>
<!-- Node3&#45;&gt;Node28 -->
<g id="edge27_Node000003_Node000028" class="edge">
<title>Node3&#45;&gt;Node28</title>
<g id="a_edge27_Node000003_Node000028"><a xlink:title=" ">
<path fill="none" stroke="#63b8ff" d="M1267.63,-59.65C1271.68,-59.11 1275.72,-58.64 1279.62,-58.25 1733.99,-13.43 1855.56,-75.1 2312.05,-22.36"/>
<polygon fill="#63b8ff" stroke="#63b8ff" points="2312.21,-25.87 2321.74,-21.23 2311.4,-18.91 2312.21,-25.87"/>
</a>
</g>
</g>
<!-- Node29 -->
<g id="Node000029" class="node">
<title>Node29</title>
<g id="a_Node000029"><a xlink:title=" ">
<polygon fill="#e0e0e0" stroke="#999999" points="2539.88,-22.25 2423.38,-22.25 2423.38,0 2539.88,0 2539.88,-22.25"/>
<text text-anchor="middle" x="2481.62" y="-6.85" font-family="Arial" font-size="12.00">driver/i2c_master.h</text>
</a>
</g>
</g>
<!-- Node3&#45;&gt;Node29 -->
<g id="edge28_Node000003_Node000029" class="edge">
<title>Node3&#45;&gt;Node29</title>
<g id="a_edge28_Node000003_Node000029"><a xlink:title=" ">
<path fill="none" stroke="#63b8ff" d="M1267.63,-59.64C1271.68,-59.1 1275.72,-58.63 1279.62,-58.25 1778.28,-9.83 1910.08,-67.18 2412.04,-22.38"/>
<polygon fill="#63b8ff" stroke="#63b8ff" points="2412.06,-25.89 2421.7,-21.5 2411.43,-18.92 2412.06,-25.89"/>
</a>
</g>
</g>
<!-- Node31&#45;&gt;Node3 -->
<g id="edge31_Node000031_Node000003" class="edge">
<title>Node31&#45;&gt;Node3</title>
<g id="a_edge31_Node000031_Node000003"><a xlink:title=" ">
<path fill="none" stroke="#63b8ff" d="M1260.66,-116.04C1253.55,-108.5 1243.8,-98.16 1235.38,-89.22"/>
<polygon fill="#63b8ff" stroke="#63b8ff" points="1237.99,-86.89 1228.59,-82.01 1232.9,-91.69 1237.99,-86.89"/>
</a>
</g>
</g>
<!-- Node31&#45;&gt;Node30 -->
<g id="edge32_Node000031_Node000030" class="edge">
<title>Node31&#45;&gt;Node30</title>
<g id="a_edge32_Node000031_Node000030"><a xlink:title=" ">
<path fill="none" stroke="#63b8ff" d="M1280.41,-116.04C1287.38,-108.5 1296.94,-98.16 1305.2,-89.22"/>
<polygon fill="#63b8ff" stroke="#63b8ff" points="1307.64,-91.74 1311.86,-82.02 1302.5,-86.99 1307.64,-91.74"/>
</a>
</g>
</g>
</g>
</svg>

<g id="navigator" transform="translate(0 0)" fill="#404254">
  <rect fill="#f2f5e9" fill-opacity="0.5" stroke="#606060" stroke-width=".5" x="0" y="0" width="60" height="60"/>
  <use id="zoomplus" xlink:href="#zoomPlus" x="17" y="9" onmousedown="handleZoom(evt,'in')"/>
  <use id="zoomminus" xlink:href="#zoomMin" x="42" y="9" onmousedown="handleZoom(evt,'out')"/>
  <use id="reset" xlink:href="#resetDef" x="30" y="36" onmousedown="handleReset()"/>
   <use id="arrowup" xlink:href="#arrowUp" x="0" y="0" onmousedown="handlePan(0,-1)"/>
  <use id="arrowright" xlink:href="#arrowRight" x="0" y="0" onmousedown="handlePan(1,0)"/>
  <use id="arrowdown" xlink:href="#arrowDown" x="0" y="0" onmousedown="handlePan(0,1)"/>
  <use id="arrowleft" xlink:href="#arrowLeft" x="0" y="0" onmousedown="handlePan(-1,0)"/>
</g>
<svg viewBox="0 0 15 15" width="100%" height="30px" preserveAspectRatio="xMaxYMin meet">
 <g id="arrow_out" transform="scale(0.3 0.3)">
  <a xlink:href="esp__now__setup_8cpp__incl_org.svg" target="_base">
   <rect id="button" ry="5" rx="5" y="6" x="6" height="38" width="38"
        fill="#f2f5e9" fill-opacity="0.5" stroke="#606060" stroke-width="1.0"/>
   <path id="arrow"
     d="M 11.500037,31.436501 C 11.940474,20.09759 22.043105,11.32322 32.158766,21.979434 L 37.068811,17.246167 C 37.068811,17.246167 37.088388,32 37.088388,32 L 22.160133,31.978069 C 22.160133,31.978069 26.997745,27.140456 26.997745,27.140456 C 18.528582,18.264221 13.291696,25.230495 11.500037,31.436501 z"
     style="fill:#404040;"/>
  </a>
 </g>
</svg>

<style type='text/css'>
<![CDATA[
[data-mouse-over-selected='false'] { opacity: 0.7; }
[data-mouse-over-selected='true']  { opacity: 1.0; }
]]>
</style>
<script type="application/ecmascript"><![CDATA[
document.addEventListener('DOMContentLoaded', (event) => {
  highlightEdges();
  highlightAdjacentNodes();
});
]]></script>
</svg>
