<?xml version="1.0" encoding="UTF-8" standalone="no"?>
<!DOCTYPE svg PUBLIC "-//W3C//DTD SVG 1.1//EN"
 "http://www.w3.org/Graphics/SVG/1.1/DTD/svg11.dtd">
<!-- Generated by graphviz version 12.2.1 (20241206.2353)
 -->
<!-- Title: espnow_prov_initiator_send Pages: 1 -->
<svg width="769pt" height="170pt"
 viewBox="0.00 0.00 768.75 170.25" xmlns="http://www.w3.org/2000/svg" xmlns:xlink="http://www.w3.org/1999/xlink">
<g id="graph0" class="graph" transform="scale(1 1) rotate(0) translate(4 166.25)">
<title>espnow_prov_initiator_send</title>
<!-- Node1 -->
<g id="Node000001" class="node">
<title>Node1</title>
<g id="a_Node000001"><a xlink:title="Initiator sends information to request WiFi configuration.">
<polygon fill="#999999" stroke="#666666" points="166.75,-102.25 0,-102.25 0,-80 166.75,-80 166.75,-102.25"/>
<text text-anchor="middle" x="83.38" y="-86.85" font-family="Arial" font-size="12.00">espnow_prov_initiator_send</text>
</a>
</g>
</g>
<!-- Node2 -->
<g id="Node000002" class="node">
<title>Node2</title>
<g id="a_Node000002"><a xlink:href="espnow_8c.html#ab9e96f875511fcc24184f7b863ff8747" target="_top" xlink:title="When used for unicast, add the target device.">
<polygon fill="white" stroke="#666666" points="360.12,-162.25 244.38,-162.25 244.38,-140 360.12,-140 360.12,-162.25"/>
<text text-anchor="middle" x="302.25" y="-146.85" font-family="Arial" font-size="12.00">espnow_add_peer</text>
</a>
</g>
</g>
<!-- Node1&#45;&gt;Node2 -->
<g id="edge1_Node000001_Node000002" class="edge">
<title>Node1&#45;&gt;Node2</title>
<g id="a_edge1_Node000001_Node000002"><a xlink:title=" ">
<path fill="none" stroke="#63b8ff" d="M115.2,-102.73C138.9,-111.36 172.59,-123 202.75,-131.12 212.46,-133.74 222.8,-136.19 232.98,-138.42"/>
<polygon fill="#63b8ff" stroke="#63b8ff" points="231.94,-141.78 242.45,-140.44 233.4,-134.93 231.94,-141.78"/>
</a>
</g>
</g>
<!-- Node3 -->
<g id="Node000003" class="node">
<title>Node3</title>
<g id="a_Node000003"><a xlink:href="espnow_8c.html#a3af37601850aa5e255592ed078d7dd65" target="_top" xlink:title="When used for unicast, delete the target device.">
<polygon fill="white" stroke="#666666" points="358.25,-122.25 246.25,-122.25 246.25,-100 358.25,-100 358.25,-122.25"/>
<text text-anchor="middle" x="302.25" y="-106.85" font-family="Arial" font-size="12.00">espnow_del_peer</text>
</a>
</g>
</g>
<!-- Node1&#45;&gt;Node3 -->
<g id="edge2_Node000001_Node000003" class="edge">
<title>Node1&#45;&gt;Node3</title>
<g id="a_edge2_Node000001_Node000003"><a xlink:title=" ">
<path fill="none" stroke="#63b8ff" d="M166.98,-98.74C189.41,-100.81 213.4,-103.02 234.81,-105"/>
<polygon fill="#63b8ff" stroke="#63b8ff" points="234.29,-108.46 244.57,-105.9 234.93,-101.49 234.29,-108.46"/>
</a>
</g>
</g>
<!-- Node4 -->
<g id="Node000004" class="node">
<title>Node4</title>
<g id="a_Node000004"><a xlink:href="espnow_8c.html#ad1db406d2cb51ac8f967fbc95473afe5" target="_top" xlink:title="Send ESP&#45;NOW data.">
<polygon fill="white" stroke="#666666" points="347.75,-82.25 256.75,-82.25 256.75,-60 347.75,-60 347.75,-82.25"/>
<text text-anchor="middle" x="302.25" y="-66.85" font-family="Arial" font-size="12.00">espnow_send</text>
</a>
</g>
</g>
<!-- Node1&#45;&gt;Node4 -->
<g id="edge3_Node000001_Node000004" class="edge">
<title>Node1&#45;&gt;Node4</title>
<g id="a_edge3_Node000001_Node000004"><a xlink:title=" ">
<path fill="none" stroke="#63b8ff" d="M166.98,-83.51C193.11,-81.1 221.37,-78.49 245.19,-76.3"/>
<polygon fill="#63b8ff" stroke="#63b8ff" points="245.35,-79.8 254.99,-75.39 244.71,-72.82 245.35,-79.8"/>
</a>
</g>
</g>
<!-- Node11 -->
<g id="Node000011" class="node">
<title>Node11</title>
<g id="a_Node000011"><a xlink:href="espnow_8c.html#a5e8b13ca7f586bed41ed5779b84f61f4" target="_top" xlink:title="Set configuration when receiving the corresponding ESP&#45;NOW data type Include: Set to enable/disable h...">
<polygon fill="white" stroke="#666666" points="401.75,-42.25 202.75,-42.25 202.75,-20 401.75,-20 401.75,-42.25"/>
<text text-anchor="middle" x="302.25" y="-26.85" font-family="Arial" font-size="12.00">espnow_set_config_for_data_type</text>
</a>
</g>
</g>
<!-- Node1&#45;&gt;Node11 -->
<g id="edge10_Node000001_Node000011" class="edge">
<title>Node1&#45;&gt;Node11</title>
<g id="a_edge10_Node000001_Node000011"><a xlink:title=" ">
<path fill="none" stroke="#63b8ff" d="M115.2,-79.52C138.9,-70.89 172.59,-59.25 202.75,-51.12 210.57,-49.02 218.79,-47.02 227.01,-45.16"/>
<polygon fill="#63b8ff" stroke="#63b8ff" points="227.69,-48.59 236.7,-43.03 226.19,-41.75 227.69,-48.59"/>
</a>
</g>
</g>
<!-- Node5 -->
<g id="Node000005" class="node">
<title>Node5</title>
<g id="a_Node000005"><a xlink:href="espnow_8c.html#a20960515d17cbc436c4598a4b8134c94" target="_top" xlink:title="Get the security key info stored in flash If no security key info is stored in flash,...">
<polygon fill="white" stroke="#666666" points="570.75,-122.25 464,-122.25 464,-100 570.75,-100 570.75,-122.25"/>
<text text-anchor="middle" x="517.38" y="-106.85" font-family="Arial" font-size="12.00">espnow_get_key</text>
</a>
</g>
</g>
<!-- Node4&#45;&gt;Node5 -->
<g id="edge4_Node000004_Node000005" class="edge">
<title>Node4&#45;&gt;Node5</title>
<g id="a_edge4_Node000004_Node000005"><a xlink:title=" ">
<path fill="none" stroke="#63b8ff" d="M348.19,-79.56C378.47,-85.24 418.87,-92.83 452.49,-99.13"/>
<polygon fill="#63b8ff" stroke="#63b8ff" points="451.64,-102.54 462.11,-100.94 452.93,-95.66 451.64,-102.54"/>
</a>
</g>
</g>
<!-- Node7 -->
<g id="Node000007" class="node">
<title>Node7</title>
<g id="a_Node000007"><a xlink:href="espnow__security_8c.html#a7530c208d25669a17e838a4d0c7f0ea5" target="_top" xlink:title="The authenticated encryption function. Encryption with 128 bit AES&#45;CCM.">
<polygon fill="white" stroke="#666666" points="597,-82.25 437.75,-82.25 437.75,-60 597,-60 597,-82.25"/>
<text text-anchor="middle" x="517.38" y="-66.85" font-family="Arial" font-size="12.00">espnow_sec_auth_encrypt</text>
</a>
</g>
</g>
<!-- Node4&#45;&gt;Node7 -->
<g id="edge6_Node000004_Node000007" class="edge">
<title>Node4&#45;&gt;Node7</title>
<g id="a_edge6_Node000004_Node000007"><a xlink:title=" ">
<path fill="none" stroke="#63b8ff" d="M348.19,-71.12C370.84,-71.12 399.16,-71.12 426.06,-71.12"/>
<polygon fill="#63b8ff" stroke="#63b8ff" points="425.97,-74.63 435.97,-71.13 425.97,-67.63 425.97,-74.63"/>
</a>
</g>
</g>
<!-- Node8 -->
<g id="Node000008" class="node">
<title>Node8</title>
<g id="a_Node000008"><a xlink:href="espnow_8c.html#a776b545b0faedcd1511a6d59a7213029" target="_top" xlink:title="Set the security key info The security key info is used to derive key and stored to flash....">
<polygon fill="white" stroke="#666666" points="570.38,-42.25 464.38,-42.25 464.38,-20 570.38,-20 570.38,-42.25"/>
<text text-anchor="middle" x="517.38" y="-26.85" font-family="Arial" font-size="12.00">espnow_set_key</text>
</a>
</g>
</g>
<!-- Node4&#45;&gt;Node8 -->
<g id="edge7_Node000004_Node000008" class="edge">
<title>Node4&#45;&gt;Node8</title>
<g id="a_edge7_Node000004_Node000008"><a xlink:title=" ">
<path fill="none" stroke="#63b8ff" d="M348.19,-62.69C378.58,-56.99 419.16,-49.37 452.85,-43.05"/>
<polygon fill="#63b8ff" stroke="#63b8ff" points="453.32,-46.52 462.5,-41.24 452.02,-39.64 453.32,-46.52"/>
</a>
</g>
</g>
<!-- Node6 -->
<g id="Node000006" class="node">
<title>Node6</title>
<g id="a_Node000006"><a xlink:href="espnow__storage_8c.html#a46b53eee49b7a85ab1aaa1b876408722" target="_top" xlink:title="Load the information with given key.">
<polygon fill="white" stroke="#666666" points="760.75,-122.25 633,-122.25 633,-100 760.75,-100 760.75,-122.25"/>
<text text-anchor="middle" x="696.88" y="-106.85" font-family="Arial" font-size="12.00">espnow_storage_get</text>
</a>
</g>
</g>
<!-- Node5&#45;&gt;Node6 -->
<g id="edge5_Node000005_Node000006" class="edge">
<title>Node5&#45;&gt;Node6</title>
<g id="a_edge5_Node000005_Node000006"><a xlink:title=" ">
<path fill="none" stroke="#63b8ff" d="M571.15,-111.12C586.84,-111.12 604.34,-111.12 621.15,-111.12"/>
<polygon fill="#63b8ff" stroke="#63b8ff" points="621.14,-114.63 631.14,-111.13 621.14,-107.63 621.14,-114.63"/>
</a>
</g>
</g>
<!-- Node9 -->
<g id="Node000009" class="node">
<title>Node9</title>
<g id="a_Node000009"><a xlink:href="espnow__security_8c.html#ad081d6044fc0cedbb0c06e2c68dad306" target="_top" xlink:title="Set the security key info.">
<polygon fill="white" stroke="#666666" points="759.25,-62.25 634.5,-62.25 634.5,-40 759.25,-40 759.25,-62.25"/>
<text text-anchor="middle" x="696.88" y="-46.85" font-family="Arial" font-size="12.00">espnow_sec_setkey</text>
</a>
</g>
</g>
<!-- Node8&#45;&gt;Node9 -->
<g id="edge8_Node000008_Node000009" class="edge">
<title>Node8&#45;&gt;Node9</title>
<g id="a_edge8_Node000008_Node000009"><a xlink:title=" ">
<path fill="none" stroke="#63b8ff" d="M570.67,-37.02C587.03,-38.86 605.39,-40.93 622.9,-42.9"/>
<polygon fill="#63b8ff" stroke="#63b8ff" points="622.42,-46.37 632.75,-44.01 623.2,-39.41 622.42,-46.37"/>
</a>
</g>
</g>
<!-- Node10 -->
<g id="Node000010" class="node">
<title>Node10</title>
<g id="a_Node000010"><a xlink:href="espnow__storage_8c.html#ade9d20917bbd54b5748ef1651342c881" target="_top" xlink:title="Save the information with given key.">
<polygon fill="white" stroke="#666666" points="760.38,-22.25 633.38,-22.25 633.38,0 760.38,0 760.38,-22.25"/>
<text text-anchor="middle" x="696.88" y="-6.85" font-family="Arial" font-size="12.00">espnow_storage_set</text>
</a>
</g>
</g>
<!-- Node8&#45;&gt;Node10 -->
<g id="edge9_Node000008_Node000010" class="edge">
<title>Node8&#45;&gt;Node10</title>
<g id="a_edge9_Node000008_Node000010"><a xlink:title=" ">
<path fill="none" stroke="#63b8ff" d="M570.67,-25.23C586.69,-23.43 604.63,-21.41 621.82,-19.47"/>
<polygon fill="#63b8ff" stroke="#63b8ff" points="621.93,-22.98 631.47,-18.38 621.14,-16.02 621.93,-22.98"/>
</a>
</g>
</g>
</g>
</svg>
