<?xml version="1.0" encoding="UTF-8" standalone="no"?>
<!DOCTYPE svg PUBLIC "-//W3C//DTD SVG 1.1//EN"
 "http://www.w3.org/Graphics/SVG/1.1/DTD/svg11.dtd">
<!-- Generated by graphviz version 12.2.1 (20241206.2353)
 -->
<!-- Title: espnow_prov_initiator_send Pages: 1 -->
<!--zoomable 170 -->

<svg id="main" version="1.1" xmlns="http://www.w3.org/2000/svg" xmlns:xlink="http://www.w3.org/1999/xlink" xml:space="preserve" onload="init(evt)">

<style type="text/css"><![CDATA[
.node, .edge {opacity: 0.7;}
.node.selected, .edge.selected {opacity: 1;}
.edge:hover path { stroke: red; }
.edge:hover polygon { stroke: red; fill: red; }
]]></style>

<defs>
  <circle id="rim" cx="0" cy="0" r="7"/>
  <circle id="rim2" cx="0" cy="0" r="3.5"/>
  <g id="zoomPlus">
    <use xlink:href="#rim" fill="#404040"><set attributeName="fill" to="#808080" begin="zoomplus.mouseover" end="zoomplus.mouseout"/></use>
    <path d="M-4,0h8M0,-4v8" fill="none" stroke="white" stroke-width="1.5" pointer-events="none"/>
  </g>
  <g id="zoomMin">
    <use xlink:href="#rim" fill="#404040"><set attributeName="fill" to="#808080" begin="zoomminus.mouseover" end="zoomminus.mouseout"/></use>
    <path d="M-4,0h8" fill="none" stroke="white" stroke-width="1.5" pointer-events="none"/>
  </g>
  <g id="arrowUp" transform="translate(30 24)">
    <use xlink:href="#rim"/>
    <path pointer-events="none" fill="none" stroke="white" stroke-width="1.5" d="M0,-3.0v7 M-2.5,-0.5L0,-3.0L2.5,-0.5"/>
  </g>
  <g id="arrowRight" transform="rotate(90) translate(36 -43)">
    <use xlink:href="#rim"/>
    <path pointer-events="none" fill="none" stroke="white" stroke-width="1.5" d="M0,-3.0v7 M-2.5,-0.5L0,-3.0L2.5,-0.5"/>
  </g>
  <g id="arrowDown" transform="rotate(180) translate(-30 -48)">
    <use xlink:href="#rim"/>
    <path pointer-events="none" fill="none" stroke="white" stroke-width="1.5" d="M0,-3.0v7 M-2.5,-0.5L0,-3.0L2.5,-0.5"/>
  </g>
  <g id="arrowLeft" transform="rotate(270) translate(-36 17)">
    <use xlink:href="#rim"/>
    <path pointer-events="none" fill="none" stroke="white" stroke-width="1.5" d="M0,-3.0v7 M-2.5,-0.5L0,-3.0L2.5,-0.5"/>
  </g>
  <g id="resetDef">
    <use xlink:href="#rim2" fill="#404040"><set attributeName="fill" to="#808080" begin="reset.mouseover" end="reset.mouseout"/></use>
  </g>
</defs>
<script type="application/ecmascript">
var viewWidth = 769;
var viewHeight = 170;
var sectionId = 'dynsection-1';
</script>
<script type="application/ecmascript" xlink:href="svg.min.js"/>
<svg id="graph" class="graph">
<g id="viewport">
<title>espnow_prov_initiator_send</title>
<!-- Node1 -->
<g id="Node000001" class="node">
<title>Node1</title>
<g id="a_Node000001"><a xlink:title="Initiator sends information to request WiFi configuration.">
<polygon fill="#999999" stroke="#666666" points="166.75,-102.25 0,-102.25 0,-80 166.75,-80 166.75,-102.25"/>
<text text-anchor="middle" x="83.38" y="-86.85" font-family="Arial" font-size="12.00">espnow_prov_initiator_send</text>
</a>
</g>
</g>
<!-- Node2 -->
<g id="Node000002" class="node">
<title>Node2</title>
<g id="a_Node000002"><a xlink:href="espnow_8c.html#ab9e96f875511fcc24184f7b863ff8747" target="_top" xlink:title="When used for unicast, add the target device.">
<polygon fill="white" stroke="#666666" points="360.12,-162.25 244.38,-162.25 244.38,-140 360.12,-140 360.12,-162.25"/>
<text text-anchor="middle" x="302.25" y="-146.85" font-family="Arial" font-size="12.00">espnow_add_peer</text>
</a>
</g>
</g>
<!-- Node1&#45;&gt;Node2 -->
<g id="edge1_Node000001_Node000002" class="edge">
<title>Node1&#45;&gt;Node2</title>
<g id="a_edge1_Node000001_Node000002"><a xlink:title=" ">
<path fill="none" stroke="#63b8ff" d="M115.2,-102.73C138.9,-111.36 172.59,-123 202.75,-131.12 212.46,-133.74 222.8,-136.19 232.98,-138.42"/>
<polygon fill="#63b8ff" stroke="#63b8ff" points="231.94,-141.78 242.45,-140.44 233.4,-134.93 231.94,-141.78"/>
</a>
</g>
</g>
<!-- Node3 -->
<g id="Node000003" class="node">
<title>Node3</title>
<g id="a_Node000003"><a xlink:href="espnow_8c.html#a3af37601850aa5e255592ed078d7dd65" target="_top" xlink:title="When used for unicast, delete the target device.">
<polygon fill="white" stroke="#666666" points="358.25,-122.25 246.25,-122.25 246.25,-100 358.25,-100 358.25,-122.25"/>
<text text-anchor="middle" x="302.25" y="-106.85" font-family="Arial" font-size="12.00">espnow_del_peer</text>
</a>
</g>
</g>
<!-- Node1&#45;&gt;Node3 -->
<g id="edge2_Node000001_Node000003" class="edge">
<title>Node1&#45;&gt;Node3</title>
<g id="a_edge2_Node000001_Node000003"><a xlink:title=" ">
<path fill="none" stroke="#63b8ff" d="M166.98,-98.74C189.41,-100.81 213.4,-103.02 234.81,-105"/>
<polygon fill="#63b8ff" stroke="#63b8ff" points="234.29,-108.46 244.57,-105.9 234.93,-101.49 234.29,-108.46"/>
</a>
</g>
</g>
<!-- Node4 -->
<g id="Node000004" class="node">
<title>Node4</title>
<g id="a_Node000004"><a xlink:href="espnow_8c.html#ad1db406d2cb51ac8f967fbc95473afe5" target="_top" xlink:title="Send ESP&#45;NOW data.">
<polygon fill="white" stroke="#666666" points="347.75,-82.25 256.75,-82.25 256.75,-60 347.75,-60 347.75,-82.25"/>
<text text-anchor="middle" x="302.25" y="-66.85" font-family="Arial" font-size="12.00">espnow_send</text>
</a>
</g>
</g>
<!-- Node1&#45;&gt;Node4 -->
<g id="edge3_Node000001_Node000004" class="edge">
<title>Node1&#45;&gt;Node4</title>
<g id="a_edge3_Node000001_Node000004"><a xlink:title=" ">
<path fill="none" stroke="#63b8ff" d="M166.98,-83.51C193.11,-81.1 221.37,-78.49 245.19,-76.3"/>
<polygon fill="#63b8ff" stroke="#63b8ff" points="245.35,-79.8 254.99,-75.39 244.71,-72.82 245.35,-79.8"/>
</a>
</g>
</g>
<!-- Node11 -->
<g id="Node000011" class="node">
<title>Node11</title>
<g id="a_Node000011"><a xlink:href="espnow_8c.html#a5e8b13ca7f586bed41ed5779b84f61f4" target="_top" xlink:title="Set configuration when receiving the corresponding ESP&#45;NOW data type Include: Set to enable/disable h...">
<polygon fill="white" stroke="#666666" points="401.75,-42.25 202.75,-42.25 202.75,-20 401.75,-20 401.75,-42.25"/>
<text text-anchor="middle" x="302.25" y="-26.85" font-family="Arial" font-size="12.00">espnow_set_config_for_data_type</text>
</a>
</g>
</g>
<!-- Node1&#45;&gt;Node11 -->
<g id="edge10_Node000001_Node000011" class="edge">
<title>Node1&#45;&gt;Node11</title>
<g id="a_edge10_Node000001_Node000011"><a xlink:title=" ">
<path fill="none" stroke="#63b8ff" d="M115.2,-79.52C138.9,-70.89 172.59,-59.25 202.75,-51.12 210.57,-49.02 218.79,-47.02 227.01,-45.16"/>
<polygon fill="#63b8ff" stroke="#63b8ff" points="227.69,-48.59 236.7,-43.03 226.19,-41.75 227.69,-48.59"/>
</a>
</g>
</g>
<!-- Node5 -->
<g id="Node000005" class="node">
<title>Node5</title>
<g id="a_Node000005"><a xlink:href="espnow_8c.html#a20960515d17cbc436c4598a4b8134c94" target="_top" xlink:title="Get the security key info stored in flash If no security key info is stored in flash,...">
<polygon fill="white" stroke="#666666" points="570.75,-122.25 464,-122.25 464,-100 570.75,-100 570.75,-122.25"/>
<text text-anchor="middle" x="517.38" y="-106.85" font-family="Arial" font-size="12.00">espnow_get_key</text>
</a>
</g>
</g>
<!-- Node4&#45;&gt;Node5 -->
<g id="edge4_Node000004_Node000005" class="edge">
<title>Node4&#45;&gt;Node5</title>
<g id="a_edge4_Node000004_Node000005"><a xlink:title=" ">
<path fill="none" stroke="#63b8ff" d="M348.19,-79.56C378.47,-85.24 418.87,-92.83 452.49,-99.13"/>
<polygon fill="#63b8ff" stroke="#63b8ff" points="451.64,-102.54 462.11,-100.94 452.93,-95.66 451.64,-102.54"/>
</a>
</g>
</g>
<!-- Node7 -->
<g id="Node000007" class="node">
<title>Node7</title>
<g id="a_Node000007"><a xlink:href="espnow__security_8c.html#a7530c208d25669a17e838a4d0c7f0ea5" target="_top" xlink:title="The authenticated encryption function. Encryption with 128 bit AES&#45;CCM.">
<polygon fill="white" stroke="#666666" points="597,-82.25 437.75,-82.25 437.75,-60 597,-60 597,-82.25"/>
<text text-anchor="middle" x="517.38" y="-66.85" font-family="Arial" font-size="12.00">espnow_sec_auth_encrypt</text>
</a>
</g>
</g>
<!-- Node4&#45;&gt;Node7 -->
<g id="edge6_Node000004_Node000007" class="edge">
<title>Node4&#45;&gt;Node7</title>
<g id="a_edge6_Node000004_Node000007"><a xlink:title=" ">
<path fill="none" stroke="#63b8ff" d="M348.19,-71.12C370.84,-71.12 399.16,-71.12 426.06,-71.12"/>
<polygon fill="#63b8ff" stroke="#63b8ff" points="425.97,-74.63 435.97,-71.13 425.97,-67.63 425.97,-74.63"/>
</a>
</g>
</g>
<!-- Node8 -->
<g id="Node000008" class="node">
<title>Node8</title>
<g id="a_Node000008"><a xlink:href="espnow_8c.html#a776b545b0faedcd1511a6d59a7213029" target="_top" xlink:title="Set the security key info The security key info is used to derive key and stored to flash....">
<polygon fill="white" stroke="#666666" points="570.38,-42.25 464.38,-42.25 464.38,-20 570.38,-20 570.38,-42.25"/>
<text text-anchor="middle" x="517.38" y="-26.85" font-family="Arial" font-size="12.00">espnow_set_key</text>
</a>
</g>
</g>
<!-- Node4&#45;&gt;Node8 -->
<g id="edge7_Node000004_Node000008" class="edge">
<title>Node4&#45;&gt;Node8</title>
<g id="a_edge7_Node000004_Node000008"><a xlink:title=" ">
<path fill="none" stroke="#63b8ff" d="M348.19,-62.69C378.58,-56.99 419.16,-49.37 452.85,-43.05"/>
<polygon fill="#63b8ff" stroke="#63b8ff" points="453.32,-46.52 462.5,-41.24 452.02,-39.64 453.32,-46.52"/>
</a>
</g>
</g>
<!-- Node6 -->
<g id="Node000006" class="node">
<title>Node6</title>
<g id="a_Node000006"><a xlink:href="espnow__storage_8c.html#a46b53eee49b7a85ab1aaa1b876408722" target="_top" xlink:title="Load the information with given key.">
<polygon fill="white" stroke="#666666" points="760.75,-122.25 633,-122.25 633,-100 760.75,-100 760.75,-122.25"/>
<text text-anchor="middle" x="696.88" y="-106.85" font-family="Arial" font-size="12.00">espnow_storage_get</text>
</a>
</g>
</g>
<!-- Node5&#45;&gt;Node6 -->
<g id="edge5_Node000005_Node000006" class="edge">
<title>Node5&#45;&gt;Node6</title>
<g id="a_edge5_Node000005_Node000006"><a xlink:title=" ">
<path fill="none" stroke="#63b8ff" d="M571.15,-111.12C586.84,-111.12 604.34,-111.12 621.15,-111.12"/>
<polygon fill="#63b8ff" stroke="#63b8ff" points="621.14,-114.63 631.14,-111.13 621.14,-107.63 621.14,-114.63"/>
</a>
</g>
</g>
<!-- Node9 -->
<g id="Node000009" class="node">
<title>Node9</title>
<g id="a_Node000009"><a xlink:href="espnow__security_8c.html#ad081d6044fc0cedbb0c06e2c68dad306" target="_top" xlink:title="Set the security key info.">
<polygon fill="white" stroke="#666666" points="759.25,-62.25 634.5,-62.25 634.5,-40 759.25,-40 759.25,-62.25"/>
<text text-anchor="middle" x="696.88" y="-46.85" font-family="Arial" font-size="12.00">espnow_sec_setkey</text>
</a>
</g>
</g>
<!-- Node8&#45;&gt;Node9 -->
<g id="edge8_Node000008_Node000009" class="edge">
<title>Node8&#45;&gt;Node9</title>
<g id="a_edge8_Node000008_Node000009"><a xlink:title=" ">
<path fill="none" stroke="#63b8ff" d="M570.67,-37.02C587.03,-38.86 605.39,-40.93 622.9,-42.9"/>
<polygon fill="#63b8ff" stroke="#63b8ff" points="622.42,-46.37 632.75,-44.01 623.2,-39.41 622.42,-46.37"/>
</a>
</g>
</g>
<!-- Node10 -->
<g id="Node000010" class="node">
<title>Node10</title>
<g id="a_Node000010"><a xlink:href="espnow__storage_8c.html#ade9d20917bbd54b5748ef1651342c881" target="_top" xlink:title="Save the information with given key.">
<polygon fill="white" stroke="#666666" points="760.38,-22.25 633.38,-22.25 633.38,0 760.38,0 760.38,-22.25"/>
<text text-anchor="middle" x="696.88" y="-6.85" font-family="Arial" font-size="12.00">espnow_storage_set</text>
</a>
</g>
</g>
<!-- Node8&#45;&gt;Node10 -->
<g id="edge9_Node000008_Node000010" class="edge">
<title>Node8&#45;&gt;Node10</title>
<g id="a_edge9_Node000008_Node000010"><a xlink:title=" ">
<path fill="none" stroke="#63b8ff" d="M570.67,-25.23C586.69,-23.43 604.63,-21.41 621.82,-19.47"/>
<polygon fill="#63b8ff" stroke="#63b8ff" points="621.93,-22.98 631.47,-18.38 621.14,-16.02 621.93,-22.98"/>
</a>
</g>
</g>
</g>
</svg>

<g id="navigator" transform="translate(0 0)" fill="#404254">
  <rect fill="#f2f5e9" fill-opacity="0.5" stroke="#606060" stroke-width=".5" x="0" y="0" width="60" height="60"/>
  <use id="zoomplus" xlink:href="#zoomPlus" x="17" y="9" onmousedown="handleZoom(evt,'in')"/>
  <use id="zoomminus" xlink:href="#zoomMin" x="42" y="9" onmousedown="handleZoom(evt,'out')"/>
  <use id="reset" xlink:href="#resetDef" x="30" y="36" onmousedown="handleReset()"/>
   <use id="arrowup" xlink:href="#arrowUp" x="0" y="0" onmousedown="handlePan(0,-1)"/>
  <use id="arrowright" xlink:href="#arrowRight" x="0" y="0" onmousedown="handlePan(1,0)"/>
  <use id="arrowdown" xlink:href="#arrowDown" x="0" y="0" onmousedown="handlePan(0,1)"/>
  <use id="arrowleft" xlink:href="#arrowLeft" x="0" y="0" onmousedown="handlePan(-1,0)"/>
</g>
<svg viewBox="0 0 15 15" width="100%" height="30px" preserveAspectRatio="xMaxYMin meet">
 <g id="arrow_out" transform="scale(0.3 0.3)">
  <a xlink:href="espnow__prov_8c_abaa28382b2a61ee896c9744ce986bb20_cgraph_org.svg" target="_base">
   <rect id="button" ry="5" rx="5" y="6" x="6" height="38" width="38"
        fill="#f2f5e9" fill-opacity="0.5" stroke="#606060" stroke-width="1.0"/>
   <path id="arrow"
     d="M 11.500037,31.436501 C 11.940474,20.09759 22.043105,11.32322 32.158766,21.979434 L 37.068811,17.246167 C 37.068811,17.246167 37.088388,32 37.088388,32 L 22.160133,31.978069 C 22.160133,31.978069 26.997745,27.140456 26.997745,27.140456 C 18.528582,18.264221 13.291696,25.230495 11.500037,31.436501 z"
     style="fill:#404040;"/>
  </a>
 </g>
</svg>

<style type='text/css'>
<![CDATA[
[data-mouse-over-selected='false'] { opacity: 0.7; }
[data-mouse-over-selected='true']  { opacity: 1.0; }
]]>
</style>
<script type="application/ecmascript"><![CDATA[
document.addEventListener('DOMContentLoaded', (event) => {
  highlightEdges();
  highlightAdjacentNodes();
});
]]></script>
</svg>
