<?xml version="1.0" encoding="UTF-8" standalone="no"?>
<!DOCTYPE svg PUBLIC "-//W3C//DTD SVG 1.1//EN"
 "http://www.w3.org/Graphics/SVG/1.1/DTD/svg11.dtd">
<!-- Generated by graphviz version 12.2.1 (20241206.2353)
 -->
<!-- Title: espnow_init Pages: 1 -->
<svg width="425pt" height="170pt"
 viewBox="0.00 0.00 425.00 170.25" xmlns="http://www.w3.org/2000/svg" xmlns:xlink="http://www.w3.org/1999/xlink">
<g id="graph0" class="graph" transform="scale(1 1) rotate(0) translate(4 166.25)">
<title>espnow_init</title>
<!-- Node1 -->
<g id="Node000001" class="node">
<title>Node1</title>
<g id="a_Node000001"><a xlink:title="Initialize ESP&#45;NOW function.">
<polygon fill="#999999" stroke="#666666" points="80.5,-82.25 0,-82.25 0,-60 80.5,-60 80.5,-82.25"/>
<text text-anchor="middle" x="40.25" y="-66.85" font-family="Arial" font-size="12.00">espnow_init</text>
</a>
</g>
</g>
<!-- Node2 -->
<g id="Node000002" class="node">
<title>Node2</title>
<g id="a_Node000002"><a xlink:href="espnow_8c.html#ab9e96f875511fcc24184f7b863ff8747" target="_top" xlink:title="When used for unicast, add the target device.">
<polygon fill="white" stroke="#666666" points="232.25,-142.25 116.5,-142.25 116.5,-120 232.25,-120 232.25,-142.25"/>
<text text-anchor="middle" x="174.38" y="-126.85" font-family="Arial" font-size="12.00">espnow_add_peer</text>
</a>
</g>
</g>
<!-- Node1&#45;&gt;Node2 -->
<g id="edge1_Node000001_Node000002" class="edge">
<title>Node1&#45;&gt;Node2</title>
<g id="a_edge1_Node000001_Node000002"><a xlink:title=" ">
<path fill="none" stroke="#63b8ff" d="M60.97,-82.66C75.92,-91.14 97.12,-102.63 116.5,-111.12 120.01,-112.66 123.68,-114.17 127.39,-115.63"/>
<polygon fill="#63b8ff" stroke="#63b8ff" points="125.85,-118.79 136.44,-119.03 128.31,-112.24 125.85,-118.79"/>
</a>
</g>
</g>
<!-- Node3 -->
<g id="Node000003" class="node">
<title>Node3</title>
<g id="a_Node000003"><a xlink:href="espnow_8c.html#ae2e7d37b72ff59a530a9447bea4aa106" target="_top" xlink:title=" ">
<polygon fill="white" stroke="#666666" points="227.75,-102.25 121,-102.25 121,-80 227.75,-80 227.75,-102.25"/>
<text text-anchor="middle" x="174.38" y="-86.85" font-family="Arial" font-size="12.00">espnow_recv_cb</text>
</a>
</g>
</g>
<!-- Node1&#45;&gt;Node3 -->
<g id="edge2_Node000001_Node000003" class="edge">
<title>Node1&#45;&gt;Node3</title>
<g id="a_edge2_Node000001_Node000003"><a xlink:title=" ">
<path fill="none" stroke="#63b8ff" d="M80.89,-77.13C89.85,-78.48 99.59,-79.96 109.27,-81.42"/>
<polygon fill="#63b8ff" stroke="#63b8ff" points="108.65,-84.87 119.06,-82.9 109.7,-77.95 108.65,-84.87"/>
</a>
</g>
</g>
<!-- Node8 -->
<g id="Node000008" class="node">
<title>Node8</title>
<g id="a_Node000008"><a xlink:href="espnow__security_8c.html#accbf76d2b120ee4e43003ad1472c2b05" target="_top" xlink:title="Initialize the specified security info.">
<polygon fill="white" stroke="#666666" points="227.38,-62.25 121.38,-62.25 121.38,-40 227.38,-40 227.38,-62.25"/>
<text text-anchor="middle" x="174.38" y="-46.85" font-family="Arial" font-size="12.00">espnow_sec_init</text>
</a>
</g>
</g>
<!-- Node1&#45;&gt;Node8 -->
<g id="edge7_Node000001_Node000008" class="edge">
<title>Node1&#45;&gt;Node8</title>
<g id="a_edge7_Node000001_Node000008"><a xlink:title=" ">
<path fill="none" stroke="#63b8ff" d="M80.89,-65.12C90.06,-63.74 100.04,-62.23 109.94,-60.73"/>
<polygon fill="#63b8ff" stroke="#63b8ff" points="110.18,-64.23 119.54,-59.27 109.13,-57.31 110.18,-64.23"/>
</a>
</g>
</g>
<!-- Node9 -->
<g id="Node000009" class="node">
<title>Node9</title>
<g id="a_Node000009"><a xlink:href="espnow_8c.html#ae3d39a3c355f8c0a8297f76a28f7eaee" target="_top" xlink:title=" ">
<polygon fill="white" stroke="#666666" points="229.62,-22.25 119.12,-22.25 119.12,0 229.62,0 229.62,-22.25"/>
<text text-anchor="middle" x="174.38" y="-6.85" font-family="Arial" font-size="12.00">espnow_send_cb</text>
</a>
</g>
</g>
<!-- Node1&#45;&gt;Node9 -->
<g id="edge8_Node000001_Node000009" class="edge">
<title>Node1&#45;&gt;Node9</title>
<g id="a_edge8_Node000001_Node000009"><a xlink:title=" ">
<path fill="none" stroke="#63b8ff" d="M60.97,-59.59C75.92,-51.11 97.12,-39.62 116.5,-31.12 120.01,-29.59 123.68,-28.08 127.39,-26.62"/>
<polygon fill="#63b8ff" stroke="#63b8ff" points="128.31,-30.01 136.44,-23.22 125.85,-23.46 128.31,-30.01"/>
</a>
</g>
</g>
<!-- Node4 -->
<g id="Node000004" class="node">
<title>Node4</title>
<g id="a_Node000004"><a xlink:href="espnow_8h.html#af0be4b97c8dad6c432c969e960110c1e" target="_top" xlink:title="Set group ID addresses.">
<polygon fill="white" stroke="#666666" points="403.88,-162.25 281.38,-162.25 281.38,-140 403.88,-140 403.88,-162.25"/>
<text text-anchor="middle" x="342.62" y="-146.85" font-family="Arial" font-size="12.00">espnow_add_group</text>
</a>
</g>
</g>
<!-- Node3&#45;&gt;Node4 -->
<g id="edge3_Node000003_Node000004" class="edge">
<title>Node3&#45;&gt;Node4</title>
<g id="a_edge3_Node000003_Node000004"><a xlink:title=" ">
<path fill="none" stroke="#63b8ff" d="M211.24,-102.7C218.29,-105.26 225.57,-108.12 232.25,-111.12 248.94,-118.63 251.3,-124.22 268.25,-131.12 272.58,-132.89 277.12,-134.55 281.73,-136.1"/>
<polygon fill="#63b8ff" stroke="#63b8ff" points="280.5,-139.38 291.09,-139.05 282.61,-132.7 280.5,-139.38"/>
</a>
</g>
</g>
<!-- Node5 -->
<g id="Node000005" class="node">
<title>Node5</title>
<g id="a_Node000005"><a xlink:href="espnow__group_8c.html#a875855b479ddb660719afebdc90b8b4d" target="_top" xlink:title="Delete group ID addresses.">
<polygon fill="white" stroke="#666666" points="402,-122.25 283.25,-122.25 283.25,-100 402,-100 402,-122.25"/>
<text text-anchor="middle" x="342.62" y="-106.85" font-family="Arial" font-size="12.00">espnow_del_group</text>
</a>
</g>
</g>
<!-- Node3&#45;&gt;Node5 -->
<g id="edge4_Node000003_Node000005" class="edge">
<title>Node3&#45;&gt;Node5</title>
<g id="a_edge4_Node000003_Node000005"><a xlink:title=" ">
<path fill="none" stroke="#63b8ff" d="M227.98,-97.45C241.93,-99.13 257.21,-100.97 271.91,-102.74"/>
<polygon fill="#63b8ff" stroke="#63b8ff" points="271.16,-106.17 281.51,-103.89 272,-99.22 271.16,-106.17"/>
</a>
</g>
</g>
<!-- Node6 -->
<g id="Node000006" class="node">
<title>Node6</title>
<g id="a_Node000006"><a xlink:href="espnow__group_8c.html#aa7b993563fd6da0fb75573573733daa3" target="_top" xlink:title="Get the number of group ID addresses.">
<polygon fill="white" stroke="#666666" points="417,-82.25 268.25,-82.25 268.25,-60 417,-60 417,-82.25"/>
<text text-anchor="middle" x="342.62" y="-66.85" font-family="Arial" font-size="12.00">espnow_get_group_num</text>
</a>
</g>
</g>
<!-- Node3&#45;&gt;Node6 -->
<g id="edge5_Node000003_Node000006" class="edge">
<title>Node3&#45;&gt;Node6</title>
<g id="a_edge5_Node000003_Node000006"><a xlink:title=" ">
<path fill="none" stroke="#63b8ff" d="M227.98,-84.8C237.07,-83.7 246.73,-82.54 256.43,-81.37"/>
<polygon fill="#63b8ff" stroke="#63b8ff" points="256.78,-84.86 266.29,-80.19 255.95,-77.91 256.78,-84.86"/>
</a>
</g>
</g>
<!-- Node7 -->
<g id="Node000007" class="node">
<title>Node7</title>
<g id="a_Node000007"><a xlink:href="espnow__group_8c.html#af826ca7f397223b5075b39529f9ba115" target="_top" xlink:title="Check whether the specified group address is my group.">
<polygon fill="white" stroke="#666666" points="409.5,-42.25 275.75,-42.25 275.75,-20 409.5,-20 409.5,-42.25"/>
<text text-anchor="middle" x="342.62" y="-26.85" font-family="Arial" font-size="12.00">espnow_is_my_group</text>
</a>
</g>
</g>
<!-- Node3&#45;&gt;Node7 -->
<g id="edge6_Node000003_Node000007" class="edge">
<title>Node3&#45;&gt;Node7</title>
<g id="a_edge6_Node000003_Node000007"><a xlink:title=" ">
<path fill="none" stroke="#63b8ff" d="M211.24,-79.55C218.29,-76.99 225.57,-74.13 232.25,-71.12 248.94,-63.62 251.3,-58.03 268.25,-51.12 272.58,-49.36 277.12,-47.7 281.73,-46.15"/>
<polygon fill="#63b8ff" stroke="#63b8ff" points="282.61,-49.55 291.09,-43.2 280.5,-42.87 282.61,-49.55"/>
</a>
</g>
</g>
</g>
</svg>
