<?xml version="1.0" encoding="UTF-8" standalone="no"?>
<!DOCTYPE svg PUBLIC "-//W3C//DTD SVG 1.1//EN"
 "http://www.w3.org/Graphics/SVG/1.1/DTD/svg11.dtd">
<!-- Generated by graphviz version 12.2.1 (20241206.2353)
 -->
<!-- Title: espnow_ota_initiator_scan Pages: 1 -->
<svg width="785pt" height="130pt"
 viewBox="0.00 0.00 784.50 130.25" xmlns="http://www.w3.org/2000/svg" xmlns:xlink="http://www.w3.org/1999/xlink">
<g id="graph0" class="graph" transform="scale(1 1) rotate(0) translate(4 126.25)">
<title>espnow_ota_initiator_scan</title>
<!-- Node1 -->
<g id="Node000001" class="node">
<title>Node1</title>
<g id="a_Node000001"><a xlink:title="Root scans other nodes.">
<polygon fill="#999999" stroke="#666666" points="159.25,-82.25 0,-82.25 0,-60 159.25,-60 159.25,-82.25"/>
<text text-anchor="middle" x="79.62" y="-66.85" font-family="Arial" font-size="12.00">espnow_ota_initiator_scan</text>
</a>
</g>
</g>
<!-- Node2 -->
<g id="Node000002" class="node">
<title>Node2</title>
<g id="a_Node000002"><a xlink:href="espnow__ota__initiator_8c.html#a630bcac8853933ca3e9d9bd048b141ae" target="_top" xlink:title="Free memory in the responder information list.">
<polygon fill="white" stroke="#666666" points="417.5,-122.25 195.25,-122.25 195.25,-100 417.5,-100 417.5,-122.25"/>
<text text-anchor="middle" x="306.38" y="-106.85" font-family="Arial" font-size="12.00">espnow_ota_initiator_scan_result_free</text>
</a>
</g>
</g>
<!-- Node1&#45;&gt;Node2 -->
<g id="edge1_Node000001_Node000002" class="edge">
<title>Node1&#45;&gt;Node2</title>
<g id="a_edge1_Node000001_Node000002"><a xlink:title=" ">
<path fill="none" stroke="#63b8ff" d="M145.93,-82.75C172.02,-87.39 202.24,-92.77 229.3,-97.59"/>
<polygon fill="#63b8ff" stroke="#63b8ff" points="228.34,-100.97 238.8,-99.28 229.57,-94.08 228.34,-100.97"/>
</a>
</g>
</g>
<!-- Node3 -->
<g id="Node000003" class="node">
<title>Node3</title>
<g id="a_Node000003"><a xlink:href="espnow_8c.html#ad1db406d2cb51ac8f967fbc95473afe5" target="_top" xlink:title="Send ESP&#45;NOW data.">
<polygon fill="white" stroke="#666666" points="351.88,-82.25 260.88,-82.25 260.88,-60 351.88,-60 351.88,-82.25"/>
<text text-anchor="middle" x="306.38" y="-66.85" font-family="Arial" font-size="12.00">espnow_send</text>
</a>
</g>
</g>
<!-- Node1&#45;&gt;Node3 -->
<g id="edge2_Node000001_Node000003" class="edge">
<title>Node1&#45;&gt;Node3</title>
<g id="a_edge2_Node000001_Node000003"><a xlink:title=" ">
<path fill="none" stroke="#63b8ff" d="M159.55,-71.12C189.21,-71.12 222.29,-71.12 249.44,-71.12"/>
<polygon fill="#63b8ff" stroke="#63b8ff" points="249.17,-74.63 259.17,-71.13 249.17,-67.63 249.17,-74.63"/>
</a>
</g>
</g>
<!-- Node10 -->
<g id="Node000010" class="node">
<title>Node10</title>
<g id="a_Node000010"><a xlink:href="espnow_8c.html#a5e8b13ca7f586bed41ed5779b84f61f4" target="_top" xlink:title="Set configuration when receiving the corresponding ESP&#45;NOW data type Include: Set to enable/disable h...">
<polygon fill="white" stroke="#666666" points="405.88,-42.25 206.88,-42.25 206.88,-20 405.88,-20 405.88,-42.25"/>
<text text-anchor="middle" x="306.38" y="-26.85" font-family="Arial" font-size="12.00">espnow_set_config_for_data_type</text>
</a>
</g>
</g>
<!-- Node1&#45;&gt;Node10 -->
<g id="edge9_Node000001_Node000010" class="edge">
<title>Node1&#45;&gt;Node10</title>
<g id="a_edge9_Node000001_Node000010"><a xlink:title=" ">
<path fill="none" stroke="#63b8ff" d="M145.93,-59.5C172.02,-54.86 202.24,-49.48 229.3,-44.66"/>
<polygon fill="#63b8ff" stroke="#63b8ff" points="229.57,-48.17 238.8,-42.97 228.34,-41.28 229.57,-48.17"/>
</a>
</g>
</g>
<!-- Node4 -->
<g id="Node000004" class="node">
<title>Node4</title>
<g id="a_Node000004"><a xlink:href="espnow_8c.html#a20960515d17cbc436c4598a4b8134c94" target="_top" xlink:title="Get the security key info stored in flash If no security key info is stored in flash,...">
<polygon fill="white" stroke="#666666" points="586.5,-122.25 479.75,-122.25 479.75,-100 586.5,-100 586.5,-122.25"/>
<text text-anchor="middle" x="533.12" y="-106.85" font-family="Arial" font-size="12.00">espnow_get_key</text>
</a>
</g>
</g>
<!-- Node3&#45;&gt;Node4 -->
<g id="edge3_Node000003_Node000004" class="edge">
<title>Node3&#45;&gt;Node4</title>
<g id="a_edge3_Node000003_Node000004"><a xlink:title=" ">
<path fill="none" stroke="#63b8ff" d="M352.32,-79.12C385.52,-85.03 431.18,-93.16 468.19,-99.75"/>
<polygon fill="#63b8ff" stroke="#63b8ff" points="467.42,-103.16 477.88,-101.47 468.64,-96.27 467.42,-103.16"/>
</a>
</g>
</g>
<!-- Node6 -->
<g id="Node000006" class="node">
<title>Node6</title>
<g id="a_Node000006"><a xlink:href="espnow__security_8c.html#a7530c208d25669a17e838a4d0c7f0ea5" target="_top" xlink:title="The authenticated encryption function. Encryption with 128 bit AES&#45;CCM.">
<polygon fill="white" stroke="#666666" points="612.75,-82.25 453.5,-82.25 453.5,-60 612.75,-60 612.75,-82.25"/>
<text text-anchor="middle" x="533.12" y="-66.85" font-family="Arial" font-size="12.00">espnow_sec_auth_encrypt</text>
</a>
</g>
</g>
<!-- Node3&#45;&gt;Node6 -->
<g id="edge5_Node000003_Node000006" class="edge">
<title>Node3&#45;&gt;Node6</title>
<g id="a_edge5_Node000003_Node000006"><a xlink:title=" ">
<path fill="none" stroke="#63b8ff" d="M352.32,-71.12C377.99,-71.12 411.11,-71.12 441.91,-71.12"/>
<polygon fill="#63b8ff" stroke="#63b8ff" points="441.63,-74.63 451.63,-71.13 441.63,-67.63 441.63,-74.63"/>
</a>
</g>
</g>
<!-- Node7 -->
<g id="Node000007" class="node">
<title>Node7</title>
<g id="a_Node000007"><a xlink:href="espnow_8c.html#a776b545b0faedcd1511a6d59a7213029" target="_top" xlink:title="Set the security key info The security key info is used to derive key and stored to flash....">
<polygon fill="white" stroke="#666666" points="586.12,-42.25 480.12,-42.25 480.12,-20 586.12,-20 586.12,-42.25"/>
<text text-anchor="middle" x="533.12" y="-26.85" font-family="Arial" font-size="12.00">espnow_set_key</text>
</a>
</g>
</g>
<!-- Node3&#45;&gt;Node7 -->
<g id="edge6_Node000003_Node000007" class="edge">
<title>Node3&#45;&gt;Node7</title>
<g id="a_edge6_Node000003_Node000007"><a xlink:title=" ">
<path fill="none" stroke="#63b8ff" d="M352.32,-63.13C385.63,-57.2 431.5,-49.03 468.57,-42.44"/>
<polygon fill="#63b8ff" stroke="#63b8ff" points="469.05,-45.91 478.28,-40.71 467.82,-39.01 469.05,-45.91"/>
</a>
</g>
</g>
<!-- Node5 -->
<g id="Node000005" class="node">
<title>Node5</title>
<g id="a_Node000005"><a xlink:href="espnow__storage_8c.html#a46b53eee49b7a85ab1aaa1b876408722" target="_top" xlink:title="Load the information with given key.">
<polygon fill="white" stroke="#666666" points="776.5,-122.25 648.75,-122.25 648.75,-100 776.5,-100 776.5,-122.25"/>
<text text-anchor="middle" x="712.62" y="-106.85" font-family="Arial" font-size="12.00">espnow_storage_get</text>
</a>
</g>
</g>
<!-- Node4&#45;&gt;Node5 -->
<g id="edge4_Node000004_Node000005" class="edge">
<title>Node4&#45;&gt;Node5</title>
<g id="a_edge4_Node000004_Node000005"><a xlink:title=" ">
<path fill="none" stroke="#63b8ff" d="M586.9,-111.12C602.59,-111.12 620.09,-111.12 636.9,-111.12"/>
<polygon fill="#63b8ff" stroke="#63b8ff" points="636.89,-114.63 646.89,-111.13 636.89,-107.63 636.89,-114.63"/>
</a>
</g>
</g>
<!-- Node8 -->
<g id="Node000008" class="node">
<title>Node8</title>
<g id="a_Node000008"><a xlink:href="espnow__security_8c.html#ad081d6044fc0cedbb0c06e2c68dad306" target="_top" xlink:title="Set the security key info.">
<polygon fill="white" stroke="#666666" points="775,-62.25 650.25,-62.25 650.25,-40 775,-40 775,-62.25"/>
<text text-anchor="middle" x="712.62" y="-46.85" font-family="Arial" font-size="12.00">espnow_sec_setkey</text>
</a>
</g>
</g>
<!-- Node7&#45;&gt;Node8 -->
<g id="edge7_Node000007_Node000008" class="edge">
<title>Node7&#45;&gt;Node8</title>
<g id="a_edge7_Node000007_Node000008"><a xlink:title=" ">
<path fill="none" stroke="#63b8ff" d="M586.42,-37.02C602.78,-38.86 621.14,-40.93 638.65,-42.9"/>
<polygon fill="#63b8ff" stroke="#63b8ff" points="638.17,-46.37 648.5,-44.01 638.95,-39.41 638.17,-46.37"/>
</a>
</g>
</g>
<!-- Node9 -->
<g id="Node000009" class="node">
<title>Node9</title>
<g id="a_Node000009"><a xlink:href="espnow__storage_8c.html#ade9d20917bbd54b5748ef1651342c881" target="_top" xlink:title="Save the information with given key.">
<polygon fill="white" stroke="#666666" points="776.12,-22.25 649.12,-22.25 649.12,0 776.12,0 776.12,-22.25"/>
<text text-anchor="middle" x="712.62" y="-6.85" font-family="Arial" font-size="12.00">espnow_storage_set</text>
</a>
</g>
</g>
<!-- Node7&#45;&gt;Node9 -->
<g id="edge8_Node000007_Node000009" class="edge">
<title>Node7&#45;&gt;Node9</title>
<g id="a_edge8_Node000007_Node000009"><a xlink:title=" ">
<path fill="none" stroke="#63b8ff" d="M586.42,-25.23C602.44,-23.43 620.38,-21.41 637.57,-19.47"/>
<polygon fill="#63b8ff" stroke="#63b8ff" points="637.68,-22.98 647.22,-18.38 636.89,-16.02 637.68,-22.98"/>
</a>
</g>
</g>
</g>
</svg>
