<?xml version="1.0" encoding="UTF-8" standalone="no"?>
<!DOCTYPE svg PUBLIC "-//W3C//DTD SVG 1.1//EN"
 "http://www.w3.org/Graphics/SVG/1.1/DTD/svg11.dtd">
<!-- Generated by graphviz version 12.2.1 (20241206.2353)
 -->
<!-- Title: espnow_ota_initiator_send Pages: 1 -->
<!--zoomable 224 -->

<svg id="main" version="1.1" xmlns="http://www.w3.org/2000/svg" xmlns:xlink="http://www.w3.org/1999/xlink" xml:space="preserve" onload="init(evt)">

<style type="text/css"><![CDATA[
.node, .edge {opacity: 0.7;}
.node.selected, .edge.selected {opacity: 1;}
.edge:hover path { stroke: red; }
.edge:hover polygon { stroke: red; fill: red; }
]]></style>

<defs>
  <circle id="rim" cx="0" cy="0" r="7"/>
  <circle id="rim2" cx="0" cy="0" r="3.5"/>
  <g id="zoomPlus">
    <use xlink:href="#rim" fill="#404040"><set attributeName="fill" to="#808080" begin="zoomplus.mouseover" end="zoomplus.mouseout"/></use>
    <path d="M-4,0h8M0,-4v8" fill="none" stroke="white" stroke-width="1.5" pointer-events="none"/>
  </g>
  <g id="zoomMin">
    <use xlink:href="#rim" fill="#404040"><set attributeName="fill" to="#808080" begin="zoomminus.mouseover" end="zoomminus.mouseout"/></use>
    <path d="M-4,0h8" fill="none" stroke="white" stroke-width="1.5" pointer-events="none"/>
  </g>
  <g id="arrowUp" transform="translate(30 24)">
    <use xlink:href="#rim"/>
    <path pointer-events="none" fill="none" stroke="white" stroke-width="1.5" d="M0,-3.0v7 M-2.5,-0.5L0,-3.0L2.5,-0.5"/>
  </g>
  <g id="arrowRight" transform="rotate(90) translate(36 -43)">
    <use xlink:href="#rim"/>
    <path pointer-events="none" fill="none" stroke="white" stroke-width="1.5" d="M0,-3.0v7 M-2.5,-0.5L0,-3.0L2.5,-0.5"/>
  </g>
  <g id="arrowDown" transform="rotate(180) translate(-30 -48)">
    <use xlink:href="#rim"/>
    <path pointer-events="none" fill="none" stroke="white" stroke-width="1.5" d="M0,-3.0v7 M-2.5,-0.5L0,-3.0L2.5,-0.5"/>
  </g>
  <g id="arrowLeft" transform="rotate(270) translate(-36 17)">
    <use xlink:href="#rim"/>
    <path pointer-events="none" fill="none" stroke="white" stroke-width="1.5" d="M0,-3.0v7 M-2.5,-0.5L0,-3.0L2.5,-0.5"/>
  </g>
  <g id="resetDef">
    <use xlink:href="#rim2" fill="#404040"><set attributeName="fill" to="#808080" begin="reset.mouseover" end="reset.mouseout"/></use>
  </g>
</defs>
<script type="application/ecmascript">
var viewWidth = 1011;
var viewHeight = 224;
var sectionId = 'dynsection-1';
</script>
<script type="application/ecmascript" xlink:href="svg.min.js"/>
<svg id="graph" class="graph">
<g id="viewport">
<title>espnow_ota_initiator_send</title>
<!-- Node1 -->
<g id="Node000001" class="node">
<title>Node1</title>
<g id="a_Node000001"><a xlink:title=" ">
<polygon fill="#999999" stroke="#666666" points="160,-118.25 0,-118.25 0,-96 160,-96 160,-118.25"/>
<text text-anchor="middle" x="80" y="-102.85" font-family="Arial" font-size="12.00">espnow_ota_initiator_send</text>
</a>
</g>
</g>
<!-- Node2 -->
<g id="Node000002" class="node">
<title>Node2</title>
<g id="a_Node000002"><a xlink:href="espnow__ota__initiator_8c.html#a9eb1ad986dd12913c28b3a470d556517" target="_top" xlink:title="Free memory in the result list.">
<polygon fill="white" stroke="#666666" points="386,-216.25 196,-216.25 196,-194 386,-194 386,-216.25"/>
<text text-anchor="middle" x="291" y="-200.85" font-family="Arial" font-size="12.00">espnow_ota_initiator_result_free</text>
</a>
</g>
</g>
<!-- Node1&#45;&gt;Node2 -->
<g id="edge1_Node000001_Node000002" class="edge">
<title>Node1&#45;&gt;Node2</title>
<g id="a_edge1_Node000001_Node000002"><a xlink:title=" ">
<path fill="none" stroke="#63b8ff" d="M95.78,-118.62C116.91,-134.54 157.44,-163.24 196,-180.12 204.99,-184.06 214.75,-187.5 224.45,-190.46"/>
<polygon fill="#63b8ff" stroke="#63b8ff" points="223.32,-193.78 233.89,-193.19 225.26,-187.05 223.32,-193.78"/>
</a>
</g>
</g>
<!-- Node3 -->
<g id="Node000003" class="node">
<title>Node3</title>
<g id="a_Node000003"><a xlink:href="espnow__ota__initiator_8c.html#aee0516bac5db5dd7eceeffe99bad6465" target="_top" xlink:title="Root scans other nodes.">
<polygon fill="white" stroke="#666666" points="370.62,-138.25 211.38,-138.25 211.38,-116 370.62,-116 370.62,-138.25"/>
<text text-anchor="middle" x="291" y="-122.85" font-family="Arial" font-size="12.00">espnow_ota_initiator_scan</text>
</a>
</g>
</g>
<!-- Node1&#45;&gt;Node3 -->
<g id="edge2_Node000001_Node000003" class="edge">
<title>Node1&#45;&gt;Node3</title>
<g id="a_edge2_Node000001_Node000003"><a xlink:title=" ">
<path fill="none" stroke="#63b8ff" d="M160.31,-114.71C173.17,-115.95 186.58,-117.23 199.68,-118.48"/>
<polygon fill="#63b8ff" stroke="#63b8ff" points="199.29,-121.96 209.58,-119.43 199.96,-114.99 199.29,-121.96"/>
</a>
</g>
</g>
<!-- Node4 -->
<g id="Node000004" class="node">
<title>Node4</title>
<g id="a_Node000004"><a xlink:href="espnow__ota__initiator_8c.html#a630bcac8853933ca3e9d9bd048b141ae" target="_top" xlink:title="Free memory in the responder information list.">
<polygon fill="white" stroke="#666666" points="644.25,-172.25 422,-172.25 422,-150 644.25,-150 644.25,-172.25"/>
<text text-anchor="middle" x="533.12" y="-156.85" font-family="Arial" font-size="12.00">espnow_ota_initiator_scan_result_free</text>
</a>
</g>
</g>
<!-- Node1&#45;&gt;Node4 -->
<g id="edge12_Node000001_Node000004" class="edge">
<title>Node1&#45;&gt;Node4</title>
<g id="a_edge12_Node000001_Node000004"><a xlink:title=" ">
<path fill="none" stroke="#63b8ff" d="M106.89,-118.59C129.81,-128.14 164.44,-141.11 196,-147.12 266.23,-160.5 346.14,-164.28 410.42,-164.59"/>
<polygon fill="#63b8ff" stroke="#63b8ff" points="410.31,-168.09 420.31,-164.61 410.32,-161.09 410.31,-168.09"/>
</a>
</g>
</g>
<!-- Node5 -->
<g id="Node000005" class="node">
<title>Node5</title>
<g id="a_Node000005"><a xlink:href="espnow_8c.html#ad1db406d2cb51ac8f967fbc95473afe5" target="_top" xlink:title="Send ESP&#45;NOW data.">
<polygon fill="white" stroke="#666666" points="578.62,-128.25 487.62,-128.25 487.62,-106 578.62,-106 578.62,-128.25"/>
<text text-anchor="middle" x="533.12" y="-112.85" font-family="Arial" font-size="12.00">espnow_send</text>
</a>
</g>
</g>
<!-- Node1&#45;&gt;Node5 -->
<g id="edge13_Node000001_Node000005" class="edge">
<title>Node1&#45;&gt;Node5</title>
<g id="a_edge13_Node000001_Node000005"><a xlink:title=" ">
<path fill="none" stroke="#63b8ff" d="M160.34,-105.64C221.91,-104.85 309.4,-104.51 386,-107.12 415.8,-108.14 448.95,-110.33 476.14,-112.39"/>
<polygon fill="#63b8ff" stroke="#63b8ff" points="475.65,-115.87 485.89,-113.15 476.19,-108.89 475.65,-115.87"/>
</a>
</g>
</g>
<!-- Node12 -->
<g id="Node000012" class="node">
<title>Node12</title>
<g id="a_Node000012"><a xlink:href="espnow_8c.html#a5e8b13ca7f586bed41ed5779b84f61f4" target="_top" xlink:title="Set configuration when receiving the corresponding ESP&#45;NOW data type Include: Set to enable/disable h...">
<polygon fill="white" stroke="#666666" points="632.62,-79.25 433.62,-79.25 433.62,-57 632.62,-57 632.62,-79.25"/>
<text text-anchor="middle" x="533.12" y="-63.85" font-family="Arial" font-size="12.00">espnow_set_config_for_data_type</text>
</a>
</g>
</g>
<!-- Node1&#45;&gt;Node12 -->
<g id="edge14_Node000001_Node000012" class="edge">
<title>Node1&#45;&gt;Node12</title>
<g id="a_edge14_Node000001_Node000012"><a xlink:title=" ">
<path fill="none" stroke="#63b8ff" d="M160.35,-100.26C233.04,-93.98 341.3,-84.62 422.28,-77.62"/>
<polygon fill="#63b8ff" stroke="#63b8ff" points="422.35,-81.13 432.01,-76.78 421.75,-74.15 422.35,-81.13"/>
</a>
</g>
</g>
<!-- Node13 -->
<g id="Node000013" class="node">
<title>Node13</title>
<g id="a_Node000013"><a xlink:href="espnow_8h.html#a3ae31f1787b944c7045d52e92a0c44a3" target="_top" xlink:title="Dynamically set the grouping of devices through commands.">
<polygon fill="white" stroke="#666666" points="350,-22.25 232,-22.25 232,0 350,0 350,-22.25"/>
<text text-anchor="middle" x="291" y="-6.85" font-family="Arial" font-size="12.00">espnow_set_group</text>
</a>
</g>
</g>
<!-- Node1&#45;&gt;Node13 -->
<g id="edge15_Node000001_Node000013" class="edge">
<title>Node1&#45;&gt;Node13</title>
<g id="a_edge15_Node000001_Node000013"><a xlink:title=" ">
<path fill="none" stroke="#63b8ff" d="M96.2,-95.71C117.48,-80.2 157.85,-52.55 196,-36.12 205.13,-32.2 215.03,-28.75 224.86,-25.78"/>
<polygon fill="#63b8ff" stroke="#63b8ff" points="225.78,-29.15 234.43,-23.03 223.86,-22.42 225.78,-29.15"/>
</a>
</g>
</g>
<!-- Node3&#45;&gt;Node4 -->
<g id="edge3_Node000003_Node000004" class="edge">
<title>Node3&#45;&gt;Node4</title>
<g id="a_edge3_Node000003_Node000004"><a xlink:title=" ">
<path fill="none" stroke="#63b8ff" d="M370.96,-138.3C392.71,-141.38 416.51,-144.75 438.98,-147.94"/>
<polygon fill="#63b8ff" stroke="#63b8ff" points="438.35,-151.38 448.74,-149.32 439.33,-144.45 438.35,-151.38"/>
</a>
</g>
</g>
<!-- Node3&#45;&gt;Node5 -->
<g id="edge4_Node000003_Node000005" class="edge">
<title>Node3&#45;&gt;Node5</title>
<g id="a_edge4_Node000003_Node000005"><a xlink:title=" ">
<path fill="none" stroke="#63b8ff" d="M370.96,-123.84C405.41,-122.4 445,-120.75 476.32,-119.45"/>
<polygon fill="#63b8ff" stroke="#63b8ff" points="476.1,-122.96 485.95,-119.05 475.81,-115.97 476.1,-122.96"/>
</a>
</g>
</g>
<!-- Node3&#45;&gt;Node12 -->
<g id="edge11_Node000003_Node000012" class="edge">
<title>Node3&#45;&gt;Node12</title>
<g id="a_edge11_Node000003_Node000012"><a xlink:title=" ">
<path fill="none" stroke="#63b8ff" d="M339.15,-115.54C377.81,-106.04 432.71,-92.55 474.07,-82.39"/>
<polygon fill="#63b8ff" stroke="#63b8ff" points="474.73,-85.83 483.61,-80.05 473.06,-79.03 474.73,-85.83"/>
</a>
</g>
</g>
<!-- Node6 -->
<g id="Node000006" class="node">
<title>Node6</title>
<g id="a_Node000006"><a xlink:href="espnow_8c.html#a20960515d17cbc436c4598a4b8134c94" target="_top" xlink:title="Get the security key info stored in flash If no security key info is stored in flash,...">
<polygon fill="white" stroke="#666666" points="813.25,-168.25 706.5,-168.25 706.5,-146 813.25,-146 813.25,-168.25"/>
<text text-anchor="middle" x="759.88" y="-152.85" font-family="Arial" font-size="12.00">espnow_get_key</text>
</a>
</g>
</g>
<!-- Node5&#45;&gt;Node6 -->
<g id="edge5_Node000005_Node000006" class="edge">
<title>Node5&#45;&gt;Node6</title>
<g id="a_edge5_Node000005_Node000006"><a xlink:title=" ">
<path fill="none" stroke="#63b8ff" d="M579.07,-125.12C612.27,-131.03 657.93,-139.16 694.94,-145.75"/>
<polygon fill="#63b8ff" stroke="#63b8ff" points="694.17,-149.16 704.63,-147.47 695.39,-142.27 694.17,-149.16"/>
</a>
</g>
</g>
<!-- Node8 -->
<g id="Node000008" class="node">
<title>Node8</title>
<g id="a_Node000008"><a xlink:href="espnow__security_8c.html#a7530c208d25669a17e838a4d0c7f0ea5" target="_top" xlink:title="The authenticated encryption function. Encryption with 128 bit AES&#45;CCM.">
<polygon fill="white" stroke="#666666" points="839.5,-128.25 680.25,-128.25 680.25,-106 839.5,-106 839.5,-128.25"/>
<text text-anchor="middle" x="759.88" y="-112.85" font-family="Arial" font-size="12.00">espnow_sec_auth_encrypt</text>
</a>
</g>
</g>
<!-- Node5&#45;&gt;Node8 -->
<g id="edge7_Node000005_Node000008" class="edge">
<title>Node5&#45;&gt;Node8</title>
<g id="a_edge7_Node000005_Node000008"><a xlink:title=" ">
<path fill="none" stroke="#63b8ff" d="M579.07,-117.12C604.74,-117.12 637.86,-117.12 668.66,-117.12"/>
<polygon fill="#63b8ff" stroke="#63b8ff" points="668.38,-120.63 678.38,-117.13 668.38,-113.63 668.38,-120.63"/>
</a>
</g>
</g>
<!-- Node9 -->
<g id="Node000009" class="node">
<title>Node9</title>
<g id="a_Node000009"><a xlink:href="espnow_8c.html#a776b545b0faedcd1511a6d59a7213029" target="_top" xlink:title="Set the security key info The security key info is used to derive key and stored to flash....">
<polygon fill="white" stroke="#666666" points="812.88,-88.25 706.88,-88.25 706.88,-66 812.88,-66 812.88,-88.25"/>
<text text-anchor="middle" x="759.88" y="-72.85" font-family="Arial" font-size="12.00">espnow_set_key</text>
</a>
</g>
</g>
<!-- Node5&#45;&gt;Node9 -->
<g id="edge8_Node000005_Node000009" class="edge">
<title>Node5&#45;&gt;Node9</title>
<g id="a_edge8_Node000005_Node000009"><a xlink:title=" ">
<path fill="none" stroke="#63b8ff" d="M579.07,-109.13C612.38,-103.2 658.25,-95.03 695.32,-88.44"/>
<polygon fill="#63b8ff" stroke="#63b8ff" points="695.8,-91.91 705.03,-86.71 694.57,-85.01 695.8,-91.91"/>
</a>
</g>
</g>
<!-- Node7 -->
<g id="Node000007" class="node">
<title>Node7</title>
<g id="a_Node000007"><a xlink:href="espnow__storage_8c.html#a46b53eee49b7a85ab1aaa1b876408722" target="_top" xlink:title="Load the information with given key.">
<polygon fill="white" stroke="#666666" points="1003.25,-168.25 875.5,-168.25 875.5,-146 1003.25,-146 1003.25,-168.25"/>
<text text-anchor="middle" x="939.38" y="-152.85" font-family="Arial" font-size="12.00">espnow_storage_get</text>
</a>
</g>
</g>
<!-- Node6&#45;&gt;Node7 -->
<g id="edge6_Node000006_Node000007" class="edge">
<title>Node6&#45;&gt;Node7</title>
<g id="a_edge6_Node000006_Node000007"><a xlink:title=" ">
<path fill="none" stroke="#63b8ff" d="M813.65,-157.12C829.34,-157.12 846.84,-157.12 863.65,-157.12"/>
<polygon fill="#63b8ff" stroke="#63b8ff" points="863.64,-160.63 873.64,-157.13 863.64,-153.63 863.64,-160.63"/>
</a>
</g>
</g>
<!-- Node10 -->
<g id="Node000010" class="node">
<title>Node10</title>
<g id="a_Node000010"><a xlink:href="espnow__security_8c.html#ad081d6044fc0cedbb0c06e2c68dad306" target="_top" xlink:title="Set the security key info.">
<polygon fill="white" stroke="#666666" points="1001.75,-68.25 877,-68.25 877,-46 1001.75,-46 1001.75,-68.25"/>
<text text-anchor="middle" x="939.38" y="-52.85" font-family="Arial" font-size="12.00">espnow_sec_setkey</text>
</a>
</g>
</g>
<!-- Node9&#45;&gt;Node10 -->
<g id="edge9_Node000009_Node000010" class="edge">
<title>Node9&#45;&gt;Node10</title>
<g id="a_edge9_Node000009_Node000010"><a xlink:title=" ">
<path fill="none" stroke="#63b8ff" d="M813.17,-71.23C829.53,-69.39 847.89,-67.32 865.4,-65.35"/>
<polygon fill="#63b8ff" stroke="#63b8ff" points="865.7,-68.84 875.25,-64.24 864.92,-61.88 865.7,-68.84"/>
</a>
</g>
</g>
<!-- Node11 -->
<g id="Node000011" class="node">
<title>Node11</title>
<g id="a_Node000011"><a xlink:href="espnow__storage_8c.html#ade9d20917bbd54b5748ef1651342c881" target="_top" xlink:title="Save the information with given key.">
<polygon fill="white" stroke="#666666" points="1002.88,-108.25 875.88,-108.25 875.88,-86 1002.88,-86 1002.88,-108.25"/>
<text text-anchor="middle" x="939.38" y="-92.85" font-family="Arial" font-size="12.00">espnow_storage_set</text>
</a>
</g>
</g>
<!-- Node9&#45;&gt;Node11 -->
<g id="edge10_Node000009_Node000011" class="edge">
<title>Node9&#45;&gt;Node11</title>
<g id="a_edge10_Node000009_Node000011"><a xlink:title=" ">
<path fill="none" stroke="#63b8ff" d="M813.17,-83.02C829.19,-84.82 847.13,-86.84 864.32,-88.78"/>
<polygon fill="#63b8ff" stroke="#63b8ff" points="863.64,-92.23 873.97,-89.87 864.43,-85.27 863.64,-92.23"/>
</a>
</g>
</g>
</g>
</svg>

<g id="navigator" transform="translate(0 0)" fill="#404254">
  <rect fill="#f2f5e9" fill-opacity="0.5" stroke="#606060" stroke-width=".5" x="0" y="0" width="60" height="60"/>
  <use id="zoomplus" xlink:href="#zoomPlus" x="17" y="9" onmousedown="handleZoom(evt,'in')"/>
  <use id="zoomminus" xlink:href="#zoomMin" x="42" y="9" onmousedown="handleZoom(evt,'out')"/>
  <use id="reset" xlink:href="#resetDef" x="30" y="36" onmousedown="handleReset()"/>
   <use id="arrowup" xlink:href="#arrowUp" x="0" y="0" onmousedown="handlePan(0,-1)"/>
  <use id="arrowright" xlink:href="#arrowRight" x="0" y="0" onmousedown="handlePan(1,0)"/>
  <use id="arrowdown" xlink:href="#arrowDown" x="0" y="0" onmousedown="handlePan(0,1)"/>
  <use id="arrowleft" xlink:href="#arrowLeft" x="0" y="0" onmousedown="handlePan(-1,0)"/>
</g>
<svg viewBox="0 0 15 15" width="100%" height="30px" preserveAspectRatio="xMaxYMin meet">
 <g id="arrow_out" transform="scale(0.3 0.3)">
  <a xlink:href="espnow__ota__initiator_8c_acb0740ec882be7cff2464674acf9c764_cgraph_org.svg" target="_base">
   <rect id="button" ry="5" rx="5" y="6" x="6" height="38" width="38"
        fill="#f2f5e9" fill-opacity="0.5" stroke="#606060" stroke-width="1.0"/>
   <path id="arrow"
     d="M 11.500037,31.436501 C 11.940474,20.09759 22.043105,11.32322 32.158766,21.979434 L 37.068811,17.246167 C 37.068811,17.246167 37.088388,32 37.088388,32 L 22.160133,31.978069 C 22.160133,31.978069 26.997745,27.140456 26.997745,27.140456 C 18.528582,18.264221 13.291696,25.230495 11.500037,31.436501 z"
     style="fill:#404040;"/>
  </a>
 </g>
</svg>

<style type='text/css'>
<![CDATA[
[data-mouse-over-selected='false'] { opacity: 0.7; }
[data-mouse-over-selected='true']  { opacity: 1.0; }
]]>
</style>
<script type="application/ecmascript"><![CDATA[
document.addEventListener('DOMContentLoaded', (event) => {
  highlightEdges();
  highlightAdjacentNodes();
});
]]></script>
</svg>
