<?xml version="1.0" encoding="UTF-8" standalone="no"?>
<!DOCTYPE svg PUBLIC "-//W3C//DTD SVG 1.1//EN"
 "http://www.w3.org/Graphics/SVG/1.1/DTD/svg11.dtd">
<!-- Generated by graphviz version 12.2.1 (20241206.2353)
 -->
<!-- Title: espnow_sec_initiator_scan Pages: 1 -->
<svg width="764pt" height="130pt"
 viewBox="0.00 0.00 763.50 130.25" xmlns="http://www.w3.org/2000/svg" xmlns:xlink="http://www.w3.org/1999/xlink">
<g id="graph0" class="graph" transform="scale(1 1) rotate(0) translate(4 126.25)">
<title>espnow_sec_initiator_scan</title>
<!-- Node1 -->
<g id="Node000001" class="node">
<title>Node1</title>
<g id="a_Node000001"><a xlink:title="Root scans other node info.">
<polygon fill="#999999" stroke="#666666" points="161.5,-62.25 0,-62.25 0,-40 161.5,-40 161.5,-62.25"/>
<text text-anchor="middle" x="80.75" y="-46.85" font-family="Arial" font-size="12.00">espnow_sec_initiator_scan</text>
</a>
</g>
</g>
<!-- Node2 -->
<g id="Node000002" class="node">
<title>Node2</title>
<g id="a_Node000002"><a xlink:href="espnow_8c.html#ad1db406d2cb51ac8f967fbc95473afe5" target="_top" xlink:title="Send ESP&#45;NOW data.">
<polygon fill="white" stroke="#666666" points="342.5,-82.25 251.5,-82.25 251.5,-60 342.5,-60 342.5,-82.25"/>
<text text-anchor="middle" x="297" y="-66.85" font-family="Arial" font-size="12.00">espnow_send</text>
</a>
</g>
</g>
<!-- Node1&#45;&gt;Node2 -->
<g id="edge1_Node000001_Node000002" class="edge">
<title>Node1&#45;&gt;Node2</title>
<g id="a_edge1_Node000001_Node000002"><a xlink:title=" ">
<path fill="none" stroke="#63b8ff" d="M161.83,-58.6C187.78,-61.02 215.99,-63.66 239.81,-65.88"/>
<polygon fill="#63b8ff" stroke="#63b8ff" points="239.34,-69.35 249.62,-66.8 239.99,-62.38 239.34,-69.35"/>
</a>
</g>
</g>
<!-- Node9 -->
<g id="Node000009" class="node">
<title>Node9</title>
<g id="a_Node000009"><a xlink:href="espnow_8c.html#a5e8b13ca7f586bed41ed5779b84f61f4" target="_top" xlink:title="Set configuration when receiving the corresponding ESP&#45;NOW data type Include: Set to enable/disable h...">
<polygon fill="white" stroke="#666666" points="396.5,-42.25 197.5,-42.25 197.5,-20 396.5,-20 396.5,-42.25"/>
<text text-anchor="middle" x="297" y="-26.85" font-family="Arial" font-size="12.00">espnow_set_config_for_data_type</text>
</a>
</g>
</g>
<!-- Node1&#45;&gt;Node9 -->
<g id="edge8_Node000001_Node000009" class="edge">
<title>Node1&#45;&gt;Node9</title>
<g id="a_edge8_Node000001_Node000009"><a xlink:title=" ">
<path fill="none" stroke="#63b8ff" d="M161.83,-43.65C169.67,-42.92 177.71,-42.17 185.78,-41.41"/>
<polygon fill="#63b8ff" stroke="#63b8ff" points="186.04,-44.9 195.67,-40.49 185.39,-37.94 186.04,-44.9"/>
</a>
</g>
</g>
<!-- Node3 -->
<g id="Node000003" class="node">
<title>Node3</title>
<g id="a_Node000003"><a xlink:href="espnow_8c.html#a20960515d17cbc436c4598a4b8134c94" target="_top" xlink:title="Get the security key info stored in flash If no security key info is stored in flash,...">
<polygon fill="white" stroke="#666666" points="565.5,-122.25 458.75,-122.25 458.75,-100 565.5,-100 565.5,-122.25"/>
<text text-anchor="middle" x="512.12" y="-106.85" font-family="Arial" font-size="12.00">espnow_get_key</text>
</a>
</g>
</g>
<!-- Node2&#45;&gt;Node3 -->
<g id="edge2_Node000002_Node000003" class="edge">
<title>Node2&#45;&gt;Node3</title>
<g id="a_edge2_Node000002_Node000003"><a xlink:title=" ">
<path fill="none" stroke="#63b8ff" d="M342.94,-79.56C373.22,-85.24 413.62,-92.83 447.24,-99.13"/>
<polygon fill="#63b8ff" stroke="#63b8ff" points="446.39,-102.54 456.86,-100.94 447.68,-95.66 446.39,-102.54"/>
</a>
</g>
</g>
<!-- Node5 -->
<g id="Node000005" class="node">
<title>Node5</title>
<g id="a_Node000005"><a xlink:href="espnow__security_8c.html#a7530c208d25669a17e838a4d0c7f0ea5" target="_top" xlink:title="The authenticated encryption function. Encryption with 128 bit AES&#45;CCM.">
<polygon fill="white" stroke="#666666" points="591.75,-82.25 432.5,-82.25 432.5,-60 591.75,-60 591.75,-82.25"/>
<text text-anchor="middle" x="512.12" y="-66.85" font-family="Arial" font-size="12.00">espnow_sec_auth_encrypt</text>
</a>
</g>
</g>
<!-- Node2&#45;&gt;Node5 -->
<g id="edge4_Node000002_Node000005" class="edge">
<title>Node2&#45;&gt;Node5</title>
<g id="a_edge4_Node000002_Node000005"><a xlink:title=" ">
<path fill="none" stroke="#63b8ff" d="M342.94,-71.12C365.59,-71.12 393.91,-71.12 420.81,-71.12"/>
<polygon fill="#63b8ff" stroke="#63b8ff" points="420.72,-74.63 430.72,-71.13 420.72,-67.63 420.72,-74.63"/>
</a>
</g>
</g>
<!-- Node6 -->
<g id="Node000006" class="node">
<title>Node6</title>
<g id="a_Node000006"><a xlink:href="espnow_8c.html#a776b545b0faedcd1511a6d59a7213029" target="_top" xlink:title="Set the security key info The security key info is used to derive key and stored to flash....">
<polygon fill="white" stroke="#666666" points="565.12,-42.25 459.12,-42.25 459.12,-20 565.12,-20 565.12,-42.25"/>
<text text-anchor="middle" x="512.12" y="-26.85" font-family="Arial" font-size="12.00">espnow_set_key</text>
</a>
</g>
</g>
<!-- Node2&#45;&gt;Node6 -->
<g id="edge5_Node000002_Node000006" class="edge">
<title>Node2&#45;&gt;Node6</title>
<g id="a_edge5_Node000002_Node000006"><a xlink:title=" ">
<path fill="none" stroke="#63b8ff" d="M342.94,-62.69C373.33,-56.99 413.91,-49.37 447.6,-43.05"/>
<polygon fill="#63b8ff" stroke="#63b8ff" points="448.07,-46.52 457.25,-41.24 446.77,-39.64 448.07,-46.52"/>
</a>
</g>
</g>
<!-- Node4 -->
<g id="Node000004" class="node">
<title>Node4</title>
<g id="a_Node000004"><a xlink:href="espnow__storage_8c.html#a46b53eee49b7a85ab1aaa1b876408722" target="_top" xlink:title="Load the information with given key.">
<polygon fill="white" stroke="#666666" points="755.5,-122.25 627.75,-122.25 627.75,-100 755.5,-100 755.5,-122.25"/>
<text text-anchor="middle" x="691.62" y="-106.85" font-family="Arial" font-size="12.00">espnow_storage_get</text>
</a>
</g>
</g>
<!-- Node3&#45;&gt;Node4 -->
<g id="edge3_Node000003_Node000004" class="edge">
<title>Node3&#45;&gt;Node4</title>
<g id="a_edge3_Node000003_Node000004"><a xlink:title=" ">
<path fill="none" stroke="#63b8ff" d="M565.9,-111.12C581.59,-111.12 599.09,-111.12 615.9,-111.12"/>
<polygon fill="#63b8ff" stroke="#63b8ff" points="615.89,-114.63 625.89,-111.13 615.89,-107.63 615.89,-114.63"/>
</a>
</g>
</g>
<!-- Node7 -->
<g id="Node000007" class="node">
<title>Node7</title>
<g id="a_Node000007"><a xlink:href="espnow__security_8c.html#ad081d6044fc0cedbb0c06e2c68dad306" target="_top" xlink:title="Set the security key info.">
<polygon fill="white" stroke="#666666" points="754,-62.25 629.25,-62.25 629.25,-40 754,-40 754,-62.25"/>
<text text-anchor="middle" x="691.62" y="-46.85" font-family="Arial" font-size="12.00">espnow_sec_setkey</text>
</a>
</g>
</g>
<!-- Node6&#45;&gt;Node7 -->
<g id="edge6_Node000006_Node000007" class="edge">
<title>Node6&#45;&gt;Node7</title>
<g id="a_edge6_Node000006_Node000007"><a xlink:title=" ">
<path fill="none" stroke="#63b8ff" d="M565.42,-37.02C581.78,-38.86 600.14,-40.93 617.65,-42.9"/>
<polygon fill="#63b8ff" stroke="#63b8ff" points="617.17,-46.37 627.5,-44.01 617.95,-39.41 617.17,-46.37"/>
</a>
</g>
</g>
<!-- Node8 -->
<g id="Node000008" class="node">
<title>Node8</title>
<g id="a_Node000008"><a xlink:href="espnow__storage_8c.html#ade9d20917bbd54b5748ef1651342c881" target="_top" xlink:title="Save the information with given key.">
<polygon fill="white" stroke="#666666" points="755.12,-22.25 628.12,-22.25 628.12,0 755.12,0 755.12,-22.25"/>
<text text-anchor="middle" x="691.62" y="-6.85" font-family="Arial" font-size="12.00">espnow_storage_set</text>
</a>
</g>
</g>
<!-- Node6&#45;&gt;Node8 -->
<g id="edge7_Node000006_Node000008" class="edge">
<title>Node6&#45;&gt;Node8</title>
<g id="a_edge7_Node000006_Node000008"><a xlink:title=" ">
<path fill="none" stroke="#63b8ff" d="M565.42,-25.23C581.44,-23.43 599.38,-21.41 616.57,-19.47"/>
<polygon fill="#63b8ff" stroke="#63b8ff" points="616.68,-22.98 626.22,-18.38 615.89,-16.02 616.68,-22.98"/>
</a>
</g>
</g>
</g>
</svg>
