<?xml version="1.0" encoding="UTF-8" standalone="no"?>
<!DOCTYPE svg PUBLIC "-//W3C//DTD SVG 1.1//EN"
 "http://www.w3.org/Graphics/SVG/1.1/DTD/svg11.dtd">
<!-- Generated by graphviz version 12.2.1 (20241206.2353)
 -->
<!-- Title: register_espnow Pages: 1 -->
<svg width="276pt" height="190pt"
 viewBox="0.00 0.00 276.25 190.25" xmlns="http://www.w3.org/2000/svg" xmlns:xlink="http://www.w3.org/1999/xlink">

<svg id="main" version="1.1" xmlns="http://www.w3.org/2000/svg" xmlns:xlink="http://www.w3.org/1999/xlink" xml:space="preserve">

<style type="text/css"><![CDATA[
.node, .edge {opacity: 0.7;}
.node.selected, .edge.selected {opacity: 1;}
.edge:hover path { stroke: red; }
.edge:hover polygon { stroke: red; fill: red; }
]]></style>
<script type="application/ecmascript" xlink:href="svg.min.js"/>
<svg id="graph" class="graph">
<g id="graph0" class="graph" transform="scale(1 1) rotate(0) translate(4 186.25)">
<title>register_espnow</title>
<!-- Node1 -->
<g id="Node000001" class="node">
<title>Node1</title>
<g id="a_Node000001"><a xlink:title=" ">
<polygon fill="#999999" stroke="#666666" points="104.5,-102.25 0,-102.25 0,-80 104.5,-80 104.5,-102.25"/>
<text text-anchor="middle" x="52.25" y="-86.85" font-family="Arial" font-size="12.00">register_espnow</text>
</a>
</g>
</g>
<!-- Node2 -->
<g id="Node000002" class="node">
<title>Node2</title>
<g id="a_Node000002"><a xlink:href="cmd__espnow_8c.html#a663e227ca7f408c5e70f3a543066c1f3" target="_top" xlink:title="Register command command.">
<polygon fill="white" stroke="#666666" points="261.88,-182.25 146.88,-182.25 146.88,-160 261.88,-160 261.88,-182.25"/>
<text text-anchor="middle" x="204.38" y="-166.85" font-family="Arial" font-size="12.00">register_command</text>
</a>
</g>
</g>
<!-- Node1&#45;&gt;Node2 -->
<g id="edge1_Node000001_Node000002" class="edge">
<title>Node1&#45;&gt;Node2</title>
<g id="a_edge1_Node000001_Node000002"><a xlink:title=" ">
<path fill="none" stroke="#63b8ff" d="M67.26,-102.71C83.85,-115.95 112.76,-137.55 140.5,-151.12 143.74,-152.71 147.14,-154.21 150.6,-155.62"/>
<polygon fill="#63b8ff" stroke="#63b8ff" points="149.09,-158.79 159.68,-159.04 151.56,-152.24 149.09,-158.79"/>
</a>
</g>
</g>
<!-- Node3 -->
<g id="Node000003" class="node">
<title>Node3</title>
<g id="a_Node000003"><a xlink:href="cmd__espnow_8c.html#a133f010c7f704fae3fd7c7844ab8adb4" target="_top" xlink:title=" ">
<polygon fill="white" stroke="#666666" points="253.62,-142.25 155.12,-142.25 155.12,-120 253.62,-120 253.62,-142.25"/>
<text text-anchor="middle" x="204.38" y="-126.85" font-family="Arial" font-size="12.00">register_control</text>
</a>
</g>
</g>
<!-- Node1&#45;&gt;Node3 -->
<g id="edge2_Node000001_Node000003" class="edge">
<title>Node1&#45;&gt;Node3</title>
<g id="a_edge2_Node000001_Node000003"><a xlink:title=" ">
<path fill="none" stroke="#63b8ff" d="M96.67,-102.69C112.94,-107.03 131.63,-112.01 148.78,-116.58"/>
<polygon fill="#63b8ff" stroke="#63b8ff" points="147.76,-119.93 158.33,-119.12 149.57,-113.17 147.76,-119.93"/>
</a>
</g>
</g>
<!-- Node4 -->
<g id="Node000004" class="node">
<title>Node4</title>
<g id="a_Node000004"><a xlink:href="cmd__espnow_8c.html#a4116f70abed28605f9edde3cb2b49df3" target="_top" xlink:title=" ">
<polygon fill="white" stroke="#666666" points="243.88,-102.25 164.88,-102.25 164.88,-80 243.88,-80 243.88,-102.25"/>
<text text-anchor="middle" x="204.38" y="-86.85" font-family="Arial" font-size="12.00">register_ota</text>
</a>
</g>
</g>
<!-- Node1&#45;&gt;Node4 -->
<g id="edge3_Node000001_Node000004" class="edge">
<title>Node1&#45;&gt;Node4</title>
<g id="a_edge3_Node000001_Node000004"><a xlink:title=" ">
<path fill="none" stroke="#63b8ff" d="M104.91,-91.12C120.46,-91.12 137.49,-91.12 152.96,-91.12"/>
<polygon fill="#63b8ff" stroke="#63b8ff" points="152.91,-94.63 162.91,-91.13 152.91,-87.63 152.91,-94.63"/>
</a>
</g>
</g>
<!-- Node5 -->
<g id="Node000005" class="node">
<title>Node5</title>
<g id="a_Node000005"><a xlink:href="cmd__espnow_8c.html#a250a2960cac20a0a927ea9ee538d0ed1" target="_top" xlink:title=" ">
<polygon fill="white" stroke="#666666" points="268.25,-62.25 140.5,-62.25 140.5,-40 268.25,-40 268.25,-62.25"/>
<text text-anchor="middle" x="204.38" y="-46.85" font-family="Arial" font-size="12.00">register_provisioning</text>
</a>
</g>
</g>
<!-- Node1&#45;&gt;Node5 -->
<g id="edge4_Node000001_Node000005" class="edge">
<title>Node1&#45;&gt;Node5</title>
<g id="a_edge4_Node000001_Node000005"><a xlink:title=" ">
<path fill="none" stroke="#63b8ff" d="M96.67,-79.56C112.94,-75.22 131.63,-70.24 148.78,-65.67"/>
<polygon fill="#63b8ff" stroke="#63b8ff" points="149.57,-69.08 158.33,-63.13 147.76,-62.32 149.57,-69.08"/>
</a>
</g>
</g>
<!-- Node6 -->
<g id="Node000006" class="node">
<title>Node6</title>
<g id="a_Node000006"><a xlink:href="cmd__espnow_8c.html#a952bdf39df32da2582cc93259df66b21" target="_top" xlink:title=" ">
<polygon fill="white" stroke="#666666" points="248.38,-22.25 160.38,-22.25 160.38,0 248.38,0 248.38,-22.25"/>
<text text-anchor="middle" x="204.38" y="-6.85" font-family="Arial" font-size="12.00">register_scan</text>
</a>
</g>
</g>
<!-- Node1&#45;&gt;Node6 -->
<g id="edge5_Node000001_Node000006" class="edge">
<title>Node1&#45;&gt;Node6</title>
<g id="a_edge5_Node000001_Node000006"><a xlink:title=" ">
<path fill="none" stroke="#63b8ff" d="M67.26,-79.54C83.85,-66.3 112.76,-44.7 140.5,-31.12 143.74,-29.54 147.14,-28.04 150.6,-26.63"/>
<polygon fill="#63b8ff" stroke="#63b8ff" points="151.56,-30.01 159.68,-23.21 149.09,-23.46 151.56,-30.01"/>
</a>
</g>
</g>
</g>
</svg>
</svg>

<style type='text/css'>
<![CDATA[
[data-mouse-over-selected='false'] { opacity: 0.7; }
[data-mouse-over-selected='true']  { opacity: 1.0; }
]]>
</style>
<script type="application/ecmascript"><![CDATA[
document.addEventListener('DOMContentLoaded', (event) => {
  highlightEdges();
  highlightAdjacentNodes();
});
]]></script>
</svg>
