<?xml version="1.0" encoding="UTF-8" standalone="no"?>
<!DOCTYPE svg PUBLIC "-//W3C//DTD SVG 1.1//EN"
 "http://www.w3.org/Graphics/SVG/1.1/DTD/svg11.dtd">
<!-- Generated by graphviz version 12.2.1 (20241206.2353)
 -->
<!-- Title: espnow_console_commands_register Pages: 1 -->
<svg width="565pt" height="510pt"
 viewBox="0.00 0.00 564.50 510.25" xmlns="http://www.w3.org/2000/svg" xmlns:xlink="http://www.w3.org/1999/xlink">
<g id="graph0" class="graph" transform="scale(1 1) rotate(0) translate(4 506.25)">
<title>espnow_console_commands_register</title>
<!-- Node1 -->
<g id="Node000001" class="node">
<title>Node1</title>
<g id="a_Node000001"><a xlink:title="Register Common commands.">
<polygon fill="#999999" stroke="#666666" points="218.5,-182.25 0,-182.25 0,-160 218.5,-160 218.5,-182.25"/>
<text text-anchor="middle" x="109.25" y="-166.85" font-family="Arial" font-size="12.00">espnow_console_commands_register</text>
</a>
</g>
</g>
<!-- Node2 -->
<g id="Node000002" class="node">
<title>Node2</title>
<g id="a_Node000002"><a xlink:href="cmd__espnow_8c.html#a49ab8b4f30ba6620b8349e8dbcf6e7a7" target="_top" xlink:title=" ">
<polygon fill="white" stroke="#666666" points="368,-402.25 263.5,-402.25 263.5,-380 368,-380 368,-402.25"/>
<text text-anchor="middle" x="315.75" y="-386.85" font-family="Arial" font-size="12.00">register_espnow</text>
</a>
</g>
</g>
<!-- Node1&#45;&gt;Node2 -->
<g id="edge1_Node000001_Node000002" class="edge">
<title>Node1&#45;&gt;Node2</title>
<g id="a_edge1_Node000001_Node000002"><a xlink:title=" ">
<path fill="none" stroke="#63b8ff" d="M120.96,-182.64C154.02,-218.21 254.76,-326.59 296.42,-371.41"/>
<polygon fill="#63b8ff" stroke="#63b8ff" points="293.75,-373.67 303.12,-378.61 298.87,-368.9 293.75,-373.67"/>
</a>
</g>
</g>
<!-- Node8 -->
<g id="Node000008" class="node">
<title>Node8</title>
<g id="a_Node000008"><a xlink:href="cmd__iperf_8c.html#aba7899961f37bd327bbcfbfbe6582b3d" target="_top" xlink:title=" ">
<polygon fill="white" stroke="#666666" points="358.62,-302.25 272.88,-302.25 272.88,-280 358.62,-280 358.62,-302.25"/>
<text text-anchor="middle" x="315.75" y="-286.85" font-family="Arial" font-size="12.00">register_iperf</text>
</a>
</g>
</g>
<!-- Node1&#45;&gt;Node8 -->
<g id="edge7_Node000001_Node000008" class="edge">
<title>Node1&#45;&gt;Node8</title>
<g id="a_edge7_Node000001_Node000008"><a xlink:title=" ">
<path fill="none" stroke="#63b8ff" d="M123.74,-182.48C148.33,-202.7 202.71,-245.25 254.5,-271.12 257.56,-272.65 260.76,-274.1 264.02,-275.47"/>
<polygon fill="#63b8ff" stroke="#63b8ff" points="262.56,-278.66 273.15,-279.02 265.1,-272.14 262.56,-278.66"/>
</a>
</g>
</g>
<!-- Node11 -->
<g id="Node000011" class="node">
<title>Node11</title>
<g id="a_Node000011"><a xlink:href="cmd__peripherals_8c.html#a32de1cde0b0101a969e28a296a893a0c" target="_top" xlink:title=" ">
<polygon fill="white" stroke="#666666" points="377,-262.25 254.5,-262.25 254.5,-240 377,-240 377,-262.25"/>
<text text-anchor="middle" x="315.75" y="-246.85" font-family="Arial" font-size="12.00">register_peripherals</text>
</a>
</g>
</g>
<!-- Node1&#45;&gt;Node11 -->
<g id="edge10_Node000001_Node000011" class="edge">
<title>Node1&#45;&gt;Node11</title>
<g id="a_edge10_Node000001_Node000011"><a xlink:title=" ">
<path fill="none" stroke="#63b8ff" d="M136.34,-182.66C165.06,-195.19 212.7,-215.52 254.5,-231.12 258.86,-232.75 263.41,-234.38 267.99,-235.98"/>
<polygon fill="#63b8ff" stroke="#63b8ff" points="266.57,-239.19 277.16,-239.12 268.83,-232.57 266.57,-239.19"/>
</a>
</g>
</g>
<!-- Node12 -->
<g id="Node000012" class="node">
<title>Node12</title>
<g id="a_Node000012"><a xlink:href="cmd__sdcard_8c.html#aee0a19b9ec59752b8124fcb5d3b45d23" target="_top" xlink:title="Register sdcard command.">
<polygon fill="white" stroke="#666666" points="365,-222.25 266.5,-222.25 266.5,-200 365,-200 365,-222.25"/>
<text text-anchor="middle" x="315.75" y="-206.85" font-family="Arial" font-size="12.00">register_sdcard</text>
</a>
</g>
</g>
<!-- Node1&#45;&gt;Node12 -->
<g id="edge11_Node000001_Node000012" class="edge">
<title>Node1&#45;&gt;Node12</title>
<g id="a_edge11_Node000001_Node000012"><a xlink:title=" ">
<path fill="none" stroke="#63b8ff" d="M169.67,-182.75C196.5,-188 228.13,-194.18 255,-199.44"/>
<polygon fill="#63b8ff" stroke="#63b8ff" points="254.22,-202.85 264.71,-201.34 255.57,-195.98 254.22,-202.85"/>
</a>
</g>
</g>
<!-- Node13 -->
<g id="Node000013" class="node">
<title>Node13</title>
<g id="a_Node000013"><a xlink:href="cmd__system_8c.html#a5cea85be00cb1ee5b57616da2fec81dd" target="_top" xlink:title=" ">
<polygon fill="white" stroke="#666666" points="365.75,-182.25 265.75,-182.25 265.75,-160 365.75,-160 365.75,-182.25"/>
<text text-anchor="middle" x="315.75" y="-166.85" font-family="Arial" font-size="12.00">register_system</text>
</a>
</g>
</g>
<!-- Node1&#45;&gt;Node13 -->
<g id="edge12_Node000001_Node000013" class="edge">
<title>Node1&#45;&gt;Node13</title>
<g id="a_edge12_Node000001_Node000013"><a xlink:title=" ">
<path fill="none" stroke="#63b8ff" d="M218.79,-171.12C230.85,-171.12 242.79,-171.12 253.95,-171.12"/>
<polygon fill="#63b8ff" stroke="#63b8ff" points="253.74,-174.63 263.74,-171.13 253.74,-167.63 253.74,-174.63"/>
</a>
</g>
</g>
<!-- Node14 -->
<g id="Node000014" class="node">
<title>Node14</title>
<g id="a_Node000014"><a xlink:href="cmd__wifi_8c.html#acc3b783818c73878210baf4064425629" target="_top" xlink:title=" ">
<polygon fill="white" stroke="#666666" points="356,-142.25 275.5,-142.25 275.5,-120 356,-120 356,-142.25"/>
<text text-anchor="middle" x="315.75" y="-126.85" font-family="Arial" font-size="12.00">register_wifi</text>
</a>
</g>
</g>
<!-- Node1&#45;&gt;Node14 -->
<g id="edge13_Node000001_Node000014" class="edge">
<title>Node1&#45;&gt;Node14</title>
<g id="a_edge13_Node000001_Node000014"><a xlink:title=" ">
<path fill="none" stroke="#63b8ff" d="M169.67,-159.5C199.66,-153.64 235.64,-146.6 264.26,-141"/>
<polygon fill="#63b8ff" stroke="#63b8ff" points="264.62,-144.5 273.76,-139.14 263.27,-137.63 264.62,-144.5"/>
</a>
</g>
</g>
<!-- Node18 -->
<g id="Node000018" class="node">
<title>Node18</title>
<g id="a_Node000018"><a xlink:href="cmd__wifi__sniffer_8c.html#aeca2ef6acde5704f187f7f3734ca0a51" target="_top" xlink:title=" ">
<polygon fill="white" stroke="#666666" points="375.5,-102.25 256,-102.25 256,-80 375.5,-80 375.5,-102.25"/>
<text text-anchor="middle" x="315.75" y="-86.85" font-family="Arial" font-size="12.00">register_wifi_sniffer</text>
</a>
</g>
</g>
<!-- Node1&#45;&gt;Node18 -->
<g id="edge17_Node000001_Node000018" class="edge">
<title>Node1&#45;&gt;Node18</title>
<g id="a_edge17_Node000001_Node000018"><a xlink:title=" ">
<path fill="none" stroke="#63b8ff" d="M136.34,-159.59C165.06,-147.06 212.7,-126.73 254.5,-111.12 258.86,-109.5 263.41,-107.87 267.99,-106.27"/>
<polygon fill="#63b8ff" stroke="#63b8ff" points="268.83,-109.68 277.16,-103.13 266.57,-103.06 268.83,-109.68"/>
</a>
</g>
</g>
<!-- Node19 -->
<g id="Node000019" class="node">
<title>Node19</title>
<g id="a_Node000019"><a xlink:href="sdcard_8c.html#ae3e13ea01aad71d69c7e3c4656de1803" target="_top" xlink:title="Initialize sdcard, Using SDMMC peripheral.">
<polygon fill="white" stroke="#666666" points="353,-62.25 278.5,-62.25 278.5,-40 353,-40 353,-62.25"/>
<text text-anchor="middle" x="315.75" y="-46.85" font-family="Arial" font-size="12.00">sdcard_init</text>
</a>
</g>
</g>
<!-- Node1&#45;&gt;Node19 -->
<g id="edge18_Node000001_Node000019" class="edge">
<title>Node1&#45;&gt;Node19</title>
<g id="a_edge18_Node000001_Node000019"><a xlink:title=" ">
<path fill="none" stroke="#63b8ff" d="M123.74,-159.77C148.33,-139.55 202.71,-97 254.5,-71.12 258.66,-69.05 263.08,-67.11 267.57,-65.33"/>
<polygon fill="#63b8ff" stroke="#63b8ff" points="268.49,-68.72 276.65,-61.97 266.06,-62.15 268.49,-68.72"/>
</a>
</g>
</g>
<!-- Node20 -->
<g id="Node000020" class="node">
<title>Node20</title>
<g id="a_Node000020"><a xlink:href="sdcard_8c.html#a1ee82a88b28b169594e94eada1cf1233" target="_top" xlink:title="Check if sdcard is mounted.">
<polygon fill="white" stroke="#666666" points="369.5,-22.25 262,-22.25 262,0 369.5,0 369.5,-22.25"/>
<text text-anchor="middle" x="315.75" y="-6.85" font-family="Arial" font-size="12.00">sdcard_is_mount</text>
</a>
</g>
</g>
<!-- Node1&#45;&gt;Node20 -->
<g id="edge19_Node000001_Node000020" class="edge">
<title>Node1&#45;&gt;Node20</title>
<g id="a_edge19_Node000001_Node000020"><a xlink:title=" ">
<path fill="none" stroke="#63b8ff" d="M119.06,-159.55C139.81,-133.07 194.53,-67.52 254.5,-31.12 256.77,-29.75 259.14,-28.46 261.58,-27.24"/>
<polygon fill="#63b8ff" stroke="#63b8ff" points="262.76,-30.55 270.48,-23.3 259.92,-24.15 262.76,-30.55"/>
</a>
</g>
</g>
<!-- Node3 -->
<g id="Node000003" class="node">
<title>Node3</title>
<g id="a_Node000003"><a xlink:href="cmd__espnow_8c.html#a663e227ca7f408c5e70f3a543066c1f3" target="_top" xlink:title="Register command command.">
<polygon fill="white" stroke="#666666" points="542.25,-502.25 427.25,-502.25 427.25,-480 542.25,-480 542.25,-502.25"/>
<text text-anchor="middle" x="484.75" y="-486.85" font-family="Arial" font-size="12.00">register_command</text>
</a>
</g>
</g>
<!-- Node2&#45;&gt;Node3 -->
<g id="edge2_Node000002_Node000003" class="edge">
<title>Node2&#45;&gt;Node3</title>
<g id="a_edge2_Node000002_Node000003"><a xlink:title=" ">
<path fill="none" stroke="#63b8ff" d="M327.46,-402.7C344.12,-420.04 378.01,-452.71 413,-471.12 416.01,-472.71 419.16,-474.18 422.39,-475.54"/>
<polygon fill="#63b8ff" stroke="#63b8ff" points="420.88,-478.71 431.47,-479.01 423.37,-472.17 420.88,-478.71"/>
</a>
</g>
</g>
<!-- Node4 -->
<g id="Node000004" class="node">
<title>Node4</title>
<g id="a_Node000004"><a xlink:href="cmd__espnow_8c.html#a133f010c7f704fae3fd7c7844ab8adb4" target="_top" xlink:title=" ">
<polygon fill="white" stroke="#666666" points="534,-462.25 435.5,-462.25 435.5,-440 534,-440 534,-462.25"/>
<text text-anchor="middle" x="484.75" y="-446.85" font-family="Arial" font-size="12.00">register_control</text>
</a>
</g>
</g>
<!-- Node2&#45;&gt;Node4 -->
<g id="edge3_Node000002_Node000004" class="edge">
<title>Node2&#45;&gt;Node4</title>
<g id="a_edge3_Node000002_Node000004"><a xlink:title=" ">
<path fill="none" stroke="#63b8ff" d="M342.17,-402.66C361.39,-411.14 388.56,-422.63 413,-431.12 418.08,-432.89 423.41,-434.62 428.76,-436.27"/>
<polygon fill="#63b8ff" stroke="#63b8ff" points="427.68,-439.6 438.27,-439.12 429.69,-432.9 427.68,-439.6"/>
</a>
</g>
</g>
<!-- Node5 -->
<g id="Node000005" class="node">
<title>Node5</title>
<g id="a_Node000005"><a xlink:href="cmd__espnow_8c.html#a4116f70abed28605f9edde3cb2b49df3" target="_top" xlink:title=" ">
<polygon fill="white" stroke="#666666" points="524.25,-422.25 445.25,-422.25 445.25,-400 524.25,-400 524.25,-422.25"/>
<text text-anchor="middle" x="484.75" y="-406.85" font-family="Arial" font-size="12.00">register_ota</text>
</a>
</g>
</g>
<!-- Node2&#45;&gt;Node5 -->
<g id="edge4_Node000002_Node000005" class="edge">
<title>Node2&#45;&gt;Node5</title>
<g id="a_edge4_Node000002_Node000005"><a xlink:title=" ">
<path fill="none" stroke="#63b8ff" d="M368.22,-397.29C388.98,-399.78 412.87,-402.64 433.51,-405.11"/>
<polygon fill="#63b8ff" stroke="#63b8ff" points="433.07,-408.58 443.41,-406.29 433.9,-401.63 433.07,-408.58"/>
</a>
</g>
</g>
<!-- Node6 -->
<g id="Node000006" class="node">
<title>Node6</title>
<g id="a_Node000006"><a xlink:href="cmd__espnow_8c.html#a250a2960cac20a0a927ea9ee538d0ed1" target="_top" xlink:title=" ">
<polygon fill="white" stroke="#666666" points="548.62,-382.25 420.88,-382.25 420.88,-360 548.62,-360 548.62,-382.25"/>
<text text-anchor="middle" x="484.75" y="-366.85" font-family="Arial" font-size="12.00">register_provisioning</text>
</a>
</g>
</g>
<!-- Node2&#45;&gt;Node6 -->
<g id="edge5_Node000002_Node000006" class="edge">
<title>Node2&#45;&gt;Node6</title>
<g id="a_edge5_Node000002_Node000006"><a xlink:title=" ">
<path fill="none" stroke="#63b8ff" d="M368.22,-384.96C381.23,-383.4 395.45,-381.7 409.34,-380.04"/>
<polygon fill="#63b8ff" stroke="#63b8ff" points="409.36,-383.56 418.88,-378.89 408.53,-376.61 409.36,-383.56"/>
</a>
</g>
</g>
<!-- Node7 -->
<g id="Node000007" class="node">
<title>Node7</title>
<g id="a_Node000007"><a xlink:href="cmd__espnow_8c.html#a952bdf39df32da2582cc93259df66b21" target="_top" xlink:title=" ">
<polygon fill="white" stroke="#666666" points="528.75,-342.25 440.75,-342.25 440.75,-320 528.75,-320 528.75,-342.25"/>
<text text-anchor="middle" x="484.75" y="-326.85" font-family="Arial" font-size="12.00">register_scan</text>
</a>
</g>
</g>
<!-- Node2&#45;&gt;Node7 -->
<g id="edge6_Node000002_Node000007" class="edge">
<title>Node2&#45;&gt;Node7</title>
<g id="a_edge6_Node000002_Node000007"><a xlink:title=" ">
<path fill="none" stroke="#63b8ff" d="M342.17,-379.59C361.39,-371.11 388.56,-359.62 413,-351.12 418.36,-349.26 424,-347.44 429.65,-345.7"/>
<polygon fill="#63b8ff" stroke="#63b8ff" points="430.43,-349.12 439.02,-342.91 428.44,-342.41 430.43,-349.12"/>
</a>
</g>
</g>
<!-- Node9 -->
<g id="Node000009" class="node">
<title>Node9</title>
<g id="a_Node000009"><a xlink:href="cmd__iperf_8c.html#a59752ecd5d3a975453892e77911181f3" target="_top" xlink:title=" ">
<polygon fill="white" stroke="#666666" points="556.5,-302.25 413,-302.25 413,-280 556.5,-280 556.5,-302.25"/>
<text text-anchor="middle" x="484.75" y="-286.85" font-family="Arial" font-size="12.00">register_espnow_config</text>
</a>
</g>
</g>
<!-- Node8&#45;&gt;Node9 -->
<g id="edge8_Node000008_Node000009" class="edge">
<title>Node8&#45;&gt;Node9</title>
<g id="a_edge8_Node000008_Node000009"><a xlink:title=" ">
<path fill="none" stroke="#63b8ff" d="M358.89,-291.12C371.9,-291.12 386.71,-291.12 401.46,-291.12"/>
<polygon fill="#63b8ff" stroke="#63b8ff" points="401.19,-294.63 411.19,-291.13 401.19,-287.63 401.19,-294.63"/>
</a>
</g>
</g>
<!-- Node10 -->
<g id="Node000010" class="node">
<title>Node10</title>
<g id="a_Node000010"><a xlink:href="cmd__iperf_8c.html#a3e3a4b00f06201a66ee042ac3363f9de" target="_top" xlink:title=" ">
<polygon fill="white" stroke="#666666" points="552,-262.25 417.5,-262.25 417.5,-240 552,-240 552,-262.25"/>
<text text-anchor="middle" x="484.75" y="-246.85" font-family="Arial" font-size="12.00">register_espnow_iperf</text>
</a>
</g>
</g>
<!-- Node8&#45;&gt;Node10 -->
<g id="edge9_Node000008_Node000010" class="edge">
<title>Node8&#45;&gt;Node10</title>
<g id="a_edge9_Node000008_Node000010"><a xlink:title=" ">
<path fill="none" stroke="#63b8ff" d="M358.89,-281.03C378.72,-276.28 402.72,-270.53 424.35,-265.35"/>
<polygon fill="#63b8ff" stroke="#63b8ff" points="425.03,-268.79 433.94,-263.06 423.4,-261.98 425.03,-268.79"/>
</a>
</g>
</g>
<!-- Node15 -->
<g id="Node000015" class="node">
<title>Node15</title>
<g id="a_Node000015"><a xlink:href="cmd__wifi_8c.html#a53edfa7e48af95ba07348e7c1421feea" target="_top" xlink:title=" ">
<polygon fill="white" stroke="#666666" points="535.12,-182.25 434.38,-182.25 434.38,-160 535.12,-160 535.12,-182.25"/>
<text text-anchor="middle" x="484.75" y="-166.85" font-family="Arial" font-size="12.00">register_wifi_ap</text>
</a>
</g>
</g>
<!-- Node14&#45;&gt;Node15 -->
<g id="edge14_Node000014_Node000015" class="edge">
<title>Node14&#45;&gt;Node15</title>
<g id="a_edge14_Node000014_Node000015"><a xlink:title=" ">
<path fill="none" stroke="#63b8ff" d="M356.33,-140.6C376.62,-145.47 401.76,-151.49 424.34,-156.89"/>
<polygon fill="#63b8ff" stroke="#63b8ff" points="423.51,-160.29 434.05,-159.22 425.14,-153.49 423.51,-160.29"/>
</a>
</g>
</g>
<!-- Node16 -->
<g id="Node000016" class="node">
<title>Node16</title>
<g id="a_Node000016"><a xlink:href="cmd__wifi_8c.html#a829e61400c74b6e8b03ebbc968fb6ae9" target="_top" xlink:title=" ">
<polygon fill="white" stroke="#666666" points="540,-142.25 429.5,-142.25 429.5,-120 540,-120 540,-142.25"/>
<text text-anchor="middle" x="484.75" y="-126.85" font-family="Arial" font-size="12.00">register_wifi_ping</text>
</a>
</g>
</g>
<!-- Node14&#45;&gt;Node16 -->
<g id="edge15_Node000014_Node000016" class="edge">
<title>Node14&#45;&gt;Node16</title>
<g id="a_edge15_Node000014_Node000016"><a xlink:title=" ">
<path fill="none" stroke="#63b8ff" d="M356.33,-131.12C374.72,-131.12 397.09,-131.12 417.92,-131.12"/>
<polygon fill="#63b8ff" stroke="#63b8ff" points="417.78,-134.63 427.78,-131.13 417.78,-127.63 417.78,-134.63"/>
</a>
</g>
</g>
<!-- Node17 -->
<g id="Node000017" class="node">
<title>Node17</title>
<g id="a_Node000017"><a xlink:href="cmd__wifi_8c.html#af11c2a0aaba22bf6cce6d38be617ed89" target="_top" xlink:title="Register wifi scan command.">
<polygon fill="white" stroke="#666666" points="541.12,-102.25 428.38,-102.25 428.38,-80 541.12,-80 541.12,-102.25"/>
<text text-anchor="middle" x="484.75" y="-86.85" font-family="Arial" font-size="12.00">register_wifi_scan</text>
</a>
</g>
</g>
<!-- Node14&#45;&gt;Node17 -->
<g id="edge16_Node000014_Node000017" class="edge">
<title>Node14&#45;&gt;Node17</title>
<g id="a_edge16_Node000014_Node000017"><a xlink:title=" ">
<path fill="none" stroke="#63b8ff" d="M356.33,-121.65C376.62,-116.78 401.76,-110.76 424.34,-105.36"/>
<polygon fill="#63b8ff" stroke="#63b8ff" points="425.14,-108.76 434.05,-103.03 423.51,-101.96 425.14,-108.76"/>
</a>
</g>
</g>
</g>
</svg>
