<?xml version="1.0" encoding="UTF-8" standalone="no"?>
<!DOCTYPE svg PUBLIC "-//W3C//DTD SVG 1.1//EN"
 "http://www.w3.org/Graphics/SVG/1.1/DTD/svg11.dtd">
<!-- Generated by graphviz version 12.2.1 (20241206.2353)
 -->
<!-- Title: espnow_set_key Pages: 1 -->
<svg width="277pt" height="70pt"
 viewBox="0.00 0.00 277.00 70.25" xmlns="http://www.w3.org/2000/svg" xmlns:xlink="http://www.w3.org/1999/xlink">
<g id="graph0" class="graph" transform="scale(1 1) rotate(0) translate(4 66.25)">
<title>espnow_set_key</title>
<!-- Node1 -->
<g id="Node000001" class="node">
<title>Node1</title>
<g id="a_Node000001"><a xlink:title="Set the security key info The security key info is used to derive key and stored to flash....">
<polygon fill="#999999" stroke="#666666" points="106,-42.25 0,-42.25 0,-20 106,-20 106,-42.25"/>
<text text-anchor="middle" x="53" y="-26.85" font-family="Arial" font-size="12.00">espnow_set_key</text>
</a>
</g>
</g>
<!-- Node2 -->
<g id="Node000002" class="node">
<title>Node2</title>
<g id="a_Node000002"><a xlink:href="espnow__security_8c.html#ad081d6044fc0cedbb0c06e2c68dad306" target="_top" xlink:title="Set the security key info.">
<polygon fill="white" stroke="#666666" points="267.88,-62.25 143.12,-62.25 143.12,-40 267.88,-40 267.88,-62.25"/>
<text text-anchor="middle" x="205.5" y="-46.85" font-family="Arial" font-size="12.00">espnow_sec_setkey</text>
</a>
</g>
</g>
<!-- Node1&#45;&gt;Node2 -->
<g id="edge1_Node000001_Node000002" class="edge">
<title>Node1&#45;&gt;Node2</title>
<g id="a_edge1_Node000001_Node000002"><a xlink:title=" ">
<path fill="none" stroke="#63b8ff" d="M106.22,-38.06C114.42,-39.15 123.03,-40.3 131.6,-41.44"/>
<polygon fill="#63b8ff" stroke="#63b8ff" points="130.93,-44.88 141.3,-42.73 131.85,-37.94 130.93,-44.88"/>
</a>
</g>
</g>
<!-- Node3 -->
<g id="Node000003" class="node">
<title>Node3</title>
<g id="a_Node000003"><a xlink:href="espnow__storage_8c.html#ade9d20917bbd54b5748ef1651342c881" target="_top" xlink:title="Save the information with given key.">
<polygon fill="white" stroke="#666666" points="269,-22.25 142,-22.25 142,0 269,0 269,-22.25"/>
<text text-anchor="middle" x="205.5" y="-6.85" font-family="Arial" font-size="12.00">espnow_storage_set</text>
</a>
</g>
</g>
<!-- Node1&#45;&gt;Node3 -->
<g id="edge2_Node000001_Node000003" class="edge">
<title>Node1&#45;&gt;Node3</title>
<g id="a_edge2_Node000001_Node000003"><a xlink:title=" ">
<path fill="none" stroke="#63b8ff" d="M106.22,-24.19C114.09,-23.14 122.35,-22.04 130.58,-20.95"/>
<polygon fill="#63b8ff" stroke="#63b8ff" points="130.8,-24.45 140.25,-19.66 129.88,-17.51 130.8,-24.45"/>
</a>
</g>
</g>
</g>
</svg>
