<?xml version="1.0" encoding="UTF-8" standalone="no"?>
<!DOCTYPE svg PUBLIC "-//W3C//DTD SVG 1.1//EN"
 "http://www.w3.org/Graphics/SVG/1.1/DTD/svg11.dtd">
<!-- Generated by graphviz version 12.2.1 (20241206.2353)
 -->
<!-- Title: espnow_ota_responder_stop Pages: 1 -->
<svg width="716pt" height="130pt"
 viewBox="0.00 0.00 715.50 130.25" xmlns="http://www.w3.org/2000/svg" xmlns:xlink="http://www.w3.org/1999/xlink">
<g id="graph0" class="graph" transform="scale(1 1) rotate(0) translate(4 126.25)">
<title>espnow_ota_responder_stop</title>
<!-- Node1 -->
<g id="Node000001" class="node">
<title>Node1</title>
<g id="a_Node000001"><a xlink:title="Stop upgrading.">
<polygon fill="#999999" stroke="#666666" points="171.25,-62.25 0,-62.25 0,-40 171.25,-40 171.25,-62.25"/>
<text text-anchor="middle" x="85.62" y="-46.85" font-family="Arial" font-size="12.00">espnow_ota_responder_stop</text>
</a>
</g>
</g>
<!-- Node2 -->
<g id="Node000002" class="node">
<title>Node2</title>
<g id="a_Node000002"><a xlink:href="espnow_8c.html#ad1db406d2cb51ac8f967fbc95473afe5" target="_top" xlink:title="Send ESP&#45;NOW data.">
<polygon fill="white" stroke="#666666" points="323.38,-82.25 232.38,-82.25 232.38,-60 323.38,-60 323.38,-82.25"/>
<text text-anchor="middle" x="277.88" y="-66.85" font-family="Arial" font-size="12.00">espnow_send</text>
</a>
</g>
</g>
<!-- Node1&#45;&gt;Node2 -->
<g id="edge1_Node000001_Node000002" class="edge">
<title>Node1&#45;&gt;Node2</title>
<g id="a_edge1_Node000001_Node000002"><a xlink:title=" ">
<path fill="none" stroke="#63b8ff" d="M171.73,-60.07C188.29,-61.81 205.26,-63.6 220.59,-65.21"/>
<polygon fill="#63b8ff" stroke="#63b8ff" points="220.16,-68.68 230.47,-66.25 220.89,-61.72 220.16,-68.68"/>
</a>
</g>
</g>
<!-- Node9 -->
<g id="Node000009" class="node">
<title>Node9</title>
<g id="a_Node000009"><a xlink:href="espnow__storage_8c.html#a3d1ea736c80e909b0acb98c34bb4c6a7" target="_top" xlink:title="Erase the information with given key.">
<polygon fill="white" stroke="#666666" points="348.5,-42.25 207.25,-42.25 207.25,-20 348.5,-20 348.5,-42.25"/>
<text text-anchor="middle" x="277.88" y="-26.85" font-family="Arial" font-size="12.00">espnow_storage_erase</text>
</a>
</g>
</g>
<!-- Node1&#45;&gt;Node9 -->
<g id="edge8_Node000001_Node000009" class="edge">
<title>Node1&#45;&gt;Node9</title>
<g id="a_edge8_Node000001_Node000009"><a xlink:title=" ">
<path fill="none" stroke="#63b8ff" d="M171.73,-42.18C179.64,-41.35 187.65,-40.51 195.52,-39.68"/>
<polygon fill="#63b8ff" stroke="#63b8ff" points="195.86,-43.16 205.44,-38.63 195.13,-36.2 195.86,-43.16"/>
</a>
</g>
</g>
<!-- Node3 -->
<g id="Node000003" class="node">
<title>Node3</title>
<g id="a_Node000003"><a xlink:href="espnow_8c.html#a20960515d17cbc436c4598a4b8134c94" target="_top" xlink:title="Get the security key info stored in flash If no security key info is stored in flash,...">
<polygon fill="white" stroke="#666666" points="517.5,-122.25 410.75,-122.25 410.75,-100 517.5,-100 517.5,-122.25"/>
<text text-anchor="middle" x="464.12" y="-106.85" font-family="Arial" font-size="12.00">espnow_get_key</text>
</a>
</g>
</g>
<!-- Node2&#45;&gt;Node3 -->
<g id="edge2_Node000002_Node000003" class="edge">
<title>Node2&#45;&gt;Node3</title>
<g id="a_edge2_Node000002_Node000003"><a xlink:title=" ">
<path fill="none" stroke="#63b8ff" d="M323.48,-80.81C346.2,-85.74 374.23,-91.83 399.2,-97.25"/>
<polygon fill="#63b8ff" stroke="#63b8ff" points="398.43,-100.66 408.95,-99.36 399.92,-93.82 398.43,-100.66"/>
</a>
</g>
</g>
<!-- Node5 -->
<g id="Node000005" class="node">
<title>Node5</title>
<g id="a_Node000005"><a xlink:href="espnow__security_8c.html#a7530c208d25669a17e838a4d0c7f0ea5" target="_top" xlink:title="The authenticated encryption function. Encryption with 128 bit AES&#45;CCM.">
<polygon fill="white" stroke="#666666" points="543.75,-82.25 384.5,-82.25 384.5,-60 543.75,-60 543.75,-82.25"/>
<text text-anchor="middle" x="464.12" y="-66.85" font-family="Arial" font-size="12.00">espnow_sec_auth_encrypt</text>
</a>
</g>
</g>
<!-- Node2&#45;&gt;Node5 -->
<g id="edge4_Node000002_Node000005" class="edge">
<title>Node2&#45;&gt;Node5</title>
<g id="a_edge4_Node000002_Node000005"><a xlink:title=" ">
<path fill="none" stroke="#63b8ff" d="M323.48,-71.12C338.42,-71.12 355.65,-71.12 372.8,-71.12"/>
<polygon fill="#63b8ff" stroke="#63b8ff" points="372.52,-74.63 382.52,-71.13 372.52,-67.63 372.52,-74.63"/>
</a>
</g>
</g>
<!-- Node6 -->
<g id="Node000006" class="node">
<title>Node6</title>
<g id="a_Node000006"><a xlink:href="espnow_8c.html#a776b545b0faedcd1511a6d59a7213029" target="_top" xlink:title="Set the security key info The security key info is used to derive key and stored to flash....">
<polygon fill="white" stroke="#666666" points="517.12,-42.25 411.12,-42.25 411.12,-20 517.12,-20 517.12,-42.25"/>
<text text-anchor="middle" x="464.12" y="-26.85" font-family="Arial" font-size="12.00">espnow_set_key</text>
</a>
</g>
</g>
<!-- Node2&#45;&gt;Node6 -->
<g id="edge5_Node000002_Node000006" class="edge">
<title>Node2&#45;&gt;Node6</title>
<g id="a_edge5_Node000002_Node000006"><a xlink:title=" ">
<path fill="none" stroke="#63b8ff" d="M323.48,-61.44C346.39,-56.47 374.71,-50.32 399.84,-44.86"/>
<polygon fill="#63b8ff" stroke="#63b8ff" points="400.25,-48.36 409.28,-42.81 398.77,-41.52 400.25,-48.36"/>
</a>
</g>
</g>
<!-- Node4 -->
<g id="Node000004" class="node">
<title>Node4</title>
<g id="a_Node000004"><a xlink:href="espnow__storage_8c.html#a46b53eee49b7a85ab1aaa1b876408722" target="_top" xlink:title="Load the information with given key.">
<polygon fill="white" stroke="#666666" points="707.5,-122.25 579.75,-122.25 579.75,-100 707.5,-100 707.5,-122.25"/>
<text text-anchor="middle" x="643.62" y="-106.85" font-family="Arial" font-size="12.00">espnow_storage_get</text>
</a>
</g>
</g>
<!-- Node3&#45;&gt;Node4 -->
<g id="edge3_Node000003_Node000004" class="edge">
<title>Node3&#45;&gt;Node4</title>
<g id="a_edge3_Node000003_Node000004"><a xlink:title=" ">
<path fill="none" stroke="#63b8ff" d="M517.9,-111.12C533.59,-111.12 551.09,-111.12 567.9,-111.12"/>
<polygon fill="#63b8ff" stroke="#63b8ff" points="567.89,-114.63 577.89,-111.13 567.89,-107.63 567.89,-114.63"/>
</a>
</g>
</g>
<!-- Node7 -->
<g id="Node000007" class="node">
<title>Node7</title>
<g id="a_Node000007"><a xlink:href="espnow__security_8c.html#ad081d6044fc0cedbb0c06e2c68dad306" target="_top" xlink:title="Set the security key info.">
<polygon fill="white" stroke="#666666" points="706,-62.25 581.25,-62.25 581.25,-40 706,-40 706,-62.25"/>
<text text-anchor="middle" x="643.62" y="-46.85" font-family="Arial" font-size="12.00">espnow_sec_setkey</text>
</a>
</g>
</g>
<!-- Node6&#45;&gt;Node7 -->
<g id="edge6_Node000006_Node000007" class="edge">
<title>Node6&#45;&gt;Node7</title>
<g id="a_edge6_Node000006_Node000007"><a xlink:title=" ">
<path fill="none" stroke="#63b8ff" d="M517.42,-37.02C533.78,-38.86 552.14,-40.93 569.65,-42.9"/>
<polygon fill="#63b8ff" stroke="#63b8ff" points="569.17,-46.37 579.5,-44.01 569.95,-39.41 569.17,-46.37"/>
</a>
</g>
</g>
<!-- Node8 -->
<g id="Node000008" class="node">
<title>Node8</title>
<g id="a_Node000008"><a xlink:href="espnow__storage_8c.html#ade9d20917bbd54b5748ef1651342c881" target="_top" xlink:title="Save the information with given key.">
<polygon fill="white" stroke="#666666" points="707.12,-22.25 580.12,-22.25 580.12,0 707.12,0 707.12,-22.25"/>
<text text-anchor="middle" x="643.62" y="-6.85" font-family="Arial" font-size="12.00">espnow_storage_set</text>
</a>
</g>
</g>
<!-- Node6&#45;&gt;Node8 -->
<g id="edge7_Node000006_Node000008" class="edge">
<title>Node6&#45;&gt;Node8</title>
<g id="a_edge7_Node000006_Node000008"><a xlink:title=" ">
<path fill="none" stroke="#63b8ff" d="M517.42,-25.23C533.44,-23.43 551.38,-21.41 568.57,-19.47"/>
<polygon fill="#63b8ff" stroke="#63b8ff" points="568.68,-22.98 578.22,-18.38 567.89,-16.02 568.68,-22.98"/>
</a>
</g>
</g>
</g>
</svg>
