<?xml version="1.0" encoding="UTF-8" standalone="no"?>
<!DOCTYPE svg PUBLIC "-//W3C//DTD SVG 1.1//EN"
 "http://www.w3.org/Graphics/SVG/1.1/DTD/svg11.dtd">
<!-- Generated by graphviz version 12.2.1 (20241206.2353)
 -->
<!-- Title: register_wifi Pages: 1 -->
<svg width="237pt" height="110pt"
 viewBox="0.00 0.00 237.25 110.25" xmlns="http://www.w3.org/2000/svg" xmlns:xlink="http://www.w3.org/1999/xlink">
<g id="graph0" class="graph" transform="scale(1 1) rotate(0) translate(4 106.25)">
<title>register_wifi</title>
<!-- Node1 -->
<g id="Node000001" class="node">
<title>Node1</title>
<g id="a_Node000001"><a xlink:title=" ">
<polygon fill="#999999" stroke="#666666" points="80.5,-62.25 0,-62.25 0,-40 80.5,-40 80.5,-62.25"/>
<text text-anchor="middle" x="40.25" y="-46.85" font-family="Arial" font-size="12.00">register_wifi</text>
</a>
</g>
</g>
<!-- Node2 -->
<g id="Node000002" class="node">
<title>Node2</title>
<g id="a_Node000002"><a xlink:href="cmd__wifi_8c.html#a53edfa7e48af95ba07348e7c1421feea" target="_top" xlink:title=" ">
<polygon fill="white" stroke="#666666" points="223.25,-102.25 122.5,-102.25 122.5,-80 223.25,-80 223.25,-102.25"/>
<text text-anchor="middle" x="172.88" y="-86.85" font-family="Arial" font-size="12.00">register_wifi_ap</text>
</a>
</g>
</g>
<!-- Node1&#45;&gt;Node2 -->
<g id="edge1_Node000001_Node000002" class="edge">
<title>Node1&#45;&gt;Node2</title>
<g id="a_edge1_Node000001_Node000002"><a xlink:title=" ">
<path fill="none" stroke="#63b8ff" d="M79.03,-62.69C92.84,-66.92 108.66,-71.77 123.28,-76.25"/>
<polygon fill="#63b8ff" stroke="#63b8ff" points="122.14,-79.56 132.73,-79.14 124.19,-72.86 122.14,-79.56"/>
</a>
</g>
</g>
<!-- Node3 -->
<g id="Node000003" class="node">
<title>Node3</title>
<g id="a_Node000003"><a xlink:href="cmd__wifi_8c.html#a829e61400c74b6e8b03ebbc968fb6ae9" target="_top" xlink:title=" ">
<polygon fill="white" stroke="#666666" points="228.12,-62.25 117.62,-62.25 117.62,-40 228.12,-40 228.12,-62.25"/>
<text text-anchor="middle" x="172.88" y="-46.85" font-family="Arial" font-size="12.00">register_wifi_ping</text>
</a>
</g>
</g>
<!-- Node1&#45;&gt;Node3 -->
<g id="edge2_Node000001_Node000003" class="edge">
<title>Node1&#45;&gt;Node3</title>
<g id="a_edge2_Node000001_Node000003"><a xlink:title=" ">
<path fill="none" stroke="#63b8ff" d="M80.8,-51.12C88.84,-51.12 97.5,-51.12 106.17,-51.12"/>
<polygon fill="#63b8ff" stroke="#63b8ff" points="106.01,-54.63 116.01,-51.13 106.01,-47.63 106.01,-54.63"/>
</a>
</g>
</g>
<!-- Node4 -->
<g id="Node000004" class="node">
<title>Node4</title>
<g id="a_Node000004"><a xlink:href="cmd__wifi_8c.html#af11c2a0aaba22bf6cce6d38be617ed89" target="_top" xlink:title="Register wifi scan command.">
<polygon fill="white" stroke="#666666" points="229.25,-22.25 116.5,-22.25 116.5,0 229.25,0 229.25,-22.25"/>
<text text-anchor="middle" x="172.88" y="-6.85" font-family="Arial" font-size="12.00">register_wifi_scan</text>
</a>
</g>
</g>
<!-- Node1&#45;&gt;Node4 -->
<g id="edge3_Node000001_Node000004" class="edge">
<title>Node1&#45;&gt;Node4</title>
<g id="a_edge3_Node000001_Node000004"><a xlink:title=" ">
<path fill="none" stroke="#63b8ff" d="M79.03,-39.56C92.84,-35.33 108.66,-30.48 123.28,-26"/>
<polygon fill="#63b8ff" stroke="#63b8ff" points="124.19,-29.39 132.73,-23.11 122.14,-22.69 124.19,-29.39"/>
</a>
</g>
</g>
</g>
</svg>
