<?xml version="1.0" encoding="UTF-8" standalone="no"?>
<!DOCTYPE svg PUBLIC "-//W3C//DTD SVG 1.1//EN"
 "http://www.w3.org/Graphics/SVG/1.1/DTD/svg11.dtd">
<!-- Generated by graphviz version 12.2.1 (20241206.2353)
 -->
<!-- Title: espnow_ctrl_initiator_send Pages: 1 -->
<svg width="653pt" height="130pt"
 viewBox="0.00 0.00 653.25 130.25" xmlns="http://www.w3.org/2000/svg" xmlns:xlink="http://www.w3.org/1999/xlink">
<g id="graph0" class="graph" transform="scale(1 1) rotate(0) translate(4 126.25)">
<title>espnow_ctrl_initiator_send</title>
<!-- Node1 -->
<g id="Node000001" class="node">
<title>Node1</title>
<g id="a_Node000001"><a xlink:title="The initiator sends a broadcast control data frame.">
<polygon fill="#999999" stroke="#666666" points="159.25,-82.25 0,-82.25 0,-60 159.25,-60 159.25,-82.25"/>
<text text-anchor="middle" x="79.62" y="-66.85" font-family="Arial" font-size="12.00">espnow_ctrl_initiator_send</text>
</a>
</g>
</g>
<!-- Node2 -->
<g id="Node000002" class="node">
<title>Node2</title>
<g id="a_Node000002"><a xlink:href="espnow_8c.html#ad1db406d2cb51ac8f967fbc95473afe5" target="_top" xlink:title="Send ESP&#45;NOW data.">
<polygon fill="white" stroke="#666666" points="286.25,-82.25 195.25,-82.25 195.25,-60 286.25,-60 286.25,-82.25"/>
<text text-anchor="middle" x="240.75" y="-66.85" font-family="Arial" font-size="12.00">espnow_send</text>
</a>
</g>
</g>
<!-- Node1&#45;&gt;Node2 -->
<g id="edge1_Node000001_Node000002" class="edge">
<title>Node1&#45;&gt;Node2</title>
<g id="a_edge1_Node000001_Node000002"><a xlink:title=" ">
<path fill="none" stroke="#63b8ff" d="M159.72,-71.12C167.8,-71.12 175.89,-71.12 183.65,-71.12"/>
<polygon fill="#63b8ff" stroke="#63b8ff" points="183.62,-74.63 193.62,-71.13 183.62,-67.63 183.62,-74.63"/>
</a>
</g>
</g>
<!-- Node3 -->
<g id="Node000003" class="node">
<title>Node3</title>
<g id="a_Node000003"><a xlink:href="espnow_8c.html#a20960515d17cbc436c4598a4b8134c94" target="_top" xlink:title="Get the security key info stored in flash If no security key info is stored in flash,...">
<polygon fill="white" stroke="#666666" points="455.25,-122.25 348.5,-122.25 348.5,-100 455.25,-100 455.25,-122.25"/>
<text text-anchor="middle" x="401.88" y="-106.85" font-family="Arial" font-size="12.00">espnow_get_key</text>
</a>
</g>
</g>
<!-- Node2&#45;&gt;Node3 -->
<g id="edge2_Node000002_Node000003" class="edge">
<title>Node2&#45;&gt;Node3</title>
<g id="a_edge2_Node000002_Node000003"><a xlink:title=" ">
<path fill="none" stroke="#63b8ff" d="M286.5,-82.37C304.24,-86.83 324.86,-92.02 343.67,-96.75"/>
<polygon fill="#63b8ff" stroke="#63b8ff" points="342.78,-100.13 353.33,-99.17 344.49,-93.34 342.78,-100.13"/>
</a>
</g>
</g>
<!-- Node5 -->
<g id="Node000005" class="node">
<title>Node5</title>
<g id="a_Node000005"><a xlink:href="espnow__security_8c.html#a7530c208d25669a17e838a4d0c7f0ea5" target="_top" xlink:title="The authenticated encryption function. Encryption with 128 bit AES&#45;CCM.">
<polygon fill="white" stroke="#666666" points="481.5,-82.25 322.25,-82.25 322.25,-60 481.5,-60 481.5,-82.25"/>
<text text-anchor="middle" x="401.88" y="-66.85" font-family="Arial" font-size="12.00">espnow_sec_auth_encrypt</text>
</a>
</g>
</g>
<!-- Node2&#45;&gt;Node5 -->
<g id="edge4_Node000002_Node000005" class="edge">
<title>Node2&#45;&gt;Node5</title>
<g id="a_edge4_Node000002_Node000005"><a xlink:title=" ">
<path fill="none" stroke="#63b8ff" d="M286.5,-71.12C294.08,-71.12 302.19,-71.12 310.46,-71.12"/>
<polygon fill="#63b8ff" stroke="#63b8ff" points="310.29,-74.63 320.29,-71.13 310.29,-67.63 310.29,-74.63"/>
</a>
</g>
</g>
<!-- Node6 -->
<g id="Node000006" class="node">
<title>Node6</title>
<g id="a_Node000006"><a xlink:href="espnow_8c.html#a776b545b0faedcd1511a6d59a7213029" target="_top" xlink:title="Set the security key info The security key info is used to derive key and stored to flash....">
<polygon fill="white" stroke="#666666" points="454.88,-42.25 348.88,-42.25 348.88,-20 454.88,-20 454.88,-42.25"/>
<text text-anchor="middle" x="401.88" y="-26.85" font-family="Arial" font-size="12.00">espnow_set_key</text>
</a>
</g>
</g>
<!-- Node2&#45;&gt;Node6 -->
<g id="edge5_Node000002_Node000006" class="edge">
<title>Node2&#45;&gt;Node6</title>
<g id="a_edge5_Node000002_Node000006"><a xlink:title=" ">
<path fill="none" stroke="#63b8ff" d="M286.5,-59.88C304.24,-55.42 324.86,-50.23 343.67,-45.5"/>
<polygon fill="#63b8ff" stroke="#63b8ff" points="344.49,-48.91 353.33,-43.08 342.78,-42.12 344.49,-48.91"/>
</a>
</g>
</g>
<!-- Node4 -->
<g id="Node000004" class="node">
<title>Node4</title>
<g id="a_Node000004"><a xlink:href="espnow__storage_8c.html#a46b53eee49b7a85ab1aaa1b876408722" target="_top" xlink:title="Load the information with given key.">
<polygon fill="white" stroke="#666666" points="645.25,-122.25 517.5,-122.25 517.5,-100 645.25,-100 645.25,-122.25"/>
<text text-anchor="middle" x="581.38" y="-106.85" font-family="Arial" font-size="12.00">espnow_storage_get</text>
</a>
</g>
</g>
<!-- Node3&#45;&gt;Node4 -->
<g id="edge3_Node000003_Node000004" class="edge">
<title>Node3&#45;&gt;Node4</title>
<g id="a_edge3_Node000003_Node000004"><a xlink:title=" ">
<path fill="none" stroke="#63b8ff" d="M455.65,-111.12C471.34,-111.12 488.84,-111.12 505.65,-111.12"/>
<polygon fill="#63b8ff" stroke="#63b8ff" points="505.64,-114.63 515.64,-111.13 505.64,-107.63 505.64,-114.63"/>
</a>
</g>
</g>
<!-- Node7 -->
<g id="Node000007" class="node">
<title>Node7</title>
<g id="a_Node000007"><a xlink:href="espnow__security_8c.html#ad081d6044fc0cedbb0c06e2c68dad306" target="_top" xlink:title="Set the security key info.">
<polygon fill="white" stroke="#666666" points="643.75,-62.25 519,-62.25 519,-40 643.75,-40 643.75,-62.25"/>
<text text-anchor="middle" x="581.38" y="-46.85" font-family="Arial" font-size="12.00">espnow_sec_setkey</text>
</a>
</g>
</g>
<!-- Node6&#45;&gt;Node7 -->
<g id="edge6_Node000006_Node000007" class="edge">
<title>Node6&#45;&gt;Node7</title>
<g id="a_edge6_Node000006_Node000007"><a xlink:title=" ">
<path fill="none" stroke="#63b8ff" d="M455.17,-37.02C471.53,-38.86 489.89,-40.93 507.4,-42.9"/>
<polygon fill="#63b8ff" stroke="#63b8ff" points="506.92,-46.37 517.25,-44.01 507.7,-39.41 506.92,-46.37"/>
</a>
</g>
</g>
<!-- Node8 -->
<g id="Node000008" class="node">
<title>Node8</title>
<g id="a_Node000008"><a xlink:href="espnow__storage_8c.html#ade9d20917bbd54b5748ef1651342c881" target="_top" xlink:title="Save the information with given key.">
<polygon fill="white" stroke="#666666" points="644.88,-22.25 517.88,-22.25 517.88,0 644.88,0 644.88,-22.25"/>
<text text-anchor="middle" x="581.38" y="-6.85" font-family="Arial" font-size="12.00">espnow_storage_set</text>
</a>
</g>
</g>
<!-- Node6&#45;&gt;Node8 -->
<g id="edge7_Node000006_Node000008" class="edge">
<title>Node6&#45;&gt;Node8</title>
<g id="a_edge7_Node000006_Node000008"><a xlink:title=" ">
<path fill="none" stroke="#63b8ff" d="M455.17,-25.23C471.19,-23.43 489.13,-21.41 506.32,-19.47"/>
<polygon fill="#63b8ff" stroke="#63b8ff" points="506.43,-22.98 515.97,-18.38 505.64,-16.02 506.43,-22.98"/>
</a>
</g>
</g>
</g>
</svg>
