<?xml version="1.0" encoding="UTF-8" standalone="no"?>
<!DOCTYPE svg PUBLIC "-//W3C//DTD SVG 1.1//EN"
 "http://www.w3.org/Graphics/SVG/1.1/DTD/svg11.dtd">
<!-- Generated by graphviz version 12.2.1 (20241206.2353)
 -->
<!-- Title: espnow_ctrl_send Pages: 1 -->
<svg width="608pt" height="130pt"
 viewBox="0.00 0.00 607.50 130.25" xmlns="http://www.w3.org/2000/svg" xmlns:xlink="http://www.w3.org/1999/xlink">
<g id="graph0" class="graph" transform="scale(1 1) rotate(0) translate(4 126.25)">
<title>espnow_ctrl_send</title>
<!-- Node1 -->
<g id="Node000001" class="node">
<title>Node1</title>
<g id="a_Node000001"><a xlink:title="Send control data frame.">
<polygon fill="#999999" stroke="#666666" points="113.5,-82.25 0,-82.25 0,-60 113.5,-60 113.5,-82.25"/>
<text text-anchor="middle" x="56.75" y="-66.85" font-family="Arial" font-size="12.00">espnow_ctrl_send</text>
</a>
</g>
</g>
<!-- Node2 -->
<g id="Node000002" class="node">
<title>Node2</title>
<g id="a_Node000002"><a xlink:href="espnow_8c.html#ad1db406d2cb51ac8f967fbc95473afe5" target="_top" xlink:title="Send ESP&#45;NOW data.">
<polygon fill="white" stroke="#666666" points="240.5,-82.25 149.5,-82.25 149.5,-60 240.5,-60 240.5,-82.25"/>
<text text-anchor="middle" x="195" y="-66.85" font-family="Arial" font-size="12.00">espnow_send</text>
</a>
</g>
</g>
<!-- Node1&#45;&gt;Node2 -->
<g id="edge1_Node000001_Node000002" class="edge">
<title>Node1&#45;&gt;Node2</title>
<g id="a_edge1_Node000001_Node000002"><a xlink:title=" ">
<path fill="none" stroke="#63b8ff" d="M113.95,-71.12C121.83,-71.12 129.93,-71.12 137.81,-71.12"/>
<polygon fill="#63b8ff" stroke="#63b8ff" points="137.64,-74.63 147.64,-71.13 137.64,-67.63 137.64,-74.63"/>
</a>
</g>
</g>
<!-- Node3 -->
<g id="Node000003" class="node">
<title>Node3</title>
<g id="a_Node000003"><a xlink:href="espnow_8c.html#a20960515d17cbc436c4598a4b8134c94" target="_top" xlink:title="Get the security key info stored in flash If no security key info is stored in flash,...">
<polygon fill="white" stroke="#666666" points="409.5,-122.25 302.75,-122.25 302.75,-100 409.5,-100 409.5,-122.25"/>
<text text-anchor="middle" x="356.12" y="-106.85" font-family="Arial" font-size="12.00">espnow_get_key</text>
</a>
</g>
</g>
<!-- Node2&#45;&gt;Node3 -->
<g id="edge2_Node000002_Node000003" class="edge">
<title>Node2&#45;&gt;Node3</title>
<g id="a_edge2_Node000002_Node000003"><a xlink:title=" ">
<path fill="none" stroke="#63b8ff" d="M240.75,-82.37C258.49,-86.83 279.11,-92.02 297.92,-96.75"/>
<polygon fill="#63b8ff" stroke="#63b8ff" points="297.03,-100.13 307.58,-99.17 298.74,-93.34 297.03,-100.13"/>
</a>
</g>
</g>
<!-- Node5 -->
<g id="Node000005" class="node">
<title>Node5</title>
<g id="a_Node000005"><a xlink:href="espnow__security_8c.html#a7530c208d25669a17e838a4d0c7f0ea5" target="_top" xlink:title="The authenticated encryption function. Encryption with 128 bit AES&#45;CCM.">
<polygon fill="white" stroke="#666666" points="435.75,-82.25 276.5,-82.25 276.5,-60 435.75,-60 435.75,-82.25"/>
<text text-anchor="middle" x="356.12" y="-66.85" font-family="Arial" font-size="12.00">espnow_sec_auth_encrypt</text>
</a>
</g>
</g>
<!-- Node2&#45;&gt;Node5 -->
<g id="edge4_Node000002_Node000005" class="edge">
<title>Node2&#45;&gt;Node5</title>
<g id="a_edge4_Node000002_Node000005"><a xlink:title=" ">
<path fill="none" stroke="#63b8ff" d="M240.75,-71.12C248.33,-71.12 256.44,-71.12 264.71,-71.12"/>
<polygon fill="#63b8ff" stroke="#63b8ff" points="264.54,-74.63 274.54,-71.13 264.54,-67.63 264.54,-74.63"/>
</a>
</g>
</g>
<!-- Node6 -->
<g id="Node000006" class="node">
<title>Node6</title>
<g id="a_Node000006"><a xlink:href="espnow_8c.html#a776b545b0faedcd1511a6d59a7213029" target="_top" xlink:title="Set the security key info The security key info is used to derive key and stored to flash....">
<polygon fill="white" stroke="#666666" points="409.12,-42.25 303.12,-42.25 303.12,-20 409.12,-20 409.12,-42.25"/>
<text text-anchor="middle" x="356.12" y="-26.85" font-family="Arial" font-size="12.00">espnow_set_key</text>
</a>
</g>
</g>
<!-- Node2&#45;&gt;Node6 -->
<g id="edge5_Node000002_Node000006" class="edge">
<title>Node2&#45;&gt;Node6</title>
<g id="a_edge5_Node000002_Node000006"><a xlink:title=" ">
<path fill="none" stroke="#63b8ff" d="M240.75,-59.88C258.49,-55.42 279.11,-50.23 297.92,-45.5"/>
<polygon fill="#63b8ff" stroke="#63b8ff" points="298.74,-48.91 307.58,-43.08 297.03,-42.12 298.74,-48.91"/>
</a>
</g>
</g>
<!-- Node4 -->
<g id="Node000004" class="node">
<title>Node4</title>
<g id="a_Node000004"><a xlink:href="espnow__storage_8c.html#a46b53eee49b7a85ab1aaa1b876408722" target="_top" xlink:title="Load the information with given key.">
<polygon fill="white" stroke="#666666" points="599.5,-122.25 471.75,-122.25 471.75,-100 599.5,-100 599.5,-122.25"/>
<text text-anchor="middle" x="535.62" y="-106.85" font-family="Arial" font-size="12.00">espnow_storage_get</text>
</a>
</g>
</g>
<!-- Node3&#45;&gt;Node4 -->
<g id="edge3_Node000003_Node000004" class="edge">
<title>Node3&#45;&gt;Node4</title>
<g id="a_edge3_Node000003_Node000004"><a xlink:title=" ">
<path fill="none" stroke="#63b8ff" d="M409.9,-111.12C425.59,-111.12 443.09,-111.12 459.9,-111.12"/>
<polygon fill="#63b8ff" stroke="#63b8ff" points="459.89,-114.63 469.89,-111.13 459.89,-107.63 459.89,-114.63"/>
</a>
</g>
</g>
<!-- Node7 -->
<g id="Node000007" class="node">
<title>Node7</title>
<g id="a_Node000007"><a xlink:href="espnow__security_8c.html#ad081d6044fc0cedbb0c06e2c68dad306" target="_top" xlink:title="Set the security key info.">
<polygon fill="white" stroke="#666666" points="598,-62.25 473.25,-62.25 473.25,-40 598,-40 598,-62.25"/>
<text text-anchor="middle" x="535.62" y="-46.85" font-family="Arial" font-size="12.00">espnow_sec_setkey</text>
</a>
</g>
</g>
<!-- Node6&#45;&gt;Node7 -->
<g id="edge6_Node000006_Node000007" class="edge">
<title>Node6&#45;&gt;Node7</title>
<g id="a_edge6_Node000006_Node000007"><a xlink:title=" ">
<path fill="none" stroke="#63b8ff" d="M409.42,-37.02C425.78,-38.86 444.14,-40.93 461.65,-42.9"/>
<polygon fill="#63b8ff" stroke="#63b8ff" points="461.17,-46.37 471.5,-44.01 461.95,-39.41 461.17,-46.37"/>
</a>
</g>
</g>
<!-- Node8 -->
<g id="Node000008" class="node">
<title>Node8</title>
<g id="a_Node000008"><a xlink:href="espnow__storage_8c.html#ade9d20917bbd54b5748ef1651342c881" target="_top" xlink:title="Save the information with given key.">
<polygon fill="white" stroke="#666666" points="599.12,-22.25 472.12,-22.25 472.12,0 599.12,0 599.12,-22.25"/>
<text text-anchor="middle" x="535.62" y="-6.85" font-family="Arial" font-size="12.00">espnow_storage_set</text>
</a>
</g>
</g>
<!-- Node6&#45;&gt;Node8 -->
<g id="edge7_Node000006_Node000008" class="edge">
<title>Node6&#45;&gt;Node8</title>
<g id="a_edge7_Node000006_Node000008"><a xlink:title=" ">
<path fill="none" stroke="#63b8ff" d="M409.42,-25.23C425.44,-23.43 443.38,-21.41 460.57,-19.47"/>
<polygon fill="#63b8ff" stroke="#63b8ff" points="460.68,-22.98 470.22,-18.38 459.89,-16.02 460.68,-22.98"/>
</a>
</g>
</g>
</g>
</svg>
