<?xml version="1.0" encoding="UTF-8" standalone="no"?>
<!DOCTYPE svg PUBLIC "-//W3C//DTD SVG 1.1//EN"
 "http://www.w3.org/Graphics/SVG/1.1/DTD/svg11.dtd">
<!-- Generated by graphviz version 12.2.1 (20241206.2353)
 -->
<!-- Title: include/supporting/font.h Pages: 1 -->
<!--zoomable 322 -->

<svg id="main" version="1.1" xmlns="http://www.w3.org/2000/svg" xmlns:xlink="http://www.w3.org/1999/xlink" xml:space="preserve" onload="init(evt)">

<style type="text/css"><![CDATA[
.node, .edge {opacity: 0.7;}
.node.selected, .edge.selected {opacity: 1;}
.edge:hover path { stroke: red; }
.edge:hover polygon { stroke: red; fill: red; }
]]></style>

<defs>
  <circle id="rim" cx="0" cy="0" r="7"/>
  <circle id="rim2" cx="0" cy="0" r="3.5"/>
  <g id="zoomPlus">
    <use xlink:href="#rim" fill="#404040"><set attributeName="fill" to="#808080" begin="zoomplus.mouseover" end="zoomplus.mouseout"/></use>
    <path d="M-4,0h8M0,-4v8" fill="none" stroke="white" stroke-width="1.5" pointer-events="none"/>
  </g>
  <g id="zoomMin">
    <use xlink:href="#rim" fill="#404040"><set attributeName="fill" to="#808080" begin="zoomminus.mouseover" end="zoomminus.mouseout"/></use>
    <path d="M-4,0h8" fill="none" stroke="white" stroke-width="1.5" pointer-events="none"/>
  </g>
  <g id="arrowUp" transform="translate(30 24)">
    <use xlink:href="#rim"/>
    <path pointer-events="none" fill="none" stroke="white" stroke-width="1.5" d="M0,-3.0v7 M-2.5,-0.5L0,-3.0L2.5,-0.5"/>
  </g>
  <g id="arrowRight" transform="rotate(90) translate(36 -43)">
    <use xlink:href="#rim"/>
    <path pointer-events="none" fill="none" stroke="white" stroke-width="1.5" d="M0,-3.0v7 M-2.5,-0.5L0,-3.0L2.5,-0.5"/>
  </g>
  <g id="arrowDown" transform="rotate(180) translate(-30 -48)">
    <use xlink:href="#rim"/>
    <path pointer-events="none" fill="none" stroke="white" stroke-width="1.5" d="M0,-3.0v7 M-2.5,-0.5L0,-3.0L2.5,-0.5"/>
  </g>
  <g id="arrowLeft" transform="rotate(270) translate(-36 17)">
    <use xlink:href="#rim"/>
    <path pointer-events="none" fill="none" stroke="white" stroke-width="1.5" d="M0,-3.0v7 M-2.5,-0.5L0,-3.0L2.5,-0.5"/>
  </g>
  <g id="resetDef">
    <use xlink:href="#rim2" fill="#404040"><set attributeName="fill" to="#808080" begin="reset.mouseover" end="reset.mouseout"/></use>
  </g>
</defs>
<script type="application/ecmascript">
var viewWidth = 696;
var viewHeight = 322;
var sectionId = 'dynsection-1';
</script>
<script type="application/ecmascript" xlink:href="svg.min.js"/>
<svg id="graph" class="graph">
<g id="viewport">
<title>include/supporting/font.h</title>
<!-- Node1 -->
<g id="Node000001" class="node">
<title>Node1</title>
<g id="a_Node000001"><a xlink:title="This file contains the class for the 12x16 font class.">
<polygon fill="#999999" stroke="#666666" points="555.25,-313.5 408.75,-313.5 408.75,-291.25 555.25,-291.25 555.25,-313.5"/>
<text text-anchor="middle" x="482" y="-298.1" font-family="Arial" font-size="12.00">include/supporting/font.h</text>
</a>
</g>
</g>
<!-- Node2 -->
<g id="Node000002" class="node">
<title>Node2</title>
<g id="a_Node000002"><a xlink:href="ssd1306_8h.html" target="_top" xlink:title="Contains the code for ssd1306 display, setting it up, and writing text to it.">
<polygon fill="white" stroke="#666666" points="474.25,-255.25 321.75,-255.25 321.75,-233 474.25,-233 474.25,-255.25"/>
<text text-anchor="middle" x="398" y="-239.85" font-family="Arial" font-size="12.00">include/drivers/ssd1306.h</text>
</a>
</g>
</g>
<!-- Node1&#45;&gt;Node2 -->
<g id="edge1_Node000001_Node000002" class="edge">
<title>Node1&#45;&gt;Node2</title>
<g id="a_edge1_Node000001_Node000002"><a xlink:title=" ">
<path fill="none" stroke="#63b8ff" d="M456.66,-284.41C442.69,-275.05 425.79,-263.74 413.73,-255.66"/>
<polygon fill="#63b8ff" stroke="#63b8ff" points="454.69,-287.3 464.94,-289.95 458.58,-281.48 454.69,-287.3"/>
</a>
</g>
</g>
<!-- Node11 -->
<g id="Node000011" class="node">
<title>Node11</title>
<g id="a_Node000011"><a xlink:href="font_8cpp.html" target="_top" xlink:title="source file for the class that maps ascii characters to their font representation">
<polygon fill="white" stroke="#666666" points="639.25,-255.25 492.75,-255.25 492.75,-233 639.25,-233 639.25,-255.25"/>
<text text-anchor="middle" x="566" y="-239.85" font-family="Arial" font-size="12.00">main/supporting/font.cpp</text>
</a>
</g>
</g>
<!-- Node1&#45;&gt;Node11 -->
<g id="edge15_Node000001_Node000011" class="edge">
<title>Node1&#45;&gt;Node11</title>
<g id="a_edge15_Node000001_Node000011"><a xlink:title=" ">
<path fill="none" stroke="#63b8ff" d="M507.34,-284.41C521.31,-275.05 538.21,-263.74 550.27,-255.66"/>
<polygon fill="#63b8ff" stroke="#63b8ff" points="505.42,-281.48 499.06,-289.95 509.31,-287.3 505.42,-281.48"/>
</a>
</g>
</g>
<!-- Node3 -->
<g id="Node000003" class="node">
<title>Node3</title>
<g id="a_Node000003"><a xlink:href="menus_8h.html" target="_top" xlink:title="This is the file that contains the class for menus.">
<polygon fill="white" stroke="#666666" points="369.5,-197 206.5,-197 206.5,-174.75 369.5,-174.75 369.5,-197"/>
<text text-anchor="middle" x="288" y="-181.6" font-family="Arial" font-size="12.00">include/supporting/menus.h</text>
</a>
</g>
</g>
<!-- Node2&#45;&gt;Node3 -->
<g id="edge2_Node000002_Node000003" class="edge">
<title>Node2&#45;&gt;Node3</title>
<g id="a_edge2_Node000002_Node000003"><a xlink:title=" ">
<path fill="none" stroke="#63b8ff" d="M367.19,-227.37C348.47,-217.8 325.09,-205.84 308.6,-197.41"/>
<polygon fill="#63b8ff" stroke="#63b8ff" points="365.47,-230.42 375.96,-231.86 368.65,-224.19 365.47,-230.42"/>
</a>
</g>
</g>
<!-- Node5 -->
<g id="Node000005" class="node">
<title>Node5</title>
<g id="a_Node000005"><a xlink:href="display__task_8h.html" target="_top" xlink:title="This is the file that contains the display task.">
<polygon fill="white" stroke="#666666" points="480.62,-80.5 315.38,-80.5 315.38,-58.25 480.62,-58.25 480.62,-80.5"/>
<text text-anchor="middle" x="398" y="-65.1" font-family="Arial" font-size="12.00">include/tasks/display_task.h</text>
</a>
</g>
</g>
<!-- Node2&#45;&gt;Node5 -->
<g id="edge12_Node000002_Node000005" class="edge">
<title>Node2&#45;&gt;Node5</title>
<g id="a_edge12_Node000002_Node000005"><a xlink:title=" ">
<path fill="none" stroke="#63b8ff" d="M425.08,-226.55C460.23,-202.86 514.26,-157.62 489,-116.5 478.25,-98.99 458.55,-87.88 440.23,-80.96"/>
<polygon fill="#63b8ff" stroke="#63b8ff" points="423.47,-223.42 417.01,-231.82 427.3,-229.28 423.47,-223.42"/>
</a>
</g>
</g>
<!-- Node6 -->
<g id="Node000006" class="node">
<title>Node6</title>
<g id="a_Node000006"><a xlink:href="main_8cpp.html" target="_top" xlink:title="This is the file that contains the main function and all other tasks for the robot controller.">
<polygon fill="white" stroke="#666666" points="94,-22.25 0,-22.25 0,0 94,0 94,-22.25"/>
<text text-anchor="middle" x="47" y="-6.85" font-family="Arial" font-size="12.00">main/main.cpp</text>
</a>
</g>
</g>
<!-- Node2&#45;&gt;Node6 -->
<g id="edge14_Node000002_Node000006" class="edge">
<title>Node2&#45;&gt;Node6</title>
<g id="a_edge14_Node000002_Node000006"><a xlink:title=" ">
<path fill="none" stroke="#63b8ff" d="M313.11,-230.67C216.13,-214.52 66.37,-183.08 32,-138.75 4.87,-103.76 29.29,-46.16 41.27,-22.63"/>
<polygon fill="#63b8ff" stroke="#63b8ff" points="312.44,-234.1 322.88,-232.27 313.57,-227.2 312.44,-234.1"/>
</a>
</g>
</g>
<!-- Node10 -->
<g id="Node000010" class="node">
<title>Node10</title>
<g id="a_Node000010"><a xlink:href="ssd1306_8cpp.html" target="_top" xlink:title=" ">
<polygon fill="white" stroke="#666666" points="688.25,-197 535.75,-197 535.75,-174.75 688.25,-174.75 688.25,-197"/>
<text text-anchor="middle" x="612" y="-181.6" font-family="Arial" font-size="12.00">main/drivers/ssd1306.cpp</text>
</a>
</g>
</g>
<!-- Node2&#45;&gt;Node10 -->
<g id="edge13_Node000002_Node000010" class="edge">
<title>Node2&#45;&gt;Node10</title>
<g id="a_edge13_Node000002_Node000010"><a xlink:title=" ">
<path fill="none" stroke="#63b8ff" d="M449,-229.72C486.64,-219.83 537.16,-206.55 571.93,-197.41"/>
<polygon fill="#63b8ff" stroke="#63b8ff" points="448.5,-226.23 439.72,-232.16 450.28,-233 448.5,-226.23"/>
</a>
</g>
</g>
<!-- Node4 -->
<g id="Node000004" class="node">
<title>Node4</title>
<g id="a_Node000004"><a xlink:href="menu__handler_8h.html" target="_top" xlink:title="This is the file that contains the class for switching between menus.">
<polygon fill="white" stroke="#666666" points="259.75,-138.75 56.25,-138.75 56.25,-116.5 259.75,-116.5 259.75,-138.75"/>
<text text-anchor="middle" x="158" y="-123.35" font-family="Arial" font-size="12.00">include/supporting/menu_handler.h</text>
</a>
</g>
</g>
<!-- Node3&#45;&gt;Node4 -->
<g id="edge3_Node000003_Node000004" class="edge">
<title>Node3&#45;&gt;Node4</title>
<g id="a_edge3_Node000003_Node000004"><a xlink:title=" ">
<path fill="none" stroke="#63b8ff" d="M253.12,-169.78C230.76,-160.11 202.28,-147.79 182.34,-139.16"/>
<polygon fill="#63b8ff" stroke="#63b8ff" points="251.59,-172.93 262.16,-173.69 254.37,-166.51 251.59,-172.93"/>
</a>
</g>
</g>
<!-- Node3&#45;&gt;Node5 -->
<g id="edge9_Node000003_Node000005" class="edge">
<title>Node3&#45;&gt;Node5</title>
<g id="a_edge9_Node000003_Node000005"><a xlink:title=" ">
<path fill="none" stroke="#63b8ff" d="M289.85,-163.41C292.09,-148.79 297.04,-129.76 308,-116.5 321.98,-99.59 343.77,-88.19 362.4,-80.96"/>
<polygon fill="#63b8ff" stroke="#63b8ff" points="286.42,-162.58 288.71,-172.92 293.37,-163.41 286.42,-162.58"/>
</a>
</g>
</g>
<!-- Node3&#45;&gt;Node6 -->
<g id="edge10_Node000003_Node000006" class="edge">
<title>Node3&#45;&gt;Node6</title>
<g id="a_edge10_Node000003_Node000006"><a xlink:title=" ">
<path fill="none" stroke="#63b8ff" d="M194.87,-179.08C135.33,-173.21 65.87,-161.57 47,-138.75 18.84,-104.69 34.9,-46.06 43.1,-22.43"/>
<polygon fill="#63b8ff" stroke="#63b8ff" points="194.45,-182.56 204.73,-180 195.1,-175.59 194.45,-182.56"/>
</a>
</g>
</g>
<!-- Node9 -->
<g id="Node000009" class="node">
<title>Node9</title>
<g id="a_Node000009"><a xlink:href="menus_8cpp.html" target="_top" xlink:title="source file for the class that handles the creation of menus">
<polygon fill="white" stroke="#666666" points="479.5,-138.75 316.5,-138.75 316.5,-116.5 479.5,-116.5 479.5,-138.75"/>
<text text-anchor="middle" x="398" y="-123.35" font-family="Arial" font-size="12.00">main/supporting/menus.cpp</text>
</a>
</g>
</g>
<!-- Node3&#45;&gt;Node9 -->
<g id="edge11_Node000003_Node000009" class="edge">
<title>Node3&#45;&gt;Node9</title>
<g id="a_edge11_Node000003_Node000009"><a xlink:title=" ">
<path fill="none" stroke="#63b8ff" d="M318.81,-169.12C337.53,-159.55 360.91,-147.59 377.4,-139.16"/>
<polygon fill="#63b8ff" stroke="#63b8ff" points="317.35,-165.94 310.04,-173.61 320.53,-172.17 317.35,-165.94"/>
</a>
</g>
</g>
<!-- Node4&#45;&gt;Node5 -->
<g id="edge4_Node000004_Node000005" class="edge">
<title>Node4&#45;&gt;Node5</title>
<g id="a_edge4_Node000004_Node000005"><a xlink:title=" ">
<path fill="none" stroke="#63b8ff" d="M214.11,-113.47C256.43,-103.55 313.73,-90.12 353.06,-80.91"/>
<polygon fill="#63b8ff" stroke="#63b8ff" points="213.55,-110.01 204.62,-115.7 215.15,-116.83 213.55,-110.01"/>
</a>
</g>
</g>
<!-- Node4&#45;&gt;Node6 -->
<g id="edge7_Node000004_Node000006" class="edge">
<title>Node4&#45;&gt;Node6</title>
<g id="a_edge7_Node000004_Node000006"><a xlink:title=" ">
<path fill="none" stroke="#63b8ff" d="M125.19,-110.58C111.61,-102.83 96.41,-92.57 85,-80.5 68.39,-62.93 56.51,-36.74 50.81,-22.41"/>
<polygon fill="#63b8ff" stroke="#63b8ff" points="123.38,-113.58 133.83,-115.29 126.73,-107.44 123.38,-113.58"/>
</a>
</g>
</g>
<!-- Node8 -->
<g id="Node000008" class="node">
<title>Node8</title>
<g id="a_Node000008"><a xlink:href="menu__handler_8cpp.html" target="_top" xlink:title="This is the file that contains the class for switching between menus.">
<polygon fill="white" stroke="#666666" points="297.75,-80.5 94.25,-80.5 94.25,-58.25 297.75,-58.25 297.75,-80.5"/>
<text text-anchor="middle" x="196" y="-65.1" font-family="Arial" font-size="12.00">main/supporting/menu_handler.cpp</text>
</a>
</g>
</g>
<!-- Node4&#45;&gt;Node8 -->
<g id="edge8_Node000004_Node000008" class="edge">
<title>Node4&#45;&gt;Node8</title>
<g id="a_edge8_Node000004_Node000008"><a xlink:title=" ">
<path fill="none" stroke="#63b8ff" d="M171.53,-106.6C177.39,-97.92 184.01,-88.12 188.88,-80.91"/>
<polygon fill="#63b8ff" stroke="#63b8ff" points="168.69,-104.54 165.99,-114.79 174.49,-108.46 168.69,-104.54"/>
</a>
</g>
</g>
<!-- Node5&#45;&gt;Node6 -->
<g id="edge5_Node000005_Node000006" class="edge">
<title>Node5&#45;&gt;Node6</title>
<g id="a_edge5_Node000005_Node000006"><a xlink:title=" ">
<path fill="none" stroke="#63b8ff" d="M320.73,-55.99C251.61,-44.92 152.51,-29.03 94.45,-19.73"/>
<polygon fill="#63b8ff" stroke="#63b8ff" points="320.06,-59.43 330.49,-57.56 321.16,-52.52 320.06,-59.43"/>
</a>
</g>
</g>
<!-- Node7 -->
<g id="Node000007" class="node">
<title>Node7</title>
<g id="a_Node000007"><a xlink:href="display__task_8cpp.html" target="_top" xlink:title="This is the file that contains the display task.">
<polygon fill="white" stroke="#666666" points="480.62,-22.25 315.38,-22.25 315.38,0 480.62,0 480.62,-22.25"/>
<text text-anchor="middle" x="398" y="-6.85" font-family="Arial" font-size="12.00">main/tasks/display_task.cpp</text>
</a>
</g>
</g>
<!-- Node5&#45;&gt;Node7 -->
<g id="edge6_Node000005_Node000007" class="edge">
<title>Node5&#45;&gt;Node7</title>
<g id="a_edge6_Node000005_Node000007"><a xlink:title=" ">
<path fill="none" stroke="#63b8ff" d="M398,-46.35C398,-38.2 398,-29.33 398,-22.66"/>
<polygon fill="#63b8ff" stroke="#63b8ff" points="394.5,-46.28 398,-56.28 401.5,-46.28 394.5,-46.28"/>
</a>
</g>
</g>
</g>
</svg>

<g id="navigator" transform="translate(0 0)" fill="#404254">
  <rect fill="#f2f5e9" fill-opacity="0.5" stroke="#606060" stroke-width=".5" x="0" y="0" width="60" height="60"/>
  <use id="zoomplus" xlink:href="#zoomPlus" x="17" y="9" onmousedown="handleZoom(evt,'in')"/>
  <use id="zoomminus" xlink:href="#zoomMin" x="42" y="9" onmousedown="handleZoom(evt,'out')"/>
  <use id="reset" xlink:href="#resetDef" x="30" y="36" onmousedown="handleReset()"/>
   <use id="arrowup" xlink:href="#arrowUp" x="0" y="0" onmousedown="handlePan(0,-1)"/>
  <use id="arrowright" xlink:href="#arrowRight" x="0" y="0" onmousedown="handlePan(1,0)"/>
  <use id="arrowdown" xlink:href="#arrowDown" x="0" y="0" onmousedown="handlePan(0,1)"/>
  <use id="arrowleft" xlink:href="#arrowLeft" x="0" y="0" onmousedown="handlePan(-1,0)"/>
</g>
<svg viewBox="0 0 15 15" width="100%" height="30px" preserveAspectRatio="xMaxYMin meet">
 <g id="arrow_out" transform="scale(0.3 0.3)">
  <a xlink:href="font_8h__dep__incl_org.svg" target="_base">
   <rect id="button" ry="5" rx="5" y="6" x="6" height="38" width="38"
        fill="#f2f5e9" fill-opacity="0.5" stroke="#606060" stroke-width="1.0"/>
   <path id="arrow"
     d="M 11.500037,31.436501 C 11.940474,20.09759 22.043105,11.32322 32.158766,21.979434 L 37.068811,17.246167 C 37.068811,17.246167 37.088388,32 37.088388,32 L 22.160133,31.978069 C 22.160133,31.978069 26.997745,27.140456 26.997745,27.140456 C 18.528582,18.264221 13.291696,25.230495 11.500037,31.436501 z"
     style="fill:#404040;"/>
  </a>
 </g>
</svg>

<style type='text/css'>
<![CDATA[
[data-mouse-over-selected='false'] { opacity: 0.7; }
[data-mouse-over-selected='true']  { opacity: 1.0; }
]]>
</style>
<script type="application/ecmascript"><![CDATA[
document.addEventListener('DOMContentLoaded', (event) => {
  highlightEdges();
  highlightAdjacentNodes();
});
]]></script>
</svg>
