<?xml version="1.0" encoding="UTF-8" standalone="no"?>
<!DOCTYPE svg PUBLIC "-//W3C//DTD SVG 1.1//EN"
 "http://www.w3.org/Graphics/SVG/1.1/DTD/svg11.dtd">
<!-- Generated by graphviz version 12.2.1 (20241206.2353)
 -->
<!-- Title: app_main Pages: 1 -->
<svg width="649pt" height="190pt"
 viewBox="0.00 0.00 648.75 190.25" xmlns="http://www.w3.org/2000/svg" xmlns:xlink="http://www.w3.org/1999/xlink">
<g id="graph0" class="graph" transform="scale(1 1) rotate(0) translate(4 186.25)">
<title>app_main</title>
<!-- Node1 -->
<g id="Node000001" class="node">
<title>Node1</title>
<g id="a_Node000001"><a xlink:title=" ">
<polygon fill="#999999" stroke="#666666" points="69.25,-62.25 0,-62.25 0,-40 69.25,-40 69.25,-62.25"/>
<text text-anchor="middle" x="34.62" y="-46.85" font-family="Arial" font-size="12.00">app_main</text>
</a>
</g>
</g>
<!-- Node2 -->
<g id="Node000002" class="node">
<title>Node2</title>
<g id="a_Node000002"><a xlink:href="espnow_8c.html#a82456d56cc86371962135c5ff82fd954" target="_top" xlink:title="Initialize ESP&#45;NOW function.">
<polygon fill="white" stroke="#666666" points="245,-102.25 164.5,-102.25 164.5,-80 245,-80 245,-102.25"/>
<text text-anchor="middle" x="204.75" y="-86.85" font-family="Arial" font-size="12.00">espnow_init</text>
</a>
</g>
</g>
<!-- Node1&#45;&gt;Node2 -->
<g id="edge1_Node000001_Node000002" class="edge">
<title>Node1&#45;&gt;Node2</title>
<g id="a_edge1_Node000001_Node000002"><a xlink:title=" ">
<path fill="none" stroke="#63b8ff" d="M69.48,-61.43C80.8,-64.72 93.52,-68.25 105.25,-71.12 120.8,-74.93 137.85,-78.58 153.33,-81.69"/>
<polygon fill="#63b8ff" stroke="#63b8ff" points="152.31,-85.05 162.8,-83.56 153.67,-78.19 152.31,-85.05"/>
</a>
</g>
</g>
<!-- Node11 -->
<g id="Node000011" class="node">
<title>Node11</title>
<g id="a_Node000011"><a xlink:href="espnow_8c.html#a5e8b13ca7f586bed41ed5779b84f61f4" target="_top" xlink:title="Set configuration when receiving the corresponding ESP&#45;NOW data type Include: Set to enable/disable h...">
<polygon fill="white" stroke="#666666" points="304.25,-62.25 105.25,-62.25 105.25,-40 304.25,-40 304.25,-62.25"/>
<text text-anchor="middle" x="204.75" y="-46.85" font-family="Arial" font-size="12.00">espnow_set_config_for_data_type</text>
</a>
</g>
</g>
<!-- Node1&#45;&gt;Node11 -->
<g id="edge10_Node000001_Node000011" class="edge">
<title>Node1&#45;&gt;Node11</title>
<g id="a_edge10_Node000001_Node000011"><a xlink:title=" ">
<path fill="none" stroke="#63b8ff" d="M69.65,-51.12C76.99,-51.12 85.13,-51.12 93.66,-51.12"/>
<polygon fill="#63b8ff" stroke="#63b8ff" points="93.56,-54.63 103.56,-51.13 93.56,-47.63 93.56,-54.63"/>
</a>
</g>
</g>
<!-- Node12 -->
<g id="Node000012" class="node">
<title>Node12</title>
<g id="a_Node000012"><a xlink:href="espnow__storage_8c.html#afcdac79eafab05bba3191708b3d6c672" target="_top" xlink:title="Intialise ESP Storage.">
<polygon fill="white" stroke="#666666" points="268.25,-22.25 141.25,-22.25 141.25,0 268.25,0 268.25,-22.25"/>
<text text-anchor="middle" x="204.75" y="-6.85" font-family="Arial" font-size="12.00">espnow_storage_init</text>
</a>
</g>
</g>
<!-- Node1&#45;&gt;Node12 -->
<g id="edge11_Node000001_Node000012" class="edge">
<title>Node1&#45;&gt;Node12</title>
<g id="a_edge11_Node000001_Node000012"><a xlink:title=" ">
<path fill="none" stroke="#63b8ff" d="M69.48,-40.82C80.8,-37.53 93.52,-34 105.25,-31.12 113.71,-29.05 122.62,-27.03 131.48,-25.11"/>
<polygon fill="#63b8ff" stroke="#63b8ff" points="132.09,-28.56 141.15,-23.06 130.64,-21.71 132.09,-28.56"/>
</a>
</g>
</g>
<!-- Node3 -->
<g id="Node000003" class="node">
<title>Node3</title>
<g id="a_Node000003"><a xlink:href="espnow_8c.html#ab9e96f875511fcc24184f7b863ff8747" target="_top" xlink:title="When used for unicast, add the target device.">
<polygon fill="white" stroke="#666666" points="456,-162.25 340.25,-162.25 340.25,-140 456,-140 456,-162.25"/>
<text text-anchor="middle" x="398.12" y="-146.85" font-family="Arial" font-size="12.00">espnow_add_peer</text>
</a>
</g>
</g>
<!-- Node2&#45;&gt;Node3 -->
<g id="edge2_Node000002_Node000003" class="edge">
<title>Node2&#45;&gt;Node3</title>
<g id="a_edge2_Node000002_Node000003"><a xlink:title=" ">
<path fill="none" stroke="#63b8ff" d="M242.65,-102.69C273.1,-112.24 316.51,-125.85 349.56,-136.21"/>
<polygon fill="#63b8ff" stroke="#63b8ff" points="348.31,-139.49 358.9,-139.14 350.4,-132.81 348.31,-139.49"/>
</a>
</g>
</g>
<!-- Node4 -->
<g id="Node000004" class="node">
<title>Node4</title>
<g id="a_Node000004"><a xlink:href="espnow_8c.html#ae2e7d37b72ff59a530a9447bea4aa106" target="_top" xlink:title=" ">
<polygon fill="white" stroke="#666666" points="451.5,-122.25 344.75,-122.25 344.75,-100 451.5,-100 451.5,-122.25"/>
<text text-anchor="middle" x="398.12" y="-106.85" font-family="Arial" font-size="12.00">espnow_recv_cb</text>
</a>
</g>
</g>
<!-- Node2&#45;&gt;Node4 -->
<g id="edge3_Node000002_Node000004" class="edge">
<title>Node2&#45;&gt;Node4</title>
<g id="a_edge3_Node000002_Node000004"><a xlink:title=" ">
<path fill="none" stroke="#63b8ff" d="M245.4,-95.27C270.73,-97.92 304.13,-101.41 333.15,-104.44"/>
<polygon fill="#63b8ff" stroke="#63b8ff" points="332.63,-107.9 342.94,-105.46 333.36,-100.94 332.63,-107.9"/>
</a>
</g>
</g>
<!-- Node9 -->
<g id="Node000009" class="node">
<title>Node9</title>
<g id="a_Node000009"><a xlink:href="espnow__security_8c.html#accbf76d2b120ee4e43003ad1472c2b05" target="_top" xlink:title="Initialize the specified security info.">
<polygon fill="white" stroke="#666666" points="451.12,-82.25 345.12,-82.25 345.12,-60 451.12,-60 451.12,-82.25"/>
<text text-anchor="middle" x="398.12" y="-66.85" font-family="Arial" font-size="12.00">espnow_sec_init</text>
</a>
</g>
</g>
<!-- Node2&#45;&gt;Node9 -->
<g id="edge8_Node000002_Node000009" class="edge">
<title>Node2&#45;&gt;Node9</title>
<g id="a_edge8_Node000002_Node000009"><a xlink:title=" ">
<path fill="none" stroke="#63b8ff" d="M245.4,-86.98C270.82,-84.32 304.39,-80.82 333.48,-77.78"/>
<polygon fill="#63b8ff" stroke="#63b8ff" points="333.72,-81.27 343.3,-76.75 332.99,-74.31 333.72,-81.27"/>
</a>
</g>
</g>
<!-- Node10 -->
<g id="Node000010" class="node">
<title>Node10</title>
<g id="a_Node000010"><a xlink:href="espnow_8c.html#ae3d39a3c355f8c0a8297f76a28f7eaee" target="_top" xlink:title=" ">
<polygon fill="white" stroke="#666666" points="453.38,-42.25 342.88,-42.25 342.88,-20 453.38,-20 453.38,-42.25"/>
<text text-anchor="middle" x="398.12" y="-26.85" font-family="Arial" font-size="12.00">espnow_send_cb</text>
</a>
</g>
</g>
<!-- Node2&#45;&gt;Node10 -->
<g id="edge9_Node000002_Node000010" class="edge">
<title>Node2&#45;&gt;Node10</title>
<g id="a_edge9_Node000002_Node000010"><a xlink:title=" ">
<path fill="none" stroke="#63b8ff" d="M245.35,-85.93C263.64,-82.82 285.43,-78.08 304.25,-71.12 321.42,-64.79 323.56,-58.63 340.25,-51.12 343.59,-49.62 347.08,-48.16 350.62,-46.75"/>
<polygon fill="#63b8ff" stroke="#63b8ff" points="351.75,-50.06 359.85,-43.24 349.26,-43.52 351.75,-50.06"/>
</a>
</g>
</g>
<!-- Node5 -->
<g id="Node000005" class="node">
<title>Node5</title>
<g id="a_Node000005"><a xlink:href="espnow_8h.html#af0be4b97c8dad6c432c969e960110c1e" target="_top" xlink:title="Set group ID addresses.">
<polygon fill="white" stroke="#666666" points="627.62,-182.25 505.12,-182.25 505.12,-160 627.62,-160 627.62,-182.25"/>
<text text-anchor="middle" x="566.38" y="-166.85" font-family="Arial" font-size="12.00">espnow_add_group</text>
</a>
</g>
</g>
<!-- Node4&#45;&gt;Node5 -->
<g id="edge4_Node000004_Node000005" class="edge">
<title>Node4&#45;&gt;Node5</title>
<g id="a_edge4_Node000004_Node000005"><a xlink:title=" ">
<path fill="none" stroke="#63b8ff" d="M434.99,-122.7C442.04,-125.26 449.32,-128.12 456,-131.12 472.69,-138.63 475.05,-144.22 492,-151.12 496.33,-152.89 500.87,-154.55 505.48,-156.1"/>
<polygon fill="#63b8ff" stroke="#63b8ff" points="504.25,-159.38 514.84,-159.05 506.36,-152.7 504.25,-159.38"/>
</a>
</g>
</g>
<!-- Node6 -->
<g id="Node000006" class="node">
<title>Node6</title>
<g id="a_Node000006"><a xlink:href="espnow__group_8c.html#a875855b479ddb660719afebdc90b8b4d" target="_top" xlink:title="Delete group ID addresses.">
<polygon fill="white" stroke="#666666" points="625.75,-142.25 507,-142.25 507,-120 625.75,-120 625.75,-142.25"/>
<text text-anchor="middle" x="566.38" y="-126.85" font-family="Arial" font-size="12.00">espnow_del_group</text>
</a>
</g>
</g>
<!-- Node4&#45;&gt;Node6 -->
<g id="edge5_Node000004_Node000006" class="edge">
<title>Node4&#45;&gt;Node6</title>
<g id="a_edge5_Node000004_Node000006"><a xlink:title=" ">
<path fill="none" stroke="#63b8ff" d="M451.73,-117.45C465.68,-119.13 480.96,-120.97 495.66,-122.74"/>
<polygon fill="#63b8ff" stroke="#63b8ff" points="494.91,-126.17 505.26,-123.89 495.75,-119.22 494.91,-126.17"/>
</a>
</g>
</g>
<!-- Node7 -->
<g id="Node000007" class="node">
<title>Node7</title>
<g id="a_Node000007"><a xlink:href="espnow__group_8c.html#aa7b993563fd6da0fb75573573733daa3" target="_top" xlink:title="Get the number of group ID addresses.">
<polygon fill="white" stroke="#666666" points="640.75,-102.25 492,-102.25 492,-80 640.75,-80 640.75,-102.25"/>
<text text-anchor="middle" x="566.38" y="-86.85" font-family="Arial" font-size="12.00">espnow_get_group_num</text>
</a>
</g>
</g>
<!-- Node4&#45;&gt;Node7 -->
<g id="edge6_Node000004_Node000007" class="edge">
<title>Node4&#45;&gt;Node7</title>
<g id="a_edge6_Node000004_Node000007"><a xlink:title=" ">
<path fill="none" stroke="#63b8ff" d="M451.73,-104.8C460.82,-103.7 470.48,-102.54 480.18,-101.37"/>
<polygon fill="#63b8ff" stroke="#63b8ff" points="480.53,-104.86 490.04,-100.19 479.7,-97.91 480.53,-104.86"/>
</a>
</g>
</g>
<!-- Node8 -->
<g id="Node000008" class="node">
<title>Node8</title>
<g id="a_Node000008"><a xlink:href="espnow__group_8c.html#af826ca7f397223b5075b39529f9ba115" target="_top" xlink:title="Check whether the specified group address is my group.">
<polygon fill="white" stroke="#666666" points="633.25,-62.25 499.5,-62.25 499.5,-40 633.25,-40 633.25,-62.25"/>
<text text-anchor="middle" x="566.38" y="-46.85" font-family="Arial" font-size="12.00">espnow_is_my_group</text>
</a>
</g>
</g>
<!-- Node4&#45;&gt;Node8 -->
<g id="edge7_Node000004_Node000008" class="edge">
<title>Node4&#45;&gt;Node8</title>
<g id="a_edge7_Node000004_Node000008"><a xlink:title=" ">
<path fill="none" stroke="#63b8ff" d="M434.99,-99.55C442.04,-96.99 449.32,-94.13 456,-91.12 472.69,-83.62 475.05,-78.03 492,-71.12 496.33,-69.36 500.87,-67.7 505.48,-66.15"/>
<polygon fill="#63b8ff" stroke="#63b8ff" points="506.36,-69.55 514.84,-63.2 504.25,-62.87 506.36,-69.55"/>
</a>
</g>
</g>
</g>
</svg>
