<?xml version="1.0" encoding="UTF-8" standalone="no"?>
<!DOCTYPE svg PUBLIC "-//W3C//DTD SVG 1.1//EN"
 "http://www.w3.org/Graphics/SVG/1.1/DTD/svg11.dtd">
<!-- Generated by graphviz version 12.2.1 (20241206.2353)
 -->
<!-- Title: Graph Legend Pages: 1 -->
<svg width="3730pt" height="175pt"
 viewBox="0.00 0.00 3729.75 175.25" xmlns="http://www.w3.org/2000/svg" xmlns:xlink="http://www.w3.org/1999/xlink">
<g id="graph0" class="graph" transform="scale(1 1) rotate(0) translate(4 171.25)">
<title>Graph Legend</title>
<!-- Node9 -->
<g id="Node000009" class="node">
<title>Node9</title>
<g id="a_Node000009"><a xlink:title=" ">
<polygon fill="#999999" stroke="#666666" points="1690,-22.25 1627.5,-22.25 1627.5,0 1690,0 1690,-22.25"/>
<text text-anchor="middle" x="1658.75" y="-6.85" font-family="Arial" font-size="12.00">Inherited</text>
</a>
</g>
</g>
<!-- Node10 -->
<g id="Node000010" class="node">
<title>Node10</title>
<g id="a_Node000010"><a xlink:title=" ">
<polygon fill="white" stroke="#666666" points="77.5,-94.75 0,-94.75 0,-72.5 77.5,-72.5 77.5,-94.75"/>
<text text-anchor="middle" x="38.75" y="-79.35" font-family="Arial" font-size="12.00">PublicBase</text>
</a>
</g>
</g>
<!-- Node10&#45;&gt;Node9 -->
<g id="edge1" class="edge">
<title>Node10&#45;&gt;Node9</title>
<g id="a_edge1"><a xlink:title=" ">
<path fill="none" stroke="#63b8ff" d="M89.09,-72.45C423.75,-33.25 1435.6,-15.64 1627.25,-12.61"/>
<polygon fill="#63b8ff" stroke="#63b8ff" points="88.96,-68.94 79.45,-73.61 89.8,-75.89 88.96,-68.94"/>
</a>
</g>
</g>
<!-- Node11 -->
<g id="Node000011" class="node">
<title>Node11</title>
<g id="a_Node000011"><a xlink:title=" ">
<polygon fill="#fff0f0" stroke="red" points="73.38,-167.25 4.12,-167.25 4.12,-145 73.38,-145 73.38,-167.25"/>
<text text-anchor="middle" x="38.75" y="-151.85" font-family="Arial" font-size="12.00">Truncated</text>
</a>
</g>
</g>
<!-- Node11&#45;&gt;Node10 -->
<g id="edge2" class="edge">
<title>Node11&#45;&gt;Node10</title>
<g id="a_edge2"><a xlink:title=" ">
<path fill="none" stroke="#63b8ff" d="M38.75,-133.22C38.75,-120.51 38.75,-105.08 38.75,-95.07"/>
<polygon fill="#63b8ff" stroke="#63b8ff" points="35.25,-133.21 38.75,-143.21 42.25,-133.21 35.25,-133.21"/>
</a>
</g>
</g>
<!-- Node13 -->
<g id="node4" class="node">
<title>Node13</title>
<g id="a_node4"><a xlink:title=" ">
<polygon fill="white" stroke="#666666" points="959.75,-94.75 95.75,-94.75 95.75,-72.5 959.75,-72.5 959.75,-94.75"/>
<text text-anchor="middle" x="527.75" y="-79.35" font-family="Arial" font-size="12.00">ProtectedBase</text>
</a>
</g>
</g>
<!-- Node13&#45;&gt;Node9 -->
<g id="edge3" class="edge">
<title>Node13&#45;&gt;Node9</title>
<g id="a_edge3"><a xlink:title=" ">
<path fill="none" stroke="darkgreen" d="M709.37,-71.3C986.4,-54.04 1496.24,-22.25 1627.35,-14.08"/>
<polygon fill="darkgreen" stroke="darkgreen" points="709.26,-67.8 699.5,-71.92 709.7,-74.79 709.26,-67.8"/>
</a>
</g>
</g>
<!-- Node14 -->
<g id="node5" class="node">
<title>Node14</title>
<g id="a_node5"><a xlink:title=" ">
<polygon fill="white" stroke="#666666" points="1841.75,-94.75 977.75,-94.75 977.75,-72.5 1841.75,-72.5 1841.75,-94.75"/>
<text text-anchor="middle" x="1409.75" y="-79.35" font-family="Arial" font-size="12.00">PrivateBase</text>
</a>
</g>
</g>
<!-- Node14&#45;&gt;Node9 -->
<g id="edge4" class="edge">
<title>Node14&#45;&gt;Node9</title>
<g id="a_edge4"><a xlink:title=" ">
<path fill="none" stroke="#8b1a1a" d="M1457.87,-69C1507.79,-54.87 1584.4,-33.17 1627.15,-21.07"/>
<polygon fill="#8b1a1a" stroke="#8b1a1a" points="1457.15,-65.57 1448.48,-71.66 1459.06,-72.3 1457.15,-65.57"/>
</a>
</g>
</g>
<!-- Node15 -->
<g id="Node000015" class="node">
<title>Node15</title>
<g id="a_Node000015"><a xlink:title=" ">
<polygon fill="#e0e0e0" stroke="#999999" points="1957.62,-94.75 1859.88,-94.75 1859.88,-72.5 1957.62,-72.5 1957.62,-94.75"/>
<text text-anchor="middle" x="1908.75" y="-79.35" font-family="Arial" font-size="12.00">Undocumented</text>
</a>
</g>
</g>
<!-- Node15&#45;&gt;Node9 -->
<g id="edge5" class="edge">
<title>Node15&#45;&gt;Node9</title>
<g id="a_edge5"><a xlink:title=" ">
<path fill="none" stroke="#63b8ff" d="M1860.44,-69C1810.32,-54.87 1733.4,-33.17 1690.48,-21.07"/>
<polygon fill="#63b8ff" stroke="#63b8ff" points="1859.29,-72.31 1869.87,-71.66 1861.19,-65.58 1859.29,-72.31"/>
</a>
</g>
</g>
<!-- Node16 -->
<g id="node7" class="node">
<title>Node16</title>
<g id="a_node7"><a xlink:title=" ">
<polygon fill="white" stroke="#666666" points="2839.75,-94.75 1975.75,-94.75 1975.75,-72.5 2839.75,-72.5 2839.75,-94.75"/>
<text text-anchor="middle" x="2407.75" y="-79.35" font-family="Arial" font-size="12.00">Templ&lt; int &gt;</text>
</a>
</g>
</g>
<!-- Node16&#45;&gt;Node9 -->
<g id="edge6" class="edge">
<title>Node16&#45;&gt;Node9</title>
<g id="a_edge6"><a xlink:title=" ">
<path fill="none" stroke="#63b8ff" d="M2284,-70.98C2106.78,-54.3 1790.95,-24.57 1690.41,-15.1"/>
<polygon fill="#63b8ff" stroke="#63b8ff" points="2283.42,-74.44 2293.71,-71.89 2284.08,-67.47 2283.42,-74.44"/>
</a>
</g>
</g>
<!-- Node17 -->
<g id="node8" class="node">
<title>Node17</title>
<g id="a_node8"><a xlink:title=" ">
<polygon fill="white" stroke="#666666" points="2839.75,-167.25 1975.75,-167.25 1975.75,-145 2839.75,-145 2839.75,-167.25"/>
<text text-anchor="middle" x="2407.75" y="-151.85" font-family="Arial" font-size="12.00">Templ&lt; T &gt;</text>
</a>
</g>
</g>
<!-- Node17&#45;&gt;Node16 -->
<g id="edge7" class="edge">
<title>Node17&#45;&gt;Node16</title>
<g id="a_edge7"><a xlink:title=" ">
<path fill="none" stroke="orange" stroke-dasharray="5,2" d="M2407.75,-133.22C2407.75,-120.51 2407.75,-105.08 2407.75,-95.07"/>
<polygon fill="orange" stroke="orange" points="2404.25,-133.21 2407.75,-143.21 2411.25,-133.21 2404.25,-133.21"/>
</a>
</g>
<text text-anchor="middle" x="2423.88" y="-115.6" font-family="Arial" font-size="12.00" fill="grey">&lt; int &gt;</text>
</g>
<!-- Node18 -->
<g id="node9" class="node">
<title>Node18</title>
<g id="a_node9"><a xlink:title=" ">
<polygon fill="white" stroke="#666666" points="3721.75,-94.75 2857.75,-94.75 2857.75,-72.5 3721.75,-72.5 3721.75,-94.75"/>
<text text-anchor="middle" x="3289.75" y="-79.35" font-family="Arial" font-size="12.00">Used</text>
</a>
</g>
</g>
<!-- Node18&#45;&gt;Node9 -->
<g id="edge8" class="edge">
<title>Node18&#45;&gt;Node9</title>
<g id="a_edge8"><a xlink:title=" ">
<path fill="none" stroke="#9a32cd" stroke-dasharray="5,2" d="M3032.86,-71.52C2624.13,-53.85 1854.97,-20.61 1690.29,-13.49"/>
<polygon fill="#9a32cd" stroke="#9a32cd" points="3032.59,-75.01 3042.74,-71.95 3032.9,-68.02 3032.59,-75.01"/>
</a>
</g>
<text text-anchor="middle" x="2657.09" y="-43.1" font-family="Arial" font-size="12.00" fill="grey">m_usedClass</text>
</g>
</g>
</svg>
