<?xml version="1.0" encoding="UTF-8" standalone="no"?>
<!DOCTYPE svg PUBLIC "-//W3C//DTD SVG 1.1//EN"
 "http://www.w3.org/Graphics/SVG/1.1/DTD/svg11.dtd">
<!-- Generated by graphviz version 12.2.1 (20241206.2353)
 -->
<!-- Title: app_espnow_initiator Pages: 1 -->
<svg width="808pt" height="550pt"
 viewBox="0.00 0.00 807.75 550.25" xmlns="http://www.w3.org/2000/svg" xmlns:xlink="http://www.w3.org/1999/xlink">
<g id="graph0" class="graph" transform="scale(1 1) rotate(0) translate(4 546.25)">
<title>app_espnow_initiator</title>
<!-- Node1 -->
<g id="Node000001" class="node">
<title>Node1</title>
<g id="a_Node000001"><a xlink:title=" ">
<polygon fill="#999999" stroke="#666666" points="130.75,-61.25 0,-61.25 0,-39 130.75,-39 130.75,-61.25"/>
<text text-anchor="middle" x="65.38" y="-45.85" font-family="Arial" font-size="12.00">app_espnow_initiator</text>
</a>
</g>
</g>
<!-- Node2 -->
<g id="Node000002" class="node">
<title>Node2</title>
<g id="a_Node000002"><a xlink:href="espnow__commands_8c.html#a0bb86e9397ef9f6da395e1a03b34a139" target="_top" xlink:title="Register Common commands.">
<polygon fill="white" stroke="#666666" points="385.25,-202.25 166.75,-202.25 166.75,-180 385.25,-180 385.25,-202.25"/>
<text text-anchor="middle" x="276" y="-186.85" font-family="Arial" font-size="12.00">espnow_console_commands_register</text>
</a>
</g>
</g>
<!-- Node1&#45;&gt;Node2 -->
<g id="edge1_Node000001_Node000002" class="edge">
<title>Node1&#45;&gt;Node2</title>
<g id="a_edge1_Node000001_Node000002"><a xlink:title=" ">
<path fill="none" stroke="#63b8ff" d="M83.45,-61.66C119.83,-86.25 205.22,-143.96 248.64,-173.31"/>
<polygon fill="#63b8ff" stroke="#63b8ff" points="246.48,-176.08 256.73,-178.78 250.4,-170.28 246.48,-176.08"/>
</a>
</g>
</g>
<!-- Node22 -->
<g id="Node000022" class="node">
<title>Node22</title>
<g id="a_Node000022"><a xlink:href="espnow__console_8c.html#aa6f31005efa0f0074f02968b96f8bd7a" target="_top" xlink:title="Initialize console module.">
<polygon fill="white" stroke="#666666" points="340.62,-61.25 211.38,-61.25 211.38,-39 340.62,-39 340.62,-61.25"/>
<text text-anchor="middle" x="276" y="-45.85" font-family="Arial" font-size="12.00">espnow_console_init</text>
</a>
</g>
</g>
<!-- Node1&#45;&gt;Node22 -->
<g id="edge21_Node000001_Node000022" class="edge">
<title>Node1&#45;&gt;Node22</title>
<g id="a_edge21_Node000001_Node000022"><a xlink:title=" ">
<path fill="none" stroke="#63b8ff" d="M131.24,-50.12C152.84,-50.12 177.07,-50.12 199.41,-50.12"/>
<polygon fill="#63b8ff" stroke="#63b8ff" points="199.38,-53.63 209.38,-50.13 199.38,-46.63 199.38,-53.63"/>
</a>
</g>
</g>
<!-- Node23 -->
<g id="Node000023" class="node">
<title>Node23</title>
<g id="a_Node000023"><a xlink:href="espnow_8c.html#a5e8b13ca7f586bed41ed5779b84f61f4" target="_top" xlink:title="Set configuration when receiving the corresponding ESP&#45;NOW data type Include: Set to enable/disable h...">
<polygon fill="white" stroke="#666666" points="620.25,-22.25 421.25,-22.25 421.25,0 620.25,0 620.25,-22.25"/>
<text text-anchor="middle" x="520.75" y="-6.85" font-family="Arial" font-size="12.00">espnow_set_config_for_data_type</text>
</a>
</g>
</g>
<!-- Node1&#45;&gt;Node23 -->
<g id="edge23_Node000001_Node000023" class="edge">
<title>Node1&#45;&gt;Node23</title>
<g id="a_edge23_Node000001_Node000023"><a xlink:title=" ">
<path fill="none" stroke="#63b8ff" d="M117.21,-38.53C133.01,-35.32 150.53,-32.17 166.75,-30.12 247.65,-19.94 339.65,-15.21 409.44,-13.02"/>
<polygon fill="#63b8ff" stroke="#63b8ff" points="409.49,-16.52 419.38,-12.72 409.28,-9.52 409.49,-16.52"/>
</a>
</g>
</g>
<!-- Node3 -->
<g id="Node000003" class="node">
<title>Node3</title>
<g id="a_Node000003"><a xlink:href="cmd__espnow_8c.html#a49ab8b4f30ba6620b8349e8dbcf6e7a7" target="_top" xlink:title=" ">
<polygon fill="white" stroke="#666666" points="573,-442.25 468.5,-442.25 468.5,-420 573,-420 573,-442.25"/>
<text text-anchor="middle" x="520.75" y="-426.85" font-family="Arial" font-size="12.00">register_espnow</text>
</a>
</g>
</g>
<!-- Node2&#45;&gt;Node3 -->
<g id="edge2_Node000002_Node000003" class="edge">
<title>Node2&#45;&gt;Node3</title>
<g id="a_edge2_Node000002_Node000003"><a xlink:title=" ">
<path fill="none" stroke="#63b8ff" d="M286.24,-202.53C308.33,-229.56 366.47,-299.1 421.25,-351.12 445.11,-373.78 474.65,-397.23 495.13,-412.84"/>
<polygon fill="#63b8ff" stroke="#63b8ff" points="492.82,-415.48 502.91,-418.71 497.04,-409.89 492.82,-415.48"/>
</a>
</g>
</g>
<!-- Node9 -->
<g id="Node000009" class="node">
<title>Node9</title>
<g id="a_Node000009"><a xlink:href="cmd__iperf_8c.html#aba7899961f37bd327bbcfbfbe6582b3d" target="_top" xlink:title=" ">
<polygon fill="white" stroke="#666666" points="563.62,-342.25 477.88,-342.25 477.88,-320 563.62,-320 563.62,-342.25"/>
<text text-anchor="middle" x="520.75" y="-326.85" font-family="Arial" font-size="12.00">register_iperf</text>
</a>
</g>
</g>
<!-- Node2&#45;&gt;Node9 -->
<g id="edge8_Node000002_Node000009" class="edge">
<title>Node2&#45;&gt;Node9</title>
<g id="a_edge8_Node000002_Node000009"><a xlink:title=" ">
<path fill="none" stroke="#63b8ff" d="M286.9,-202.52C308.6,-226.7 363.09,-283.24 421.25,-311.12 435.17,-317.8 451.23,-322.25 466.29,-325.21"/>
<polygon fill="#63b8ff" stroke="#63b8ff" points="465.61,-328.65 476.07,-326.94 466.83,-321.75 465.61,-328.65"/>
</a>
</g>
</g>
<!-- Node12 -->
<g id="Node000012" class="node">
<title>Node12</title>
<g id="a_Node000012"><a xlink:href="cmd__peripherals_8c.html#a32de1cde0b0101a969e28a296a893a0c" target="_top" xlink:title=" ">
<polygon fill="white" stroke="#666666" points="582,-302.25 459.5,-302.25 459.5,-280 582,-280 582,-302.25"/>
<text text-anchor="middle" x="520.75" y="-286.85" font-family="Arial" font-size="12.00">register_peripherals</text>
</a>
</g>
</g>
<!-- Node2&#45;&gt;Node12 -->
<g id="edge11_Node000002_Node000012" class="edge">
<title>Node2&#45;&gt;Node12</title>
<g id="a_edge11_Node000002_Node000012"><a xlink:title=" ">
<path fill="none" stroke="#63b8ff" d="M293.5,-202.51C319.5,-219.9 372.08,-252.99 421.25,-271.12 429.75,-274.26 438.85,-276.94 447.96,-279.23"/>
<polygon fill="#63b8ff" stroke="#63b8ff" points="447.02,-282.61 457.56,-281.49 448.62,-275.79 447.02,-282.61"/>
</a>
</g>
</g>
<!-- Node13 -->
<g id="Node000013" class="node">
<title>Node13</title>
<g id="a_Node000013"><a xlink:href="cmd__sdcard_8c.html#aee0a19b9ec59752b8124fcb5d3b45d23" target="_top" xlink:title="Register sdcard command.">
<polygon fill="white" stroke="#666666" points="570,-262.25 471.5,-262.25 471.5,-240 570,-240 570,-262.25"/>
<text text-anchor="middle" x="520.75" y="-246.85" font-family="Arial" font-size="12.00">register_sdcard</text>
</a>
</g>
</g>
<!-- Node2&#45;&gt;Node13 -->
<g id="edge12_Node000002_Node000013" class="edge">
<title>Node2&#45;&gt;Node13</title>
<g id="a_edge12_Node000002_Node000013"><a xlink:title=" ">
<path fill="none" stroke="#63b8ff" d="M315.99,-202.74C344.91,-211.15 385.36,-222.52 421.25,-231.12 433.72,-234.12 447.14,-237.04 459.95,-239.68"/>
<polygon fill="#63b8ff" stroke="#63b8ff" points="459.02,-243.07 469.52,-241.63 460.42,-236.21 459.02,-243.07"/>
</a>
</g>
</g>
<!-- Node14 -->
<g id="Node000014" class="node">
<title>Node14</title>
<g id="a_Node000014"><a xlink:href="cmd__system_8c.html#a5cea85be00cb1ee5b57616da2fec81dd" target="_top" xlink:title=" ">
<polygon fill="white" stroke="#666666" points="570.75,-222.25 470.75,-222.25 470.75,-200 570.75,-200 570.75,-222.25"/>
<text text-anchor="middle" x="520.75" y="-206.85" font-family="Arial" font-size="12.00">register_system</text>
</a>
</g>
</g>
<!-- Node2&#45;&gt;Node14 -->
<g id="edge13_Node000002_Node000014" class="edge">
<title>Node2&#45;&gt;Node14</title>
<g id="a_edge13_Node000002_Node000014"><a xlink:title=" ">
<path fill="none" stroke="#63b8ff" d="M385.59,-200.07C410.86,-202.15 436.87,-204.3 459.18,-206.13"/>
<polygon fill="#63b8ff" stroke="#63b8ff" points="458.72,-209.61 468.98,-206.94 459.3,-202.63 458.72,-209.61"/>
</a>
</g>
</g>
<!-- Node15 -->
<g id="Node000015" class="node">
<title>Node15</title>
<g id="a_Node000015"><a xlink:href="cmd__wifi_8c.html#acc3b783818c73878210baf4064425629" target="_top" xlink:title=" ">
<polygon fill="white" stroke="#666666" points="561,-182.25 480.5,-182.25 480.5,-160 561,-160 561,-182.25"/>
<text text-anchor="middle" x="520.75" y="-166.85" font-family="Arial" font-size="12.00">register_wifi</text>
</a>
</g>
</g>
<!-- Node2&#45;&gt;Node15 -->
<g id="edge14_Node000002_Node000015" class="edge">
<title>Node2&#45;&gt;Node15</title>
<g id="a_edge14_Node000002_Node000015"><a xlink:title=" ">
<path fill="none" stroke="#63b8ff" d="M385.59,-182.18C414.56,-179.79 444.51,-177.32 468.74,-175.33"/>
<polygon fill="#63b8ff" stroke="#63b8ff" points="468.96,-178.82 478.64,-174.51 468.38,-171.85 468.96,-178.82"/>
</a>
</g>
</g>
<!-- Node19 -->
<g id="Node000019" class="node">
<title>Node19</title>
<g id="a_Node000019"><a xlink:href="cmd__wifi__sniffer_8c.html#aeca2ef6acde5704f187f7f3734ca0a51" target="_top" xlink:title=" ">
<polygon fill="white" stroke="#666666" points="580.5,-142.25 461,-142.25 461,-120 580.5,-120 580.5,-142.25"/>
<text text-anchor="middle" x="520.75" y="-126.85" font-family="Arial" font-size="12.00">register_wifi_sniffer</text>
</a>
</g>
</g>
<!-- Node2&#45;&gt;Node19 -->
<g id="edge18_Node000002_Node000019" class="edge">
<title>Node2&#45;&gt;Node19</title>
<g id="a_edge18_Node000002_Node000019"><a xlink:title=" ">
<path fill="none" stroke="#63b8ff" d="M315.99,-179.51C344.91,-171.1 385.36,-159.73 421.25,-151.12 430.4,-148.93 440.06,-146.77 449.61,-144.74"/>
<polygon fill="#63b8ff" stroke="#63b8ff" points="450.19,-148.19 459.26,-142.71 448.76,-141.34 450.19,-148.19"/>
</a>
</g>
</g>
<!-- Node20 -->
<g id="Node000020" class="node">
<title>Node20</title>
<g id="a_Node000020"><a xlink:href="sdcard_8c.html#ae3e13ea01aad71d69c7e3c4656de1803" target="_top" xlink:title="Initialize sdcard, Using SDMMC peripheral.">
<polygon fill="white" stroke="#666666" points="558,-102.25 483.5,-102.25 483.5,-80 558,-80 558,-102.25"/>
<text text-anchor="middle" x="520.75" y="-86.85" font-family="Arial" font-size="12.00">sdcard_init</text>
</a>
</g>
</g>
<!-- Node2&#45;&gt;Node20 -->
<g id="edge19_Node000002_Node000020" class="edge">
<title>Node2&#45;&gt;Node20</title>
<g id="a_edge19_Node000002_Node000020"><a xlink:title=" ">
<path fill="none" stroke="#63b8ff" d="M293.5,-179.74C319.5,-162.35 372.08,-129.26 421.25,-111.12 437.48,-105.14 455.91,-100.79 472.4,-97.71"/>
<polygon fill="#63b8ff" stroke="#63b8ff" points="472.72,-101.21 481.97,-96.03 471.51,-94.31 472.72,-101.21"/>
</a>
</g>
</g>
<!-- Node21 -->
<g id="Node000021" class="node">
<title>Node21</title>
<g id="a_Node000021"><a xlink:href="sdcard_8c.html#a1ee82a88b28b169594e94eada1cf1233" target="_top" xlink:title="Check if sdcard is mounted.">
<polygon fill="white" stroke="#666666" points="574.5,-62.25 467,-62.25 467,-40 574.5,-40 574.5,-62.25"/>
<text text-anchor="middle" x="520.75" y="-46.85" font-family="Arial" font-size="12.00">sdcard_is_mount</text>
</a>
</g>
</g>
<!-- Node2&#45;&gt;Node21 -->
<g id="edge20_Node000002_Node000021" class="edge">
<title>Node2&#45;&gt;Node21</title>
<g id="a_edge20_Node000002_Node000021"><a xlink:title=" ">
<path fill="none" stroke="#63b8ff" d="M286.9,-179.73C308.6,-155.55 363.09,-99.01 421.25,-71.12 431.86,-66.04 443.72,-62.24 455.43,-59.41"/>
<polygon fill="#63b8ff" stroke="#63b8ff" points="456.06,-62.85 465.09,-57.3 454.57,-56.02 456.06,-62.85"/>
</a>
</g>
</g>
<!-- Node4 -->
<g id="Node000004" class="node">
<title>Node4</title>
<g id="a_Node000004"><a xlink:href="cmd__espnow_8c.html#a663e227ca7f408c5e70f3a543066c1f3" target="_top" xlink:title="Register command command.">
<polygon fill="white" stroke="#666666" points="785.5,-542.25 670.5,-542.25 670.5,-520 785.5,-520 785.5,-542.25"/>
<text text-anchor="middle" x="728" y="-526.85" font-family="Arial" font-size="12.00">register_command</text>
</a>
</g>
</g>
<!-- Node3&#45;&gt;Node4 -->
<g id="edge3_Node000003_Node000004" class="edge">
<title>Node3&#45;&gt;Node4</title>
<g id="a_edge3_Node000003_Node000004"><a xlink:title=" ">
<path fill="none" stroke="#63b8ff" d="M537.99,-442.7C562.54,-459.75 611.07,-491.7 656.25,-511.12 660.29,-512.86 664.52,-514.49 668.83,-516.02"/>
<polygon fill="#63b8ff" stroke="#63b8ff" points="667.56,-519.29 678.16,-519.1 669.76,-512.64 667.56,-519.29"/>
</a>
</g>
</g>
<!-- Node5 -->
<g id="Node000005" class="node">
<title>Node5</title>
<g id="a_Node000005"><a xlink:href="cmd__espnow_8c.html#a133f010c7f704fae3fd7c7844ab8adb4" target="_top" xlink:title=" ">
<polygon fill="white" stroke="#666666" points="777.25,-502.25 678.75,-502.25 678.75,-480 777.25,-480 777.25,-502.25"/>
<text text-anchor="middle" x="728" y="-486.85" font-family="Arial" font-size="12.00">register_control</text>
</a>
</g>
</g>
<!-- Node3&#45;&gt;Node5 -->
<g id="edge4_Node000003_Node000005" class="edge">
<title>Node3&#45;&gt;Node5</title>
<g id="a_edge4_Node000003_Node000005"><a xlink:title=" ">
<path fill="none" stroke="#63b8ff" d="M560.26,-442.73C587.14,-450.79 623.84,-461.73 656.25,-471.12 662.38,-472.9 668.81,-474.75 675.19,-476.57"/>
<polygon fill="#63b8ff" stroke="#63b8ff" points="673.79,-479.81 684.36,-479.17 675.7,-473.07 673.79,-479.81"/>
</a>
</g>
</g>
<!-- Node6 -->
<g id="Node000006" class="node">
<title>Node6</title>
<g id="a_Node000006"><a xlink:href="cmd__espnow_8c.html#a4116f70abed28605f9edde3cb2b49df3" target="_top" xlink:title=" ">
<polygon fill="white" stroke="#666666" points="767.5,-462.25 688.5,-462.25 688.5,-440 767.5,-440 767.5,-462.25"/>
<text text-anchor="middle" x="728" y="-446.85" font-family="Arial" font-size="12.00">register_ota</text>
</a>
</g>
</g>
<!-- Node3&#45;&gt;Node6 -->
<g id="edge5_Node000003_Node000006" class="edge">
<title>Node3&#45;&gt;Node6</title>
<g id="a_edge5_Node000003_Node000006"><a xlink:title=" ">
<path fill="none" stroke="#63b8ff" d="M573.28,-436.15C605.01,-439.24 645.48,-443.18 676.94,-446.25"/>
<polygon fill="#63b8ff" stroke="#63b8ff" points="676.28,-449.7 686.58,-447.19 676.96,-442.73 676.28,-449.7"/>
</a>
</g>
</g>
<!-- Node7 -->
<g id="Node000007" class="node">
<title>Node7</title>
<g id="a_Node000007"><a xlink:href="cmd__espnow_8c.html#a250a2960cac20a0a927ea9ee538d0ed1" target="_top" xlink:title=" ">
<polygon fill="white" stroke="#666666" points="791.88,-422.25 664.12,-422.25 664.12,-400 791.88,-400 791.88,-422.25"/>
<text text-anchor="middle" x="728" y="-406.85" font-family="Arial" font-size="12.00">register_provisioning</text>
</a>
</g>
</g>
<!-- Node3&#45;&gt;Node7 -->
<g id="edge6_Node000003_Node000007" class="edge">
<title>Node3&#45;&gt;Node7</title>
<g id="a_edge6_Node000003_Node000007"><a xlink:title=" ">
<path fill="none" stroke="#63b8ff" d="M573.28,-426.1C597.17,-423.78 626.03,-420.96 652.26,-418.41"/>
<polygon fill="#63b8ff" stroke="#63b8ff" points="652.58,-421.89 662.2,-417.44 651.9,-414.93 652.58,-421.89"/>
</a>
</g>
</g>
<!-- Node8 -->
<g id="Node000008" class="node">
<title>Node8</title>
<g id="a_Node000008"><a xlink:href="cmd__espnow_8c.html#a952bdf39df32da2582cc93259df66b21" target="_top" xlink:title=" ">
<polygon fill="white" stroke="#666666" points="772,-382.25 684,-382.25 684,-360 772,-360 772,-382.25"/>
<text text-anchor="middle" x="728" y="-366.85" font-family="Arial" font-size="12.00">register_scan</text>
</a>
</g>
</g>
<!-- Node3&#45;&gt;Node8 -->
<g id="edge7_Node000003_Node000008" class="edge">
<title>Node3&#45;&gt;Node8</title>
<g id="a_edge7_Node000003_Node000008"><a xlink:title=" ">
<path fill="none" stroke="#63b8ff" d="M560.26,-419.52C587.14,-411.46 623.84,-400.52 656.25,-391.12 662.38,-389.35 668.81,-387.5 675.19,-385.68"/>
<polygon fill="#63b8ff" stroke="#63b8ff" points="675.7,-389.18 684.36,-383.08 673.79,-382.44 675.7,-389.18"/>
</a>
</g>
</g>
<!-- Node10 -->
<g id="Node000010" class="node">
<title>Node10</title>
<g id="a_Node000010"><a xlink:href="cmd__iperf_8c.html#a59752ecd5d3a975453892e77911181f3" target="_top" xlink:title=" ">
<polygon fill="white" stroke="#666666" points="799.75,-342.25 656.25,-342.25 656.25,-320 799.75,-320 799.75,-342.25"/>
<text text-anchor="middle" x="728" y="-326.85" font-family="Arial" font-size="12.00">register_espnow_config</text>
</a>
</g>
</g>
<!-- Node9&#45;&gt;Node10 -->
<g id="edge9_Node000009_Node000010" class="edge">
<title>Node9&#45;&gt;Node10</title>
<g id="a_edge9_Node000009_Node000010"><a xlink:title=" ">
<path fill="none" stroke="#63b8ff" d="M563.78,-331.12C587.08,-331.12 616.86,-331.12 644.6,-331.12"/>
<polygon fill="#63b8ff" stroke="#63b8ff" points="644.41,-334.63 654.41,-331.13 644.41,-327.63 644.41,-334.63"/>
</a>
</g>
</g>
<!-- Node11 -->
<g id="Node000011" class="node">
<title>Node11</title>
<g id="a_Node000011"><a xlink:href="cmd__iperf_8c.html#a3e3a4b00f06201a66ee042ac3363f9de" target="_top" xlink:title=" ">
<polygon fill="white" stroke="#666666" points="795.25,-302.25 660.75,-302.25 660.75,-280 795.25,-280 795.25,-302.25"/>
<text text-anchor="middle" x="728" y="-286.85" font-family="Arial" font-size="12.00">register_espnow_iperf</text>
</a>
</g>
</g>
<!-- Node9&#45;&gt;Node11 -->
<g id="edge10_Node000009_Node000011" class="edge">
<title>Node9&#45;&gt;Node11</title>
<g id="a_edge10_Node000009_Node000011"><a xlink:title=" ">
<path fill="none" stroke="#63b8ff" d="M563.78,-322.93C590.42,-317.74 625.54,-310.9 656.37,-304.89"/>
<polygon fill="#63b8ff" stroke="#63b8ff" points="656.89,-308.35 666.03,-303.01 655.55,-301.48 656.89,-308.35"/>
</a>
</g>
</g>
<!-- Node16 -->
<g id="Node000016" class="node">
<title>Node16</title>
<g id="a_Node000016"><a xlink:href="cmd__wifi_8c.html#a53edfa7e48af95ba07348e7c1421feea" target="_top" xlink:title=" ">
<polygon fill="white" stroke="#666666" points="778.38,-222.25 677.62,-222.25 677.62,-200 778.38,-200 778.38,-222.25"/>
<text text-anchor="middle" x="728" y="-206.85" font-family="Arial" font-size="12.00">register_wifi_ap</text>
</a>
</g>
</g>
<!-- Node15&#45;&gt;Node16 -->
<g id="edge15_Node000015_Node000016" class="edge">
<title>Node15&#45;&gt;Node16</title>
<g id="a_edge15_Node000015_Node000016"><a xlink:title=" ">
<path fill="none" stroke="#63b8ff" d="M561.32,-178.84C591.05,-184.63 632.29,-192.67 666.19,-199.27"/>
<polygon fill="#63b8ff" stroke="#63b8ff" points="665.41,-202.69 675.89,-201.17 666.75,-195.82 665.41,-202.69"/>
</a>
</g>
</g>
<!-- Node17 -->
<g id="Node000017" class="node">
<title>Node17</title>
<g id="a_Node000017"><a xlink:href="cmd__wifi_8c.html#a829e61400c74b6e8b03ebbc968fb6ae9" target="_top" xlink:title=" ">
<polygon fill="white" stroke="#666666" points="783.25,-182.25 672.75,-182.25 672.75,-160 783.25,-160 783.25,-182.25"/>
<text text-anchor="middle" x="728" y="-166.85" font-family="Arial" font-size="12.00">register_wifi_ping</text>
</a>
</g>
</g>
<!-- Node15&#45;&gt;Node17 -->
<g id="edge16_Node000015_Node000017" class="edge">
<title>Node15&#45;&gt;Node17</title>
<g id="a_edge16_Node000015_Node000017"><a xlink:title=" ">
<path fill="none" stroke="#63b8ff" d="M561.32,-171.12C589.56,-171.12 628.2,-171.12 661.06,-171.12"/>
<polygon fill="#63b8ff" stroke="#63b8ff" points="660.9,-174.63 670.9,-171.13 660.9,-167.63 660.9,-174.63"/>
</a>
</g>
</g>
<!-- Node18 -->
<g id="Node000018" class="node">
<title>Node18</title>
<g id="a_Node000018"><a xlink:href="cmd__wifi_8c.html#af11c2a0aaba22bf6cce6d38be617ed89" target="_top" xlink:title="Register wifi scan command.">
<polygon fill="white" stroke="#666666" points="784.38,-142.25 671.62,-142.25 671.62,-120 784.38,-120 784.38,-142.25"/>
<text text-anchor="middle" x="728" y="-126.85" font-family="Arial" font-size="12.00">register_wifi_scan</text>
</a>
</g>
</g>
<!-- Node15&#45;&gt;Node18 -->
<g id="edge17_Node000015_Node000018" class="edge">
<title>Node15&#45;&gt;Node18</title>
<g id="a_edge17_Node000015_Node000018"><a xlink:title=" ">
<path fill="none" stroke="#63b8ff" d="M561.32,-163.41C589.25,-157.97 627.35,-150.55 659.97,-144.19"/>
<polygon fill="#63b8ff" stroke="#63b8ff" points="660.62,-147.63 669.77,-142.28 659.28,-140.76 660.62,-147.63"/>
</a>
</g>
</g>
<!-- Node22&#45;&gt;Node23 -->
<g id="edge22_Node000022_Node000023" class="edge">
<title>Node22&#45;&gt;Node23</title>
<g id="a_edge22_Node000022_Node000023"><a xlink:title=" ">
<path fill="none" stroke="#63b8ff" d="M341.1,-39.83C370.25,-35.14 405.11,-29.54 436.28,-24.54"/>
<polygon fill="#63b8ff" stroke="#63b8ff" points="436.76,-28 446.08,-22.96 435.65,-21.09 436.76,-28"/>
</a>
</g>
</g>
</g>
</svg>
