<?xml version="1.0" encoding="UTF-8" standalone="no"?>
<!DOCTYPE svg PUBLIC "-//W3C//DTD SVG 1.1//EN"
 "http://www.w3.org/Graphics/SVG/1.1/DTD/svg11.dtd">
<!-- Generated by graphviz version 12.2.1 (20241206.2353)
 -->
<!-- Title: app_main Pages: 1 -->
<!--zoomable 588 -->

<svg id="main" version="1.1" xmlns="http://www.w3.org/2000/svg" xmlns:xlink="http://www.w3.org/1999/xlink" xml:space="preserve" onload="init(evt)">

<style type="text/css"><![CDATA[
.node, .edge {opacity: 0.7;}
.node.selected, .edge.selected {opacity: 1;}
.edge:hover path { stroke: red; }
.edge:hover polygon { stroke: red; fill: red; }
]]></style>

<defs>
  <circle id="rim" cx="0" cy="0" r="7"/>
  <circle id="rim2" cx="0" cy="0" r="3.5"/>
  <g id="zoomPlus">
    <use xlink:href="#rim" fill="#404040"><set attributeName="fill" to="#808080" begin="zoomplus.mouseover" end="zoomplus.mouseout"/></use>
    <path d="M-4,0h8M0,-4v8" fill="none" stroke="white" stroke-width="1.5" pointer-events="none"/>
  </g>
  <g id="zoomMin">
    <use xlink:href="#rim" fill="#404040"><set attributeName="fill" to="#808080" begin="zoomminus.mouseover" end="zoomminus.mouseout"/></use>
    <path d="M-4,0h8" fill="none" stroke="white" stroke-width="1.5" pointer-events="none"/>
  </g>
  <g id="arrowUp" transform="translate(30 24)">
    <use xlink:href="#rim"/>
    <path pointer-events="none" fill="none" stroke="white" stroke-width="1.5" d="M0,-3.0v7 M-2.5,-0.5L0,-3.0L2.5,-0.5"/>
  </g>
  <g id="arrowRight" transform="rotate(90) translate(36 -43)">
    <use xlink:href="#rim"/>
    <path pointer-events="none" fill="none" stroke="white" stroke-width="1.5" d="M0,-3.0v7 M-2.5,-0.5L0,-3.0L2.5,-0.5"/>
  </g>
  <g id="arrowDown" transform="rotate(180) translate(-30 -48)">
    <use xlink:href="#rim"/>
    <path pointer-events="none" fill="none" stroke="white" stroke-width="1.5" d="M0,-3.0v7 M-2.5,-0.5L0,-3.0L2.5,-0.5"/>
  </g>
  <g id="arrowLeft" transform="rotate(270) translate(-36 17)">
    <use xlink:href="#rim"/>
    <path pointer-events="none" fill="none" stroke="white" stroke-width="1.5" d="M0,-3.0v7 M-2.5,-0.5L0,-3.0L2.5,-0.5"/>
  </g>
  <g id="resetDef">
    <use xlink:href="#rim2" fill="#404040"><set attributeName="fill" to="#808080" begin="reset.mouseover" end="reset.mouseout"/></use>
  </g>
</defs>
<script type="application/ecmascript">
var viewWidth = 957;
var viewHeight = 588;
var sectionId = 'dynsection-0';
</script>
<script type="application/ecmascript" xlink:href="svg.min.js"/>
<svg id="graph" class="graph">
<g id="viewport">
<title>app_main</title>
<!-- Node1 -->
<g id="Node000001" class="node">
<title>Node1</title>
<g id="a_Node000001"><a xlink:title="the main function for the program, creates all semaphores, tasks, and runs setup functions">
<polygon fill="#999999" stroke="#666666" points="69.25,-122.25 0,-122.25 0,-100 69.25,-100 69.25,-122.25"/>
<text text-anchor="middle" x="34.62" y="-106.85" font-family="Arial" font-size="12.00">app_main</text>
</a>
</g>
</g>
<!-- Node2 -->
<g id="Node000002" class="node">
<title>Node2</title>
<g id="a_Node000002"><a xlink:href="display__task_8cpp.html#a9f61f48e689e3ceb92895a85cd380e17" target="_top" xlink:title="This is the task that handles driving the display with the menus and values.">
<polygon fill="white" stroke="#666666" points="209,-342.25 126.25,-342.25 126.25,-320 209,-320 209,-342.25"/>
<text text-anchor="middle" x="167.62" y="-326.85" font-family="Arial" font-size="12.00">display_task</text>
</a>
</g>
</g>
<!-- Node1&#45;&gt;Node2 -->
<g id="edge1_Node000001_Node000002" class="edge">
<title>Node1&#45;&gt;Node2</title>
<g id="a_edge1_Node000001_Node000002"><a xlink:title=" ">
<path fill="none" stroke="#63b8ff" d="M42.48,-122.64C63.44,-157.84 126.86,-264.34 154.04,-309.98"/>
<polygon fill="#63b8ff" stroke="#63b8ff" points="150.94,-311.62 159.06,-318.42 156.95,-308.04 150.94,-311.62"/>
</a>
</g>
</g>
<!-- Node20 -->
<g id="Node000020" class="node">
<title>Node20</title>
<g id="a_Node000020"><a xlink:href="esp__now__setup_8cpp.html#a889303b81f10f5b0163bec7442a0bcdc" target="_top" xlink:title="Sets up the ESP&#45;NOW communication, including setting up the callback functions.">
<polygon fill="white" stroke="#666666" points="218,-182.25 117.25,-182.25 117.25,-160 218,-160 218,-182.25"/>
<text text-anchor="middle" x="167.62" y="-166.85" font-family="Arial" font-size="12.00">esp_now_setup</text>
</a>
</g>
</g>
<!-- Node1&#45;&gt;Node20 -->
<g id="edge24_Node000001_Node000020" class="edge">
<title>Node1&#45;&gt;Node20</title>
<g id="a_edge24_Node000001_Node000020"><a xlink:title=" ">
<path fill="none" stroke="#63b8ff" d="M53.41,-122.71C67.17,-131.33 86.91,-142.97 105.25,-151.12 108.79,-152.7 112.49,-154.21 116.24,-155.65"/>
<polygon fill="#63b8ff" stroke="#63b8ff" points="114.86,-158.87 125.46,-158.99 117.25,-152.29 114.86,-158.87"/>
</a>
</g>
</g>
<!-- Node23 -->
<g id="Node000023" class="node">
<title>Node23</title>
<g id="a_Node000023"><a xlink:href="i2c__setup_8cpp.html#a4f4aa63c7d4429490f91bfd80164f309" target="_top" xlink:title="Sets up the I2C bus, with the set pins and port number.">
<polygon fill="white" stroke="#666666" points="201.5,-142.25 133.75,-142.25 133.75,-120 201.5,-120 201.5,-142.25"/>
<text text-anchor="middle" x="167.62" y="-126.85" font-family="Arial" font-size="12.00">i2c_setup</text>
</a>
</g>
</g>
<!-- Node1&#45;&gt;Node23 -->
<g id="edge27_Node000001_Node000023" class="edge">
<title>Node1&#45;&gt;Node23</title>
<g id="a_edge27_Node000001_Node000023"><a xlink:title=" ">
<path fill="none" stroke="#63b8ff" d="M69.7,-116.33C85.87,-118.8 105.39,-121.78 122.66,-124.41"/>
<polygon fill="#63b8ff" stroke="#63b8ff" points="121.71,-127.81 132.13,-125.86 122.77,-120.89 121.71,-127.81"/>
</a>
</g>
</g>
<!-- Node24 -->
<g id="Node000024" class="node">
<title>Node24</title>
<g id="a_Node000024"><a xlink:href="ps4__data__processor__task_8cpp.html#af9a507d2ac984bfa7c03a8684e08ffa4" target="_top" xlink:title="This is the task that processes the ps4 controller data, but does not deal with usb directly.">
<polygon fill="white" stroke="#666666" points="230,-102.25 105.25,-102.25 105.25,-80 230,-80 230,-102.25"/>
<text text-anchor="middle" x="167.62" y="-86.85" font-family="Arial" font-size="12.00">ps4_data_processor</text>
</a>
</g>
</g>
<!-- Node1&#45;&gt;Node24 -->
<g id="edge28_Node000001_Node000024" class="edge">
<title>Node1&#45;&gt;Node24</title>
<g id="a_edge28_Node000001_Node000024"><a xlink:title=" ">
<path fill="none" stroke="#63b8ff" d="M69.7,-105.92C77.1,-104.79 85.21,-103.56 93.47,-102.29"/>
<polygon fill="#63b8ff" stroke="#63b8ff" points="93.94,-105.76 103.3,-100.79 92.89,-98.84 93.94,-105.76"/>
</a>
</g>
</g>
<!-- Node25 -->
<g id="Node000025" class="node">
<title>Node25</title>
<g id="a_Node000025"><a xlink:href="ps4__task_8cpp.html#ae9e84c36416275bb31be0c38c34690ce" target="_top" xlink:title="This is the task that handles the usb for the ps4 controller.">
<polygon fill="white" stroke="#666666" points="199.62,-62.25 135.62,-62.25 135.62,-40 199.62,-40 199.62,-62.25"/>
<text text-anchor="middle" x="167.62" y="-46.85" font-family="Arial" font-size="12.00">ps4_task</text>
</a>
</g>
</g>
<!-- Node1&#45;&gt;Node25 -->
<g id="edge29_Node000001_Node000025" class="edge">
<title>Node1&#45;&gt;Node25</title>
<g id="a_edge29_Node000001_Node000025"><a xlink:title=" ">
<path fill="none" stroke="#63b8ff" d="M53.41,-99.54C67.17,-90.92 86.91,-79.28 105.25,-71.12 111.35,-68.41 117.94,-65.88 124.45,-63.59"/>
<polygon fill="#63b8ff" stroke="#63b8ff" points="125.44,-66.95 133.81,-60.46 123.22,-60.31 125.44,-66.95"/>
</a>
</g>
</g>
<!-- Node26 -->
<g id="Node000026" class="node">
<title>Node26</title>
<g id="a_Node000026"><a xlink:href="send__data__task_8cpp.html#ab9edebb5dc10653223f27304bc558cfb" target="_top" xlink:title="This is the task that sends data to the kicker mainboard.">
<polygon fill="white" stroke="#666666" points="218,-22.25 117.25,-22.25 117.25,0 218,0 218,-22.25"/>
<text text-anchor="middle" x="167.62" y="-6.85" font-family="Arial" font-size="12.00">send_data_task</text>
</a>
</g>
</g>
<!-- Node1&#45;&gt;Node26 -->
<g id="edge30_Node000001_Node000026" class="edge">
<title>Node1&#45;&gt;Node26</title>
<g id="a_edge30_Node000001_Node000026"><a xlink:title=" ">
<path fill="none" stroke="#63b8ff" d="M42.71,-99.57C53.91,-82.25 77.31,-49.62 105.25,-31.12 107.11,-29.9 109.05,-28.74 111.04,-27.64"/>
<polygon fill="#63b8ff" stroke="#63b8ff" points="112.5,-30.83 120.03,-23.37 109.49,-24.5 112.5,-30.83"/>
</a>
</g>
</g>
<!-- Node3 -->
<g id="Node000003" class="node">
<title>Node3</title>
<g id="a_Node000003"><a xlink:href="classssd1306.html#a23098da61ef8c67a1b1f530526dc4507" target="_top" xlink:title="Clears the display buffer.">
<polygon fill="white" stroke="#666666" points="426,-422.25 295.25,-422.25 295.25,-400 426,-400 426,-422.25"/>
<text text-anchor="middle" x="360.62" y="-406.85" font-family="Arial" font-size="12.00">ssd1306::clear_buffer</text>
</a>
</g>
</g>
<!-- Node2&#45;&gt;Node3 -->
<g id="edge2_Node000002_Node000003" class="edge">
<title>Node2&#45;&gt;Node3</title>
<g id="a_edge2_Node000002_Node000003"><a xlink:title=" ">
<path fill="none" stroke="#63b8ff" d="M183.6,-342.64C202.01,-356.23 234.67,-378.56 266,-391.12 271.69,-393.41 277.68,-395.44 283.77,-397.26"/>
<polygon fill="#63b8ff" stroke="#63b8ff" points="282.77,-400.62 293.34,-399.9 284.63,-393.87 282.77,-400.62"/>
</a>
</g>
</g>
<!-- Node4 -->
<g id="Node000004" class="node">
<title>Node4</title>
<g id="a_Node000004"><a xlink:href="classmenu.html#ace9a681a44f014b790e060eb82ad109d" target="_top" xlink:title="This function draws the menu to the display.">
<polygon fill="white" stroke="#666666" points="430.5,-382.25 290.75,-382.25 290.75,-360 430.5,-360 430.5,-382.25"/>
<text text-anchor="middle" x="360.62" y="-366.85" font-family="Arial" font-size="12.00">menu::draw_to_display</text>
</a>
</g>
</g>
<!-- Node2&#45;&gt;Node4 -->
<g id="edge3_Node000002_Node000004" class="edge">
<title>Node2&#45;&gt;Node4</title>
<g id="a_edge3_Node000002_Node000004"><a xlink:title=" ">
<path fill="none" stroke="#63b8ff" d="M209.13,-339.61C233.59,-344.73 265.35,-351.38 293.38,-357.25"/>
<polygon fill="#63b8ff" stroke="#63b8ff" points="292.34,-360.61 302.84,-359.23 293.77,-353.76 292.34,-360.61"/>
</a>
</g>
</g>
<!-- Node5 -->
<g id="Node000005" class="node">
<title>Node5</title>
<g id="a_Node000005"><a xlink:href="classmenu__handler.html#a23740b6e7279e5a39ab4377d1e440813" target="_top" xlink:title="This function will update the menu handler.">
<polygon fill="white" stroke="#666666" points="428.62,-342.25 292.62,-342.25 292.62,-320 428.62,-320 428.62,-342.25"/>
<text text-anchor="middle" x="360.62" y="-326.85" font-family="Arial" font-size="12.00">menu_handler::update</text>
</a>
</g>
</g>
<!-- Node2&#45;&gt;Node5 -->
<g id="edge4_Node000002_Node000005" class="edge">
<title>Node2&#45;&gt;Node5</title>
<g id="a_edge4_Node000002_Node000005"><a xlink:title=" ">
<path fill="none" stroke="#63b8ff" d="M209.13,-331.12C230.12,-331.12 256.48,-331.12 281.25,-331.12"/>
<polygon fill="#63b8ff" stroke="#63b8ff" points="280.98,-334.63 290.98,-331.13 280.98,-327.63 280.98,-334.63"/>
</a>
</g>
</g>
<!-- Node17 -->
<g id="Node000017" class="node">
<title>Node17</title>
<g id="a_Node000017"><a xlink:href="classssd1306.html#a8534651a9db59a3d8c5162b91457e322" target="_top" xlink:title="Writes the buffer to the display.">
<polygon fill="white" stroke="#666666" points="455.25,-222.25 266,-222.25 266,-200 455.25,-200 455.25,-222.25"/>
<text text-anchor="middle" x="360.62" y="-206.85" font-family="Arial" font-size="12.00">ssd1306::write_buffer_SSD1306</text>
</a>
</g>
</g>
<!-- Node2&#45;&gt;Node17 -->
<g id="edge21_Node000002_Node000017" class="edge">
<title>Node2&#45;&gt;Node17</title>
<g id="a_edge21_Node000002_Node000017"><a xlink:title=" ">
<path fill="none" stroke="#63b8ff" d="M186.94,-319.62C220.52,-298.52 292.15,-253.52 331.79,-228.61"/>
<polygon fill="#63b8ff" stroke="#63b8ff" points="333.48,-231.69 340.08,-223.4 329.76,-225.76 333.48,-231.69"/>
</a>
</g>
</g>
<!-- Node6 -->
<g id="Node000006" class="node">
<title>Node6</title>
<g id="a_Node000006"><a xlink:href="classmenu__handler.html#a5359c304e788501a02e8aaf6d289266f" target="_top" xlink:title="This function draws the motor calibration menu to the display.">
<polygon fill="white" stroke="#666666" points="686.12,-580.25 508.88,-580.25 508.88,-558 686.12,-558 686.12,-580.25"/>
<text text-anchor="middle" x="597.5" y="-564.85" font-family="Arial" font-size="12.00">menu_handler::circle_pressed</text>
</a>
</g>
</g>
<!-- Node5&#45;&gt;Node6 -->
<g id="edge5_Node000005_Node000006" class="edge">
<title>Node5&#45;&gt;Node6</title>
<g id="a_edge5_Node000005_Node000006"><a xlink:title=" ">
<path fill="none" stroke="#63b8ff" d="M429.05,-335.46C438.86,-338.76 448.06,-343.74 455.25,-351.12 516.14,-413.62 431.07,-480.94 491.25,-544.12 493.87,-546.88 496.74,-549.35 499.79,-551.58"/>
<polygon fill="#63b8ff" stroke="#63b8ff" points="497.83,-554.48 508.18,-556.72 501.49,-548.51 497.83,-554.48"/>
</a>
</g>
</g>
<!-- Node7 -->
<g id="Node000007" class="node">
<title>Node7</title>
<g id="a_Node000007"><a xlink:href="classmenu__handler.html#af3008a9c0396d06b3b772a31096d31ac" target="_top" xlink:title="This function draws the status menu to the display.">
<polygon fill="white" stroke="#666666" points="948.5,-302.25 739.75,-302.25 739.75,-280 948.5,-280 948.5,-302.25"/>
<text text-anchor="middle" x="844.12" y="-286.85" font-family="Arial" font-size="12.00">menu_handler::draw_status_display</text>
</a>
</g>
</g>
<!-- Node5&#45;&gt;Node7 -->
<g id="edge11_Node000005_Node000007" class="edge">
<title>Node5&#45;&gt;Node7</title>
<g id="a_edge11_Node000005_Node000007"><a xlink:title=" ">
<path fill="none" stroke="#63b8ff" d="M428.81,-335.69C438.65,-338.97 447.92,-343.88 455.25,-351.12 507.07,-402.38 434.33,-465.59 491.25,-511.12 528.12,-540.62 662.38,-533.89 703.75,-511.12 782.1,-468.01 822.58,-360.2 836.94,-313.39"/>
<polygon fill="#63b8ff" stroke="#63b8ff" points="840.21,-314.67 839.67,-304.09 833.49,-312.7 840.21,-314.67"/>
</a>
</g>
</g>
<!-- Node8 -->
<g id="Node000008" class="node">
<title>Node8</title>
<g id="a_Node000008"><a xlink:href="classmenu__handler.html#a1761326e4755be032ead895f0128a241" target="_top" xlink:title="This function will switch which variable can be modified in the menus (if modifiable)">
<polygon fill="white" stroke="#666666" points="703.38,-502.25 491.62,-502.25 491.62,-480 703.38,-480 703.38,-502.25"/>
<text text-anchor="middle" x="597.5" y="-486.85" font-family="Arial" font-size="12.00">menu_handler::dpad_down_pressed</text>
</a>
</g>
</g>
<!-- Node5&#45;&gt;Node8 -->
<g id="edge7_Node000005_Node000008" class="edge">
<title>Node5&#45;&gt;Node8</title>
<g id="a_edge7_Node000005_Node000008"><a xlink:title=" ">
<path fill="none" stroke="#63b8ff" d="M428.86,-336.3C438.58,-339.52 447.8,-344.25 455.25,-351.12 496.18,-388.87 449.89,-433.85 491.25,-471.12 492.04,-471.83 492.84,-472.52 493.66,-473.19"/>
<polygon fill="#63b8ff" stroke="#63b8ff" points="491.5,-475.95 501.73,-478.69 495.44,-470.17 491.5,-475.95"/>
</a>
</g>
</g>
<!-- Node9 -->
<g id="Node000009" class="node">
<title>Node9</title>
<g id="a_Node000009"><a xlink:href="classmenu__handler.html#a217a2b1671785e4d03511d7a62901e0a" target="_top" xlink:title="This function will decrease the value of the selected variable if modifiable)">
<polygon fill="white" stroke="#666666" points="696.62,-462.25 498.38,-462.25 498.38,-440 696.62,-440 696.62,-462.25"/>
<text text-anchor="middle" x="597.5" y="-446.85" font-family="Arial" font-size="12.00">menu_handler::dpad_left_pressed</text>
</a>
</g>
</g>
<!-- Node5&#45;&gt;Node9 -->
<g id="edge8_Node000005_Node000009" class="edge">
<title>Node5&#45;&gt;Node9</title>
<g id="a_edge8_Node000005_Node000009"><a xlink:title=" ">
<path fill="none" stroke="#63b8ff" d="M429.07,-337.48C438.53,-340.58 447.62,-344.96 455.25,-351.12 485.59,-375.62 460.64,-406.98 491.25,-431.12 492.42,-432.05 493.62,-432.93 494.85,-433.78"/>
<polygon fill="#63b8ff" stroke="#63b8ff" points="493.03,-436.78 503.43,-438.82 496.58,-430.74 493.03,-436.78"/>
</a>
</g>
</g>
<!-- Node10 -->
<g id="Node000010" class="node">
<title>Node10</title>
<g id="a_Node000010"><a xlink:href="classmenu__handler.html#a4515106db4f1601ab9dd85d12482de3c" target="_top" xlink:title="This function will increase the value of the selected variable if modifiable)">
<polygon fill="white" stroke="#666666" points="700.38,-422.25 494.62,-422.25 494.62,-400 700.38,-400 700.38,-422.25"/>
<text text-anchor="middle" x="597.5" y="-406.85" font-family="Arial" font-size="12.00">menu_handler::dpad_right_pressed</text>
</a>
</g>
</g>
<!-- Node5&#45;&gt;Node10 -->
<g id="edge9_Node000005_Node000010" class="edge">
<title>Node5&#45;&gt;Node10</title>
<g id="a_edge9_Node000005_Node000010"><a xlink:title=" ">
<path fill="none" stroke="#63b8ff" d="M429.02,-340.14C438.18,-342.89 447.19,-346.47 455.25,-351.12 475.96,-363.1 470.41,-379.39 491.25,-391.12 493.93,-392.63 496.7,-394.03 499.55,-395.33"/>
<polygon fill="#63b8ff" stroke="#63b8ff" points="498.12,-398.52 508.7,-399.01 500.73,-392.03 498.12,-398.52"/>
</a>
</g>
</g>
<!-- Node11 -->
<g id="Node000011" class="node">
<title>Node11</title>
<g id="a_Node000011"><a xlink:href="classmenu__handler.html#af2c07a9bc76fa5db69a736029600b2ce" target="_top" xlink:title="This function will switch which variable can be modified in the menus (if modifiable)">
<polygon fill="white" stroke="#666666" points="695.5,-382.25 499.5,-382.25 499.5,-360 695.5,-360 695.5,-382.25"/>
<text text-anchor="middle" x="597.5" y="-366.85" font-family="Arial" font-size="12.00">menu_handler::dpad_up_pressed</text>
</a>
</g>
</g>
<!-- Node5&#45;&gt;Node11 -->
<g id="edge10_Node000005_Node000011" class="edge">
<title>Node5&#45;&gt;Node11</title>
<g id="a_edge10_Node000005_Node000011"><a xlink:title=" ">
<path fill="none" stroke="#63b8ff" d="M428.93,-342.59C456.46,-347.27 488.5,-352.73 517.16,-357.61"/>
<polygon fill="#63b8ff" stroke="#63b8ff" points="516.43,-361.04 526.88,-359.27 517.61,-354.14 516.43,-361.04"/>
</a>
</g>
</g>
<!-- Node12 -->
<g id="Node000012" class="node">
<title>Node12</title>
<g id="a_Node000012"><a xlink:href="classmenu__handler.html#a501ff5ac964f8ed7775397311071c34f" target="_top" xlink:title="This function draws the servo latched menu to the display.">
<polygon fill="white" stroke="#666666" points="676.75,-342.25 518.25,-342.25 518.25,-320 676.75,-320 676.75,-342.25"/>
<text text-anchor="middle" x="597.5" y="-326.85" font-family="Arial" font-size="12.00">menu_handler::l2_pressed</text>
</a>
</g>
</g>
<!-- Node5&#45;&gt;Node12 -->
<g id="edge12_Node000005_Node000012" class="edge">
<title>Node5&#45;&gt;Node12</title>
<g id="a_edge12_Node000005_Node000012"><a xlink:title=" ">
<path fill="none" stroke="#63b8ff" d="M428.93,-331.12C453.14,-331.12 480.84,-331.12 506.66,-331.12"/>
<polygon fill="#63b8ff" stroke="#63b8ff" points="506.47,-334.63 516.47,-331.13 506.47,-327.63 506.47,-334.63"/>
</a>
</g>
</g>
<!-- Node13 -->
<g id="Node000013" class="node">
<title>Node13</title>
<g id="a_Node000013"><a xlink:href="classmenu__handler.html#af947e2fc4fecee6f2240e9d25db90961" target="_top" xlink:title="This function cycles throught the status, motor speed, and ramped velocity menu menus.">
<polygon fill="white" stroke="#666666" points="691.38,-302.25 503.62,-302.25 503.62,-280 691.38,-280 691.38,-302.25"/>
<text text-anchor="middle" x="597.5" y="-286.85" font-family="Arial" font-size="12.00">menu_handler::options_pressed</text>
</a>
</g>
</g>
<!-- Node5&#45;&gt;Node13 -->
<g id="edge14_Node000005_Node000013" class="edge">
<title>Node5&#45;&gt;Node13</title>
<g id="a_edge14_Node000005_Node000013"><a xlink:title=" ">
<path fill="none" stroke="#63b8ff" d="M428.93,-319.66C456.46,-314.98 488.5,-309.52 517.16,-304.64"/>
<polygon fill="#63b8ff" stroke="#63b8ff" points="517.61,-308.11 526.88,-302.98 516.43,-301.21 517.61,-308.11"/>
</a>
</g>
</g>
<!-- Node14 -->
<g id="Node000014" class="node">
<title>Node14</title>
<g id="a_Node000014"><a xlink:href="classmenu__handler.html#af1b665a4320c38333e0081864ce797ad" target="_top" xlink:title="This function draws the servo released menu to the display.">
<polygon fill="white" stroke="#666666" points="688.38,-262.25 506.62,-262.25 506.62,-240 688.38,-240 688.38,-262.25"/>
<text text-anchor="middle" x="597.5" y="-246.85" font-family="Arial" font-size="12.00">menu_handler::servo_released</text>
</a>
</g>
</g>
<!-- Node5&#45;&gt;Node14 -->
<g id="edge15_Node000005_Node000014" class="edge">
<title>Node5&#45;&gt;Node14</title>
<g id="a_edge15_Node000005_Node000014"><a xlink:title=" ">
<path fill="none" stroke="#63b8ff" d="M382.09,-319.72C407.12,-306.24 451.11,-284.01 491.25,-271.12 497.87,-269 504.81,-267.07 511.82,-265.32"/>
<polygon fill="#63b8ff" stroke="#63b8ff" points="512.47,-268.76 521.41,-263.06 510.87,-261.95 512.47,-268.76"/>
</a>
</g>
</g>
<!-- Node15 -->
<g id="Node000015" class="node">
<title>Node15</title>
<g id="a_Node000015"><a xlink:href="classmenu__handler.html#abb48889d1582aa32c4ef201a3707c21d" target="_top" xlink:title="This function draws the errors clear menu to the display.">
<polygon fill="white" stroke="#666666" points="690.25,-222.25 504.75,-222.25 504.75,-200 690.25,-200 690.25,-222.25"/>
<text text-anchor="middle" x="597.5" y="-206.85" font-family="Arial" font-size="12.00">menu_handler::square_pressed</text>
</a>
</g>
</g>
<!-- Node5&#45;&gt;Node15 -->
<g id="edge17_Node000005_Node000015" class="edge">
<title>Node5&#45;&gt;Node15</title>
<g id="a_edge17_Node000005_Node000015"><a xlink:title=" ">
<path fill="none" stroke="#63b8ff" d="M372.55,-319.7C393.45,-298.56 441.48,-253.5 491.25,-231.12 495.29,-229.31 499.48,-227.66 503.77,-226.16"/>
<polygon fill="#63b8ff" stroke="#63b8ff" points="504.67,-229.55 513.15,-223.19 502.56,-222.87 504.67,-229.55"/>
</a>
</g>
</g>
<!-- Node16 -->
<g id="Node000016" class="node">
<title>Node16</title>
<g id="a_Node000016"><a xlink:href="classmenu__handler.html#a0d65822629745990561b91fc423d3aaa" target="_top" xlink:title="This function draws the motors en/dis abled menu to the display.">
<polygon fill="white" stroke="#666666" points="691.75,-182.25 503.25,-182.25 503.25,-160 691.75,-160 691.75,-182.25"/>
<text text-anchor="middle" x="597.5" y="-166.85" font-family="Arial" font-size="12.00">menu_handler::triangle_pressed</text>
</a>
</g>
</g>
<!-- Node5&#45;&gt;Node16 -->
<g id="edge19_Node000005_Node000016" class="edge">
<title>Node5&#45;&gt;Node16</title>
<g id="a_edge19_Node000005_Node000016"><a xlink:title=" ">
<path fill="none" stroke="#63b8ff" d="M372.37,-319.8C389.85,-301.33 425.5,-263.54 455.25,-231.12 471.42,-213.51 470.41,-202.86 491.25,-191.12 493.93,-189.62 496.7,-188.22 499.55,-186.92"/>
<polygon fill="#63b8ff" stroke="#63b8ff" points="500.73,-190.22 508.7,-183.24 498.12,-183.73 500.73,-190.22"/>
</a>
</g>
</g>
<!-- Node6&#45;&gt;Node7 -->
<g id="edge6_Node000006_Node000007" class="edge">
<title>Node6&#45;&gt;Node7</title>
<g id="a_edge6_Node000006_Node000007"><a xlink:title=" ">
<path fill="none" stroke="#63b8ff" d="M679.02,-557.55C687.88,-554.14 696.35,-549.75 703.75,-544.12 783.41,-483.53 823.58,-363.64 837.41,-313.74"/>
<polygon fill="#63b8ff" stroke="#63b8ff" points="840.78,-314.67 839.98,-304.1 834.02,-312.87 840.78,-314.67"/>
</a>
</g>
</g>
<!-- Node12&#45;&gt;Node7 -->
<g id="edge13_Node000012_Node000007" class="edge">
<title>Node12&#45;&gt;Node7</title>
<g id="a_edge13_Node000012_Node000007"><a xlink:title=" ">
<path fill="none" stroke="#63b8ff" d="M669.58,-319.5C698.23,-314.82 731.45,-309.39 761.11,-304.54"/>
<polygon fill="#63b8ff" stroke="#63b8ff" points="761.49,-308.02 770.79,-302.95 760.36,-301.11 761.49,-308.02"/>
</a>
</g>
</g>
<!-- Node14&#45;&gt;Node7 -->
<g id="edge16_Node000014_Node000007" class="edge">
<title>Node14&#45;&gt;Node7</title>
<g id="a_edge16_Node000014_Node000007"><a xlink:title=" ">
<path fill="none" stroke="#63b8ff" d="M669.58,-262.75C698.23,-267.43 731.45,-272.86 761.11,-277.71"/>
<polygon fill="#63b8ff" stroke="#63b8ff" points="760.36,-281.14 770.79,-279.3 761.49,-274.23 760.36,-281.14"/>
</a>
</g>
</g>
<!-- Node15&#45;&gt;Node7 -->
<g id="edge18_Node000015_Node000007" class="edge">
<title>Node15&#45;&gt;Node7</title>
<g id="a_edge18_Node000015_Node000007"><a xlink:title=" ">
<path fill="none" stroke="#63b8ff" d="M670.91,-222.72C682.01,-225.12 693.26,-227.91 703.75,-231.12 741.33,-242.63 782.45,-261.11 810.21,-274.52"/>
<polygon fill="#63b8ff" stroke="#63b8ff" points="808.64,-277.65 819.17,-278.9 811.72,-271.36 808.64,-277.65"/>
</a>
</g>
</g>
<!-- Node16&#45;&gt;Node7 -->
<g id="edge20_Node000016_Node000007" class="edge">
<title>Node16&#45;&gt;Node7</title>
<g id="a_edge20_Node000016_Node000007"><a xlink:title=" ">
<path fill="none" stroke="#63b8ff" d="M679.18,-182.69C687.63,-185.01 695.97,-187.79 703.75,-191.12 750.55,-211.19 797.02,-249.07 822.71,-272.01"/>
<polygon fill="#63b8ff" stroke="#63b8ff" points="820.33,-274.57 830.08,-278.71 825.03,-269.39 820.33,-274.57"/>
</a>
</g>
</g>
<!-- Node18 -->
<g id="Node000018" class="node">
<title>Node18</title>
<g id="a_Node000018"><a xlink:href="classssd1306.html#ab1436aa90d5c6404a1246e8f740e80b4" target="_top" xlink:title="Sends a command to the SSD1306.">
<polygon fill="white" stroke="#666666" points="703.75,-142.25 491.25,-142.25 491.25,-120 703.75,-120 703.75,-142.25"/>
<text text-anchor="middle" x="597.5" y="-126.85" font-family="Arial" font-size="12.00">ssd1306::send_command_SSD1306</text>
</a>
</g>
</g>
<!-- Node17&#45;&gt;Node18 -->
<g id="edge22_Node000017_Node000018" class="edge">
<title>Node17&#45;&gt;Node18</title>
<g id="a_edge22_Node000017_Node000018"><a xlink:title=" ">
<path fill="none" stroke="#63b8ff" d="M436.81,-199.54C443.25,-197.23 449.49,-194.45 455.25,-191.12 475.96,-179.15 470.41,-162.86 491.25,-151.12 493.93,-149.62 496.7,-148.22 499.55,-146.92"/>
<polygon fill="#63b8ff" stroke="#63b8ff" points="500.73,-150.22 508.7,-143.24 498.12,-143.73 500.73,-150.22"/>
</a>
</g>
</g>
<!-- Node19 -->
<g id="Node000019" class="node">
<title>Node19</title>
<g id="a_Node000019"><a xlink:href="classssd1306.html#a81795f6478fb00df3bca485ba125fb02" target="_top" xlink:title="Sends data to the SSD1306.">
<polygon fill="white" stroke="#666666" points="689.12,-102.25 505.88,-102.25 505.88,-80 689.12,-80 689.12,-102.25"/>
<text text-anchor="middle" x="597.5" y="-86.85" font-family="Arial" font-size="12.00">ssd1306::send_data_SSD1306</text>
</a>
</g>
</g>
<!-- Node17&#45;&gt;Node19 -->
<g id="edge23_Node000017_Node000019" class="edge">
<title>Node17&#45;&gt;Node19</title>
<g id="a_edge23_Node000017_Node000019"><a xlink:title=" ">
<path fill="none" stroke="#63b8ff" d="M441.72,-199.66C446.54,-197.28 451.11,-194.47 455.25,-191.12 485.59,-166.63 460.64,-135.27 491.25,-111.12 492.76,-109.94 494.31,-108.81 495.91,-107.75"/>
<polygon fill="#63b8ff" stroke="#63b8ff" points="497.22,-111.03 504.18,-103.04 493.75,-104.95 497.22,-111.03"/>
</a>
</g>
</g>
<!-- Node21 -->
<g id="Node000021" class="node">
<title>Node21</title>
<g id="a_Node000021"><a xlink:href="esp__now__callback__setup_8cpp.html#a8fc4e863eb9b21ccd56a12c7bfa20e59" target="_top" xlink:title="Callback function for when a message is received.">
<polygon fill="white" stroke="#666666" points="398.25,-182.25 323,-182.25 323,-160 398.25,-160 398.25,-182.25"/>
<text text-anchor="middle" x="360.62" y="-166.85" font-family="Arial" font-size="12.00">on_receive</text>
</a>
</g>
</g>
<!-- Node20&#45;&gt;Node21 -->
<g id="edge25_Node000020_Node000021" class="edge">
<title>Node20&#45;&gt;Node21</title>
<g id="a_edge25_Node000020_Node000021"><a xlink:title=" ">
<path fill="none" stroke="#63b8ff" d="M218.31,-171.12C246.97,-171.12 282.84,-171.12 311.27,-171.12"/>
<polygon fill="#63b8ff" stroke="#63b8ff" points="311.05,-174.63 321.05,-171.13 311.05,-167.63 311.05,-174.63"/>
</a>
</g>
</g>
<!-- Node22 -->
<g id="Node000022" class="node">
<title>Node22</title>
<g id="a_Node000022"><a xlink:href="esp__now__callback__setup_8cpp.html#a16fcfe50c95ced45f0ad21870f6e169a" target="_top" xlink:title="Callback function for when a message is sent.">
<polygon fill="white" stroke="#666666" points="391.88,-142.25 329.38,-142.25 329.38,-120 391.88,-120 391.88,-142.25"/>
<text text-anchor="middle" x="360.62" y="-126.85" font-family="Arial" font-size="12.00">on_send</text>
</a>
</g>
</g>
<!-- Node20&#45;&gt;Node22 -->
<g id="edge26_Node000020_Node000022" class="edge">
<title>Node20&#45;&gt;Node22</title>
<g id="a_edge26_Node000020_Node000022"><a xlink:title=" ">
<path fill="none" stroke="#63b8ff" d="M218.31,-160.72C249.24,-154.24 288.58,-146 317.89,-139.87"/>
<polygon fill="#63b8ff" stroke="#63b8ff" points="318.44,-143.33 327.51,-137.85 317,-136.47 318.44,-143.33"/>
</a>
</g>
</g>
</g>
</svg>

<g id="navigator" transform="translate(0 0)" fill="#404254">
  <rect fill="#f2f5e9" fill-opacity="0.5" stroke="#606060" stroke-width=".5" x="0" y="0" width="60" height="60"/>
  <use id="zoomplus" xlink:href="#zoomPlus" x="17" y="9" onmousedown="handleZoom(evt,'in')"/>
  <use id="zoomminus" xlink:href="#zoomMin" x="42" y="9" onmousedown="handleZoom(evt,'out')"/>
  <use id="reset" xlink:href="#resetDef" x="30" y="36" onmousedown="handleReset()"/>
   <use id="arrowup" xlink:href="#arrowUp" x="0" y="0" onmousedown="handlePan(0,-1)"/>
  <use id="arrowright" xlink:href="#arrowRight" x="0" y="0" onmousedown="handlePan(1,0)"/>
  <use id="arrowdown" xlink:href="#arrowDown" x="0" y="0" onmousedown="handlePan(0,1)"/>
  <use id="arrowleft" xlink:href="#arrowLeft" x="0" y="0" onmousedown="handlePan(-1,0)"/>
</g>
<svg viewBox="0 0 15 15" width="100%" height="30px" preserveAspectRatio="xMaxYMin meet">
 <g id="arrow_out" transform="scale(0.3 0.3)">
  <a xlink:href="main_8cpp_a630544a7f0a2cc40d8a7fefab7e2fe70_cgraph_org.svg" target="_base">
   <rect id="button" ry="5" rx="5" y="6" x="6" height="38" width="38"
        fill="#f2f5e9" fill-opacity="0.5" stroke="#606060" stroke-width="1.0"/>
   <path id="arrow"
     d="M 11.500037,31.436501 C 11.940474,20.09759 22.043105,11.32322 32.158766,21.979434 L 37.068811,17.246167 C 37.068811,17.246167 37.088388,32 37.088388,32 L 22.160133,31.978069 C 22.160133,31.978069 26.997745,27.140456 26.997745,27.140456 C 18.528582,18.264221 13.291696,25.230495 11.500037,31.436501 z"
     style="fill:#404040;"/>
  </a>
 </g>
</svg>

<style type='text/css'>
<![CDATA[
[data-mouse-over-selected='false'] { opacity: 0.7; }
[data-mouse-over-selected='true']  { opacity: 1.0; }
]]>
</style>
<script type="application/ecmascript"><![CDATA[
document.addEventListener('DOMContentLoaded', (event) => {
  highlightEdges();
  highlightAdjacentNodes();
});
]]></script>
</svg>
