<?xml version="1.0" encoding="UTF-8" standalone="no"?>
<!DOCTYPE svg PUBLIC "-//W3C//DTD SVG 1.1//EN"
 "http://www.w3.org/Graphics/SVG/1.1/DTD/svg11.dtd">
<!-- Generated by graphviz version 12.2.1 (20241206.2353)
 -->
<!-- Title: main/main.cpp Pages: 1 -->
<svg width="2548pt" height="438pt"
 viewBox="0.00 0.00 2548.25 438.00" xmlns="http://www.w3.org/2000/svg" xmlns:xlink="http://www.w3.org/1999/xlink">
<g id="graph0" class="graph" transform="scale(1 1) rotate(0) translate(4 434)">
<title>main/main.cpp</title>
<!-- Node1 -->
<g id="Node000001" class="node">
<title>Node1</title>
<g id="a_Node000001"><a xlink:title="This is the file that contains the main function and all other tasks for the robot controller.">
<polygon fill="#999999" stroke="#666666" points="1106.62,-430 1012.62,-430 1012.62,-407.75 1106.62,-407.75 1106.62,-430"/>
<text text-anchor="middle" x="1059.62" y="-414.6" font-family="Arial" font-size="12.00">main/main.cpp</text>
</a>
</g>
</g>
<!-- Node2 -->
<g id="Node000002" class="node">
<title>Node2</title>
<g id="a_Node000002"><a xlink:href="all__includes_8h.html" target="_top" xlink:title="Contains the system wide includes for esp&#45;idf and c++, along with structs and enums.">
<polygon fill="white" stroke="#666666" points="1269.25,-80.5 1128,-80.5 1128,-58.25 1269.25,-58.25 1269.25,-80.5"/>
<text text-anchor="middle" x="1198.62" y="-65.1" font-family="Arial" font-size="12.00">../include/all_includes.h</text>
</a>
</g>
</g>
<!-- Node1&#45;&gt;Node2 -->
<g id="edge1_Node000001_Node000002" class="edge">
<title>Node1&#45;&gt;Node2</title>
<g id="a_edge1_Node000001_Node000002"><a xlink:title=" ">
<path fill="none" stroke="#63b8ff" d="M1106.78,-418.06C1318.81,-418.27 2173.62,-412.37 2173.62,-303.38 2173.62,-303.38 2173.62,-303.38 2173.62,-184.88 2173.62,-95.27 1515.62,-75.61 1280.73,-71.45"/>
<polygon fill="#63b8ff" stroke="#63b8ff" points="1281.1,-67.96 1271.04,-71.29 1280.98,-74.96 1281.1,-67.96"/>
</a>
</g>
</g>
<!-- Node29 -->
<g id="Node000029" class="node">
<title>Node29</title>
<g id="a_Node000029"><a xlink:href="ps4_8h.html" target="_top" xlink:title="This is the file that contains the ps4 controller class (and internal tasks for usb host)">
<polygon fill="white" stroke="#666666" points="1079.25,-197 944,-197 944,-174.75 1079.25,-174.75 1079.25,-197"/>
<text text-anchor="middle" x="1011.62" y="-181.6" font-family="Arial" font-size="12.00">../include/drivers/ps4.h</text>
</a>
</g>
</g>
<!-- Node1&#45;&gt;Node29 -->
<g id="edge28_Node000001_Node000029" class="edge">
<title>Node1&#45;&gt;Node29</title>
<g id="a_edge28_Node000001_Node000029"><a xlink:title=" ">
<path fill="none" stroke="#63b8ff" d="M1057.46,-407.6C1052.06,-381.93 1037.55,-312.87 1025.62,-255.25 1022.35,-239.44 1018.7,-221.57 1015.94,-208.06"/>
<polygon fill="#63b8ff" stroke="#63b8ff" points="1019.43,-207.65 1014,-198.55 1012.57,-209.05 1019.43,-207.65"/>
</a>
</g>
</g>
<!-- Node31 -->
<g id="Node000031" class="node">
<title>Node31</title>
<g id="a_Node000031"><a xlink:href="ssd1306_8h.html" target="_top" xlink:title="Contains the code for ssd1306 display, setting it up, and writing text to it.">
<polygon fill="white" stroke="#666666" points="887.38,-197 725.88,-197 725.88,-174.75 887.38,-174.75 887.38,-197"/>
<text text-anchor="middle" x="806.62" y="-181.6" font-family="Arial" font-size="12.00">../include/drivers/ssd1306.h</text>
</a>
</g>
</g>
<!-- Node1&#45;&gt;Node31 -->
<g id="edge31_Node000001_Node000031" class="edge">
<title>Node1&#45;&gt;Node31</title>
<g id="a_edge31_Node000001_Node000031"><a xlink:title=" ">
<path fill="none" stroke="#63b8ff" d="M1048.1,-407.35C1008.42,-371.12 877.17,-251.29 826.67,-205.18"/>
<polygon fill="#63b8ff" stroke="#63b8ff" points="829.08,-202.64 819.34,-198.48 824.36,-207.81 829.08,-202.64"/>
</a>
</g>
</g>
<!-- Node33 -->
<g id="Node000033" class="node">
<title>Node33</title>
<g id="a_Node000033"><a xlink:href="esp__now__callback__setup_8h.html" target="_top" xlink:title="Contains the callback functions for esp&#45;now.">
<polygon fill="white" stroke="#666666" points="1756,-197 1511.25,-197 1511.25,-174.75 1756,-174.75 1756,-197"/>
<text text-anchor="middle" x="1633.62" y="-181.6" font-family="Arial" font-size="12.00">../include/setup/esp_now_callback_setup.h</text>
</a>
</g>
</g>
<!-- Node1&#45;&gt;Node33 -->
<g id="edge36_Node000001_Node000033" class="edge">
<title>Node1&#45;&gt;Node33</title>
<g id="a_edge36_Node000001_Node000033"><a xlink:title=" ">
<path fill="none" stroke="#63b8ff" d="M1107.11,-413.96C1160.98,-408.53 1250.9,-396.45 1324.62,-371.75 1432.15,-335.73 1457.06,-317.83 1551.62,-255.25 1574.58,-240.06 1598.5,-219.48 1614.53,-204.88"/>
<polygon fill="#63b8ff" stroke="#63b8ff" points="1616.49,-207.84 1621.46,-198.49 1611.74,-202.7 1616.49,-207.84"/>
</a>
</g>
</g>
<!-- Node34 -->
<g id="Node000034" class="node">
<title>Node34</title>
<g id="a_Node000034"><a xlink:href="esp__now__setup_8h.html" target="_top" xlink:title="Contains the code that sets up the ESP&#45;NOW communication.">
<polygon fill="white" stroke="#666666" points="1542.5,-255.25 1348.75,-255.25 1348.75,-233 1542.5,-233 1542.5,-255.25"/>
<text text-anchor="middle" x="1445.62" y="-239.85" font-family="Arial" font-size="12.00">../include/setup/esp_now_setup.h</text>
</a>
</g>
</g>
<!-- Node1&#45;&gt;Node34 -->
<g id="edge39_Node000001_Node000034" class="edge">
<title>Node1&#45;&gt;Node34</title>
<g id="a_edge39_Node000001_Node000034"><a xlink:title=" ">
<path fill="none" stroke="#63b8ff" d="M1106.84,-415.34C1155.48,-411.2 1232.47,-400.32 1292.62,-371.75 1349.39,-344.79 1402.89,-292.03 1428.99,-263.87"/>
<polygon fill="#63b8ff" stroke="#63b8ff" points="1431.31,-266.53 1435.45,-256.78 1426.13,-261.82 1431.31,-266.53"/>
</a>
</g>
</g>
<!-- Node35 -->
<g id="Node000035" class="node">
<title>Node35</title>
<g id="a_Node000035"><a xlink:href="i2c__setup_8h.html" target="_top" xlink:title="Contains the code that sets up the i2c bus.">
<polygon fill="white" stroke="#666666" points="2146,-197 1985.25,-197 1985.25,-174.75 2146,-174.75 2146,-197"/>
<text text-anchor="middle" x="2065.62" y="-181.6" font-family="Arial" font-size="12.00">../include/setup/i2c_setup.h</text>
</a>
</g>
</g>
<!-- Node1&#45;&gt;Node35 -->
<g id="edge43_Node000001_Node000035" class="edge">
<title>Node1&#45;&gt;Node35</title>
<g id="a_edge43_Node000001_Node000035"><a xlink:title=" ">
<path fill="none" stroke="#63b8ff" d="M1107,-414.19C1176.66,-408.25 1310.63,-394.82 1422.62,-371.75 1654,-324.08 1923.56,-235.47 2024.61,-201.06"/>
<polygon fill="#63b8ff" stroke="#63b8ff" points="2025.49,-204.45 2033.82,-197.91 2023.23,-197.83 2025.49,-204.45"/>
</a>
</g>
</g>
<!-- Node36 -->
<g id="Node000036" class="node">
<title>Node36</title>
<g id="a_Node000036"><a xlink:href="changeable__values_8h.html" target="_top" xlink:title="Contains the information for the changeable values class, this class allows a value to be modifed by ...">
<polygon fill="white" stroke="#666666" points="631.12,-197 390.12,-197 390.12,-174.75 631.12,-174.75 631.12,-197"/>
<text text-anchor="middle" x="510.62" y="-181.6" font-family="Arial" font-size="12.00">../include/supporting/changeable_values.h</text>
</a>
</g>
</g>
<!-- Node1&#45;&gt;Node36 -->
<g id="edge46_Node000001_Node000036" class="edge">
<title>Node1&#45;&gt;Node36</title>
<g id="a_edge46_Node000001_Node000036"><a xlink:title=" ">
<path fill="none" stroke="#63b8ff" d="M1012.51,-418C873.54,-417.89 467.3,-413.87 342.62,-371.75 254.1,-341.84 211.74,-337.62 167.62,-255.25 162.96,-246.53 161.12,-240.44 167.62,-233 195.12,-201.56 293.89,-190.67 378.42,-187.27"/>
<polygon fill="#63b8ff" stroke="#63b8ff" points="378.33,-190.78 388.2,-186.92 378.08,-183.78 378.33,-190.78"/>
</a>
</g>
</g>
<!-- Node37 -->
<g id="Node000037" class="node">
<title>Node37</title>
<g id="a_Node000037"><a xlink:href="edge__dector_8h.html" target="_top" xlink:title="This is the file that contains the class for edge detection.">
<polygon fill="white" stroke="#666666" points="378.62,-255.25 176.62,-255.25 176.62,-233 378.62,-233 378.62,-255.25"/>
<text text-anchor="middle" x="277.62" y="-239.85" font-family="Arial" font-size="12.00">../include/supporting/edge_dector.h</text>
</a>
</g>
</g>
<!-- Node1&#45;&gt;Node37 -->
<g id="edge48_Node000001_Node000037" class="edge">
<title>Node1&#45;&gt;Node37</title>
<g id="a_edge48_Node000001_Node000037"><a xlink:title=" ">
<path fill="none" stroke="#63b8ff" d="M1012.14,-417.76C912.49,-416.71 674.65,-410.02 479.62,-371.75 395.87,-355.31 355.85,-374.96 296.62,-313.5 284.6,-301.02 280.06,-281.62 278.4,-266.67"/>
<polygon fill="#63b8ff" stroke="#63b8ff" points="281.91,-266.63 277.69,-256.91 274.92,-267.14 281.91,-266.63"/>
</a>
</g>
</g>
<!-- Node38 -->
<g id="Node000038" class="node">
<title>Node38</title>
<g id="a_Node000038"><a xlink:href="menu__handler_8h.html" target="_top" xlink:title="This is the file that contains the class for switching between menus.">
<polygon fill="white" stroke="#666666" points="517.88,-313.5 305.38,-313.5 305.38,-291.25 517.88,-291.25 517.88,-313.5"/>
<text text-anchor="middle" x="411.62" y="-298.1" font-family="Arial" font-size="12.00">../include/supporting/menu_handler.h</text>
</a>
</g>
</g>
<!-- Node1&#45;&gt;Node38 -->
<g id="edge49_Node000001_Node000038" class="edge">
<title>Node1&#45;&gt;Node38</title>
<g id="a_edge49_Node000001_Node000038"><a xlink:title=" ">
<path fill="none" stroke="#63b8ff" d="M1012.15,-416.33C899.86,-412.24 620.67,-399.54 531.62,-371.75 495.34,-360.42 457.97,-336.9 434.78,-320.64"/>
<polygon fill="#63b8ff" stroke="#63b8ff" points="436.86,-317.82 426.7,-314.83 432.78,-323.51 436.86,-317.82"/>
</a>
</g>
</g>
<!-- Node39 -->
<g id="Node000039" class="node">
<title>Node39</title>
<g id="a_Node000039"><a xlink:href="menus_8h.html" target="_top" xlink:title="This is the file that contains the class for menus.">
<polygon fill="white" stroke="#666666" points="576.5,-255.25 514.75,-255.25 514.75,-233 576.5,-233 576.5,-255.25"/>
<text text-anchor="middle" x="545.62" y="-239.85" font-family="Arial" font-size="12.00">menus.h</text>
</a>
</g>
</g>
<!-- Node1&#45;&gt;Node39 -->
<g id="edge57_Node000001_Node000039" class="edge">
<title>Node1&#45;&gt;Node39</title>
<g id="a_edge57_Node000001_Node000039"><a xlink:title=" ">
<path fill="none" stroke="#63b8ff" d="M1012.34,-416.73C894.85,-413.44 596.77,-402.14 564.62,-371.75 536.2,-344.88 537.88,-295.12 541.7,-266.64"/>
<polygon fill="#63b8ff" stroke="#63b8ff" points="545.12,-267.45 543.21,-257.03 538.2,-266.36 545.12,-267.45"/>
</a>
</g>
</g>
<!-- Node40 -->
<g id="Node000040" class="node">
<title>Node40</title>
<g id="a_Node000040"><a xlink:href="display__task_8h.html" target="_top" xlink:title="This is the file that contains the display task.">
<polygon fill="white" stroke="#666666" points="747.75,-371.75 573.5,-371.75 573.5,-349.5 747.75,-349.5 747.75,-371.75"/>
<text text-anchor="middle" x="660.62" y="-356.35" font-family="Arial" font-size="12.00">../include/tasks/display_task.h</text>
</a>
</g>
</g>
<!-- Node1&#45;&gt;Node40 -->
<g id="edge58_Node000001_Node000040" class="edge">
<title>Node1&#45;&gt;Node40</title>
<g id="a_edge58_Node000001_Node000040"><a xlink:title=" ">
<path fill="none" stroke="#63b8ff" d="M1012.29,-411.2C947.03,-402 828.29,-385.26 746.99,-373.8"/>
<polygon fill="#63b8ff" stroke="#63b8ff" points="747.67,-370.36 737.28,-372.43 746.69,-377.29 747.67,-370.36"/>
</a>
</g>
</g>
<!-- Node41 -->
<g id="Node000041" class="node">
<title>Node41</title>
<g id="a_Node000041"><a xlink:href="ps4__data__processor__task_8h.html" target="_top" xlink:title="This is the file that contains the ps4 data processor task.">
<polygon fill="white" stroke="#666666" points="1456,-197 1211.25,-197 1211.25,-174.75 1456,-174.75 1456,-197"/>
<text text-anchor="middle" x="1333.62" y="-181.6" font-family="Arial" font-size="12.00">../include/tasks/ps4_data_processor_task.h</text>
</a>
</g>
</g>
<!-- Node1&#45;&gt;Node41 -->
<g id="edge65_Node000001_Node000041" class="edge">
<title>Node1&#45;&gt;Node41</title>
<g id="a_edge65_Node000001_Node000041"><a xlink:title=" ">
<path fill="none" stroke="#63b8ff" d="M1072.11,-407.35C1115.26,-370.97 1258.4,-250.29 1312.59,-204.61"/>
<polygon fill="#63b8ff" stroke="#63b8ff" points="1314.52,-207.56 1319.91,-198.44 1310.01,-202.21 1314.52,-207.56"/>
</a>
</g>
</g>
<!-- Node42 -->
<g id="Node000042" class="node">
<title>Node42</title>
<g id="a_Node000042"><a xlink:href="ps4__task_8h.html" target="_top" xlink:title="This is the file that contains the ps4 task.">
<polygon fill="white" stroke="#666666" points="1190.38,-255.25 1034.88,-255.25 1034.88,-233 1190.38,-233 1190.38,-255.25"/>
<text text-anchor="middle" x="1112.62" y="-239.85" font-family="Arial" font-size="12.00">../include/tasks/ps4_task.h</text>
</a>
</g>
</g>
<!-- Node1&#45;&gt;Node42 -->
<g id="edge68_Node000001_Node000042" class="edge">
<title>Node1&#45;&gt;Node42</title>
<g id="a_edge68_Node000001_Node000042"><a xlink:title=" ">
<path fill="none" stroke="#63b8ff" d="M1062.86,-407.33C1071.42,-379.43 1094.77,-303.31 1106.18,-266.13"/>
<polygon fill="#63b8ff" stroke="#63b8ff" points="1109.4,-267.57 1108.99,-256.98 1102.71,-265.51 1109.4,-267.57"/>
</a>
</g>
</g>
<!-- Node43 -->
<g id="Node000043" class="node">
<title>Node43</title>
<g id="a_Node000043"><a xlink:href="send__data__task_8h.html" target="_top" xlink:title=" ">
<polygon fill="white" stroke="#666666" points="1966.75,-197 1774.5,-197 1774.5,-174.75 1966.75,-174.75 1966.75,-197"/>
<text text-anchor="middle" x="1870.62" y="-181.6" font-family="Arial" font-size="12.00">../include/tasks/send_data_task.h</text>
</a>
</g>
</g>
<!-- Node1&#45;&gt;Node43 -->
<g id="edge72_Node000001_Node000043" class="edge">
<title>Node1&#45;&gt;Node43</title>
<g id="a_edge72_Node000001_Node000043"><a xlink:title=" ">
<path fill="none" stroke="#63b8ff" d="M1106.97,-413.89C1168.29,-408.03 1278.17,-395.16 1369.62,-371.75 1551.05,-325.31 1758.1,-237.05 1837.37,-201.88"/>
<polygon fill="#63b8ff" stroke="#63b8ff" points="1838.6,-205.17 1846.31,-197.9 1835.75,-198.77 1838.6,-205.17"/>
</a>
</g>
</g>
<!-- Node3 -->
<g id="Node000003" class="node">
<title>Node3</title>
<g id="a_Node000003"><a xlink:title=" ">
<polygon fill="#e0e0e0" stroke="#999999" points="2540.25,-22.25 2489,-22.25 2489,0 2540.25,0 2540.25,-22.25"/>
<text text-anchor="middle" x="2514.62" y="-6.85" font-family="Arial" font-size="12.00">atomic</text>
</a>
</g>
</g>
<!-- Node2&#45;&gt;Node3 -->
<g id="edge2_Node000002_Node000003" class="edge">
<title>Node2&#45;&gt;Node3</title>
<g id="a_edge2_Node000002_Node000003"><a xlink:title=" ">
<path fill="none" stroke="#63b8ff" d="M1269.71,-68.11C1499.6,-66.89 2222.22,-60.21 2477.71,-22.09"/>
<polygon fill="#63b8ff" stroke="#63b8ff" points="2477.95,-25.59 2487.3,-20.6 2476.88,-18.67 2477.95,-25.59"/>
</a>
</g>
</g>
<!-- Node4 -->
<g id="Node000004" class="node">
<title>Node4</title>
<g id="a_Node000004"><a xlink:title=" ">
<polygon fill="#e0e0e0" stroke="#999999" points="128,-22.25 63.25,-22.25 63.25,0 128,0 128,-22.25"/>
<text text-anchor="middle" x="95.62" y="-6.85" font-family="Arial" font-size="12.00">stdbool.h</text>
</a>
</g>
</g>
<!-- Node2&#45;&gt;Node4 -->
<g id="edge3_Node000002_Node000004" class="edge">
<title>Node2&#45;&gt;Node4</title>
<g id="a_edge3_Node000002_Node000004"><a xlink:title=" ">
<path fill="none" stroke="#63b8ff" d="M1127.76,-67.13C926.01,-63.31 350.09,-50.35 139.44,-22.35"/>
<polygon fill="#63b8ff" stroke="#63b8ff" points="140.07,-18.9 129.68,-20.99 139.11,-25.83 140.07,-18.9"/>
</a>
</g>
</g>
<!-- Node5 -->
<g id="Node000005" class="node">
<title>Node5</title>
<g id="a_Node000005"><a xlink:title=" ">
<polygon fill="#e0e0e0" stroke="#999999" points="197.25,-22.25 146,-22.25 146,0 197.25,0 197.25,-22.25"/>
<text text-anchor="middle" x="171.62" y="-6.85" font-family="Arial" font-size="12.00">stdio.h</text>
</a>
</g>
</g>
<!-- Node2&#45;&gt;Node5 -->
<g id="edge4_Node000002_Node000005" class="edge">
<title>Node2&#45;&gt;Node5</title>
<g id="a_edge4_Node000002_Node000005"><a xlink:title=" ">
<path fill="none" stroke="#63b8ff" d="M1127.78,-67.32C935.29,-64.1 404.5,-52.81 208.75,-22.37"/>
<polygon fill="#63b8ff" stroke="#63b8ff" points="209.39,-18.92 198.95,-20.77 208.26,-25.83 209.39,-18.92"/>
</a>
</g>
</g>
<!-- Node6 -->
<g id="Node000006" class="node">
<title>Node6</title>
<g id="a_Node000006"><a xlink:title=" ">
<polygon fill="#e0e0e0" stroke="#999999" points="270.12,-22.25 215.12,-22.25 215.12,0 270.12,0 270.12,-22.25"/>
<text text-anchor="middle" x="242.62" y="-6.85" font-family="Arial" font-size="12.00">string.h</text>
</a>
</g>
</g>
<!-- Node2&#45;&gt;Node6 -->
<g id="edge5_Node000002_Node000006" class="edge">
<title>Node2&#45;&gt;Node6</title>
<g id="a_edge5_Node000002_Node000006"><a xlink:title=" ">
<path fill="none" stroke="#63b8ff" d="M1127.69,-66.87C945.38,-62.69 462.62,-49.51 281.62,-22.36"/>
<polygon fill="#63b8ff" stroke="#63b8ff" points="282.31,-18.93 271.89,-20.83 281.22,-25.85 282.31,-18.93"/>
</a>
</g>
</g>
<!-- Node7 -->
<g id="Node000007" class="node">
<title>Node7</title>
<g id="a_Node000007"><a xlink:title=" ">
<polygon fill="#e0e0e0" stroke="#999999" points="45.25,-22.25 0,-22.25 0,0 45.25,0 45.25,-22.25"/>
<text text-anchor="middle" x="22.62" y="-6.85" font-family="Arial" font-size="12.00">string</text>
</a>
</g>
</g>
<!-- Node2&#45;&gt;Node7 -->
<g id="edge6_Node000002_Node000007" class="edge">
<title>Node2&#45;&gt;Node7</title>
<g id="a_edge6_Node000002_Node000007"><a xlink:title=" ">
<path fill="none" stroke="#63b8ff" d="M1127.63,-67.98C914.87,-66.41 283.72,-58.87 56.66,-22.06"/>
<polygon fill="#63b8ff" stroke="#63b8ff" points="57.45,-18.64 47.01,-20.42 56.28,-25.55 57.45,-18.64"/>
</a>
</g>
</g>
<!-- Node8 -->
<g id="Node000008" class="node">
<title>Node8</title>
<g id="a_Node000008"><a xlink:title=" ">
<polygon fill="#e0e0e0" stroke="#999999" points="413.38,-22.25 287.88,-22.25 287.88,0 413.38,0 413.38,-22.25"/>
<text text-anchor="middle" x="350.62" y="-6.85" font-family="Arial" font-size="12.00">freertos/FreeRTOS.h</text>
</a>
</g>
</g>
<!-- Node2&#45;&gt;Node8 -->
<g id="edge7_Node000002_Node000008" class="edge">
<title>Node2&#45;&gt;Node8</title>
<g id="a_edge7_Node000002_Node000008"><a xlink:title=" ">
<path fill="none" stroke="#63b8ff" d="M1127.76,-66.12C992.91,-61.41 689.86,-48.77 425.08,-22.53"/>
<polygon fill="#63b8ff" stroke="#63b8ff" points="425.5,-19.06 415.2,-21.54 424.8,-26.02 425.5,-19.06"/>
</a>
</g>
</g>
<!-- Node9 -->
<g id="Node000009" class="node">
<title>Node9</title>
<g id="a_Node000009"><a xlink:title=" ">
<polygon fill="#e0e0e0" stroke="#999999" points="572.25,-22.25 431,-22.25 431,0 572.25,0 572.25,-22.25"/>
<text text-anchor="middle" x="501.62" y="-6.85" font-family="Arial" font-size="12.00">freertos/event_groups.h</text>
</a>
</g>
</g>
<!-- Node2&#45;&gt;Node9 -->
<g id="edge8_Node000002_Node000009" class="edge">
<title>Node2&#45;&gt;Node9</title>
<g id="a_edge8_Node000002_Node000009"><a xlink:title=" ">
<path fill="none" stroke="#63b8ff" d="M1127.73,-64.26C1014.96,-57.45 787.49,-42.66 583.92,-22.43"/>
<polygon fill="#63b8ff" stroke="#63b8ff" points="584.51,-18.98 574.21,-21.46 583.81,-25.94 584.51,-18.98"/>
</a>
</g>
</g>
<!-- Node10 -->
<g id="Node000010" class="node">
<title>Node10</title>
<g id="a_Node000010"><a xlink:title=" ">
<polygon fill="#e0e0e0" stroke="#999999" points="692.75,-22.25 590.5,-22.25 590.5,0 692.75,0 692.75,-22.25"/>
<text text-anchor="middle" x="641.62" y="-6.85" font-family="Arial" font-size="12.00">freertos/queue.h</text>
</a>
</g>
</g>
<!-- Node2&#45;&gt;Node10 -->
<g id="edge9_Node000002_Node000010" class="edge">
<title>Node2&#45;&gt;Node10</title>
<g id="a_edge9_Node000002_Node000010"><a xlink:title=" ">
<path fill="none" stroke="#63b8ff" d="M1127.66,-63.46C1033.32,-56.56 861.16,-42.67 704.24,-22.51"/>
<polygon fill="#63b8ff" stroke="#63b8ff" points="704.84,-19.06 694.48,-21.24 703.94,-26 704.84,-19.06"/>
</a>
</g>
</g>
<!-- Node11 -->
<g id="Node000011" class="node">
<title>Node11</title>
<g id="a_Node000011"><a xlink:title=" ">
<polygon fill="#e0e0e0" stroke="#999999" points="800.75,-22.25 710.5,-22.25 710.5,0 800.75,0 800.75,-22.25"/>
<text text-anchor="middle" x="755.62" y="-6.85" font-family="Arial" font-size="12.00">freertos/task.h</text>
</a>
</g>
</g>
<!-- Node2&#45;&gt;Node11 -->
<g id="edge10_Node000002_Node000011" class="edge">
<title>Node2&#45;&gt;Node11</title>
<g id="a_edge10_Node000002_Node000011"><a xlink:title=" ">
<path fill="none" stroke="#63b8ff" d="M1127.8,-61.42C1052.13,-53.67 928.41,-40.06 812.18,-22.56"/>
<polygon fill="#63b8ff" stroke="#63b8ff" points="812.87,-19.12 802.46,-21.08 811.82,-26.05 812.87,-19.12"/>
</a>
</g>
</g>
<!-- Node12 -->
<g id="Node000012" class="node">
<title>Node12</title>
<g id="a_Node000012"><a xlink:title=" ">
<polygon fill="#e0e0e0" stroke="#999999" points="872.38,-22.25 818.88,-22.25 818.88,0 872.38,0 872.38,-22.25"/>
<text text-anchor="middle" x="845.62" y="-6.85" font-family="Arial" font-size="12.00">errno.h</text>
</a>
</g>
</g>
<!-- Node2&#45;&gt;Node12 -->
<g id="edge11_Node000002_Node000012" class="edge">
<title>Node2&#45;&gt;Node12</title>
<g id="a_edge11_Node000002_Node000012"><a xlink:title=" ">
<path fill="none" stroke="#63b8ff" d="M1127.65,-60.72C1065.68,-53.43 973.17,-41.09 883.82,-22.49"/>
<polygon fill="#63b8ff" stroke="#63b8ff" points="884.65,-19.09 874.14,-20.45 883.2,-25.94 884.65,-19.09"/>
</a>
</g>
</g>
<!-- Node13 -->
<g id="Node000013" class="node">
<title>Node13</title>
<g id="a_Node000013"><a xlink:title=" ">
<polygon fill="#e0e0e0" stroke="#999999" points="956.38,-22.25 890.88,-22.25 890.88,0 956.38,0 956.38,-22.25"/>
<text text-anchor="middle" x="923.62" y="-6.85" font-family="Arial" font-size="12.00">esp_err.h</text>
</a>
</g>
</g>
<!-- Node2&#45;&gt;Node13 -->
<g id="edge12_Node000002_Node000013" class="edge">
<title>Node2&#45;&gt;Node13</title>
<g id="a_edge12_Node000002_Node000013"><a xlink:title=" ">
<path fill="none" stroke="#63b8ff" d="M1141.99,-57.84C1097.22,-49.36 1032.87,-36.83 967.53,-22.6"/>
<polygon fill="#63b8ff" stroke="#63b8ff" points="968.61,-19.26 958.09,-20.54 967.11,-26.09 968.61,-19.26"/>
</a>
</g>
</g>
<!-- Node14 -->
<g id="Node000014" class="node">
<title>Node14</title>
<g id="a_Node000014"><a xlink:title=" ">
<polygon fill="#e0e0e0" stroke="#999999" points="1042.88,-22.25 974.38,-22.25 974.38,0 1042.88,0 1042.88,-22.25"/>
<text text-anchor="middle" x="1008.62" y="-6.85" font-family="Arial" font-size="12.00">esp_log.h</text>
</a>
</g>
</g>
<!-- Node2&#45;&gt;Node14 -->
<g id="edge13_Node000002_Node000014" class="edge">
<title>Node2&#45;&gt;Node14</title>
<g id="a_edge13_Node000002_Node000014"><a xlink:title=" ">
<path fill="none" stroke="#63b8ff" d="M1162.89,-57.79C1132.08,-48.67 1087.42,-35.45 1054.08,-25.58"/>
<polygon fill="#63b8ff" stroke="#63b8ff" points="1055.27,-22.29 1044.69,-22.8 1053.29,-29 1055.27,-22.29"/>
</a>
</g>
</g>
<!-- Node15 -->
<g id="Node000015" class="node">
<title>Node15</title>
<g id="a_Node000015"><a xlink:title=" ">
<polygon fill="#e0e0e0" stroke="#999999" points="1135.88,-22.25 1061.38,-22.25 1061.38,0 1135.88,0 1135.88,-22.25"/>
<text text-anchor="middle" x="1098.62" y="-6.85" font-family="Arial" font-size="12.00">esp_mac.h</text>
</a>
</g>
</g>
<!-- Node2&#45;&gt;Node15 -->
<g id="edge14_Node000002_Node000015" class="edge">
<title>Node2&#45;&gt;Node15</title>
<g id="a_edge14_Node000002_Node000015"><a xlink:title=" ">
<path fill="none" stroke="#63b8ff" d="M1179.82,-57.79C1165.01,-49.47 1144.13,-37.72 1127.25,-28.23"/>
<polygon fill="#63b8ff" stroke="#63b8ff" points="1129.1,-25.25 1118.67,-23.4 1125.67,-31.35 1129.1,-25.25"/>
</a>
</g>
</g>
<!-- Node16 -->
<g id="Node000016" class="node">
<title>Node16</title>
<g id="a_Node000016"><a xlink:title=" ">
<polygon fill="#e0e0e0" stroke="#999999" points="1243.38,-22.25 1153.88,-22.25 1153.88,0 1243.38,0 1243.38,-22.25"/>
<text text-anchor="middle" x="1198.62" y="-6.85" font-family="Arial" font-size="12.00">esp_system.h</text>
</a>
</g>
</g>
<!-- Node2&#45;&gt;Node16 -->
<g id="edge15_Node000002_Node000016" class="edge">
<title>Node2&#45;&gt;Node16</title>
<g id="a_edge15_Node000002_Node000016"><a xlink:title=" ">
<path fill="none" stroke="#63b8ff" d="M1198.62,-57.79C1198.62,-51.12 1198.62,-42.24 1198.62,-34.09"/>
<polygon fill="#63b8ff" stroke="#63b8ff" points="1202.13,-34.17 1198.63,-24.17 1195.13,-34.17 1202.13,-34.17"/>
</a>
</g>
</g>
<!-- Node17 -->
<g id="Node000017" class="node">
<title>Node17</title>
<g id="a_Node000017"><a xlink:title=" ">
<polygon fill="#e0e0e0" stroke="#999999" points="1339.38,-22.25 1261.88,-22.25 1261.88,0 1339.38,0 1339.38,-22.25"/>
<text text-anchor="middle" x="1300.62" y="-6.85" font-family="Arial" font-size="12.00">esp_timer.h</text>
</a>
</g>
</g>
<!-- Node2&#45;&gt;Node17 -->
<g id="edge16_Node000002_Node000017" class="edge">
<title>Node2&#45;&gt;Node17</title>
<g id="a_edge16_Node000002_Node000017"><a xlink:title=" ">
<path fill="none" stroke="#63b8ff" d="M1217.81,-57.79C1233.05,-49.39 1254.61,-37.5 1271.91,-27.96"/>
<polygon fill="#63b8ff" stroke="#63b8ff" points="1273.13,-31.28 1280.2,-23.39 1269.75,-25.15 1273.13,-31.28"/>
</a>
</g>
</g>
<!-- Node18 -->
<g id="Node000018" class="node">
<title>Node18</title>
<g id="a_Node000018"><a xlink:title=" ">
<polygon fill="#e0e0e0" stroke="#999999" points="1425.5,-22.25 1357.75,-22.25 1357.75,0 1425.5,0 1425.5,-22.25"/>
<text text-anchor="middle" x="1391.62" y="-6.85" font-family="Arial" font-size="12.00">esp_crc.h</text>
</a>
</g>
</g>
<!-- Node2&#45;&gt;Node18 -->
<g id="edge17_Node000002_Node000018" class="edge">
<title>Node2&#45;&gt;Node18</title>
<g id="a_edge17_Node000002_Node000018"><a xlink:title=" ">
<path fill="none" stroke="#63b8ff" d="M1234.93,-57.79C1266.52,-48.59 1312.44,-35.2 1346.41,-25.3"/>
<polygon fill="#63b8ff" stroke="#63b8ff" points="1347.36,-28.67 1355.98,-22.51 1345.4,-21.95 1347.36,-28.67"/>
</a>
</g>
</g>
<!-- Node19 -->
<g id="Node000019" class="node">
<title>Node19</title>
<g id="a_Node000019"><a xlink:title=" ">
<polygon fill="#e0e0e0" stroke="#999999" points="1517.88,-22.25 1443.38,-22.25 1443.38,0 1517.88,0 1517.88,-22.25"/>
<text text-anchor="middle" x="1480.62" y="-6.85" font-family="Arial" font-size="12.00">esp_netif.h</text>
</a>
</g>
</g>
<!-- Node2&#45;&gt;Node19 -->
<g id="edge18_Node000002_Node000019" class="edge">
<title>Node2&#45;&gt;Node19</title>
<g id="a_edge18_Node000002_Node000019"><a xlink:title=" ">
<path fill="none" stroke="#63b8ff" d="M1254.97,-57.75C1300.3,-49.11 1365.94,-36.41 1431.96,-22.77"/>
<polygon fill="#63b8ff" stroke="#63b8ff" points="1432.42,-26.25 1441.5,-20.79 1431,-19.4 1432.42,-26.25"/>
</a>
</g>
</g>
<!-- Node20 -->
<g id="Node000020" class="node">
<title>Node20</title>
<g id="a_Node000020"><a xlink:title=" ">
<polygon fill="#e0e0e0" stroke="#999999" points="1605.62,-22.25 1535.62,-22.25 1535.62,0 1605.62,0 1605.62,-22.25"/>
<text text-anchor="middle" x="1570.62" y="-6.85" font-family="Arial" font-size="12.00">esp_wifi.h</text>
</a>
</g>
</g>
<!-- Node2&#45;&gt;Node20 -->
<g id="edge19_Node000002_Node000020" class="edge">
<title>Node2&#45;&gt;Node20</title>
<g id="a_edge19_Node000002_Node000020"><a xlink:title=" ">
<path fill="none" stroke="#63b8ff" d="M1269.61,-60.19C1333.7,-52.39 1430.81,-39.57 1524.08,-22.6"/>
<polygon fill="#63b8ff" stroke="#63b8ff" points="1524.45,-26.09 1533.65,-20.84 1523.18,-19.21 1524.45,-26.09"/>
</a>
</g>
</g>
<!-- Node21 -->
<g id="Node000021" class="node">
<title>Node21</title>
<g id="a_Node000021"><a xlink:title=" ">
<polygon fill="#e0e0e0" stroke="#999999" points="1691.12,-22.25 1624.12,-22.25 1624.12,0 1691.12,0 1691.12,-22.25"/>
<text text-anchor="middle" x="1657.62" y="-6.85" font-family="Arial" font-size="12.00">espnow.h</text>
</a>
</g>
</g>
<!-- Node2&#45;&gt;Node21 -->
<g id="edge20_Node000002_Node000021" class="edge">
<title>Node2&#45;&gt;Node21</title>
<g id="a_edge20_Node000002_Node000021"><a xlink:title=" ">
<path fill="none" stroke="#63b8ff" d="M1269.65,-63.13C1350.41,-56.57 1486.35,-43.76 1612.87,-22.36"/>
<polygon fill="#63b8ff" stroke="#63b8ff" points="1613.15,-25.87 1622.41,-20.73 1611.96,-18.97 1613.15,-25.87"/>
</a>
</g>
</g>
<!-- Node22 -->
<g id="Node000022" class="node">
<title>Node22</title>
<g id="a_Node000022"><a xlink:title=" ">
<polygon fill="#e0e0e0" stroke="#999999" points="1799.75,-22.25 1709.5,-22.25 1709.5,0 1799.75,0 1799.75,-22.25"/>
<text text-anchor="middle" x="1754.62" y="-6.85" font-family="Arial" font-size="12.00">espnow_ctrl.h</text>
</a>
</g>
</g>
<!-- Node2&#45;&gt;Node22 -->
<g id="edge21_Node000002_Node000022" class="edge">
<title>Node2&#45;&gt;Node22</title>
<g id="a_edge21_Node000002_Node000022"><a xlink:title=" ">
<path fill="none" stroke="#63b8ff" d="M1269.53,-63.96C1364.69,-57.57 1539.21,-44.22 1697.63,-22.56"/>
<polygon fill="#63b8ff" stroke="#63b8ff" points="1698.08,-26.03 1707.51,-21.2 1697.12,-19.1 1698.08,-26.03"/>
</a>
</g>
</g>
<!-- Node23 -->
<g id="Node000023" class="node">
<title>Node23</title>
<g id="a_Node000023"><a xlink:title=" ">
<polygon fill="#e0e0e0" stroke="#999999" points="1913.75,-22.25 1817.5,-22.25 1817.5,0 1913.75,0 1913.75,-22.25"/>
<text text-anchor="middle" x="1865.62" y="-6.85" font-family="Arial" font-size="12.00">espnow_utils.h</text>
</a>
</g>
</g>
<!-- Node2&#45;&gt;Node23 -->
<g id="edge22_Node000002_Node000023" class="edge">
<title>Node2&#45;&gt;Node23</title>
<g id="a_edge22_Node000002_Node000023"><a xlink:title=" ">
<path fill="none" stroke="#63b8ff" d="M1269.3,-65.34C1381.08,-60.02 1605.69,-47.29 1805.84,-22.49"/>
<polygon fill="#63b8ff" stroke="#63b8ff" points="1806.18,-25.98 1815.66,-21.26 1805.31,-19.03 1806.18,-25.98"/>
</a>
</g>
</g>
<!-- Node24 -->
<g id="Node000024" class="node">
<title>Node24</title>
<g id="a_Node000024"><a xlink:title=" ">
<polygon fill="#e0e0e0" stroke="#999999" points="2009,-22.25 1932.25,-22.25 1932.25,0 2009,0 2009,-22.25"/>
<text text-anchor="middle" x="1970.62" y="-6.85" font-family="Arial" font-size="12.00">nvs_flash.h</text>
</a>
</g>
</g>
<!-- Node2&#45;&gt;Node24 -->
<g id="edge23_Node000002_Node000024" class="edge">
<title>Node2&#45;&gt;Node24</title>
<g id="a_edge23_Node000002_Node000024"><a xlink:title=" ">
<path fill="none" stroke="#63b8ff" d="M1269.62,-67.24C1397.72,-64.46 1676.15,-55.04 1920.69,-22.31"/>
<polygon fill="#63b8ff" stroke="#63b8ff" points="1921,-25.8 1930.44,-20.99 1920.06,-18.87 1921,-25.8"/>
</a>
</g>
</g>
<!-- Node25 -->
<g id="Node000025" class="node">
<title>Node25</title>
<g id="a_Node000025"><a xlink:title=" ">
<polygon fill="#e0e0e0" stroke="#999999" points="2120.62,-22.25 2026.62,-22.25 2026.62,0 2120.62,0 2120.62,-22.25"/>
<text text-anchor="middle" x="2073.62" y="-6.85" font-family="Arial" font-size="12.00">usb/hid_host.h</text>
</a>
</g>
</g>
<!-- Node2&#45;&gt;Node25 -->
<g id="edge24_Node000002_Node000025" class="edge">
<title>Node2&#45;&gt;Node25</title>
<g id="a_edge24_Node000002_Node000025"><a xlink:title=" ">
<path fill="none" stroke="#63b8ff" d="M1269.54,-67.3C1409.97,-64.55 1733.51,-55.04 2015.07,-22.42"/>
<polygon fill="#63b8ff" stroke="#63b8ff" points="2015.3,-25.91 2024.83,-21.27 2014.49,-18.96 2015.3,-25.91"/>
</a>
</g>
</g>
<!-- Node26 -->
<g id="Node000026" class="node">
<title>Node26</title>
<g id="a_Node000026"><a xlink:title=" ">
<polygon fill="#e0e0e0" stroke="#999999" points="2236.12,-22.25 2139.12,-22.25 2139.12,0 2236.12,0 2236.12,-22.25"/>
<text text-anchor="middle" x="2187.62" y="-6.85" font-family="Arial" font-size="12.00">usb/usb_host.h</text>
</a>
</g>
</g>
<!-- Node2&#45;&gt;Node26 -->
<g id="edge25_Node000002_Node000026" class="edge">
<title>Node2&#45;&gt;Node26</title>
<g id="a_edge25_Node000002_Node000026"><a xlink:title=" ">
<path fill="none" stroke="#63b8ff" d="M1269.52,-67.84C1423.75,-66.03 1801.37,-58.11 2127.54,-22.34"/>
<polygon fill="#63b8ff" stroke="#63b8ff" points="2127.58,-25.86 2137.13,-21.28 2126.81,-18.9 2127.58,-25.86"/>
</a>
</g>
</g>
<!-- Node27 -->
<g id="Node000027" class="node">
<title>Node27</title>
<g id="a_Node000027"><a xlink:title=" ">
<polygon fill="#e0e0e0" stroke="#999999" points="2336.62,-22.25 2254.62,-22.25 2254.62,0 2336.62,0 2336.62,-22.25"/>
<text text-anchor="middle" x="2295.62" y="-6.85" font-family="Arial" font-size="12.00">driver/gpio.h</text>
</a>
</g>
</g>
<!-- Node2&#45;&gt;Node27 -->
<g id="edge26_Node000002_Node000027" class="edge">
<title>Node2&#45;&gt;Node27</title>
<g id="a_edge26_Node000002_Node000027"><a xlink:title=" ">
<path fill="none" stroke="#63b8ff" d="M1269.72,-69.05C1437.6,-69.82 1871.79,-67.03 2242.99,-22.39"/>
<polygon fill="#63b8ff" stroke="#63b8ff" points="2243.23,-25.89 2252.73,-21.21 2242.38,-18.94 2243.23,-25.89"/>
</a>
</g>
</g>
<!-- Node28 -->
<g id="Node000028" class="node">
<title>Node28</title>
<g id="a_Node000028"><a xlink:title=" ">
<polygon fill="#e0e0e0" stroke="#999999" points="2470.88,-22.25 2354.38,-22.25 2354.38,0 2470.88,0 2470.88,-22.25"/>
<text text-anchor="middle" x="2412.62" y="-6.85" font-family="Arial" font-size="12.00">driver/i2c_master.h</text>
</a>
</g>
</g>
<!-- Node2&#45;&gt;Node28 -->
<g id="edge27_Node000002_Node000028" class="edge">
<title>Node2&#45;&gt;Node28</title>
<g id="a_edge27_Node000002_Node000028"><a xlink:title=" ">
<path fill="none" stroke="#63b8ff" d="M1269.62,-68.23C1448.23,-67.27 1930.84,-61.08 2342.95,-22.41"/>
<polygon fill="#63b8ff" stroke="#63b8ff" points="2343.07,-25.91 2352.7,-21.48 2342.41,-18.94 2343.07,-25.91"/>
</a>
</g>
</g>
<!-- Node29&#45;&gt;Node2 -->
<g id="edge29_Node000029_Node000002" class="edge">
<title>Node29&#45;&gt;Node2</title>
<g id="a_edge29_Node000029_Node000002"><a xlink:title=" ">
<path fill="none" stroke="#63b8ff" d="M1022.01,-174.54C1036.89,-160.14 1065.57,-133.87 1093.62,-116.5 1113.76,-104.03 1137.86,-93.19 1157.89,-85.15"/>
<polygon fill="#63b8ff" stroke="#63b8ff" points="1159.1,-88.44 1167.14,-81.54 1156.55,-81.92 1159.1,-88.44"/>
</a>
</g>
</g>
<!-- Node30 -->
<g id="Node000030" class="node">
<title>Node30</title>
<g id="a_Node000030"><a xlink:href="pinout_8h.html" target="_top" xlink:title="This is the file that contains the pinout and other configuration information.">
<polygon fill="white" stroke="#666666" points="1210.5,-138.75 1142.75,-138.75 1142.75,-116.5 1210.5,-116.5 1210.5,-138.75"/>
<text text-anchor="middle" x="1176.62" y="-123.35" font-family="Arial" font-size="12.00">../pinout.h</text>
</a>
</g>
</g>
<!-- Node29&#45;&gt;Node30 -->
<g id="edge30_Node000029_Node000030" class="edge">
<title>Node29&#45;&gt;Node30</title>
<g id="a_edge30_Node000029_Node000030"><a xlink:title=" ">
<path fill="none" stroke="#63b8ff" d="M1042.66,-174.29C1068.82,-165.38 1106.47,-152.54 1135.2,-142.75"/>
<polygon fill="#63b8ff" stroke="#63b8ff" points="1135.96,-146.19 1144.3,-139.65 1133.7,-139.56 1135.96,-146.19"/>
</a>
</g>
</g>
<!-- Node31&#45;&gt;Node2 -->
<g id="edge32_Node000031_Node000002" class="edge">
<title>Node31&#45;&gt;Node2</title>
<g id="a_edge32_Node000031_Node000002"><a xlink:title=" ">
<path fill="none" stroke="#63b8ff" d="M814.81,-174.48C827.65,-159 854.13,-130.23 883.62,-116.5 923.8,-97.79 1037.25,-84.42 1116.41,-77.05"/>
<polygon fill="#63b8ff" stroke="#63b8ff" points="1116.68,-80.54 1126.32,-76.14 1116.04,-73.56 1116.68,-80.54"/>
</a>
</g>
</g>
<!-- Node31&#45;&gt;Node30 -->
<g id="edge33_Node000031_Node000030" class="edge">
<title>Node31&#45;&gt;Node30</title>
<g id="a_edge33_Node000031_Node000030"><a xlink:title=" ">
<path fill="none" stroke="#63b8ff" d="M876.22,-174.29C950.91,-162.94 1067.38,-145.23 1131.14,-135.54"/>
<polygon fill="#63b8ff" stroke="#63b8ff" points="1131.55,-139.02 1140.91,-134.05 1130.5,-132.1 1131.55,-139.02"/>
</a>
</g>
</g>
<!-- Node32 -->
<g id="Node000032" class="node">
<title>Node32</title>
<g id="a_Node000032"><a xlink:href="font_8h.html" target="_top" xlink:title="This file contains the class for the 12x16 font class.">
<polygon fill="white" stroke="#666666" points="1006.38,-138.75 892.88,-138.75 892.88,-116.5 1006.38,-116.5 1006.38,-138.75"/>
<text text-anchor="middle" x="949.62" y="-123.35" font-family="Arial" font-size="12.00">../supporting/font.h</text>
</a>
</g>
</g>
<!-- Node31&#45;&gt;Node32 -->
<g id="edge34_Node000031_Node000032" class="edge">
<title>Node31&#45;&gt;Node32</title>
<g id="a_edge34_Node000031_Node000032"><a xlink:title=" ">
<path fill="none" stroke="#63b8ff" d="M833.52,-174.29C855.79,-165.53 887.68,-152.99 912.4,-143.27"/>
<polygon fill="#63b8ff" stroke="#63b8ff" points="913.42,-146.63 921.44,-139.71 910.85,-140.12 913.42,-146.63"/>
</a>
</g>
</g>
<!-- Node32&#45;&gt;Node2 -->
<g id="edge35_Node000032_Node000002" class="edge">
<title>Node32&#45;&gt;Node2</title>
<g id="a_edge35_Node000032_Node000002"><a xlink:title=" ">
<path fill="none" stroke="#63b8ff" d="M996.46,-116.04C1037.41,-106.79 1097.03,-93.33 1140.92,-83.41"/>
<polygon fill="#63b8ff" stroke="#63b8ff" points="1141.54,-86.86 1150.52,-81.24 1140,-80.03 1141.54,-86.86"/>
</a>
</g>
</g>
<!-- Node33&#45;&gt;Node2 -->
<g id="edge37_Node000033_Node000002" class="edge">
<title>Node33&#45;&gt;Node2</title>
<g id="a_edge37_Node000033_Node000002"><a xlink:title=" ">
<path fill="none" stroke="#63b8ff" d="M1617.18,-174.46C1592.31,-159.22 1543.19,-131.07 1497.62,-116.5 1426.27,-93.69 1341.62,-81.98 1280.63,-76.08"/>
<polygon fill="#63b8ff" stroke="#63b8ff" points="1281.32,-72.63 1271.04,-75.18 1280.67,-79.6 1281.32,-72.63"/>
</a>
</g>
</g>
<!-- Node33&#45;&gt;Node30 -->
<g id="edge38_Node000033_Node000030" class="edge">
<title>Node33&#45;&gt;Node30</title>
<g id="a_edge38_Node000033_Node000030"><a xlink:title=" ">
<path fill="none" stroke="#63b8ff" d="M1547.4,-174.26C1450.71,-162.36 1297.57,-143.51 1221.94,-134.2"/>
<polygon fill="#63b8ff" stroke="#63b8ff" points="1222.78,-130.78 1212.43,-133.03 1221.93,-137.73 1222.78,-130.78"/>
</a>
</g>
</g>
<!-- Node34&#45;&gt;Node2 -->
<g id="edge40_Node000034_Node000002" class="edge">
<title>Node34&#45;&gt;Node2</title>
<g id="a_edge40_Node000034_Node000002"><a xlink:title=" ">
<path fill="none" stroke="#63b8ff" d="M1453.61,-232.52C1463.28,-218.27 1476.84,-192.67 1464.62,-174.75 1423.78,-114.85 1342.87,-89.32 1280.96,-78.45"/>
<polygon fill="#63b8ff" stroke="#63b8ff" points="1281.56,-75 1271.13,-76.83 1280.43,-81.91 1281.56,-75"/>
</a>
</g>
</g>
<!-- Node34&#45;&gt;Node30 -->
<g id="edge41_Node000034_Node000030" class="edge">
<title>Node34&#45;&gt;Node30</title>
<g id="a_edge41_Node000034_Node000030"><a xlink:title=" ">
<path fill="none" stroke="#63b8ff" d="M1348.33,-234.35C1290.71,-227.34 1224.76,-215.55 1202.62,-197 1188.8,-185.41 1182.31,-165.64 1179.28,-150.32"/>
<polygon fill="#63b8ff" stroke="#63b8ff" points="1182.78,-150.06 1177.75,-140.74 1175.87,-151.16 1182.78,-150.06"/>
</a>
</g>
</g>
<!-- Node34&#45;&gt;Node33 -->
<g id="edge42_Node000034_Node000033" class="edge">
<title>Node34&#45;&gt;Node33</title>
<g id="a_edge42_Node000034_Node000033"><a xlink:title=" ">
<path fill="none" stroke="#63b8ff" d="M1480.99,-232.54C1511.18,-223.51 1554.82,-210.45 1587.72,-200.61"/>
<polygon fill="#63b8ff" stroke="#63b8ff" points="1588.4,-204.06 1596.97,-197.84 1586.39,-197.36 1588.4,-204.06"/>
</a>
</g>
</g>
<!-- Node35&#45;&gt;Node2 -->
<g id="edge44_Node000035_Node000002" class="edge">
<title>Node35&#45;&gt;Node2</title>
<g id="a_edge44_Node000035_Node000002"><a xlink:title=" ">
<path fill="none" stroke="#63b8ff" d="M1999.74,-174.28C1910.86,-160.16 1747.52,-134.83 1607.62,-116.5 1494.62,-101.7 1363.66,-87.44 1280.99,-78.79"/>
<polygon fill="#63b8ff" stroke="#63b8ff" points="1281.47,-75.32 1271.16,-77.76 1280.74,-82.28 1281.47,-75.32"/>
</a>
</g>
</g>
<!-- Node35&#45;&gt;Node30 -->
<g id="edge45_Node000035_Node000030" class="edge">
<title>Node35&#45;&gt;Node30</title>
<g id="a_edge45_Node000035_Node000030"><a xlink:title=" ">
<path fill="none" stroke="#63b8ff" d="M1985.18,-175.61C1981.95,-175.3 1978.76,-175.02 1975.62,-174.75 1689.57,-150.42 1344.78,-135.32 1222.41,-130.4"/>
<polygon fill="#63b8ff" stroke="#63b8ff" points="1222.58,-126.9 1212.45,-130 1222.3,-133.89 1222.58,-126.9"/>
</a>
</g>
</g>
<!-- Node36&#45;&gt;Node2 -->
<g id="edge47_Node000036_Node000002" class="edge">
<title>Node36&#45;&gt;Node2</title>
<g id="a_edge47_Node000036_Node000002"><a xlink:title=" ">
<path fill="none" stroke="#63b8ff" d="M526.41,-174.3C550.79,-158.59 599.62,-129.53 645.62,-116.5 731.81,-92.09 984.57,-78.8 1116.44,-73.36"/>
<polygon fill="#63b8ff" stroke="#63b8ff" points="1116.29,-76.87 1126.14,-72.97 1116.01,-69.88 1116.29,-76.87"/>
</a>
</g>
</g>
<!-- Node38&#45;&gt;Node2 -->
<g id="edge50_Node000038_Node000002" class="edge">
<title>Node38&#45;&gt;Node2</title>
<g id="a_edge50_Node000038_Node000002"><a xlink:title=" ">
<path fill="none" stroke="#63b8ff" d="M407.42,-290.93C400.21,-272.4 385.76,-232.36 380.62,-197 379.2,-187.21 374.65,-182.63 380.62,-174.75 438.33,-98.56 493.51,-133.12 587.62,-116.5 774.93,-83.42 998.64,-74.05 1116.54,-71.4"/>
<polygon fill="#63b8ff" stroke="#63b8ff" points="1116.52,-74.9 1126.44,-71.19 1116.37,-67.91 1116.52,-74.9"/>
</a>
</g>
</g>
<!-- Node38&#45;&gt;Node37 -->
<g id="edge51_Node000038_Node000037" class="edge">
<title>Node38&#45;&gt;Node37</title>
<g id="a_edge51_Node000038_Node000037"><a xlink:title=" ">
<path fill="none" stroke="#63b8ff" d="M386.42,-290.79C365.74,-282.11 336.21,-269.72 313.13,-260.03"/>
<polygon fill="#63b8ff" stroke="#63b8ff" points="314.69,-256.89 304.11,-256.24 311.98,-263.34 314.69,-256.89"/>
</a>
</g>
</g>
<!-- Node38&#45;&gt;Node39 -->
<g id="edge52_Node000038_Node000039" class="edge">
<title>Node38&#45;&gt;Node39</title>
<g id="a_edge52_Node000038_Node000039"><a xlink:title=" ">
<path fill="none" stroke="#63b8ff" d="M436.83,-290.79C457.51,-282.11 487.04,-269.72 510.12,-260.03"/>
<polygon fill="#63b8ff" stroke="#63b8ff" points="511.27,-263.34 519.14,-256.24 508.56,-256.89 511.27,-263.34"/>
</a>
</g>
</g>
<!-- Node39&#45;&gt;Node7 -->
<g id="edge56_Node000039_Node000007" class="edge">
<title>Node39&#45;&gt;Node7</title>
<g id="a_edge56_Node000039_Node000007"><a xlink:title=" ">
<path fill="none" stroke="#63b8ff" d="M514.29,-236.38C480.64,-228.67 425.88,-214.8 380.62,-197 251.66,-146.29 107.91,-63.35 49.48,-28.43"/>
<polygon fill="#63b8ff" stroke="#63b8ff" points="51.58,-25.61 41.2,-23.46 47.97,-31.61 51.58,-25.61"/>
</a>
</g>
</g>
<!-- Node39&#45;&gt;Node30 -->
<g id="edge54_Node000039_Node000030" class="edge">
<title>Node39&#45;&gt;Node30</title>
<g id="a_edge54_Node000039_Node000030"><a xlink:title=" ">
<path fill="none" stroke="#63b8ff" d="M566.58,-232.5C598.21,-217 660.42,-188.51 716.62,-174.75 794.52,-155.67 1031.11,-138.27 1131.17,-131.56"/>
<polygon fill="#63b8ff" stroke="#63b8ff" points="1131.14,-135.07 1140.88,-130.91 1130.67,-128.08 1131.14,-135.07"/>
</a>
</g>
</g>
<!-- Node39&#45;&gt;Node31 -->
<g id="edge53_Node000039_Node000031" class="edge">
<title>Node39&#45;&gt;Node31</title>
<g id="a_edge53_Node000039_Node000031"><a xlink:title=" ">
<path fill="none" stroke="#63b8ff" d="M576.85,-236.4C618.66,-227.38 693.7,-211.21 746.63,-199.8"/>
<polygon fill="#63b8ff" stroke="#63b8ff" points="747.05,-203.29 756.09,-197.77 745.58,-196.45 747.05,-203.29"/>
</a>
</g>
</g>
<!-- Node39&#45;&gt;Node36 -->
<g id="edge55_Node000039_Node000036" class="edge">
<title>Node39&#45;&gt;Node36</title>
<g id="a_edge55_Node000039_Node000036"><a xlink:title=" ">
<path fill="none" stroke="#63b8ff" d="M539.04,-232.54C534.59,-225.4 528.58,-215.73 523.23,-207.13"/>
<polygon fill="#63b8ff" stroke="#63b8ff" points="526.23,-205.33 517.98,-198.69 520.29,-209.03 526.23,-205.33"/>
</a>
</g>
</g>
<!-- Node40&#45;&gt;Node2 -->
<g id="edge59_Node000040_Node000002" class="edge">
<title>Node40&#45;&gt;Node2</title>
<g id="a_edge59_Node000040_Node000002"><a xlink:title=" ">
<path fill="none" stroke="#63b8ff" d="M660.47,-349.21C660.19,-329.09 659.62,-283.49 659.62,-245.12 659.62,-245.12 659.62,-245.12 659.62,-184.88 659.62,-92.69 965.12,-74.41 1116.13,-71.01"/>
<polygon fill="#63b8ff" stroke="#63b8ff" points="1116.17,-74.51 1126.09,-70.8 1116.02,-67.51 1116.17,-74.51"/>
</a>
</g>
</g>
<!-- Node40&#45;&gt;Node30 -->
<g id="edge61_Node000040_Node000030" class="edge">
<title>Node40&#45;&gt;Node30</title>
<g id="a_edge61_Node000040_Node000030"><a xlink:title=" ">
<path fill="none" stroke="#63b8ff" d="M675.4,-349.15C728.16,-311.78 905.78,-186.64 934.62,-174.75 999.79,-147.89 1081.33,-136.5 1131.17,-131.79"/>
<polygon fill="#63b8ff" stroke="#63b8ff" points="1131.36,-135.29 1141.01,-130.92 1130.74,-128.31 1131.36,-135.29"/>
</a>
</g>
</g>
<!-- Node40&#45;&gt;Node31 -->
<g id="edge60_Node000040_Node000031" class="edge">
<title>Node40&#45;&gt;Node31</title>
<g id="a_edge60_Node000040_Node000031"><a xlink:title=" ">
<path fill="none" stroke="#63b8ff" d="M669.54,-349.08C693.52,-320.7 759.69,-242.41 790.48,-205.98"/>
<polygon fill="#63b8ff" stroke="#63b8ff" points="793.07,-208.34 796.85,-198.44 787.72,-203.82 793.07,-208.34"/>
</a>
</g>
</g>
<!-- Node40&#45;&gt;Node36 -->
<g id="edge62_Node000040_Node000036" class="edge">
<title>Node40&#45;&gt;Node36</title>
<g id="a_edge62_Node000040_Node000036"><a xlink:title=" ">
<path fill="none" stroke="#63b8ff" d="M656.57,-349.33C647.08,-326.23 621.46,-269.43 585.62,-233 573.64,-220.81 557.81,-210.47 543.78,-202.68"/>
<polygon fill="#63b8ff" stroke="#63b8ff" points="545.78,-199.78 535.3,-198.19 542.5,-205.97 545.78,-199.78"/>
</a>
</g>
</g>
<!-- Node40&#45;&gt;Node38 -->
<g id="edge63_Node000040_Node000038" class="edge">
<title>Node40&#45;&gt;Node38</title>
<g id="a_edge63_Node000040_Node000038"><a xlink:title=" ">
<path fill="none" stroke="#63b8ff" d="M613.79,-349.04C572.84,-339.79 513.22,-326.33 469.33,-316.41"/>
<polygon fill="#63b8ff" stroke="#63b8ff" points="470.25,-313.03 459.73,-314.24 468.71,-319.86 470.25,-313.03"/>
</a>
</g>
</g>
<!-- Node40&#45;&gt;Node39 -->
<g id="edge64_Node000040_Node000039" class="edge">
<title>Node40&#45;&gt;Node39</title>
<g id="a_edge64_Node000040_Node000039"><a xlink:title=" ">
<path fill="none" stroke="#63b8ff" d="M647.61,-349.04C636.64,-339.94 620.69,-326.31 607.62,-313.5 591.29,-297.49 573.89,-278.08 561.7,-264.03"/>
<polygon fill="#63b8ff" stroke="#63b8ff" points="564.67,-262.11 555.49,-256.82 559.36,-266.68 564.67,-262.11"/>
</a>
</g>
</g>
<!-- Node41&#45;&gt;Node2 -->
<g id="edge66_Node000041_Node000002" class="edge">
<title>Node41&#45;&gt;Node2</title>
<g id="a_edge66_Node000041_Node000002"><a xlink:title=" ">
<path fill="none" stroke="#63b8ff" d="M1321.17,-174.31C1298.06,-154.71 1248.33,-112.53 1219.83,-88.36"/>
<polygon fill="#63b8ff" stroke="#63b8ff" points="1222.1,-85.69 1212.21,-81.9 1217.57,-91.03 1222.1,-85.69"/>
</a>
</g>
</g>
<!-- Node41&#45;&gt;Node30 -->
<g id="edge67_Node000041_Node000030" class="edge">
<title>Node41&#45;&gt;Node30</title>
<g id="a_edge67_Node000041_Node000030"><a xlink:title=" ">
<path fill="none" stroke="#63b8ff" d="M1304.09,-174.29C1279.42,-165.46 1244.01,-152.77 1216.77,-143.01"/>
<polygon fill="#63b8ff" stroke="#63b8ff" points="1218.04,-139.75 1207.45,-139.67 1215.68,-146.34 1218.04,-139.75"/>
</a>
</g>
</g>
<!-- Node42&#45;&gt;Node2 -->
<g id="edge69_Node000042_Node000002" class="edge">
<title>Node42&#45;&gt;Node2</title>
<g id="a_edge69_Node000042_Node000002"><a xlink:title=" ">
<path fill="none" stroke="#63b8ff" d="M1111.79,-232.68C1110.46,-209.76 1110.11,-154.09 1133.62,-116.5 1141.36,-104.13 1153.76,-94.12 1165.66,-86.63"/>
<polygon fill="#63b8ff" stroke="#63b8ff" points="1167.25,-89.76 1174.12,-81.7 1163.72,-83.71 1167.25,-89.76"/>
</a>
</g>
</g>
<!-- Node42&#45;&gt;Node29 -->
<g id="edge70_Node000042_Node000029" class="edge">
<title>Node42&#45;&gt;Node29</title>
<g id="a_edge70_Node000042_Node000029"><a xlink:title=" ">
<path fill="none" stroke="#63b8ff" d="M1093.63,-232.54C1078.67,-224.22 1057.58,-212.47 1040.54,-202.98"/>
<polygon fill="#63b8ff" stroke="#63b8ff" points="1042.3,-199.95 1031.86,-198.14 1038.89,-206.07 1042.3,-199.95"/>
</a>
</g>
</g>
<!-- Node42&#45;&gt;Node30 -->
<g id="edge71_Node000042_Node000030" class="edge">
<title>Node42&#45;&gt;Node30</title>
<g id="a_edge71_Node000042_Node000030"><a xlink:title=" ">
<path fill="none" stroke="#63b8ff" d="M1118.53,-232.56C1129.1,-213.64 1151.44,-173.69 1165.13,-149.2"/>
<polygon fill="#63b8ff" stroke="#63b8ff" points="1168.17,-150.92 1169.99,-140.49 1162.06,-147.51 1168.17,-150.92"/>
</a>
</g>
</g>
<!-- Node43&#45;&gt;Node2 -->
<g id="edge73_Node000043_Node000002" class="edge">
<title>Node43&#45;&gt;Node2</title>
<g id="a_edge73_Node000043_Node000002"><a xlink:title=" ">
<path fill="none" stroke="#63b8ff" d="M1824.35,-174.3C1760.37,-159.92 1641.16,-133.99 1538.62,-116.5 1450.88,-101.53 1349.72,-88.32 1280.71,-79.92"/>
<polygon fill="#63b8ff" stroke="#63b8ff" points="1281.34,-76.47 1271,-78.74 1280.5,-83.42 1281.34,-76.47"/>
</a>
</g>
</g>
<!-- Node43&#45;&gt;Node30 -->
<g id="edge74_Node000043_Node000030" class="edge">
<title>Node43&#45;&gt;Node30</title>
<g id="a_edge74_Node000043_Node000030"><a xlink:title=" ">
<path fill="none" stroke="#63b8ff" d="M1774.15,-175.59C1770.94,-175.3 1767.76,-175.02 1764.62,-174.75 1562.44,-157.17 1320.89,-139.16 1222.1,-131.93"/>
<polygon fill="#63b8ff" stroke="#63b8ff" points="1222.51,-128.45 1212.29,-131.21 1222,-135.43 1222.51,-128.45"/>
</a>
</g>
</g>
</g>
</svg>
