<?xml version="1.0" encoding="UTF-8" standalone="no"?>
<!DOCTYPE svg PUBLIC "-//W3C//DTD SVG 1.1//EN"
 "http://www.w3.org/Graphics/SVG/1.1/DTD/svg11.dtd">
<!-- Generated by graphviz version 12.2.1 (20241206.2353)
 -->
<!-- Title: include/supporting/menu_handler.h Pages: 1 -->
<svg width="2548pt" height="322pt"
 viewBox="0.00 0.00 2548.25 321.50" xmlns="http://www.w3.org/2000/svg" xmlns:xlink="http://www.w3.org/1999/xlink">
<g id="graph0" class="graph" transform="scale(1 1) rotate(0) translate(4 317.5)">
<title>include/supporting/menu_handler.h</title>
<!-- Node1 -->
<g id="Node000001" class="node">
<title>Node1</title>
<g id="a_Node000001"><a xlink:title="This is the file that contains the class for switching between menus.">
<polygon fill="#999999" stroke="#666666" points="1429.38,-313.5 1225.88,-313.5 1225.88,-291.25 1429.38,-291.25 1429.38,-313.5"/>
<text text-anchor="middle" x="1327.62" y="-298.1" font-family="Arial" font-size="12.00">include/supporting/menu_handler.h</text>
</a>
</g>
</g>
<!-- Node2 -->
<g id="Node000002" class="node">
<title>Node2</title>
<g id="a_Node000002"><a xlink:href="all__includes_8h.html" target="_top" xlink:title="Contains the system wide includes for esp&#45;idf and c++, along with structs and enums.">
<polygon fill="white" stroke="#666666" points="1356.25,-80.5 1257,-80.5 1257,-58.25 1356.25,-58.25 1356.25,-80.5"/>
<text text-anchor="middle" x="1306.62" y="-65.1" font-family="Arial" font-size="12.00">../all_includes.h</text>
</a>
</g>
</g>
<!-- Node1&#45;&gt;Node2 -->
<g id="edge1_Node000001_Node000002" class="edge">
<title>Node1&#45;&gt;Node2</title>
<g id="a_edge1_Node000001_Node000002"><a xlink:title=" ">
<path fill="none" stroke="#63b8ff" d="M1310.04,-290.77C1297.84,-282.53 1282.11,-270.04 1272.62,-255.25 1243.63,-210.06 1247.8,-191.96 1240.62,-138.75 1239.3,-128.95 1236.05,-125.27 1240.62,-116.5 1247.29,-103.72 1259.29,-93.75 1271.25,-86.4"/>
<polygon fill="#63b8ff" stroke="#63b8ff" points="1272.84,-89.52 1279.85,-81.58 1269.42,-83.42 1272.84,-89.52"/>
</a>
</g>
</g>
<!-- Node29 -->
<g id="Node000029" class="node">
<title>Node29</title>
<g id="a_Node000029"><a xlink:href="edge__dector_8h.html" target="_top" xlink:title="This is the file that contains the class for edge detection.">
<polygon fill="white" stroke="#666666" points="1373.5,-255.25 1281.75,-255.25 1281.75,-233 1373.5,-233 1373.5,-255.25"/>
<text text-anchor="middle" x="1327.62" y="-239.85" font-family="Arial" font-size="12.00">edge_dector.h</text>
</a>
</g>
</g>
<!-- Node1&#45;&gt;Node29 -->
<g id="edge28_Node000001_Node000029" class="edge">
<title>Node1&#45;&gt;Node29</title>
<g id="a_edge28_Node000001_Node000029"><a xlink:title=" ">
<path fill="none" stroke="#63b8ff" d="M1327.62,-290.79C1327.62,-284.12 1327.62,-275.24 1327.62,-267.09"/>
<polygon fill="#63b8ff" stroke="#63b8ff" points="1331.13,-267.17 1327.63,-257.17 1324.13,-267.17 1331.13,-267.17"/>
</a>
</g>
</g>
<!-- Node30 -->
<g id="Node000030" class="node">
<title>Node30</title>
<g id="a_Node000030"><a xlink:href="menus_8h.html" target="_top" xlink:title="This is the file that contains the class for menus.">
<polygon fill="white" stroke="#666666" points="1484.5,-255.25 1422.75,-255.25 1422.75,-233 1484.5,-233 1484.5,-255.25"/>
<text text-anchor="middle" x="1453.62" y="-239.85" font-family="Arial" font-size="12.00">menus.h</text>
</a>
</g>
</g>
<!-- Node1&#45;&gt;Node30 -->
<g id="edge29_Node000001_Node000030" class="edge">
<title>Node1&#45;&gt;Node30</title>
<g id="a_edge29_Node000001_Node000030"><a xlink:title=" ">
<path fill="none" stroke="#63b8ff" d="M1351.32,-290.79C1370.6,-282.19 1398.04,-269.94 1419.65,-260.29"/>
<polygon fill="#63b8ff" stroke="#63b8ff" points="1420.94,-263.55 1428.65,-256.27 1418.09,-257.16 1420.94,-263.55"/>
</a>
</g>
</g>
<!-- Node3 -->
<g id="Node000003" class="node">
<title>Node3</title>
<g id="a_Node000003"><a xlink:title=" ">
<polygon fill="#e0e0e0" stroke="#999999" points="51.25,-22.25 0,-22.25 0,0 51.25,0 51.25,-22.25"/>
<text text-anchor="middle" x="25.62" y="-6.85" font-family="Arial" font-size="12.00">atomic</text>
</a>
</g>
</g>
<!-- Node2&#45;&gt;Node3 -->
<g id="edge2_Node000002_Node000003" class="edge">
<title>Node2&#45;&gt;Node3</title>
<g id="a_edge2_Node000002_Node000003"><a xlink:title=" ">
<path fill="none" stroke="#63b8ff" d="M1256.71,-68.15C1057.61,-67.02 319.01,-60.41 62.57,-22.09"/>
<polygon fill="#63b8ff" stroke="#63b8ff" points="63.37,-18.67 52.95,-20.59 62.3,-25.59 63.37,-18.67"/>
</a>
</g>
</g>
<!-- Node4 -->
<g id="Node000004" class="node">
<title>Node4</title>
<g id="a_Node000004"><a xlink:title=" ">
<polygon fill="#e0e0e0" stroke="#999999" points="134,-22.25 69.25,-22.25 69.25,0 134,0 134,-22.25"/>
<text text-anchor="middle" x="101.62" y="-6.85" font-family="Arial" font-size="12.00">stdbool.h</text>
</a>
</g>
</g>
<!-- Node2&#45;&gt;Node4 -->
<g id="edge3_Node000002_Node000004" class="edge">
<title>Node2&#45;&gt;Node4</title>
<g id="a_edge3_Node000002_Node000004"><a xlink:title=" ">
<path fill="none" stroke="#63b8ff" d="M1256.78,-67.74C1066.44,-65.13 384.53,-53.83 145.24,-22.31"/>
<polygon fill="#63b8ff" stroke="#63b8ff" points="146.06,-18.89 135.68,-21 145.11,-25.83 146.06,-18.89"/>
</a>
</g>
</g>
<!-- Node5 -->
<g id="Node000005" class="node">
<title>Node5</title>
<g id="a_Node000005"><a xlink:title=" ">
<polygon fill="#e0e0e0" stroke="#999999" points="203.25,-22.25 152,-22.25 152,0 203.25,0 203.25,-22.25"/>
<text text-anchor="middle" x="177.62" y="-6.85" font-family="Arial" font-size="12.00">stdio.h</text>
</a>
</g>
</g>
<!-- Node2&#45;&gt;Node5 -->
<g id="edge4_Node000002_Node000005" class="edge">
<title>Node2&#45;&gt;Node5</title>
<g id="a_edge4_Node000002_Node000005"><a xlink:title=" ">
<path fill="none" stroke="#63b8ff" d="M1256.54,-67.91C1073.32,-65.95 438.96,-56.89 214.78,-22.36"/>
<polygon fill="#63b8ff" stroke="#63b8ff" points="215.38,-18.91 204.95,-20.78 214.27,-25.82 215.38,-18.91"/>
</a>
</g>
</g>
<!-- Node6 -->
<g id="Node000006" class="node">
<title>Node6</title>
<g id="a_Node000006"><a xlink:title=" ">
<polygon fill="#e0e0e0" stroke="#999999" points="276.12,-22.25 221.12,-22.25 221.12,0 276.12,0 276.12,-22.25"/>
<text text-anchor="middle" x="248.62" y="-6.85" font-family="Arial" font-size="12.00">string.h</text>
</a>
</g>
</g>
<!-- Node2&#45;&gt;Node6 -->
<g id="edge5_Node000002_Node000006" class="edge">
<title>Node2&#45;&gt;Node6</title>
<g id="a_edge5_Node000002_Node000006"><a xlink:title=" ">
<path fill="none" stroke="#63b8ff" d="M1256.56,-67.63C1081.53,-64.8 496.76,-53.34 287.55,-22.34"/>
<polygon fill="#63b8ff" stroke="#63b8ff" points="288.31,-18.92 277.89,-20.85 287.23,-25.84 288.31,-18.92"/>
</a>
</g>
</g>
<!-- Node7 -->
<g id="Node000007" class="node">
<title>Node7</title>
<g id="a_Node000007"><a xlink:title=" ">
<polygon fill="#e0e0e0" stroke="#999999" points="2540.25,-22.25 2495,-22.25 2495,0 2540.25,0 2540.25,-22.25"/>
<text text-anchor="middle" x="2517.62" y="-6.85" font-family="Arial" font-size="12.00">string</text>
</a>
</g>
</g>
<!-- Node2&#45;&gt;Node7 -->
<g id="edge6_Node000002_Node000007" class="edge">
<title>Node2&#45;&gt;Node7</title>
<g id="a_edge6_Node000002_Node000007"><a xlink:title=" ">
<path fill="none" stroke="#63b8ff" d="M1356.51,-68.19C1548.62,-67.23 2241.41,-61.2 2483.55,-22.06"/>
<polygon fill="#63b8ff" stroke="#63b8ff" points="2483.97,-25.54 2493.24,-20.43 2482.8,-18.64 2483.97,-25.54"/>
</a>
</g>
</g>
<!-- Node8 -->
<g id="Node000008" class="node">
<title>Node8</title>
<g id="a_Node000008"><a xlink:title=" ">
<polygon fill="#e0e0e0" stroke="#999999" points="419.38,-22.25 293.88,-22.25 293.88,0 419.38,0 419.38,-22.25"/>
<text text-anchor="middle" x="356.62" y="-6.85" font-family="Arial" font-size="12.00">freertos/FreeRTOS.h</text>
</a>
</g>
</g>
<!-- Node2&#45;&gt;Node8 -->
<g id="edge7_Node000002_Node000008" class="edge">
<title>Node2&#45;&gt;Node8</title>
<g id="a_edge7_Node000002_Node000008"><a xlink:title=" ">
<path fill="none" stroke="#63b8ff" d="M1256.95,-67.32C1124.43,-64.18 751.34,-53.16 431.06,-22.51"/>
<polygon fill="#63b8ff" stroke="#63b8ff" points="431.49,-19.04 421.2,-21.56 430.81,-26.01 431.49,-19.04"/>
</a>
</g>
</g>
<!-- Node9 -->
<g id="Node000009" class="node">
<title>Node9</title>
<g id="a_Node000009"><a xlink:title=" ">
<polygon fill="#e0e0e0" stroke="#999999" points="578.25,-22.25 437,-22.25 437,0 578.25,0 578.25,-22.25"/>
<text text-anchor="middle" x="507.62" y="-6.85" font-family="Arial" font-size="12.00">freertos/event_groups.h</text>
</a>
</g>
</g>
<!-- Node2&#45;&gt;Node9 -->
<g id="edge8_Node000002_Node000009" class="edge">
<title>Node2&#45;&gt;Node9</title>
<g id="a_edge8_Node000002_Node000009"><a xlink:title=" ">
<path fill="none" stroke="#63b8ff" d="M1256.85,-66.24C1141.62,-61.08 847.32,-46.59 590.14,-22.44"/>
<polygon fill="#63b8ff" stroke="#63b8ff" points="590.49,-18.95 580.21,-21.49 589.83,-25.92 590.49,-18.95"/>
</a>
</g>
</g>
<!-- Node10 -->
<g id="Node000010" class="node">
<title>Node10</title>
<g id="a_Node000010"><a xlink:title=" ">
<polygon fill="#e0e0e0" stroke="#999999" points="698.75,-22.25 596.5,-22.25 596.5,0 698.75,0 698.75,-22.25"/>
<text text-anchor="middle" x="647.62" y="-6.85" font-family="Arial" font-size="12.00">freertos/queue.h</text>
</a>
</g>
</g>
<!-- Node2&#45;&gt;Node10 -->
<g id="edge9_Node000002_Node000010" class="edge">
<title>Node2&#45;&gt;Node10</title>
<g id="a_edge9_Node000002_Node000010"><a xlink:title=" ">
<path fill="none" stroke="#63b8ff" d="M1256.78,-66.06C1155.67,-61.04 919.05,-47.61 710.15,-22.46"/>
<polygon fill="#63b8ff" stroke="#63b8ff" points="710.82,-19.02 700.47,-21.29 709.97,-25.97 710.82,-19.02"/>
</a>
</g>
</g>
<!-- Node11 -->
<g id="Node000011" class="node">
<title>Node11</title>
<g id="a_Node000011"><a xlink:title=" ">
<polygon fill="#e0e0e0" stroke="#999999" points="806.75,-22.25 716.5,-22.25 716.5,0 806.75,0 806.75,-22.25"/>
<text text-anchor="middle" x="761.62" y="-6.85" font-family="Arial" font-size="12.00">freertos/task.h</text>
</a>
</g>
</g>
<!-- Node2&#45;&gt;Node11 -->
<g id="edge10_Node000002_Node000011" class="edge">
<title>Node2&#45;&gt;Node11</title>
<g id="a_edge10_Node000002_Node000011"><a xlink:title=" ">
<path fill="none" stroke="#63b8ff" d="M1256.62,-65.2C1169.55,-59.34 984.27,-45.4 818.15,-22.5"/>
<polygon fill="#63b8ff" stroke="#63b8ff" points="819.13,-19.11 808.74,-21.19 818.16,-26.04 819.13,-19.11"/>
</a>
</g>
</g>
<!-- Node12 -->
<g id="Node000012" class="node">
<title>Node12</title>
<g id="a_Node000012"><a xlink:title=" ">
<polygon fill="#e0e0e0" stroke="#999999" points="878.38,-22.25 824.88,-22.25 824.88,0 878.38,0 878.38,-22.25"/>
<text text-anchor="middle" x="851.62" y="-6.85" font-family="Arial" font-size="12.00">errno.h</text>
</a>
</g>
</g>
<!-- Node2&#45;&gt;Node12 -->
<g id="edge11_Node000002_Node000012" class="edge">
<title>Node2&#45;&gt;Node12</title>
<g id="a_edge11_Node000002_Node000012"><a xlink:title=" ">
<path fill="none" stroke="#63b8ff" d="M1256.56,-65.53C1179.66,-60.59 1027.73,-48.52 889.81,-22.39"/>
<polygon fill="#63b8ff" stroke="#63b8ff" points="890.61,-18.98 880.12,-20.52 889.28,-25.85 890.61,-18.98"/>
</a>
</g>
</g>
<!-- Node13 -->
<g id="Node000013" class="node">
<title>Node13</title>
<g id="a_Node000013"><a xlink:title=" ">
<polygon fill="#e0e0e0" stroke="#999999" points="962.38,-22.25 896.88,-22.25 896.88,0 962.38,0 962.38,-22.25"/>
<text text-anchor="middle" x="929.62" y="-6.85" font-family="Arial" font-size="12.00">esp_err.h</text>
</a>
</g>
</g>
<!-- Node2&#45;&gt;Node13 -->
<g id="edge12_Node000002_Node000013" class="edge">
<title>Node2&#45;&gt;Node13</title>
<g id="a_edge12_Node000002_Node000013"><a xlink:title=" ">
<path fill="none" stroke="#63b8ff" d="M1256.71,-63.08C1193.28,-56 1080.21,-42.22 973.84,-22.51"/>
<polygon fill="#63b8ff" stroke="#63b8ff" points="974.53,-19.08 964.06,-20.68 973.24,-25.96 974.53,-19.08"/>
</a>
</g>
</g>
<!-- Node14 -->
<g id="Node000014" class="node">
<title>Node14</title>
<g id="a_Node000014"><a xlink:title=" ">
<polygon fill="#e0e0e0" stroke="#999999" points="1048.88,-22.25 980.38,-22.25 980.38,0 1048.88,0 1048.88,-22.25"/>
<text text-anchor="middle" x="1014.62" y="-6.85" font-family="Arial" font-size="12.00">esp_log.h</text>
</a>
</g>
</g>
<!-- Node2&#45;&gt;Node14 -->
<g id="edge13_Node000002_Node000014" class="edge">
<title>Node2&#45;&gt;Node14</title>
<g id="a_edge13_Node000002_Node000014"><a xlink:title=" ">
<path fill="none" stroke="#63b8ff" d="M1256.63,-59.72C1208.81,-51.29 1134.4,-37.81 1060.13,-22.49"/>
<polygon fill="#63b8ff" stroke="#63b8ff" points="1061.17,-19.13 1050.66,-20.53 1059.74,-25.99 1061.17,-19.13"/>
</a>
</g>
</g>
<!-- Node15 -->
<g id="Node000015" class="node">
<title>Node15</title>
<g id="a_Node000015"><a xlink:title=" ">
<polygon fill="#e0e0e0" stroke="#999999" points="1141.88,-22.25 1067.38,-22.25 1067.38,0 1141.88,0 1141.88,-22.25"/>
<text text-anchor="middle" x="1104.62" y="-6.85" font-family="Arial" font-size="12.00">esp_mac.h</text>
</a>
</g>
</g>
<!-- Node2&#45;&gt;Node15 -->
<g id="edge14_Node000002_Node000015" class="edge">
<title>Node2&#45;&gt;Node15</title>
<g id="a_edge14_Node000002_Node000015"><a xlink:title=" ">
<path fill="none" stroke="#63b8ff" d="M1268.63,-57.79C1235.94,-48.69 1188.59,-35.51 1153.16,-25.64"/>
<polygon fill="#63b8ff" stroke="#63b8ff" points="1154.14,-22.28 1143.57,-22.97 1152.26,-29.02 1154.14,-22.28"/>
</a>
</g>
</g>
<!-- Node16 -->
<g id="Node000016" class="node">
<title>Node16</title>
<g id="a_Node000016"><a xlink:title=" ">
<polygon fill="#e0e0e0" stroke="#999999" points="1249.38,-22.25 1159.88,-22.25 1159.88,0 1249.38,0 1249.38,-22.25"/>
<text text-anchor="middle" x="1204.62" y="-6.85" font-family="Arial" font-size="12.00">esp_system.h</text>
</a>
</g>
</g>
<!-- Node2&#45;&gt;Node16 -->
<g id="edge15_Node000002_Node000016" class="edge">
<title>Node2&#45;&gt;Node16</title>
<g id="a_edge15_Node000002_Node000016"><a xlink:title=" ">
<path fill="none" stroke="#63b8ff" d="M1287.44,-57.79C1272.2,-49.39 1250.64,-37.5 1233.34,-27.96"/>
<polygon fill="#63b8ff" stroke="#63b8ff" points="1235.5,-25.15 1225.05,-23.39 1232.12,-31.28 1235.5,-25.15"/>
</a>
</g>
</g>
<!-- Node17 -->
<g id="Node000017" class="node">
<title>Node17</title>
<g id="a_Node000017"><a xlink:title=" ">
<polygon fill="#e0e0e0" stroke="#999999" points="1345.38,-22.25 1267.88,-22.25 1267.88,0 1345.38,0 1345.38,-22.25"/>
<text text-anchor="middle" x="1306.62" y="-6.85" font-family="Arial" font-size="12.00">esp_timer.h</text>
</a>
</g>
</g>
<!-- Node2&#45;&gt;Node17 -->
<g id="edge16_Node000002_Node000017" class="edge">
<title>Node2&#45;&gt;Node17</title>
<g id="a_edge16_Node000002_Node000017"><a xlink:title=" ">
<path fill="none" stroke="#63b8ff" d="M1306.62,-57.79C1306.62,-51.12 1306.62,-42.24 1306.62,-34.09"/>
<polygon fill="#63b8ff" stroke="#63b8ff" points="1310.13,-34.17 1306.63,-24.17 1303.13,-34.17 1310.13,-34.17"/>
</a>
</g>
</g>
<!-- Node18 -->
<g id="Node000018" class="node">
<title>Node18</title>
<g id="a_Node000018"><a xlink:title=" ">
<polygon fill="#e0e0e0" stroke="#999999" points="1431.5,-22.25 1363.75,-22.25 1363.75,0 1431.5,0 1431.5,-22.25"/>
<text text-anchor="middle" x="1397.62" y="-6.85" font-family="Arial" font-size="12.00">esp_crc.h</text>
</a>
</g>
</g>
<!-- Node2&#45;&gt;Node18 -->
<g id="edge17_Node000002_Node000018" class="edge">
<title>Node2&#45;&gt;Node18</title>
<g id="a_edge17_Node000002_Node000018"><a xlink:title=" ">
<path fill="none" stroke="#63b8ff" d="M1323.74,-57.79C1337.09,-49.55 1355.86,-37.94 1371.14,-28.5"/>
<polygon fill="#63b8ff" stroke="#63b8ff" points="1372.63,-31.69 1379.3,-23.45 1368.95,-25.73 1372.63,-31.69"/>
</a>
</g>
</g>
<!-- Node19 -->
<g id="Node000019" class="node">
<title>Node19</title>
<g id="a_Node000019"><a xlink:title=" ">
<polygon fill="#e0e0e0" stroke="#999999" points="1523.88,-22.25 1449.38,-22.25 1449.38,0 1523.88,0 1523.88,-22.25"/>
<text text-anchor="middle" x="1486.62" y="-6.85" font-family="Arial" font-size="12.00">esp_netif.h</text>
</a>
</g>
</g>
<!-- Node2&#45;&gt;Node19 -->
<g id="edge18_Node000002_Node000019" class="edge">
<title>Node2&#45;&gt;Node19</title>
<g id="a_edge18_Node000002_Node000019"><a xlink:title=" ">
<path fill="none" stroke="#63b8ff" d="M1340.48,-57.79C1369.27,-48.8 1410.81,-35.82 1442.26,-25.99"/>
<polygon fill="#63b8ff" stroke="#63b8ff" points="1442.97,-29.43 1451.48,-23.11 1440.89,-22.75 1442.97,-29.43"/>
</a>
</g>
</g>
<!-- Node20 -->
<g id="Node000020" class="node">
<title>Node20</title>
<g id="a_Node000020"><a xlink:title=" ">
<polygon fill="#e0e0e0" stroke="#999999" points="1611.62,-22.25 1541.62,-22.25 1541.62,0 1611.62,0 1611.62,-22.25"/>
<text text-anchor="middle" x="1576.62" y="-6.85" font-family="Arial" font-size="12.00">esp_wifi.h</text>
</a>
</g>
</g>
<!-- Node2&#45;&gt;Node20 -->
<g id="edge19_Node000002_Node000020" class="edge">
<title>Node2&#45;&gt;Node20</title>
<g id="a_edge19_Node000002_Node000020"><a xlink:title=" ">
<path fill="none" stroke="#63b8ff" d="M1356.52,-58.56C1399.95,-49.94 1464.87,-36.85 1530.6,-22.65"/>
<polygon fill="#63b8ff" stroke="#63b8ff" points="1531.07,-26.13 1540.1,-20.59 1529.58,-19.29 1531.07,-26.13"/>
</a>
</g>
</g>
<!-- Node21 -->
<g id="Node000021" class="node">
<title>Node21</title>
<g id="a_Node000021"><a xlink:title=" ">
<polygon fill="#e0e0e0" stroke="#999999" points="1697.12,-22.25 1630.12,-22.25 1630.12,0 1697.12,0 1697.12,-22.25"/>
<text text-anchor="middle" x="1663.62" y="-6.85" font-family="Arial" font-size="12.00">espnow.h</text>
</a>
</g>
</g>
<!-- Node2&#45;&gt;Node21 -->
<g id="edge20_Node000002_Node000021" class="edge">
<title>Node2&#45;&gt;Node21</title>
<g id="a_edge20_Node000002_Node000021"><a xlink:title=" ">
<path fill="none" stroke="#63b8ff" d="M1356.61,-62.37C1416.5,-54.88 1520.11,-40.99 1618.81,-22.46"/>
<polygon fill="#63b8ff" stroke="#63b8ff" points="1619.22,-25.94 1628.4,-20.64 1617.92,-19.07 1619.22,-25.94"/>
</a>
</g>
</g>
<!-- Node22 -->
<g id="Node000022" class="node">
<title>Node22</title>
<g id="a_Node000022"><a xlink:title=" ">
<polygon fill="#e0e0e0" stroke="#999999" points="1805.75,-22.25 1715.5,-22.25 1715.5,0 1805.75,0 1805.75,-22.25"/>
<text text-anchor="middle" x="1760.62" y="-6.85" font-family="Arial" font-size="12.00">espnow_ctrl.h</text>
</a>
</g>
</g>
<!-- Node2&#45;&gt;Node22 -->
<g id="edge21_Node000002_Node000022" class="edge">
<title>Node2&#45;&gt;Node22</title>
<g id="a_edge21_Node000002_Node000022"><a xlink:title=" ">
<path fill="none" stroke="#63b8ff" d="M1356.66,-63.75C1430.47,-56.68 1573.1,-42.05 1704.26,-22.52"/>
<polygon fill="#63b8ff" stroke="#63b8ff" points="1704.43,-26.04 1713.79,-21.09 1703.39,-19.12 1704.43,-26.04"/>
</a>
</g>
</g>
<!-- Node23 -->
<g id="Node000023" class="node">
<title>Node23</title>
<g id="a_Node000023"><a xlink:title=" ">
<polygon fill="#e0e0e0" stroke="#999999" points="1919.75,-22.25 1823.5,-22.25 1823.5,0 1919.75,0 1919.75,-22.25"/>
<text text-anchor="middle" x="1871.62" y="-6.85" font-family="Arial" font-size="12.00">espnow_utils.h</text>
</a>
</g>
</g>
<!-- Node2&#45;&gt;Node23 -->
<g id="edge22_Node000002_Node000023" class="edge">
<title>Node2&#45;&gt;Node23</title>
<g id="a_edge22_Node000002_Node000023"><a xlink:title=" ">
<path fill="none" stroke="#63b8ff" d="M1356.54,-65.26C1445.8,-59.38 1638.89,-45.27 1811.8,-22.53"/>
<polygon fill="#63b8ff" stroke="#63b8ff" points="1812.21,-26.01 1821.66,-21.22 1811.28,-19.07 1812.21,-26.01"/>
</a>
</g>
</g>
<!-- Node24 -->
<g id="Node000024" class="node">
<title>Node24</title>
<g id="a_Node000024"><a xlink:title=" ">
<polygon fill="#e0e0e0" stroke="#999999" points="2015,-22.25 1938.25,-22.25 1938.25,0 2015,0 2015,-22.25"/>
<text text-anchor="middle" x="1976.62" y="-6.85" font-family="Arial" font-size="12.00">nvs_flash.h</text>
</a>
</g>
</g>
<!-- Node2&#45;&gt;Node24 -->
<g id="edge23_Node000002_Node000024" class="edge">
<title>Node2&#45;&gt;Node24</title>
<g id="a_edge23_Node000002_Node000024"><a xlink:title=" ">
<path fill="none" stroke="#63b8ff" d="M1356.45,-66.94C1460.48,-63.47 1708.49,-52.64 1926.58,-22.35"/>
<polygon fill="#63b8ff" stroke="#63b8ff" points="1927.02,-25.82 1936.43,-20.96 1926.04,-18.89 1927.02,-25.82"/>
</a>
</g>
</g>
<!-- Node25 -->
<g id="Node000025" class="node">
<title>Node25</title>
<g id="a_Node000025"><a xlink:title=" ">
<polygon fill="#e0e0e0" stroke="#999999" points="2126.62,-22.25 2032.62,-22.25 2032.62,0 2126.62,0 2126.62,-22.25"/>
<text text-anchor="middle" x="2079.62" y="-6.85" font-family="Arial" font-size="12.00">usb/hid_host.h</text>
</a>
</g>
</g>
<!-- Node2&#45;&gt;Node25 -->
<g id="edge24_Node000002_Node000025" class="edge">
<title>Node2&#45;&gt;Node25</title>
<g id="a_edge24_Node000002_Node000025"><a xlink:title=" ">
<path fill="none" stroke="#63b8ff" d="M1356.35,-67.14C1471.47,-63.85 1765.36,-53.05 2020.95,-22.45"/>
<polygon fill="#63b8ff" stroke="#63b8ff" points="2021.32,-25.93 2030.82,-21.25 2020.48,-18.98 2021.32,-25.93"/>
</a>
</g>
</g>
<!-- Node26 -->
<g id="Node000026" class="node">
<title>Node26</title>
<g id="a_Node000026"><a xlink:title=" ">
<polygon fill="#e0e0e0" stroke="#999999" points="2242.12,-22.25 2145.12,-22.25 2145.12,0 2242.12,0 2242.12,-22.25"/>
<text text-anchor="middle" x="2193.62" y="-6.85" font-family="Arial" font-size="12.00">usb/usb_host.h</text>
</a>
</g>
</g>
<!-- Node2&#45;&gt;Node26 -->
<g id="edge25_Node000002_Node000026" class="edge">
<title>Node2&#45;&gt;Node26</title>
<g id="a_edge25_Node000002_Node000026"><a xlink:title=" ">
<path fill="none" stroke="#63b8ff" d="M1356.32,-67.64C1483.75,-65.32 1832.68,-56.23 2133.51,-22.36"/>
<polygon fill="#63b8ff" stroke="#63b8ff" points="2133.59,-25.87 2143.13,-21.26 2132.8,-18.92 2133.59,-25.87"/>
</a>
</g>
</g>
<!-- Node27 -->
<g id="Node000027" class="node">
<title>Node27</title>
<g id="a_Node000027"><a xlink:title=" ">
<polygon fill="#e0e0e0" stroke="#999999" points="2342.62,-22.25 2260.62,-22.25 2260.62,0 2342.62,0 2342.62,-22.25"/>
<text text-anchor="middle" x="2301.62" y="-6.85" font-family="Arial" font-size="12.00">driver/gpio.h</text>
</a>
</g>
</g>
<!-- Node2&#45;&gt;Node27 -->
<g id="edge26_Node000002_Node000027" class="edge">
<title>Node2&#45;&gt;Node27</title>
<g id="a_edge26_Node000002_Node000027"><a xlink:title=" ">
<path fill="none" stroke="#63b8ff" d="M1356.55,-68.59C1496.16,-68.61 1902.52,-64.84 2248.97,-22.4"/>
<polygon fill="#63b8ff" stroke="#63b8ff" points="2249.24,-25.9 2258.73,-21.19 2248.38,-18.95 2249.24,-25.9"/>
</a>
</g>
</g>
<!-- Node28 -->
<g id="Node000028" class="node">
<title>Node28</title>
<g id="a_Node000028"><a xlink:title=" ">
<polygon fill="#e0e0e0" stroke="#999999" points="2476.88,-22.25 2360.38,-22.25 2360.38,0 2476.88,0 2476.88,-22.25"/>
<text text-anchor="middle" x="2418.62" y="-6.85" font-family="Arial" font-size="12.00">driver/i2c_master.h</text>
</a>
</g>
</g>
<!-- Node2&#45;&gt;Node28 -->
<g id="edge27_Node000002_Node000028" class="edge">
<title>Node2&#45;&gt;Node28</title>
<g id="a_edge27_Node000002_Node000028"><a xlink:title=" ">
<path fill="none" stroke="#63b8ff" d="M1356.52,-68.04C1505.62,-66.66 1961.01,-59.54 2348.75,-22.43"/>
<polygon fill="#63b8ff" stroke="#63b8ff" points="2349.08,-25.92 2358.7,-21.47 2348.41,-18.95 2349.08,-25.92"/>
</a>
</g>
</g>
<!-- Node30&#45;&gt;Node7 -->
<g id="edge38_Node000030_Node000007" class="edge">
<title>Node30&#45;&gt;Node7</title>
<g id="a_edge38_Node000030_Node000007"><a xlink:title=" ">
<path fill="none" stroke="#63b8ff" d="M1484.7,-237.6C1609.44,-215.18 2085.9,-127.31 2483.77,-22.56"/>
<polygon fill="#63b8ff" stroke="#63b8ff" points="2484.39,-26.01 2493.17,-20.08 2482.6,-19.25 2484.39,-26.01"/>
</a>
</g>
</g>
<!-- Node31 -->
<g id="Node000031" class="node">
<title>Node31</title>
<g id="a_Node000031"><a xlink:href="ssd1306_8h.html" target="_top" xlink:title="Contains the code for ssd1306 display, setting it up, and writing text to it.">
<polygon fill="white" stroke="#666666" points="1425.38,-197 1305.88,-197 1305.88,-174.75 1425.38,-174.75 1425.38,-197"/>
<text text-anchor="middle" x="1365.62" y="-181.6" font-family="Arial" font-size="12.00">../drivers/ssd1306.h</text>
</a>
</g>
</g>
<!-- Node30&#45;&gt;Node31 -->
<g id="edge30_Node000030_Node000031" class="edge">
<title>Node30&#45;&gt;Node31</title>
<g id="a_edge30_Node000030_Node000031"><a xlink:title=" ">
<path fill="none" stroke="#63b8ff" d="M1437.07,-232.54C1424.29,-224.37 1406.36,-212.91 1391.66,-203.52"/>
<polygon fill="#63b8ff" stroke="#63b8ff" points="1393.69,-200.66 1383.38,-198.22 1389.92,-206.56 1393.69,-200.66"/>
</a>
</g>
</g>
<!-- Node32 -->
<g id="Node000032" class="node">
<title>Node32</title>
<g id="a_Node000032"><a xlink:href="pinout_8h.html" target="_top" xlink:title="This is the file that contains the pinout and other configuration information.">
<polygon fill="white" stroke="#666666" points="1487.5,-138.75 1419.75,-138.75 1419.75,-116.5 1487.5,-116.5 1487.5,-138.75"/>
<text text-anchor="middle" x="1453.62" y="-123.35" font-family="Arial" font-size="12.00">../pinout.h</text>
</a>
</g>
</g>
<!-- Node30&#45;&gt;Node32 -->
<g id="edge35_Node000030_Node000032" class="edge">
<title>Node30&#45;&gt;Node32</title>
<g id="a_edge35_Node000030_Node000032"><a xlink:title=" ">
<path fill="none" stroke="#63b8ff" d="M1453.62,-232.56C1453.62,-213.98 1453.62,-175.12 1453.62,-150.54"/>
<polygon fill="#63b8ff" stroke="#63b8ff" points="1457.13,-150.68 1453.63,-140.68 1450.13,-150.68 1457.13,-150.68"/>
</a>
</g>
</g>
<!-- Node34 -->
<g id="Node000034" class="node">
<title>Node34</title>
<g id="a_Node000034"><a xlink:href="changeable__values_8h.html" target="_top" xlink:title="Contains the information for the changeable values class, this class allows a value to be modifed by ...">
<polygon fill="white" stroke="#666666" points="1612,-197 1481.25,-197 1481.25,-174.75 1612,-174.75 1612,-197"/>
<text text-anchor="middle" x="1546.62" y="-181.6" font-family="Arial" font-size="12.00">changeable_values.h</text>
</a>
</g>
</g>
<!-- Node30&#45;&gt;Node34 -->
<g id="edge36_Node000030_Node000034" class="edge">
<title>Node30&#45;&gt;Node34</title>
<g id="a_edge36_Node000030_Node000034"><a xlink:title=" ">
<path fill="none" stroke="#63b8ff" d="M1471.12,-232.54C1484.76,-224.3 1503.94,-212.69 1519.56,-203.25"/>
<polygon fill="#63b8ff" stroke="#63b8ff" points="1521.17,-206.36 1527.92,-198.19 1517.55,-200.37 1521.17,-206.36"/>
</a>
</g>
</g>
<!-- Node31&#45;&gt;Node2 -->
<g id="edge31_Node000031_Node000002" class="edge">
<title>Node31&#45;&gt;Node2</title>
<g id="a_edge31_Node000031_Node000002"><a xlink:title=" ">
<path fill="none" stroke="#63b8ff" d="M1370.09,-174.47C1375.38,-160.46 1382.33,-135.12 1372.62,-116.5 1365.96,-103.72 1353.96,-93.75 1342,-86.4"/>
<polygon fill="#63b8ff" stroke="#63b8ff" points="1343.83,-83.42 1333.4,-81.58 1340.41,-89.52 1343.83,-83.42"/>
</a>
</g>
</g>
<!-- Node31&#45;&gt;Node32 -->
<g id="edge32_Node000031_Node000032" class="edge">
<title>Node31&#45;&gt;Node32</title>
<g id="a_edge32_Node000031_Node000032"><a xlink:title=" ">
<path fill="none" stroke="#63b8ff" d="M1382.18,-174.29C1394.96,-166.12 1412.89,-154.66 1427.59,-145.27"/>
<polygon fill="#63b8ff" stroke="#63b8ff" points="1429.33,-148.31 1435.87,-139.97 1425.56,-142.41 1429.33,-148.31"/>
</a>
</g>
</g>
<!-- Node33 -->
<g id="Node000033" class="node">
<title>Node33</title>
<g id="a_Node000033"><a xlink:href="font_8h.html" target="_top" xlink:title="This file contains the class for the 12x16 font class.">
<polygon fill="white" stroke="#666666" points="1363.38,-138.75 1249.88,-138.75 1249.88,-116.5 1363.38,-116.5 1363.38,-138.75"/>
<text text-anchor="middle" x="1306.62" y="-123.35" font-family="Arial" font-size="12.00">../supporting/font.h</text>
</a>
</g>
</g>
<!-- Node31&#45;&gt;Node33 -->
<g id="edge33_Node000031_Node000033" class="edge">
<title>Node31&#45;&gt;Node33</title>
<g id="a_edge33_Node000031_Node000033"><a xlink:title=" ">
<path fill="none" stroke="#63b8ff" d="M1354.53,-174.29C1346.45,-166.6 1335.31,-155.97 1325.81,-146.91"/>
<polygon fill="#63b8ff" stroke="#63b8ff" points="1328.42,-144.57 1318.77,-140.2 1323.59,-149.64 1328.42,-144.57"/>
</a>
</g>
</g>
<!-- Node33&#45;&gt;Node2 -->
<g id="edge34_Node000033_Node000002" class="edge">
<title>Node33&#45;&gt;Node2</title>
<g id="a_edge34_Node000033_Node000002"><a xlink:title=" ">
<path fill="none" stroke="#63b8ff" d="M1306.62,-116.04C1306.62,-109.37 1306.62,-100.49 1306.62,-92.34"/>
<polygon fill="#63b8ff" stroke="#63b8ff" points="1310.13,-92.42 1306.63,-82.42 1303.13,-92.42 1310.13,-92.42"/>
</a>
</g>
</g>
<!-- Node34&#45;&gt;Node2 -->
<g id="edge37_Node000034_Node000002" class="edge">
<title>Node34&#45;&gt;Node2</title>
<g id="a_edge37_Node000034_Node000002"><a xlink:title=" ">
<path fill="none" stroke="#63b8ff" d="M1541.84,-174.26C1534.41,-159.03 1518.64,-131.2 1496.62,-116.5 1458.34,-90.94 1407.3,-79.51 1367.76,-74.42"/>
<polygon fill="#63b8ff" stroke="#63b8ff" points="1368.25,-70.96 1357.92,-73.27 1367.44,-77.91 1368.25,-70.96"/>
</a>
</g>
</g>
</g>
</svg>
