<?xml version="1.0" encoding="UTF-8" standalone="no"?>
<!DOCTYPE svg PUBLIC "-//W3C//DTD SVG 1.1//EN"
 "http://www.w3.org/Graphics/SVG/1.1/DTD/svg11.dtd">
<!-- Generated by graphviz version 12.2.1 (20241206.2353)
 -->
<!-- Title: include/supporting/menus.h Pages: 1 -->
<svg width="671pt" height="205pt"
 viewBox="0.00 0.00 671.12 205.00" xmlns="http://www.w3.org/2000/svg" xmlns:xlink="http://www.w3.org/1999/xlink">
<g id="graph0" class="graph" transform="scale(1 1) rotate(0) translate(4 201)">
<title>include/supporting/menus.h</title>
<!-- Node1 -->
<g id="Node000001" class="node">
<title>Node1</title>
<g id="a_Node000001"><a xlink:title="This is the file that contains the class for menus.">
<polygon fill="#999999" stroke="#666666" points="460.12,-197 297.12,-197 297.12,-174.75 460.12,-174.75 460.12,-197"/>
<text text-anchor="middle" x="378.62" y="-181.6" font-family="Arial" font-size="12.00">include/supporting/menus.h</text>
</a>
</g>
</g>
<!-- Node2 -->
<g id="Node000002" class="node">
<title>Node2</title>
<g id="a_Node000002"><a xlink:href="menu__handler_8h.html" target="_top" xlink:title="This is the file that contains the class for switching between menus.">
<polygon fill="white" stroke="#666666" points="415.38,-138.75 211.88,-138.75 211.88,-116.5 415.38,-116.5 415.38,-138.75"/>
<text text-anchor="middle" x="313.62" y="-123.35" font-family="Arial" font-size="12.00">include/supporting/menu_handler.h</text>
</a>
</g>
</g>
<!-- Node1&#45;&gt;Node2 -->
<g id="edge1_Node000001_Node000002" class="edge">
<title>Node1&#45;&gt;Node2</title>
<g id="a_edge1_Node000001_Node000002"><a xlink:title=" ">
<path fill="none" stroke="#63b8ff" d="M357.75,-166.81C347.2,-157.68 334.77,-146.92 325.8,-139.16"/>
<polygon fill="#63b8ff" stroke="#63b8ff" points="355.4,-169.41 365.25,-173.3 359.98,-164.11 355.4,-169.41"/>
</a>
</g>
</g>
<!-- Node3 -->
<g id="Node000003" class="node">
<title>Node3</title>
<g id="a_Node000003"><a xlink:href="display__task_8h.html" target="_top" xlink:title="This is the file that contains the display task.">
<polygon fill="white" stroke="#666666" points="183.25,-80.5 18,-80.5 18,-58.25 183.25,-58.25 183.25,-80.5"/>
<text text-anchor="middle" x="100.62" y="-65.1" font-family="Arial" font-size="12.00">include/tasks/display_task.h</text>
</a>
</g>
</g>
<!-- Node1&#45;&gt;Node3 -->
<g id="edge7_Node000001_Node000003" class="edge">
<title>Node1&#45;&gt;Node3</title>
<g id="a_edge7_Node000001_Node000003"><a xlink:title=" ">
<path fill="none" stroke="#63b8ff" d="M307.4,-171.89C274.62,-164.5 235.74,-153.68 202.62,-138.75 167.83,-123.07 131.83,-95.89 113.31,-80.96"/>
<polygon fill="#63b8ff" stroke="#63b8ff" points="306.28,-175.23 316.79,-173.95 307.77,-168.39 306.28,-175.23"/>
</a>
</g>
</g>
<!-- Node4 -->
<g id="Node000004" class="node">
<title>Node4</title>
<g id="a_Node000004"><a xlink:href="main_8cpp.html" target="_top" xlink:title="This is the file that contains the main function and all other tasks for the robot controller.">
<polygon fill="white" stroke="#666666" points="277.62,-22.25 183.62,-22.25 183.62,0 277.62,0 277.62,-22.25"/>
<text text-anchor="middle" x="230.62" y="-6.85" font-family="Arial" font-size="12.00">main/main.cpp</text>
</a>
</g>
</g>
<!-- Node1&#45;&gt;Node4 -->
<g id="edge8_Node000001_Node000004" class="edge">
<title>Node1&#45;&gt;Node4</title>
<g id="a_edge8_Node000001_Node000004"><a xlink:title=" ">
<path fill="none" stroke="#63b8ff" d="M401.86,-167.51C433.1,-142.07 481.58,-93.84 452.62,-58.25 431.04,-31.72 336.49,-19.96 277.96,-15.13"/>
<polygon fill="#63b8ff" stroke="#63b8ff" points="400.07,-164.46 394.39,-173.41 404.41,-169.96 400.07,-164.46"/>
</a>
</g>
</g>
<!-- Node7 -->
<g id="Node000007" class="node">
<title>Node7</title>
<g id="a_Node000007"><a xlink:href="menus_8cpp.html" target="_top" xlink:title="source file for the class that handles the creation of menus">
<polygon fill="white" stroke="#666666" points="663.12,-138.75 500.12,-138.75 500.12,-116.5 663.12,-116.5 663.12,-138.75"/>
<text text-anchor="middle" x="581.62" y="-123.35" font-family="Arial" font-size="12.00">main/supporting/menus.cpp</text>
</a>
</g>
</g>
<!-- Node1&#45;&gt;Node7 -->
<g id="edge9_Node000001_Node000007" class="edge">
<title>Node1&#45;&gt;Node7</title>
<g id="a_edge9_Node000001_Node000007"><a xlink:title=" ">
<path fill="none" stroke="#63b8ff" d="M427.46,-171.34C463.12,-161.46 510.77,-148.26 543.61,-139.16"/>
<polygon fill="#63b8ff" stroke="#63b8ff" points="426.97,-167.85 418.27,-173.89 428.84,-174.59 426.97,-167.85"/>
</a>
</g>
</g>
<!-- Node2&#45;&gt;Node3 -->
<g id="edge2_Node000002_Node000003" class="edge">
<title>Node2&#45;&gt;Node3</title>
<g id="a_edge2_Node000002_Node000003"><a xlink:title=" ">
<path fill="none" stroke="#63b8ff" d="M262.87,-113.22C225.4,-103.33 175.11,-90.05 140.51,-80.91"/>
<polygon fill="#63b8ff" stroke="#63b8ff" points="261.54,-116.49 272.1,-115.66 263.32,-109.72 261.54,-116.49"/>
</a>
</g>
</g>
<!-- Node2&#45;&gt;Node4 -->
<g id="edge5_Node000002_Node000004" class="edge">
<title>Node2&#45;&gt;Node4</title>
<g id="a_edge5_Node000002_Node000004"><a xlink:title=" ">
<path fill="none" stroke="#63b8ff" d="M266.89,-111.38C252.72,-104.32 238.76,-94.33 230.62,-80.5 220.03,-62.49 224,-36.93 227.52,-22.71"/>
<polygon fill="#63b8ff" stroke="#63b8ff" points="265.23,-114.47 275.78,-115.39 268.11,-108.09 265.23,-114.47"/>
</a>
</g>
</g>
<!-- Node6 -->
<g id="Node000006" class="node">
<title>Node6</title>
<g id="a_Node000006"><a xlink:href="menu__handler_8cpp.html" target="_top" xlink:title="This is the file that contains the class for switching between menus.">
<polygon fill="white" stroke="#666666" points="443.38,-80.5 239.88,-80.5 239.88,-58.25 443.38,-58.25 443.38,-80.5"/>
<text text-anchor="middle" x="341.62" y="-65.1" font-family="Arial" font-size="12.00">main/supporting/menu_handler.cpp</text>
</a>
</g>
</g>
<!-- Node2&#45;&gt;Node6 -->
<g id="edge6_Node000002_Node000006" class="edge">
<title>Node2&#45;&gt;Node6</title>
<g id="a_edge6_Node000002_Node000006"><a xlink:title=" ">
<path fill="none" stroke="#63b8ff" d="M324.02,-105.75C328.23,-97.29 332.91,-87.89 336.38,-80.91"/>
<polygon fill="#63b8ff" stroke="#63b8ff" points="320.89,-104.18 319.57,-114.69 327.16,-107.3 320.89,-104.18"/>
</a>
</g>
</g>
<!-- Node3&#45;&gt;Node4 -->
<g id="edge3_Node000003_Node000004" class="edge">
<title>Node3&#45;&gt;Node4</title>
<g id="a_edge3_Node000003_Node000004"><a xlink:title=" ">
<path fill="none" stroke="#63b8ff" d="M135.5,-53.28C157.87,-43.61 186.34,-31.29 206.28,-22.66"/>
<polygon fill="#63b8ff" stroke="#63b8ff" points="134.25,-50.01 126.47,-57.19 137.03,-56.43 134.25,-50.01"/>
</a>
</g>
</g>
<!-- Node5 -->
<g id="Node000005" class="node">
<title>Node5</title>
<g id="a_Node000005"><a xlink:href="display__task_8cpp.html" target="_top" xlink:title="This is the file that contains the display task.">
<polygon fill="white" stroke="#666666" points="165.25,-22.25 0,-22.25 0,0 165.25,0 165.25,-22.25"/>
<text text-anchor="middle" x="82.62" y="-6.85" font-family="Arial" font-size="12.00">main/tasks/display_task.cpp</text>
</a>
</g>
</g>
<!-- Node3&#45;&gt;Node5 -->
<g id="edge4_Node000003_Node000005" class="edge">
<title>Node3&#45;&gt;Node5</title>
<g id="a_edge4_Node000003_Node000005"><a xlink:title=" ">
<path fill="none" stroke="#63b8ff" d="M93.76,-46.93C91.1,-38.62 88.18,-29.48 86,-22.66"/>
<polygon fill="#63b8ff" stroke="#63b8ff" points="90.4,-47.9 96.78,-56.35 97.06,-45.76 90.4,-47.9"/>
</a>
</g>
</g>
</g>
</svg>
