<?xml version="1.0" encoding="UTF-8" standalone="no"?>
<!DOCTYPE svg PUBLIC "-//W3C//DTD SVG 1.1//EN"
 "http://www.w3.org/Graphics/SVG/1.1/DTD/svg11.dtd">
<!-- Generated by graphviz version 12.2.1 (20241206.2353)
 -->
<!-- Title: app_espnow_monitored_device_start Pages: 1 -->
<!--zoomable 750 -->

<svg id="main" version="1.1" xmlns="http://www.w3.org/2000/svg" xmlns:xlink="http://www.w3.org/1999/xlink" xml:space="preserve" onload="init(evt)">

<style type="text/css"><![CDATA[
.node, .edge {opacity: 0.7;}
.node.selected, .edge.selected {opacity: 1;}
.edge:hover path { stroke: red; }
.edge:hover polygon { stroke: red; fill: red; }
]]></style>

<defs>
  <circle id="rim" cx="0" cy="0" r="7"/>
  <circle id="rim2" cx="0" cy="0" r="3.5"/>
  <g id="zoomPlus">
    <use xlink:href="#rim" fill="#404040"><set attributeName="fill" to="#808080" begin="zoomplus.mouseover" end="zoomplus.mouseout"/></use>
    <path d="M-4,0h8M0,-4v8" fill="none" stroke="white" stroke-width="1.5" pointer-events="none"/>
  </g>
  <g id="zoomMin">
    <use xlink:href="#rim" fill="#404040"><set attributeName="fill" to="#808080" begin="zoomminus.mouseover" end="zoomminus.mouseout"/></use>
    <path d="M-4,0h8" fill="none" stroke="white" stroke-width="1.5" pointer-events="none"/>
  </g>
  <g id="arrowUp" transform="translate(30 24)">
    <use xlink:href="#rim"/>
    <path pointer-events="none" fill="none" stroke="white" stroke-width="1.5" d="M0,-3.0v7 M-2.5,-0.5L0,-3.0L2.5,-0.5"/>
  </g>
  <g id="arrowRight" transform="rotate(90) translate(36 -43)">
    <use xlink:href="#rim"/>
    <path pointer-events="none" fill="none" stroke="white" stroke-width="1.5" d="M0,-3.0v7 M-2.5,-0.5L0,-3.0L2.5,-0.5"/>
  </g>
  <g id="arrowDown" transform="rotate(180) translate(-30 -48)">
    <use xlink:href="#rim"/>
    <path pointer-events="none" fill="none" stroke="white" stroke-width="1.5" d="M0,-3.0v7 M-2.5,-0.5L0,-3.0L2.5,-0.5"/>
  </g>
  <g id="arrowLeft" transform="rotate(270) translate(-36 17)">
    <use xlink:href="#rim"/>
    <path pointer-events="none" fill="none" stroke="white" stroke-width="1.5" d="M0,-3.0v7 M-2.5,-0.5L0,-3.0L2.5,-0.5"/>
  </g>
  <g id="resetDef">
    <use xlink:href="#rim2" fill="#404040"><set attributeName="fill" to="#808080" begin="reset.mouseover" end="reset.mouseout"/></use>
  </g>
</defs>
<script type="application/ecmascript">
var viewWidth = 899;
var viewHeight = 750;
var sectionId = 'dynsection-0';
</script>
<script type="application/ecmascript" xlink:href="svg.min.js"/>
<svg id="graph" class="graph">
<g id="viewport">
<title>app_espnow_monitored_device_start</title>
<!-- Node1 -->
<g id="Node000001" class="node">
<title>Node1</title>
<g id="a_Node000001"><a xlink:title=" ">
<polygon fill="#999999" stroke="#666666" points="216.25,-122.25 0,-122.25 0,-100 216.25,-100 216.25,-122.25"/>
<text text-anchor="middle" x="108.12" y="-106.85" font-family="Arial" font-size="12.00">app_espnow_monitored_device_start</text>
</a>
</g>
</g>
<!-- Node2 -->
<g id="Node000002" class="node">
<title>Node2</title>
<g id="a_Node000002"><a xlink:href="espnow__commands_8c.html#a0bb86e9397ef9f6da395e1a03b34a139" target="_top" xlink:title="Register Common commands.">
<polygon fill="white" stroke="#666666" points="470.75,-402.25 252.25,-402.25 252.25,-380 470.75,-380 470.75,-402.25"/>
<text text-anchor="middle" x="361.5" y="-386.85" font-family="Arial" font-size="12.00">espnow_console_commands_register</text>
</a>
</g>
</g>
<!-- Node1&#45;&gt;Node2 -->
<g id="edge1_Node000001_Node000002" class="edge">
<title>Node1&#45;&gt;Node2</title>
<g id="a_edge1_Node000001_Node000002"><a xlink:title=" ">
<path fill="none" stroke="#63b8ff" d="M119.29,-122.45C157.58,-165.1 293.43,-316.42 342.58,-371.17"/>
<polygon fill="#63b8ff" stroke="#63b8ff" points="339.91,-373.43 349.2,-378.53 345.12,-368.76 339.91,-373.43"/>
</a>
</g>
</g>
<!-- Node22 -->
<g id="Node000022" class="node">
<title>Node22</title>
<g id="a_Node000022"><a xlink:href="espnow__console_8c.html#aa6f31005efa0f0074f02968b96f8bd7a" target="_top" xlink:title="Initialize console module.">
<polygon fill="white" stroke="#666666" points="426.12,-202.25 296.88,-202.25 296.88,-180 426.12,-180 426.12,-202.25"/>
<text text-anchor="middle" x="361.5" y="-186.85" font-family="Arial" font-size="12.00">espnow_console_init</text>
</a>
</g>
</g>
<!-- Node1&#45;&gt;Node22 -->
<g id="edge21_Node000001_Node000022" class="edge">
<title>Node1&#45;&gt;Node22</title>
<g id="a_edge21_Node000001_Node000022"><a xlink:title=" ">
<path fill="none" stroke="#63b8ff" d="M145.41,-122.67C189.68,-136.76 264.65,-160.62 313.35,-176.12"/>
<polygon fill="#63b8ff" stroke="#63b8ff" points="312.19,-179.42 322.79,-179.12 314.32,-172.75 312.19,-179.42"/>
</a>
</g>
</g>
<!-- Node24 -->
<g id="Node000024" class="node">
<title>Node24</title>
<g id="a_Node000024"><a xlink:href="espnow_8c.html#a82456d56cc86371962135c5ff82fd954" target="_top" xlink:title="Initialize ESP&#45;NOW function.">
<polygon fill="white" stroke="#666666" points="401.75,-142.25 321.25,-142.25 321.25,-120 401.75,-120 401.75,-142.25"/>
<text text-anchor="middle" x="361.5" y="-126.85" font-family="Arial" font-size="12.00">espnow_init</text>
</a>
</g>
</g>
<!-- Node1&#45;&gt;Node24 -->
<g id="edge23_Node000001_Node000024" class="edge">
<title>Node1&#45;&gt;Node24</title>
<g id="a_edge23_Node000001_Node000024"><a xlink:title=" ">
<path fill="none" stroke="#63b8ff" d="M216.46,-119.66C248.77,-122.24 282.74,-124.94 309.57,-127.07"/>
<polygon fill="#63b8ff" stroke="#63b8ff" points="309.23,-130.56 319.48,-127.86 309.79,-123.58 309.23,-130.56"/>
</a>
</g>
</g>
<!-- Node33 -->
<g id="Node000033" class="node">
<title>Node33</title>
<g id="a_Node000033"><a xlink:href="espnow__log_8c.html#a6d4afb9055e0375fefca1df8298b5ef9" target="_top" xlink:title="Initialize log debug.">
<polygon fill="white" stroke="#666666" points="413.38,-102.25 309.62,-102.25 309.62,-80 413.38,-80 413.38,-102.25"/>
<text text-anchor="middle" x="361.5" y="-86.85" font-family="Arial" font-size="12.00">espnow_log_init</text>
</a>
</g>
</g>
<!-- Node1&#45;&gt;Node33 -->
<g id="edge32_Node000001_Node000033" class="edge">
<title>Node1&#45;&gt;Node33</title>
<g id="a_edge32_Node000001_Node000033"><a xlink:title=" ">
<path fill="none" stroke="#63b8ff" d="M216.46,-102.59C244.22,-100.38 273.21,-98.07 297.84,-96.11"/>
<polygon fill="#63b8ff" stroke="#63b8ff" points="297.99,-99.61 307.68,-95.33 297.43,-92.63 297.99,-99.61"/>
</a>
</g>
</g>
<!-- Node35 -->
<g id="Node000035" class="node">
<title>Node35</title>
<g id="a_Node000035"><a xlink:href="espnow__storage_8c.html#afcdac79eafab05bba3191708b3d6c672" target="_top" xlink:title="Intialise ESP Storage.">
<polygon fill="white" stroke="#666666" points="425,-62.25 298,-62.25 298,-40 425,-40 425,-62.25"/>
<text text-anchor="middle" x="361.5" y="-46.85" font-family="Arial" font-size="12.00">espnow_storage_init</text>
</a>
</g>
</g>
<!-- Node1&#45;&gt;Node35 -->
<g id="edge34_Node000001_Node000035" class="edge">
<title>Node1&#45;&gt;Node35</title>
<g id="a_edge34_Node000001_Node000035"><a xlink:title=" ">
<path fill="none" stroke="#63b8ff" d="M146.86,-99.58C175.58,-91.04 216.18,-79.48 252.25,-71.12 263.33,-68.56 275.1,-66.11 286.65,-63.85"/>
<polygon fill="#63b8ff" stroke="#63b8ff" points="286.97,-67.35 296.14,-62.04 285.66,-60.48 286.97,-67.35"/>
</a>
</g>
</g>
<!-- Node36 -->
<g id="Node000036" class="node">
<title>Node36</title>
<g id="a_Node000036"><a xlink:href="espnow__timesync_8c.html#a2111aa57c26ce6218f9f0cfb6bf235af" target="_top" xlink:title="Initialize time synchronization.">
<polygon fill="white" stroke="#666666" points="432.12,-22.25 290.88,-22.25 290.88,0 432.12,0 432.12,-22.25"/>
<text text-anchor="middle" x="361.5" y="-6.85" font-family="Arial" font-size="12.00">espnow_timesync_start</text>
</a>
</g>
</g>
<!-- Node1&#45;&gt;Node36 -->
<g id="edge35_Node000001_Node000036" class="edge">
<title>Node1&#45;&gt;Node36</title>
<g id="a_edge35_Node000001_Node000036"><a xlink:title=" ">
<path fill="none" stroke="#63b8ff" d="M125.45,-99.63C151.17,-82.09 203.25,-48.8 252.25,-31.12 260.97,-27.98 270.28,-25.31 279.63,-23.04"/>
<polygon fill="#63b8ff" stroke="#63b8ff" points="280.14,-26.52 289.12,-20.9 278.6,-19.69 280.14,-26.52"/>
</a>
</g>
</g>
<!-- Node3 -->
<g id="Node000003" class="node">
<title>Node3</title>
<g id="a_Node000003"><a xlink:href="cmd__espnow_8c.html#a49ab8b4f30ba6620b8349e8dbcf6e7a7" target="_top" xlink:title=" ">
<polygon fill="white" stroke="#666666" points="658.5,-642.25 554,-642.25 554,-620 658.5,-620 658.5,-642.25"/>
<text text-anchor="middle" x="606.25" y="-626.85" font-family="Arial" font-size="12.00">register_espnow</text>
</a>
</g>
</g>
<!-- Node2&#45;&gt;Node3 -->
<g id="edge2_Node000002_Node000003" class="edge">
<title>Node2&#45;&gt;Node3</title>
<g id="a_edge2_Node000002_Node000003"><a xlink:title=" ">
<path fill="none" stroke="#63b8ff" d="M371.74,-402.53C393.83,-429.56 451.97,-499.1 506.75,-551.12 530.61,-573.78 560.15,-597.23 580.63,-612.84"/>
<polygon fill="#63b8ff" stroke="#63b8ff" points="578.32,-615.48 588.41,-618.71 582.54,-609.89 578.32,-615.48"/>
</a>
</g>
</g>
<!-- Node9 -->
<g id="Node000009" class="node">
<title>Node9</title>
<g id="a_Node000009"><a xlink:href="cmd__iperf_8c.html#aba7899961f37bd327bbcfbfbe6582b3d" target="_top" xlink:title=" ">
<polygon fill="white" stroke="#666666" points="649.12,-542.25 563.38,-542.25 563.38,-520 649.12,-520 649.12,-542.25"/>
<text text-anchor="middle" x="606.25" y="-526.85" font-family="Arial" font-size="12.00">register_iperf</text>
</a>
</g>
</g>
<!-- Node2&#45;&gt;Node9 -->
<g id="edge8_Node000002_Node000009" class="edge">
<title>Node2&#45;&gt;Node9</title>
<g id="a_edge8_Node000002_Node000009"><a xlink:title=" ">
<path fill="none" stroke="#63b8ff" d="M372.4,-402.52C394.1,-426.7 448.59,-483.24 506.75,-511.12 520.67,-517.8 536.73,-522.25 551.79,-525.21"/>
<polygon fill="#63b8ff" stroke="#63b8ff" points="551.11,-528.65 561.57,-526.94 552.33,-521.75 551.11,-528.65"/>
</a>
</g>
</g>
<!-- Node12 -->
<g id="Node000012" class="node">
<title>Node12</title>
<g id="a_Node000012"><a xlink:href="cmd__peripherals_8c.html#a32de1cde0b0101a969e28a296a893a0c" target="_top" xlink:title=" ">
<polygon fill="white" stroke="#666666" points="667.5,-502.25 545,-502.25 545,-480 667.5,-480 667.5,-502.25"/>
<text text-anchor="middle" x="606.25" y="-486.85" font-family="Arial" font-size="12.00">register_peripherals</text>
</a>
</g>
</g>
<!-- Node2&#45;&gt;Node12 -->
<g id="edge11_Node000002_Node000012" class="edge">
<title>Node2&#45;&gt;Node12</title>
<g id="a_edge11_Node000002_Node000012"><a xlink:title=" ">
<path fill="none" stroke="#63b8ff" d="M379,-402.51C405,-419.9 457.58,-452.99 506.75,-471.12 515.25,-474.26 524.35,-476.94 533.46,-479.23"/>
<polygon fill="#63b8ff" stroke="#63b8ff" points="532.52,-482.61 543.06,-481.49 534.12,-475.79 532.52,-482.61"/>
</a>
</g>
</g>
<!-- Node13 -->
<g id="Node000013" class="node">
<title>Node13</title>
<g id="a_Node000013"><a xlink:href="cmd__sdcard_8c.html#aee0a19b9ec59752b8124fcb5d3b45d23" target="_top" xlink:title="Register sdcard command.">
<polygon fill="white" stroke="#666666" points="655.5,-462.25 557,-462.25 557,-440 655.5,-440 655.5,-462.25"/>
<text text-anchor="middle" x="606.25" y="-446.85" font-family="Arial" font-size="12.00">register_sdcard</text>
</a>
</g>
</g>
<!-- Node2&#45;&gt;Node13 -->
<g id="edge12_Node000002_Node000013" class="edge">
<title>Node2&#45;&gt;Node13</title>
<g id="a_edge12_Node000002_Node000013"><a xlink:title=" ">
<path fill="none" stroke="#63b8ff" d="M401.49,-402.74C430.41,-411.15 470.86,-422.52 506.75,-431.12 519.22,-434.12 532.64,-437.04 545.45,-439.68"/>
<polygon fill="#63b8ff" stroke="#63b8ff" points="544.52,-443.07 555.02,-441.63 545.92,-436.21 544.52,-443.07"/>
</a>
</g>
</g>
<!-- Node14 -->
<g id="Node000014" class="node">
<title>Node14</title>
<g id="a_Node000014"><a xlink:href="cmd__system_8c.html#a5cea85be00cb1ee5b57616da2fec81dd" target="_top" xlink:title=" ">
<polygon fill="white" stroke="#666666" points="656.25,-422.25 556.25,-422.25 556.25,-400 656.25,-400 656.25,-422.25"/>
<text text-anchor="middle" x="606.25" y="-406.85" font-family="Arial" font-size="12.00">register_system</text>
</a>
</g>
</g>
<!-- Node2&#45;&gt;Node14 -->
<g id="edge13_Node000002_Node000014" class="edge">
<title>Node2&#45;&gt;Node14</title>
<g id="a_edge13_Node000002_Node000014"><a xlink:title=" ">
<path fill="none" stroke="#63b8ff" d="M471.09,-400.07C496.36,-402.15 522.37,-404.3 544.68,-406.13"/>
<polygon fill="#63b8ff" stroke="#63b8ff" points="544.22,-409.61 554.48,-406.94 544.8,-402.63 544.22,-409.61"/>
</a>
</g>
</g>
<!-- Node15 -->
<g id="Node000015" class="node">
<title>Node15</title>
<g id="a_Node000015"><a xlink:href="cmd__wifi_8c.html#acc3b783818c73878210baf4064425629" target="_top" xlink:title=" ">
<polygon fill="white" stroke="#666666" points="646.5,-382.25 566,-382.25 566,-360 646.5,-360 646.5,-382.25"/>
<text text-anchor="middle" x="606.25" y="-366.85" font-family="Arial" font-size="12.00">register_wifi</text>
</a>
</g>
</g>
<!-- Node2&#45;&gt;Node15 -->
<g id="edge14_Node000002_Node000015" class="edge">
<title>Node2&#45;&gt;Node15</title>
<g id="a_edge14_Node000002_Node000015"><a xlink:title=" ">
<path fill="none" stroke="#63b8ff" d="M471.09,-382.18C500.06,-379.79 530.01,-377.32 554.24,-375.33"/>
<polygon fill="#63b8ff" stroke="#63b8ff" points="554.46,-378.82 564.14,-374.51 553.88,-371.85 554.46,-378.82"/>
</a>
</g>
</g>
<!-- Node19 -->
<g id="Node000019" class="node">
<title>Node19</title>
<g id="a_Node000019"><a xlink:href="cmd__wifi__sniffer_8c.html#aeca2ef6acde5704f187f7f3734ca0a51" target="_top" xlink:title=" ">
<polygon fill="white" stroke="#666666" points="666,-342.25 546.5,-342.25 546.5,-320 666,-320 666,-342.25"/>
<text text-anchor="middle" x="606.25" y="-326.85" font-family="Arial" font-size="12.00">register_wifi_sniffer</text>
</a>
</g>
</g>
<!-- Node2&#45;&gt;Node19 -->
<g id="edge18_Node000002_Node000019" class="edge">
<title>Node2&#45;&gt;Node19</title>
<g id="a_edge18_Node000002_Node000019"><a xlink:title=" ">
<path fill="none" stroke="#63b8ff" d="M401.49,-379.51C430.41,-371.1 470.86,-359.73 506.75,-351.12 515.9,-348.93 525.56,-346.77 535.11,-344.74"/>
<polygon fill="#63b8ff" stroke="#63b8ff" points="535.69,-348.19 544.76,-342.71 534.26,-341.34 535.69,-348.19"/>
</a>
</g>
</g>
<!-- Node20 -->
<g id="Node000020" class="node">
<title>Node20</title>
<g id="a_Node000020"><a xlink:href="sdcard_8c.html#ae3e13ea01aad71d69c7e3c4656de1803" target="_top" xlink:title="Initialize sdcard, Using SDMMC peripheral.">
<polygon fill="white" stroke="#666666" points="643.5,-302.25 569,-302.25 569,-280 643.5,-280 643.5,-302.25"/>
<text text-anchor="middle" x="606.25" y="-286.85" font-family="Arial" font-size="12.00">sdcard_init</text>
</a>
</g>
</g>
<!-- Node2&#45;&gt;Node20 -->
<g id="edge19_Node000002_Node000020" class="edge">
<title>Node2&#45;&gt;Node20</title>
<g id="a_edge19_Node000002_Node000020"><a xlink:title=" ">
<path fill="none" stroke="#63b8ff" d="M379,-379.74C405,-362.35 457.58,-329.26 506.75,-311.12 522.98,-305.14 541.41,-300.79 557.9,-297.71"/>
<polygon fill="#63b8ff" stroke="#63b8ff" points="558.22,-301.21 567.47,-296.03 557.01,-294.31 558.22,-301.21"/>
</a>
</g>
</g>
<!-- Node21 -->
<g id="Node000021" class="node">
<title>Node21</title>
<g id="a_Node000021"><a xlink:href="sdcard_8c.html#a1ee82a88b28b169594e94eada1cf1233" target="_top" xlink:title="Check if sdcard is mounted.">
<polygon fill="white" stroke="#666666" points="660,-262.25 552.5,-262.25 552.5,-240 660,-240 660,-262.25"/>
<text text-anchor="middle" x="606.25" y="-246.85" font-family="Arial" font-size="12.00">sdcard_is_mount</text>
</a>
</g>
</g>
<!-- Node2&#45;&gt;Node21 -->
<g id="edge20_Node000002_Node000021" class="edge">
<title>Node2&#45;&gt;Node21</title>
<g id="a_edge20_Node000002_Node000021"><a xlink:title=" ">
<path fill="none" stroke="#63b8ff" d="M372.4,-379.73C394.1,-355.55 448.59,-299.01 506.75,-271.12 517.36,-266.04 529.22,-262.24 540.93,-259.41"/>
<polygon fill="#63b8ff" stroke="#63b8ff" points="541.56,-262.85 550.59,-257.3 540.07,-256.02 541.56,-262.85"/>
</a>
</g>
</g>
<!-- Node4 -->
<g id="Node000004" class="node">
<title>Node4</title>
<g id="a_Node000004"><a xlink:href="cmd__espnow_8c.html#a663e227ca7f408c5e70f3a543066c1f3" target="_top" xlink:title="Register command command.">
<polygon fill="white" stroke="#666666" points="873.62,-742.25 758.62,-742.25 758.62,-720 873.62,-720 873.62,-742.25"/>
<text text-anchor="middle" x="816.12" y="-726.85" font-family="Arial" font-size="12.00">register_command</text>
</a>
</g>
</g>
<!-- Node3&#45;&gt;Node4 -->
<g id="edge3_Node000003_Node000004" class="edge">
<title>Node3&#45;&gt;Node4</title>
<g id="a_edge3_Node000003_Node000004"><a xlink:title=" ">
<path fill="none" stroke="#63b8ff" d="M623.06,-642.47C647.45,-659.52 696.23,-691.81 741.75,-711.12 745.99,-712.92 750.43,-714.6 754.95,-716.16"/>
<polygon fill="#63b8ff" stroke="#63b8ff" points="753.53,-719.38 764.12,-719.12 755.68,-712.72 753.53,-719.38"/>
</a>
</g>
</g>
<!-- Node5 -->
<g id="Node000005" class="node">
<title>Node5</title>
<g id="a_Node000005"><a xlink:href="cmd__espnow_8c.html#a133f010c7f704fae3fd7c7844ab8adb4" target="_top" xlink:title=" ">
<polygon fill="white" stroke="#666666" points="865.38,-702.25 766.88,-702.25 766.88,-680 865.38,-680 865.38,-702.25"/>
<text text-anchor="middle" x="816.12" y="-686.85" font-family="Arial" font-size="12.00">register_control</text>
</a>
</g>
</g>
<!-- Node3&#45;&gt;Node5 -->
<g id="edge4_Node000003_Node000005" class="edge">
<title>Node3&#45;&gt;Node5</title>
<g id="a_edge4_Node000003_Node000005"><a xlink:title=" ">
<path fill="none" stroke="#63b8ff" d="M645.45,-642.74C672.33,-650.85 709.18,-661.85 741.75,-671.12 748.01,-672.91 754.59,-674.75 761.12,-676.56"/>
<polygon fill="#63b8ff" stroke="#63b8ff" points="759.98,-679.87 770.55,-679.15 761.84,-673.12 759.98,-679.87"/>
</a>
</g>
</g>
<!-- Node6 -->
<g id="Node000006" class="node">
<title>Node6</title>
<g id="a_Node000006"><a xlink:href="cmd__espnow_8c.html#a4116f70abed28605f9edde3cb2b49df3" target="_top" xlink:title=" ">
<polygon fill="white" stroke="#666666" points="855.62,-662.25 776.62,-662.25 776.62,-640 855.62,-640 855.62,-662.25"/>
<text text-anchor="middle" x="816.12" y="-646.85" font-family="Arial" font-size="12.00">register_ota</text>
</a>
</g>
</g>
<!-- Node3&#45;&gt;Node6 -->
<g id="edge5_Node000003_Node000006" class="edge">
<title>Node3&#45;&gt;Node6</title>
<g id="a_edge5_Node000003_Node000006"><a xlink:title=" ">
<path fill="none" stroke="#63b8ff" d="M658.9,-636.09C691.24,-639.21 732.72,-643.2 764.8,-646.28"/>
<polygon fill="#63b8ff" stroke="#63b8ff" points="764.37,-649.76 774.66,-647.23 765.04,-642.79 764.37,-649.76"/>
</a>
</g>
</g>
<!-- Node7 -->
<g id="Node000007" class="node">
<title>Node7</title>
<g id="a_Node000007"><a xlink:href="cmd__espnow_8c.html#a250a2960cac20a0a927ea9ee538d0ed1" target="_top" xlink:title=" ">
<polygon fill="white" stroke="#666666" points="880,-622.25 752.25,-622.25 752.25,-600 880,-600 880,-622.25"/>
<text text-anchor="middle" x="816.12" y="-606.85" font-family="Arial" font-size="12.00">register_provisioning</text>
</a>
</g>
</g>
<!-- Node3&#45;&gt;Node7 -->
<g id="edge6_Node000003_Node000007" class="edge">
<title>Node3&#45;&gt;Node7</title>
<g id="a_edge6_Node000003_Node000007"><a xlink:title=" ">
<path fill="none" stroke="#63b8ff" d="M658.9,-626.16C683.52,-623.79 713.43,-620.91 740.47,-618.31"/>
<polygon fill="#63b8ff" stroke="#63b8ff" points="740.73,-621.8 750.35,-617.36 740.06,-614.83 740.73,-621.8"/>
</a>
</g>
</g>
<!-- Node8 -->
<g id="Node000008" class="node">
<title>Node8</title>
<g id="a_Node000008"><a xlink:href="cmd__espnow_8c.html#a952bdf39df32da2582cc93259df66b21" target="_top" xlink:title=" ">
<polygon fill="white" stroke="#666666" points="860.12,-582.25 772.12,-582.25 772.12,-560 860.12,-560 860.12,-582.25"/>
<text text-anchor="middle" x="816.12" y="-566.85" font-family="Arial" font-size="12.00">register_scan</text>
</a>
</g>
</g>
<!-- Node3&#45;&gt;Node8 -->
<g id="edge7_Node000003_Node000008" class="edge">
<title>Node3&#45;&gt;Node8</title>
<g id="a_edge7_Node000003_Node000008"><a xlink:title=" ">
<path fill="none" stroke="#63b8ff" d="M645.45,-619.51C672.33,-611.4 709.18,-600.4 741.75,-591.12 748.01,-589.34 754.59,-587.5 761.12,-585.69"/>
<polygon fill="#63b8ff" stroke="#63b8ff" points="761.84,-589.13 770.55,-583.1 759.98,-582.38 761.84,-589.13"/>
</a>
</g>
</g>
<!-- Node10 -->
<g id="Node000010" class="node">
<title>Node10</title>
<g id="a_Node000010"><a xlink:href="cmd__iperf_8c.html#a59752ecd5d3a975453892e77911181f3" target="_top" xlink:title=" ">
<polygon fill="white" stroke="#666666" points="887.88,-542.25 744.38,-542.25 744.38,-520 887.88,-520 887.88,-542.25"/>
<text text-anchor="middle" x="816.12" y="-526.85" font-family="Arial" font-size="12.00">register_espnow_config</text>
</a>
</g>
</g>
<!-- Node9&#45;&gt;Node10 -->
<g id="edge9_Node000009_Node000010" class="edge">
<title>Node9&#45;&gt;Node10</title>
<g id="a_edge9_Node000009_Node000010"><a xlink:title=" ">
<path fill="none" stroke="#63b8ff" d="M649.57,-531.12C673.57,-531.12 704.42,-531.12 732.98,-531.12"/>
<polygon fill="#63b8ff" stroke="#63b8ff" points="732.7,-534.63 742.7,-531.13 732.7,-527.63 732.7,-534.63"/>
</a>
</g>
</g>
<!-- Node11 -->
<g id="Node000011" class="node">
<title>Node11</title>
<g id="a_Node000011"><a xlink:href="cmd__iperf_8c.html#a3e3a4b00f06201a66ee042ac3363f9de" target="_top" xlink:title=" ">
<polygon fill="white" stroke="#666666" points="883.38,-502.25 748.88,-502.25 748.88,-480 883.38,-480 883.38,-502.25"/>
<text text-anchor="middle" x="816.12" y="-486.85" font-family="Arial" font-size="12.00">register_espnow_iperf</text>
</a>
</g>
</g>
<!-- Node9&#45;&gt;Node11 -->
<g id="edge10_Node000009_Node000011" class="edge">
<title>Node9&#45;&gt;Node11</title>
<g id="a_edge10_Node000009_Node000011"><a xlink:title=" ">
<path fill="none" stroke="#63b8ff" d="M649.57,-522.98C676.65,-517.77 712.46,-510.88 743.85,-504.84"/>
<polygon fill="#63b8ff" stroke="#63b8ff" points="744.1,-508.36 753.26,-503.03 742.77,-501.48 744.1,-508.36"/>
</a>
</g>
</g>
<!-- Node16 -->
<g id="Node000016" class="node">
<title>Node16</title>
<g id="a_Node000016"><a xlink:href="cmd__wifi_8c.html#a53edfa7e48af95ba07348e7c1421feea" target="_top" xlink:title=" ">
<polygon fill="white" stroke="#666666" points="866.5,-422.25 765.75,-422.25 765.75,-400 866.5,-400 866.5,-422.25"/>
<text text-anchor="middle" x="816.12" y="-406.85" font-family="Arial" font-size="12.00">register_wifi_ap</text>
</a>
</g>
</g>
<!-- Node15&#45;&gt;Node16 -->
<g id="edge15_Node000015_Node000016" class="edge">
<title>Node15&#45;&gt;Node16</title>
<g id="a_edge15_Node000015_Node000016"><a xlink:title=" ">
<path fill="none" stroke="#63b8ff" d="M646.84,-378.74C677.24,-384.59 719.75,-392.77 754.44,-399.45"/>
<polygon fill="#63b8ff" stroke="#63b8ff" points="753.43,-402.82 763.91,-401.27 754.75,-395.94 753.43,-402.82"/>
</a>
</g>
</g>
<!-- Node17 -->
<g id="Node000017" class="node">
<title>Node17</title>
<g id="a_Node000017"><a xlink:href="cmd__wifi_8c.html#a829e61400c74b6e8b03ebbc968fb6ae9" target="_top" xlink:title=" ">
<polygon fill="white" stroke="#666666" points="871.38,-382.25 760.88,-382.25 760.88,-360 871.38,-360 871.38,-382.25"/>
<text text-anchor="middle" x="816.12" y="-366.85" font-family="Arial" font-size="12.00">register_wifi_ping</text>
</a>
</g>
</g>
<!-- Node15&#45;&gt;Node17 -->
<g id="edge16_Node000015_Node000017" class="edge">
<title>Node15&#45;&gt;Node17</title>
<g id="a_edge16_Node000015_Node000017"><a xlink:title=" ">
<path fill="none" stroke="#63b8ff" d="M646.84,-371.12C675.84,-371.12 715.85,-371.12 749.59,-371.12"/>
<polygon fill="#63b8ff" stroke="#63b8ff" points="749.25,-374.63 759.25,-371.13 749.25,-367.63 749.25,-374.63"/>
</a>
</g>
</g>
<!-- Node18 -->
<g id="Node000018" class="node">
<title>Node18</title>
<g id="a_Node000018"><a xlink:href="cmd__wifi_8c.html#af11c2a0aaba22bf6cce6d38be617ed89" target="_top" xlink:title="Register wifi scan command.">
<polygon fill="white" stroke="#666666" points="872.5,-342.25 759.75,-342.25 759.75,-320 872.5,-320 872.5,-342.25"/>
<text text-anchor="middle" x="816.12" y="-326.85" font-family="Arial" font-size="12.00">register_wifi_scan</text>
</a>
</g>
</g>
<!-- Node15&#45;&gt;Node18 -->
<g id="edge17_Node000015_Node000018" class="edge">
<title>Node15&#45;&gt;Node18</title>
<g id="a_edge17_Node000015_Node000018"><a xlink:title=" ">
<path fill="none" stroke="#63b8ff" d="M646.84,-363.51C675.52,-357.99 714.98,-350.4 748.48,-343.95"/>
<polygon fill="#63b8ff" stroke="#63b8ff" points="748.94,-347.42 758.1,-342.1 747.62,-340.55 748.94,-347.42"/>
</a>
</g>
</g>
<!-- Node23 -->
<g id="Node000023" class="node">
<title>Node23</title>
<g id="a_Node000023"><a xlink:href="espnow_8c.html#a5e8b13ca7f586bed41ed5779b84f61f4" target="_top" xlink:title="Set configuration when receiving the corresponding ESP&#45;NOW data type Include: Set to enable/disable h...">
<polygon fill="white" stroke="#666666" points="705.75,-222.25 506.75,-222.25 506.75,-200 705.75,-200 705.75,-222.25"/>
<text text-anchor="middle" x="606.25" y="-206.85" font-family="Arial" font-size="12.00">espnow_set_config_for_data_type</text>
</a>
</g>
</g>
<!-- Node22&#45;&gt;Node23 -->
<g id="edge22_Node000022_Node000023" class="edge">
<title>Node22&#45;&gt;Node23</title>
<g id="a_edge22_Node000022_Node000023"><a xlink:title=" ">
<path fill="none" stroke="#63b8ff" d="M426.6,-196.41C447.6,-198.14 471.58,-200.11 494.99,-202.04"/>
<polygon fill="#63b8ff" stroke="#63b8ff" points="494.67,-205.53 504.92,-202.86 495.24,-198.55 494.67,-205.53"/>
</a>
</g>
</g>
<!-- Node25 -->
<g id="Node000025" class="node">
<title>Node25</title>
<g id="a_Node000025"><a xlink:href="espnow_8c.html#ab9e96f875511fcc24184f7b863ff8747" target="_top" xlink:title="When used for unicast, add the target device.">
<polygon fill="white" stroke="#666666" points="664.12,-182.25 548.38,-182.25 548.38,-160 664.12,-160 664.12,-182.25"/>
<text text-anchor="middle" x="606.25" y="-166.85" font-family="Arial" font-size="12.00">espnow_add_peer</text>
</a>
</g>
</g>
<!-- Node24&#45;&gt;Node25 -->
<g id="edge24_Node000024_Node000025" class="edge">
<title>Node24&#45;&gt;Node25</title>
<g id="a_edge24_Node000024_Node000025"><a xlink:title=" ">
<path fill="none" stroke="#63b8ff" d="M402.04,-137.64C438.5,-143.65 493.4,-152.69 536.95,-159.87"/>
<polygon fill="#63b8ff" stroke="#63b8ff" points="536.11,-163.28 546.55,-161.45 537.25,-156.37 536.11,-163.28"/>
</a>
</g>
</g>
<!-- Node26 -->
<g id="Node000026" class="node">
<title>Node26</title>
<g id="a_Node000026"><a xlink:href="espnow_8c.html#ae2e7d37b72ff59a530a9447bea4aa106" target="_top" xlink:title=" ">
<polygon fill="white" stroke="#666666" points="659.62,-142.25 552.88,-142.25 552.88,-120 659.62,-120 659.62,-142.25"/>
<text text-anchor="middle" x="606.25" y="-126.85" font-family="Arial" font-size="12.00">espnow_recv_cb</text>
</a>
</g>
</g>
<!-- Node24&#45;&gt;Node26 -->
<g id="edge25_Node000024_Node000026" class="edge">
<title>Node24&#45;&gt;Node26</title>
<g id="a_edge25_Node000024_Node000026"><a xlink:title=" ">
<path fill="none" stroke="#63b8ff" d="M402.04,-131.12C439.66,-131.12 496.9,-131.12 541.05,-131.12"/>
<polygon fill="#63b8ff" stroke="#63b8ff" points="541.04,-134.63 551.04,-131.13 541.04,-127.63 541.04,-134.63"/>
</a>
</g>
</g>
<!-- Node31 -->
<g id="Node000031" class="node">
<title>Node31</title>
<g id="a_Node000031"><a xlink:href="espnow__security_8c.html#accbf76d2b120ee4e43003ad1472c2b05" target="_top" xlink:title="Initialize the specified security info.">
<polygon fill="white" stroke="#666666" points="659.25,-102.25 553.25,-102.25 553.25,-80 659.25,-80 659.25,-102.25"/>
<text text-anchor="middle" x="606.25" y="-86.85" font-family="Arial" font-size="12.00">espnow_sec_init</text>
</a>
</g>
</g>
<!-- Node24&#45;&gt;Node31 -->
<g id="edge30_Node000024_Node000031" class="edge">
<title>Node24&#45;&gt;Node31</title>
<g id="a_edge30_Node000024_Node000031"><a xlink:title=" ">
<path fill="none" stroke="#63b8ff" d="M402.04,-124.61C439.86,-118.38 497.52,-108.88 541.77,-101.59"/>
<polygon fill="#63b8ff" stroke="#63b8ff" points="542.21,-105.06 551.51,-99.98 541.07,-98.15 542.21,-105.06"/>
</a>
</g>
</g>
<!-- Node32 -->
<g id="Node000032" class="node">
<title>Node32</title>
<g id="a_Node000032"><a xlink:href="espnow_8c.html#ae3d39a3c355f8c0a8297f76a28f7eaee" target="_top" xlink:title=" ">
<polygon fill="white" stroke="#666666" points="661.5,-62.25 551,-62.25 551,-40 661.5,-40 661.5,-62.25"/>
<text text-anchor="middle" x="606.25" y="-46.85" font-family="Arial" font-size="12.00">espnow_send_cb</text>
</a>
</g>
</g>
<!-- Node24&#45;&gt;Node32 -->
<g id="edge31_Node000024_Node000032" class="edge">
<title>Node24&#45;&gt;Node32</title>
<g id="a_edge31_Node000024_Node000032"><a xlink:title=" ">
<path fill="none" stroke="#63b8ff" d="M402.15,-129.94C423.61,-127.84 449.9,-122.79 470.75,-111.12 491.62,-99.44 485.98,-82.99 506.75,-71.12 516.8,-65.38 528.25,-61.28 539.7,-58.34"/>
<polygon fill="#63b8ff" stroke="#63b8ff" points="540.18,-61.82 549.16,-56.2 538.63,-54.99 540.18,-61.82"/>
</a>
</g>
</g>
<!-- Node27 -->
<g id="Node000027" class="node">
<title>Node27</title>
<g id="a_Node000027"><a xlink:href="espnow_8h.html#af0be4b97c8dad6c432c969e960110c1e" target="_top" xlink:title="Set group ID addresses.">
<polygon fill="white" stroke="#666666" points="877.38,-202.25 754.88,-202.25 754.88,-180 877.38,-180 877.38,-202.25"/>
<text text-anchor="middle" x="816.12" y="-186.85" font-family="Arial" font-size="12.00">espnow_add_group</text>
</a>
</g>
</g>
<!-- Node26&#45;&gt;Node27 -->
<g id="edge26_Node000026_Node000027" class="edge">
<title>Node26&#45;&gt;Node27</title>
<g id="a_edge26_Node000026_Node000027"><a xlink:title=" ">
<path fill="none" stroke="#63b8ff" d="M659.97,-138.74C675.02,-141.73 691.26,-145.78 705.75,-151.12 722.92,-157.46 724.8,-164.22 741.75,-171.12 746.08,-172.89 750.62,-174.55 755.23,-176.1"/>
<polygon fill="#63b8ff" stroke="#63b8ff" points="754,-179.38 764.59,-179.05 756.11,-172.7 754,-179.38"/>
</a>
</g>
</g>
<!-- Node28 -->
<g id="Node000028" class="node">
<title>Node28</title>
<g id="a_Node000028"><a xlink:href="espnow__group_8c.html#a875855b479ddb660719afebdc90b8b4d" target="_top" xlink:title="Delete group ID addresses.">
<polygon fill="white" stroke="#666666" points="875.5,-162.25 756.75,-162.25 756.75,-140 875.5,-140 875.5,-162.25"/>
<text text-anchor="middle" x="816.12" y="-146.85" font-family="Arial" font-size="12.00">espnow_del_group</text>
</a>
</g>
</g>
<!-- Node26&#45;&gt;Node28 -->
<g id="edge27_Node000026_Node000028" class="edge">
<title>Node26&#45;&gt;Node28</title>
<g id="a_edge27_Node000026_Node000028"><a xlink:title=" ">
<path fill="none" stroke="#63b8ff" d="M659.97,-136.2C685.88,-138.69 717.43,-141.73 745.31,-144.41"/>
<polygon fill="#63b8ff" stroke="#63b8ff" points="744.8,-147.87 755.09,-145.35 745.47,-140.91 744.8,-147.87"/>
</a>
</g>
</g>
<!-- Node29 -->
<g id="Node000029" class="node">
<title>Node29</title>
<g id="a_Node000029"><a xlink:href="espnow__group_8c.html#aa7b993563fd6da0fb75573573733daa3" target="_top" xlink:title="Get the number of group ID addresses.">
<polygon fill="white" stroke="#666666" points="890.5,-122.25 741.75,-122.25 741.75,-100 890.5,-100 890.5,-122.25"/>
<text text-anchor="middle" x="816.12" y="-106.85" font-family="Arial" font-size="12.00">espnow_get_group_num</text>
</a>
</g>
</g>
<!-- Node26&#45;&gt;Node29 -->
<g id="edge28_Node000026_Node000029" class="edge">
<title>Node26&#45;&gt;Node29</title>
<g id="a_edge28_Node000026_Node000029"><a xlink:title=" ">
<path fill="none" stroke="#63b8ff" d="M659.97,-126.05C681.26,-124 706.37,-121.59 730.11,-119.3"/>
<polygon fill="#63b8ff" stroke="#63b8ff" points="730.15,-122.82 739.76,-118.38 729.47,-115.85 730.15,-122.82"/>
</a>
</g>
</g>
<!-- Node30 -->
<g id="Node000030" class="node">
<title>Node30</title>
<g id="a_Node000030"><a xlink:href="espnow__group_8c.html#af826ca7f397223b5075b39529f9ba115" target="_top" xlink:title="Check whether the specified group address is my group.">
<polygon fill="white" stroke="#666666" points="883,-82.25 749.25,-82.25 749.25,-60 883,-60 883,-82.25"/>
<text text-anchor="middle" x="816.12" y="-66.85" font-family="Arial" font-size="12.00">espnow_is_my_group</text>
</a>
</g>
</g>
<!-- Node26&#45;&gt;Node30 -->
<g id="edge29_Node000026_Node000030" class="edge">
<title>Node26&#45;&gt;Node30</title>
<g id="a_edge29_Node000026_Node000030"><a xlink:title=" ">
<path fill="none" stroke="#63b8ff" d="M659.97,-123.51C675.02,-120.52 691.26,-116.47 705.75,-111.12 722.92,-104.79 724.8,-98.03 741.75,-91.12 746.08,-89.36 750.62,-87.7 755.23,-86.15"/>
<polygon fill="#63b8ff" stroke="#63b8ff" points="756.11,-89.55 764.59,-83.2 754,-82.87 756.11,-89.55"/>
</a>
</g>
</g>
<!-- Node34 -->
<g id="Node000034" class="node">
<title>Node34</title>
<g id="a_Node000034"><a xlink:href="espnow__log__flash_8c.html#a8f2cce758ed84ea78771e12972d3e929" target="_top" xlink:title="Initialize espnow log flash Find and get log flash partition which size is not smaller than LOG_FLASH...">
<polygon fill="white" stroke="#666666" points="674.25,-22.25 538.25,-22.25 538.25,0 674.25,0 674.25,-22.25"/>
<text text-anchor="middle" x="606.25" y="-6.85" font-family="Arial" font-size="12.00">espnow_log_flash_init</text>
</a>
</g>
</g>
<!-- Node33&#45;&gt;Node34 -->
<g id="edge33_Node000033_Node000034" class="edge">
<title>Node33&#45;&gt;Node34</title>
<g id="a_edge33_Node000033_Node000034"><a xlink:title=" ">
<path fill="none" stroke="#63b8ff" d="M413.87,-88.54C432.7,-85.86 453.57,-80.74 470.75,-71.12 491.62,-59.44 485.98,-42.99 506.75,-31.12 513.09,-27.5 519.99,-24.53 527.09,-22.09"/>
<polygon fill="#63b8ff" stroke="#63b8ff" points="527.98,-25.48 536.54,-19.23 525.95,-18.78 527.98,-25.48"/>
</a>
</g>
</g>
</g>
</svg>

<g id="navigator" transform="translate(0 0)" fill="#404254">
  <rect fill="#f2f5e9" fill-opacity="0.5" stroke="#606060" stroke-width=".5" x="0" y="0" width="60" height="60"/>
  <use id="zoomplus" xlink:href="#zoomPlus" x="17" y="9" onmousedown="handleZoom(evt,'in')"/>
  <use id="zoomminus" xlink:href="#zoomMin" x="42" y="9" onmousedown="handleZoom(evt,'out')"/>
  <use id="reset" xlink:href="#resetDef" x="30" y="36" onmousedown="handleReset()"/>
   <use id="arrowup" xlink:href="#arrowUp" x="0" y="0" onmousedown="handlePan(0,-1)"/>
  <use id="arrowright" xlink:href="#arrowRight" x="0" y="0" onmousedown="handlePan(1,0)"/>
  <use id="arrowdown" xlink:href="#arrowDown" x="0" y="0" onmousedown="handlePan(0,1)"/>
  <use id="arrowleft" xlink:href="#arrowLeft" x="0" y="0" onmousedown="handlePan(-1,0)"/>
</g>
<svg viewBox="0 0 15 15" width="100%" height="30px" preserveAspectRatio="xMaxYMin meet">
 <g id="arrow_out" transform="scale(0.3 0.3)">
  <a xlink:href="monitored_8c_ad027b7ef6355a241f0590f8d6ad74615_cgraph_org.svg" target="_base">
   <rect id="button" ry="5" rx="5" y="6" x="6" height="38" width="38"
        fill="#f2f5e9" fill-opacity="0.5" stroke="#606060" stroke-width="1.0"/>
   <path id="arrow"
     d="M 11.500037,31.436501 C 11.940474,20.09759 22.043105,11.32322 32.158766,21.979434 L 37.068811,17.246167 C 37.068811,17.246167 37.088388,32 37.088388,32 L 22.160133,31.978069 C 22.160133,31.978069 26.997745,27.140456 26.997745,27.140456 C 18.528582,18.264221 13.291696,25.230495 11.500037,31.436501 z"
     style="fill:#404040;"/>
  </a>
 </g>
</svg>

<style type='text/css'>
<![CDATA[
[data-mouse-over-selected='false'] { opacity: 0.7; }
[data-mouse-over-selected='true']  { opacity: 1.0; }
]]>
</style>
<script type="application/ecmascript"><![CDATA[
document.addEventListener('DOMContentLoaded', (event) => {
  highlightEdges();
  highlightAdjacentNodes();
});
]]></script>
</svg>
