<?xml version="1.0" encoding="UTF-8" standalone="no"?>
<!DOCTYPE svg PUBLIC "-//W3C//DTD SVG 1.1//EN"
 "http://www.w3.org/Graphics/SVG/1.1/DTD/svg11.dtd">
<!-- Generated by graphviz version 12.2.1 (20241206.2353)
 -->
<!-- Title: app_espnow_monitor_device_start Pages: 1 -->
<!--zoomable 710 -->

<svg id="main" version="1.1" xmlns="http://www.w3.org/2000/svg" xmlns:xlink="http://www.w3.org/1999/xlink" xml:space="preserve" onload="init(evt)">

<style type="text/css"><![CDATA[
.node, .edge {opacity: 0.7;}
.node.selected, .edge.selected {opacity: 1;}
.edge:hover path { stroke: red; }
.edge:hover polygon { stroke: red; fill: red; }
]]></style>

<defs>
  <circle id="rim" cx="0" cy="0" r="7"/>
  <circle id="rim2" cx="0" cy="0" r="3.5"/>
  <g id="zoomPlus">
    <use xlink:href="#rim" fill="#404040"><set attributeName="fill" to="#808080" begin="zoomplus.mouseover" end="zoomplus.mouseout"/></use>
    <path d="M-4,0h8M0,-4v8" fill="none" stroke="white" stroke-width="1.5" pointer-events="none"/>
  </g>
  <g id="zoomMin">
    <use xlink:href="#rim" fill="#404040"><set attributeName="fill" to="#808080" begin="zoomminus.mouseover" end="zoomminus.mouseout"/></use>
    <path d="M-4,0h8" fill="none" stroke="white" stroke-width="1.5" pointer-events="none"/>
  </g>
  <g id="arrowUp" transform="translate(30 24)">
    <use xlink:href="#rim"/>
    <path pointer-events="none" fill="none" stroke="white" stroke-width="1.5" d="M0,-3.0v7 M-2.5,-0.5L0,-3.0L2.5,-0.5"/>
  </g>
  <g id="arrowRight" transform="rotate(90) translate(36 -43)">
    <use xlink:href="#rim"/>
    <path pointer-events="none" fill="none" stroke="white" stroke-width="1.5" d="M0,-3.0v7 M-2.5,-0.5L0,-3.0L2.5,-0.5"/>
  </g>
  <g id="arrowDown" transform="rotate(180) translate(-30 -48)">
    <use xlink:href="#rim"/>
    <path pointer-events="none" fill="none" stroke="white" stroke-width="1.5" d="M0,-3.0v7 M-2.5,-0.5L0,-3.0L2.5,-0.5"/>
  </g>
  <g id="arrowLeft" transform="rotate(270) translate(-36 17)">
    <use xlink:href="#rim"/>
    <path pointer-events="none" fill="none" stroke="white" stroke-width="1.5" d="M0,-3.0v7 M-2.5,-0.5L0,-3.0L2.5,-0.5"/>
  </g>
  <g id="resetDef">
    <use xlink:href="#rim2" fill="#404040"><set attributeName="fill" to="#808080" begin="reset.mouseover" end="reset.mouseout"/></use>
  </g>
</defs>
<script type="application/ecmascript">
var viewWidth = 885;
var viewHeight = 710;
var sectionId = 'dynsection-0';
</script>
<script type="application/ecmascript" xlink:href="svg.min.js"/>
<svg id="graph" class="graph">
<g id="viewport">
<title>app_espnow_monitor_device_start</title>
<!-- Node1 -->
<g id="Node000001" class="node">
<title>Node1</title>
<g id="a_Node000001"><a xlink:title=" ">
<polygon fill="#999999" stroke="#666666" points="202.75,-143.25 0,-143.25 0,-121 202.75,-121 202.75,-143.25"/>
<text text-anchor="middle" x="101.38" y="-127.85" font-family="Arial" font-size="12.00">app_espnow_monitor_device_start</text>
</a>
</g>
</g>
<!-- Node2 -->
<g id="Node000002" class="node">
<title>Node2</title>
<g id="a_Node000002"><a xlink:href="espnow__commands_8c.html#a0bb86e9397ef9f6da395e1a03b34a139" target="_top" xlink:title="Register Common commands.">
<polygon fill="white" stroke="#666666" points="457.25,-362.25 238.75,-362.25 238.75,-340 457.25,-340 457.25,-362.25"/>
<text text-anchor="middle" x="348" y="-346.85" font-family="Arial" font-size="12.00">espnow_console_commands_register</text>
</a>
</g>
</g>
<!-- Node1&#45;&gt;Node2 -->
<g id="edge1_Node000001_Node000002" class="edge">
<title>Node1&#45;&gt;Node2</title>
<g id="a_edge1_Node000001_Node000002"><a xlink:title=" ">
<path fill="none" stroke="#63b8ff" d="M115.18,-143.59C154.89,-179.13 276.19,-287.73 325.66,-332.02"/>
<polygon fill="#63b8ff" stroke="#63b8ff" points="323.11,-334.44 332.9,-338.5 327.78,-329.22 323.11,-334.44"/>
</a>
</g>
</g>
<!-- Node22 -->
<g id="Node000022" class="node">
<title>Node22</title>
<g id="a_Node000022"><a xlink:href="espnow__console_8c.html#aa6f31005efa0f0074f02968b96f8bd7a" target="_top" xlink:title="Initialize console module.">
<polygon fill="white" stroke="#666666" points="412.62,-182.25 283.38,-182.25 283.38,-160 412.62,-160 412.62,-182.25"/>
<text text-anchor="middle" x="348" y="-166.85" font-family="Arial" font-size="12.00">espnow_console_init</text>
</a>
</g>
</g>
<!-- Node1&#45;&gt;Node22 -->
<g id="edge21_Node000001_Node000022" class="edge">
<title>Node1&#45;&gt;Node22</title>
<g id="a_edge21_Node000001_Node000022"><a xlink:title=" ">
<path fill="none" stroke="#63b8ff" d="M175.11,-143.72C205.71,-148.6 241.31,-154.27 272.14,-159.19"/>
<polygon fill="#63b8ff" stroke="#63b8ff" points="271.34,-162.61 281.77,-160.73 272.44,-155.69 271.34,-162.61"/>
</a>
</g>
</g>
<!-- Node23 -->
<g id="Node000023" class="node">
<title>Node23</title>
<g id="a_Node000023"><a xlink:href="espnow_8c.html#a5e8b13ca7f586bed41ed5779b84f61f4" target="_top" xlink:title="Set configuration when receiving the corresponding ESP&#45;NOW data type Include: Set to enable/disable h...">
<polygon fill="white" stroke="#666666" points="692.25,-182.25 493.25,-182.25 493.25,-160 692.25,-160 692.25,-182.25"/>
<text text-anchor="middle" x="592.75" y="-166.85" font-family="Arial" font-size="12.00">espnow_set_config_for_data_type</text>
</a>
</g>
</g>
<!-- Node1&#45;&gt;Node23 -->
<g id="edge32_Node000001_Node000023" class="edge">
<title>Node1&#45;&gt;Node23</title>
<g id="a_edge32_Node000001_Node000023"><a xlink:title=" ">
<path fill="none" stroke="#63b8ff" d="M203.14,-134.99C274.28,-137.64 371.77,-142.5 457.25,-151.12 474.77,-152.89 493.5,-155.33 511.25,-157.89"/>
<polygon fill="#63b8ff" stroke="#63b8ff" points="510.54,-161.33 520.95,-159.32 511.57,-154.4 510.54,-161.33"/>
</a>
</g>
</g>
<!-- Node24 -->
<g id="Node000024" class="node">
<title>Node24</title>
<g id="a_Node000024"><a xlink:href="espnow_8c.html#a82456d56cc86371962135c5ff82fd954" target="_top" xlink:title="Initialize ESP&#45;NOW function.">
<polygon fill="white" stroke="#666666" points="388.25,-103.25 307.75,-103.25 307.75,-81 388.25,-81 388.25,-103.25"/>
<text text-anchor="middle" x="348" y="-87.85" font-family="Arial" font-size="12.00">espnow_init</text>
</a>
</g>
</g>
<!-- Node1&#45;&gt;Node24 -->
<g id="edge23_Node000001_Node000024" class="edge">
<title>Node1&#45;&gt;Node24</title>
<g id="a_edge23_Node000001_Node000024"><a xlink:title=" ">
<path fill="none" stroke="#63b8ff" d="M173.46,-120.5C212.79,-114.07 260.75,-106.23 296.28,-100.42"/>
<polygon fill="#63b8ff" stroke="#63b8ff" points="296.55,-103.92 305.85,-98.85 295.42,-97.01 296.55,-103.92"/>
</a>
</g>
</g>
<!-- Node33 -->
<g id="Node000033" class="node">
<title>Node33</title>
<g id="a_Node000033"><a xlink:href="espnow__storage_8c.html#afcdac79eafab05bba3191708b3d6c672" target="_top" xlink:title="Intialise ESP Storage.">
<polygon fill="white" stroke="#666666" points="411.5,-63.25 284.5,-63.25 284.5,-41 411.5,-41 411.5,-63.25"/>
<text text-anchor="middle" x="348" y="-47.85" font-family="Arial" font-size="12.00">espnow_storage_init</text>
</a>
</g>
</g>
<!-- Node1&#45;&gt;Node33 -->
<g id="edge33_Node000001_Node000033" class="edge">
<title>Node1&#45;&gt;Node33</title>
<g id="a_edge33_Node000001_Node000033"><a xlink:title=" ">
<path fill="none" stroke="#63b8ff" d="M124.45,-120.5C150.92,-107.01 196.97,-84.98 238.75,-72.12 249.69,-68.76 261.43,-65.87 273,-63.43"/>
<polygon fill="#63b8ff" stroke="#63b8ff" points="273.41,-66.92 282.52,-61.52 272.03,-60.05 273.41,-66.92"/>
</a>
</g>
</g>
<!-- Node3 -->
<g id="Node000003" class="node">
<title>Node3</title>
<g id="a_Node000003"><a xlink:href="cmd__espnow_8c.html#a49ab8b4f30ba6620b8349e8dbcf6e7a7" target="_top" xlink:title=" ">
<polygon fill="white" stroke="#666666" points="645,-602.25 540.5,-602.25 540.5,-580 645,-580 645,-602.25"/>
<text text-anchor="middle" x="592.75" y="-586.85" font-family="Arial" font-size="12.00">register_espnow</text>
</a>
</g>
</g>
<!-- Node2&#45;&gt;Node3 -->
<g id="edge2_Node000002_Node000003" class="edge">
<title>Node2&#45;&gt;Node3</title>
<g id="a_edge2_Node000002_Node000003"><a xlink:title=" ">
<path fill="none" stroke="#63b8ff" d="M358.24,-362.53C380.33,-389.56 438.47,-459.1 493.25,-511.12 517.11,-533.78 546.65,-557.23 567.13,-572.84"/>
<polygon fill="#63b8ff" stroke="#63b8ff" points="564.82,-575.48 574.91,-578.71 569.04,-569.89 564.82,-575.48"/>
</a>
</g>
</g>
<!-- Node9 -->
<g id="Node000009" class="node">
<title>Node9</title>
<g id="a_Node000009"><a xlink:href="cmd__iperf_8c.html#aba7899961f37bd327bbcfbfbe6582b3d" target="_top" xlink:title=" ">
<polygon fill="white" stroke="#666666" points="635.62,-502.25 549.88,-502.25 549.88,-480 635.62,-480 635.62,-502.25"/>
<text text-anchor="middle" x="592.75" y="-486.85" font-family="Arial" font-size="12.00">register_iperf</text>
</a>
</g>
</g>
<!-- Node2&#45;&gt;Node9 -->
<g id="edge8_Node000002_Node000009" class="edge">
<title>Node2&#45;&gt;Node9</title>
<g id="a_edge8_Node000002_Node000009"><a xlink:title=" ">
<path fill="none" stroke="#63b8ff" d="M358.9,-362.52C380.6,-386.7 435.09,-443.24 493.25,-471.12 507.17,-477.8 523.23,-482.25 538.29,-485.21"/>
<polygon fill="#63b8ff" stroke="#63b8ff" points="537.61,-488.65 548.07,-486.94 538.83,-481.75 537.61,-488.65"/>
</a>
</g>
</g>
<!-- Node12 -->
<g id="Node000012" class="node">
<title>Node12</title>
<g id="a_Node000012"><a xlink:href="cmd__peripherals_8c.html#a32de1cde0b0101a969e28a296a893a0c" target="_top" xlink:title=" ">
<polygon fill="white" stroke="#666666" points="654,-462.25 531.5,-462.25 531.5,-440 654,-440 654,-462.25"/>
<text text-anchor="middle" x="592.75" y="-446.85" font-family="Arial" font-size="12.00">register_peripherals</text>
</a>
</g>
</g>
<!-- Node2&#45;&gt;Node12 -->
<g id="edge11_Node000002_Node000012" class="edge">
<title>Node2&#45;&gt;Node12</title>
<g id="a_edge11_Node000002_Node000012"><a xlink:title=" ">
<path fill="none" stroke="#63b8ff" d="M365.5,-362.51C391.5,-379.9 444.08,-412.99 493.25,-431.12 501.75,-434.26 510.85,-436.94 519.96,-439.23"/>
<polygon fill="#63b8ff" stroke="#63b8ff" points="519.02,-442.61 529.56,-441.49 520.62,-435.79 519.02,-442.61"/>
</a>
</g>
</g>
<!-- Node13 -->
<g id="Node000013" class="node">
<title>Node13</title>
<g id="a_Node000013"><a xlink:href="cmd__sdcard_8c.html#aee0a19b9ec59752b8124fcb5d3b45d23" target="_top" xlink:title="Register sdcard command.">
<polygon fill="white" stroke="#666666" points="642,-422.25 543.5,-422.25 543.5,-400 642,-400 642,-422.25"/>
<text text-anchor="middle" x="592.75" y="-406.85" font-family="Arial" font-size="12.00">register_sdcard</text>
</a>
</g>
</g>
<!-- Node2&#45;&gt;Node13 -->
<g id="edge12_Node000002_Node000013" class="edge">
<title>Node2&#45;&gt;Node13</title>
<g id="a_edge12_Node000002_Node000013"><a xlink:title=" ">
<path fill="none" stroke="#63b8ff" d="M387.99,-362.74C416.91,-371.15 457.36,-382.52 493.25,-391.12 505.72,-394.12 519.14,-397.04 531.95,-399.68"/>
<polygon fill="#63b8ff" stroke="#63b8ff" points="531.02,-403.07 541.52,-401.63 532.42,-396.21 531.02,-403.07"/>
</a>
</g>
</g>
<!-- Node14 -->
<g id="Node000014" class="node">
<title>Node14</title>
<g id="a_Node000014"><a xlink:href="cmd__system_8c.html#a5cea85be00cb1ee5b57616da2fec81dd" target="_top" xlink:title=" ">
<polygon fill="white" stroke="#666666" points="642.75,-382.25 542.75,-382.25 542.75,-360 642.75,-360 642.75,-382.25"/>
<text text-anchor="middle" x="592.75" y="-366.85" font-family="Arial" font-size="12.00">register_system</text>
</a>
</g>
</g>
<!-- Node2&#45;&gt;Node14 -->
<g id="edge13_Node000002_Node000014" class="edge">
<title>Node2&#45;&gt;Node14</title>
<g id="a_edge13_Node000002_Node000014"><a xlink:title=" ">
<path fill="none" stroke="#63b8ff" d="M457.59,-360.07C482.86,-362.15 508.87,-364.3 531.18,-366.13"/>
<polygon fill="#63b8ff" stroke="#63b8ff" points="530.72,-369.61 540.98,-366.94 531.3,-362.63 530.72,-369.61"/>
</a>
</g>
</g>
<!-- Node15 -->
<g id="Node000015" class="node">
<title>Node15</title>
<g id="a_Node000015"><a xlink:href="cmd__wifi_8c.html#acc3b783818c73878210baf4064425629" target="_top" xlink:title=" ">
<polygon fill="white" stroke="#666666" points="633,-342.25 552.5,-342.25 552.5,-320 633,-320 633,-342.25"/>
<text text-anchor="middle" x="592.75" y="-326.85" font-family="Arial" font-size="12.00">register_wifi</text>
</a>
</g>
</g>
<!-- Node2&#45;&gt;Node15 -->
<g id="edge14_Node000002_Node000015" class="edge">
<title>Node2&#45;&gt;Node15</title>
<g id="a_edge14_Node000002_Node000015"><a xlink:title=" ">
<path fill="none" stroke="#63b8ff" d="M457.59,-342.18C486.56,-339.79 516.51,-337.32 540.74,-335.33"/>
<polygon fill="#63b8ff" stroke="#63b8ff" points="540.96,-338.82 550.64,-334.51 540.38,-331.85 540.96,-338.82"/>
</a>
</g>
</g>
<!-- Node19 -->
<g id="Node000019" class="node">
<title>Node19</title>
<g id="a_Node000019"><a xlink:href="cmd__wifi__sniffer_8c.html#aeca2ef6acde5704f187f7f3734ca0a51" target="_top" xlink:title=" ">
<polygon fill="white" stroke="#666666" points="652.5,-302.25 533,-302.25 533,-280 652.5,-280 652.5,-302.25"/>
<text text-anchor="middle" x="592.75" y="-286.85" font-family="Arial" font-size="12.00">register_wifi_sniffer</text>
</a>
</g>
</g>
<!-- Node2&#45;&gt;Node19 -->
<g id="edge18_Node000002_Node000019" class="edge">
<title>Node2&#45;&gt;Node19</title>
<g id="a_edge18_Node000002_Node000019"><a xlink:title=" ">
<path fill="none" stroke="#63b8ff" d="M387.99,-339.51C416.91,-331.1 457.36,-319.73 493.25,-311.12 502.4,-308.93 512.06,-306.77 521.61,-304.74"/>
<polygon fill="#63b8ff" stroke="#63b8ff" points="522.19,-308.19 531.26,-302.71 520.76,-301.34 522.19,-308.19"/>
</a>
</g>
</g>
<!-- Node20 -->
<g id="Node000020" class="node">
<title>Node20</title>
<g id="a_Node000020"><a xlink:href="sdcard_8c.html#ae3e13ea01aad71d69c7e3c4656de1803" target="_top" xlink:title="Initialize sdcard, Using SDMMC peripheral.">
<polygon fill="white" stroke="#666666" points="630,-262.25 555.5,-262.25 555.5,-240 630,-240 630,-262.25"/>
<text text-anchor="middle" x="592.75" y="-246.85" font-family="Arial" font-size="12.00">sdcard_init</text>
</a>
</g>
</g>
<!-- Node2&#45;&gt;Node20 -->
<g id="edge19_Node000002_Node000020" class="edge">
<title>Node2&#45;&gt;Node20</title>
<g id="a_edge19_Node000002_Node000020"><a xlink:title=" ">
<path fill="none" stroke="#63b8ff" d="M365.5,-339.74C391.5,-322.35 444.08,-289.26 493.25,-271.12 509.48,-265.14 527.91,-260.79 544.4,-257.71"/>
<polygon fill="#63b8ff" stroke="#63b8ff" points="544.72,-261.21 553.97,-256.03 543.51,-254.31 544.72,-261.21"/>
</a>
</g>
</g>
<!-- Node21 -->
<g id="Node000021" class="node">
<title>Node21</title>
<g id="a_Node000021"><a xlink:href="sdcard_8c.html#a1ee82a88b28b169594e94eada1cf1233" target="_top" xlink:title="Check if sdcard is mounted.">
<polygon fill="white" stroke="#666666" points="646.5,-222.25 539,-222.25 539,-200 646.5,-200 646.5,-222.25"/>
<text text-anchor="middle" x="592.75" y="-206.85" font-family="Arial" font-size="12.00">sdcard_is_mount</text>
</a>
</g>
</g>
<!-- Node2&#45;&gt;Node21 -->
<g id="edge20_Node000002_Node000021" class="edge">
<title>Node2&#45;&gt;Node21</title>
<g id="a_edge20_Node000002_Node000021"><a xlink:title=" ">
<path fill="none" stroke="#63b8ff" d="M358.9,-339.73C380.6,-315.55 435.09,-259.01 493.25,-231.12 503.86,-226.04 515.72,-222.24 527.43,-219.41"/>
<polygon fill="#63b8ff" stroke="#63b8ff" points="528.06,-222.85 537.09,-217.3 526.57,-216.02 528.06,-222.85"/>
</a>
</g>
</g>
<!-- Node4 -->
<g id="Node000004" class="node">
<title>Node4</title>
<g id="a_Node000004"><a xlink:href="cmd__espnow_8c.html#a663e227ca7f408c5e70f3a543066c1f3" target="_top" xlink:title="Register command command.">
<polygon fill="white" stroke="#666666" points="860.12,-702.25 745.12,-702.25 745.12,-680 860.12,-680 860.12,-702.25"/>
<text text-anchor="middle" x="802.62" y="-686.85" font-family="Arial" font-size="12.00">register_command</text>
</a>
</g>
</g>
<!-- Node3&#45;&gt;Node4 -->
<g id="edge3_Node000003_Node000004" class="edge">
<title>Node3&#45;&gt;Node4</title>
<g id="a_edge3_Node000003_Node000004"><a xlink:title=" ">
<path fill="none" stroke="#63b8ff" d="M609.56,-602.47C633.95,-619.52 682.73,-651.81 728.25,-671.12 732.49,-672.92 736.93,-674.6 741.45,-676.16"/>
<polygon fill="#63b8ff" stroke="#63b8ff" points="740.03,-679.38 750.62,-679.12 742.18,-672.72 740.03,-679.38"/>
</a>
</g>
</g>
<!-- Node5 -->
<g id="Node000005" class="node">
<title>Node5</title>
<g id="a_Node000005"><a xlink:href="cmd__espnow_8c.html#a133f010c7f704fae3fd7c7844ab8adb4" target="_top" xlink:title=" ">
<polygon fill="white" stroke="#666666" points="851.88,-662.25 753.38,-662.25 753.38,-640 851.88,-640 851.88,-662.25"/>
<text text-anchor="middle" x="802.62" y="-646.85" font-family="Arial" font-size="12.00">register_control</text>
</a>
</g>
</g>
<!-- Node3&#45;&gt;Node5 -->
<g id="edge4_Node000003_Node000005" class="edge">
<title>Node3&#45;&gt;Node5</title>
<g id="a_edge4_Node000003_Node000005"><a xlink:title=" ">
<path fill="none" stroke="#63b8ff" d="M631.95,-602.74C658.83,-610.85 695.68,-621.85 728.25,-631.12 734.51,-632.91 741.09,-634.75 747.62,-636.56"/>
<polygon fill="#63b8ff" stroke="#63b8ff" points="746.48,-639.87 757.05,-639.15 748.34,-633.12 746.48,-639.87"/>
</a>
</g>
</g>
<!-- Node6 -->
<g id="Node000006" class="node">
<title>Node6</title>
<g id="a_Node000006"><a xlink:href="cmd__espnow_8c.html#a4116f70abed28605f9edde3cb2b49df3" target="_top" xlink:title=" ">
<polygon fill="white" stroke="#666666" points="842.12,-622.25 763.12,-622.25 763.12,-600 842.12,-600 842.12,-622.25"/>
<text text-anchor="middle" x="802.62" y="-606.85" font-family="Arial" font-size="12.00">register_ota</text>
</a>
</g>
</g>
<!-- Node3&#45;&gt;Node6 -->
<g id="edge5_Node000003_Node000006" class="edge">
<title>Node3&#45;&gt;Node6</title>
<g id="a_edge5_Node000003_Node000006"><a xlink:title=" ">
<path fill="none" stroke="#63b8ff" d="M645.4,-596.09C677.74,-599.21 719.22,-603.2 751.3,-606.28"/>
<polygon fill="#63b8ff" stroke="#63b8ff" points="750.87,-609.76 761.16,-607.23 751.54,-602.79 750.87,-609.76"/>
</a>
</g>
</g>
<!-- Node7 -->
<g id="Node000007" class="node">
<title>Node7</title>
<g id="a_Node000007"><a xlink:href="cmd__espnow_8c.html#a250a2960cac20a0a927ea9ee538d0ed1" target="_top" xlink:title=" ">
<polygon fill="white" stroke="#666666" points="866.5,-582.25 738.75,-582.25 738.75,-560 866.5,-560 866.5,-582.25"/>
<text text-anchor="middle" x="802.62" y="-566.85" font-family="Arial" font-size="12.00">register_provisioning</text>
</a>
</g>
</g>
<!-- Node3&#45;&gt;Node7 -->
<g id="edge6_Node000003_Node000007" class="edge">
<title>Node3&#45;&gt;Node7</title>
<g id="a_edge6_Node000003_Node000007"><a xlink:title=" ">
<path fill="none" stroke="#63b8ff" d="M645.4,-586.16C670.02,-583.79 699.93,-580.91 726.97,-578.31"/>
<polygon fill="#63b8ff" stroke="#63b8ff" points="727.23,-581.8 736.85,-577.36 726.56,-574.83 727.23,-581.8"/>
</a>
</g>
</g>
<!-- Node8 -->
<g id="Node000008" class="node">
<title>Node8</title>
<g id="a_Node000008"><a xlink:href="cmd__espnow_8c.html#a952bdf39df32da2582cc93259df66b21" target="_top" xlink:title=" ">
<polygon fill="white" stroke="#666666" points="846.62,-542.25 758.62,-542.25 758.62,-520 846.62,-520 846.62,-542.25"/>
<text text-anchor="middle" x="802.62" y="-526.85" font-family="Arial" font-size="12.00">register_scan</text>
</a>
</g>
</g>
<!-- Node3&#45;&gt;Node8 -->
<g id="edge7_Node000003_Node000008" class="edge">
<title>Node3&#45;&gt;Node8</title>
<g id="a_edge7_Node000003_Node000008"><a xlink:title=" ">
<path fill="none" stroke="#63b8ff" d="M631.95,-579.51C658.83,-571.4 695.68,-560.4 728.25,-551.12 734.51,-549.34 741.09,-547.5 747.62,-545.69"/>
<polygon fill="#63b8ff" stroke="#63b8ff" points="748.34,-549.13 757.05,-543.1 746.48,-542.38 748.34,-549.13"/>
</a>
</g>
</g>
<!-- Node10 -->
<g id="Node000010" class="node">
<title>Node10</title>
<g id="a_Node000010"><a xlink:href="cmd__iperf_8c.html#a59752ecd5d3a975453892e77911181f3" target="_top" xlink:title=" ">
<polygon fill="white" stroke="#666666" points="874.38,-502.25 730.88,-502.25 730.88,-480 874.38,-480 874.38,-502.25"/>
<text text-anchor="middle" x="802.62" y="-486.85" font-family="Arial" font-size="12.00">register_espnow_config</text>
</a>
</g>
</g>
<!-- Node9&#45;&gt;Node10 -->
<g id="edge9_Node000009_Node000010" class="edge">
<title>Node9&#45;&gt;Node10</title>
<g id="a_edge9_Node000009_Node000010"><a xlink:title=" ">
<path fill="none" stroke="#63b8ff" d="M636.07,-491.12C660.07,-491.12 690.92,-491.12 719.48,-491.12"/>
<polygon fill="#63b8ff" stroke="#63b8ff" points="719.2,-494.63 729.2,-491.13 719.2,-487.63 719.2,-494.63"/>
</a>
</g>
</g>
<!-- Node11 -->
<g id="Node000011" class="node">
<title>Node11</title>
<g id="a_Node000011"><a xlink:href="cmd__iperf_8c.html#a3e3a4b00f06201a66ee042ac3363f9de" target="_top" xlink:title=" ">
<polygon fill="white" stroke="#666666" points="869.88,-462.25 735.38,-462.25 735.38,-440 869.88,-440 869.88,-462.25"/>
<text text-anchor="middle" x="802.62" y="-446.85" font-family="Arial" font-size="12.00">register_espnow_iperf</text>
</a>
</g>
</g>
<!-- Node9&#45;&gt;Node11 -->
<g id="edge10_Node000009_Node000011" class="edge">
<title>Node9&#45;&gt;Node11</title>
<g id="a_edge10_Node000009_Node000011"><a xlink:title=" ">
<path fill="none" stroke="#63b8ff" d="M636.07,-482.98C663.15,-477.77 698.96,-470.88 730.35,-464.84"/>
<polygon fill="#63b8ff" stroke="#63b8ff" points="730.6,-468.36 739.76,-463.03 729.27,-461.48 730.6,-468.36"/>
</a>
</g>
</g>
<!-- Node16 -->
<g id="Node000016" class="node">
<title>Node16</title>
<g id="a_Node000016"><a xlink:href="cmd__wifi_8c.html#a53edfa7e48af95ba07348e7c1421feea" target="_top" xlink:title=" ">
<polygon fill="white" stroke="#666666" points="853,-382.25 752.25,-382.25 752.25,-360 853,-360 853,-382.25"/>
<text text-anchor="middle" x="802.62" y="-366.85" font-family="Arial" font-size="12.00">register_wifi_ap</text>
</a>
</g>
</g>
<!-- Node15&#45;&gt;Node16 -->
<g id="edge15_Node000015_Node000016" class="edge">
<title>Node15&#45;&gt;Node16</title>
<g id="a_edge15_Node000015_Node000016"><a xlink:title=" ">
<path fill="none" stroke="#63b8ff" d="M633.34,-338.74C663.74,-344.59 706.25,-352.77 740.94,-359.45"/>
<polygon fill="#63b8ff" stroke="#63b8ff" points="739.93,-362.82 750.41,-361.27 741.25,-355.94 739.93,-362.82"/>
</a>
</g>
</g>
<!-- Node17 -->
<g id="Node000017" class="node">
<title>Node17</title>
<g id="a_Node000017"><a xlink:href="cmd__wifi_8c.html#a829e61400c74b6e8b03ebbc968fb6ae9" target="_top" xlink:title=" ">
<polygon fill="white" stroke="#666666" points="857.88,-342.25 747.38,-342.25 747.38,-320 857.88,-320 857.88,-342.25"/>
<text text-anchor="middle" x="802.62" y="-326.85" font-family="Arial" font-size="12.00">register_wifi_ping</text>
</a>
</g>
</g>
<!-- Node15&#45;&gt;Node17 -->
<g id="edge16_Node000015_Node000017" class="edge">
<title>Node15&#45;&gt;Node17</title>
<g id="a_edge16_Node000015_Node000017"><a xlink:title=" ">
<path fill="none" stroke="#63b8ff" d="M633.34,-331.12C662.34,-331.12 702.35,-331.12 736.09,-331.12"/>
<polygon fill="#63b8ff" stroke="#63b8ff" points="735.75,-334.63 745.75,-331.13 735.75,-327.63 735.75,-334.63"/>
</a>
</g>
</g>
<!-- Node18 -->
<g id="Node000018" class="node">
<title>Node18</title>
<g id="a_Node000018"><a xlink:href="cmd__wifi_8c.html#af11c2a0aaba22bf6cce6d38be617ed89" target="_top" xlink:title="Register wifi scan command.">
<polygon fill="white" stroke="#666666" points="859,-302.25 746.25,-302.25 746.25,-280 859,-280 859,-302.25"/>
<text text-anchor="middle" x="802.62" y="-286.85" font-family="Arial" font-size="12.00">register_wifi_scan</text>
</a>
</g>
</g>
<!-- Node15&#45;&gt;Node18 -->
<g id="edge17_Node000015_Node000018" class="edge">
<title>Node15&#45;&gt;Node18</title>
<g id="a_edge17_Node000015_Node000018"><a xlink:title=" ">
<path fill="none" stroke="#63b8ff" d="M633.34,-323.51C662.02,-317.99 701.48,-310.4 734.98,-303.95"/>
<polygon fill="#63b8ff" stroke="#63b8ff" points="735.44,-307.42 744.6,-302.1 734.12,-300.55 735.44,-307.42"/>
</a>
</g>
</g>
<!-- Node22&#45;&gt;Node23 -->
<g id="edge22_Node000022_Node000023" class="edge">
<title>Node22&#45;&gt;Node23</title>
<g id="a_edge22_Node000022_Node000023"><a xlink:title=" ">
<path fill="none" stroke="#63b8ff" d="M413.1,-171.12C434.1,-171.12 458.08,-171.12 481.49,-171.12"/>
<polygon fill="#63b8ff" stroke="#63b8ff" points="481.41,-174.63 491.41,-171.13 481.41,-167.63 481.41,-174.63"/>
</a>
</g>
</g>
<!-- Node25 -->
<g id="Node000025" class="node">
<title>Node25</title>
<g id="a_Node000025"><a xlink:href="espnow_8c.html#ab9e96f875511fcc24184f7b863ff8747" target="_top" xlink:title="When used for unicast, add the target device.">
<polygon fill="white" stroke="#666666" points="650.62,-142.25 534.88,-142.25 534.88,-120 650.62,-120 650.62,-142.25"/>
<text text-anchor="middle" x="592.75" y="-126.85" font-family="Arial" font-size="12.00">espnow_add_peer</text>
</a>
</g>
</g>
<!-- Node24&#45;&gt;Node25 -->
<g id="edge24_Node000024_Node000025" class="edge">
<title>Node24&#45;&gt;Node25</title>
<g id="a_edge24_Node000024_Node000025"><a xlink:title=" ">
<path fill="none" stroke="#63b8ff" d="M388.54,-98.48C425,-104.34 479.9,-113.16 523.45,-120.15"/>
<polygon fill="#63b8ff" stroke="#63b8ff" points="522.62,-123.56 533.05,-121.69 523.73,-116.65 522.62,-123.56"/>
</a>
</g>
</g>
<!-- Node26 -->
<g id="Node000026" class="node">
<title>Node26</title>
<g id="a_Node000026"><a xlink:href="espnow_8c.html#ae2e7d37b72ff59a530a9447bea4aa106" target="_top" xlink:title=" ">
<polygon fill="white" stroke="#666666" points="646.12,-102.25 539.38,-102.25 539.38,-80 646.12,-80 646.12,-102.25"/>
<text text-anchor="middle" x="592.75" y="-86.85" font-family="Arial" font-size="12.00">espnow_recv_cb</text>
</a>
</g>
</g>
<!-- Node24&#45;&gt;Node26 -->
<g id="edge25_Node000024_Node000026" class="edge">
<title>Node24&#45;&gt;Node26</title>
<g id="a_edge25_Node000024_Node000026"><a xlink:title=" ">
<path fill="none" stroke="#63b8ff" d="M388.54,-91.96C426.16,-91.81 483.4,-91.57 527.55,-91.39"/>
<polygon fill="#63b8ff" stroke="#63b8ff" points="527.56,-94.89 537.54,-91.35 527.53,-87.89 527.56,-94.89"/>
</a>
</g>
</g>
<!-- Node31 -->
<g id="Node000031" class="node">
<title>Node31</title>
<g id="a_Node000031"><a xlink:href="espnow__security_8c.html#accbf76d2b120ee4e43003ad1472c2b05" target="_top" xlink:title="Initialize the specified security info.">
<polygon fill="white" stroke="#666666" points="645.75,-62.25 539.75,-62.25 539.75,-40 645.75,-40 645.75,-62.25"/>
<text text-anchor="middle" x="592.75" y="-46.85" font-family="Arial" font-size="12.00">espnow_sec_init</text>
</a>
</g>
</g>
<!-- Node24&#45;&gt;Node31 -->
<g id="edge30_Node000024_Node000031" class="edge">
<title>Node24&#45;&gt;Node31</title>
<g id="a_edge30_Node000024_Node000031"><a xlink:title=" ">
<path fill="none" stroke="#63b8ff" d="M388.54,-85.45C426.36,-79.06 484.02,-69.32 528.27,-61.85"/>
<polygon fill="#63b8ff" stroke="#63b8ff" points="528.73,-65.32 538.01,-60.2 527.56,-58.42 528.73,-65.32"/>
</a>
</g>
</g>
<!-- Node32 -->
<g id="Node000032" class="node">
<title>Node32</title>
<g id="a_Node000032"><a xlink:href="espnow_8c.html#ae3d39a3c355f8c0a8297f76a28f7eaee" target="_top" xlink:title=" ">
<polygon fill="white" stroke="#666666" points="648,-22.25 537.5,-22.25 537.5,0 648,0 648,-22.25"/>
<text text-anchor="middle" x="592.75" y="-6.85" font-family="Arial" font-size="12.00">espnow_send_cb</text>
</a>
</g>
</g>
<!-- Node24&#45;&gt;Node32 -->
<g id="edge31_Node000024_Node000032" class="edge">
<title>Node24&#45;&gt;Node32</title>
<g id="a_edge31_Node000024_Node000032"><a xlink:title=" ">
<path fill="none" stroke="#63b8ff" d="M388.71,-91.04C410.18,-88.97 436.48,-83.92 457.25,-72.12 478.34,-60.15 472.27,-43.29 493.25,-31.12 503.26,-25.32 514.69,-21.18 526.14,-18.24"/>
<polygon fill="#63b8ff" stroke="#63b8ff" points="526.62,-21.72 535.6,-16.1 525.07,-14.89 526.62,-21.72"/>
</a>
</g>
</g>
<!-- Node27 -->
<g id="Node000027" class="node">
<title>Node27</title>
<g id="a_Node000027"><a xlink:href="espnow_8h.html#af0be4b97c8dad6c432c969e960110c1e" target="_top" xlink:title="Set group ID addresses.">
<polygon fill="white" stroke="#666666" points="863.88,-162.25 741.38,-162.25 741.38,-140 863.88,-140 863.88,-162.25"/>
<text text-anchor="middle" x="802.62" y="-146.85" font-family="Arial" font-size="12.00">espnow_add_group</text>
</a>
</g>
</g>
<!-- Node26&#45;&gt;Node27 -->
<g id="edge26_Node000026_Node000027" class="edge">
<title>Node26&#45;&gt;Node27</title>
<g id="a_edge26_Node000026_Node000027"><a xlink:title=" ">
<path fill="none" stroke="#63b8ff" d="M646.47,-98.74C661.52,-101.73 677.76,-105.78 692.25,-111.12 709.42,-117.46 711.3,-124.22 728.25,-131.12 732.58,-132.89 737.12,-134.55 741.73,-136.1"/>
<polygon fill="#63b8ff" stroke="#63b8ff" points="740.5,-139.38 751.09,-139.05 742.61,-132.7 740.5,-139.38"/>
</a>
</g>
</g>
<!-- Node28 -->
<g id="Node000028" class="node">
<title>Node28</title>
<g id="a_Node000028"><a xlink:href="espnow__group_8c.html#a875855b479ddb660719afebdc90b8b4d" target="_top" xlink:title="Delete group ID addresses.">
<polygon fill="white" stroke="#666666" points="862,-122.25 743.25,-122.25 743.25,-100 862,-100 862,-122.25"/>
<text text-anchor="middle" x="802.62" y="-106.85" font-family="Arial" font-size="12.00">espnow_del_group</text>
</a>
</g>
</g>
<!-- Node26&#45;&gt;Node28 -->
<g id="edge27_Node000026_Node000028" class="edge">
<title>Node26&#45;&gt;Node28</title>
<g id="a_edge27_Node000026_Node000028"><a xlink:title=" ">
<path fill="none" stroke="#63b8ff" d="M646.47,-96.2C672.38,-98.69 703.93,-101.73 731.81,-104.41"/>
<polygon fill="#63b8ff" stroke="#63b8ff" points="731.3,-107.87 741.59,-105.35 731.97,-100.91 731.3,-107.87"/>
</a>
</g>
</g>
<!-- Node29 -->
<g id="Node000029" class="node">
<title>Node29</title>
<g id="a_Node000029"><a xlink:href="espnow__group_8c.html#aa7b993563fd6da0fb75573573733daa3" target="_top" xlink:title="Get the number of group ID addresses.">
<polygon fill="white" stroke="#666666" points="877,-82.25 728.25,-82.25 728.25,-60 877,-60 877,-82.25"/>
<text text-anchor="middle" x="802.62" y="-66.85" font-family="Arial" font-size="12.00">espnow_get_group_num</text>
</a>
</g>
</g>
<!-- Node26&#45;&gt;Node29 -->
<g id="edge28_Node000026_Node000029" class="edge">
<title>Node26&#45;&gt;Node29</title>
<g id="a_edge28_Node000026_Node000029"><a xlink:title=" ">
<path fill="none" stroke="#63b8ff" d="M646.47,-86.05C667.76,-84 692.87,-81.59 716.61,-79.3"/>
<polygon fill="#63b8ff" stroke="#63b8ff" points="716.65,-82.82 726.26,-78.38 715.97,-75.85 716.65,-82.82"/>
</a>
</g>
</g>
<!-- Node30 -->
<g id="Node000030" class="node">
<title>Node30</title>
<g id="a_Node000030"><a xlink:href="espnow__group_8c.html#af826ca7f397223b5075b39529f9ba115" target="_top" xlink:title="Check whether the specified group address is my group.">
<polygon fill="white" stroke="#666666" points="869.5,-42.25 735.75,-42.25 735.75,-20 869.5,-20 869.5,-42.25"/>
<text text-anchor="middle" x="802.62" y="-26.85" font-family="Arial" font-size="12.00">espnow_is_my_group</text>
</a>
</g>
</g>
<!-- Node26&#45;&gt;Node30 -->
<g id="edge29_Node000026_Node000030" class="edge">
<title>Node26&#45;&gt;Node30</title>
<g id="a_edge29_Node000026_Node000030"><a xlink:title=" ">
<path fill="none" stroke="#63b8ff" d="M646.47,-83.51C661.52,-80.52 677.76,-76.47 692.25,-71.12 709.42,-64.79 711.3,-58.03 728.25,-51.12 732.58,-49.36 737.12,-47.7 741.73,-46.15"/>
<polygon fill="#63b8ff" stroke="#63b8ff" points="742.61,-49.55 751.09,-43.2 740.5,-42.87 742.61,-49.55"/>
</a>
</g>
</g>
</g>
</svg>

<g id="navigator" transform="translate(0 0)" fill="#404254">
  <rect fill="#f2f5e9" fill-opacity="0.5" stroke="#606060" stroke-width=".5" x="0" y="0" width="60" height="60"/>
  <use id="zoomplus" xlink:href="#zoomPlus" x="17" y="9" onmousedown="handleZoom(evt,'in')"/>
  <use id="zoomminus" xlink:href="#zoomMin" x="42" y="9" onmousedown="handleZoom(evt,'out')"/>
  <use id="reset" xlink:href="#resetDef" x="30" y="36" onmousedown="handleReset()"/>
   <use id="arrowup" xlink:href="#arrowUp" x="0" y="0" onmousedown="handlePan(0,-1)"/>
  <use id="arrowright" xlink:href="#arrowRight" x="0" y="0" onmousedown="handlePan(1,0)"/>
  <use id="arrowdown" xlink:href="#arrowDown" x="0" y="0" onmousedown="handlePan(0,1)"/>
  <use id="arrowleft" xlink:href="#arrowLeft" x="0" y="0" onmousedown="handlePan(-1,0)"/>
</g>
<svg viewBox="0 0 15 15" width="100%" height="30px" preserveAspectRatio="xMaxYMin meet">
 <g id="arrow_out" transform="scale(0.3 0.3)">
  <a xlink:href="monitor_8c_af7d10fd98a27a714321d8b4cedce0221_cgraph_org.svg" target="_base">
   <rect id="button" ry="5" rx="5" y="6" x="6" height="38" width="38"
        fill="#f2f5e9" fill-opacity="0.5" stroke="#606060" stroke-width="1.0"/>
   <path id="arrow"
     d="M 11.500037,31.436501 C 11.940474,20.09759 22.043105,11.32322 32.158766,21.979434 L 37.068811,17.246167 C 37.068811,17.246167 37.088388,32 37.088388,32 L 22.160133,31.978069 C 22.160133,31.978069 26.997745,27.140456 26.997745,27.140456 C 18.528582,18.264221 13.291696,25.230495 11.500037,31.436501 z"
     style="fill:#404040;"/>
  </a>
 </g>
</svg>

<style type='text/css'>
<![CDATA[
[data-mouse-over-selected='false'] { opacity: 0.7; }
[data-mouse-over-selected='true']  { opacity: 1.0; }
]]>
</style>
<script type="application/ecmascript"><![CDATA[
document.addEventListener('DOMContentLoaded', (event) => {
  highlightEdges();
  highlightAdjacentNodes();
});
]]></script>
</svg>
