<?xml version="1.0" encoding="UTF-8" standalone="no"?>
<!DOCTYPE svg PUBLIC "-//W3C//DTD SVG 1.1//EN"
 "http://www.w3.org/Graphics/SVG/1.1/DTD/svg11.dtd">
<!-- Generated by graphviz version 12.2.1 (20241206.2353)
 -->
<!-- Title: gen_custom_ota.main Pages: 1 -->
<svg width="383pt" height="150pt"
 viewBox="0.00 0.00 382.75 150.25" xmlns="http://www.w3.org/2000/svg" xmlns:xlink="http://www.w3.org/1999/xlink">

<svg id="main" version="1.1" xmlns="http://www.w3.org/2000/svg" xmlns:xlink="http://www.w3.org/1999/xlink" xml:space="preserve">

<style type="text/css"><![CDATA[
.node, .edge {opacity: 0.7;}
.node.selected, .edge.selected {opacity: 1;}
.edge:hover path { stroke: red; }
.edge:hover polygon { stroke: red; fill: red; }
]]></style>
<script type="application/ecmascript" xlink:href="svg.min.js"/>
<svg id="graph" class="graph">
<g id="graph0" class="graph" transform="scale(1 1) rotate(0) translate(4 146.25)">
<title>gen_custom_ota.main</title>
<!-- Node1 -->
<g id="Node000001" class="node">
<title>Node1</title>
<g id="a_Node000001"><a xlink:title=" ">
<polygon fill="#999999" stroke="#666666" points="133.75,-82.25 0,-82.25 0,-60 133.75,-60 133.75,-82.25"/>
<text text-anchor="middle" x="66.88" y="-66.85" font-family="Arial" font-size="12.00">gen_custom_ota.main</text>
</a>
</g>
</g>
<!-- Node1&#45;&gt;Node1 -->
<g id="edge3_Node000001_Node000001" class="edge">
<title>Node1&#45;&gt;Node1</title>
<g id="a_edge3_Node000001_Node000001"><a xlink:title=" ">
<path fill="none" stroke="#63b8ff" d="M33.34,-82.49C20.8,-91.28 31.98,-100.25 66.88,-100.25 85.96,-100.25 97.95,-97.57 102.85,-93.7"/>
<polygon fill="#63b8ff" stroke="#63b8ff" points="106.28,-92.99 100.73,-83.96 99.44,-94.48 106.28,-92.99"/>
</a>
</g>
</g>
<!-- Node2 -->
<g id="Node000002" class="node">
<title>Node2</title>
<g id="a_Node000002"><a xlink:href="namespacegen__custom__ota.html#a57e75ea9b0620793439d968eaf4663c1" target="_top" xlink:title=" ">
<polygon fill="white" stroke="#666666" points="366.12,-142.25 178.38,-142.25 178.38,-120 366.12,-120 366.12,-142.25"/>
<text text-anchor="middle" x="272.25" y="-126.85" font-family="Arial" font-size="12.00">gen_custom_ota.get_app_name</text>
</a>
</g>
</g>
<!-- Node1&#45;&gt;Node2 -->
<g id="edge1_Node000001_Node000002" class="edge">
<title>Node1&#45;&gt;Node2</title>
<g id="a_edge1_Node000001_Node000002"><a xlink:title=" ">
<path fill="none" stroke="#63b8ff" d="M93.39,-82.62C113.73,-91.43 143.12,-103.34 169.75,-111.12 176.99,-113.24 184.58,-115.2 192.22,-117"/>
<polygon fill="#63b8ff" stroke="#63b8ff" points="191.41,-120.4 201.94,-119.18 192.95,-113.57 191.41,-120.4"/>
</a>
</g>
</g>
<!-- Node3 -->
<g id="Node000003" class="node">
<title>Node3</title>
<g id="a_Node000003"><a xlink:href="namespacegen__custom__ota.html#a4003ef5a96b840cb402a7f114f6ee7a6" target="_top" xlink:title=" ">
<polygon fill="white" stroke="#666666" points="374.75,-102.25 169.75,-102.25 169.75,-80 374.75,-80 374.75,-102.25"/>
<text text-anchor="middle" x="272.25" y="-86.85" font-family="Arial" font-size="12.00">gen_custom_ota.get_script_version</text>
</a>
</g>
</g>
<!-- Node1&#45;&gt;Node3 -->
<g id="edge2_Node000001_Node000003" class="edge">
<title>Node1&#45;&gt;Node3</title>
<g id="a_edge2_Node000001_Node000003"><a xlink:title=" ">
<path fill="none" stroke="#63b8ff" d="M134.19,-77.65C142,-78.41 150.12,-79.21 158.35,-80.02"/>
<polygon fill="#63b8ff" stroke="#63b8ff" points="157.81,-83.49 168.1,-80.98 158.49,-76.52 157.81,-83.49"/>
</a>
</g>
</g>
<!-- Node4 -->
<g id="Node000004" class="node">
<title>Node4</title>
<g id="a_Node000004"><a xlink:href="namespacegen__custom__ota.html#a59a3ef9c9c466b377e4bf024b7cae3bb" target="_top" xlink:title=" ">
<polygon fill="white" stroke="#666666" points="373.62,-62.25 170.88,-62.25 170.88,-40 373.62,-40 373.62,-62.25"/>
<text text-anchor="middle" x="272.25" y="-46.85" font-family="Arial" font-size="12.00">gen_custom_ota.secure_boot_sign</text>
</a>
</g>
</g>
<!-- Node1&#45;&gt;Node4 -->
<g id="edge4_Node000001_Node000004" class="edge">
<title>Node1&#45;&gt;Node4</title>
<g id="a_edge4_Node000001_Node000004"><a xlink:title=" ">
<path fill="none" stroke="#63b8ff" d="M134.19,-64.6C142.33,-63.8 150.81,-62.97 159.4,-62.12"/>
<polygon fill="#63b8ff" stroke="#63b8ff" points="159.6,-65.62 169.21,-61.16 158.91,-58.66 159.6,-65.62"/>
</a>
</g>
</g>
<!-- Node5 -->
<g id="Node000005" class="node">
<title>Node5</title>
<g id="a_Node000005"><a xlink:href="namespacegen__custom__ota.html#a3143fa0339937413a91a5b4015b1b17c" target="_top" xlink:title=" ">
<polygon fill="white" stroke="#666666" points="361.25,-22.25 183.25,-22.25 183.25,0 361.25,0 361.25,-22.25"/>
<text text-anchor="middle" x="272.25" y="-6.85" font-family="Arial" font-size="12.00">gen_custom_ota.xz_compress</text>
</a>
</g>
</g>
<!-- Node1&#45;&gt;Node5 -->
<g id="edge5_Node000001_Node000005" class="edge">
<title>Node1&#45;&gt;Node5</title>
<g id="a_edge5_Node000001_Node000005"><a xlink:title=" ">
<path fill="none" stroke="#63b8ff" d="M93.39,-59.63C113.73,-50.82 143.12,-38.91 169.75,-31.12 176.99,-29.01 184.58,-27.05 192.22,-25.25"/>
<polygon fill="#63b8ff" stroke="#63b8ff" points="192.95,-28.68 201.94,-23.07 191.41,-21.85 192.95,-28.68"/>
</a>
</g>
</g>
</g>
</svg>
</svg>

<style type='text/css'>
<![CDATA[
[data-mouse-over-selected='false'] { opacity: 0.7; }
[data-mouse-over-selected='true']  { opacity: 1.0; }
]]>
</style>
<script type="application/ecmascript"><![CDATA[
document.addEventListener('DOMContentLoaded', (event) => {
  highlightEdges();
  highlightAdjacentNodes();
});
]]></script>
</svg>
