<?xml version="1.0" encoding="UTF-8" standalone="no"?>
<!DOCTYPE svg PUBLIC "-//W3C//DTD SVG 1.1//EN"
 "http://www.w3.org/Graphics/SVG/1.1/DTD/svg11.dtd">
<!-- Generated by graphviz version 12.2.1 (20241206.2353)
 -->
<!-- Title: app_main Pages: 1 -->
<!--zoomable 230 -->

<svg id="main" version="1.1" xmlns="http://www.w3.org/2000/svg" xmlns:xlink="http://www.w3.org/1999/xlink" xml:space="preserve" onload="init(evt)">

<style type="text/css"><![CDATA[
.node, .edge {opacity: 0.7;}
.node.selected, .edge.selected {opacity: 1;}
.edge:hover path { stroke: red; }
.edge:hover polygon { stroke: red; fill: red; }
]]></style>

<defs>
  <circle id="rim" cx="0" cy="0" r="7"/>
  <circle id="rim2" cx="0" cy="0" r="3.5"/>
  <g id="zoomPlus">
    <use xlink:href="#rim" fill="#404040"><set attributeName="fill" to="#808080" begin="zoomplus.mouseover" end="zoomplus.mouseout"/></use>
    <path d="M-4,0h8M0,-4v8" fill="none" stroke="white" stroke-width="1.5" pointer-events="none"/>
  </g>
  <g id="zoomMin">
    <use xlink:href="#rim" fill="#404040"><set attributeName="fill" to="#808080" begin="zoomminus.mouseover" end="zoomminus.mouseout"/></use>
    <path d="M-4,0h8" fill="none" stroke="white" stroke-width="1.5" pointer-events="none"/>
  </g>
  <g id="arrowUp" transform="translate(30 24)">
    <use xlink:href="#rim"/>
    <path pointer-events="none" fill="none" stroke="white" stroke-width="1.5" d="M0,-3.0v7 M-2.5,-0.5L0,-3.0L2.5,-0.5"/>
  </g>
  <g id="arrowRight" transform="rotate(90) translate(36 -43)">
    <use xlink:href="#rim"/>
    <path pointer-events="none" fill="none" stroke="white" stroke-width="1.5" d="M0,-3.0v7 M-2.5,-0.5L0,-3.0L2.5,-0.5"/>
  </g>
  <g id="arrowDown" transform="rotate(180) translate(-30 -48)">
    <use xlink:href="#rim"/>
    <path pointer-events="none" fill="none" stroke="white" stroke-width="1.5" d="M0,-3.0v7 M-2.5,-0.5L0,-3.0L2.5,-0.5"/>
  </g>
  <g id="arrowLeft" transform="rotate(270) translate(-36 17)">
    <use xlink:href="#rim"/>
    <path pointer-events="none" fill="none" stroke="white" stroke-width="1.5" d="M0,-3.0v7 M-2.5,-0.5L0,-3.0L2.5,-0.5"/>
  </g>
  <g id="resetDef">
    <use xlink:href="#rim2" fill="#404040"><set attributeName="fill" to="#808080" begin="reset.mouseover" end="reset.mouseout"/></use>
  </g>
</defs>
<script type="application/ecmascript">
var viewWidth = 704;
var viewHeight = 230;
var sectionId = 'dynsection-0';
</script>
<script type="application/ecmascript" xlink:href="svg.min.js"/>
<svg id="graph" class="graph">
<g id="viewport">
<title>app_main</title>
<!-- Node1 -->
<g id="Node000001" class="node">
<title>Node1</title>
<g id="a_Node000001"><a xlink:title=" ">
<polygon fill="#999999" stroke="#666666" points="69.25,-62.25 0,-62.25 0,-40 69.25,-40 69.25,-62.25"/>
<text text-anchor="middle" x="34.62" y="-46.85" font-family="Arial" font-size="12.00">app_main</text>
</a>
</g>
</g>
<!-- Node2 -->
<g id="Node000002" class="node">
<title>Node2</title>
<g id="a_Node000002"><a xlink:href="espnow_8c.html#a82456d56cc86371962135c5ff82fd954" target="_top" xlink:title="Initialize ESP&#45;NOW function.">
<polygon fill="white" stroke="#666666" points="231.12,-122.25 150.62,-122.25 150.62,-100 231.12,-100 231.12,-122.25"/>
<text text-anchor="middle" x="190.88" y="-106.85" font-family="Arial" font-size="12.00">espnow_init</text>
</a>
</g>
</g>
<!-- Node1&#45;&gt;Node2 -->
<g id="edge1_Node000001_Node000002" class="edge">
<title>Node1&#45;&gt;Node2</title>
<g id="a_edge1_Node000001_Node000002"><a xlink:title=" ">
<path fill="none" stroke="#63b8ff" d="M65.37,-62.69C89.37,-72.03 123.38,-85.26 149.79,-95.53"/>
<polygon fill="#63b8ff" stroke="#63b8ff" points="148.23,-98.68 158.81,-99.04 150.76,-92.16 148.23,-98.68"/>
</a>
</g>
</g>
<!-- Node11 -->
<g id="Node000011" class="node">
<title>Node11</title>
<g id="a_Node000011"><a xlink:href="espnow__ota__responder_8c.html#ab046328511e23a2687f41b7c3b7cc407" target="_top" xlink:title="Start upgrading.">
<polygon fill="white" stroke="#666666" points="276.5,-62.25 105.25,-62.25 105.25,-40 276.5,-40 276.5,-62.25"/>
<text text-anchor="middle" x="190.88" y="-46.85" font-family="Arial" font-size="12.00">espnow_ota_responder_start</text>
</a>
</g>
</g>
<!-- Node1&#45;&gt;Node11 -->
<g id="edge10_Node000001_Node000011" class="edge">
<title>Node1&#45;&gt;Node11</title>
<g id="a_edge10_Node000001_Node000011"><a xlink:title=" ">
<path fill="none" stroke="#63b8ff" d="M69.48,-51.12C76.88,-51.12 85.06,-51.12 93.58,-51.12"/>
<polygon fill="#63b8ff" stroke="#63b8ff" points="93.42,-54.63 103.42,-51.13 93.42,-47.63 93.42,-54.63"/>
</a>
</g>
</g>
<!-- Node13 -->
<g id="Node000013" class="node">
<title>Node13</title>
<g id="a_Node000013"><a xlink:href="espnow__storage_8c.html#afcdac79eafab05bba3191708b3d6c672" target="_top" xlink:title="Intialise ESP Storage.">
<polygon fill="white" stroke="#666666" points="254.38,-22.25 127.38,-22.25 127.38,0 254.38,0 254.38,-22.25"/>
<text text-anchor="middle" x="190.88" y="-6.85" font-family="Arial" font-size="12.00">espnow_storage_init</text>
</a>
</g>
</g>
<!-- Node1&#45;&gt;Node13 -->
<g id="edge12_Node000001_Node000013" class="edge">
<title>Node1&#45;&gt;Node13</title>
<g id="a_edge12_Node000001_Node000013"><a xlink:title=" ">
<path fill="none" stroke="#63b8ff" d="M69.53,-41.03C80.86,-37.76 93.57,-34.18 105.25,-31.12 112.61,-29.2 120.35,-27.26 128.04,-25.38"/>
<polygon fill="#63b8ff" stroke="#63b8ff" points="128.84,-28.79 137.74,-23.04 127.2,-21.98 128.84,-28.79"/>
</a>
</g>
</g>
<!-- Node3 -->
<g id="Node000003" class="node">
<title>Node3</title>
<g id="a_Node000003"><a xlink:href="espnow_8c.html#ab9e96f875511fcc24184f7b863ff8747" target="_top" xlink:title="When used for unicast, add the target device.">
<polygon fill="white" stroke="#666666" points="469.88,-202.25 354.12,-202.25 354.12,-180 469.88,-180 469.88,-202.25"/>
<text text-anchor="middle" x="412" y="-186.85" font-family="Arial" font-size="12.00">espnow_add_peer</text>
</a>
</g>
</g>
<!-- Node2&#45;&gt;Node3 -->
<g id="edge2_Node000002_Node000003" class="edge">
<title>Node2&#45;&gt;Node3</title>
<g id="a_edge2_Node000002_Node000003"><a xlink:title=" ">
<path fill="none" stroke="#63b8ff" d="M210.84,-122.51C234.04,-135.99 274.9,-158.2 312.5,-171.12 322.13,-174.44 332.5,-177.28 342.76,-179.69"/>
<polygon fill="#63b8ff" stroke="#63b8ff" points="341.81,-183.06 352.33,-181.81 343.33,-176.23 341.81,-183.06"/>
</a>
</g>
</g>
<!-- Node4 -->
<g id="Node000004" class="node">
<title>Node4</title>
<g id="a_Node000004"><a xlink:href="espnow_8c.html#ae2e7d37b72ff59a530a9447bea4aa106" target="_top" xlink:title=" ">
<polygon fill="white" stroke="#666666" points="465.38,-162.25 358.62,-162.25 358.62,-140 465.38,-140 465.38,-162.25"/>
<text text-anchor="middle" x="412" y="-146.85" font-family="Arial" font-size="12.00">espnow_recv_cb</text>
</a>
</g>
</g>
<!-- Node2&#45;&gt;Node4 -->
<g id="edge3_Node000002_Node000004" class="edge">
<title>Node2&#45;&gt;Node4</title>
<g id="a_edge3_Node000002_Node000004"><a xlink:title=" ">
<path fill="none" stroke="#63b8ff" d="M231.56,-118.37C263.75,-124.24 309.75,-132.64 347.11,-139.46"/>
<polygon fill="#63b8ff" stroke="#63b8ff" points="346.45,-142.9 356.92,-141.25 347.71,-136.01 346.45,-142.9"/>
</a>
</g>
</g>
<!-- Node9 -->
<g id="Node000009" class="node">
<title>Node9</title>
<g id="a_Node000009"><a xlink:href="espnow__security_8c.html#accbf76d2b120ee4e43003ad1472c2b05" target="_top" xlink:title="Initialize the specified security info.">
<polygon fill="white" stroke="#666666" points="465,-122.25 359,-122.25 359,-100 465,-100 465,-122.25"/>
<text text-anchor="middle" x="412" y="-106.85" font-family="Arial" font-size="12.00">espnow_sec_init</text>
</a>
</g>
</g>
<!-- Node2&#45;&gt;Node9 -->
<g id="edge8_Node000002_Node000009" class="edge">
<title>Node2&#45;&gt;Node9</title>
<g id="a_edge8_Node000002_Node000009"><a xlink:title=" ">
<path fill="none" stroke="#63b8ff" d="M231.56,-111.12C263.86,-111.12 310.07,-111.12 347.5,-111.12"/>
<polygon fill="#63b8ff" stroke="#63b8ff" points="347.3,-114.63 357.3,-111.13 347.3,-107.63 347.3,-114.63"/>
</a>
</g>
</g>
<!-- Node10 -->
<g id="Node000010" class="node">
<title>Node10</title>
<g id="a_Node000010"><a xlink:href="espnow_8c.html#ae3d39a3c355f8c0a8297f76a28f7eaee" target="_top" xlink:title=" ">
<polygon fill="white" stroke="#666666" points="467.25,-82.25 356.75,-82.25 356.75,-60 467.25,-60 467.25,-82.25"/>
<text text-anchor="middle" x="412" y="-66.85" font-family="Arial" font-size="12.00">espnow_send_cb</text>
</a>
</g>
</g>
<!-- Node2&#45;&gt;Node10 -->
<g id="edge9_Node000002_Node000010" class="edge">
<title>Node2&#45;&gt;Node10</title>
<g id="a_edge9_Node000002_Node000010"><a xlink:title=" ">
<path fill="none" stroke="#63b8ff" d="M231.56,-103.88C263.19,-98.11 308.15,-89.9 345.16,-83.14"/>
<polygon fill="#63b8ff" stroke="#63b8ff" points="345.67,-86.61 354.88,-81.37 344.41,-79.72 345.67,-86.61"/>
</a>
</g>
</g>
<!-- Node5 -->
<g id="Node000005" class="node">
<title>Node5</title>
<g id="a_Node000005"><a xlink:href="espnow_8h.html#af0be4b97c8dad6c432c969e960110c1e" target="_top" xlink:title="Set group ID addresses.">
<polygon fill="white" stroke="#666666" points="683.12,-222.25 560.62,-222.25 560.62,-200 683.12,-200 683.12,-222.25"/>
<text text-anchor="middle" x="621.88" y="-206.85" font-family="Arial" font-size="12.00">espnow_add_group</text>
</a>
</g>
</g>
<!-- Node4&#45;&gt;Node5 -->
<g id="edge4_Node000004_Node000005" class="edge">
<title>Node4&#45;&gt;Node5</title>
<g id="a_edge4_Node000004_Node000005"><a xlink:title=" ">
<path fill="none" stroke="#63b8ff" d="M465.72,-158.74C480.77,-161.73 497.01,-165.78 511.5,-171.12 528.67,-177.46 530.55,-184.22 547.5,-191.12 551.83,-192.89 556.37,-194.55 560.98,-196.1"/>
<polygon fill="#63b8ff" stroke="#63b8ff" points="559.75,-199.38 570.34,-199.05 561.86,-192.7 559.75,-199.38"/>
</a>
</g>
</g>
<!-- Node6 -->
<g id="Node000006" class="node">
<title>Node6</title>
<g id="a_Node000006"><a xlink:href="espnow__group_8c.html#a875855b479ddb660719afebdc90b8b4d" target="_top" xlink:title="Delete group ID addresses.">
<polygon fill="white" stroke="#666666" points="681.25,-182.25 562.5,-182.25 562.5,-160 681.25,-160 681.25,-182.25"/>
<text text-anchor="middle" x="621.88" y="-166.85" font-family="Arial" font-size="12.00">espnow_del_group</text>
</a>
</g>
</g>
<!-- Node4&#45;&gt;Node6 -->
<g id="edge5_Node000004_Node000006" class="edge">
<title>Node4&#45;&gt;Node6</title>
<g id="a_edge5_Node000004_Node000006"><a xlink:title=" ">
<path fill="none" stroke="#63b8ff" d="M465.72,-156.2C491.63,-158.69 523.18,-161.73 551.06,-164.41"/>
<polygon fill="#63b8ff" stroke="#63b8ff" points="550.55,-167.87 560.84,-165.35 551.22,-160.91 550.55,-167.87"/>
</a>
</g>
</g>
<!-- Node7 -->
<g id="Node000007" class="node">
<title>Node7</title>
<g id="a_Node000007"><a xlink:href="espnow__group_8c.html#aa7b993563fd6da0fb75573573733daa3" target="_top" xlink:title="Get the number of group ID addresses.">
<polygon fill="white" stroke="#666666" points="696.25,-142.25 547.5,-142.25 547.5,-120 696.25,-120 696.25,-142.25"/>
<text text-anchor="middle" x="621.88" y="-126.85" font-family="Arial" font-size="12.00">espnow_get_group_num</text>
</a>
</g>
</g>
<!-- Node4&#45;&gt;Node7 -->
<g id="edge6_Node000004_Node000007" class="edge">
<title>Node4&#45;&gt;Node7</title>
<g id="a_edge6_Node000004_Node000007"><a xlink:title=" ">
<path fill="none" stroke="#63b8ff" d="M465.72,-146.05C487.01,-144 512.12,-141.59 535.86,-139.3"/>
<polygon fill="#63b8ff" stroke="#63b8ff" points="535.9,-142.82 545.51,-138.38 535.22,-135.85 535.9,-142.82"/>
</a>
</g>
</g>
<!-- Node8 -->
<g id="Node000008" class="node">
<title>Node8</title>
<g id="a_Node000008"><a xlink:href="espnow__group_8c.html#af826ca7f397223b5075b39529f9ba115" target="_top" xlink:title="Check whether the specified group address is my group.">
<polygon fill="white" stroke="#666666" points="688.75,-102.25 555,-102.25 555,-80 688.75,-80 688.75,-102.25"/>
<text text-anchor="middle" x="621.88" y="-86.85" font-family="Arial" font-size="12.00">espnow_is_my_group</text>
</a>
</g>
</g>
<!-- Node4&#45;&gt;Node8 -->
<g id="edge7_Node000004_Node000008" class="edge">
<title>Node4&#45;&gt;Node8</title>
<g id="a_edge7_Node000004_Node000008"><a xlink:title=" ">
<path fill="none" stroke="#63b8ff" d="M465.72,-143.51C480.77,-140.52 497.01,-136.47 511.5,-131.12 528.67,-124.79 530.55,-118.03 547.5,-111.12 551.83,-109.36 556.37,-107.7 560.98,-106.15"/>
<polygon fill="#63b8ff" stroke="#63b8ff" points="561.86,-109.55 570.34,-103.2 559.75,-102.87 561.86,-109.55"/>
</a>
</g>
</g>
<!-- Node12 -->
<g id="Node000012" class="node">
<title>Node12</title>
<g id="a_Node000012"><a xlink:href="espnow_8c.html#a5e8b13ca7f586bed41ed5779b84f61f4" target="_top" xlink:title="Set configuration when receiving the corresponding ESP&#45;NOW data type Include: Set to enable/disable h...">
<polygon fill="white" stroke="#666666" points="511.5,-42.25 312.5,-42.25 312.5,-20 511.5,-20 511.5,-42.25"/>
<text text-anchor="middle" x="412" y="-26.85" font-family="Arial" font-size="12.00">espnow_set_config_for_data_type</text>
</a>
</g>
</g>
<!-- Node11&#45;&gt;Node12 -->
<g id="edge11_Node000011_Node000012" class="edge">
<title>Node11&#45;&gt;Node12</title>
<g id="a_edge11_Node000011_Node000012"><a xlink:title=" ">
<path fill="none" stroke="#63b8ff" d="M276.91,-43.36C284.76,-42.65 292.78,-41.91 300.82,-41.18"/>
<polygon fill="#63b8ff" stroke="#63b8ff" points="301.01,-44.68 310.65,-40.28 300.37,-37.71 301.01,-44.68"/>
</a>
</g>
</g>
</g>
</svg>

<g id="navigator" transform="translate(0 0)" fill="#404254">
  <rect fill="#f2f5e9" fill-opacity="0.5" stroke="#606060" stroke-width=".5" x="0" y="0" width="60" height="60"/>
  <use id="zoomplus" xlink:href="#zoomPlus" x="17" y="9" onmousedown="handleZoom(evt,'in')"/>
  <use id="zoomminus" xlink:href="#zoomMin" x="42" y="9" onmousedown="handleZoom(evt,'out')"/>
  <use id="reset" xlink:href="#resetDef" x="30" y="36" onmousedown="handleReset()"/>
   <use id="arrowup" xlink:href="#arrowUp" x="0" y="0" onmousedown="handlePan(0,-1)"/>
  <use id="arrowright" xlink:href="#arrowRight" x="0" y="0" onmousedown="handlePan(1,0)"/>
  <use id="arrowdown" xlink:href="#arrowDown" x="0" y="0" onmousedown="handlePan(0,1)"/>
  <use id="arrowleft" xlink:href="#arrowLeft" x="0" y="0" onmousedown="handlePan(-1,0)"/>
</g>
<svg viewBox="0 0 15 15" width="100%" height="30px" preserveAspectRatio="xMaxYMin meet">
 <g id="arrow_out" transform="scale(0.3 0.3)">
  <a xlink:href="ota_2main_2app__main_8c_abce06be17fc37d675118a678a8100a36_cgraph_org.svg" target="_base">
   <rect id="button" ry="5" rx="5" y="6" x="6" height="38" width="38"
        fill="#f2f5e9" fill-opacity="0.5" stroke="#606060" stroke-width="1.0"/>
   <path id="arrow"
     d="M 11.500037,31.436501 C 11.940474,20.09759 22.043105,11.32322 32.158766,21.979434 L 37.068811,17.246167 C 37.068811,17.246167 37.088388,32 37.088388,32 L 22.160133,31.978069 C 22.160133,31.978069 26.997745,27.140456 26.997745,27.140456 C 18.528582,18.264221 13.291696,25.230495 11.500037,31.436501 z"
     style="fill:#404040;"/>
  </a>
 </g>
</svg>

<style type='text/css'>
<![CDATA[
[data-mouse-over-selected='false'] { opacity: 0.7; }
[data-mouse-over-selected='true']  { opacity: 1.0; }
]]>
</style>
<script type="application/ecmascript"><![CDATA[
document.addEventListener('DOMContentLoaded', (event) => {
  highlightEdges();
  highlightAdjacentNodes();
});
]]></script>
</svg>
