<?xml version="1.0" encoding="UTF-8" standalone="no"?>
<!DOCTYPE svg PUBLIC "-//W3C//DTD SVG 1.1//EN"
 "http://www.w3.org/Graphics/SVG/1.1/DTD/svg11.dtd">
<!-- Generated by graphviz version 12.2.1 (20241206.2353)
 -->
<!-- Title: include/pinout.h Pages: 1 -->
<!--zoomable 322 -->

<svg id="main" version="1.1" xmlns="http://www.w3.org/2000/svg" xmlns:xlink="http://www.w3.org/1999/xlink" xml:space="preserve" onload="init(evt)">

<style type="text/css"><![CDATA[
.node, .edge {opacity: 0.7;}
.node.selected, .edge.selected {opacity: 1;}
.edge:hover path { stroke: red; }
.edge:hover polygon { stroke: red; fill: red; }
]]></style>

<defs>
  <circle id="rim" cx="0" cy="0" r="7"/>
  <circle id="rim2" cx="0" cy="0" r="3.5"/>
  <g id="zoomPlus">
    <use xlink:href="#rim" fill="#404040"><set attributeName="fill" to="#808080" begin="zoomplus.mouseover" end="zoomplus.mouseout"/></use>
    <path d="M-4,0h8M0,-4v8" fill="none" stroke="white" stroke-width="1.5" pointer-events="none"/>
  </g>
  <g id="zoomMin">
    <use xlink:href="#rim" fill="#404040"><set attributeName="fill" to="#808080" begin="zoomminus.mouseover" end="zoomminus.mouseout"/></use>
    <path d="M-4,0h8" fill="none" stroke="white" stroke-width="1.5" pointer-events="none"/>
  </g>
  <g id="arrowUp" transform="translate(30 24)">
    <use xlink:href="#rim"/>
    <path pointer-events="none" fill="none" stroke="white" stroke-width="1.5" d="M0,-3.0v7 M-2.5,-0.5L0,-3.0L2.5,-0.5"/>
  </g>
  <g id="arrowRight" transform="rotate(90) translate(36 -43)">
    <use xlink:href="#rim"/>
    <path pointer-events="none" fill="none" stroke="white" stroke-width="1.5" d="M0,-3.0v7 M-2.5,-0.5L0,-3.0L2.5,-0.5"/>
  </g>
  <g id="arrowDown" transform="rotate(180) translate(-30 -48)">
    <use xlink:href="#rim"/>
    <path pointer-events="none" fill="none" stroke="white" stroke-width="1.5" d="M0,-3.0v7 M-2.5,-0.5L0,-3.0L2.5,-0.5"/>
  </g>
  <g id="arrowLeft" transform="rotate(270) translate(-36 17)">
    <use xlink:href="#rim"/>
    <path pointer-events="none" fill="none" stroke="white" stroke-width="1.5" d="M0,-3.0v7 M-2.5,-0.5L0,-3.0L2.5,-0.5"/>
  </g>
  <g id="resetDef">
    <use xlink:href="#rim2" fill="#404040"><set attributeName="fill" to="#808080" begin="reset.mouseover" end="reset.mouseout"/></use>
  </g>
</defs>
<script type="application/ecmascript">
var viewWidth = 2136;
var viewHeight = 322;
var sectionId = 'dynsection-0';
</script>
<script type="application/ecmascript" xlink:href="svg.min.js"/>
<svg id="graph" class="graph">
<g id="viewport">
<title>include/pinout.h</title>
<!-- Node1 -->
<g id="Node000001" class="node">
<title>Node1</title>
<g id="a_Node000001"><a xlink:title="This is the file that contains the pinout and other configuration information.">
<polygon fill="#999999" stroke="#666666" points="895,-313.5 794.25,-313.5 794.25,-291.25 895,-291.25 895,-313.5"/>
<text text-anchor="middle" x="844.62" y="-298.1" font-family="Arial" font-size="12.00">include/pinout.h</text>
</a>
</g>
</g>
<!-- Node2 -->
<g id="Node000002" class="node">
<title>Node2</title>
<g id="a_Node000002"><a xlink:href="ps4_8h.html" target="_top" xlink:title="This is the file that contains the ps4 controller class (and internal tasks for usb host)">
<polygon fill="white" stroke="#666666" points="785.75,-255.25 659.5,-255.25 659.5,-233 785.75,-233 785.75,-255.25"/>
<text text-anchor="middle" x="722.62" y="-239.85" font-family="Arial" font-size="12.00">include/drivers/ps4.h</text>
</a>
</g>
</g>
<!-- Node1&#45;&gt;Node2 -->
<g id="edge1_Node000001_Node000002" class="edge">
<title>Node1&#45;&gt;Node2</title>
<g id="a_edge1_Node000001_Node000002"><a xlink:title=" ">
<path fill="none" stroke="#63b8ff" d="M811.32,-286.02C790.42,-276.38 764.01,-264.21 745.47,-255.66"/>
<polygon fill="#63b8ff" stroke="#63b8ff" points="809.76,-289.15 820.3,-290.16 812.69,-282.8 809.76,-289.15"/>
</a>
</g>
</g>
<!-- Node3 -->
<g id="Node000003" class="node">
<title>Node3</title>
<g id="a_Node000003"><a xlink:href="ps4__task_8h.html" target="_top" xlink:title="This is the file that contains the ps4 task.">
<polygon fill="white" stroke="#666666" points="917.88,-197 771.38,-197 771.38,-174.75 917.88,-174.75 917.88,-197"/>
<text text-anchor="middle" x="844.62" y="-181.6" font-family="Arial" font-size="12.00">include/tasks/ps4_task.h</text>
</a>
</g>
</g>
<!-- Node1&#45;&gt;Node3 -->
<g id="edge36_Node000001_Node000003" class="edge">
<title>Node1&#45;&gt;Node3</title>
<g id="a_edge36_Node000001_Node000003"><a xlink:title=" ">
<path fill="none" stroke="#63b8ff" d="M844.62,-279.43C844.62,-254.83 844.62,-215.97 844.62,-197.42"/>
<polygon fill="#63b8ff" stroke="#63b8ff" points="841.13,-279.29 844.63,-289.29 848.13,-279.29 841.13,-279.29"/>
</a>
</g>
</g>
<!-- Node7 -->
<g id="Node000007" class="node">
<title>Node7</title>
<g id="a_Node000007"><a xlink:href="ssd1306_8h.html" target="_top" xlink:title="Contains the code for ssd1306 display, setting it up, and writing text to it.">
<polygon fill="white" stroke="#666666" points="467.88,-255.25 315.38,-255.25 315.38,-233 467.88,-233 467.88,-255.25"/>
<text text-anchor="middle" x="391.62" y="-239.85" font-family="Arial" font-size="12.00">include/drivers/ssd1306.h</text>
</a>
</g>
</g>
<!-- Node1&#45;&gt;Node7 -->
<g id="edge7_Node000001_Node000007" class="edge">
<title>Node1&#45;&gt;Node7</title>
<g id="a_edge7_Node000001_Node000007"><a xlink:title=" ">
<path fill="none" stroke="#63b8ff" d="M782.62,-293.68C700.81,-283.52 556.87,-265.64 468.31,-254.65"/>
<polygon fill="#63b8ff" stroke="#63b8ff" points="782.12,-297.14 792.48,-294.9 782.98,-290.19 782.12,-297.14"/>
</a>
</g>
</g>
<!-- Node8 -->
<g id="Node000008" class="node">
<title>Node8</title>
<g id="a_Node000008"><a xlink:href="menus_8h.html" target="_top" xlink:title="This is the file that contains the class for menus.">
<polygon fill="white" stroke="#666666" points="363.12,-197 200.12,-197 200.12,-174.75 363.12,-174.75 363.12,-197"/>
<text text-anchor="middle" x="281.62" y="-181.6" font-family="Arial" font-size="12.00">include/supporting/menus.h</text>
</a>
</g>
</g>
<!-- Node1&#45;&gt;Node8 -->
<g id="edge31_Node000001_Node000008" class="edge">
<title>Node1&#45;&gt;Node8</title>
<g id="a_edge31_Node000001_Node000008"><a xlink:title=" ">
<path fill="none" stroke="#63b8ff" d="M782.88,-299.77C649.56,-295.79 343.75,-283.64 306.62,-255.25 288.45,-241.35 283.48,-212.93 282.13,-197.46"/>
<polygon fill="#63b8ff" stroke="#63b8ff" points="782.47,-303.26 792.57,-300.06 782.68,-296.27 782.47,-303.26"/>
</a>
</g>
</g>
<!-- Node10 -->
<g id="Node000010" class="node">
<title>Node10</title>
<g id="a_Node000010"><a xlink:href="display__task_8h.html" target="_top" xlink:title="This is the file that contains the display task.">
<polygon fill="white" stroke="#666666" points="165.25,-80.5 0,-80.5 0,-58.25 165.25,-58.25 165.25,-80.5"/>
<text text-anchor="middle" x="82.62" y="-65.1" font-family="Arial" font-size="12.00">include/tasks/display_task.h</text>
</a>
</g>
</g>
<!-- Node1&#45;&gt;Node10 -->
<g id="edge32_Node000001_Node000010" class="edge">
<title>Node1&#45;&gt;Node10</title>
<g id="a_edge32_Node000001_Node000010"><a xlink:title=" ">
<path fill="none" stroke="#63b8ff" d="M782.49,-301.3C678.67,-300.05 463.83,-292.67 286.62,-255.25 209.3,-238.92 182.79,-243.14 118.62,-197 92.06,-177.9 84.19,-169.71 73.62,-138.75 66.9,-119.03 73.47,-94.53 78.38,-80.86"/>
<polygon fill="#63b8ff" stroke="#63b8ff" points="782.45,-304.8 792.48,-301.4 782.52,-297.8 782.45,-304.8"/>
</a>
</g>
</g>
<!-- Node14 -->
<g id="Node000014" class="node">
<title>Node14</title>
<g id="a_Node000014"><a xlink:href="ssd1306_8cpp.html" target="_top" xlink:title=" ">
<polygon fill="white" stroke="#666666" points="571.88,-197 419.38,-197 419.38,-174.75 571.88,-174.75 571.88,-197"/>
<text text-anchor="middle" x="495.62" y="-181.6" font-family="Arial" font-size="12.00">main/drivers/ssd1306.cpp</text>
</a>
</g>
</g>
<!-- Node1&#45;&gt;Node14 -->
<g id="edge40_Node000001_Node000014" class="edge">
<title>Node1&#45;&gt;Node14</title>
<g id="a_edge40_Node000001_Node000014"><a xlink:title=" ">
<path fill="none" stroke="#63b8ff" d="M783.03,-289.72C744.49,-281.7 694.08,-269.86 650.62,-255.25 601,-238.56 545.45,-212.02 516.2,-197.4"/>
<polygon fill="#63b8ff" stroke="#63b8ff" points="782.1,-293.11 792.6,-291.68 783.5,-286.25 782.1,-293.11"/>
</a>
</g>
</g>
<!-- Node15 -->
<g id="Node000015" class="node">
<title>Node15</title>
<g id="a_Node000015"><a xlink:href="esp__now__callback__setup_8h.html" target="_top" xlink:title="Contains the callback functions for esp&#45;now.">
<polygon fill="white" stroke="#666666" points="1201.5,-255.25 965.75,-255.25 965.75,-233 1201.5,-233 1201.5,-255.25"/>
<text text-anchor="middle" x="1083.62" y="-239.85" font-family="Arial" font-size="12.00">include/setup/esp_now_callback_setup.h</text>
</a>
</g>
</g>
<!-- Node1&#45;&gt;Node15 -->
<g id="edge21_Node000001_Node000015" class="edge">
<title>Node1&#45;&gt;Node15</title>
<g id="a_edge21_Node000001_Node000015"><a xlink:title=" ">
<path fill="none" stroke="#63b8ff" d="M900.77,-288.16C942.89,-278.25 999.79,-264.86 1038.87,-255.66"/>
<polygon fill="#63b8ff" stroke="#63b8ff" points="899.98,-284.75 891.05,-290.45 901.59,-291.56 899.98,-284.75"/>
</a>
</g>
</g>
<!-- Node16 -->
<g id="Node000016" class="node">
<title>Node16</title>
<g id="a_Node000016"><a xlink:href="esp__now__setup_8h.html" target="_top" xlink:title="Contains the code that sets up the ESP&#45;NOW communication.">
<polygon fill="white" stroke="#666666" points="1412,-197 1227.25,-197 1227.25,-174.75 1412,-174.75 1412,-197"/>
<text text-anchor="middle" x="1319.62" y="-181.6" font-family="Arial" font-size="12.00">include/setup/esp_now_setup.h</text>
</a>
</g>
</g>
<!-- Node1&#45;&gt;Node16 -->
<g id="edge27_Node000001_Node000016" class="edge">
<title>Node1&#45;&gt;Node16</title>
<g id="a_edge27_Node000001_Node000016"><a xlink:title=" ">
<path fill="none" stroke="#63b8ff" d="M906.81,-301.63C981.18,-300.12 1108.43,-291.72 1210.62,-255.25 1248.92,-241.58 1287.85,-212.79 1307.17,-197.29"/>
<polygon fill="#63b8ff" stroke="#63b8ff" points="906.8,-298.13 896.86,-301.79 906.91,-305.13 906.8,-298.13"/>
</a>
</g>
</g>
<!-- Node19 -->
<g id="Node000019" class="node">
<title>Node19</title>
<g id="a_Node000019"><a xlink:href="i2c__setup_8h.html" target="_top" xlink:title="Contains the code that sets up the i2c bus.">
<polygon fill="white" stroke="#666666" points="1515.5,-255.25 1363.75,-255.25 1363.75,-233 1515.5,-233 1515.5,-255.25"/>
<text text-anchor="middle" x="1439.62" y="-239.85" font-family="Arial" font-size="12.00">include/setup/i2c_setup.h</text>
</a>
</g>
</g>
<!-- Node1&#45;&gt;Node19 -->
<g id="edge28_Node000001_Node000019" class="edge">
<title>Node1&#45;&gt;Node19</title>
<g id="a_edge28_Node000001_Node000019"><a xlink:title=" ">
<path fill="none" stroke="#63b8ff" d="M906.55,-295.52C1016.34,-285.14 1244.7,-263.55 1363.74,-252.3"/>
<polygon fill="#63b8ff" stroke="#63b8ff" points="906.49,-292.01 896.86,-296.44 907.15,-298.98 906.49,-292.01"/>
</a>
</g>
</g>
<!-- Node21 -->
<g id="Node000021" class="node">
<title>Node21</title>
<g id="a_Node000021"><a xlink:href="ps4__data__processor__task_8h.html" target="_top" xlink:title="This is the file that contains the ps4 data processor task.">
<polygon fill="white" stroke="#666666" points="1873.5,-255.25 1637.75,-255.25 1637.75,-233 1873.5,-233 1873.5,-255.25"/>
<text text-anchor="middle" x="1755.62" y="-239.85" font-family="Arial" font-size="12.00">include/tasks/ps4_data_processor_task.h</text>
</a>
</g>
</g>
<!-- Node1&#45;&gt;Node21 -->
<g id="edge33_Node000001_Node000021" class="edge">
<title>Node1&#45;&gt;Node21</title>
<g id="a_edge33_Node000001_Node000021"><a xlink:title=" ">
<path fill="none" stroke="#63b8ff" d="M906.47,-297.56C1056.47,-288.29 1441.68,-264.51 1637.51,-252.42"/>
<polygon fill="#63b8ff" stroke="#63b8ff" points="906.5,-294.05 896.74,-298.16 906.94,-301.03 906.5,-294.05"/>
</a>
</g>
</g>
<!-- Node23 -->
<g id="Node000023" class="node">
<title>Node23</title>
<g id="a_Node000023"><a xlink:href="send__data__task_8h.html" target="_top" xlink:title=" ">
<polygon fill="white" stroke="#666666" points="2113.25,-255.25 1930,-255.25 1930,-233 2113.25,-233 2113.25,-255.25"/>
<text text-anchor="middle" x="2021.62" y="-239.85" font-family="Arial" font-size="12.00">include/tasks/send_data_task.h</text>
</a>
</g>
</g>
<!-- Node1&#45;&gt;Node23 -->
<g id="edge37_Node000001_Node000023" class="edge">
<title>Node1&#45;&gt;Node23</title>
<g id="a_edge37_Node000001_Node000023"><a xlink:title=" ">
<path fill="none" stroke="#63b8ff" d="M906.51,-299.24C1067.47,-293.54 1512.45,-276.95 1882.62,-255.25 1897.84,-254.36 1913.99,-253.29 1929.68,-252.19"/>
<polygon fill="#63b8ff" stroke="#63b8ff" points="906.8,-295.72 896.93,-299.57 907.05,-302.72 906.8,-295.72"/>
</a>
</g>
</g>
<!-- Node2&#45;&gt;Node3 -->
<g id="edge2_Node000002_Node000003" class="edge">
<title>Node2&#45;&gt;Node3</title>
<g id="a_edge2_Node000002_Node000003"><a xlink:title=" ">
<path fill="none" stroke="#63b8ff" d="M755.93,-227.77C776.83,-218.13 803.24,-205.96 821.78,-197.41"/>
<polygon fill="#63b8ff" stroke="#63b8ff" points="754.56,-224.55 746.95,-231.91 757.49,-230.9 754.56,-224.55"/>
</a>
</g>
</g>
<!-- Node4 -->
<g id="Node000004" class="node">
<title>Node4</title>
<g id="a_Node000004"><a xlink:href="main_8cpp.html" target="_top" xlink:title="This is the file that contains the main function and all other tasks for the robot controller.">
<polygon fill="white" stroke="#666666" points="840.62,-22.25 746.62,-22.25 746.62,0 840.62,0 840.62,-22.25"/>
<text text-anchor="middle" x="793.62" y="-6.85" font-family="Arial" font-size="12.00">main/main.cpp</text>
</a>
</g>
</g>
<!-- Node2&#45;&gt;Node4 -->
<g id="edge6_Node000002_Node000004" class="edge">
<title>Node2&#45;&gt;Node4</title>
<g id="a_edge6_Node000002_Node000004"><a xlink:title=" ">
<path fill="none" stroke="#63b8ff" d="M665.31,-229.04C635.4,-218.36 607.2,-200.97 618.62,-174.75 651.02,-100.42 736,-44.77 774.35,-22.63"/>
<polygon fill="#63b8ff" stroke="#63b8ff" points="663.86,-232.25 674.45,-232.06 666.06,-225.6 663.86,-232.25"/>
</a>
</g>
</g>
<!-- Node6 -->
<g id="Node000006" class="node">
<title>Node6</title>
<g id="a_Node000006"><a xlink:href="ps4_8cpp.html" target="_top" xlink:title="This is the file that contains the ps4 controller class (and internal tasks for usb host)">
<polygon fill="white" stroke="#666666" points="753.75,-197 627.5,-197 627.5,-174.75 753.75,-174.75 753.75,-197"/>
<text text-anchor="middle" x="690.62" y="-181.6" font-family="Arial" font-size="12.00">main/drivers/ps4.cpp</text>
</a>
</g>
</g>
<!-- Node2&#45;&gt;Node6 -->
<g id="edge5_Node000002_Node000006" class="edge">
<title>Node2&#45;&gt;Node6</title>
<g id="a_edge5_Node000002_Node000006"><a xlink:title=" ">
<path fill="none" stroke="#63b8ff" d="M711.07,-222.82C706.18,-214.21 700.68,-204.55 696.62,-197.41"/>
<polygon fill="#63b8ff" stroke="#63b8ff" points="707.87,-224.27 715.86,-231.23 713.96,-220.81 707.87,-224.27"/>
</a>
</g>
</g>
<!-- Node3&#45;&gt;Node4 -->
<g id="edge3_Node000003_Node000004" class="edge">
<title>Node3&#45;&gt;Node4</title>
<g id="a_edge3_Node000003_Node000004"><a xlink:title=" ">
<path fill="none" stroke="#63b8ff" d="M828.14,-165.38C822.35,-157.56 816.37,-148.18 812.62,-138.75 796.47,-98.04 793.93,-45 793.61,-22.72"/>
<polygon fill="#63b8ff" stroke="#63b8ff" points="825.32,-167.45 834.25,-173.14 830.82,-163.12 825.32,-167.45"/>
</a>
</g>
</g>
<!-- Node5 -->
<g id="Node000005" class="node">
<title>Node5</title>
<g id="a_Node000005"><a xlink:href="ps4__task_8cpp.html" target="_top" xlink:title="This is the file that contains the ps4 task.">
<polygon fill="white" stroke="#666666" points="967.88,-138.75 821.38,-138.75 821.38,-116.5 967.88,-116.5 967.88,-138.75"/>
<text text-anchor="middle" x="894.62" y="-123.35" font-family="Arial" font-size="12.00">main/tasks/ps4_task.cpp</text>
</a>
</g>
</g>
<!-- Node3&#45;&gt;Node5 -->
<g id="edge4_Node000003_Node000005" class="edge">
<title>Node3&#45;&gt;Node5</title>
<g id="a_edge4_Node000003_Node000005"><a xlink:title=" ">
<path fill="none" stroke="#63b8ff" d="M861.67,-165.69C869.57,-156.82 878.64,-146.61 885.26,-139.16"/>
<polygon fill="#63b8ff" stroke="#63b8ff" points="859.06,-163.36 855.04,-173.16 864.29,-168.01 859.06,-163.36"/>
</a>
</g>
</g>
<!-- Node7&#45;&gt;Node4 -->
<g id="edge20_Node000007_Node000004" class="edge">
<title>Node7&#45;&gt;Node4</title>
<g id="a_edge20_Node000007_Node000004"><a xlink:title=" ">
<path fill="none" stroke="#63b8ff" d="M392.37,-221.55C394.02,-206.59 398.56,-187.18 410.62,-174.75 448.22,-136.01 476.49,-158.76 526.62,-138.75 601.66,-108.79 616.46,-92.52 689.62,-58.25 716.63,-45.6 747.96,-31.82 769.12,-22.65"/>
<polygon fill="#63b8ff" stroke="#63b8ff" points="388.89,-221.1 391.68,-231.32 395.88,-221.6 388.89,-221.1"/>
</a>
</g>
</g>
<!-- Node7&#45;&gt;Node8 -->
<g id="edge8_Node000007_Node000008" class="edge">
<title>Node7&#45;&gt;Node8</title>
<g id="a_edge8_Node000007_Node000008"><a xlink:title=" ">
<path fill="none" stroke="#63b8ff" d="M360.82,-227.37C342.1,-217.8 318.71,-205.84 302.22,-197.41"/>
<polygon fill="#63b8ff" stroke="#63b8ff" points="359.09,-230.42 369.59,-231.86 362.28,-224.19 359.09,-230.42"/>
</a>
</g>
</g>
<!-- Node7&#45;&gt;Node10 -->
<g id="edge18_Node000007_Node000010" class="edge">
<title>Node7&#45;&gt;Node10</title>
<g id="a_edge18_Node000007_Node000010"><a xlink:title=" ">
<path fill="none" stroke="#63b8ff" d="M313.66,-230.45C275.79,-222.99 230.06,-212.02 190.62,-197 140.39,-177.86 112.67,-184.61 84.62,-138.75 73.6,-120.72 76.94,-94.7 80,-80.53"/>
<polygon fill="#63b8ff" stroke="#63b8ff" points="312.66,-233.83 323.14,-232.27 313.98,-226.95 312.66,-233.83"/>
</a>
</g>
</g>
<!-- Node7&#45;&gt;Node14 -->
<g id="edge19_Node000007_Node000014" class="edge">
<title>Node7&#45;&gt;Node14</title>
<g id="a_edge19_Node000007_Node000014"><a xlink:title=" ">
<path fill="none" stroke="#63b8ff" d="M421,-227.24C438.66,-217.69 460.63,-205.8 476.15,-197.41"/>
<polygon fill="#63b8ff" stroke="#63b8ff" points="419.65,-223.99 412.52,-231.82 422.98,-230.15 419.65,-223.99"/>
</a>
</g>
</g>
<!-- Node8&#45;&gt;Node4 -->
<g id="edge16_Node000008_Node000004" class="edge">
<title>Node8&#45;&gt;Node4</title>
<g id="a_edge16_Node000008_Node000004"><a xlink:title=" ">
<path fill="none" stroke="#63b8ff" d="M374.77,-173.66C426.28,-165.91 483.94,-154.22 504.62,-138.75 537.11,-114.46 514.92,-82.24 547.62,-58.25 578.55,-35.57 683.77,-22.24 746.13,-16.15"/>
<polygon fill="#63b8ff" stroke="#63b8ff" points="374.44,-170.17 365.05,-175.08 375.45,-177.09 374.44,-170.17"/>
</a>
</g>
</g>
<!-- Node9 -->
<g id="Node000009" class="node">
<title>Node9</title>
<g id="a_Node000009"><a xlink:href="menu__handler_8h.html" target="_top" xlink:title="This is the file that contains the class for switching between menus.">
<polygon fill="white" stroke="#666666" points="495.38,-138.75 291.88,-138.75 291.88,-116.5 495.38,-116.5 495.38,-138.75"/>
<text text-anchor="middle" x="393.62" y="-123.35" font-family="Arial" font-size="12.00">include/supporting/menu_handler.h</text>
</a>
</g>
</g>
<!-- Node8&#45;&gt;Node9 -->
<g id="edge9_Node000008_Node000009" class="edge">
<title>Node8&#45;&gt;Node9</title>
<g id="a_edge9_Node000008_Node000009"><a xlink:title=" ">
<path fill="none" stroke="#63b8ff" d="M312.73,-169.25C331.83,-159.66 355.78,-147.63 372.65,-139.16"/>
<polygon fill="#63b8ff" stroke="#63b8ff" points="311.41,-166 304.04,-173.62 314.55,-172.26 311.41,-166"/>
</a>
</g>
</g>
<!-- Node8&#45;&gt;Node10 -->
<g id="edge15_Node000008_Node000010" class="edge">
<title>Node8&#45;&gt;Node10</title>
<g id="a_edge15_Node000008_Node000010"><a xlink:title=" ">
<path fill="none" stroke="#63b8ff" d="M188.82,-179.64C157.58,-173.46 124.81,-161.47 101.62,-138.75 85.79,-123.23 82.83,-95.73 82.47,-80.77"/>
<polygon fill="#63b8ff" stroke="#63b8ff" points="187.84,-183.02 198.3,-181.32 189.07,-176.13 187.84,-183.02"/>
</a>
</g>
</g>
<!-- Node13 -->
<g id="Node000013" class="node">
<title>Node13</title>
<g id="a_Node000013"><a xlink:href="menus_8cpp.html" target="_top" xlink:title="source file for the class that handles the creation of menus">
<polygon fill="white" stroke="#666666" points="274.12,-138.75 111.12,-138.75 111.12,-116.5 274.12,-116.5 274.12,-138.75"/>
<text text-anchor="middle" x="192.62" y="-123.35" font-family="Arial" font-size="12.00">main/supporting/menus.cpp</text>
</a>
</g>
</g>
<!-- Node8&#45;&gt;Node13 -->
<g id="edge17_Node000008_Node000013" class="edge">
<title>Node8&#45;&gt;Node13</title>
<g id="a_edge17_Node000008_Node000013"><a xlink:title=" ">
<path fill="none" stroke="#63b8ff" d="M255.21,-168.18C240.33,-158.77 222.2,-147.32 209.29,-139.16"/>
<polygon fill="#63b8ff" stroke="#63b8ff" points="253.28,-171.1 263.61,-173.49 257.02,-165.18 253.28,-171.1"/>
</a>
</g>
</g>
<!-- Node9&#45;&gt;Node4 -->
<g id="edge13_Node000009_Node000004" class="edge">
<title>Node9&#45;&gt;Node4</title>
<g id="a_edge13_Node000009_Node000004"><a xlink:title=" ">
<path fill="none" stroke="#63b8ff" d="M419.51,-109.84C447.73,-91.81 491.32,-64.87 509.62,-58.25 589.6,-29.34 688.81,-18.49 746.3,-14.45"/>
<polygon fill="#63b8ff" stroke="#63b8ff" points="417.68,-106.85 411.16,-115.2 421.46,-112.74 417.68,-106.85"/>
</a>
</g>
</g>
<!-- Node9&#45;&gt;Node10 -->
<g id="edge10_Node000009_Node000010" class="edge">
<title>Node9&#45;&gt;Node10</title>
<g id="a_edge10_Node000009_Node000010"><a xlink:title=" ">
<path fill="none" stroke="#63b8ff" d="M324.07,-114.04C269.03,-104.09 193.06,-90.35 141.12,-80.96"/>
<polygon fill="#63b8ff" stroke="#63b8ff" points="323.18,-117.44 333.64,-115.78 324.42,-110.55 323.18,-117.44"/>
</a>
</g>
</g>
<!-- Node12 -->
<g id="Node000012" class="node">
<title>Node12</title>
<g id="a_Node000012"><a xlink:href="menu__handler_8cpp.html" target="_top" xlink:title="This is the file that contains the class for switching between menus.">
<polygon fill="white" stroke="#666666" points="457.38,-80.5 253.88,-80.5 253.88,-58.25 457.38,-58.25 457.38,-80.5"/>
<text text-anchor="middle" x="355.62" y="-65.1" font-family="Arial" font-size="12.00">main/supporting/menu_handler.cpp</text>
</a>
</g>
</g>
<!-- Node9&#45;&gt;Node12 -->
<g id="edge14_Node000009_Node000012" class="edge">
<title>Node9&#45;&gt;Node12</title>
<g id="a_edge14_Node000009_Node000012"><a xlink:title=" ">
<path fill="none" stroke="#63b8ff" d="M380.1,-106.6C374.24,-97.92 367.62,-88.12 362.74,-80.91"/>
<polygon fill="#63b8ff" stroke="#63b8ff" points="377.13,-108.46 385.63,-114.79 382.93,-104.54 377.13,-108.46"/>
</a>
</g>
</g>
<!-- Node10&#45;&gt;Node4 -->
<g id="edge11_Node000010_Node000004" class="edge">
<title>Node10&#45;&gt;Node4</title>
<g id="a_edge11_Node000010_Node000004"><a xlink:title=" ">
<path fill="none" stroke="#63b8ff" d="M176.85,-60.92C330.69,-48.75 630.29,-25.05 746.23,-15.87"/>
<polygon fill="#63b8ff" stroke="#63b8ff" points="176.78,-57.42 167.09,-61.69 177.33,-64.39 176.78,-57.42"/>
</a>
</g>
</g>
<!-- Node11 -->
<g id="Node000011" class="node">
<title>Node11</title>
<g id="a_Node000011"><a xlink:href="display__task_8cpp.html" target="_top" xlink:title="This is the file that contains the display task.">
<polygon fill="white" stroke="#666666" points="165.25,-22.25 0,-22.25 0,0 165.25,0 165.25,-22.25"/>
<text text-anchor="middle" x="82.62" y="-6.85" font-family="Arial" font-size="12.00">main/tasks/display_task.cpp</text>
</a>
</g>
</g>
<!-- Node10&#45;&gt;Node11 -->
<g id="edge12_Node000010_Node000011" class="edge">
<title>Node10&#45;&gt;Node11</title>
<g id="a_edge12_Node000010_Node000011"><a xlink:title=" ">
<path fill="none" stroke="#63b8ff" d="M82.62,-46.35C82.62,-38.2 82.62,-29.33 82.62,-22.66"/>
<polygon fill="#63b8ff" stroke="#63b8ff" points="79.13,-46.28 82.63,-56.28 86.13,-46.28 79.13,-46.28"/>
</a>
</g>
</g>
<!-- Node15&#45;&gt;Node4 -->
<g id="edge25_Node000015_Node000004" class="edge">
<title>Node15&#45;&gt;Node4</title>
<g id="a_edge25_Node000015_Node000004"><a xlink:title=" ">
<path fill="none" stroke="#63b8ff" d="M1134.16,-228.9C1165.42,-217.36 1196.76,-199.03 1180.62,-174.75 1103.59,-58.81 926.08,-25.35 840.9,-15.83"/>
<polygon fill="#63b8ff" stroke="#63b8ff" points="1133.36,-225.47 1125.06,-232.06 1135.66,-232.09 1133.36,-225.47"/>
</a>
</g>
</g>
<!-- Node15&#45;&gt;Node16 -->
<g id="edge22_Node000015_Node000016" class="edge">
<title>Node15&#45;&gt;Node16</title>
<g id="a_edge22_Node000015_Node000016"><a xlink:title=" ">
<path fill="none" stroke="#63b8ff" d="M1139.06,-229.91C1180.66,-220 1236.85,-206.61 1275.43,-197.41"/>
<polygon fill="#63b8ff" stroke="#63b8ff" points="1138.4,-226.47 1129.49,-232.19 1140.03,-233.28 1138.4,-226.47"/>
</a>
</g>
</g>
<!-- Node18 -->
<g id="Node000018" class="node">
<title>Node18</title>
<g id="a_Node000018"><a xlink:href="esp__now__callback__setup_8cpp.html" target="_top" xlink:title="source file that sets up esp&#45;now callbacks">
<polygon fill="white" stroke="#666666" points="1171.5,-197 935.75,-197 935.75,-174.75 1171.5,-174.75 1171.5,-197"/>
<text text-anchor="middle" x="1053.62" y="-181.6" font-family="Arial" font-size="12.00">main/setup/esp_now_callback_setup.cpp</text>
</a>
</g>
</g>
<!-- Node15&#45;&gt;Node18 -->
<g id="edge26_Node000015_Node000018" class="edge">
<title>Node15&#45;&gt;Node18</title>
<g id="a_edge26_Node000015_Node000018"><a xlink:title=" ">
<path fill="none" stroke="#63b8ff" d="M1072.64,-222.53C1068.09,-214 1063.01,-204.47 1059.24,-197.41"/>
<polygon fill="#63b8ff" stroke="#63b8ff" points="1069.48,-224.03 1077.27,-231.21 1075.65,-220.74 1069.48,-224.03"/>
</a>
</g>
</g>
<!-- Node16&#45;&gt;Node4 -->
<g id="edge23_Node000016_Node000004" class="edge">
<title>Node16&#45;&gt;Node4</title>
<g id="a_edge23_Node000016_Node000004"><a xlink:title=" ">
<path fill="none" stroke="#63b8ff" d="M1271.4,-170.27C1253.27,-162.99 1233.47,-152.7 1218.62,-138.75 1189.07,-110.97 1209.1,-81.16 1175.62,-58.25 1122.22,-21.7 930.84,-14.05 840.93,-12.5"/>
<polygon fill="#63b8ff" stroke="#63b8ff" points="1270.12,-173.52 1280.71,-173.78 1272.59,-166.97 1270.12,-173.52"/>
</a>
</g>
</g>
<!-- Node17 -->
<g id="Node000017" class="node">
<title>Node17</title>
<g id="a_Node000017"><a xlink:href="esp__now__setup_8cpp.html" target="_top" xlink:title="source file that sets up esp&#45;now">
<polygon fill="white" stroke="#666666" points="1412,-138.75 1227.25,-138.75 1227.25,-116.5 1412,-116.5 1412,-138.75"/>
<text text-anchor="middle" x="1319.62" y="-123.35" font-family="Arial" font-size="12.00">main/setup/esp_now_setup.cpp</text>
</a>
</g>
</g>
<!-- Node16&#45;&gt;Node17 -->
<g id="edge24_Node000016_Node000017" class="edge">
<title>Node16&#45;&gt;Node17</title>
<g id="a_edge24_Node000016_Node000017"><a xlink:title=" ">
<path fill="none" stroke="#63b8ff" d="M1319.62,-162.85C1319.62,-154.7 1319.62,-145.83 1319.62,-139.16"/>
<polygon fill="#63b8ff" stroke="#63b8ff" points="1316.13,-162.78 1319.63,-172.78 1323.13,-162.78 1316.13,-162.78"/>
</a>
</g>
</g>
<!-- Node19&#45;&gt;Node4 -->
<g id="edge29_Node000019_Node000004" class="edge">
<title>Node19&#45;&gt;Node4</title>
<g id="a_edge29_Node000019_Node000004"><a xlink:title=" ">
<path fill="none" stroke="#63b8ff" d="M1442.96,-221.48C1445.95,-193.61 1446.51,-145.33 1420.62,-116.5 1343.5,-30.59 973.55,-15.39 841,-12.7"/>
<polygon fill="#63b8ff" stroke="#63b8ff" points="1439.52,-220.84 1441.7,-231.21 1446.46,-221.74 1439.52,-220.84"/>
</a>
</g>
</g>
<!-- Node20 -->
<g id="Node000020" class="node">
<title>Node20</title>
<g id="a_Node000020"><a xlink:href="i2c__setup_8cpp.html" target="_top" xlink:title="source file that sets up the i2c bus">
<polygon fill="white" stroke="#666666" points="1619.5,-197 1467.75,-197 1467.75,-174.75 1619.5,-174.75 1619.5,-197"/>
<text text-anchor="middle" x="1543.62" y="-181.6" font-family="Arial" font-size="12.00">main/setup/i2c_setup.cpp</text>
</a>
</g>
</g>
<!-- Node19&#45;&gt;Node20 -->
<g id="edge30_Node000019_Node000020" class="edge">
<title>Node19&#45;&gt;Node20</title>
<g id="a_edge30_Node000019_Node000020"><a xlink:title=" ">
<path fill="none" stroke="#63b8ff" d="M1469,-227.24C1486.66,-217.69 1508.63,-205.8 1524.15,-197.41"/>
<polygon fill="#63b8ff" stroke="#63b8ff" points="1467.65,-223.99 1460.52,-231.82 1470.98,-230.15 1467.65,-223.99"/>
</a>
</g>
</g>
<!-- Node21&#45;&gt;Node4 -->
<g id="edge34_Node000021_Node000004" class="edge">
<title>Node21&#45;&gt;Node4</title>
<g id="a_edge34_Node000021_Node000004"><a xlink:title=" ">
<path fill="none" stroke="#63b8ff" d="M1826.46,-229.83C1866.32,-219.13 1904.17,-201.43 1882.62,-174.75 1728.4,16.29 1585.46,-94.49 1342.62,-58.25 1158.15,-30.72 936.17,-18.37 840.86,-14.04"/>
<polygon fill="#63b8ff" stroke="#63b8ff" points="1825.79,-226.39 1816.95,-232.22 1827.51,-233.17 1825.79,-226.39"/>
</a>
</g>
</g>
<!-- Node22 -->
<g id="Node000022" class="node">
<title>Node22</title>
<g id="a_Node000022"><a xlink:href="ps4__data__processor__task_8cpp.html" target="_top" xlink:title="This is the file that contains the ps4 data processor task.">
<polygon fill="white" stroke="#666666" points="1873.5,-197 1637.75,-197 1637.75,-174.75 1873.5,-174.75 1873.5,-197"/>
<text text-anchor="middle" x="1755.62" y="-181.6" font-family="Arial" font-size="12.00">main/tasks/ps4_data_processor_task.cpp</text>
</a>
</g>
</g>
<!-- Node21&#45;&gt;Node22 -->
<g id="edge35_Node000021_Node000022" class="edge">
<title>Node21&#45;&gt;Node22</title>
<g id="a_edge35_Node000021_Node000022"><a xlink:title=" ">
<path fill="none" stroke="#63b8ff" d="M1755.62,-221.1C1755.62,-212.95 1755.62,-204.08 1755.62,-197.41"/>
<polygon fill="#63b8ff" stroke="#63b8ff" points="1752.13,-221.03 1755.63,-231.03 1759.13,-221.03 1752.13,-221.03"/>
</a>
</g>
</g>
<!-- Node23&#45;&gt;Node4 -->
<g id="edge38_Node000023_Node000004" class="edge">
<title>Node23&#45;&gt;Node4</title>
<g id="a_edge38_Node000023_Node000004"><a xlink:title=" ">
<path fill="none" stroke="#63b8ff" d="M2073.45,-229.02C2107.26,-217.23 2141.85,-198.52 2122.62,-174.75 2044.9,-78.61 1971.62,-141.91 1850.62,-116.5 1724.95,-90.11 1694.93,-75.06 1567.62,-58.25 1294.04,-22.13 962.29,-14.28 840.97,-12.59"/>
<polygon fill="#63b8ff" stroke="#63b8ff" points="2072.41,-225.68 2064.01,-232.13 2074.6,-232.33 2072.41,-225.68"/>
</a>
</g>
</g>
<!-- Node24 -->
<g id="Node000024" class="node">
<title>Node24</title>
<g id="a_Node000024"><a xlink:href="send__data__task_8cpp.html" target="_top" xlink:title="This is the file that contains the send data task.">
<polygon fill="white" stroke="#666666" points="2113.25,-197 1930,-197 1930,-174.75 2113.25,-174.75 2113.25,-197"/>
<text text-anchor="middle" x="2021.62" y="-181.6" font-family="Arial" font-size="12.00">main/tasks/send_data_task.cpp</text>
</a>
</g>
</g>
<!-- Node23&#45;&gt;Node24 -->
<g id="edge39_Node000023_Node000024" class="edge">
<title>Node23&#45;&gt;Node24</title>
<g id="a_edge39_Node000023_Node000024"><a xlink:title=" ">
<path fill="none" stroke="#63b8ff" d="M2021.62,-221.1C2021.62,-212.95 2021.62,-204.08 2021.62,-197.41"/>
<polygon fill="#63b8ff" stroke="#63b8ff" points="2018.13,-221.03 2021.63,-231.03 2025.13,-221.03 2018.13,-221.03"/>
</a>
</g>
</g>
</g>
</svg>

<g id="navigator" transform="translate(0 0)" fill="#404254">
  <rect fill="#f2f5e9" fill-opacity="0.5" stroke="#606060" stroke-width=".5" x="0" y="0" width="60" height="60"/>
  <use id="zoomplus" xlink:href="#zoomPlus" x="17" y="9" onmousedown="handleZoom(evt,'in')"/>
  <use id="zoomminus" xlink:href="#zoomMin" x="42" y="9" onmousedown="handleZoom(evt,'out')"/>
  <use id="reset" xlink:href="#resetDef" x="30" y="36" onmousedown="handleReset()"/>
   <use id="arrowup" xlink:href="#arrowUp" x="0" y="0" onmousedown="handlePan(0,-1)"/>
  <use id="arrowright" xlink:href="#arrowRight" x="0" y="0" onmousedown="handlePan(1,0)"/>
  <use id="arrowdown" xlink:href="#arrowDown" x="0" y="0" onmousedown="handlePan(0,1)"/>
  <use id="arrowleft" xlink:href="#arrowLeft" x="0" y="0" onmousedown="handlePan(-1,0)"/>
</g>
<svg viewBox="0 0 15 15" width="100%" height="30px" preserveAspectRatio="xMaxYMin meet">
 <g id="arrow_out" transform="scale(0.3 0.3)">
  <a xlink:href="pinout_8h__dep__incl_org.svg" target="_base">
   <rect id="button" ry="5" rx="5" y="6" x="6" height="38" width="38"
        fill="#f2f5e9" fill-opacity="0.5" stroke="#606060" stroke-width="1.0"/>
   <path id="arrow"
     d="M 11.500037,31.436501 C 11.940474,20.09759 22.043105,11.32322 32.158766,21.979434 L 37.068811,17.246167 C 37.068811,17.246167 37.088388,32 37.088388,32 L 22.160133,31.978069 C 22.160133,31.978069 26.997745,27.140456 26.997745,27.140456 C 18.528582,18.264221 13.291696,25.230495 11.500037,31.436501 z"
     style="fill:#404040;"/>
  </a>
 </g>
</svg>

<style type='text/css'>
<![CDATA[
[data-mouse-over-selected='false'] { opacity: 0.7; }
[data-mouse-over-selected='true']  { opacity: 1.0; }
]]>
</style>
<script type="application/ecmascript"><![CDATA[
document.addEventListener('DOMContentLoaded', (event) => {
  highlightEdges();
  highlightAdjacentNodes();
});
]]></script>
</svg>
