<?xml version="1.0" encoding="UTF-8" standalone="no"?>
<!DOCTYPE svg PUBLIC "-//W3C//DTD SVG 1.1//EN"
 "http://www.w3.org/Graphics/SVG/1.1/DTD/svg11.dtd">
<!-- Generated by graphviz version 12.2.1 (20241206.2353)
 -->
<!-- Title: include/drivers/ps4.h Pages: 1 -->
<svg width="373pt" height="147pt"
 viewBox="0.00 0.00 373.12 146.75" xmlns="http://www.w3.org/2000/svg" xmlns:xlink="http://www.w3.org/1999/xlink">

<svg id="main" version="1.1" xmlns="http://www.w3.org/2000/svg" xmlns:xlink="http://www.w3.org/1999/xlink" xml:space="preserve">

<style type="text/css"><![CDATA[
.node, .edge {opacity: 0.7;}
.node.selected, .edge.selected {opacity: 1;}
.edge:hover path { stroke: red; }
.edge:hover polygon { stroke: red; fill: red; }
]]></style>
<script type="application/ecmascript" xlink:href="svg.min.js"/>
<svg id="graph" class="graph">
<g id="graph0" class="graph" transform="scale(1 1) rotate(0) translate(4 142.75)">
<title>include/drivers/ps4.h</title>
<!-- Node1 -->
<g id="Node000001" class="node">
<title>Node1</title>
<g id="a_Node000001"><a xlink:title="This is the file that contains the ps4 controller class (and internal tasks for usb host)">
<polygon fill="#999999" stroke="#666666" points="211.12,-138.75 84.88,-138.75 84.88,-116.5 211.12,-116.5 211.12,-138.75"/>
<text text-anchor="middle" x="148" y="-123.35" font-family="Arial" font-size="12.00">include/drivers/ps4.h</text>
</a>
</g>
</g>
<!-- Node2 -->
<g id="Node000002" class="node">
<title>Node2</title>
<g id="a_Node000002"><a xlink:href="ps4__task_8h.html" target="_top" xlink:title="This is the file that contains the ps4 task.">
<polygon fill="white" stroke="#666666" points="221.25,-80.5 74.75,-80.5 74.75,-58.25 221.25,-58.25 221.25,-80.5"/>
<text text-anchor="middle" x="148" y="-65.1" font-family="Arial" font-size="12.00">include/tasks/ps4_task.h</text>
</a>
</g>
</g>
<!-- Node1&#45;&gt;Node2 -->
<g id="edge1_Node000001_Node000002" class="edge">
<title>Node1&#45;&gt;Node2</title>
<g id="a_edge1_Node000001_Node000002"><a xlink:title=" ">
<path fill="none" stroke="#63b8ff" d="M148,-104.6C148,-96.45 148,-87.58 148,-80.91"/>
<polygon fill="#63b8ff" stroke="#63b8ff" points="144.5,-104.53 148,-114.53 151.5,-104.53 144.5,-104.53"/>
</a>
</g>
</g>
<!-- Node3 -->
<g id="Node000003" class="node">
<title>Node3</title>
<g id="a_Node000003"><a xlink:href="main_8cpp.html" target="_top" xlink:title="This is the file that contains the main function and all other tasks for the robot controller.">
<polygon fill="white" stroke="#666666" points="94,-22.25 0,-22.25 0,0 94,0 94,-22.25"/>
<text text-anchor="middle" x="47" y="-6.85" font-family="Arial" font-size="12.00">main/main.cpp</text>
</a>
</g>
</g>
<!-- Node1&#45;&gt;Node3 -->
<g id="edge5_Node000001_Node000003" class="edge">
<title>Node1&#45;&gt;Node3</title>
<g id="a_edge5_Node000001_Node000003"><a xlink:title=" ">
<path fill="none" stroke="#63b8ff" d="M107.03,-111.46C92.22,-104.15 76.56,-93.97 66,-80.5 52.47,-63.24 48.57,-36.92 47.45,-22.49"/>
<polygon fill="#63b8ff" stroke="#63b8ff" points="105.15,-114.45 115.7,-115.45 108.07,-108.09 105.15,-114.45"/>
</a>
</g>
</g>
<!-- Node5 -->
<g id="Node000005" class="node">
<title>Node5</title>
<g id="a_Node000005"><a xlink:href="ps4_8cpp.html" target="_top" xlink:title="This is the file that contains the ps4 controller class (and internal tasks for usb host)">
<polygon fill="white" stroke="#666666" points="365.12,-80.5 238.88,-80.5 238.88,-58.25 365.12,-58.25 365.12,-80.5"/>
<text text-anchor="middle" x="302" y="-65.1" font-family="Arial" font-size="12.00">main/drivers/ps4.cpp</text>
</a>
</g>
</g>
<!-- Node1&#45;&gt;Node5 -->
<g id="edge4_Node000001_Node000005" class="edge">
<title>Node1&#45;&gt;Node5</title>
<g id="a_edge4_Node000001_Node000005"><a xlink:title=" ">
<path fill="none" stroke="#63b8ff" d="M187.52,-112.19C214.27,-102.42 249,-89.73 273.16,-80.91"/>
<polygon fill="#63b8ff" stroke="#63b8ff" points="186.58,-108.81 178.39,-115.53 188.98,-115.38 186.58,-108.81"/>
</a>
</g>
</g>
<!-- Node2&#45;&gt;Node3 -->
<g id="edge2_Node000002_Node000003" class="edge">
<title>Node2&#45;&gt;Node3</title>
<g id="a_edge2_Node000002_Node000003"><a xlink:title=" ">
<path fill="none" stroke="#63b8ff" d="M118.99,-52.22C101.93,-42.72 80.84,-30.97 65.91,-22.66"/>
<polygon fill="#63b8ff" stroke="#63b8ff" points="117.24,-55.25 127.68,-57.06 120.65,-49.13 117.24,-55.25"/>
</a>
</g>
</g>
<!-- Node4 -->
<g id="Node000004" class="node">
<title>Node4</title>
<g id="a_Node000004"><a xlink:href="ps4__task_8cpp.html" target="_top" xlink:title="This is the file that contains the ps4 task.">
<polygon fill="white" stroke="#666666" points="258.25,-22.25 111.75,-22.25 111.75,0 258.25,0 258.25,-22.25"/>
<text text-anchor="middle" x="185" y="-6.85" font-family="Arial" font-size="12.00">main/tasks/ps4_task.cpp</text>
</a>
</g>
</g>
<!-- Node2&#45;&gt;Node4 -->
<g id="edge3_Node000002_Node000004" class="edge">
<title>Node2&#45;&gt;Node4</title>
<g id="a_edge3_Node000002_Node000004"><a xlink:title=" ">
<path fill="none" stroke="#63b8ff" d="M161.17,-48.35C166.88,-39.67 173.32,-29.87 178.07,-22.66"/>
<polygon fill="#63b8ff" stroke="#63b8ff" points="158.36,-46.25 155.79,-56.53 164.21,-50.1 158.36,-46.25"/>
</a>
</g>
</g>
</g>
</svg>
</svg>

<style type='text/css'>
<![CDATA[
[data-mouse-over-selected='false'] { opacity: 0.7; }
[data-mouse-over-selected='true']  { opacity: 1.0; }
]]>
</style>
<script type="application/ecmascript"><![CDATA[
document.addEventListener('DOMContentLoaded', (event) => {
  highlightEdges();
  highlightAdjacentNodes();
});
]]></script>
</svg>
