<?xml version="1.0" encoding="UTF-8" standalone="no"?>
<!DOCTYPE svg PUBLIC "-//W3C//DTD SVG 1.1//EN"
 "http://www.w3.org/Graphics/SVG/1.1/DTD/svg11.dtd">
<!-- Generated by graphviz version 12.2.1 (20241206.2353)
 -->
<!-- Title: include/tasks/ps4_data_processor_task.h Pages: 1 -->
<svg width="356pt" height="89pt"
 viewBox="0.00 0.00 355.88 88.50" xmlns="http://www.w3.org/2000/svg" xmlns:xlink="http://www.w3.org/1999/xlink">
<g id="graph0" class="graph" transform="scale(1 1) rotate(0) translate(4 84.5)">
<title>include/tasks/ps4_data_processor_task.h</title>
<!-- Node1 -->
<g id="Node000001" class="node">
<title>Node1</title>
<g id="a_Node000001"><a xlink:title="This is the file that contains the ps4 data processor task.">
<polygon fill="#999999" stroke="#666666" points="255.88,-80.5 20.12,-80.5 20.12,-58.25 255.88,-58.25 255.88,-80.5"/>
<text text-anchor="middle" x="138" y="-65.1" font-family="Arial" font-size="12.00">include/tasks/ps4_data_processor_task.h</text>
</a>
</g>
</g>
<!-- Node2 -->
<g id="Node000002" class="node">
<title>Node2</title>
<g id="a_Node000002"><a xlink:href="main_8cpp.html" target="_top" xlink:title="This is the file that contains the main function and all other tasks for the robot controller.">
<polygon fill="white" stroke="#666666" points="94,-22.25 0,-22.25 0,0 94,0 94,-22.25"/>
<text text-anchor="middle" x="47" y="-6.85" font-family="Arial" font-size="12.00">main/main.cpp</text>
</a>
</g>
</g>
<!-- Node1&#45;&gt;Node2 -->
<g id="edge1_Node000001_Node000002" class="edge">
<title>Node1&#45;&gt;Node2</title>
<g id="a_edge1_Node000001_Node000002"><a xlink:title=" ">
<path fill="none" stroke="#63b8ff" d="M111.43,-51.95C96.13,-42.49 77.36,-30.89 64.04,-22.66"/>
<polygon fill="#63b8ff" stroke="#63b8ff" points="109.25,-54.72 119.6,-57 112.93,-48.76 109.25,-54.72"/>
</a>
</g>
</g>
<!-- Node3 -->
<g id="Node000003" class="node">
<title>Node3</title>
<g id="a_Node000003"><a xlink:href="ps4__data__processor__task_8cpp.html" target="_top" xlink:title="This is the file that contains the ps4 data processor task.">
<polygon fill="white" stroke="#666666" points="347.88,-22.25 112.12,-22.25 112.12,0 347.88,0 347.88,-22.25"/>
<text text-anchor="middle" x="230" y="-6.85" font-family="Arial" font-size="12.00">main/tasks/ps4_data_processor_task.cpp</text>
</a>
</g>
</g>
<!-- Node1&#45;&gt;Node3 -->
<g id="edge2_Node000001_Node000003" class="edge">
<title>Node1&#45;&gt;Node3</title>
<g id="a_edge2_Node000001_Node000003"><a xlink:title=" ">
<path fill="none" stroke="#63b8ff" d="M164.87,-51.95C180.33,-42.49 199.3,-30.89 212.77,-22.66"/>
<polygon fill="#63b8ff" stroke="#63b8ff" points="163.3,-48.8 156.6,-57.01 166.95,-54.77 163.3,-48.8"/>
</a>
</g>
</g>
</g>
</svg>
