<?xml version="1.0" encoding="UTF-8" standalone="no"?>
<!DOCTYPE svg PUBLIC "-//W3C//DTD SVG 1.1//EN"
 "http://www.w3.org/Graphics/SVG/1.1/DTD/svg11.dtd">
<!-- Generated by graphviz version 12.2.1 (20241206.2353)
 -->
<!-- Title: app_espnow_responder Pages: 1 -->
<svg width="823pt" height="630pt"
 viewBox="0.00 0.00 822.75 630.25" xmlns="http://www.w3.org/2000/svg" xmlns:xlink="http://www.w3.org/1999/xlink">
<g id="graph0" class="graph" transform="scale(1 1) rotate(0) translate(4 626.25)">
<title>app_espnow_responder</title>
<!-- Node1 -->
<g id="Node000001" class="node">
<title>Node1</title>
<g id="a_Node000001"><a xlink:title=" ">
<polygon fill="#999999" stroke="#666666" points="145.75,-182.25 0,-182.25 0,-160 145.75,-160 145.75,-182.25"/>
<text text-anchor="middle" x="72.88" y="-166.85" font-family="Arial" font-size="12.00">app_espnow_responder</text>
</a>
</g>
</g>
<!-- Node2 -->
<g id="Node000002" class="node">
<title>Node2</title>
<g id="a_Node000002"><a xlink:href="espnow__commands_8c.html#a0bb86e9397ef9f6da395e1a03b34a139" target="_top" xlink:title="Register Common commands.">
<polygon fill="white" stroke="#666666" points="400.25,-442.25 181.75,-442.25 181.75,-420 400.25,-420 400.25,-442.25"/>
<text text-anchor="middle" x="291" y="-426.85" font-family="Arial" font-size="12.00">espnow_console_commands_register</text>
</a>
</g>
</g>
<!-- Node1&#45;&gt;Node2 -->
<g id="edge1_Node000001_Node000002" class="edge">
<title>Node1&#45;&gt;Node2</title>
<g id="a_edge1_Node000001_Node000002"><a xlink:title=" ">
<path fill="none" stroke="#63b8ff" d="M82.25,-182.61C100.02,-206.82 143.03,-264.71 181.75,-311.12 212.06,-347.45 249.4,-387.99 271.37,-411.42"/>
<polygon fill="#63b8ff" stroke="#63b8ff" points="268.81,-413.81 278.21,-418.7 273.91,-409.02 268.81,-413.81"/>
</a>
</g>
</g>
<!-- Node22 -->
<g id="Node000022" class="node">
<title>Node22</title>
<g id="a_Node000022"><a xlink:href="espnow__console_8c.html#aa6f31005efa0f0074f02968b96f8bd7a" target="_top" xlink:title="Initialize console module.">
<polygon fill="white" stroke="#666666" points="355.62,-262.25 226.38,-262.25 226.38,-240 355.62,-240 355.62,-262.25"/>
<text text-anchor="middle" x="291" y="-246.85" font-family="Arial" font-size="12.00">espnow_console_init</text>
</a>
</g>
</g>
<!-- Node1&#45;&gt;Node22 -->
<g id="edge21_Node000001_Node000022" class="edge">
<title>Node1&#45;&gt;Node22</title>
<g id="a_edge21_Node000001_Node000022"><a xlink:title=" ">
<path fill="none" stroke="#63b8ff" d="M90.61,-182.72C111.15,-196.38 147.47,-218.8 181.75,-231.12 192.27,-234.91 203.64,-238.01 214.91,-240.53"/>
<polygon fill="#63b8ff" stroke="#63b8ff" points="214.13,-243.95 224.64,-242.57 215.57,-237.1 214.13,-243.95"/>
</a>
</g>
</g>
<!-- Node24 -->
<g id="Node000024" class="node">
<title>Node24</title>
<g id="a_Node000024"><a xlink:href="espnow_8c.html#a20960515d17cbc436c4598a4b8134c94" target="_top" xlink:title="Get the security key info stored in flash If no security key info is stored in flash,...">
<polygon fill="white" stroke="#666666" points="344.38,-222.25 237.62,-222.25 237.62,-200 344.38,-200 344.38,-222.25"/>
<text text-anchor="middle" x="291" y="-206.85" font-family="Arial" font-size="12.00">espnow_get_key</text>
</a>
</g>
</g>
<!-- Node1&#45;&gt;Node24 -->
<g id="edge23_Node000001_Node000024" class="edge">
<title>Node1&#45;&gt;Node24</title>
<g id="a_edge23_Node000001_Node000024"><a xlink:title=" ">
<path fill="none" stroke="#63b8ff" d="M136.34,-182.71C151.22,-185.47 167.05,-188.4 181.75,-191.12 196.13,-193.79 211.58,-196.64 226.18,-199.34"/>
<polygon fill="#63b8ff" stroke="#63b8ff" points="225.18,-202.72 235.65,-201.09 226.46,-195.83 225.18,-202.72"/>
</a>
</g>
</g>
<!-- Node26 -->
<g id="Node000026" class="node">
<title>Node26</title>
<g id="a_Node000026"><a xlink:href="espnow__log_8c.html#a6d4afb9055e0375fefca1df8298b5ef9" target="_top" xlink:title="Initialize log debug.">
<polygon fill="white" stroke="#666666" points="342.88,-182.25 239.12,-182.25 239.12,-160 342.88,-160 342.88,-182.25"/>
<text text-anchor="middle" x="291" y="-166.85" font-family="Arial" font-size="12.00">espnow_log_init</text>
</a>
</g>
</g>
<!-- Node1&#45;&gt;Node26 -->
<g id="edge25_Node000001_Node000026" class="edge">
<title>Node1&#45;&gt;Node26</title>
<g id="a_edge25_Node000001_Node000026"><a xlink:title=" ">
<path fill="none" stroke="#63b8ff" d="M146.14,-171.12C172.43,-171.12 201.9,-171.12 227.29,-171.12"/>
<polygon fill="#63b8ff" stroke="#63b8ff" points="227.12,-174.63 237.12,-171.13 227.12,-167.63 227.12,-174.63"/>
</a>
</g>
</g>
<!-- Node28 -->
<g id="Node000028" class="node">
<title>Node28</title>
<g id="a_Node000028"><a xlink:href="espnow__ota__responder_8c.html#ab046328511e23a2687f41b7c3b7cc407" target="_top" xlink:title="Start upgrading.">
<polygon fill="white" stroke="#666666" points="376.62,-302.25 205.38,-302.25 205.38,-280 376.62,-280 376.62,-302.25"/>
<text text-anchor="middle" x="291" y="-286.85" font-family="Arial" font-size="12.00">espnow_ota_responder_start</text>
</a>
</g>
</g>
<!-- Node1&#45;&gt;Node28 -->
<g id="edge27_Node000001_Node000028" class="edge">
<title>Node1&#45;&gt;Node28</title>
<g id="a_edge27_Node000001_Node000028"><a xlink:title=" ">
<path fill="none" stroke="#63b8ff" d="M82.51,-182.63C99.16,-203.88 137.93,-249.13 181.75,-271.12 185.77,-273.14 189.96,-274.95 194.26,-276.59"/>
<polygon fill="#63b8ff" stroke="#63b8ff" points="193.11,-279.89 203.71,-279.8 195.36,-273.27 193.11,-279.89"/>
</a>
</g>
</g>
<!-- Node29 -->
<g id="Node000029" class="node">
<title>Node29</title>
<g id="a_Node000029"><a xlink:href="espnow__security__responder_8c.html#a550e5f438d39bba5dc7c34e48c6f1c65" target="_top" xlink:title="Start security process.">
<polygon fill="white" stroke="#666666" points="377.75,-142.25 204.25,-142.25 204.25,-120 377.75,-120 377.75,-142.25"/>
<text text-anchor="middle" x="291" y="-126.85" font-family="Arial" font-size="12.00">espnow_sec_responder_start</text>
</a>
</g>
</g>
<!-- Node1&#45;&gt;Node29 -->
<g id="edge29_Node000001_Node000029" class="edge">
<title>Node1&#45;&gt;Node29</title>
<g id="a_edge29_Node000001_Node000029"><a xlink:title=" ">
<path fill="none" stroke="#63b8ff" d="M136.34,-159.54C151.22,-156.78 167.05,-153.85 181.75,-151.12 192.93,-149.06 204.76,-146.87 216.33,-144.73"/>
<polygon fill="#63b8ff" stroke="#63b8ff" points="216.63,-148.23 225.83,-142.97 215.36,-141.35 216.63,-148.23"/>
</a>
</g>
</g>
<!-- Node30 -->
<g id="Node000030" class="node">
<title>Node30</title>
<g id="a_Node000030"><a xlink:href="espnow_8c.html#a9664730b8b7e142959c5c0f9c55e8def" target="_top" xlink:title="Set the security key info The security key info is used to derive key and stored to flash....">
<polygon fill="white" stroke="#666666" points="357.12,-62.25 224.88,-62.25 224.88,-40 357.12,-40 357.12,-62.25"/>
<text text-anchor="middle" x="291" y="-46.85" font-family="Arial" font-size="12.00">espnow_set_dec_key</text>
</a>
</g>
</g>
<!-- Node1&#45;&gt;Node30 -->
<g id="edge30_Node000001_Node000030" class="edge">
<title>Node1&#45;&gt;Node30</title>
<g id="a_edge30_Node000001_Node000030"><a xlink:title=" ">
<path fill="none" stroke="#63b8ff" d="M82.51,-159.62C99.16,-138.37 137.93,-93.12 181.75,-71.12 191.61,-66.17 202.54,-62.44 213.54,-59.62"/>
<polygon fill="#63b8ff" stroke="#63b8ff" points="214.09,-63.09 223.05,-57.44 212.53,-56.27 214.09,-63.09"/>
</a>
</g>
</g>
<!-- Node33 -->
<g id="Node000033" class="node">
<title>Node33</title>
<g id="a_Node000033"><a xlink:href="espnow_8c.html#a776b545b0faedcd1511a6d59a7213029" target="_top" xlink:title="Set the security key info The security key info is used to derive key and stored to flash....">
<polygon fill="white" stroke="#666666" points="344,-102.25 238,-102.25 238,-80 344,-80 344,-102.25"/>
<text text-anchor="middle" x="291" y="-86.85" font-family="Arial" font-size="12.00">espnow_set_key</text>
</a>
</g>
</g>
<!-- Node1&#45;&gt;Node33 -->
<g id="edge33_Node000001_Node000033" class="edge">
<title>Node1&#45;&gt;Node33</title>
<g id="a_edge33_Node000001_Node000033"><a xlink:title=" ">
<path fill="none" stroke="#63b8ff" d="M90.61,-159.53C111.15,-145.87 147.47,-123.45 181.75,-111.12 195.87,-106.05 211.5,-102.21 226.4,-99.32"/>
<polygon fill="#63b8ff" stroke="#63b8ff" points="226.9,-102.78 236.12,-97.56 225.66,-95.89 226.9,-102.78"/>
</a>
</g>
</g>
<!-- Node34 -->
<g id="Node000034" class="node">
<title>Node34</title>
<g id="a_Node000034"><a xlink:href="espnow__timesync_8c.html#a2111aa57c26ce6218f9f0cfb6bf235af" target="_top" xlink:title="Initialize time synchronization.">
<polygon fill="white" stroke="#666666" points="361.62,-22.25 220.38,-22.25 220.38,0 361.62,0 361.62,-22.25"/>
<text text-anchor="middle" x="291" y="-6.85" font-family="Arial" font-size="12.00">espnow_timesync_start</text>
</a>
</g>
</g>
<!-- Node1&#45;&gt;Node34 -->
<g id="edge36_Node000001_Node000034" class="edge">
<title>Node1&#45;&gt;Node34</title>
<g id="a_edge36_Node000001_Node000034"><a xlink:title=" ">
<path fill="none" stroke="#63b8ff" d="M79,-159.78C91.91,-132.6 128.6,-63.6 181.75,-31.12 190.1,-26.02 199.45,-22.16 209.05,-19.25"/>
<polygon fill="#63b8ff" stroke="#63b8ff" points="209.74,-22.68 218.5,-16.73 207.94,-15.92 209.74,-22.68"/>
</a>
</g>
</g>
<!-- Node3 -->
<g id="Node000003" class="node">
<title>Node3</title>
<g id="a_Node000003"><a xlink:href="cmd__espnow_8c.html#a49ab8b4f30ba6620b8349e8dbcf6e7a7" target="_top" xlink:title=" ">
<polygon fill="white" stroke="#666666" points="588,-382.25 483.5,-382.25 483.5,-360 588,-360 588,-382.25"/>
<text text-anchor="middle" x="535.75" y="-366.85" font-family="Arial" font-size="12.00">register_espnow</text>
</a>
</g>
</g>
<!-- Node2&#45;&gt;Node3 -->
<g id="edge2_Node000002_Node000003" class="edge">
<title>Node2&#45;&gt;Node3</title>
<g id="a_edge2_Node000002_Node000003"><a xlink:title=" ">
<path fill="none" stroke="#63b8ff" d="M330.99,-419.51C359.91,-411.1 400.36,-399.73 436.25,-391.12 447.76,-388.36 460.08,-385.66 471.98,-383.18"/>
<polygon fill="#63b8ff" stroke="#63b8ff" points="472.65,-386.62 481.74,-381.18 471.24,-379.76 472.65,-386.62"/>
</a>
</g>
</g>
<!-- Node9 -->
<g id="Node000009" class="node">
<title>Node9</title>
<g id="a_Node000009"><a xlink:href="cmd__iperf_8c.html#aba7899961f37bd327bbcfbfbe6582b3d" target="_top" xlink:title=" ">
<polygon fill="white" stroke="#666666" points="578.62,-342.25 492.88,-342.25 492.88,-320 578.62,-320 578.62,-342.25"/>
<text text-anchor="middle" x="535.75" y="-326.85" font-family="Arial" font-size="12.00">register_iperf</text>
</a>
</g>
</g>
<!-- Node2&#45;&gt;Node9 -->
<g id="edge8_Node000002_Node000009" class="edge">
<title>Node2&#45;&gt;Node9</title>
<g id="a_edge8_Node000002_Node000009"><a xlink:title=" ">
<path fill="none" stroke="#63b8ff" d="M308.5,-419.74C334.5,-402.35 387.08,-369.26 436.25,-351.12 450.6,-345.83 466.67,-341.82 481.6,-338.83"/>
<polygon fill="#63b8ff" stroke="#63b8ff" points="482.08,-342.3 491.26,-337.02 480.79,-335.42 482.08,-342.3"/>
</a>
</g>
</g>
<!-- Node12 -->
<g id="Node000012" class="node">
<title>Node12</title>
<g id="a_Node000012"><a xlink:href="cmd__peripherals_8c.html#a32de1cde0b0101a969e28a296a893a0c" target="_top" xlink:title=" ">
<polygon fill="white" stroke="#666666" points="597,-302.25 474.5,-302.25 474.5,-280 597,-280 597,-302.25"/>
<text text-anchor="middle" x="535.75" y="-286.85" font-family="Arial" font-size="12.00">register_peripherals</text>
</a>
</g>
</g>
<!-- Node2&#45;&gt;Node12 -->
<g id="edge11_Node000002_Node000012" class="edge">
<title>Node2&#45;&gt;Node12</title>
<g id="a_edge11_Node000002_Node000012"><a xlink:title=" ">
<path fill="none" stroke="#63b8ff" d="M301.9,-419.73C323.6,-395.55 378.09,-339.01 436.25,-311.12 444.68,-307.09 453.89,-303.86 463.18,-301.29"/>
<polygon fill="#63b8ff" stroke="#63b8ff" points="463.78,-304.75 472.63,-298.92 462.08,-297.96 463.78,-304.75"/>
</a>
</g>
</g>
<!-- Node13 -->
<g id="Node000013" class="node">
<title>Node13</title>
<g id="a_Node000013"><a xlink:href="cmd__sdcard_8c.html#aee0a19b9ec59752b8124fcb5d3b45d23" target="_top" xlink:title="Register sdcard command.">
<polygon fill="white" stroke="#666666" points="585,-622.25 486.5,-622.25 486.5,-600 585,-600 585,-622.25"/>
<text text-anchor="middle" x="535.75" y="-606.85" font-family="Arial" font-size="12.00">register_sdcard</text>
</a>
</g>
</g>
<!-- Node2&#45;&gt;Node13 -->
<g id="edge12_Node000002_Node000013" class="edge">
<title>Node2&#45;&gt;Node13</title>
<g id="a_edge12_Node000002_Node000013"><a xlink:title=" ">
<path fill="none" stroke="#63b8ff" d="M298.7,-442.68C316.71,-472.6 369.34,-552.93 436.25,-591.12 448.03,-597.85 461.74,-602.33 475.12,-605.32"/>
<polygon fill="#63b8ff" stroke="#63b8ff" points="474.26,-608.72 484.74,-607.2 475.6,-601.85 474.26,-608.72"/>
</a>
</g>
</g>
<!-- Node14 -->
<g id="Node000014" class="node">
<title>Node14</title>
<g id="a_Node000014"><a xlink:href="cmd__system_8c.html#a5cea85be00cb1ee5b57616da2fec81dd" target="_top" xlink:title=" ">
<polygon fill="white" stroke="#666666" points="585.75,-582.25 485.75,-582.25 485.75,-560 585.75,-560 585.75,-582.25"/>
<text text-anchor="middle" x="535.75" y="-566.85" font-family="Arial" font-size="12.00">register_system</text>
</a>
</g>
</g>
<!-- Node2&#45;&gt;Node14 -->
<g id="edge13_Node000002_Node000014" class="edge">
<title>Node2&#45;&gt;Node14</title>
<g id="a_edge13_Node000002_Node000014"><a xlink:title=" ">
<path fill="none" stroke="#63b8ff" d="M301.9,-442.52C323.6,-466.7 378.09,-523.24 436.25,-551.12 447.99,-556.76 461.26,-560.8 474.17,-563.71"/>
<polygon fill="#63b8ff" stroke="#63b8ff" points="473.39,-567.13 483.89,-565.69 474.78,-560.27 473.39,-567.13"/>
</a>
</g>
</g>
<!-- Node15 -->
<g id="Node000015" class="node">
<title>Node15</title>
<g id="a_Node000015"><a xlink:href="cmd__wifi_8c.html#acc3b783818c73878210baf4064425629" target="_top" xlink:title=" ">
<polygon fill="white" stroke="#666666" points="576,-542.25 495.5,-542.25 495.5,-520 576,-520 576,-542.25"/>
<text text-anchor="middle" x="535.75" y="-526.85" font-family="Arial" font-size="12.00">register_wifi</text>
</a>
</g>
</g>
<!-- Node2&#45;&gt;Node15 -->
<g id="edge14_Node000002_Node000015" class="edge">
<title>Node2&#45;&gt;Node15</title>
<g id="a_edge14_Node000002_Node000015"><a xlink:title=" ">
<path fill="none" stroke="#63b8ff" d="M308.5,-442.51C334.5,-459.9 387.08,-492.99 436.25,-511.12 451.4,-516.71 468.47,-520.87 484.09,-523.91"/>
<polygon fill="#63b8ff" stroke="#63b8ff" points="483.2,-527.31 493.67,-525.66 484.46,-520.42 483.2,-527.31"/>
</a>
</g>
</g>
<!-- Node19 -->
<g id="Node000019" class="node">
<title>Node19</title>
<g id="a_Node000019"><a xlink:href="cmd__wifi__sniffer_8c.html#aeca2ef6acde5704f187f7f3734ca0a51" target="_top" xlink:title=" ">
<polygon fill="white" stroke="#666666" points="595.5,-502.25 476,-502.25 476,-480 595.5,-480 595.5,-502.25"/>
<text text-anchor="middle" x="535.75" y="-486.85" font-family="Arial" font-size="12.00">register_wifi_sniffer</text>
</a>
</g>
</g>
<!-- Node2&#45;&gt;Node19 -->
<g id="edge18_Node000002_Node000019" class="edge">
<title>Node2&#45;&gt;Node19</title>
<g id="a_edge18_Node000002_Node000019"><a xlink:title=" ">
<path fill="none" stroke="#63b8ff" d="M330.99,-442.74C359.91,-451.15 400.36,-462.52 436.25,-471.12 445.4,-473.32 455.06,-475.48 464.61,-477.51"/>
<polygon fill="#63b8ff" stroke="#63b8ff" points="463.76,-480.91 474.26,-479.54 465.19,-474.06 463.76,-480.91"/>
</a>
</g>
</g>
<!-- Node20 -->
<g id="Node000020" class="node">
<title>Node20</title>
<g id="a_Node000020"><a xlink:href="sdcard_8c.html#ae3e13ea01aad71d69c7e3c4656de1803" target="_top" xlink:title="Initialize sdcard, Using SDMMC peripheral.">
<polygon fill="white" stroke="#666666" points="573,-462.25 498.5,-462.25 498.5,-440 573,-440 573,-462.25"/>
<text text-anchor="middle" x="535.75" y="-446.85" font-family="Arial" font-size="12.00">sdcard_init</text>
</a>
</g>
</g>
<!-- Node2&#45;&gt;Node20 -->
<g id="edge19_Node000002_Node000020" class="edge">
<title>Node2&#45;&gt;Node20</title>
<g id="a_edge19_Node000002_Node000020"><a xlink:title=" ">
<path fill="none" stroke="#63b8ff" d="M400.59,-440.07C430.78,-442.56 462.04,-445.13 486.77,-447.17"/>
<polygon fill="#63b8ff" stroke="#63b8ff" points="486.25,-450.64 496.5,-447.97 486.82,-443.66 486.25,-450.64"/>
</a>
</g>
</g>
<!-- Node21 -->
<g id="Node000021" class="node">
<title>Node21</title>
<g id="a_Node000021"><a xlink:href="sdcard_8c.html#a1ee82a88b28b169594e94eada1cf1233" target="_top" xlink:title="Check if sdcard is mounted.">
<polygon fill="white" stroke="#666666" points="589.5,-422.25 482,-422.25 482,-400 589.5,-400 589.5,-422.25"/>
<text text-anchor="middle" x="535.75" y="-406.85" font-family="Arial" font-size="12.00">sdcard_is_mount</text>
</a>
</g>
</g>
<!-- Node2&#45;&gt;Node21 -->
<g id="edge20_Node000002_Node000021" class="edge">
<title>Node2&#45;&gt;Node21</title>
<g id="a_edge20_Node000002_Node000021"><a xlink:title=" ">
<path fill="none" stroke="#63b8ff" d="M400.59,-422.18C424.46,-420.21 448.99,-418.19 470.44,-416.42"/>
<polygon fill="#63b8ff" stroke="#63b8ff" points="470.49,-419.93 480.17,-415.62 469.92,-412.95 470.49,-419.93"/>
</a>
</g>
</g>
<!-- Node4 -->
<g id="Node000004" class="node">
<title>Node4</title>
<g id="a_Node000004"><a xlink:href="cmd__espnow_8c.html#a663e227ca7f408c5e70f3a543066c1f3" target="_top" xlink:title="Register command command.">
<polygon fill="white" stroke="#666666" points="800.5,-322.25 685.5,-322.25 685.5,-300 800.5,-300 800.5,-322.25"/>
<text text-anchor="middle" x="743" y="-306.85" font-family="Arial" font-size="12.00">register_command</text>
</a>
</g>
</g>
<!-- Node3&#45;&gt;Node4 -->
<g id="edge3_Node000003_Node000004" class="edge">
<title>Node3&#45;&gt;Node4</title>
<g id="a_edge3_Node000003_Node000004"><a xlink:title=" ">
<path fill="none" stroke="#63b8ff" d="M588.45,-363.71C603.79,-360.7 620.44,-356.6 635.25,-351.12 652.42,-344.79 654.33,-338.11 671.25,-331.12 675.5,-329.37 679.95,-327.72 684.47,-326.17"/>
<polygon fill="#63b8ff" stroke="#63b8ff" points="685.17,-329.62 693.61,-323.21 683.02,-322.96 685.17,-329.62"/>
</a>
</g>
</g>
<!-- Node5 -->
<g id="Node000005" class="node">
<title>Node5</title>
<g id="a_Node000005"><a xlink:href="cmd__espnow_8c.html#a133f010c7f704fae3fd7c7844ab8adb4" target="_top" xlink:title=" ">
<polygon fill="white" stroke="#666666" points="792.25,-482.25 693.75,-482.25 693.75,-460 792.25,-460 792.25,-482.25"/>
<text text-anchor="middle" x="743" y="-466.85" font-family="Arial" font-size="12.00">register_control</text>
</a>
</g>
</g>
<!-- Node3&#45;&gt;Node5 -->
<g id="edge4_Node000003_Node000005" class="edge">
<title>Node3&#45;&gt;Node5</title>
<g id="a_edge4_Node000003_Node000005"><a xlink:title=" ">
<path fill="none" stroke="#63b8ff" d="M588.31,-373.51C604.48,-376.28 621.64,-381.51 635.25,-391.12 660.64,-409.08 646.55,-432.23 671.25,-451.12 674.8,-453.84 678.7,-456.18 682.79,-458.21"/>
<polygon fill="#63b8ff" stroke="#63b8ff" points="681.29,-461.38 691.86,-462.04 684.01,-454.93 681.29,-461.38"/>
</a>
</g>
</g>
<!-- Node6 -->
<g id="Node000006" class="node">
<title>Node6</title>
<g id="a_Node000006"><a xlink:href="cmd__espnow_8c.html#a4116f70abed28605f9edde3cb2b49df3" target="_top" xlink:title=" ">
<polygon fill="white" stroke="#666666" points="782.5,-442.25 703.5,-442.25 703.5,-420 782.5,-420 782.5,-442.25"/>
<text text-anchor="middle" x="743" y="-426.85" font-family="Arial" font-size="12.00">register_ota</text>
</a>
</g>
</g>
<!-- Node3&#45;&gt;Node6 -->
<g id="edge5_Node000003_Node000006" class="edge">
<title>Node3&#45;&gt;Node6</title>
<g id="a_edge5_Node000003_Node000006"><a xlink:title=" ">
<path fill="none" stroke="#63b8ff" d="M588.45,-378.54C603.79,-381.55 620.44,-385.65 635.25,-391.12 652.42,-397.46 654.33,-404.14 671.25,-411.12 677.99,-413.91 685.24,-416.44 692.44,-418.7"/>
<polygon fill="#63b8ff" stroke="#63b8ff" points="691.23,-421.99 701.81,-421.49 693.23,-415.28 691.23,-421.99"/>
</a>
</g>
</g>
<!-- Node7 -->
<g id="Node000007" class="node">
<title>Node7</title>
<g id="a_Node000007"><a xlink:href="cmd__espnow_8c.html#a250a2960cac20a0a927ea9ee538d0ed1" target="_top" xlink:title=" ">
<polygon fill="white" stroke="#666666" points="806.88,-402.25 679.12,-402.25 679.12,-380 806.88,-380 806.88,-402.25"/>
<text text-anchor="middle" x="743" y="-386.85" font-family="Arial" font-size="12.00">register_provisioning</text>
</a>
</g>
</g>
<!-- Node3&#45;&gt;Node7 -->
<g id="edge6_Node000003_Node000007" class="edge">
<title>Node3&#45;&gt;Node7</title>
<g id="a_edge6_Node000003_Node000007"><a xlink:title=" ">
<path fill="none" stroke="#63b8ff" d="M588.28,-376.15C612.17,-378.47 641.03,-381.29 667.26,-383.84"/>
<polygon fill="#63b8ff" stroke="#63b8ff" points="666.9,-387.32 677.2,-384.81 667.58,-380.36 666.9,-387.32"/>
</a>
</g>
</g>
<!-- Node8 -->
<g id="Node000008" class="node">
<title>Node8</title>
<g id="a_Node000008"><a xlink:href="cmd__espnow_8c.html#a952bdf39df32da2582cc93259df66b21" target="_top" xlink:title=" ">
<polygon fill="white" stroke="#666666" points="787,-362.25 699,-362.25 699,-340 787,-340 787,-362.25"/>
<text text-anchor="middle" x="743" y="-346.85" font-family="Arial" font-size="12.00">register_scan</text>
</a>
</g>
</g>
<!-- Node3&#45;&gt;Node8 -->
<g id="edge7_Node000003_Node000008" class="edge">
<title>Node3&#45;&gt;Node8</title>
<g id="a_edge7_Node000003_Node000008"><a xlink:title=" ">
<path fill="none" stroke="#63b8ff" d="M588.28,-366.1C618.5,-363.16 656.65,-359.44 687.39,-356.45"/>
<polygon fill="#63b8ff" stroke="#63b8ff" points="687.66,-359.94 697.27,-355.48 686.98,-352.97 687.66,-359.94"/>
</a>
</g>
</g>
<!-- Node10 -->
<g id="Node000010" class="node">
<title>Node10</title>
<g id="a_Node000010"><a xlink:href="cmd__iperf_8c.html#a59752ecd5d3a975453892e77911181f3" target="_top" xlink:title=" ">
<polygon fill="white" stroke="#666666" points="814.75,-282.25 671.25,-282.25 671.25,-260 814.75,-260 814.75,-282.25"/>
<text text-anchor="middle" x="743" y="-266.85" font-family="Arial" font-size="12.00">register_espnow_config</text>
</a>
</g>
</g>
<!-- Node9&#45;&gt;Node10 -->
<g id="edge9_Node000009_Node000010" class="edge">
<title>Node9&#45;&gt;Node10</title>
<g id="a_edge9_Node000009_Node000010"><a xlink:title=" ">
<path fill="none" stroke="#63b8ff" d="M578.75,-325.52C596.53,-322.4 617.24,-317.77 635.25,-311.12 652.42,-304.79 654.33,-298.11 671.25,-291.12 675.5,-289.37 679.95,-287.72 684.47,-286.17"/>
<polygon fill="#63b8ff" stroke="#63b8ff" points="685.17,-289.62 693.61,-283.21 683.02,-282.96 685.17,-289.62"/>
</a>
</g>
</g>
<!-- Node11 -->
<g id="Node000011" class="node">
<title>Node11</title>
<g id="a_Node000011"><a xlink:href="cmd__iperf_8c.html#a3e3a4b00f06201a66ee042ac3363f9de" target="_top" xlink:title=" ">
<polygon fill="white" stroke="#666666" points="810.25,-242.25 675.75,-242.25 675.75,-220 810.25,-220 810.25,-242.25"/>
<text text-anchor="middle" x="743" y="-226.85" font-family="Arial" font-size="12.00">register_espnow_iperf</text>
</a>
</g>
</g>
<!-- Node9&#45;&gt;Node11 -->
<g id="edge10_Node000009_Node000011" class="edge">
<title>Node9&#45;&gt;Node11</title>
<g id="a_edge10_Node000009_Node000011"><a xlink:title=" ">
<path fill="none" stroke="#63b8ff" d="M579.05,-330.09C597.7,-327.83 619.01,-322.61 635.25,-311.12 660.64,-293.17 646.55,-270.02 671.25,-251.12 672.75,-249.98 674.31,-248.9 675.92,-247.88"/>
<polygon fill="#63b8ff" stroke="#63b8ff" points="677.12,-251.21 684.29,-243.41 673.82,-245.04 677.12,-251.21"/>
</a>
</g>
</g>
<!-- Node16 -->
<g id="Node000016" class="node">
<title>Node16</title>
<g id="a_Node000016"><a xlink:href="cmd__wifi_8c.html#a53edfa7e48af95ba07348e7c1421feea" target="_top" xlink:title=" ">
<polygon fill="white" stroke="#666666" points="793.38,-522.25 692.62,-522.25 692.62,-500 793.38,-500 793.38,-522.25"/>
<text text-anchor="middle" x="743" y="-506.85" font-family="Arial" font-size="12.00">register_wifi_ap</text>
</a>
</g>
</g>
<!-- Node15&#45;&gt;Node16 -->
<g id="edge15_Node000015_Node000016" class="edge">
<title>Node15&#45;&gt;Node16</title>
<g id="a_edge15_Node000015_Node000016"><a xlink:title=" ">
<path fill="none" stroke="#63b8ff" d="M576.32,-527.27C606.05,-524.37 647.29,-520.35 681.19,-517.05"/>
<polygon fill="#63b8ff" stroke="#63b8ff" points="681.26,-520.56 690.87,-516.11 680.58,-513.59 681.26,-520.56"/>
</a>
</g>
</g>
<!-- Node17 -->
<g id="Node000017" class="node">
<title>Node17</title>
<g id="a_Node000017"><a xlink:href="cmd__wifi_8c.html#a829e61400c74b6e8b03ebbc968fb6ae9" target="_top" xlink:title=" ">
<polygon fill="white" stroke="#666666" points="798.25,-602.25 687.75,-602.25 687.75,-580 798.25,-580 798.25,-602.25"/>
<text text-anchor="middle" x="743" y="-586.85" font-family="Arial" font-size="12.00">register_wifi_ping</text>
</a>
</g>
</g>
<!-- Node15&#45;&gt;Node17 -->
<g id="edge16_Node000015_Node000017" class="edge">
<title>Node15&#45;&gt;Node17</title>
<g id="a_edge16_Node000015_Node000017"><a xlink:title=" ">
<path fill="none" stroke="#63b8ff" d="M576.35,-536.32C594.64,-539.43 616.43,-544.17 635.25,-551.12 652.42,-557.46 654.33,-564.14 671.25,-571.12 675.5,-572.88 679.95,-574.53 684.47,-576.08"/>
<polygon fill="#63b8ff" stroke="#63b8ff" points="683.02,-579.29 693.61,-579.04 685.17,-572.63 683.02,-579.29"/>
</a>
</g>
</g>
<!-- Node18 -->
<g id="Node000018" class="node">
<title>Node18</title>
<g id="a_Node000018"><a xlink:href="cmd__wifi_8c.html#af11c2a0aaba22bf6cce6d38be617ed89" target="_top" xlink:title="Register wifi scan command.">
<polygon fill="white" stroke="#666666" points="799.38,-562.25 686.62,-562.25 686.62,-540 799.38,-540 799.38,-562.25"/>
<text text-anchor="middle" x="743" y="-546.85" font-family="Arial" font-size="12.00">register_wifi_scan</text>
</a>
</g>
</g>
<!-- Node15&#45;&gt;Node18 -->
<g id="edge17_Node000015_Node000018" class="edge">
<title>Node15&#45;&gt;Node18</title>
<g id="a_edge17_Node000015_Node000018"><a xlink:title=" ">
<path fill="none" stroke="#63b8ff" d="M576.32,-534.98C604.25,-537.7 642.35,-541.41 674.97,-544.59"/>
<polygon fill="#63b8ff" stroke="#63b8ff" points="674.45,-548.06 684.75,-545.55 675.13,-541.09 674.45,-548.06"/>
</a>
</g>
</g>
<!-- Node23 -->
<g id="Node000023" class="node">
<title>Node23</title>
<g id="a_Node000023"><a xlink:href="espnow_8c.html#a5e8b13ca7f586bed41ed5779b84f61f4" target="_top" xlink:title="Set configuration when receiving the corresponding ESP&#45;NOW data type Include: Set to enable/disable h...">
<polygon fill="white" stroke="#666666" points="635.25,-262.25 436.25,-262.25 436.25,-240 635.25,-240 635.25,-262.25"/>
<text text-anchor="middle" x="535.75" y="-246.85" font-family="Arial" font-size="12.00">espnow_set_config_for_data_type</text>
</a>
</g>
</g>
<!-- Node22&#45;&gt;Node23 -->
<g id="edge22_Node000022_Node000023" class="edge">
<title>Node22&#45;&gt;Node23</title>
<g id="a_edge22_Node000022_Node000023"><a xlink:title=" ">
<path fill="none" stroke="#63b8ff" d="M356.1,-251.12C377.1,-251.12 401.08,-251.12 424.49,-251.12"/>
<polygon fill="#63b8ff" stroke="#63b8ff" points="424.41,-254.63 434.41,-251.13 424.41,-247.63 424.41,-254.63"/>
</a>
</g>
</g>
<!-- Node25 -->
<g id="Node000025" class="node">
<title>Node25</title>
<g id="a_Node000025"><a xlink:href="espnow__storage_8c.html#a46b53eee49b7a85ab1aaa1b876408722" target="_top" xlink:title="Load the information with given key.">
<polygon fill="white" stroke="#666666" points="599.62,-222.25 471.88,-222.25 471.88,-200 599.62,-200 599.62,-222.25"/>
<text text-anchor="middle" x="535.75" y="-206.85" font-family="Arial" font-size="12.00">espnow_storage_get</text>
</a>
</g>
</g>
<!-- Node24&#45;&gt;Node25 -->
<g id="edge24_Node000024_Node000025" class="edge">
<title>Node24&#45;&gt;Node25</title>
<g id="a_edge24_Node000024_Node000025"><a xlink:title=" ">
<path fill="none" stroke="#63b8ff" d="M344.67,-211.12C378.41,-211.12 422.72,-211.12 460.06,-211.12"/>
<polygon fill="#63b8ff" stroke="#63b8ff" points="459.9,-214.63 469.9,-211.13 459.9,-207.63 459.9,-214.63"/>
</a>
</g>
</g>
<!-- Node27 -->
<g id="Node000027" class="node">
<title>Node27</title>
<g id="a_Node000027"><a xlink:href="espnow__log__flash_8c.html#a8f2cce758ed84ea78771e12972d3e929" target="_top" xlink:title="Initialize espnow log flash Find and get log flash partition which size is not smaller than LOG_FLASH...">
<polygon fill="white" stroke="#666666" points="603.75,-182.25 467.75,-182.25 467.75,-160 603.75,-160 603.75,-182.25"/>
<text text-anchor="middle" x="535.75" y="-166.85" font-family="Arial" font-size="12.00">espnow_log_flash_init</text>
</a>
</g>
</g>
<!-- Node26&#45;&gt;Node27 -->
<g id="edge26_Node000026_Node000027" class="edge">
<title>Node26&#45;&gt;Node27</title>
<g id="a_edge26_Node000026_Node000027"><a xlink:title=" ">
<path fill="none" stroke="#63b8ff" d="M343.18,-171.12C375.96,-171.12 419.14,-171.12 456.21,-171.12"/>
<polygon fill="#63b8ff" stroke="#63b8ff" points="455.98,-174.63 465.98,-171.13 455.98,-167.63 455.98,-174.63"/>
</a>
</g>
</g>
<!-- Node28&#45;&gt;Node23 -->
<g id="edge28_Node000028_Node000023" class="edge">
<title>Node28&#45;&gt;Node23</title>
<g id="a_edge28_Node000028_Node000023"><a xlink:title=" ">
<path fill="none" stroke="#63b8ff" d="M362.54,-279.5C390.96,-274.82 423.93,-269.39 453.36,-264.54"/>
<polygon fill="#63b8ff" stroke="#63b8ff" points="453.66,-268.03 462.96,-262.95 452.53,-261.13 453.66,-268.03"/>
</a>
</g>
</g>
<!-- Node31 -->
<g id="Node000031" class="node">
<title>Node31</title>
<g id="a_Node000031"><a xlink:href="espnow__security_8c.html#ad081d6044fc0cedbb0c06e2c68dad306" target="_top" xlink:title="Set the security key info.">
<polygon fill="white" stroke="#666666" points="598.12,-102.25 473.38,-102.25 473.38,-80 598.12,-80 598.12,-102.25"/>
<text text-anchor="middle" x="535.75" y="-86.85" font-family="Arial" font-size="12.00">espnow_sec_setkey</text>
</a>
</g>
</g>
<!-- Node30&#45;&gt;Node31 -->
<g id="edge31_Node000030_Node000031" class="edge">
<title>Node30&#45;&gt;Node31</title>
<g id="a_edge31_Node000030_Node000031"><a xlink:title=" ">
<path fill="none" stroke="#63b8ff" d="M357.37,-61.9C389.67,-67.22 428.74,-73.66 461.99,-79.14"/>
<polygon fill="#63b8ff" stroke="#63b8ff" points="461.09,-82.54 471.53,-80.71 462.23,-75.63 461.09,-82.54"/>
</a>
</g>
</g>
<!-- Node32 -->
<g id="Node000032" class="node">
<title>Node32</title>
<g id="a_Node000032"><a xlink:href="espnow__storage_8c.html#ade9d20917bbd54b5748ef1651342c881" target="_top" xlink:title="Save the information with given key.">
<polygon fill="white" stroke="#666666" points="599.25,-62.25 472.25,-62.25 472.25,-40 599.25,-40 599.25,-62.25"/>
<text text-anchor="middle" x="535.75" y="-46.85" font-family="Arial" font-size="12.00">espnow_storage_set</text>
</a>
</g>
</g>
<!-- Node30&#45;&gt;Node32 -->
<g id="edge32_Node000030_Node000032" class="edge">
<title>Node30&#45;&gt;Node32</title>
<g id="a_edge32_Node000030_Node000032"><a xlink:title=" ">
<path fill="none" stroke="#63b8ff" d="M357.37,-51.12C389.15,-51.12 427.5,-51.12 460.39,-51.12"/>
<polygon fill="#63b8ff" stroke="#63b8ff" points="460.26,-54.63 470.26,-51.13 460.26,-47.63 460.26,-54.63"/>
</a>
</g>
</g>
<!-- Node33&#45;&gt;Node31 -->
<g id="edge34_Node000033_Node000031" class="edge">
<title>Node33&#45;&gt;Node31</title>
<g id="a_edge34_Node000033_Node000031"><a xlink:title=" ">
<path fill="none" stroke="#63b8ff" d="M344.37,-91.12C378.6,-91.12 423.8,-91.12 461.56,-91.12"/>
<polygon fill="#63b8ff" stroke="#63b8ff" points="461.51,-94.63 471.51,-91.13 461.51,-87.63 461.51,-94.63"/>
</a>
</g>
</g>
<!-- Node33&#45;&gt;Node32 -->
<g id="edge35_Node000033_Node000032" class="edge">
<title>Node33&#45;&gt;Node32</title>
<g id="a_edge35_Node000033_Node000032"><a xlink:title=" ">
<path fill="none" stroke="#63b8ff" d="M344.37,-82.49C378.5,-76.87 423.52,-69.45 461.21,-63.24"/>
<polygon fill="#63b8ff" stroke="#63b8ff" points="461.35,-66.77 470.65,-61.69 460.21,-59.86 461.35,-66.77"/>
</a>
</g>
</g>
</g>
</svg>
