<?xml version="1.0" encoding="UTF-8" standalone="no"?>
<!DOCTYPE svg PUBLIC "-//W3C//DTD SVG 1.1//EN"
 "http://www.w3.org/Graphics/SVG/1.1/DTD/svg11.dtd">
<!-- Generated by graphviz version 12.2.1 (20241206.2353)
 -->
<!-- Title: app_main Pages: 1 -->
<!--zoomable 461 -->

<svg id="main" version="1.1" xmlns="http://www.w3.org/2000/svg" xmlns:xlink="http://www.w3.org/1999/xlink" xml:space="preserve" onload="init(evt)">

<style type="text/css"><![CDATA[
.node, .edge {opacity: 0.7;}
.node.selected, .edge.selected {opacity: 1;}
.edge:hover path { stroke: red; }
.edge:hover polygon { stroke: red; fill: red; }
]]></style>

<defs>
  <circle id="rim" cx="0" cy="0" r="7"/>
  <circle id="rim2" cx="0" cy="0" r="3.5"/>
  <g id="zoomPlus">
    <use xlink:href="#rim" fill="#404040"><set attributeName="fill" to="#808080" begin="zoomplus.mouseover" end="zoomplus.mouseout"/></use>
    <path d="M-4,0h8M0,-4v8" fill="none" stroke="white" stroke-width="1.5" pointer-events="none"/>
  </g>
  <g id="zoomMin">
    <use xlink:href="#rim" fill="#404040"><set attributeName="fill" to="#808080" begin="zoomminus.mouseover" end="zoomminus.mouseout"/></use>
    <path d="M-4,0h8" fill="none" stroke="white" stroke-width="1.5" pointer-events="none"/>
  </g>
  <g id="arrowUp" transform="translate(30 24)">
    <use xlink:href="#rim"/>
    <path pointer-events="none" fill="none" stroke="white" stroke-width="1.5" d="M0,-3.0v7 M-2.5,-0.5L0,-3.0L2.5,-0.5"/>
  </g>
  <g id="arrowRight" transform="rotate(90) translate(36 -43)">
    <use xlink:href="#rim"/>
    <path pointer-events="none" fill="none" stroke="white" stroke-width="1.5" d="M0,-3.0v7 M-2.5,-0.5L0,-3.0L2.5,-0.5"/>
  </g>
  <g id="arrowDown" transform="rotate(180) translate(-30 -48)">
    <use xlink:href="#rim"/>
    <path pointer-events="none" fill="none" stroke="white" stroke-width="1.5" d="M0,-3.0v7 M-2.5,-0.5L0,-3.0L2.5,-0.5"/>
  </g>
  <g id="arrowLeft" transform="rotate(270) translate(-36 17)">
    <use xlink:href="#rim"/>
    <path pointer-events="none" fill="none" stroke="white" stroke-width="1.5" d="M0,-3.0v7 M-2.5,-0.5L0,-3.0L2.5,-0.5"/>
  </g>
  <g id="resetDef">
    <use xlink:href="#rim2" fill="#404040"><set attributeName="fill" to="#808080" begin="reset.mouseover" end="reset.mouseout"/></use>
  </g>
</defs>
<script type="application/ecmascript">
var viewWidth = 932;
var viewHeight = 461;
var sectionId = 'dynsection-0';
</script>
<script type="application/ecmascript" xlink:href="svg.min.js"/>
<svg id="graph" class="graph">
<g id="viewport">
<title>app_main</title>
<!-- Node1 -->
<g id="Node000001" class="node">
<title>Node1</title>
<g id="a_Node000001"><a xlink:title=" ">
<polygon fill="#999999" stroke="#666666" points="69.25,-221.25 0,-221.25 0,-199 69.25,-199 69.25,-221.25"/>
<text text-anchor="middle" x="34.62" y="-205.85" font-family="Arial" font-size="12.00">app_main</text>
</a>
</g>
</g>
<!-- Node2 -->
<g id="Node000002" class="node">
<title>Node2</title>
<g id="a_Node000002"><a xlink:href="espnow_8c.html#a20960515d17cbc436c4598a4b8134c94" target="_top" xlink:title="Get the security key info stored in flash If no security key info is stored in flash,...">
<polygon fill="white" stroke="#666666" points="733.75,-418.25 627,-418.25 627,-396 733.75,-396 733.75,-418.25"/>
<text text-anchor="middle" x="680.38" y="-402.85" font-family="Arial" font-size="12.00">espnow_get_key</text>
</a>
</g>
</g>
<!-- Node1&#45;&gt;Node2 -->
<g id="edge1_Node000001_Node000002" class="edge">
<title>Node1&#45;&gt;Node2</title>
<g id="a_edge1_Node000001_Node000002"><a xlink:title=" ">
<path fill="none" stroke="#63b8ff" d="M36.36,-221.71C39.07,-253.28 51.34,-341.05 105.25,-379.12 265.85,-492.56 519.32,-447.97 627.58,-421.41"/>
<polygon fill="#63b8ff" stroke="#63b8ff" points="628.2,-424.86 637.05,-419.03 626.5,-418.07 628.2,-424.86"/>
</a>
</g>
</g>
<!-- Node4 -->
<g id="Node000004" class="node">
<title>Node4</title>
<g id="a_Node000004"><a xlink:href="espnow_8c.html#a82456d56cc86371962135c5ff82fd954" target="_top" xlink:title="Initialize ESP&#45;NOW function.">
<polygon fill="white" stroke="#666666" points="257.75,-182.25 177.25,-182.25 177.25,-160 257.75,-160 257.75,-182.25"/>
<text text-anchor="middle" x="217.5" y="-166.85" font-family="Arial" font-size="12.00">espnow_init</text>
</a>
</g>
</g>
<!-- Node1&#45;&gt;Node4 -->
<g id="edge3_Node000001_Node000004" class="edge">
<title>Node1&#45;&gt;Node4</title>
<g id="a_edge3_Node000001_Node000004"><a xlink:title=" ">
<path fill="none" stroke="#63b8ff" d="M69.65,-202.79C96.81,-196.93 135.27,-188.64 166.02,-182.01"/>
<polygon fill="#63b8ff" stroke="#63b8ff" points="166.45,-185.5 175.48,-179.97 164.97,-178.66 166.45,-185.5"/>
</a>
</g>
</g>
<!-- Node13 -->
<g id="Node000013" class="node">
<title>Node13</title>
<g id="a_Node000013"><a xlink:href="espnow__security__initiator_8c.html#a81aec3f1855281ed78ef328d763f295d" target="_top" xlink:title="Free memory in the results list.">
<polygon fill="white" stroke="#666666" points="313.62,-142.25 121.38,-142.25 121.38,-120 313.62,-120 313.62,-142.25"/>
<text text-anchor="middle" x="217.5" y="-126.85" font-family="Arial" font-size="12.00">espnow_sec_initiator_result_free</text>
</a>
</g>
</g>
<!-- Node1&#45;&gt;Node13 -->
<g id="edge12_Node000001_Node000013" class="edge">
<title>Node1&#45;&gt;Node13</title>
<g id="a_edge12_Node000001_Node000013"><a xlink:title=" ">
<path fill="none" stroke="#63b8ff" d="M45.67,-198.51C58.18,-184.86 80.89,-162.61 105.25,-151.12 109.02,-149.35 112.93,-147.73 116.94,-146.25"/>
<polygon fill="#63b8ff" stroke="#63b8ff" points="117.89,-149.62 126.28,-143.14 115.68,-142.98 117.89,-149.62"/>
</a>
</g>
</g>
<!-- Node14 -->
<g id="Node000014" class="node">
<title>Node14</title>
<g id="a_Node000014"><a xlink:href="espnow__security__initiator_8c.html#a12881d6f97ddc0e338bf4c148ff3b3f1" target="_top" xlink:title="Root scans other node info.">
<polygon fill="white" stroke="#666666" points="298.25,-338.25 136.75,-338.25 136.75,-316 298.25,-316 298.25,-338.25"/>
<text text-anchor="middle" x="217.5" y="-322.85" font-family="Arial" font-size="12.00">espnow_sec_initiator_scan</text>
</a>
</g>
</g>
<!-- Node1&#45;&gt;Node14 -->
<g id="edge13_Node000001_Node000014" class="edge">
<title>Node1&#45;&gt;Node14</title>
<g id="a_edge13_Node000001_Node000014"><a xlink:title=" ">
<path fill="none" stroke="#63b8ff" d="M40.89,-221.52C50.64,-241.25 73.42,-281.63 105.25,-302.12 111.62,-306.23 118.58,-309.66 125.8,-312.54"/>
<polygon fill="#63b8ff" stroke="#63b8ff" points="124.52,-315.8 135.11,-315.86 126.87,-309.2 124.52,-315.8"/>
</a>
</g>
</g>
<!-- Node17 -->
<g id="Node000017" class="node">
<title>Node17</title>
<g id="a_Node000017"><a xlink:href="espnow_8c.html#a776b545b0faedcd1511a6d59a7213029" target="_top" xlink:title="Set the security key info The security key info is used to derive key and stored to flash....">
<polygon fill="white" stroke="#666666" points="733.38,-378.25 627.38,-378.25 627.38,-356 733.38,-356 733.38,-378.25"/>
<text text-anchor="middle" x="680.38" y="-362.85" font-family="Arial" font-size="12.00">espnow_set_key</text>
</a>
</g>
</g>
<!-- Node1&#45;&gt;Node17 -->
<g id="edge29_Node000001_Node000017" class="edge">
<title>Node1&#45;&gt;Node17</title>
<g id="a_edge29_Node000001_Node000017"><a xlink:title=" ">
<path fill="none" stroke="#63b8ff" d="M37.47,-221.57C42.56,-248.92 59.59,-318 105.25,-347.12 188.2,-400.03 484.3,-383.27 615.74,-372.8"/>
<polygon fill="#63b8ff" stroke="#63b8ff" points="615.98,-376.29 625.67,-371.99 615.42,-369.31 615.98,-376.29"/>
</a>
</g>
</g>
<!-- Node20 -->
<g id="Node000020" class="node">
<title>Node20</title>
<g id="a_Node000020"><a xlink:href="espnow_8c.html#a5e8b13ca7f586bed41ed5779b84f61f4" target="_top" xlink:title="Set configuration when receiving the corresponding ESP&#45;NOW data type Include: Set to enable/disable h...">
<polygon fill="white" stroke="#666666" points="564.75,-260.25 365.75,-260.25 365.75,-238 564.75,-238 564.75,-260.25"/>
<text text-anchor="middle" x="465.25" y="-244.85" font-family="Arial" font-size="12.00">espnow_set_config_for_data_type</text>
</a>
</g>
</g>
<!-- Node1&#45;&gt;Node20 -->
<g id="edge25_Node000001_Node000020" class="edge">
<title>Node1&#45;&gt;Node20</title>
<g id="a_edge25_Node000001_Node000020"><a xlink:title=" ">
<path fill="none" stroke="#63b8ff" d="M69.67,-211.4C124.54,-213.67 235.87,-219.13 329.75,-229.12 346.89,-230.95 365.19,-233.36 382.6,-235.87"/>
<polygon fill="#63b8ff" stroke="#63b8ff" points="381.99,-239.32 392.39,-237.32 383.01,-232.4 381.99,-239.32"/>
</a>
</g>
</g>
<!-- Node21 -->
<g id="Node000021" class="node">
<title>Node21</title>
<g id="a_Node000021"><a xlink:href="espnow__security__initiator_8c.html#a8075a2af2dce156e6690dae2e9e9ee9a" target="_top" xlink:title="Free memory in the scan information list.">
<polygon fill="white" stroke="#666666" points="329.75,-102.25 105.25,-102.25 105.25,-80 329.75,-80 329.75,-102.25"/>
<text text-anchor="middle" x="217.5" y="-86.85" font-family="Arial" font-size="12.00">espnow_sec_initiator_scan_result_free</text>
</a>
</g>
</g>
<!-- Node1&#45;&gt;Node21 -->
<g id="edge21_Node000001_Node000021" class="edge">
<title>Node1&#45;&gt;Node21</title>
<g id="a_edge21_Node000001_Node000021"><a xlink:title=" ">
<path fill="none" stroke="#63b8ff" d="M40.13,-198.72C49.08,-177.66 71.24,-132.82 105.25,-111.12 107.25,-109.85 109.32,-108.64 111.43,-107.51"/>
<polygon fill="#63b8ff" stroke="#63b8ff" points="112.69,-110.79 120.26,-103.38 109.72,-104.45 112.69,-110.79"/>
</a>
</g>
</g>
<!-- Node22 -->
<g id="Node000022" class="node">
<title>Node22</title>
<g id="a_Node000022"><a xlink:href="espnow__security__initiator_8c.html#a5b56a74d828a5c7a98db82253eefaec1" target="_top" xlink:title="Root sends security to other nodes.">
<polygon fill="white" stroke="#666666" points="296.75,-260.25 138.25,-260.25 138.25,-238 296.75,-238 296.75,-260.25"/>
<text text-anchor="middle" x="217.5" y="-244.85" font-family="Arial" font-size="12.00">espnow_sec_initiator_start</text>
</a>
</g>
</g>
<!-- Node1&#45;&gt;Node22 -->
<g id="edge22_Node000001_Node000022" class="edge">
<title>Node1&#45;&gt;Node22</title>
<g id="a_edge22_Node000001_Node000022"><a xlink:title=" ">
<path fill="none" stroke="#63b8ff" d="M69.65,-217.46C92.67,-222.43 123.82,-229.14 151.51,-235.11"/>
<polygon fill="#63b8ff" stroke="#63b8ff" points="150.73,-238.52 161.24,-237.21 152.2,-231.68 150.73,-238.52"/>
</a>
</g>
</g>
<!-- Node23 -->
<g id="Node000023" class="node">
<title>Node23</title>
<g id="a_Node000023"><a xlink:href="espnow__security__responder_8c.html#a550e5f438d39bba5dc7c34e48c6f1c65" target="_top" xlink:title="Start security process.">
<polygon fill="white" stroke="#666666" points="304.25,-62.25 130.75,-62.25 130.75,-40 304.25,-40 304.25,-62.25"/>
<text text-anchor="middle" x="217.5" y="-46.85" font-family="Arial" font-size="12.00">espnow_sec_responder_start</text>
</a>
</g>
</g>
<!-- Node1&#45;&gt;Node23 -->
<g id="edge24_Node000001_Node000023" class="edge">
<title>Node1&#45;&gt;Node23</title>
<g id="a_edge24_Node000001_Node000023"><a xlink:title=" ">
<path fill="none" stroke="#63b8ff" d="M37.78,-198.54C43.48,-171.44 61.59,-103.78 105.25,-71.12 109.85,-67.69 114.85,-64.77 120.09,-62.31"/>
<polygon fill="#63b8ff" stroke="#63b8ff" points="121.1,-65.68 129.05,-58.68 118.47,-59.19 121.1,-65.68"/>
</a>
</g>
</g>
<!-- Node24 -->
<g id="Node000024" class="node">
<title>Node24</title>
<g id="a_Node000024"><a xlink:href="espnow_8c.html#a9664730b8b7e142959c5c0f9c55e8def" target="_top" xlink:title="Set the security key info The security key info is used to derive key and stored to flash....">
<polygon fill="white" stroke="#666666" points="746.5,-298.25 614.25,-298.25 614.25,-276 746.5,-276 746.5,-298.25"/>
<text text-anchor="middle" x="680.38" y="-282.85" font-family="Arial" font-size="12.00">espnow_set_dec_key</text>
</a>
</g>
</g>
<!-- Node1&#45;&gt;Node24 -->
<g id="edge26_Node000001_Node000024" class="edge">
<title>Node1&#45;&gt;Node24</title>
<g id="a_edge26_Node000001_Node000024"><a xlink:title=" ">
<path fill="none" stroke="#63b8ff" d="M44.56,-221.36C56.6,-235.53 79.52,-259.23 105.25,-269.12 193.77,-303.17 467.69,-296.56 602.64,-290.92"/>
<polygon fill="#63b8ff" stroke="#63b8ff" points="602.73,-294.42 612.57,-290.49 602.43,-287.42 602.73,-294.42"/>
</a>
</g>
</g>
<!-- Node25 -->
<g id="Node000025" class="node">
<title>Node25</title>
<g id="a_Node000025"><a xlink:href="espnow__storage_8c.html#afcdac79eafab05bba3191708b3d6c672" target="_top" xlink:title="Intialise ESP Storage.">
<polygon fill="white" stroke="#666666" points="281,-22.25 154,-22.25 154,0 281,0 281,-22.25"/>
<text text-anchor="middle" x="217.5" y="-6.85" font-family="Arial" font-size="12.00">espnow_storage_init</text>
</a>
</g>
</g>
<!-- Node1&#45;&gt;Node25 -->
<g id="edge30_Node000001_Node000025" class="edge">
<title>Node1&#45;&gt;Node25</title>
<g id="a_edge30_Node000001_Node000025"><a xlink:title=" ">
<path fill="none" stroke="#63b8ff" d="M36.36,-198.72C39.09,-166.7 51.45,-75.42 105.25,-31.12 115.95,-22.32 129.21,-16.84 142.81,-13.54"/>
<polygon fill="#63b8ff" stroke="#63b8ff" points="143.15,-17.04 152.26,-11.63 141.76,-10.18 143.15,-17.04"/>
</a>
</g>
</g>
<!-- Node3 -->
<g id="Node000003" class="node">
<title>Node3</title>
<g id="a_Node000003"><a xlink:href="espnow__storage_8c.html#a46b53eee49b7a85ab1aaa1b876408722" target="_top" xlink:title="Load the information with given key.">
<polygon fill="white" stroke="#666666" points="923.75,-418.25 796,-418.25 796,-396 923.75,-396 923.75,-418.25"/>
<text text-anchor="middle" x="859.88" y="-402.85" font-family="Arial" font-size="12.00">espnow_storage_get</text>
</a>
</g>
</g>
<!-- Node2&#45;&gt;Node3 -->
<g id="edge2_Node000002_Node000003" class="edge">
<title>Node2&#45;&gt;Node3</title>
<g id="a_edge2_Node000002_Node000003"><a xlink:title=" ">
<path fill="none" stroke="#63b8ff" d="M734.15,-407.12C749.84,-407.12 767.34,-407.12 784.15,-407.12"/>
<polygon fill="#63b8ff" stroke="#63b8ff" points="784.14,-410.63 794.14,-407.13 784.14,-403.63 784.14,-410.63"/>
</a>
</g>
</g>
<!-- Node5 -->
<g id="Node000005" class="node">
<title>Node5</title>
<g id="a_Node000005"><a xlink:href="espnow_8c.html#ab9e96f875511fcc24184f7b863ff8747" target="_top" xlink:title="When used for unicast, add the target device.">
<polygon fill="white" stroke="#666666" points="523.12,-99.25 407.38,-99.25 407.38,-77 523.12,-77 523.12,-99.25"/>
<text text-anchor="middle" x="465.25" y="-83.85" font-family="Arial" font-size="12.00">espnow_add_peer</text>
</a>
</g>
</g>
<!-- Node4&#45;&gt;Node5 -->
<g id="edge4_Node000004_Node000005" class="edge">
<title>Node4&#45;&gt;Node5</title>
<g id="a_edge4_Node000004_Node000005"><a xlink:title=" ">
<path fill="none" stroke="#63b8ff" d="M258.09,-170.56C280.43,-168.69 308.11,-163.68 329.75,-151.12 351.31,-138.61 344.33,-120.88 365.75,-108.12 374.93,-102.66 385.35,-98.66 395.9,-95.75"/>
<polygon fill="#63b8ff" stroke="#63b8ff" points="396.53,-99.2 405.42,-93.44 394.88,-92.39 396.53,-99.2"/>
</a>
</g>
</g>
<!-- Node6 -->
<g id="Node000006" class="node">
<title>Node6</title>
<g id="a_Node000006"><a xlink:href="espnow_8c.html#ae2e7d37b72ff59a530a9447bea4aa106" target="_top" xlink:title=" ">
<polygon fill="white" stroke="#666666" points="518.62,-219.25 411.88,-219.25 411.88,-197 518.62,-197 518.62,-219.25"/>
<text text-anchor="middle" x="465.25" y="-203.85" font-family="Arial" font-size="12.00">espnow_recv_cb</text>
</a>
</g>
</g>
<!-- Node4&#45;&gt;Node6 -->
<g id="edge5_Node000004_Node000006" class="edge">
<title>Node4&#45;&gt;Node6</title>
<g id="a_edge5_Node000004_Node000006"><a xlink:title=" ">
<path fill="none" stroke="#63b8ff" d="M257.98,-177.07C296.38,-182.85 355.36,-191.73 400.42,-198.52"/>
<polygon fill="#63b8ff" stroke="#63b8ff" points="399.65,-201.94 410.06,-199.97 400.7,-195.02 399.65,-201.94"/>
</a>
</g>
</g>
<!-- Node11 -->
<g id="Node000011" class="node">
<title>Node11</title>
<g id="a_Node000011"><a xlink:href="espnow__security_8c.html#accbf76d2b120ee4e43003ad1472c2b05" target="_top" xlink:title="Initialize the specified security info.">
<polygon fill="white" stroke="#666666" points="518.25,-179.25 412.25,-179.25 412.25,-157 518.25,-157 518.25,-179.25"/>
<text text-anchor="middle" x="465.25" y="-163.85" font-family="Arial" font-size="12.00">espnow_sec_init</text>
</a>
</g>
</g>
<!-- Node4&#45;&gt;Node11 -->
<g id="edge10_Node000004_Node000011" class="edge">
<title>Node4&#45;&gt;Node11</title>
<g id="a_edge10_Node000004_Node000011"><a xlink:title=" ">
<path fill="none" stroke="#63b8ff" d="M257.98,-170.64C296.43,-170.17 355.49,-169.45 400.58,-168.9"/>
<polygon fill="#63b8ff" stroke="#63b8ff" points="400.54,-172.4 410.5,-168.78 400.46,-165.4 400.54,-172.4"/>
</a>
</g>
</g>
<!-- Node12 -->
<g id="Node000012" class="node">
<title>Node12</title>
<g id="a_Node000012"><a xlink:href="espnow_8c.html#ae3d39a3c355f8c0a8297f76a28f7eaee" target="_top" xlink:title=" ">
<polygon fill="white" stroke="#666666" points="520.5,-139.25 410,-139.25 410,-117 520.5,-117 520.5,-139.25"/>
<text text-anchor="middle" x="465.25" y="-123.85" font-family="Arial" font-size="12.00">espnow_send_cb</text>
</a>
</g>
</g>
<!-- Node4&#45;&gt;Node12 -->
<g id="edge11_Node000004_Node000012" class="edge">
<title>Node4&#45;&gt;Node12</title>
<g id="a_edge11_Node000004_Node000012"><a xlink:title=" ">
<path fill="none" stroke="#63b8ff" d="M257.98,-164.22C295.88,-157.58 353.82,-147.45 398.66,-139.6"/>
<polygon fill="#63b8ff" stroke="#63b8ff" points="399.01,-143.09 408.26,-137.92 397.81,-136.2 399.01,-143.09"/>
</a>
</g>
</g>
<!-- Node7 -->
<g id="Node000007" class="node">
<title>Node7</title>
<g id="a_Node000007"><a xlink:href="espnow_8h.html#af0be4b97c8dad6c432c969e960110c1e" target="_top" xlink:title="Set group ID addresses.">
<polygon fill="white" stroke="#666666" points="741.62,-258.25 619.12,-258.25 619.12,-236 741.62,-236 741.62,-258.25"/>
<text text-anchor="middle" x="680.38" y="-242.85" font-family="Arial" font-size="12.00">espnow_add_group</text>
</a>
</g>
</g>
<!-- Node6&#45;&gt;Node7 -->
<g id="edge6_Node000006_Node000007" class="edge">
<title>Node6&#45;&gt;Node7</title>
<g id="a_edge6_Node000006_Node000007"><a xlink:title=" ">
<path fill="none" stroke="#63b8ff" d="M518.93,-217.77C545.59,-222.64 578.36,-228.64 607.32,-233.94"/>
<polygon fill="#63b8ff" stroke="#63b8ff" points="606.67,-237.38 617.14,-235.74 607.93,-230.49 606.67,-237.38"/>
</a>
</g>
</g>
<!-- Node8 -->
<g id="Node000008" class="node">
<title>Node8</title>
<g id="a_Node000008"><a xlink:href="espnow__group_8c.html#a875855b479ddb660719afebdc90b8b4d" target="_top" xlink:title="Delete group ID addresses.">
<polygon fill="white" stroke="#666666" points="739.75,-218.25 621,-218.25 621,-196 739.75,-196 739.75,-218.25"/>
<text text-anchor="middle" x="680.38" y="-202.85" font-family="Arial" font-size="12.00">espnow_del_group</text>
</a>
</g>
</g>
<!-- Node6&#45;&gt;Node8 -->
<g id="edge7_Node000006_Node000008" class="edge">
<title>Node6&#45;&gt;Node8</title>
<g id="a_edge7_Node000006_Node000008"><a xlink:title=" ">
<path fill="none" stroke="#63b8ff" d="M518.93,-207.88C546.14,-207.75 579.7,-207.59 609.09,-207.45"/>
<polygon fill="#63b8ff" stroke="#63b8ff" points="609.05,-210.96 619.03,-207.41 609.01,-203.96 609.05,-210.96"/>
</a>
</g>
</g>
<!-- Node9 -->
<g id="Node000009" class="node">
<title>Node9</title>
<g id="a_Node000009"><a xlink:href="espnow__group_8c.html#aa7b993563fd6da0fb75573573733daa3" target="_top" xlink:title="Get the number of group ID addresses.">
<polygon fill="white" stroke="#666666" points="754.75,-178.25 606,-178.25 606,-156 754.75,-156 754.75,-178.25"/>
<text text-anchor="middle" x="680.38" y="-162.85" font-family="Arial" font-size="12.00">espnow_get_group_num</text>
</a>
</g>
</g>
<!-- Node6&#45;&gt;Node9 -->
<g id="edge8_Node000006_Node000009" class="edge">
<title>Node6&#45;&gt;Node9</title>
<g id="a_edge8_Node000006_Node000009"><a xlink:title=" ">
<path fill="none" stroke="#63b8ff" d="M518.93,-197.99C545.82,-192.82 578.92,-186.45 608.06,-180.84"/>
<polygon fill="#63b8ff" stroke="#63b8ff" points="608.36,-184.35 617.52,-179.02 607.04,-177.48 608.36,-184.35"/>
</a>
</g>
</g>
<!-- Node10 -->
<g id="Node000010" class="node">
<title>Node10</title>
<g id="a_Node000010"><a xlink:href="espnow__group_8c.html#af826ca7f397223b5075b39529f9ba115" target="_top" xlink:title="Check whether the specified group address is my group.">
<polygon fill="white" stroke="#666666" points="747.25,-138.25 613.5,-138.25 613.5,-116 747.25,-116 747.25,-138.25"/>
<text text-anchor="middle" x="680.38" y="-122.85" font-family="Arial" font-size="12.00">espnow_is_my_group</text>
</a>
</g>
</g>
<!-- Node6&#45;&gt;Node10 -->
<g id="edge9_Node000006_Node000010" class="edge">
<title>Node6&#45;&gt;Node10</title>
<g id="a_edge9_Node000006_Node000010"><a xlink:title=" ">
<path fill="none" stroke="#63b8ff" d="M518.88,-203.88C534.41,-200.97 550.94,-196.13 564.75,-188.12 585.73,-175.96 580.07,-159.79 600.75,-147.12 603.03,-145.73 605.4,-144.43 607.85,-143.22"/>
<polygon fill="#63b8ff" stroke="#63b8ff" points="609.02,-146.52 616.81,-139.34 606.24,-140.1 609.02,-146.52"/>
</a>
</g>
</g>
<!-- Node15 -->
<g id="Node000015" class="node">
<title>Node15</title>
<g id="a_Node000015"><a xlink:href="espnow_8c.html#ad1db406d2cb51ac8f967fbc95473afe5" target="_top" xlink:title="Send ESP&#45;NOW data.">
<polygon fill="white" stroke="#666666" points="510.75,-339.25 419.75,-339.25 419.75,-317 510.75,-317 510.75,-339.25"/>
<text text-anchor="middle" x="465.25" y="-323.85" font-family="Arial" font-size="12.00">espnow_send</text>
</a>
</g>
</g>
<!-- Node14&#45;&gt;Node15 -->
<g id="edge14_Node000014_Node000015" class="edge">
<title>Node14&#45;&gt;Node15</title>
<g id="a_edge14_Node000014_Node000015"><a xlink:title=" ">
<path fill="none" stroke="#63b8ff" d="M298.63,-327.45C334.31,-327.6 375.48,-327.76 407.84,-327.9"/>
<polygon fill="#63b8ff" stroke="#63b8ff" points="407.82,-331.4 417.83,-327.94 407.85,-324.4 407.82,-331.4"/>
</a>
</g>
</g>
<!-- Node14&#45;&gt;Node20 -->
<g id="edge20_Node000014_Node000020" class="edge">
<title>Node14&#45;&gt;Node20</title>
<g id="a_edge20_Node000014_Node000020"><a xlink:title=" ">
<path fill="none" stroke="#63b8ff" d="M255.03,-315.53C298.1,-301.86 369.81,-279.1 417.06,-264.1"/>
<polygon fill="#63b8ff" stroke="#63b8ff" points="418.01,-267.47 426.48,-261.11 415.89,-260.8 418.01,-267.47"/>
</a>
</g>
</g>
<!-- Node15&#45;&gt;Node2 -->
<g id="edge15_Node000015_Node000002" class="edge">
<title>Node15&#45;&gt;Node2</title>
<g id="a_edge15_Node000015_Node000002"><a xlink:title=" ">
<path fill="none" stroke="#63b8ff" d="M489.11,-339.54C515.51,-352.39 560.48,-373.28 600.75,-387.12 606.19,-389 611.89,-390.78 617.64,-392.45"/>
<polygon fill="#63b8ff" stroke="#63b8ff" points="616.65,-395.81 627.22,-395.13 618.53,-389.07 616.65,-395.81"/>
</a>
</g>
</g>
<!-- Node16 -->
<g id="Node000016" class="node">
<title>Node16</title>
<g id="a_Node000016"><a xlink:href="espnow__security_8c.html#a7530c208d25669a17e838a4d0c7f0ea5" target="_top" xlink:title="The authenticated encryption function. Encryption with 128 bit AES&#45;CCM.">
<polygon fill="white" stroke="#666666" points="760,-338.25 600.75,-338.25 600.75,-316 760,-316 760,-338.25"/>
<text text-anchor="middle" x="680.38" y="-322.85" font-family="Arial" font-size="12.00">espnow_sec_auth_encrypt</text>
</a>
</g>
</g>
<!-- Node15&#45;&gt;Node16 -->
<g id="edge16_Node000015_Node000016" class="edge">
<title>Node15&#45;&gt;Node16</title>
<g id="a_edge16_Node000015_Node000016"><a xlink:title=" ">
<path fill="none" stroke="#63b8ff" d="M511.19,-327.91C533.84,-327.81 562.16,-327.67 589.06,-327.55"/>
<polygon fill="#63b8ff" stroke="#63b8ff" points="588.98,-331.05 598.97,-327.5 588.95,-324.05 588.98,-331.05"/>
</a>
</g>
</g>
<!-- Node15&#45;&gt;Node17 -->
<g id="edge17_Node000015_Node000017" class="edge">
<title>Node15&#45;&gt;Node17</title>
<g id="a_edge17_Node000015_Node000017"><a xlink:title=" ">
<path fill="none" stroke="#63b8ff" d="M511.19,-336.35C541.58,-341.91 582.16,-349.34 615.85,-355.5"/>
<polygon fill="#63b8ff" stroke="#63b8ff" points="615.03,-358.91 625.5,-357.27 616.29,-352.02 615.03,-358.91"/>
</a>
</g>
</g>
<!-- Node18 -->
<g id="Node000018" class="node">
<title>Node18</title>
<g id="a_Node000018"><a xlink:href="espnow__security_8c.html#ad081d6044fc0cedbb0c06e2c68dad306" target="_top" xlink:title="Set the security key info.">
<polygon fill="white" stroke="#666666" points="922.25,-318.25 797.5,-318.25 797.5,-296 922.25,-296 922.25,-318.25"/>
<text text-anchor="middle" x="859.88" y="-302.85" font-family="Arial" font-size="12.00">espnow_sec_setkey</text>
</a>
</g>
</g>
<!-- Node17&#45;&gt;Node18 -->
<g id="edge18_Node000017_Node000018" class="edge">
<title>Node17&#45;&gt;Node18</title>
<g id="a_edge18_Node000017_Node000018"><a xlink:title=" ">
<path fill="none" stroke="#63b8ff" d="M731.16,-355.55C740.8,-353 750.76,-350.15 760,-347.12 781.18,-340.18 804.3,-330.92 822.86,-323.06"/>
<polygon fill="#63b8ff" stroke="#63b8ff" points="824.01,-326.38 831.82,-319.22 821.25,-319.95 824.01,-326.38"/>
</a>
</g>
</g>
<!-- Node19 -->
<g id="Node000019" class="node">
<title>Node19</title>
<g id="a_Node000019"><a xlink:href="espnow__storage_8c.html#ade9d20917bbd54b5748ef1651342c881" target="_top" xlink:title="Save the information with given key.">
<polygon fill="white" stroke="#666666" points="923.38,-368.25 796.38,-368.25 796.38,-346 923.38,-346 923.38,-368.25"/>
<text text-anchor="middle" x="859.88" y="-352.85" font-family="Arial" font-size="12.00">espnow_storage_set</text>
</a>
</g>
</g>
<!-- Node17&#45;&gt;Node19 -->
<g id="edge19_Node000017_Node000019" class="edge">
<title>Node17&#45;&gt;Node19</title>
<g id="a_edge19_Node000017_Node000019"><a xlink:title=" ">
<path fill="none" stroke="#63b8ff" d="M733.67,-364.18C749.69,-363.28 767.63,-362.27 784.82,-361.3"/>
<polygon fill="#63b8ff" stroke="#63b8ff" points="784.68,-364.81 794.46,-360.75 784.28,-357.82 784.68,-364.81"/>
</a>
</g>
</g>
<!-- Node22&#45;&gt;Node20 -->
<g id="edge23_Node000022_Node000020" class="edge">
<title>Node22&#45;&gt;Node20</title>
<g id="a_edge23_Node000022_Node000020"><a xlink:title=" ">
<path fill="none" stroke="#63b8ff" d="M296.93,-249.12C315.13,-249.12 334.84,-249.12 354.12,-249.12"/>
<polygon fill="#63b8ff" stroke="#63b8ff" points="353.89,-252.63 363.89,-249.13 353.89,-245.63 353.89,-252.63"/>
</a>
</g>
</g>
<!-- Node24&#45;&gt;Node18 -->
<g id="edge27_Node000024_Node000018" class="edge">
<title>Node24&#45;&gt;Node18</title>
<g id="a_edge27_Node000024_Node000018"><a xlink:title=" ">
<path fill="none" stroke="#63b8ff" d="M746.97,-294.52C759.64,-295.94 773,-297.45 785.9,-298.9"/>
<polygon fill="#63b8ff" stroke="#63b8ff" points="785.25,-302.35 795.58,-299.99 786.04,-295.4 785.25,-302.35"/>
</a>
</g>
</g>
<!-- Node24&#45;&gt;Node19 -->
<g id="edge28_Node000024_Node000019" class="edge">
<title>Node24&#45;&gt;Node19</title>
<g id="a_edge28_Node000024_Node000019"><a xlink:title=" ">
<path fill="none" stroke="#63b8ff" d="M734.84,-298.74C743.37,-301.16 752.02,-303.95 760,-307.12 777.01,-313.88 779.73,-318.74 796,-327.12 804.81,-331.67 814.42,-336.38 823.42,-340.68"/>
<polygon fill="#63b8ff" stroke="#63b8ff" points="821.71,-343.74 832.24,-344.86 824.7,-337.42 821.71,-343.74"/>
</a>
</g>
</g>
</g>
</svg>

<g id="navigator" transform="translate(0 0)" fill="#404254">
  <rect fill="#f2f5e9" fill-opacity="0.5" stroke="#606060" stroke-width=".5" x="0" y="0" width="60" height="60"/>
  <use id="zoomplus" xlink:href="#zoomPlus" x="17" y="9" onmousedown="handleZoom(evt,'in')"/>
  <use id="zoomminus" xlink:href="#zoomMin" x="42" y="9" onmousedown="handleZoom(evt,'out')"/>
  <use id="reset" xlink:href="#resetDef" x="30" y="36" onmousedown="handleReset()"/>
   <use id="arrowup" xlink:href="#arrowUp" x="0" y="0" onmousedown="handlePan(0,-1)"/>
  <use id="arrowright" xlink:href="#arrowRight" x="0" y="0" onmousedown="handlePan(1,0)"/>
  <use id="arrowdown" xlink:href="#arrowDown" x="0" y="0" onmousedown="handlePan(0,1)"/>
  <use id="arrowleft" xlink:href="#arrowLeft" x="0" y="0" onmousedown="handlePan(-1,0)"/>
</g>
<svg viewBox="0 0 15 15" width="100%" height="30px" preserveAspectRatio="xMaxYMin meet">
 <g id="arrow_out" transform="scale(0.3 0.3)">
  <a xlink:href="security_2main_2app__main_8c_abce06be17fc37d675118a678a8100a36_cgraph_org.svg" target="_base">
   <rect id="button" ry="5" rx="5" y="6" x="6" height="38" width="38"
        fill="#f2f5e9" fill-opacity="0.5" stroke="#606060" stroke-width="1.0"/>
   <path id="arrow"
     d="M 11.500037,31.436501 C 11.940474,20.09759 22.043105,11.32322 32.158766,21.979434 L 37.068811,17.246167 C 37.068811,17.246167 37.088388,32 37.088388,32 L 22.160133,31.978069 C 22.160133,31.978069 26.997745,27.140456 26.997745,27.140456 C 18.528582,18.264221 13.291696,25.230495 11.500037,31.436501 z"
     style="fill:#404040;"/>
  </a>
 </g>
</svg>

<style type='text/css'>
<![CDATA[
[data-mouse-over-selected='false'] { opacity: 0.7; }
[data-mouse-over-selected='true']  { opacity: 1.0; }
]]>
</style>
<script type="application/ecmascript"><![CDATA[
document.addEventListener('DOMContentLoaded', (event) => {
  highlightEdges();
  highlightAdjacentNodes();
});
]]></script>
</svg>
