<?xml version="1.0" encoding="UTF-8" standalone="no"?>
<!DOCTYPE svg PUBLIC "-//W3C//DTD SVG 1.1//EN"
 "http://www.w3.org/Graphics/SVG/1.1/DTD/svg11.dtd">
<!-- Generated by graphviz version 12.2.1 (20241206.2353)
 -->
<!-- Title: app_main Pages: 1 -->
<svg width="975pt" height="730pt"
 viewBox="0.00 0.00 974.50 730.25" xmlns="http://www.w3.org/2000/svg" xmlns:xlink="http://www.w3.org/1999/xlink">
<g id="graph0" class="graph" transform="scale(1 1) rotate(0) translate(4 726.25)">
<title>app_main</title>
<!-- Node1 -->
<g id="Node000001" class="node">
<title>Node1</title>
<g id="a_Node000001"><a xlink:title=" ">
<polygon fill="#999999" stroke="#666666" points="69.25,-282.25 0,-282.25 0,-260 69.25,-260 69.25,-282.25"/>
<text text-anchor="middle" x="34.62" y="-266.85" font-family="Arial" font-size="12.00">app_main</text>
</a>
</g>
</g>
<!-- Node2 -->
<g id="Node000002" class="node">
<title>Node2</title>
<g id="a_Node000002"><a xlink:href="initiator_8c.html#a1683185fcd1011f85d16a69c1298fba1" target="_top" xlink:title=" ">
<polygon fill="white" stroke="#666666" points="266.75,-542.25 136,-542.25 136,-520 266.75,-520 266.75,-542.25"/>
<text text-anchor="middle" x="201.38" y="-526.85" font-family="Arial" font-size="12.00">app_espnow_initiator</text>
</a>
</g>
</g>
<!-- Node1&#45;&gt;Node2 -->
<g id="edge1_Node000001_Node000002" class="edge">
<title>Node1&#45;&gt;Node2</title>
<g id="a_edge1_Node000001_Node000002"><a xlink:title=" ">
<path fill="none" stroke="#63b8ff" d="M41.89,-282.53C53.78,-304.05 80.64,-351.97 105.25,-391.12 132.43,-434.36 166.55,-483.42 185.66,-510.46"/>
<polygon fill="#63b8ff" stroke="#63b8ff" points="182.69,-512.32 191.32,-518.46 188.4,-508.28 182.69,-512.32"/>
</a>
</g>
</g>
<!-- Node25 -->
<g id="Node000025" class="node">
<title>Node25</title>
<g id="a_Node000025"><a xlink:href="initiator_8c.html#a1675c4b092dbff5fd6470f9f0ebde143" target="_top" xlink:title=" ">
<polygon fill="white" stroke="#666666" points="290,-302.25 112.75,-302.25 112.75,-280 290,-280 290,-302.25"/>
<text text-anchor="middle" x="201.38" y="-286.85" font-family="Arial" font-size="12.00">app_espnow_initiator_register</text>
</a>
</g>
</g>
<!-- Node1&#45;&gt;Node25 -->
<g id="edge25_Node000001_Node000025" class="edge">
<title>Node1&#45;&gt;Node25</title>
<g id="a_edge25_Node000001_Node000025"><a xlink:title=" ">
<path fill="none" stroke="#63b8ff" d="M69.36,-275.22C78.99,-276.39 90.01,-277.73 101.46,-279.12"/>
<polygon fill="#63b8ff" stroke="#63b8ff" points="100.7,-282.55 111.05,-280.28 101.55,-275.6 100.7,-282.55"/>
</a>
</g>
</g>
<!-- Node26 -->
<g id="Node000026" class="node">
<title>Node26</title>
<g id="a_Node000026"><a xlink:href="responder_8c.html#aaba5269934289910b82aa1341ace9888" target="_top" xlink:title=" ">
<polygon fill="white" stroke="#666666" points="274.25,-382.25 128.5,-382.25 128.5,-360 274.25,-360 274.25,-382.25"/>
<text text-anchor="middle" x="201.38" y="-366.85" font-family="Arial" font-size="12.00">app_espnow_responder</text>
</a>
</g>
</g>
<!-- Node1&#45;&gt;Node26 -->
<g id="edge26_Node000001_Node000026" class="edge">
<title>Node1&#45;&gt;Node26</title>
<g id="a_edge26_Node000001_Node000026"><a xlink:title=" ">
<path fill="none" stroke="#63b8ff" d="M54.52,-282.6C83.25,-300.03 138.1,-333.32 171.74,-353.74"/>
<polygon fill="#63b8ff" stroke="#63b8ff" points="169.78,-356.65 180.15,-358.85 173.42,-350.67 169.78,-356.65"/>
</a>
</g>
</g>
<!-- Node38 -->
<g id="Node000038" class="node">
<title>Node38</title>
<g id="a_Node000038"><a xlink:href="responder_8c.html#a83d1af6ed18281de7a828636e03ce1d8" target="_top" xlink:title=" ">
<polygon fill="white" stroke="#666666" points="297.5,-262.25 105.25,-262.25 105.25,-240 297.5,-240 297.5,-262.25"/>
<text text-anchor="middle" x="201.38" y="-246.85" font-family="Arial" font-size="12.00">app_espnow_responder_register</text>
</a>
</g>
</g>
<!-- Node1&#45;&gt;Node38 -->
<g id="edge43_Node000001_Node000038" class="edge">
<title>Node1&#45;&gt;Node38</title>
<g id="a_edge43_Node000001_Node000038"><a xlink:title=" ">
<path fill="none" stroke="#63b8ff" d="M69.36,-267.03C76.84,-266.12 85.16,-265.11 93.86,-264.06"/>
<polygon fill="#63b8ff" stroke="#63b8ff" points="94.06,-267.56 103.57,-262.88 93.22,-260.61 94.06,-267.56"/>
</a>
</g>
</g>
<!-- Node39 -->
<g id="Node000039" class="node">
<title>Node39</title>
<g id="a_Node000039"><a xlink:href="espnow_8c.html#a82456d56cc86371962135c5ff82fd954" target="_top" xlink:title="Initialize ESP&#45;NOW function.">
<polygon fill="white" stroke="#666666" points="241.62,-182.25 161.12,-182.25 161.12,-160 241.62,-160 241.62,-182.25"/>
<text text-anchor="middle" x="201.38" y="-166.85" font-family="Arial" font-size="12.00">espnow_init</text>
</a>
</g>
</g>
<!-- Node1&#45;&gt;Node39 -->
<g id="edge44_Node000001_Node000039" class="edge">
<title>Node1&#45;&gt;Node39</title>
<g id="a_edge44_Node000001_Node000039"><a xlink:title=" ">
<path fill="none" stroke="#63b8ff" d="M54.52,-259.65C83.25,-242.22 138.1,-208.93 171.74,-188.51"/>
<polygon fill="#63b8ff" stroke="#63b8ff" points="173.42,-191.58 180.15,-183.4 169.78,-185.6 173.42,-191.58"/>
</a>
</g>
</g>
<!-- Node48 -->
<g id="Node000048" class="node">
<title>Node48</title>
<g id="a_Node000048"><a xlink:href="espnow__storage_8c.html#afcdac79eafab05bba3191708b3d6c672" target="_top" xlink:title="Intialise ESP Storage.">
<polygon fill="white" stroke="#666666" points="264.88,-142.25 137.88,-142.25 137.88,-120 264.88,-120 264.88,-142.25"/>
<text text-anchor="middle" x="201.38" y="-126.85" font-family="Arial" font-size="12.00">espnow_storage_init</text>
</a>
</g>
</g>
<!-- Node1&#45;&gt;Node48 -->
<g id="edge53_Node000001_Node000048" class="edge">
<title>Node1&#45;&gt;Node48</title>
<g id="a_edge53_Node000001_Node000048"><a xlink:title=" ">
<path fill="none" stroke="#63b8ff" d="M38.78,-259.74C46.09,-235.57 66.61,-179.07 105.25,-151.12 111.83,-146.37 119.3,-142.69 127.09,-139.86"/>
<polygon fill="#63b8ff" stroke="#63b8ff" points="127.91,-143.27 136.41,-136.94 125.82,-136.58 127.91,-143.27"/>
</a>
</g>
</g>
<!-- Node3 -->
<g id="Node000003" class="node">
<title>Node3</title>
<g id="a_Node000003"><a xlink:href="espnow__commands_8c.html#a0bb86e9397ef9f6da395e1a03b34a139" target="_top" xlink:title="Register Common commands.">
<polygon fill="white" stroke="#666666" points="552,-502.25 333.5,-502.25 333.5,-480 552,-480 552,-502.25"/>
<text text-anchor="middle" x="442.75" y="-486.85" font-family="Arial" font-size="12.00">espnow_console_commands_register</text>
</a>
</g>
</g>
<!-- Node2&#45;&gt;Node3 -->
<g id="edge2_Node000002_Node000003" class="edge">
<title>Node2&#45;&gt;Node3</title>
<g id="a_edge2_Node000002_Node000003"><a xlink:title=" ">
<path fill="none" stroke="#63b8ff" d="M267.15,-520.3C296.13,-515.46 330.6,-509.7 361.22,-504.58"/>
<polygon fill="#63b8ff" stroke="#63b8ff" points="361.53,-508.08 370.81,-502.98 360.37,-501.17 361.53,-508.08"/>
</a>
</g>
</g>
<!-- Node23 -->
<g id="Node000023" class="node">
<title>Node23</title>
<g id="a_Node000023"><a xlink:href="espnow__console_8c.html#aa6f31005efa0f0074f02968b96f8bd7a" target="_top" xlink:title="Initialize console module.">
<polygon fill="white" stroke="#666666" points="507.38,-582.25 378.12,-582.25 378.12,-560 507.38,-560 507.38,-582.25"/>
<text text-anchor="middle" x="442.75" y="-566.85" font-family="Arial" font-size="12.00">espnow_console_init</text>
</a>
</g>
</g>
<!-- Node2&#45;&gt;Node23 -->
<g id="edge22_Node000002_Node000023" class="edge">
<title>Node2&#45;&gt;Node23</title>
<g id="a_edge22_Node000002_Node000023"><a xlink:title=" ">
<path fill="none" stroke="#63b8ff" d="M267.15,-541.95C297.87,-547.08 334.75,-553.24 366.68,-558.58"/>
<polygon fill="#63b8ff" stroke="#63b8ff" points="365.82,-561.98 376.26,-560.18 366.97,-555.08 365.82,-561.98"/>
</a>
</g>
</g>
<!-- Node24 -->
<g id="Node000024" class="node">
<title>Node24</title>
<g id="a_Node000024"><a xlink:href="espnow_8c.html#a5e8b13ca7f586bed41ed5779b84f61f4" target="_top" xlink:title="Set configuration when receiving the corresponding ESP&#45;NOW data type Include: Set to enable/disable h...">
<polygon fill="white" stroke="#666666" points="787,-722.25 588,-722.25 588,-700 787,-700 787,-722.25"/>
<text text-anchor="middle" x="687.5" y="-706.85" font-family="Arial" font-size="12.00">espnow_set_config_for_data_type</text>
</a>
</g>
</g>
<!-- Node2&#45;&gt;Node24 -->
<g id="edge24_Node000002_Node000024" class="edge">
<title>Node2&#45;&gt;Node24</title>
<g id="a_edge24_Node000002_Node000024"><a xlink:title=" ">
<path fill="none" stroke="#63b8ff" d="M225.22,-542.63C283.94,-571.75 445.5,-649.01 588,-691.12 595.14,-693.23 602.64,-695.2 610.17,-697"/>
<polygon fill="#63b8ff" stroke="#63b8ff" points="609.2,-700.37 619.72,-699.19 610.76,-693.55 609.2,-700.37"/>
</a>
</g>
</g>
<!-- Node4 -->
<g id="Node000004" class="node">
<title>Node4</title>
<g id="a_Node000004"><a xlink:href="cmd__espnow_8c.html#a49ab8b4f30ba6620b8349e8dbcf6e7a7" target="_top" xlink:title=" ">
<polygon fill="white" stroke="#666666" points="739.75,-362.25 635.25,-362.25 635.25,-340 739.75,-340 739.75,-362.25"/>
<text text-anchor="middle" x="687.5" y="-346.85" font-family="Arial" font-size="12.00">register_espnow</text>
</a>
</g>
</g>
<!-- Node3&#45;&gt;Node4 -->
<g id="edge3_Node000003_Node000004" class="edge">
<title>Node3&#45;&gt;Node4</title>
<g id="a_edge3_Node000003_Node000004"><a xlink:title=" ">
<path fill="none" stroke="#63b8ff" d="M500.15,-479.53C518.42,-473.52 537.65,-464.52 552,-451.12 580.5,-424.52 557.54,-395.46 588,-371.12 598.17,-363 610.79,-357.91 623.56,-354.78"/>
<polygon fill="#63b8ff" stroke="#63b8ff" points="624.17,-358.22 633.27,-352.8 622.78,-351.36 624.17,-358.22"/>
</a>
</g>
</g>
<!-- Node10 -->
<g id="Node000010" class="node">
<title>Node10</title>
<g id="a_Node000010"><a xlink:href="cmd__iperf_8c.html#aba7899961f37bd327bbcfbfbe6582b3d" target="_top" xlink:title=" ">
<polygon fill="white" stroke="#666666" points="730.38,-682.25 644.62,-682.25 644.62,-660 730.38,-660 730.38,-682.25"/>
<text text-anchor="middle" x="687.5" y="-666.85" font-family="Arial" font-size="12.00">register_iperf</text>
</a>
</g>
</g>
<!-- Node3&#45;&gt;Node10 -->
<g id="edge9_Node000003_Node000010" class="edge">
<title>Node3&#45;&gt;Node10</title>
<g id="a_edge9_Node000003_Node000010"><a xlink:title=" ">
<path fill="none" stroke="#63b8ff" d="M540.57,-502.63C544.66,-505.05 548.51,-507.87 552,-511.12 598.97,-554.96 541.42,-606.88 588,-651.12 600.13,-662.65 616.99,-668.34 633.34,-670.96"/>
<polygon fill="#63b8ff" stroke="#63b8ff" points="632.65,-674.41 643,-672.14 633.5,-667.46 632.65,-674.41"/>
</a>
</g>
</g>
<!-- Node13 -->
<g id="Node000013" class="node">
<title>Node13</title>
<g id="a_Node000013"><a xlink:href="cmd__peripherals_8c.html#a32de1cde0b0101a969e28a296a893a0c" target="_top" xlink:title=" ">
<polygon fill="white" stroke="#666666" points="748.75,-642.25 626.25,-642.25 626.25,-620 748.75,-620 748.75,-642.25"/>
<text text-anchor="middle" x="687.5" y="-626.85" font-family="Arial" font-size="12.00">register_peripherals</text>
</a>
</g>
</g>
<!-- Node3&#45;&gt;Node13 -->
<g id="edge12_Node000003_Node000013" class="edge">
<title>Node3&#45;&gt;Node13</title>
<g id="a_edge12_Node000003_Node000013"><a xlink:title=" ">
<path fill="none" stroke="#63b8ff" d="M539.45,-502.62C543.92,-505.03 548.14,-507.85 552,-511.12 588.01,-541.7 552.26,-580.23 588,-611.12 595.76,-617.83 605.14,-622.51 615,-625.74"/>
<polygon fill="#63b8ff" stroke="#63b8ff" points="613.79,-629.04 624.36,-628.31 615.64,-622.29 613.79,-629.04"/>
</a>
</g>
</g>
<!-- Node14 -->
<g id="Node000014" class="node">
<title>Node14</title>
<g id="a_Node000014"><a xlink:href="cmd__sdcard_8c.html#aee0a19b9ec59752b8124fcb5d3b45d23" target="_top" xlink:title="Register sdcard command.">
<polygon fill="white" stroke="#666666" points="736.75,-602.25 638.25,-602.25 638.25,-580 736.75,-580 736.75,-602.25"/>
<text text-anchor="middle" x="687.5" y="-586.85" font-family="Arial" font-size="12.00">register_sdcard</text>
</a>
</g>
</g>
<!-- Node3&#45;&gt;Node14 -->
<g id="edge13_Node000003_Node000014" class="edge">
<title>Node3&#45;&gt;Node14</title>
<g id="a_edge13_Node000003_Node000014"><a xlink:title=" ">
<path fill="none" stroke="#63b8ff" d="M536.87,-502.72C542.2,-505.08 547.29,-507.86 552,-511.12 577.55,-528.85 562.61,-553.17 588,-571.12 599.41,-579.19 613.32,-584.17 627.06,-587.2"/>
<polygon fill="#63b8ff" stroke="#63b8ff" points="626.02,-590.57 636.49,-588.96 627.3,-583.69 626.02,-590.57"/>
</a>
</g>
</g>
<!-- Node15 -->
<g id="Node000015" class="node">
<title>Node15</title>
<g id="a_Node000015"><a xlink:href="cmd__system_8c.html#a5cea85be00cb1ee5b57616da2fec81dd" target="_top" xlink:title=" ">
<polygon fill="white" stroke="#666666" points="737.5,-562.25 637.5,-562.25 637.5,-540 737.5,-540 737.5,-562.25"/>
<text text-anchor="middle" x="687.5" y="-546.85" font-family="Arial" font-size="12.00">register_system</text>
</a>
</g>
</g>
<!-- Node3&#45;&gt;Node15 -->
<g id="edge14_Node000003_Node000015" class="edge">
<title>Node3&#45;&gt;Node15</title>
<g id="a_edge14_Node000003_Node000015"><a xlink:title=" ">
<path fill="none" stroke="#63b8ff" d="M523.18,-502.72C533.01,-505.05 542.83,-507.83 552,-511.12 569.23,-517.31 570.83,-524.79 588,-531.12 600.03,-535.57 613.27,-539.11 626.03,-541.89"/>
<polygon fill="#63b8ff" stroke="#63b8ff" points="625.1,-545.28 635.6,-543.85 626.5,-538.42 625.1,-545.28"/>
</a>
</g>
</g>
<!-- Node16 -->
<g id="Node000016" class="node">
<title>Node16</title>
<g id="a_Node000016"><a xlink:href="cmd__wifi_8c.html#acc3b783818c73878210baf4064425629" target="_top" xlink:title=" ">
<polygon fill="white" stroke="#666666" points="727.75,-522.25 647.25,-522.25 647.25,-500 727.75,-500 727.75,-522.25"/>
<text text-anchor="middle" x="687.5" y="-506.85" font-family="Arial" font-size="12.00">register_wifi</text>
</a>
</g>
</g>
<!-- Node3&#45;&gt;Node16 -->
<g id="edge15_Node000003_Node000016" class="edge">
<title>Node3&#45;&gt;Node16</title>
<g id="a_edge15_Node000003_Node000016"><a xlink:title=" ">
<path fill="none" stroke="#63b8ff" d="M552.34,-500.07C581.31,-502.46 611.26,-504.93 635.49,-506.92"/>
<polygon fill="#63b8ff" stroke="#63b8ff" points="635.13,-510.4 645.39,-507.74 635.71,-503.43 635.13,-510.4"/>
</a>
</g>
</g>
<!-- Node20 -->
<g id="Node000020" class="node">
<title>Node20</title>
<g id="a_Node000020"><a xlink:href="cmd__wifi__sniffer_8c.html#aeca2ef6acde5704f187f7f3734ca0a51" target="_top" xlink:title=" ">
<polygon fill="white" stroke="#666666" points="747.25,-482.25 627.75,-482.25 627.75,-460 747.25,-460 747.25,-482.25"/>
<text text-anchor="middle" x="687.5" y="-466.85" font-family="Arial" font-size="12.00">register_wifi_sniffer</text>
</a>
</g>
</g>
<!-- Node3&#45;&gt;Node20 -->
<g id="edge19_Node000003_Node000020" class="edge">
<title>Node3&#45;&gt;Node20</title>
<g id="a_edge19_Node000003_Node000020"><a xlink:title=" ">
<path fill="none" stroke="#63b8ff" d="M552.34,-482.18C573.98,-480.4 596.16,-478.57 616.1,-476.93"/>
<polygon fill="#63b8ff" stroke="#63b8ff" points="616.37,-480.42 626.05,-476.11 615.79,-473.44 616.37,-480.42"/>
</a>
</g>
</g>
<!-- Node21 -->
<g id="Node000021" class="node">
<title>Node21</title>
<g id="a_Node000021"><a xlink:href="sdcard_8c.html#ae3e13ea01aad71d69c7e3c4656de1803" target="_top" xlink:title="Initialize sdcard, Using SDMMC peripheral.">
<polygon fill="white" stroke="#666666" points="724.75,-442.25 650.25,-442.25 650.25,-420 724.75,-420 724.75,-442.25"/>
<text text-anchor="middle" x="687.5" y="-426.85" font-family="Arial" font-size="12.00">sdcard_init</text>
</a>
</g>
</g>
<!-- Node3&#45;&gt;Node21 -->
<g id="edge20_Node000003_Node000021" class="edge">
<title>Node3&#45;&gt;Node21</title>
<g id="a_edge20_Node000003_Node000021"><a xlink:title=" ">
<path fill="none" stroke="#63b8ff" d="M482.74,-479.51C511.66,-471.1 552.11,-459.73 588,-451.12 604.54,-447.16 622.77,-443.31 639.01,-440.07"/>
<polygon fill="#63b8ff" stroke="#63b8ff" points="639.26,-443.59 648.39,-438.22 637.91,-436.72 639.26,-443.59"/>
</a>
</g>
</g>
<!-- Node22 -->
<g id="Node000022" class="node">
<title>Node22</title>
<g id="a_Node000022"><a xlink:href="sdcard_8c.html#a1ee82a88b28b169594e94eada1cf1233" target="_top" xlink:title="Check if sdcard is mounted.">
<polygon fill="white" stroke="#666666" points="741.25,-402.25 633.75,-402.25 633.75,-380 741.25,-380 741.25,-402.25"/>
<text text-anchor="middle" x="687.5" y="-386.85" font-family="Arial" font-size="12.00">sdcard_is_mount</text>
</a>
</g>
</g>
<!-- Node3&#45;&gt;Node22 -->
<g id="edge21_Node000003_Node000022" class="edge">
<title>Node3&#45;&gt;Node22</title>
<g id="a_edge21_Node000003_Node000022"><a xlink:title=" ">
<path fill="none" stroke="#63b8ff" d="M489.81,-479.52C509.98,-473.12 533.26,-463.83 552,-451.12 571.79,-437.7 567.23,-422.99 588,-411.12 598.5,-405.13 610.53,-400.91 622.49,-397.95"/>
<polygon fill="#63b8ff" stroke="#63b8ff" points="622.91,-401.44 631.94,-395.89 621.42,-394.6 622.91,-401.44"/>
</a>
</g>
</g>
<!-- Node5 -->
<g id="Node000005" class="node">
<title>Node5</title>
<g id="a_Node000005"><a xlink:href="cmd__espnow_8c.html#a663e227ca7f408c5e70f3a543066c1f3" target="_top" xlink:title="Register command command.">
<polygon fill="white" stroke="#666666" points="952.25,-442.25 837.25,-442.25 837.25,-420 952.25,-420 952.25,-442.25"/>
<text text-anchor="middle" x="894.75" y="-426.85" font-family="Arial" font-size="12.00">register_command</text>
</a>
</g>
</g>
<!-- Node4&#45;&gt;Node5 -->
<g id="edge4_Node000004_Node000005" class="edge">
<title>Node4&#45;&gt;Node5</title>
<g id="a_edge4_Node000004_Node000005"><a xlink:title=" ">
<path fill="none" stroke="#63b8ff" d="M740.06,-355.29C755.88,-358.18 772.83,-363.03 787,-371.12 807.77,-382.99 802.69,-398.49 823,-411.12 825.16,-412.47 827.41,-413.72 829.72,-414.89"/>
<polygon fill="#63b8ff" stroke="#63b8ff" points="828.25,-418.07 838.81,-418.91 831.08,-411.67 828.25,-418.07"/>
</a>
</g>
</g>
<!-- Node6 -->
<g id="Node000006" class="node">
<title>Node6</title>
<g id="a_Node000006"><a xlink:href="cmd__espnow_8c.html#a133f010c7f704fae3fd7c7844ab8adb4" target="_top" xlink:title=" ">
<polygon fill="white" stroke="#666666" points="944,-402.25 845.5,-402.25 845.5,-380 944,-380 944,-402.25"/>
<text text-anchor="middle" x="894.75" y="-386.85" font-family="Arial" font-size="12.00">register_control</text>
</a>
</g>
</g>
<!-- Node4&#45;&gt;Node6 -->
<g id="edge5_Node000004_Node000006" class="edge">
<title>Node4&#45;&gt;Node6</title>
<g id="a_edge5_Node000004_Node000006"><a xlink:title=" ">
<path fill="none" stroke="#63b8ff" d="M740.03,-361.17C768.56,-366.73 804.17,-373.67 833.93,-379.47"/>
<polygon fill="#63b8ff" stroke="#63b8ff" points="833.06,-382.86 843.54,-381.34 834.4,-375.99 833.06,-382.86"/>
</a>
</g>
</g>
<!-- Node7 -->
<g id="Node000007" class="node">
<title>Node7</title>
<g id="a_Node000007"><a xlink:href="cmd__espnow_8c.html#a4116f70abed28605f9edde3cb2b49df3" target="_top" xlink:title=" ">
<polygon fill="white" stroke="#666666" points="934.25,-362.25 855.25,-362.25 855.25,-340 934.25,-340 934.25,-362.25"/>
<text text-anchor="middle" x="894.75" y="-346.85" font-family="Arial" font-size="12.00">register_ota</text>
</a>
</g>
</g>
<!-- Node4&#45;&gt;Node7 -->
<g id="edge6_Node000004_Node000007" class="edge">
<title>Node4&#45;&gt;Node7</title>
<g id="a_edge6_Node000004_Node000007"><a xlink:title=" ">
<path fill="none" stroke="#63b8ff" d="M740.03,-351.12C771.76,-351.12 812.23,-351.12 843.69,-351.12"/>
<polygon fill="#63b8ff" stroke="#63b8ff" points="843.32,-354.63 853.32,-351.13 843.32,-347.63 843.32,-354.63"/>
</a>
</g>
</g>
<!-- Node8 -->
<g id="Node000008" class="node">
<title>Node8</title>
<g id="a_Node000008"><a xlink:href="cmd__espnow_8c.html#a250a2960cac20a0a927ea9ee538d0ed1" target="_top" xlink:title=" ">
<polygon fill="white" stroke="#666666" points="958.62,-322.25 830.88,-322.25 830.88,-300 958.62,-300 958.62,-322.25"/>
<text text-anchor="middle" x="894.75" y="-306.85" font-family="Arial" font-size="12.00">register_provisioning</text>
</a>
</g>
</g>
<!-- Node4&#45;&gt;Node8 -->
<g id="edge7_Node000004_Node000008" class="edge">
<title>Node4&#45;&gt;Node8</title>
<g id="a_edge7_Node000004_Node000008"><a xlink:title=" ">
<path fill="none" stroke="#63b8ff" d="M740.03,-341.08C765.18,-336.18 795.83,-330.21 823.13,-324.89"/>
<polygon fill="#63b8ff" stroke="#63b8ff" points="823.56,-328.37 832.71,-323.02 822.22,-321.5 823.56,-328.37"/>
</a>
</g>
</g>
<!-- Node9 -->
<g id="Node000009" class="node">
<title>Node9</title>
<g id="a_Node000009"><a xlink:href="cmd__espnow_8c.html#a952bdf39df32da2582cc93259df66b21" target="_top" xlink:title=" ">
<polygon fill="white" stroke="#666666" points="938.75,-282.25 850.75,-282.25 850.75,-260 938.75,-260 938.75,-282.25"/>
<text text-anchor="middle" x="894.75" y="-266.85" font-family="Arial" font-size="12.00">register_scan</text>
</a>
</g>
</g>
<!-- Node4&#45;&gt;Node9 -->
<g id="edge8_Node000004_Node000009" class="edge">
<title>Node4&#45;&gt;Node9</title>
<g id="a_edge8_Node000004_Node000009"><a xlink:title=" ">
<path fill="none" stroke="#63b8ff" d="M740.06,-346.96C755.88,-344.07 772.83,-339.22 787,-331.12 807.77,-319.26 802.69,-303.76 823,-291.12 828.22,-287.88 833.97,-285.15 839.88,-282.85"/>
<polygon fill="#63b8ff" stroke="#63b8ff" points="840.84,-286.22 849.16,-279.66 838.56,-279.6 840.84,-286.22"/>
</a>
</g>
</g>
<!-- Node11 -->
<g id="Node000011" class="node">
<title>Node11</title>
<g id="a_Node000011"><a xlink:href="cmd__iperf_8c.html#a59752ecd5d3a975453892e77911181f3" target="_top" xlink:title=" ">
<polygon fill="white" stroke="#666666" points="966.5,-702.25 823,-702.25 823,-680 966.5,-680 966.5,-702.25"/>
<text text-anchor="middle" x="894.75" y="-686.85" font-family="Arial" font-size="12.00">register_espnow_config</text>
</a>
</g>
</g>
<!-- Node10&#45;&gt;Node11 -->
<g id="edge10_Node000010_Node000011" class="edge">
<title>Node10&#45;&gt;Node11</title>
<g id="a_edge10_Node000010_Node000011"><a xlink:title=" ">
<path fill="none" stroke="#63b8ff" d="M730.53,-675.22C753.83,-677.49 783.61,-680.39 811.35,-683.1"/>
<polygon fill="#63b8ff" stroke="#63b8ff" points="810.87,-686.57 821.17,-684.05 811.55,-679.6 810.87,-686.57"/>
</a>
</g>
</g>
<!-- Node12 -->
<g id="Node000012" class="node">
<title>Node12</title>
<g id="a_Node000012"><a xlink:href="cmd__iperf_8c.html#a3e3a4b00f06201a66ee042ac3363f9de" target="_top" xlink:title=" ">
<polygon fill="white" stroke="#666666" points="962,-662.25 827.5,-662.25 827.5,-640 962,-640 962,-662.25"/>
<text text-anchor="middle" x="894.75" y="-646.85" font-family="Arial" font-size="12.00">register_espnow_iperf</text>
</a>
</g>
</g>
<!-- Node10&#45;&gt;Node12 -->
<g id="edge11_Node000010_Node000012" class="edge">
<title>Node10&#45;&gt;Node12</title>
<g id="a_edge11_Node000010_Node000012"><a xlink:title=" ">
<path fill="none" stroke="#63b8ff" d="M730.53,-667.03C755.07,-664.64 786.81,-661.55 815.77,-658.72"/>
<polygon fill="#63b8ff" stroke="#63b8ff" points="816.01,-662.22 825.62,-657.76 815.33,-655.25 816.01,-662.22"/>
</a>
</g>
</g>
<!-- Node17 -->
<g id="Node000017" class="node">
<title>Node17</title>
<g id="a_Node000017"><a xlink:href="cmd__wifi_8c.html#a53edfa7e48af95ba07348e7c1421feea" target="_top" xlink:title=" ">
<polygon fill="white" stroke="#666666" points="945.12,-562.25 844.38,-562.25 844.38,-540 945.12,-540 945.12,-562.25"/>
<text text-anchor="middle" x="894.75" y="-546.85" font-family="Arial" font-size="12.00">register_wifi_ap</text>
</a>
</g>
</g>
<!-- Node16&#45;&gt;Node17 -->
<g id="edge16_Node000016_Node000017" class="edge">
<title>Node16&#45;&gt;Node17</title>
<g id="a_edge16_Node000016_Node000017"><a xlink:title=" ">
<path fill="none" stroke="#63b8ff" d="M728.07,-518.84C757.8,-524.63 799.04,-532.67 832.94,-539.27"/>
<polygon fill="#63b8ff" stroke="#63b8ff" points="832.16,-542.69 842.64,-541.17 833.5,-535.82 832.16,-542.69"/>
</a>
</g>
</g>
<!-- Node18 -->
<g id="Node000018" class="node">
<title>Node18</title>
<g id="a_Node000018"><a xlink:href="cmd__wifi_8c.html#a829e61400c74b6e8b03ebbc968fb6ae9" target="_top" xlink:title=" ">
<polygon fill="white" stroke="#666666" points="950,-522.25 839.5,-522.25 839.5,-500 950,-500 950,-522.25"/>
<text text-anchor="middle" x="894.75" y="-506.85" font-family="Arial" font-size="12.00">register_wifi_ping</text>
</a>
</g>
</g>
<!-- Node16&#45;&gt;Node18 -->
<g id="edge17_Node000016_Node000018" class="edge">
<title>Node16&#45;&gt;Node18</title>
<g id="a_edge17_Node000016_Node000018"><a xlink:title=" ">
<path fill="none" stroke="#63b8ff" d="M728.07,-511.12C756.31,-511.12 794.95,-511.12 827.81,-511.12"/>
<polygon fill="#63b8ff" stroke="#63b8ff" points="827.65,-514.63 837.65,-511.13 827.65,-507.63 827.65,-514.63"/>
</a>
</g>
</g>
<!-- Node19 -->
<g id="Node000019" class="node">
<title>Node19</title>
<g id="a_Node000019"><a xlink:href="cmd__wifi_8c.html#af11c2a0aaba22bf6cce6d38be617ed89" target="_top" xlink:title="Register wifi scan command.">
<polygon fill="white" stroke="#666666" points="951.12,-482.25 838.38,-482.25 838.38,-460 951.12,-460 951.12,-482.25"/>
<text text-anchor="middle" x="894.75" y="-466.85" font-family="Arial" font-size="12.00">register_wifi_scan</text>
</a>
</g>
</g>
<!-- Node16&#45;&gt;Node19 -->
<g id="edge18_Node000016_Node000019" class="edge">
<title>Node16&#45;&gt;Node19</title>
<g id="a_edge18_Node000016_Node000019"><a xlink:title=" ">
<path fill="none" stroke="#63b8ff" d="M728.07,-503.41C756,-497.97 794.1,-490.55 826.72,-484.19"/>
<polygon fill="#63b8ff" stroke="#63b8ff" points="827.37,-487.63 836.52,-482.28 826.03,-480.76 827.37,-487.63"/>
</a>
</g>
</g>
<!-- Node23&#45;&gt;Node24 -->
<g id="edge23_Node000023_Node000024" class="edge">
<title>Node23&#45;&gt;Node24</title>
<g id="a_edge23_Node000023_Node000024"><a xlink:title=" ">
<path fill="none" stroke="#63b8ff" d="M463.78,-582.57C486.53,-596.09 524.09,-620.07 552,-646.12 570.72,-663.6 566.14,-677.78 588,-691.12 590.29,-692.53 592.67,-693.83 595.1,-695.04"/>
<polygon fill="#63b8ff" stroke="#63b8ff" points="593.47,-698.15 604.04,-698.94 596.27,-691.74 593.47,-698.15"/>
</a>
</g>
</g>
<!-- Node26&#45;&gt;Node3 -->
<g id="edge27_Node000026_Node000003" class="edge">
<title>Node26&#45;&gt;Node3</title>
<g id="a_edge27_Node000026_Node000003"><a xlink:title=" ">
<path fill="none" stroke="#63b8ff" d="M218.76,-382.56C243.02,-399.15 290.3,-430.21 333.5,-451.12 352.89,-460.51 375.08,-469.07 394.3,-475.84"/>
<polygon fill="#63b8ff" stroke="#63b8ff" points="392.91,-479.06 403.51,-479.01 395.2,-472.44 392.91,-479.06"/>
</a>
</g>
</g>
<!-- Node26&#45;&gt;Node23 -->
<g id="edge28_Node000026_Node000023" class="edge">
<title>Node26&#45;&gt;Node23</title>
<g id="a_edge28_Node000026_Node000023"><a xlink:title=" ">
<path fill="none" stroke="#63b8ff" d="M210.03,-382.65C235.38,-420.62 315.91,-540.05 333.5,-551.12 343.49,-557.41 354.96,-561.83 366.61,-564.92"/>
<polygon fill="#63b8ff" stroke="#63b8ff" points="365.8,-568.32 376.33,-567.15 367.36,-561.5 365.8,-568.32"/>
</a>
</g>
</g>
<!-- Node27 -->
<g id="Node000027" class="node">
<title>Node27</title>
<g id="a_Node000027"><a xlink:href="espnow_8c.html#a20960515d17cbc436c4598a4b8134c94" target="_top" xlink:title="Get the security key info stored in flash If no security key info is stored in flash,...">
<polygon fill="white" stroke="#666666" points="496.12,-402.25 389.38,-402.25 389.38,-380 496.12,-380 496.12,-402.25"/>
<text text-anchor="middle" x="442.75" y="-386.85" font-family="Arial" font-size="12.00">espnow_get_key</text>
</a>
</g>
</g>
<!-- Node26&#45;&gt;Node27 -->
<g id="edge29_Node000026_Node000027" class="edge">
<title>Node26&#45;&gt;Node27</title>
<g id="a_edge29_Node000026_Node000027"><a xlink:title=" ">
<path fill="none" stroke="#63b8ff" d="M274.52,-377.15C307.38,-379.9 345.94,-383.12 377.76,-385.78"/>
<polygon fill="#63b8ff" stroke="#63b8ff" points="377.38,-389.26 387.64,-386.6 377.96,-382.28 377.38,-389.26"/>
</a>
</g>
</g>
<!-- Node29 -->
<g id="Node000029" class="node">
<title>Node29</title>
<g id="a_Node000029"><a xlink:href="espnow__log_8c.html#a6d4afb9055e0375fefca1df8298b5ef9" target="_top" xlink:title="Initialize log debug.">
<polygon fill="white" stroke="#666666" points="494.62,-242.25 390.88,-242.25 390.88,-220 494.62,-220 494.62,-242.25"/>
<text text-anchor="middle" x="442.75" y="-226.85" font-family="Arial" font-size="12.00">espnow_log_init</text>
</a>
</g>
</g>
<!-- Node26&#45;&gt;Node29 -->
<g id="edge31_Node000026_Node000029" class="edge">
<title>Node26&#45;&gt;Node29</title>
<g id="a_edge31_Node000026_Node000029"><a xlink:title=" ">
<path fill="none" stroke="#63b8ff" d="M227.26,-359.55C247.88,-349.06 277.02,-332.06 297.5,-311.12 319.24,-288.89 307.95,-268.85 333.5,-251.12 346.9,-241.83 363.39,-236.51 379.42,-233.55"/>
<polygon fill="#63b8ff" stroke="#63b8ff" points="379.56,-237.07 388.91,-232.08 378.49,-230.15 379.56,-237.07"/>
</a>
</g>
</g>
<!-- Node31 -->
<g id="Node000031" class="node">
<title>Node31</title>
<g id="a_Node000031"><a xlink:href="espnow__ota__responder_8c.html#ab046328511e23a2687f41b7c3b7cc407" target="_top" xlink:title="Start upgrading.">
<polygon fill="white" stroke="#666666" points="528.38,-542.25 357.12,-542.25 357.12,-520 528.38,-520 528.38,-542.25"/>
<text text-anchor="middle" x="442.75" y="-526.85" font-family="Arial" font-size="12.00">espnow_ota_responder_start</text>
</a>
</g>
</g>
<!-- Node26&#45;&gt;Node31 -->
<g id="edge33_Node000026_Node000031" class="edge">
<title>Node26&#45;&gt;Node31</title>
<g id="a_edge33_Node000026_Node000031"><a xlink:title=" ">
<path fill="none" stroke="#63b8ff" d="M209.28,-382.47C226.49,-409.66 274.19,-478.69 333.5,-511.12 337.6,-513.37 341.91,-515.37 346.35,-517.14"/>
<polygon fill="#63b8ff" stroke="#63b8ff" points="344.87,-520.33 355.47,-520.4 347.22,-513.74 344.87,-520.33"/>
</a>
</g>
</g>
<!-- Node32 -->
<g id="Node000032" class="node">
<title>Node32</title>
<g id="a_Node000032"><a xlink:href="espnow__security__responder_8c.html#a550e5f438d39bba5dc7c34e48c6f1c65" target="_top" xlink:title="Start security process.">
<polygon fill="white" stroke="#666666" points="529.5,-362.25 356,-362.25 356,-340 529.5,-340 529.5,-362.25"/>
<text text-anchor="middle" x="442.75" y="-346.85" font-family="Arial" font-size="12.00">espnow_sec_responder_start</text>
</a>
</g>
</g>
<!-- Node26&#45;&gt;Node32 -->
<g id="edge35_Node000026_Node000032" class="edge">
<title>Node26&#45;&gt;Node32</title>
<g id="a_edge35_Node000026_Node000032"><a xlink:title=" ">
<path fill="none" stroke="#63b8ff" d="M274.52,-365.1C296.52,-363.26 321.09,-361.21 344.47,-359.25"/>
<polygon fill="#63b8ff" stroke="#63b8ff" points="344.65,-362.75 354.33,-358.43 344.07,-355.77 344.65,-362.75"/>
</a>
</g>
</g>
<!-- Node33 -->
<g id="Node000033" class="node">
<title>Node33</title>
<g id="a_Node000033"><a xlink:href="espnow_8c.html#a9664730b8b7e142959c5c0f9c55e8def" target="_top" xlink:title="Set the security key info The security key info is used to derive key and stored to flash....">
<polygon fill="white" stroke="#666666" points="508.88,-322.25 376.62,-322.25 376.62,-300 508.88,-300 508.88,-322.25"/>
<text text-anchor="middle" x="442.75" y="-306.85" font-family="Arial" font-size="12.00">espnow_set_dec_key</text>
</a>
</g>
</g>
<!-- Node26&#45;&gt;Node33 -->
<g id="edge36_Node000026_Node000033" class="edge">
<title>Node26&#45;&gt;Node33</title>
<g id="a_edge36_Node000026_Node000033"><a xlink:title=" ">
<path fill="none" stroke="#63b8ff" d="M236.59,-359.52C262.88,-350.89 300.2,-339.25 333.5,-331.12 343.7,-328.64 354.5,-326.29 365.18,-324.15"/>
<polygon fill="#63b8ff" stroke="#63b8ff" points="365.61,-327.63 374.75,-322.28 364.27,-320.76 365.61,-327.63"/>
</a>
</g>
</g>
<!-- Node36 -->
<g id="Node000036" class="node">
<title>Node36</title>
<g id="a_Node000036"><a xlink:href="espnow_8c.html#a776b545b0faedcd1511a6d59a7213029" target="_top" xlink:title="Set the security key info The security key info is used to derive key and stored to flash....">
<polygon fill="white" stroke="#666666" points="495.75,-282.25 389.75,-282.25 389.75,-260 495.75,-260 495.75,-282.25"/>
<text text-anchor="middle" x="442.75" y="-266.85" font-family="Arial" font-size="12.00">espnow_set_key</text>
</a>
</g>
</g>
<!-- Node26&#45;&gt;Node36 -->
<g id="edge39_Node000026_Node000036" class="edge">
<title>Node26&#45;&gt;Node36</title>
<g id="a_edge39_Node000026_Node000036"><a xlink:title=" ">
<path fill="none" stroke="#63b8ff" d="M220.36,-359.65C253.41,-338.63 321.51,-295.71 333.5,-291.12 347.58,-285.74 363.27,-281.77 378.23,-278.86"/>
<polygon fill="#63b8ff" stroke="#63b8ff" points="378.77,-282.32 388,-277.11 377.53,-275.43 378.77,-282.32"/>
</a>
</g>
</g>
<!-- Node37 -->
<g id="Node000037" class="node">
<title>Node37</title>
<g id="a_Node000037"><a xlink:href="espnow__timesync_8c.html#a2111aa57c26ce6218f9f0cfb6bf235af" target="_top" xlink:title="Initialize time synchronization.">
<polygon fill="white" stroke="#666666" points="513.38,-442.25 372.12,-442.25 372.12,-420 513.38,-420 513.38,-442.25"/>
<text text-anchor="middle" x="442.75" y="-426.85" font-family="Arial" font-size="12.00">espnow_timesync_start</text>
</a>
</g>
</g>
<!-- Node26&#45;&gt;Node37 -->
<g id="edge42_Node000026_Node000037" class="edge">
<title>Node26&#45;&gt;Node37</title>
<g id="a_edge42_Node000026_Node000037"><a xlink:title=" ">
<path fill="none" stroke="#63b8ff" d="M236.59,-382.73C262.88,-391.36 300.2,-403 333.5,-411.12 342.51,-413.32 351.99,-415.41 361.44,-417.34"/>
<polygon fill="#63b8ff" stroke="#63b8ff" points="360.52,-420.73 371.01,-419.24 361.88,-413.86 360.52,-420.73"/>
</a>
</g>
</g>
<!-- Node28 -->
<g id="Node000028" class="node">
<title>Node28</title>
<g id="a_Node000028"><a xlink:href="espnow__storage_8c.html#a46b53eee49b7a85ab1aaa1b876408722" target="_top" xlink:title="Load the information with given key.">
<polygon fill="white" stroke="#666666" points="751.38,-322.25 623.62,-322.25 623.62,-300 751.38,-300 751.38,-322.25"/>
<text text-anchor="middle" x="687.5" y="-306.85" font-family="Arial" font-size="12.00">espnow_storage_get</text>
</a>
</g>
</g>
<!-- Node27&#45;&gt;Node28 -->
<g id="edge30_Node000027_Node000028" class="edge">
<title>Node27&#45;&gt;Node28</title>
<g id="a_edge30_Node000027_Node000028"><a xlink:title=" ">
<path fill="none" stroke="#63b8ff" d="M496.5,-388.34C514.96,-385.61 535.24,-380.51 552,-371.12 572.87,-359.44 567.23,-342.99 588,-331.12 595.56,-326.8 603.92,-323.41 612.48,-320.74"/>
<polygon fill="#63b8ff" stroke="#63b8ff" points="613.21,-324.17 621.92,-318.14 611.35,-317.42 613.21,-324.17"/>
</a>
</g>
</g>
<!-- Node30 -->
<g id="Node000030" class="node">
<title>Node30</title>
<g id="a_Node000030"><a xlink:href="espnow__log__flash_8c.html#a8f2cce758ed84ea78771e12972d3e929" target="_top" xlink:title="Initialize espnow log flash Find and get log flash partition which size is not smaller than LOG_FLASH...">
<polygon fill="white" stroke="#666666" points="755.5,-202.25 619.5,-202.25 619.5,-180 755.5,-180 755.5,-202.25"/>
<text text-anchor="middle" x="687.5" y="-186.85" font-family="Arial" font-size="12.00">espnow_log_flash_init</text>
</a>
</g>
</g>
<!-- Node29&#45;&gt;Node30 -->
<g id="edge32_Node000029_Node000030" class="edge">
<title>Node29&#45;&gt;Node30</title>
<g id="a_edge32_Node000029_Node000030"><a xlink:title=" ">
<path fill="none" stroke="#63b8ff" d="M494.93,-222.69C527.71,-217.29 570.89,-210.18 607.96,-204.07"/>
<polygon fill="#63b8ff" stroke="#63b8ff" points="608.45,-207.53 617.75,-202.45 607.32,-200.63 608.45,-207.53"/>
</a>
</g>
</g>
<!-- Node31&#45;&gt;Node24 -->
<g id="edge34_Node000031_Node000024" class="edge">
<title>Node31&#45;&gt;Node24</title>
<g id="a_edge34_Node000031_Node000024"><a xlink:title=" ">
<path fill="none" stroke="#63b8ff" d="M528.73,-536.88C537.3,-540.25 545.29,-544.87 552,-551.12 598.97,-594.96 541.42,-646.88 588,-691.12 588.64,-691.73 589.29,-692.33 589.96,-692.9"/>
<polygon fill="#63b8ff" stroke="#63b8ff" points="587.85,-695.7 598.02,-698.66 591.92,-690 587.85,-695.7"/>
</a>
</g>
</g>
<!-- Node34 -->
<g id="Node000034" class="node">
<title>Node34</title>
<g id="a_Node000034"><a xlink:href="espnow__security_8c.html#ad081d6044fc0cedbb0c06e2c68dad306" target="_top" xlink:title="Set the security key info.">
<polygon fill="white" stroke="#666666" points="749.88,-242.25 625.12,-242.25 625.12,-220 749.88,-220 749.88,-242.25"/>
<text text-anchor="middle" x="687.5" y="-226.85" font-family="Arial" font-size="12.00">espnow_sec_setkey</text>
</a>
</g>
</g>
<!-- Node33&#45;&gt;Node34 -->
<g id="edge37_Node000033_Node000034" class="edge">
<title>Node33&#45;&gt;Node34</title>
<g id="a_edge37_Node000033_Node000034"><a xlink:title=" ">
<path fill="none" stroke="#63b8ff" d="M509.11,-306.12C523.86,-303.11 538.99,-298.41 552,-291.12 572.87,-279.44 567.23,-262.99 588,-251.12 595.92,-246.6 604.71,-243.09 613.68,-240.37"/>
<polygon fill="#63b8ff" stroke="#63b8ff" points="614.46,-243.78 623.21,-237.82 612.65,-237.02 614.46,-243.78"/>
</a>
</g>
</g>
<!-- Node35 -->
<g id="Node000035" class="node">
<title>Node35</title>
<g id="a_Node000035"><a xlink:href="espnow__storage_8c.html#ade9d20917bbd54b5748ef1651342c881" target="_top" xlink:title="Save the information with given key.">
<polygon fill="white" stroke="#666666" points="751,-282.25 624,-282.25 624,-260 751,-260 751,-282.25"/>
<text text-anchor="middle" x="687.5" y="-266.85" font-family="Arial" font-size="12.00">espnow_storage_set</text>
</a>
</g>
</g>
<!-- Node33&#45;&gt;Node35 -->
<g id="edge38_Node000033_Node000035" class="edge">
<title>Node33&#45;&gt;Node35</title>
<g id="a_edge38_Node000033_Node000035"><a xlink:title=" ">
<path fill="none" stroke="#63b8ff" d="M509.12,-300.35C541.04,-295.09 579.58,-288.74 612.57,-283.31"/>
<polygon fill="#63b8ff" stroke="#63b8ff" points="612.74,-286.83 622.03,-281.75 611.6,-279.92 612.74,-286.83"/>
</a>
</g>
</g>
<!-- Node36&#45;&gt;Node34 -->
<g id="edge40_Node000036_Node000034" class="edge">
<title>Node36&#45;&gt;Node34</title>
<g id="a_edge40_Node000036_Node000034"><a xlink:title=" ">
<path fill="none" stroke="#63b8ff" d="M496.12,-262.49C530.5,-256.83 575.94,-249.34 613.8,-243.1"/>
<polygon fill="#63b8ff" stroke="#63b8ff" points="613.98,-246.62 623.28,-241.54 612.85,-239.71 613.98,-246.62"/>
</a>
</g>
</g>
<!-- Node36&#45;&gt;Node35 -->
<g id="edge41_Node000036_Node000035" class="edge">
<title>Node36&#45;&gt;Node35</title>
<g id="a_edge41_Node000036_Node000035"><a xlink:title=" ">
<path fill="none" stroke="#63b8ff" d="M496.12,-271.12C530.1,-271.12 574.88,-271.12 612.48,-271.12"/>
<polygon fill="#63b8ff" stroke="#63b8ff" points="612.38,-274.63 622.38,-271.13 612.38,-267.63 612.38,-274.63"/>
</a>
</g>
</g>
<!-- Node40 -->
<g id="Node000040" class="node">
<title>Node40</title>
<g id="a_Node000040"><a xlink:href="espnow_8c.html#ab9e96f875511fcc24184f7b863ff8747" target="_top" xlink:title="When used for unicast, add the target device.">
<polygon fill="white" stroke="#666666" points="500.62,-122.25 384.88,-122.25 384.88,-100 500.62,-100 500.62,-122.25"/>
<text text-anchor="middle" x="442.75" y="-106.85" font-family="Arial" font-size="12.00">espnow_add_peer</text>
</a>
</g>
</g>
<!-- Node39&#45;&gt;Node40 -->
<g id="edge45_Node000039_Node000040" class="edge">
<title>Node39&#45;&gt;Node40</title>
<g id="a_edge45_Node000039_Node000040"><a xlink:title=" ">
<path fill="none" stroke="#63b8ff" d="M242,-165.53C259.37,-162.39 279.79,-157.73 297.5,-151.12 314.65,-144.73 316.27,-137.31 333.5,-131.12 346.15,-126.58 360.01,-123.03 373.47,-120.26"/>
<polygon fill="#63b8ff" stroke="#63b8ff" points="374,-123.72 383.16,-118.4 372.68,-116.84 374,-123.72"/>
</a>
</g>
</g>
<!-- Node41 -->
<g id="Node000041" class="node">
<title>Node41</title>
<g id="a_Node000041"><a xlink:href="espnow_8c.html#ae2e7d37b72ff59a530a9447bea4aa106" target="_top" xlink:title=" ">
<polygon fill="white" stroke="#666666" points="496.12,-82.25 389.38,-82.25 389.38,-60 496.12,-60 496.12,-82.25"/>
<text text-anchor="middle" x="442.75" y="-66.85" font-family="Arial" font-size="12.00">espnow_recv_cb</text>
</a>
</g>
</g>
<!-- Node39&#45;&gt;Node41 -->
<g id="edge46_Node000039_Node000041" class="edge">
<title>Node39&#45;&gt;Node41</title>
<g id="a_edge46_Node000039_Node000041"><a xlink:title=" ">
<path fill="none" stroke="#63b8ff" d="M241.83,-169.97C260.16,-167.74 281.42,-162.58 297.5,-151.12 322.83,-133.09 307.95,-108.85 333.5,-91.12 346.45,-82.14 362.29,-76.87 377.82,-73.85"/>
<polygon fill="#63b8ff" stroke="#63b8ff" points="378.22,-77.33 387.53,-72.27 377.1,-70.42 378.22,-77.33"/>
</a>
</g>
</g>
<!-- Node46 -->
<g id="Node000046" class="node">
<title>Node46</title>
<g id="a_Node000046"><a xlink:href="espnow__security_8c.html#accbf76d2b120ee4e43003ad1472c2b05" target="_top" xlink:title="Initialize the specified security info.">
<polygon fill="white" stroke="#666666" points="495.75,-202.25 389.75,-202.25 389.75,-180 495.75,-180 495.75,-202.25"/>
<text text-anchor="middle" x="442.75" y="-186.85" font-family="Arial" font-size="12.00">espnow_sec_init</text>
</a>
</g>
</g>
<!-- Node39&#45;&gt;Node46 -->
<g id="edge51_Node000039_Node000046" class="edge">
<title>Node39&#45;&gt;Node46</title>
<g id="a_edge51_Node000039_Node000046"><a xlink:title=" ">
<path fill="none" stroke="#63b8ff" d="M241.9,-174.43C278.96,-177.52 334.99,-182.21 378.3,-185.82"/>
<polygon fill="#63b8ff" stroke="#63b8ff" points="377.82,-189.3 388.08,-186.64 378.41,-182.32 377.82,-189.3"/>
</a>
</g>
</g>
<!-- Node47 -->
<g id="Node000047" class="node">
<title>Node47</title>
<g id="a_Node000047"><a xlink:href="espnow_8c.html#ae3d39a3c355f8c0a8297f76a28f7eaee" target="_top" xlink:title=" ">
<polygon fill="white" stroke="#666666" points="498,-162.25 387.5,-162.25 387.5,-140 498,-140 498,-162.25"/>
<text text-anchor="middle" x="442.75" y="-146.85" font-family="Arial" font-size="12.00">espnow_send_cb</text>
</a>
</g>
</g>
<!-- Node39&#45;&gt;Node47 -->
<g id="edge52_Node000039_Node000047" class="edge">
<title>Node39&#45;&gt;Node47</title>
<g id="a_edge52_Node000039_Node000047"><a xlink:title=" ">
<path fill="none" stroke="#63b8ff" d="M241.9,-167.82C278.35,-164.78 333.15,-160.2 376.16,-156.61"/>
<polygon fill="#63b8ff" stroke="#63b8ff" points="376.2,-160.11 385.87,-155.79 375.62,-153.14 376.2,-160.11"/>
</a>
</g>
</g>
<!-- Node42 -->
<g id="Node000042" class="node">
<title>Node42</title>
<g id="a_Node000042"><a xlink:href="espnow_8h.html#af0be4b97c8dad6c432c969e960110c1e" target="_top" xlink:title="Set group ID addresses.">
<polygon fill="white" stroke="#666666" points="748.75,-62.25 626.25,-62.25 626.25,-40 748.75,-40 748.75,-62.25"/>
<text text-anchor="middle" x="687.5" y="-46.85" font-family="Arial" font-size="12.00">espnow_add_group</text>
</a>
</g>
</g>
<!-- Node41&#45;&gt;Node42 -->
<g id="edge47_Node000041_Node000042" class="edge">
<title>Node41&#45;&gt;Node42</title>
<g id="a_edge47_Node000041_Node000042"><a xlink:title=" ">
<path fill="none" stroke="#63b8ff" d="M496.42,-66.79C531.07,-63.93 576.86,-60.16 614.81,-57.03"/>
<polygon fill="#63b8ff" stroke="#63b8ff" points="614.61,-60.56 624.29,-56.25 614.04,-53.58 614.61,-60.56"/>
</a>
</g>
</g>
<!-- Node43 -->
<g id="Node000043" class="node">
<title>Node43</title>
<g id="a_Node000043"><a xlink:href="espnow__group_8c.html#a875855b479ddb660719afebdc90b8b4d" target="_top" xlink:title="Delete group ID addresses.">
<polygon fill="white" stroke="#666666" points="746.88,-22.25 628.12,-22.25 628.12,0 746.88,0 746.88,-22.25"/>
<text text-anchor="middle" x="687.5" y="-6.85" font-family="Arial" font-size="12.00">espnow_del_group</text>
</a>
</g>
</g>
<!-- Node41&#45;&gt;Node43 -->
<g id="edge48_Node000041_Node000043" class="edge">
<title>Node41&#45;&gt;Node43</title>
<g id="a_edge48_Node000041_Node000043"><a xlink:title=" ">
<path fill="none" stroke="#63b8ff" d="M482.74,-59.51C511.66,-51.1 552.11,-39.73 588,-31.12 597.21,-28.92 606.94,-26.75 616.56,-24.7"/>
<polygon fill="#63b8ff" stroke="#63b8ff" points="617.2,-28.14 626.27,-22.66 615.77,-21.28 617.2,-28.14"/>
</a>
</g>
</g>
<!-- Node44 -->
<g id="Node000044" class="node">
<title>Node44</title>
<g id="a_Node000044"><a xlink:href="espnow__group_8c.html#aa7b993563fd6da0fb75573573733daa3" target="_top" xlink:title="Get the number of group ID addresses.">
<polygon fill="white" stroke="#666666" points="761.88,-142.25 613.12,-142.25 613.12,-120 761.88,-120 761.88,-142.25"/>
<text text-anchor="middle" x="687.5" y="-126.85" font-family="Arial" font-size="12.00">espnow_get_group_num</text>
</a>
</g>
</g>
<!-- Node41&#45;&gt;Node44 -->
<g id="edge49_Node000041_Node000044" class="edge">
<title>Node41&#45;&gt;Node44</title>
<g id="a_edge49_Node000041_Node000044"><a xlink:title=" ">
<path fill="none" stroke="#63b8ff" d="M496.41,-77.34C514.38,-80.38 534.37,-84.79 552,-91.12 569.23,-97.31 570.83,-104.79 588,-111.12 593.39,-113.11 599.02,-114.92 604.74,-116.56"/>
<polygon fill="#63b8ff" stroke="#63b8ff" points="603.78,-119.93 614.35,-119.13 605.59,-113.17 603.78,-119.93"/>
</a>
</g>
</g>
<!-- Node45 -->
<g id="Node000045" class="node">
<title>Node45</title>
<g id="a_Node000045"><a xlink:href="espnow__group_8c.html#af826ca7f397223b5075b39529f9ba115" target="_top" xlink:title="Check whether the specified group address is my group.">
<polygon fill="white" stroke="#666666" points="754.38,-102.25 620.62,-102.25 620.62,-80 754.38,-80 754.38,-102.25"/>
<text text-anchor="middle" x="687.5" y="-86.85" font-family="Arial" font-size="12.00">espnow_is_my_group</text>
</a>
</g>
</g>
<!-- Node41&#45;&gt;Node45 -->
<g id="edge50_Node000041_Node000045" class="edge">
<title>Node41&#45;&gt;Node45</title>
<g id="a_edge50_Node000041_Node000045"><a xlink:title=" ">
<path fill="none" stroke="#63b8ff" d="M496.42,-75.46C529.41,-78.18 572.48,-81.73 609.28,-84.76"/>
<polygon fill="#63b8ff" stroke="#63b8ff" points="608.72,-88.23 618.98,-85.56 609.3,-81.25 608.72,-88.23"/>
</a>
</g>
</g>
</g>
</svg>
