<?xml version="1.0" encoding="UTF-8" standalone="no"?>
<!DOCTYPE svg PUBLIC "-//W3C//DTD SVG 1.1//EN"
 "http://www.w3.org/Graphics/SVG/1.1/DTD/svg11.dtd">
<!-- Generated by graphviz version 12.2.1 (20241206.2353)
 -->
<!-- Title: main/drivers/ssd1306.cpp Pages: 1 -->
<!--zoomable 263 -->

<svg id="main" version="1.1" xmlns="http://www.w3.org/2000/svg" xmlns:xlink="http://www.w3.org/1999/xlink" xml:space="preserve" onload="init(evt)">

<style type="text/css"><![CDATA[
.node, .edge {opacity: 0.7;}
.node.selected, .edge.selected {opacity: 1;}
.edge:hover path { stroke: red; }
.edge:hover polygon { stroke: red; fill: red; }
]]></style>

<defs>
  <circle id="rim" cx="0" cy="0" r="7"/>
  <circle id="rim2" cx="0" cy="0" r="3.5"/>
  <g id="zoomPlus">
    <use xlink:href="#rim" fill="#404040"><set attributeName="fill" to="#808080" begin="zoomplus.mouseover" end="zoomplus.mouseout"/></use>
    <path d="M-4,0h8M0,-4v8" fill="none" stroke="white" stroke-width="1.5" pointer-events="none"/>
  </g>
  <g id="zoomMin">
    <use xlink:href="#rim" fill="#404040"><set attributeName="fill" to="#808080" begin="zoomminus.mouseover" end="zoomminus.mouseout"/></use>
    <path d="M-4,0h8" fill="none" stroke="white" stroke-width="1.5" pointer-events="none"/>
  </g>
  <g id="arrowUp" transform="translate(30 24)">
    <use xlink:href="#rim"/>
    <path pointer-events="none" fill="none" stroke="white" stroke-width="1.5" d="M0,-3.0v7 M-2.5,-0.5L0,-3.0L2.5,-0.5"/>
  </g>
  <g id="arrowRight" transform="rotate(90) translate(36 -43)">
    <use xlink:href="#rim"/>
    <path pointer-events="none" fill="none" stroke="white" stroke-width="1.5" d="M0,-3.0v7 M-2.5,-0.5L0,-3.0L2.5,-0.5"/>
  </g>
  <g id="arrowDown" transform="rotate(180) translate(-30 -48)">
    <use xlink:href="#rim"/>
    <path pointer-events="none" fill="none" stroke="white" stroke-width="1.5" d="M0,-3.0v7 M-2.5,-0.5L0,-3.0L2.5,-0.5"/>
  </g>
  <g id="arrowLeft" transform="rotate(270) translate(-36 17)">
    <use xlink:href="#rim"/>
    <path pointer-events="none" fill="none" stroke="white" stroke-width="1.5" d="M0,-3.0v7 M-2.5,-0.5L0,-3.0L2.5,-0.5"/>
  </g>
  <g id="resetDef">
    <use xlink:href="#rim2" fill="#404040"><set attributeName="fill" to="#808080" begin="reset.mouseover" end="reset.mouseout"/></use>
  </g>
</defs>
<script type="application/ecmascript">
var viewWidth = 2548;
var viewHeight = 263;
var sectionId = 'dynsection-0';
</script>
<script type="application/ecmascript" xlink:href="svg.min.js"/>
<svg id="graph" class="graph">
<g id="viewport">
<title>main/drivers/ssd1306.cpp</title>
<!-- Node1 -->
<g id="Node000001" class="node">
<title>Node1</title>
<g id="a_Node000001"><a xlink:title=" ">
<polygon fill="#999999" stroke="#666666" points="1406.88,-255.25 1254.38,-255.25 1254.38,-233 1406.88,-233 1406.88,-255.25"/>
<text text-anchor="middle" x="1330.62" y="-239.85" font-family="Arial" font-size="12.00">main/drivers/ssd1306.cpp</text>
</a>
</g>
</g>
<!-- Node2 -->
<g id="Node000002" class="node">
<title>Node2</title>
<g id="a_Node000002"><a xlink:href="ssd1306_8h.html" target="_top" xlink:title="Contains the code for ssd1306 display, setting it up, and writing text to it.">
<polygon fill="white" stroke="#666666" points="1302.88,-197 1132.38,-197 1132.38,-174.75 1302.88,-174.75 1302.88,-197"/>
<text text-anchor="middle" x="1217.62" y="-181.6" font-family="Arial" font-size="12.00">../../include/drivers/ssd1306.h</text>
</a>
</g>
</g>
<!-- Node1&#45;&gt;Node2 -->
<g id="edge1_Node000001_Node000002" class="edge">
<title>Node1&#45;&gt;Node2</title>
<g id="a_edge1_Node000001_Node000002"><a xlink:title=" ">
<path fill="none" stroke="#63b8ff" d="M1309.37,-232.54C1292.32,-224.06 1268.15,-212.03 1248.9,-202.44"/>
<polygon fill="#63b8ff" stroke="#63b8ff" points="1250.65,-199.41 1240.14,-198.08 1247.53,-205.67 1250.65,-199.41"/>
</a>
</g>
</g>
<!-- Node3 -->
<g id="Node000003" class="node">
<title>Node3</title>
<g id="a_Node000003"><a xlink:href="all__includes_8h.html" target="_top" xlink:title="Contains the system wide includes for esp&#45;idf and c++, along with structs and enums.">
<polygon fill="white" stroke="#666666" points="1267.25,-80.5 1168,-80.5 1168,-58.25 1267.25,-58.25 1267.25,-80.5"/>
<text text-anchor="middle" x="1217.62" y="-65.1" font-family="Arial" font-size="12.00">../all_includes.h</text>
</a>
</g>
</g>
<!-- Node1&#45;&gt;Node3 -->
<g id="edge32_Node000001_Node000003" class="edge">
<title>Node1&#45;&gt;Node3</title>
<g id="a_edge32_Node000001_Node000003"><a xlink:title=" ">
<path fill="none" stroke="#63b8ff" d="M1339.62,-232.56C1358.2,-209.39 1396.89,-153.27 1369.62,-116.5 1348.83,-88.46 1311.44,-76.87 1278.95,-72.32"/>
<polygon fill="#63b8ff" stroke="#63b8ff" points="1279.54,-68.87 1269.2,-71.17 1278.72,-75.82 1279.54,-68.87"/>
</a>
</g>
</g>
<!-- Node30 -->
<g id="Node000030" class="node">
<title>Node30</title>
<g id="a_Node000030"><a xlink:href="pinout_8h.html" target="_top" xlink:title="This is the file that contains the pinout and other configuration information.">
<polygon fill="white" stroke="#666666" points="1360.5,-138.75 1292.75,-138.75 1292.75,-116.5 1360.5,-116.5 1360.5,-138.75"/>
<text text-anchor="middle" x="1326.62" y="-123.35" font-family="Arial" font-size="12.00">../pinout.h</text>
</a>
</g>
</g>
<!-- Node1&#45;&gt;Node30 -->
<g id="edge33_Node000001_Node000030" class="edge">
<title>Node1&#45;&gt;Node30</title>
<g id="a_edge33_Node000001_Node000030"><a xlink:title=" ">
<path fill="none" stroke="#63b8ff" d="M1330.26,-232.56C1329.61,-213.98 1328.25,-175.12 1327.39,-150.54"/>
<polygon fill="#63b8ff" stroke="#63b8ff" points="1330.89,-150.55 1327.05,-140.68 1323.9,-150.79 1330.89,-150.55"/>
</a>
</g>
</g>
<!-- Node2&#45;&gt;Node3 -->
<g id="edge2_Node000002_Node000003" class="edge">
<title>Node2&#45;&gt;Node3</title>
<g id="a_edge2_Node000002_Node000003"><a xlink:title=" ">
<path fill="none" stroke="#63b8ff" d="M1192.17,-174.41C1177.43,-166.87 1160.15,-155.11 1151.62,-138.75 1140.7,-117.78 1162.69,-98.86 1184.16,-86.27"/>
<polygon fill="#63b8ff" stroke="#63b8ff" points="1185.78,-89.38 1192.87,-81.51 1182.42,-83.24 1185.78,-89.38"/>
</a>
</g>
</g>
<!-- Node2&#45;&gt;Node30 -->
<g id="edge29_Node000002_Node000030" class="edge">
<title>Node2&#45;&gt;Node30</title>
<g id="a_edge29_Node000002_Node000030"><a xlink:title=" ">
<path fill="none" stroke="#63b8ff" d="M1238.13,-174.29C1254.49,-165.85 1277.67,-153.89 1296.2,-144.33"/>
<polygon fill="#63b8ff" stroke="#63b8ff" points="1297.59,-147.55 1304.87,-139.85 1294.38,-141.33 1297.59,-147.55"/>
</a>
</g>
</g>
<!-- Node31 -->
<g id="Node000031" class="node">
<title>Node31</title>
<g id="a_Node000031"><a xlink:href="font_8h.html" target="_top" xlink:title="This file contains the class for the 12x16 font class.">
<polygon fill="white" stroke="#666666" points="1274.38,-138.75 1160.88,-138.75 1160.88,-116.5 1274.38,-116.5 1274.38,-138.75"/>
<text text-anchor="middle" x="1217.62" y="-123.35" font-family="Arial" font-size="12.00">../supporting/font.h</text>
</a>
</g>
</g>
<!-- Node2&#45;&gt;Node31 -->
<g id="edge30_Node000002_Node000031" class="edge">
<title>Node2&#45;&gt;Node31</title>
<g id="a_edge30_Node000002_Node000031"><a xlink:title=" ">
<path fill="none" stroke="#63b8ff" d="M1217.62,-174.29C1217.62,-167.62 1217.62,-158.74 1217.62,-150.59"/>
<polygon fill="#63b8ff" stroke="#63b8ff" points="1221.13,-150.67 1217.63,-140.67 1214.13,-150.67 1221.13,-150.67"/>
</a>
</g>
</g>
<!-- Node4 -->
<g id="Node000004" class="node">
<title>Node4</title>
<g id="a_Node000004"><a xlink:title=" ">
<polygon fill="#e0e0e0" stroke="#999999" points="51.25,-22.25 0,-22.25 0,0 51.25,0 51.25,-22.25"/>
<text text-anchor="middle" x="25.62" y="-6.85" font-family="Arial" font-size="12.00">atomic</text>
</a>
</g>
</g>
<!-- Node3&#45;&gt;Node4 -->
<g id="edge3_Node000003_Node000004" class="edge">
<title>Node3&#45;&gt;Node4</title>
<g id="a_edge3_Node000003_Node000004"><a xlink:title=" ">
<path fill="none" stroke="#63b8ff" d="M1167.71,-67.99C978.01,-66.28 300.96,-57.87 62.8,-22.13"/>
<polygon fill="#63b8ff" stroke="#63b8ff" points="63.38,-18.68 52.95,-20.59 62.29,-25.59 63.38,-18.68"/>
</a>
</g>
</g>
<!-- Node5 -->
<g id="Node000005" class="node">
<title>Node5</title>
<g id="a_Node000005"><a xlink:title=" ">
<polygon fill="#e0e0e0" stroke="#999999" points="134,-22.25 69.25,-22.25 69.25,0 134,0 134,-22.25"/>
<text text-anchor="middle" x="101.62" y="-6.85" font-family="Arial" font-size="12.00">stdbool.h</text>
</a>
</g>
</g>
<!-- Node3&#45;&gt;Node5 -->
<g id="edge4_Node000003_Node000005" class="edge">
<title>Node3&#45;&gt;Node5</title>
<g id="a_edge4_Node000003_Node000005"><a xlink:title=" ">
<path fill="none" stroke="#63b8ff" d="M1167.56,-67.55C986.62,-64.37 366.12,-51.64 145.33,-22.33"/>
<polygon fill="#63b8ff" stroke="#63b8ff" points="146.07,-18.9 135.68,-20.99 145.11,-25.83 146.07,-18.9"/>
</a>
</g>
</g>
<!-- Node6 -->
<g id="Node000006" class="node">
<title>Node6</title>
<g id="a_Node000006"><a xlink:title=" ">
<polygon fill="#e0e0e0" stroke="#999999" points="203.25,-22.25 152,-22.25 152,0 203.25,0 203.25,-22.25"/>
<text text-anchor="middle" x="177.62" y="-6.85" font-family="Arial" font-size="12.00">stdio.h</text>
</a>
</g>
</g>
<!-- Node3&#45;&gt;Node6 -->
<g id="edge5_Node000003_Node000006" class="edge">
<title>Node3&#45;&gt;Node6</title>
<g id="a_edge5_Node000003_Node000006"><a xlink:title=" ">
<path fill="none" stroke="#63b8ff" d="M1167.72,-67.69C994.72,-65.08 420.52,-54.31 214.73,-22.36"/>
<polygon fill="#63b8ff" stroke="#63b8ff" points="215.39,-18.92 204.95,-20.77 214.26,-25.83 215.39,-18.92"/>
</a>
</g>
</g>
<!-- Node7 -->
<g id="Node000007" class="node">
<title>Node7</title>
<g id="a_Node000007"><a xlink:title=" ">
<polygon fill="#e0e0e0" stroke="#999999" points="276.12,-22.25 221.12,-22.25 221.12,0 276.12,0 276.12,-22.25"/>
<text text-anchor="middle" x="248.62" y="-6.85" font-family="Arial" font-size="12.00">string.h</text>
</a>
</g>
</g>
<!-- Node3&#45;&gt;Node7 -->
<g id="edge6_Node000003_Node000007" class="edge">
<title>Node3&#45;&gt;Node7</title>
<g id="a_edge6_Node000003_Node000007"><a xlink:title=" ">
<path fill="none" stroke="#63b8ff" d="M1167.62,-67.38C1003.07,-63.9 478.57,-50.92 287.67,-22.37"/>
<polygon fill="#63b8ff" stroke="#63b8ff" points="288.31,-18.93 277.89,-20.84 287.23,-25.84 288.31,-18.93"/>
</a>
</g>
</g>
<!-- Node8 -->
<g id="Node000008" class="node">
<title>Node8</title>
<g id="a_Node000008"><a xlink:title=" ">
<polygon fill="#e0e0e0" stroke="#999999" points="339.25,-22.25 294,-22.25 294,0 339.25,0 339.25,-22.25"/>
<text text-anchor="middle" x="316.62" y="-6.85" font-family="Arial" font-size="12.00">string</text>
</a>
</g>
</g>
<!-- Node3&#45;&gt;Node8 -->
<g id="edge7_Node000003_Node000008" class="edge">
<title>Node3&#45;&gt;Node8</title>
<g id="a_edge7_Node000003_Node000008"><a xlink:title=" ">
<path fill="none" stroke="#63b8ff" d="M1167.62,-67.45C1010.64,-64.27 527.98,-52.42 350.7,-22.34"/>
<polygon fill="#63b8ff" stroke="#63b8ff" points="351.42,-18.91 340.96,-20.6 350.19,-25.8 351.42,-18.91"/>
</a>
</g>
</g>
<!-- Node9 -->
<g id="Node000009" class="node">
<title>Node9</title>
<g id="a_Node000009"><a xlink:title=" ">
<polygon fill="#e0e0e0" stroke="#999999" points="482.38,-22.25 356.88,-22.25 356.88,0 482.38,0 482.38,-22.25"/>
<text text-anchor="middle" x="419.62" y="-6.85" font-family="Arial" font-size="12.00">freertos/FreeRTOS.h</text>
</a>
</g>
</g>
<!-- Node3&#45;&gt;Node9 -->
<g id="edge8_Node000003_Node000009" class="edge">
<title>Node3&#45;&gt;Node9</title>
<g id="a_edge8_Node000003_Node000009"><a xlink:title=" ">
<path fill="none" stroke="#63b8ff" d="M1167.71,-66.56C1051.39,-62.03 753.05,-48.74 493.84,-22.52"/>
<polygon fill="#63b8ff" stroke="#63b8ff" points="494.5,-19.07 484.2,-21.53 493.79,-26.03 494.5,-19.07"/>
</a>
</g>
</g>
<!-- Node10 -->
<g id="Node000010" class="node">
<title>Node10</title>
<g id="a_Node000010"><a xlink:title=" ">
<polygon fill="#e0e0e0" stroke="#999999" points="641.25,-22.25 500,-22.25 500,0 641.25,0 641.25,-22.25"/>
<text text-anchor="middle" x="570.62" y="-6.85" font-family="Arial" font-size="12.00">freertos/event_groups.h</text>
</a>
</g>
</g>
<!-- Node3&#45;&gt;Node10 -->
<g id="edge9_Node000003_Node000010" class="edge">
<title>Node3&#45;&gt;Node10</title>
<g id="a_edge9_Node000003_Node000010"><a xlink:title=" ">
<path fill="none" stroke="#63b8ff" d="M1167.88,-65.08C1071.02,-58.5 850.07,-42.69 653.15,-22.47"/>
<polygon fill="#63b8ff" stroke="#63b8ff" points="653.52,-18.99 643.21,-21.44 652.8,-25.95 653.52,-18.99"/>
</a>
</g>
</g>
<!-- Node11 -->
<g id="Node000011" class="node">
<title>Node11</title>
<g id="a_Node000011"><a xlink:title=" ">
<polygon fill="#e0e0e0" stroke="#999999" points="761.75,-22.25 659.5,-22.25 659.5,0 761.75,0 761.75,-22.25"/>
<text text-anchor="middle" x="710.62" y="-6.85" font-family="Arial" font-size="12.00">freertos/queue.h</text>
</a>
</g>
</g>
<!-- Node3&#45;&gt;Node11 -->
<g id="edge10_Node000003_Node000011" class="edge">
<title>Node3&#45;&gt;Node11</title>
<g id="a_edge10_Node000003_Node000011"><a xlink:title=" ">
<path fill="none" stroke="#63b8ff" d="M1167.56,-64.27C1086.79,-57.41 922.5,-42.51 773.16,-22.52"/>
<polygon fill="#63b8ff" stroke="#63b8ff" points="773.86,-19.09 763.48,-21.22 772.92,-26.02 773.86,-19.09"/>
</a>
</g>
</g>
<!-- Node12 -->
<g id="Node000012" class="node">
<title>Node12</title>
<g id="a_Node000012"><a xlink:title=" ">
<polygon fill="#e0e0e0" stroke="#999999" points="869.75,-22.25 779.5,-22.25 779.5,0 869.75,0 869.75,-22.25"/>
<text text-anchor="middle" x="824.62" y="-6.85" font-family="Arial" font-size="12.00">freertos/task.h</text>
</a>
</g>
</g>
<!-- Node3&#45;&gt;Node12 -->
<g id="edge11_Node000003_Node000012" class="edge">
<title>Node3&#45;&gt;Node12</title>
<g id="a_edge11_Node000003_Node000012"><a xlink:title=" ">
<path fill="none" stroke="#63b8ff" d="M1167.54,-62.36C1103.48,-54.48 988.87,-39.81 881.05,-22.58"/>
<polygon fill="#63b8ff" stroke="#63b8ff" points="881.89,-19.17 871.46,-21.04 880.78,-26.08 881.89,-19.17"/>
</a>
</g>
</g>
<!-- Node13 -->
<g id="Node000013" class="node">
<title>Node13</title>
<g id="a_Node000013"><a xlink:title=" ">
<polygon fill="#e0e0e0" stroke="#999999" points="941.38,-22.25 887.88,-22.25 887.88,0 941.38,0 941.38,-22.25"/>
<text text-anchor="middle" x="914.62" y="-6.85" font-family="Arial" font-size="12.00">errno.h</text>
</a>
</g>
</g>
<!-- Node3&#45;&gt;Node13 -->
<g id="edge12_Node000003_Node000013" class="edge">
<title>Node3&#45;&gt;Node13</title>
<g id="a_edge12_Node000003_Node000013"><a xlink:title=" ">
<path fill="none" stroke="#63b8ff" d="M1167.62,-61.31C1116.06,-53.68 1033.15,-40.43 952.52,-22.5"/>
<polygon fill="#63b8ff" stroke="#63b8ff" points="953.68,-19.17 943.15,-20.39 952.14,-26 953.68,-19.17"/>
</a>
</g>
</g>
<!-- Node14 -->
<g id="Node000014" class="node">
<title>Node14</title>
<g id="a_Node000014"><a xlink:title=" ">
<polygon fill="#e0e0e0" stroke="#999999" points="1025.38,-22.25 959.88,-22.25 959.88,0 1025.38,0 1025.38,-22.25"/>
<text text-anchor="middle" x="992.62" y="-6.85" font-family="Arial" font-size="12.00">esp_err.h</text>
</a>
</g>
</g>
<!-- Node3&#45;&gt;Node14 -->
<g id="edge13_Node000003_Node000014" class="edge">
<title>Node3&#45;&gt;Node14</title>
<g id="a_edge13_Node000003_Node000014"><a xlink:title=" ">
<path fill="none" stroke="#63b8ff" d="M1175.3,-57.79C1135.71,-47.9 1076.81,-33.17 1036.67,-23.14"/>
<polygon fill="#63b8ff" stroke="#63b8ff" points="1037.64,-19.77 1027.09,-20.74 1035.94,-26.56 1037.64,-19.77"/>
</a>
</g>
</g>
<!-- Node15 -->
<g id="Node000015" class="node">
<title>Node15</title>
<g id="a_Node000015"><a xlink:title=" ">
<polygon fill="#e0e0e0" stroke="#999999" points="1111.88,-22.25 1043.38,-22.25 1043.38,0 1111.88,0 1111.88,-22.25"/>
<text text-anchor="middle" x="1077.62" y="-6.85" font-family="Arial" font-size="12.00">esp_log.h</text>
</a>
</g>
</g>
<!-- Node3&#45;&gt;Node15 -->
<g id="edge14_Node000003_Node000015" class="edge">
<title>Node3&#45;&gt;Node15</title>
<g id="a_edge14_Node000003_Node000015"><a xlink:title=" ">
<path fill="none" stroke="#63b8ff" d="M1191.29,-57.79C1169.59,-49.07 1138.55,-36.61 1114.4,-26.9"/>
<polygon fill="#63b8ff" stroke="#63b8ff" points="1115.83,-23.7 1105.24,-23.22 1113.22,-30.2 1115.83,-23.7"/>
</a>
</g>
</g>
<!-- Node16 -->
<g id="Node000016" class="node">
<title>Node16</title>
<g id="a_Node000016"><a xlink:title=" ">
<polygon fill="#e0e0e0" stroke="#999999" points="1204.88,-22.25 1130.38,-22.25 1130.38,0 1204.88,0 1204.88,-22.25"/>
<text text-anchor="middle" x="1167.62" y="-6.85" font-family="Arial" font-size="12.00">esp_mac.h</text>
</a>
</g>
</g>
<!-- Node3&#45;&gt;Node16 -->
<g id="edge15_Node000003_Node000016" class="edge">
<title>Node3&#45;&gt;Node16</title>
<g id="a_edge15_Node000003_Node000016"><a xlink:title=" ">
<path fill="none" stroke="#63b8ff" d="M1208.22,-57.79C1201.59,-50.33 1192.51,-40.12 1184.62,-31.25"/>
<polygon fill="#63b8ff" stroke="#63b8ff" points="1187.25,-28.94 1177.99,-23.79 1182.02,-33.59 1187.25,-28.94"/>
</a>
</g>
</g>
<!-- Node17 -->
<g id="Node000017" class="node">
<title>Node17</title>
<g id="a_Node000017"><a xlink:title=" ">
<polygon fill="#e0e0e0" stroke="#999999" points="1312.38,-22.25 1222.88,-22.25 1222.88,0 1312.38,0 1312.38,-22.25"/>
<text text-anchor="middle" x="1267.62" y="-6.85" font-family="Arial" font-size="12.00">esp_system.h</text>
</a>
</g>
</g>
<!-- Node3&#45;&gt;Node17 -->
<g id="edge16_Node000003_Node000017" class="edge">
<title>Node3&#45;&gt;Node17</title>
<g id="a_edge16_Node000003_Node000017"><a xlink:title=" ">
<path fill="none" stroke="#63b8ff" d="M1227.03,-57.79C1233.66,-50.33 1242.74,-40.12 1250.63,-31.25"/>
<polygon fill="#63b8ff" stroke="#63b8ff" points="1253.23,-33.59 1257.26,-23.79 1248,-28.94 1253.23,-33.59"/>
</a>
</g>
</g>
<!-- Node18 -->
<g id="Node000018" class="node">
<title>Node18</title>
<g id="a_Node000018"><a xlink:title=" ">
<polygon fill="#e0e0e0" stroke="#999999" points="1408.38,-22.25 1330.88,-22.25 1330.88,0 1408.38,0 1408.38,-22.25"/>
<text text-anchor="middle" x="1369.62" y="-6.85" font-family="Arial" font-size="12.00">esp_timer.h</text>
</a>
</g>
</g>
<!-- Node3&#45;&gt;Node18 -->
<g id="edge17_Node000003_Node000018" class="edge">
<title>Node3&#45;&gt;Node18</title>
<g id="a_edge17_Node000003_Node000018"><a xlink:title=" ">
<path fill="none" stroke="#63b8ff" d="M1246.22,-57.79C1269.99,-49 1304.08,-36.38 1330.41,-26.64"/>
<polygon fill="#63b8ff" stroke="#63b8ff" points="1331.58,-29.94 1339.74,-23.18 1329.15,-23.37 1331.58,-29.94"/>
</a>
</g>
</g>
<!-- Node19 -->
<g id="Node000019" class="node">
<title>Node19</title>
<g id="a_Node000019"><a xlink:title=" ">
<polygon fill="#e0e0e0" stroke="#999999" points="1494.5,-22.25 1426.75,-22.25 1426.75,0 1494.5,0 1494.5,-22.25"/>
<text text-anchor="middle" x="1460.62" y="-6.85" font-family="Arial" font-size="12.00">esp_crc.h</text>
</a>
</g>
</g>
<!-- Node3&#45;&gt;Node19 -->
<g id="edge18_Node000003_Node000019" class="edge">
<title>Node3&#45;&gt;Node19</title>
<g id="a_edge18_Node000003_Node000019"><a xlink:title=" ">
<path fill="none" stroke="#63b8ff" d="M1263.71,-57.81C1301.8,-49.06 1357.61,-36.22 1415.21,-22.81"/>
<polygon fill="#63b8ff" stroke="#63b8ff" points="1415.94,-26.23 1424.89,-20.55 1414.35,-19.41 1415.94,-26.23"/>
</a>
</g>
</g>
<!-- Node20 -->
<g id="Node000020" class="node">
<title>Node20</title>
<g id="a_Node000020"><a xlink:title=" ">
<polygon fill="#e0e0e0" stroke="#999999" points="1586.88,-22.25 1512.38,-22.25 1512.38,0 1586.88,0 1586.88,-22.25"/>
<text text-anchor="middle" x="1549.62" y="-6.85" font-family="Arial" font-size="12.00">esp_netif.h</text>
</a>
</g>
</g>
<!-- Node3&#45;&gt;Node20 -->
<g id="edge19_Node000003_Node000020" class="edge">
<title>Node3&#45;&gt;Node20</title>
<g id="a_edge19_Node000003_Node000020"><a xlink:title=" ">
<path fill="none" stroke="#63b8ff" d="M1267.63,-61.19C1322.49,-53.11 1413.4,-39.15 1500.81,-22.71"/>
<polygon fill="#63b8ff" stroke="#63b8ff" points="1501.35,-26.17 1510.52,-20.87 1500.04,-19.29 1501.35,-26.17"/>
</a>
</g>
</g>
<!-- Node21 -->
<g id="Node000021" class="node">
<title>Node21</title>
<g id="a_Node000021"><a xlink:title=" ">
<polygon fill="#e0e0e0" stroke="#999999" points="1674.62,-22.25 1604.62,-22.25 1604.62,0 1674.62,0 1674.62,-22.25"/>
<text text-anchor="middle" x="1639.62" y="-6.85" font-family="Arial" font-size="12.00">esp_wifi.h</text>
</a>
</g>
</g>
<!-- Node3&#45;&gt;Node21 -->
<g id="edge20_Node000003_Node000021" class="edge">
<title>Node3&#45;&gt;Node21</title>
<g id="a_edge20_Node000003_Node000021"><a xlink:title=" ">
<path fill="none" stroke="#63b8ff" d="M1267.71,-63.95C1338.19,-57.35 1470.84,-43.58 1593.11,-22.55"/>
<polygon fill="#63b8ff" stroke="#63b8ff" points="1593.41,-26.05 1602.66,-20.88 1592.2,-19.15 1593.41,-26.05"/>
</a>
</g>
</g>
<!-- Node22 -->
<g id="Node000022" class="node">
<title>Node22</title>
<g id="a_Node000022"><a xlink:title=" ">
<polygon fill="#e0e0e0" stroke="#999999" points="1760.12,-22.25 1693.12,-22.25 1693.12,0 1760.12,0 1760.12,-22.25"/>
<text text-anchor="middle" x="1726.62" y="-6.85" font-family="Arial" font-size="12.00">espnow.h</text>
</a>
</g>
</g>
<!-- Node3&#45;&gt;Node22 -->
<g id="edge21_Node000003_Node000022" class="edge">
<title>Node3&#45;&gt;Node22</title>
<g id="a_edge21_Node000003_Node000022"><a xlink:title=" ">
<path fill="none" stroke="#63b8ff" d="M1267.57,-65.61C1351.17,-60.51 1524.87,-47.89 1681.65,-22.37"/>
<polygon fill="#63b8ff" stroke="#63b8ff" points="1682.12,-25.84 1691.42,-20.76 1680.98,-18.93 1682.12,-25.84"/>
</a>
</g>
</g>
<!-- Node23 -->
<g id="Node000023" class="node">
<title>Node23</title>
<g id="a_Node000023"><a xlink:title=" ">
<polygon fill="#e0e0e0" stroke="#999999" points="1868.75,-22.25 1778.5,-22.25 1778.5,0 1868.75,0 1868.75,-22.25"/>
<text text-anchor="middle" x="1823.62" y="-6.85" font-family="Arial" font-size="12.00">espnow_ctrl.h</text>
</a>
</g>
</g>
<!-- Node3&#45;&gt;Node23 -->
<g id="edge22_Node000003_Node000023" class="edge">
<title>Node3&#45;&gt;Node23</title>
<g id="a_edge22_Node000003_Node000023"><a xlink:title=" ">
<path fill="none" stroke="#63b8ff" d="M1267.67,-65.91C1362.89,-60.84 1576.88,-47.67 1766.7,-22.53"/>
<polygon fill="#63b8ff" stroke="#63b8ff" points="1767.07,-26.01 1776.51,-21.22 1766.14,-19.08 1767.07,-26.01"/>
</a>
</g>
</g>
<!-- Node24 -->
<g id="Node000024" class="node">
<title>Node24</title>
<g id="a_Node000024"><a xlink:title=" ">
<polygon fill="#e0e0e0" stroke="#999999" points="1982.75,-22.25 1886.5,-22.25 1886.5,0 1982.75,0 1982.75,-22.25"/>
<text text-anchor="middle" x="1934.62" y="-6.85" font-family="Arial" font-size="12.00">espnow_utils.h</text>
</a>
</g>
</g>
<!-- Node3&#45;&gt;Node24 -->
<g id="edge23_Node000003_Node000024" class="edge">
<title>Node3&#45;&gt;Node24</title>
<g id="a_edge23_Node000003_Node000024"><a xlink:title=" ">
<path fill="none" stroke="#63b8ff" d="M1267.47,-66.7C1376.01,-62.65 1642.01,-50.64 1874.76,-22.49"/>
<polygon fill="#63b8ff" stroke="#63b8ff" points="1875.16,-25.97 1884.67,-21.28 1874.31,-19.02 1875.16,-25.97"/>
</a>
</g>
</g>
<!-- Node25 -->
<g id="Node000025" class="node">
<title>Node25</title>
<g id="a_Node000025"><a xlink:title=" ">
<polygon fill="#e0e0e0" stroke="#999999" points="2078,-22.25 2001.25,-22.25 2001.25,0 2078,0 2078,-22.25"/>
<text text-anchor="middle" x="2039.62" y="-6.85" font-family="Arial" font-size="12.00">nvs_flash.h</text>
</a>
</g>
</g>
<!-- Node3&#45;&gt;Node25 -->
<g id="edge24_Node000003_Node000025" class="edge">
<title>Node3&#45;&gt;Node25</title>
<g id="a_edge24_Node000003_Node000025"><a xlink:title=" ">
<path fill="none" stroke="#63b8ff" d="M1267.68,-67.96C1389.55,-66.4 1711.49,-58.97 1989.81,-22.29"/>
<polygon fill="#63b8ff" stroke="#63b8ff" points="1989.99,-25.79 1999.44,-21 1989.06,-18.85 1989.99,-25.79"/>
</a>
</g>
</g>
<!-- Node26 -->
<g id="Node000026" class="node">
<title>Node26</title>
<g id="a_Node000026"><a xlink:title=" ">
<polygon fill="#e0e0e0" stroke="#999999" points="2189.62,-22.25 2095.62,-22.25 2095.62,0 2189.62,0 2189.62,-22.25"/>
<text text-anchor="middle" x="2142.62" y="-6.85" font-family="Arial" font-size="12.00">usb/hid_host.h</text>
</a>
</g>
</g>
<!-- Node3&#45;&gt;Node26 -->
<g id="edge25_Node000003_Node000026" class="edge">
<title>Node3&#45;&gt;Node26</title>
<g id="a_edge25_Node000003_Node000026"><a xlink:title=" ">
<path fill="none" stroke="#63b8ff" d="M1267.29,-67.92C1398.89,-66.26 1767.59,-58.57 2084.09,-22.41"/>
<polygon fill="#63b8ff" stroke="#63b8ff" points="2084.3,-25.91 2093.83,-21.28 2083.49,-18.95 2084.3,-25.91"/>
</a>
</g>
</g>
<!-- Node27 -->
<g id="Node000027" class="node">
<title>Node27</title>
<g id="a_Node000027"><a xlink:title=" ">
<polygon fill="#e0e0e0" stroke="#999999" points="2305.12,-22.25 2208.12,-22.25 2208.12,0 2305.12,0 2305.12,-22.25"/>
<text text-anchor="middle" x="2256.62" y="-6.85" font-family="Arial" font-size="12.00">usb/usb_host.h</text>
</a>
</g>
</g>
<!-- Node3&#45;&gt;Node27 -->
<g id="edge26_Node000003_Node000027" class="edge">
<title>Node3&#45;&gt;Node27</title>
<g id="a_edge26_Node000003_Node000027"><a xlink:title=" ">
<path fill="none" stroke="#63b8ff" d="M1267.57,-68.24C1410.66,-67.39 1834.56,-61.57 2196.41,-22.35"/>
<polygon fill="#63b8ff" stroke="#63b8ff" points="2196.58,-25.86 2206.13,-21.29 2195.81,-18.9 2196.58,-25.86"/>
</a>
</g>
</g>
<!-- Node28 -->
<g id="Node000028" class="node">
<title>Node28</title>
<g id="a_Node000028"><a xlink:title=" ">
<polygon fill="#e0e0e0" stroke="#999999" points="2405.62,-22.25 2323.62,-22.25 2323.62,0 2405.62,0 2405.62,-22.25"/>
<text text-anchor="middle" x="2364.62" y="-6.85" font-family="Arial" font-size="12.00">driver/gpio.h</text>
</a>
</g>
</g>
<!-- Node3&#45;&gt;Node28 -->
<g id="edge27_Node000003_Node000028" class="edge">
<title>Node3&#45;&gt;Node28</title>
<g id="a_edge27_Node000003_Node000028"><a xlink:title=" ">
<path fill="none" stroke="#63b8ff" d="M1267.72,-67.32C1450.97,-63.3 2085.57,-47.92 2311.81,-22.37"/>
<polygon fill="#63b8ff" stroke="#63b8ff" points="2312.21,-25.85 2321.73,-21.21 2311.39,-18.9 2312.21,-25.85"/>
</a>
</g>
</g>
<!-- Node29 -->
<g id="Node000029" class="node">
<title>Node29</title>
<g id="a_Node000029"><a xlink:title=" ">
<polygon fill="#e0e0e0" stroke="#999999" points="2539.88,-22.25 2423.38,-22.25 2423.38,0 2539.88,0 2539.88,-22.25"/>
<text text-anchor="middle" x="2481.62" y="-6.85" font-family="Arial" font-size="12.00">driver/i2c_master.h</text>
</a>
</g>
</g>
<!-- Node3&#45;&gt;Node29 -->
<g id="edge28_Node000003_Node000029" class="edge">
<title>Node3&#45;&gt;Node29</title>
<g id="a_edge28_Node000003_Node000029"><a xlink:title=" ">
<path fill="none" stroke="#63b8ff" d="M1267.64,-68.44C1430.79,-68.23 1962.37,-64.23 2411.94,-22.4"/>
<polygon fill="#63b8ff" stroke="#63b8ff" points="2412.07,-25.91 2421.7,-21.49 2411.42,-18.94 2412.07,-25.91"/>
</a>
</g>
</g>
<!-- Node31&#45;&gt;Node3 -->
<g id="edge31_Node000031_Node000003" class="edge">
<title>Node31&#45;&gt;Node3</title>
<g id="a_edge31_Node000031_Node000003"><a xlink:title=" ">
<path fill="none" stroke="#63b8ff" d="M1217.62,-116.04C1217.62,-109.37 1217.62,-100.49 1217.62,-92.34"/>
<polygon fill="#63b8ff" stroke="#63b8ff" points="1221.13,-92.42 1217.63,-82.42 1214.13,-92.42 1221.13,-92.42"/>
</a>
</g>
</g>
</g>
</svg>

<g id="navigator" transform="translate(0 0)" fill="#404254">
  <rect fill="#f2f5e9" fill-opacity="0.5" stroke="#606060" stroke-width=".5" x="0" y="0" width="60" height="60"/>
  <use id="zoomplus" xlink:href="#zoomPlus" x="17" y="9" onmousedown="handleZoom(evt,'in')"/>
  <use id="zoomminus" xlink:href="#zoomMin" x="42" y="9" onmousedown="handleZoom(evt,'out')"/>
  <use id="reset" xlink:href="#resetDef" x="30" y="36" onmousedown="handleReset()"/>
   <use id="arrowup" xlink:href="#arrowUp" x="0" y="0" onmousedown="handlePan(0,-1)"/>
  <use id="arrowright" xlink:href="#arrowRight" x="0" y="0" onmousedown="handlePan(1,0)"/>
  <use id="arrowdown" xlink:href="#arrowDown" x="0" y="0" onmousedown="handlePan(0,1)"/>
  <use id="arrowleft" xlink:href="#arrowLeft" x="0" y="0" onmousedown="handlePan(-1,0)"/>
</g>
<svg viewBox="0 0 15 15" width="100%" height="30px" preserveAspectRatio="xMaxYMin meet">
 <g id="arrow_out" transform="scale(0.3 0.3)">
  <a xlink:href="ssd1306_8cpp__incl_org.svg" target="_base">
   <rect id="button" ry="5" rx="5" y="6" x="6" height="38" width="38"
        fill="#f2f5e9" fill-opacity="0.5" stroke="#606060" stroke-width="1.0"/>
   <path id="arrow"
     d="M 11.500037,31.436501 C 11.940474,20.09759 22.043105,11.32322 32.158766,21.979434 L 37.068811,17.246167 C 37.068811,17.246167 37.088388,32 37.088388,32 L 22.160133,31.978069 C 22.160133,31.978069 26.997745,27.140456 26.997745,27.140456 C 18.528582,18.264221 13.291696,25.230495 11.500037,31.436501 z"
     style="fill:#404040;"/>
  </a>
 </g>
</svg>

<style type='text/css'>
<![CDATA[
[data-mouse-over-selected='false'] { opacity: 0.7; }
[data-mouse-over-selected='true']  { opacity: 1.0; }
]]>
</style>
<script type="application/ecmascript"><![CDATA[
document.addEventListener('DOMContentLoaded', (event) => {
  highlightEdges();
  highlightAdjacentNodes();
});
]]></script>
</svg>
