<?xml version="1.0" encoding="UTF-8" standalone="no"?>
<!DOCTYPE svg PUBLIC "-//W3C//DTD SVG 1.1//EN"
 "http://www.w3.org/Graphics/SVG/1.1/DTD/svg11.dtd">
<!-- Generated by graphviz version 12.2.1 (20241206.2353)
 -->
<!-- Title: include/drivers/ssd1306.h Pages: 1 -->
<svg width="696pt" height="263pt"
 viewBox="0.00 0.00 696.25 263.25" xmlns="http://www.w3.org/2000/svg" xmlns:xlink="http://www.w3.org/1999/xlink">
<g id="graph0" class="graph" transform="scale(1 1) rotate(0) translate(4 259.25)">
<title>include/drivers/ssd1306.h</title>
<!-- Node1 -->
<g id="Node000001" class="node">
<title>Node1</title>
<g id="a_Node000001"><a xlink:title="Contains the code for ssd1306 display, setting it up, and writing text to it.">
<polygon fill="#999999" stroke="#666666" points="474.25,-255.25 321.75,-255.25 321.75,-233 474.25,-233 474.25,-255.25"/>
<text text-anchor="middle" x="398" y="-239.85" font-family="Arial" font-size="12.00">include/drivers/ssd1306.h</text>
</a>
</g>
</g>
<!-- Node2 -->
<g id="Node000002" class="node">
<title>Node2</title>
<g id="a_Node000002"><a xlink:href="menus_8h.html" target="_top" xlink:title="This is the file that contains the class for menus.">
<polygon fill="white" stroke="#666666" points="369.5,-197 206.5,-197 206.5,-174.75 369.5,-174.75 369.5,-197"/>
<text text-anchor="middle" x="288" y="-181.6" font-family="Arial" font-size="12.00">include/supporting/menus.h</text>
</a>
</g>
</g>
<!-- Node1&#45;&gt;Node2 -->
<g id="edge1_Node000001_Node000002" class="edge">
<title>Node1&#45;&gt;Node2</title>
<g id="a_edge1_Node000001_Node000002"><a xlink:title=" ">
<path fill="none" stroke="#63b8ff" d="M367.19,-227.37C348.47,-217.8 325.09,-205.84 308.6,-197.41"/>
<polygon fill="#63b8ff" stroke="#63b8ff" points="365.47,-230.42 375.96,-231.86 368.65,-224.19 365.47,-230.42"/>
</a>
</g>
</g>
<!-- Node4 -->
<g id="Node000004" class="node">
<title>Node4</title>
<g id="a_Node000004"><a xlink:href="display__task_8h.html" target="_top" xlink:title="This is the file that contains the display task.">
<polygon fill="white" stroke="#666666" points="480.62,-80.5 315.38,-80.5 315.38,-58.25 480.62,-58.25 480.62,-80.5"/>
<text text-anchor="middle" x="398" y="-65.1" font-family="Arial" font-size="12.00">include/tasks/display_task.h</text>
</a>
</g>
</g>
<!-- Node1&#45;&gt;Node4 -->
<g id="edge11_Node000001_Node000004" class="edge">
<title>Node1&#45;&gt;Node4</title>
<g id="a_edge11_Node000001_Node000004"><a xlink:title=" ">
<path fill="none" stroke="#63b8ff" d="M425.08,-226.55C460.23,-202.86 514.26,-157.62 489,-116.5 478.25,-98.99 458.55,-87.88 440.23,-80.96"/>
<polygon fill="#63b8ff" stroke="#63b8ff" points="423.47,-223.42 417.01,-231.82 427.3,-229.28 423.47,-223.42"/>
</a>
</g>
</g>
<!-- Node5 -->
<g id="Node000005" class="node">
<title>Node5</title>
<g id="a_Node000005"><a xlink:href="main_8cpp.html" target="_top" xlink:title="This is the file that contains the main function and all other tasks for the robot controller.">
<polygon fill="white" stroke="#666666" points="94,-22.25 0,-22.25 0,0 94,0 94,-22.25"/>
<text text-anchor="middle" x="47" y="-6.85" font-family="Arial" font-size="12.00">main/main.cpp</text>
</a>
</g>
</g>
<!-- Node1&#45;&gt;Node5 -->
<g id="edge13_Node000001_Node000005" class="edge">
<title>Node1&#45;&gt;Node5</title>
<g id="a_edge13_Node000001_Node000005"><a xlink:title=" ">
<path fill="none" stroke="#63b8ff" d="M313.11,-230.67C216.13,-214.52 66.37,-183.08 32,-138.75 4.87,-103.76 29.29,-46.16 41.27,-22.63"/>
<polygon fill="#63b8ff" stroke="#63b8ff" points="312.44,-234.1 322.88,-232.27 313.57,-227.2 312.44,-234.1"/>
</a>
</g>
</g>
<!-- Node9 -->
<g id="Node000009" class="node">
<title>Node9</title>
<g id="a_Node000009"><a xlink:href="ssd1306_8cpp.html" target="_top" xlink:title=" ">
<polygon fill="white" stroke="#666666" points="688.25,-197 535.75,-197 535.75,-174.75 688.25,-174.75 688.25,-197"/>
<text text-anchor="middle" x="612" y="-181.6" font-family="Arial" font-size="12.00">main/drivers/ssd1306.cpp</text>
</a>
</g>
</g>
<!-- Node1&#45;&gt;Node9 -->
<g id="edge12_Node000001_Node000009" class="edge">
<title>Node1&#45;&gt;Node9</title>
<g id="a_edge12_Node000001_Node000009"><a xlink:title=" ">
<path fill="none" stroke="#63b8ff" d="M449,-229.72C486.64,-219.83 537.16,-206.55 571.93,-197.41"/>
<polygon fill="#63b8ff" stroke="#63b8ff" points="448.5,-226.23 439.72,-232.16 450.28,-233 448.5,-226.23"/>
</a>
</g>
</g>
<!-- Node3 -->
<g id="Node000003" class="node">
<title>Node3</title>
<g id="a_Node000003"><a xlink:href="menu__handler_8h.html" target="_top" xlink:title="This is the file that contains the class for switching between menus.">
<polygon fill="white" stroke="#666666" points="259.75,-138.75 56.25,-138.75 56.25,-116.5 259.75,-116.5 259.75,-138.75"/>
<text text-anchor="middle" x="158" y="-123.35" font-family="Arial" font-size="12.00">include/supporting/menu_handler.h</text>
</a>
</g>
</g>
<!-- Node2&#45;&gt;Node3 -->
<g id="edge2_Node000002_Node000003" class="edge">
<title>Node2&#45;&gt;Node3</title>
<g id="a_edge2_Node000002_Node000003"><a xlink:title=" ">
<path fill="none" stroke="#63b8ff" d="M253.12,-169.78C230.76,-160.11 202.28,-147.79 182.34,-139.16"/>
<polygon fill="#63b8ff" stroke="#63b8ff" points="251.59,-172.93 262.16,-173.69 254.37,-166.51 251.59,-172.93"/>
</a>
</g>
</g>
<!-- Node2&#45;&gt;Node4 -->
<g id="edge8_Node000002_Node000004" class="edge">
<title>Node2&#45;&gt;Node4</title>
<g id="a_edge8_Node000002_Node000004"><a xlink:title=" ">
<path fill="none" stroke="#63b8ff" d="M289.85,-163.41C292.09,-148.79 297.04,-129.76 308,-116.5 321.98,-99.59 343.77,-88.19 362.4,-80.96"/>
<polygon fill="#63b8ff" stroke="#63b8ff" points="286.42,-162.58 288.71,-172.92 293.37,-163.41 286.42,-162.58"/>
</a>
</g>
</g>
<!-- Node2&#45;&gt;Node5 -->
<g id="edge9_Node000002_Node000005" class="edge">
<title>Node2&#45;&gt;Node5</title>
<g id="a_edge9_Node000002_Node000005"><a xlink:title=" ">
<path fill="none" stroke="#63b8ff" d="M194.87,-179.08C135.33,-173.21 65.87,-161.57 47,-138.75 18.84,-104.69 34.9,-46.06 43.1,-22.43"/>
<polygon fill="#63b8ff" stroke="#63b8ff" points="194.45,-182.56 204.73,-180 195.1,-175.59 194.45,-182.56"/>
</a>
</g>
</g>
<!-- Node8 -->
<g id="Node000008" class="node">
<title>Node8</title>
<g id="a_Node000008"><a xlink:href="menus_8cpp.html" target="_top" xlink:title="source file for the class that handles the creation of menus">
<polygon fill="white" stroke="#666666" points="479.5,-138.75 316.5,-138.75 316.5,-116.5 479.5,-116.5 479.5,-138.75"/>
<text text-anchor="middle" x="398" y="-123.35" font-family="Arial" font-size="12.00">main/supporting/menus.cpp</text>
</a>
</g>
</g>
<!-- Node2&#45;&gt;Node8 -->
<g id="edge10_Node000002_Node000008" class="edge">
<title>Node2&#45;&gt;Node8</title>
<g id="a_edge10_Node000002_Node000008"><a xlink:title=" ">
<path fill="none" stroke="#63b8ff" d="M318.81,-169.12C337.53,-159.55 360.91,-147.59 377.4,-139.16"/>
<polygon fill="#63b8ff" stroke="#63b8ff" points="317.35,-165.94 310.04,-173.61 320.53,-172.17 317.35,-165.94"/>
</a>
</g>
</g>
<!-- Node3&#45;&gt;Node4 -->
<g id="edge3_Node000003_Node000004" class="edge">
<title>Node3&#45;&gt;Node4</title>
<g id="a_edge3_Node000003_Node000004"><a xlink:title=" ">
<path fill="none" stroke="#63b8ff" d="M214.11,-113.47C256.43,-103.55 313.73,-90.12 353.06,-80.91"/>
<polygon fill="#63b8ff" stroke="#63b8ff" points="213.55,-110.01 204.62,-115.7 215.15,-116.83 213.55,-110.01"/>
</a>
</g>
</g>
<!-- Node3&#45;&gt;Node5 -->
<g id="edge6_Node000003_Node000005" class="edge">
<title>Node3&#45;&gt;Node5</title>
<g id="a_edge6_Node000003_Node000005"><a xlink:title=" ">
<path fill="none" stroke="#63b8ff" d="M125.19,-110.58C111.61,-102.83 96.41,-92.57 85,-80.5 68.39,-62.93 56.51,-36.74 50.81,-22.41"/>
<polygon fill="#63b8ff" stroke="#63b8ff" points="123.38,-113.58 133.83,-115.29 126.73,-107.44 123.38,-113.58"/>
</a>
</g>
</g>
<!-- Node7 -->
<g id="Node000007" class="node">
<title>Node7</title>
<g id="a_Node000007"><a xlink:href="menu__handler_8cpp.html" target="_top" xlink:title="This is the file that contains the class for switching between menus.">
<polygon fill="white" stroke="#666666" points="297.75,-80.5 94.25,-80.5 94.25,-58.25 297.75,-58.25 297.75,-80.5"/>
<text text-anchor="middle" x="196" y="-65.1" font-family="Arial" font-size="12.00">main/supporting/menu_handler.cpp</text>
</a>
</g>
</g>
<!-- Node3&#45;&gt;Node7 -->
<g id="edge7_Node000003_Node000007" class="edge">
<title>Node3&#45;&gt;Node7</title>
<g id="a_edge7_Node000003_Node000007"><a xlink:title=" ">
<path fill="none" stroke="#63b8ff" d="M171.53,-106.6C177.39,-97.92 184.01,-88.12 188.88,-80.91"/>
<polygon fill="#63b8ff" stroke="#63b8ff" points="168.69,-104.54 165.99,-114.79 174.49,-108.46 168.69,-104.54"/>
</a>
</g>
</g>
<!-- Node4&#45;&gt;Node5 -->
<g id="edge4_Node000004_Node000005" class="edge">
<title>Node4&#45;&gt;Node5</title>
<g id="a_edge4_Node000004_Node000005"><a xlink:title=" ">
<path fill="none" stroke="#63b8ff" d="M320.73,-55.99C251.61,-44.92 152.51,-29.03 94.45,-19.73"/>
<polygon fill="#63b8ff" stroke="#63b8ff" points="320.06,-59.43 330.49,-57.56 321.16,-52.52 320.06,-59.43"/>
</a>
</g>
</g>
<!-- Node6 -->
<g id="Node000006" class="node">
<title>Node6</title>
<g id="a_Node000006"><a xlink:href="display__task_8cpp.html" target="_top" xlink:title="This is the file that contains the display task.">
<polygon fill="white" stroke="#666666" points="480.62,-22.25 315.38,-22.25 315.38,0 480.62,0 480.62,-22.25"/>
<text text-anchor="middle" x="398" y="-6.85" font-family="Arial" font-size="12.00">main/tasks/display_task.cpp</text>
</a>
</g>
</g>
<!-- Node4&#45;&gt;Node6 -->
<g id="edge5_Node000004_Node000006" class="edge">
<title>Node4&#45;&gt;Node6</title>
<g id="a_edge5_Node000004_Node000006"><a xlink:title=" ">
<path fill="none" stroke="#63b8ff" d="M398,-46.35C398,-38.2 398,-29.33 398,-22.66"/>
<polygon fill="#63b8ff" stroke="#63b8ff" points="394.5,-46.28 398,-56.28 401.5,-46.28 394.5,-46.28"/>
</a>
</g>
</g>
</g>
</svg>
