<?xml version="1.0" encoding="UTF-8" standalone="no"?>
<!DOCTYPE svg PUBLIC "-//W3C//DTD SVG 1.1//EN"
 "http://www.w3.org/Graphics/SVG/1.1/DTD/svg11.dtd">
<!-- Generated by graphviz version 12.2.1 (20241206.2353)
 -->
<!-- Title: __attribute__ Pages: 1 -->
<svg width="2086pt" height="559pt"
 viewBox="0.00 0.00 2086.00 559.00" xmlns="http://www.w3.org/2000/svg" xmlns:xlink="http://www.w3.org/1999/xlink">
<g id="graph0" class="graph" transform="scale(1 1) rotate(0) translate(4 555)">
<title>__attribute__</title>
<!-- Node1 -->
<g id="Node000001" class="node">
<title>Node1</title>
<g id="a_Node000001"><a xlink:title="HID Descriptor.">
<polygon fill="#999999" stroke="none" points="969.88,-241.25 793.62,-241.25 793.62,0 969.88,0 969.88,-241.25"/>
<text text-anchor="start" x="846.88" y="-225.85" font-family="Arial" font-size="12.00">__attribute__</text>
<text text-anchor="start" x="797.62" y="-207.6" font-family="Arial" font-size="12.00">+</text>
<text text-anchor="start" x="808.38" y="-207.6" font-family="Arial" font-size="12.00">uint16_t duration</text>
<text text-anchor="start" x="797.62" y="-189.35" font-family="Arial" font-size="12.00">+</text>
<text text-anchor="start" x="808.38" y="-189.35" font-family="Arial" font-size="12.00">uint8_t destination_address</text>
<text text-anchor="start" x="797.62" y="-171.1" font-family="Arial" font-size="12.00">+</text>
<text text-anchor="start" x="808.38" y="-171.1" font-family="Arial" font-size="12.00">uint8_t source_address</text>
<text text-anchor="start" x="797.62" y="-152.85" font-family="Arial" font-size="12.00">+</text>
<text text-anchor="start" x="808.38" y="-152.85" font-family="Arial" font-size="12.00">uint8_t broadcast_address</text>
<text text-anchor="start" x="797.62" y="-134.6" font-family="Arial" font-size="12.00">+</text>
<text text-anchor="start" x="808.38" y="-134.6" font-family="Arial" font-size="12.00">uint16_t sequence_control</text>
<text text-anchor="start" x="797.62" y="-116.35" font-family="Arial" font-size="12.00">+</text>
<text text-anchor="start" x="808.38" y="-116.35" font-family="Arial" font-size="12.00">uint8_t category_code</text>
<text text-anchor="start" x="797.62" y="-98.1" font-family="Arial" font-size="12.00">+</text>
<text text-anchor="start" x="808.38" y="-98.1" font-family="Arial" font-size="12.00">uint8_t organization_identifier</text>
<text text-anchor="start" x="797.62" y="-79.85" font-family="Arial" font-size="12.00">+</text>
<text text-anchor="start" x="808.38" y="-79.85" font-family="Arial" font-size="12.00">uint8_t random_values</text>
<text text-anchor="start" x="797.62" y="-61.6" font-family="Arial" font-size="12.00">+</text>
<text text-anchor="start" x="808.38" y="-61.6" font-family="Arial" font-size="12.00">uint8_t element_id</text>
<text text-anchor="start" x="797.62" y="-43.35" font-family="Arial" font-size="12.00">+</text>
<text text-anchor="start" x="808.38" y="-43.35" font-family="Arial" font-size="12.00">uint8_t lenght</text>
<text text-anchor="start" x="808.38" y="-25.1" font-family="Arial" font-size="12.00">and 35 more...</text>
<text text-anchor="start" x="880.25" y="-6.85" font-family="Arial" font-size="12.00"> </text>
<polygon fill="#666666" stroke="#666666" points="793.62,-221 793.62,-221 969.88,-221 969.88,-221 793.62,-221"/>
<polygon fill="#666666" stroke="#666666" points="793.62,-20.25 793.62,-20.25 806.38,-20.25 806.38,-20.25 793.62,-20.25"/>
<polygon fill="#666666" stroke="#666666" points="806.38,-20.25 806.38,-20.25 969.88,-20.25 969.88,-20.25 806.38,-20.25"/>
<polygon fill="none" stroke="#666666" points="793.62,0 793.62,-241.25 969.88,-241.25 969.88,0 793.62,0"/>
</a>
</g>
</g>
<!-- Node2 -->
<g id="Node000002" class="node">
<title>Node2</title>
<g id="a_Node000002"><a xlink:href="structespnow__frame__head__s.html" target="_top" xlink:title="Frame header of espnow.">
<polygon fill="white" stroke="none" points="169.5,-551 0,-551 0,-291.5 169.5,-291.5 169.5,-551"/>
<text text-anchor="start" x="22.12" y="-535.6" font-family="Arial" font-size="12.00">espnow_frame_head_s</text>
<text text-anchor="start" x="4" y="-517.35" font-family="Arial" font-size="12.00">+</text>
<text text-anchor="start" x="14.75" y="-517.35" font-family="Arial" font-size="12.00">uint16_t magic</text>
<text text-anchor="start" x="4" y="-499.1" font-family="Arial" font-size="12.00">+</text>
<text text-anchor="start" x="14.75" y="-499.1" font-family="Arial" font-size="12.00">uint8_t channel</text>
<text text-anchor="start" x="4" y="-480.85" font-family="Arial" font-size="12.00">+</text>
<text text-anchor="start" x="14.75" y="-480.85" font-family="Arial" font-size="12.00">bool filter_adjacent_channel</text>
<text text-anchor="start" x="4" y="-462.6" font-family="Arial" font-size="12.00">+</text>
<text text-anchor="start" x="14.75" y="-462.6" font-family="Arial" font-size="12.00">bool filter_weak_signal</text>
<text text-anchor="start" x="4" y="-444.35" font-family="Arial" font-size="12.00">+</text>
<text text-anchor="start" x="14.75" y="-444.35" font-family="Arial" font-size="12.00">bool security</text>
<text text-anchor="start" x="4" y="-426.1" font-family="Arial" font-size="12.00">+</text>
<text text-anchor="start" x="14.75" y="-426.1" font-family="Arial" font-size="12.00">uint16_t __pad0__</text>
<text text-anchor="start" x="4" y="-407.85" font-family="Arial" font-size="12.00">+</text>
<text text-anchor="start" x="14.75" y="-407.85" font-family="Arial" font-size="12.00">bool broadcast</text>
<text text-anchor="start" x="4" y="-389.6" font-family="Arial" font-size="12.00">+</text>
<text text-anchor="start" x="14.75" y="-389.6" font-family="Arial" font-size="12.00">bool group</text>
<text text-anchor="start" x="4" y="-371.35" font-family="Arial" font-size="12.00">+</text>
<text text-anchor="start" x="14.75" y="-371.35" font-family="Arial" font-size="12.00">bool ack</text>
<text text-anchor="start" x="4" y="-353.1" font-family="Arial" font-size="12.00">+</text>
<text text-anchor="start" x="14.75" y="-353.1" font-family="Arial" font-size="12.00">uint16_t retransmit_count</text>
<text text-anchor="start" x="4" y="-334.85" font-family="Arial" font-size="12.00">+</text>
<text text-anchor="start" x="14.75" y="-334.85" font-family="Arial" font-size="12.00">uint8_t forward_ttl</text>
<text text-anchor="start" x="4" y="-316.6" font-family="Arial" font-size="12.00">+</text>
<text text-anchor="start" x="14.75" y="-316.6" font-family="Arial" font-size="12.00">int8_t forward_rssi</text>
<text text-anchor="start" x="83.25" y="-298.35" font-family="Arial" font-size="12.00"> </text>
<polygon fill="#666666" stroke="#666666" points="0,-530.75 0,-530.75 169.5,-530.75 169.5,-530.75 0,-530.75"/>
<polygon fill="#666666" stroke="#666666" points="0,-311.75 0,-311.75 12.75,-311.75 12.75,-311.75 0,-311.75"/>
<polygon fill="#666666" stroke="#666666" points="12.75,-311.75 12.75,-311.75 169.5,-311.75 169.5,-311.75 12.75,-311.75"/>
<polygon fill="none" stroke="#666666" points="0,-291.5 0,-551 169.5,-551 169.5,-291.5 0,-291.5"/>
</a>
</g>
</g>
<!-- Node2&#45;&gt;Node1 -->
<g id="edge1_Node000001_Node000002" class="edge">
<title>Node2&#45;&gt;Node1</title>
<g id="a_edge1_Node000001_Node000002"><a xlink:title=" ">
<path fill="none" stroke="#63b8ff" d="M169.3,-298.38C172.38,-295.95 175.53,-293.65 178.75,-291.5 366.16,-166.39 636.28,-133.21 781.06,-124.55"/>
<polygon fill="none" stroke="#63b8ff" points="780.94,-124.56 786.7,-120.23 792.92,-123.88 787.15,-128.21 780.94,-124.56"/>
</a>
</g>
<text text-anchor="middle" x="265.31" y="-262.1" font-family="Arial" font-size="12.00" fill="grey"> +frame_head</text>
</g>
<!-- Node3 -->
<g id="Node000003" class="node">
<title>Node3</title>
<g id="a_Node000003"><a xlink:href="structespnow__prov__initiator__s.html" target="_top" xlink:title="Initiator information.">
<polygon fill="white" stroke="none" points="1050,-523.62 187.5,-523.62 187.5,-318.88 1050,-318.88 1050,-523.62"/>
<text text-anchor="start" x="553.5" y="-508.23" font-family="Arial" font-size="12.00">espnow_prov_initiator_s</text>
<text text-anchor="start" x="191.5" y="-489.98" font-family="Arial" font-size="12.00">+</text>
<text text-anchor="start" x="202.25" y="-489.98" font-family="Arial" font-size="12.00">char product_id</text>
<text text-anchor="start" x="191.5" y="-471.73" font-family="Arial" font-size="12.00">+</text>
<text text-anchor="start" x="202.25" y="-471.73" font-family="Arial" font-size="12.00">char device_name</text>
<text text-anchor="start" x="191.5" y="-453.48" font-family="Arial" font-size="12.00">+</text>
<text text-anchor="start" x="202.25" y="-453.48" font-family="Arial" font-size="12.00">espnow_prov_auth_mode_t auth_mode</text>
<text text-anchor="start" x="191.5" y="-435.23" font-family="Arial" font-size="12.00">+</text>
<text text-anchor="start" x="202.25" y="-435.23" font-family="Arial" font-size="12.00">char device_secret</text>
<text text-anchor="start" x="191.5" y="-416.98" font-family="Arial" font-size="12.00">+</text>
<text text-anchor="start" x="202.25" y="-416.98" font-family="Arial" font-size="12.00">char product_secret</text>
<text text-anchor="start" x="191.5" y="-398.73" font-family="Arial" font-size="12.00">+</text>
<text text-anchor="start" x="202.25" y="-398.73" font-family="Arial" font-size="12.00">char cert_secret</text>
<text text-anchor="start" x="191.5" y="-380.48" font-family="Arial" font-size="12.00">+</text>
<text text-anchor="start" x="202.25" y="-380.48" font-family="Arial" font-size="12.00">union espnow_prov_initiator_s::@043041052202217063034332372160144350266260376206 @011035043213242377221072205350177346036254320364</text>
<text text-anchor="start" x="191.5" y="-362.23" font-family="Arial" font-size="12.00">+</text>
<text text-anchor="start" x="202.25" y="-362.23" font-family="Arial" font-size="12.00">uint8_t custom_size</text>
<text text-anchor="start" x="191.5" y="-343.98" font-family="Arial" font-size="12.00">+</text>
<text text-anchor="start" x="202.25" y="-343.98" font-family="Arial" font-size="12.00">uint8_t custom_data</text>
<text text-anchor="start" x="617.25" y="-325.73" font-family="Arial" font-size="12.00"> </text>
<polygon fill="#666666" stroke="#666666" points="187.5,-503.38 187.5,-503.38 1050,-503.38 1050,-503.38 187.5,-503.38"/>
<polygon fill="#666666" stroke="#666666" points="187.5,-339.12 187.5,-339.12 200.25,-339.12 200.25,-339.12 187.5,-339.12"/>
<polygon fill="#666666" stroke="#666666" points="200.25,-339.12 200.25,-339.12 1050,-339.12 1050,-339.12 200.25,-339.12"/>
<polygon fill="none" stroke="#666666" points="187.5,-318.88 187.5,-523.62 1050,-523.62 1050,-318.88 187.5,-318.88"/>
</a>
</g>
</g>
<!-- Node3&#45;&gt;Node1 -->
<g id="edge2_Node000001_Node000003" class="edge">
<title>Node3&#45;&gt;Node1</title>
<g id="a_edge2_Node000001_Node000003"><a xlink:title=" ">
<path fill="none" stroke="#63b8ff" d="M707.79,-319.15C732.69,-290.87 759.87,-260.01 785.19,-231.27"/>
<polygon fill="none" stroke="#63b8ff" points="785.17,-231.29 786.13,-224.14 793.1,-222.28 792.14,-229.43 785.17,-231.29"/>
</a>
</g>
<text text-anchor="middle" x="795.64" y="-262.1" font-family="Arial" font-size="12.00" fill="grey"> +initiator_info</text>
</g>
<!-- Node4 -->
<g id="Node000004" class="node">
<title>Node4</title>
<g id="a_Node000004"><a xlink:href="structespnow__prov__responder__s.html" target="_top" xlink:title="Responder information.">
<polygon fill="white" stroke="none" points="1221.5,-459.75 1068,-459.75 1068,-382.75 1221.5,-382.75 1221.5,-459.75"/>
<text text-anchor="start" x="1072" y="-444.35" font-family="Arial" font-size="12.00">espnow_prov_responder_s</text>
<text text-anchor="start" x="1081.12" y="-426.1" font-family="Arial" font-size="12.00">+</text>
<text text-anchor="start" x="1101" y="-426.1" font-family="Arial" font-size="12.00">char product_id</text>
<text text-anchor="start" x="1081.12" y="-407.85" font-family="Arial" font-size="12.00">+</text>
<text text-anchor="start" x="1101" y="-407.85" font-family="Arial" font-size="12.00">char device_name</text>
<text text-anchor="start" x="1143.25" y="-389.6" font-family="Arial" font-size="12.00"> </text>
<polygon fill="#666666" stroke="#666666" points="1068,-439.5 1068,-439.5 1221.5,-439.5 1221.5,-439.5 1068,-439.5"/>
<polygon fill="#666666" stroke="#666666" points="1068,-403 1068,-403 1099,-403 1099,-403 1068,-403"/>
<polygon fill="#666666" stroke="#666666" points="1099,-403 1099,-403 1221.5,-403 1221.5,-403 1099,-403"/>
<polygon fill="none" stroke="#666666" points="1068,-382.75 1068,-459.75 1221.5,-459.75 1221.5,-382.75 1068,-382.75"/>
</a>
</g>
</g>
<!-- Node4&#45;&gt;Node1 -->
<g id="edge3_Node000001_Node000004" class="edge">
<title>Node4&#45;&gt;Node1</title>
<g id="a_edge3_Node000001_Node000004"><a xlink:title=" ">
<path fill="none" stroke="#63b8ff" d="M1122.84,-382.95C1106.54,-356.4 1083.01,-320.45 1058.75,-291.5 1034.65,-262.73 1006.17,-233.65 979.18,-207.87"/>
<polygon fill="none" stroke="#63b8ff" points="979.07,-207.76 971.97,-206.54 970.36,-199.51 977.47,-200.73 979.07,-207.76"/>
</a>
</g>
<text text-anchor="middle" x="1086.31" y="-262.1" font-family="Arial" font-size="12.00" fill="grey"> +responder_info</text>
</g>
<!-- Node5 -->
<g id="Node000005" class="node">
<title>Node5</title>
<g id="a_Node000005"><a xlink:href="structespnow__prov__wifi__s.html" target="_top" xlink:title="WiFi configuration.">
<polygon fill="white" stroke="none" points="2078,-505.38 1239.5,-505.38 1239.5,-337.12 2078,-337.12 2078,-505.38"/>
<text text-anchor="start" x="1604" y="-489.98" font-family="Arial" font-size="12.00">espnow_prov_wifi_s</text>
<text text-anchor="start" x="1243.5" y="-471.73" font-family="Arial" font-size="12.00">+</text>
<text text-anchor="start" x="1254.25" y="-471.73" font-family="Arial" font-size="12.00">wifi_mode_t mode</text>
<text text-anchor="start" x="1243.5" y="-453.48" font-family="Arial" font-size="12.00">+</text>
<text text-anchor="start" x="1254.25" y="-453.48" font-family="Arial" font-size="12.00">wifi_ap_config_t ap</text>
<text text-anchor="start" x="1243.5" y="-435.23" font-family="Arial" font-size="12.00">+</text>
<text text-anchor="start" x="1254.25" y="-435.23" font-family="Arial" font-size="12.00">wifi_sta_config_t sta</text>
<text text-anchor="start" x="1243.5" y="-416.98" font-family="Arial" font-size="12.00">+</text>
<text text-anchor="start" x="1254.25" y="-416.98" font-family="Arial" font-size="12.00">union espnow_prov_wifi_s::@275077142311234330123152311230317163374353356374 @320033122122017150111175345306174372334274050326</text>
<text text-anchor="start" x="1243.5" y="-398.73" font-family="Arial" font-size="12.00">+</text>
<text text-anchor="start" x="1254.25" y="-398.73" font-family="Arial" font-size="12.00">char token</text>
<text text-anchor="start" x="1243.5" y="-380.48" font-family="Arial" font-size="12.00">+</text>
<text text-anchor="start" x="1254.25" y="-380.48" font-family="Arial" font-size="12.00">uint8_t custom_size</text>
<text text-anchor="start" x="1243.5" y="-362.23" font-family="Arial" font-size="12.00">+</text>
<text text-anchor="start" x="1254.25" y="-362.23" font-family="Arial" font-size="12.00">uint8_t custom_data</text>
<text text-anchor="start" x="1657.25" y="-343.98" font-family="Arial" font-size="12.00"> </text>
<polygon fill="#666666" stroke="#666666" points="1239.5,-485.12 1239.5,-485.12 2078,-485.12 2078,-485.12 1239.5,-485.12"/>
<polygon fill="#666666" stroke="#666666" points="1239.5,-357.38 1239.5,-357.38 1252.25,-357.38 1252.25,-357.38 1239.5,-357.38"/>
<polygon fill="#666666" stroke="#666666" points="1252.25,-357.38 1252.25,-357.38 2078,-357.38 2078,-357.38 1252.25,-357.38"/>
<polygon fill="none" stroke="#666666" points="1239.5,-337.12 1239.5,-505.38 2078,-505.38 2078,-337.12 1239.5,-337.12"/>
</a>
</g>
</g>
<!-- Node5&#45;&gt;Node1 -->
<g id="edge4_Node000001_Node000005" class="edge">
<title>Node5&#45;&gt;Node1</title>
<g id="a_edge4_Node000001_Node000005"><a xlink:title=" ">
<path fill="none" stroke="#63b8ff" d="M1442.57,-337.17C1291.64,-279.16 1097.19,-204.43 981.4,-159.92"/>
<polygon fill="none" stroke="#63b8ff" points="981.45,-159.94 974.42,-161.52 970.25,-155.64 977.29,-154.06 981.45,-159.94"/>
</a>
</g>
<text text-anchor="middle" x="1303.62" y="-262.1" font-family="Arial" font-size="12.00" fill="grey"> +wifi_config</text>
</g>
</g>
</svg>
