<?xml version="1.0" encoding="UTF-8" standalone="no"?>
<!DOCTYPE svg PUBLIC "-//W3C//DTD SVG 1.1//EN"
 "http://www.w3.org/Graphics/SVG/1.1/DTD/svg11.dtd">
<!-- Generated by graphviz version 12.2.1 (20241206.2353)
 -->
<!-- Title: dns_header_flags_t Pages: 1 -->
<svg width="122pt" height="195pt"
 viewBox="0.00 0.00 121.75 194.50" xmlns="http://www.w3.org/2000/svg" xmlns:xlink="http://www.w3.org/1999/xlink">
<g id="graph0" class="graph" transform="scale(1 1) rotate(0) translate(4 190.5)">
<title>dns_header_flags_t</title>
<!-- Node1 -->
<g id="Node000001" class="node">
<title>Node1</title>
<g id="a_Node000001"><a xlink:title=" ">
<polygon fill="#999999" stroke="none" points="113.75,-186.5 0,-186.5 0,0 113.75,0 113.75,-186.5"/>
<text text-anchor="start" x="4" y="-171.1" font-family="Arial" font-size="12.00">dns_header_flags_t</text>
<text text-anchor="start" x="8.06" y="-152.85" font-family="Arial" font-size="12.00">+</text>
<text text-anchor="start" x="22.88" y="-152.85" font-family="Arial" font-size="12.00">uint8_t rd</text>
<text text-anchor="start" x="8.06" y="-134.6" font-family="Arial" font-size="12.00">+</text>
<text text-anchor="start" x="22.88" y="-134.6" font-family="Arial" font-size="12.00">uint8_t tc</text>
<text text-anchor="start" x="8.06" y="-116.35" font-family="Arial" font-size="12.00">+</text>
<text text-anchor="start" x="22.88" y="-116.35" font-family="Arial" font-size="12.00">uint8_t aa</text>
<text text-anchor="start" x="8.06" y="-98.1" font-family="Arial" font-size="12.00">+</text>
<text text-anchor="start" x="22.88" y="-98.1" font-family="Arial" font-size="12.00">uint8_t opcode</text>
<text text-anchor="start" x="8.06" y="-79.85" font-family="Arial" font-size="12.00">+</text>
<text text-anchor="start" x="22.88" y="-79.85" font-family="Arial" font-size="12.00">uint8_t qr</text>
<text text-anchor="start" x="8.06" y="-61.6" font-family="Arial" font-size="12.00">+</text>
<text text-anchor="start" x="22.88" y="-61.6" font-family="Arial" font-size="12.00">uint8_t rcode</text>
<text text-anchor="start" x="8.06" y="-43.35" font-family="Arial" font-size="12.00">+</text>
<text text-anchor="start" x="22.88" y="-43.35" font-family="Arial" font-size="12.00">uint8_t z</text>
<text text-anchor="start" x="8.06" y="-25.1" font-family="Arial" font-size="12.00">+</text>
<text text-anchor="start" x="22.88" y="-25.1" font-family="Arial" font-size="12.00">uint8_t ra</text>
<text text-anchor="start" x="55.38" y="-6.85" font-family="Arial" font-size="12.00"> </text>
<polygon fill="#666666" stroke="#666666" points="0,-166.25 0,-166.25 113.75,-166.25 113.75,-166.25 0,-166.25"/>
<polygon fill="#666666" stroke="#666666" points="0,-20.25 0,-20.25 20.88,-20.25 20.88,-20.25 0,-20.25"/>
<polygon fill="#666666" stroke="#666666" points="20.88,-20.25 20.88,-20.25 113.75,-20.25 113.75,-20.25 20.88,-20.25"/>
<polygon fill="none" stroke="#666666" points="0,0 0,-186.5 113.75,-186.5 113.75,0 0,0"/>
</a>
</g>
</g>
</g>
</svg>
