<?xml version="1.0" encoding="UTF-8" standalone="no"?>
<!DOCTYPE svg PUBLIC "-//W3C//DTD SVG 1.1//EN"
 "http://www.w3.org/Graphics/SVG/1.1/DTD/svg11.dtd">
<!-- Generated by graphviz version 12.2.1 (20241206.2353)
 -->
<!-- Title: rest_server_context Pages: 1 -->
<svg width="120pt" height="85pt"
 viewBox="0.00 0.00 120.25 85.00" xmlns="http://www.w3.org/2000/svg" xmlns:xlink="http://www.w3.org/1999/xlink">
<g id="graph0" class="graph" transform="scale(1 1) rotate(0) translate(4 81)">
<title>rest_server_context</title>
<!-- Node1 -->
<g id="Node000001" class="node">
<title>Node1</title>
<g id="a_Node000001"><a xlink:title=" ">
<polygon fill="#999999" stroke="none" points="112.25,-77 0,-77 0,0 112.25,0 112.25,-77"/>
<text text-anchor="start" x="4" y="-61.6" font-family="Arial" font-size="12.00">rest_server_context</text>
<text text-anchor="start" x="6.75" y="-43.35" font-family="Arial" font-size="12.00">+</text>
<text text-anchor="start" x="20.25" y="-43.35" font-family="Arial" font-size="12.00">char base_path</text>
<text text-anchor="start" x="6.75" y="-25.1" font-family="Arial" font-size="12.00">+</text>
<text text-anchor="start" x="20.25" y="-25.1" font-family="Arial" font-size="12.00">char scratch</text>
<text text-anchor="start" x="54.62" y="-6.85" font-family="Arial" font-size="12.00"> </text>
<polygon fill="#666666" stroke="#666666" points="0,-56.75 0,-56.75 112.25,-56.75 112.25,-56.75 0,-56.75"/>
<polygon fill="#666666" stroke="#666666" points="0,-20.25 0,-20.25 18.25,-20.25 18.25,-20.25 0,-20.25"/>
<polygon fill="#666666" stroke="#666666" points="18.25,-20.25 18.25,-20.25 112.25,-20.25 112.25,-20.25 18.25,-20.25"/>
<polygon fill="none" stroke="#666666" points="0,0 0,-77 112.25,-77 112.25,0 0,0"/>
</a>
</g>
</g>
</g>
</svg>
