<?xml version="1.0" encoding="UTF-8" standalone="no"?>
<!DOCTYPE svg PUBLIC "-//W3C//DTD SVG 1.1//EN"
 "http://www.w3.org/Graphics/SVG/1.1/DTD/svg11.dtd">
<!-- Generated by graphviz version 12.2.1 (20241206.2353)
 -->
<!-- Title: ota_config_t Pages: 1 -->
<svg width="190pt" height="340pt"
 viewBox="0.00 0.00 190.25 340.00" xmlns="http://www.w3.org/2000/svg" xmlns:xlink="http://www.w3.org/1999/xlink">
<g id="graph0" class="graph" transform="scale(1 1) rotate(0) translate(4 336)">
<title>ota_config_t</title>
<!-- Node1 -->
<g id="Node000001" class="node">
<title>Node1</title>
<g id="a_Node000001"><a xlink:title=" ">
<polygon fill="#999999" stroke="none" points="182.25,-95.25 0,-95.25 0,0 182.25,0 182.25,-95.25"/>
<text text-anchor="start" x="58.5" y="-79.85" font-family="Arial" font-size="12.00">ota_config_t</text>
<text text-anchor="start" x="4" y="-61.6" font-family="Arial" font-size="12.00">+</text>
<text text-anchor="start" x="14.75" y="-61.6" font-family="Arial" font-size="12.00">esp_ota_handle_t handle</text>
<text text-anchor="start" x="4" y="-43.35" font-family="Arial" font-size="12.00">+</text>
<text text-anchor="start" x="14.75" y="-43.35" font-family="Arial" font-size="12.00">const esp_partition_t * partition</text>
<text text-anchor="start" x="4" y="-25.1" font-family="Arial" font-size="12.00">+</text>
<text text-anchor="start" x="14.75" y="-25.1" font-family="Arial" font-size="12.00">uint32_t start_time</text>
<text text-anchor="start" x="89.62" y="-6.85" font-family="Arial" font-size="12.00"> </text>
<polygon fill="#666666" stroke="#666666" points="0,-75 0,-75 182.25,-75 182.25,-75 0,-75"/>
<polygon fill="#666666" stroke="#666666" points="0,-20.25 0,-20.25 12.75,-20.25 12.75,-20.25 0,-20.25"/>
<polygon fill="#666666" stroke="#666666" points="12.75,-20.25 12.75,-20.25 182.25,-20.25 182.25,-20.25 12.75,-20.25"/>
<polygon fill="none" stroke="#666666" points="0,0 0,-95.25 182.25,-95.25 182.25,0 0,0"/>
</a>
</g>
</g>
<!-- Node2 -->
<g id="Node000002" class="node">
<title>Node2</title>
<g id="a_Node000002"><a xlink:href="structespnow__ota__status__s.html" target="_top" xlink:title="Status packet.">
<polygon fill="white" stroke="none" points="161.25,-332 21,-332 21,-145.5 161.25,-145.5 161.25,-332"/>
<text text-anchor="start" x="33" y="-316.6" font-family="Arial" font-size="12.00">espnow_ota_status_s</text>
<text text-anchor="start" x="25" y="-298.35" font-family="Arial" font-size="12.00">+</text>
<text text-anchor="start" x="35.75" y="-298.35" font-family="Arial" font-size="12.00">uint8_t type</text>
<text text-anchor="start" x="25" y="-280.1" font-family="Arial" font-size="12.00">+</text>
<text text-anchor="start" x="35.75" y="-280.1" font-family="Arial" font-size="12.00">uint8_t sha_256</text>
<text text-anchor="start" x="25" y="-261.85" font-family="Arial" font-size="12.00">+</text>
<text text-anchor="start" x="35.75" y="-261.85" font-family="Arial" font-size="12.00">int16_t error_code</text>
<text text-anchor="start" x="25" y="-243.6" font-family="Arial" font-size="12.00">+</text>
<text text-anchor="start" x="35.75" y="-243.6" font-family="Arial" font-size="12.00">uint16_t packet_num</text>
<text text-anchor="start" x="25" y="-225.35" font-family="Arial" font-size="12.00">+</text>
<text text-anchor="start" x="35.75" y="-225.35" font-family="Arial" font-size="12.00">uint32_t total_size</text>
<text text-anchor="start" x="25" y="-207.1" font-family="Arial" font-size="12.00">+</text>
<text text-anchor="start" x="35.75" y="-207.1" font-family="Arial" font-size="12.00">uint32_t written_size</text>
<text text-anchor="start" x="25" y="-188.85" font-family="Arial" font-size="12.00">+</text>
<text text-anchor="start" x="35.75" y="-188.85" font-family="Arial" font-size="12.00">uint8_t progress_index</text>
<text text-anchor="start" x="25" y="-170.6" font-family="Arial" font-size="12.00">+</text>
<text text-anchor="start" x="35.75" y="-170.6" font-family="Arial" font-size="12.00">uint8_t progress_array</text>
<text text-anchor="start" x="89.62" y="-152.35" font-family="Arial" font-size="12.00"> </text>
<polygon fill="#666666" stroke="#666666" points="21,-311.75 21,-311.75 161.25,-311.75 161.25,-311.75 21,-311.75"/>
<polygon fill="#666666" stroke="#666666" points="21,-165.75 21,-165.75 33.75,-165.75 33.75,-165.75 21,-165.75"/>
<polygon fill="#666666" stroke="#666666" points="33.75,-165.75 33.75,-165.75 161.25,-165.75 161.25,-165.75 33.75,-165.75"/>
<polygon fill="none" stroke="#666666" points="21,-145.5 21,-332 161.25,-332 161.25,-145.5 21,-145.5"/>
</a>
</g>
</g>
<!-- Node2&#45;&gt;Node1 -->
<g id="edge1_Node000001_Node000002" class="edge">
<title>Node2&#45;&gt;Node1</title>
<g id="a_edge1_Node000001_Node000002"><a xlink:title=" ">
<path fill="none" stroke="#63b8ff" d="M91.12,-145.68C91.12,-132.71 91.12,-119.68 91.12,-107.56"/>
<polygon fill="none" stroke="#63b8ff" points="91.13,-107.72 87.13,-101.72 91.13,-95.72 95.13,-101.72 91.13,-107.72"/>
</a>
</g>
<text text-anchor="middle" x="111.75" y="-116.1" font-family="Arial" font-size="12.00" fill="grey"> +status</text>
</g>
</g>
</svg>
