<?xml version="1.0" encoding="UTF-8" standalone="no"?>
<!DOCTYPE svg PUBLIC "-//W3C//DTD SVG 1.1//EN"
 "http://www.w3.org/Graphics/SVG/1.1/DTD/svg11.dtd">
<!-- Generated by graphviz version 12.2.1 (20241206.2353)
 -->
<!-- Title: espnow_prov_resp_t Pages: 1 -->
<svg width="847pt" height="304pt"
 viewBox="0.00 0.00 846.50 303.50" xmlns="http://www.w3.org/2000/svg" xmlns:xlink="http://www.w3.org/1999/xlink">
<g id="graph0" class="graph" transform="scale(1 1) rotate(0) translate(4 299.5)">
<title>espnow_prov_resp_t</title>
<!-- Node1 -->
<g id="Node000001" class="node">
<title>Node1</title>
<g id="a_Node000001"><a xlink:title=" ">
<polygon fill="#999999" stroke="none" points="508.12,-77 330.38,-77 330.38,0 508.12,0 508.12,-77"/>
<text text-anchor="start" x="363.38" y="-61.6" font-family="Arial" font-size="12.00">espnow_prov_resp_t</text>
<text text-anchor="start" x="334.38" y="-43.35" font-family="Arial" font-size="12.00">+</text>
<text text-anchor="start" x="345.12" y="-43.35" font-family="Arial" font-size="12.00">bool device_en</text>
<text text-anchor="start" x="334.38" y="-25.1" font-family="Arial" font-size="12.00">+</text>
<text text-anchor="start" x="345.12" y="-25.1" font-family="Arial" font-size="12.00">espnow_prov_cb_t device_cb</text>
<text text-anchor="start" x="417.75" y="-6.85" font-family="Arial" font-size="12.00"> </text>
<polygon fill="#666666" stroke="#666666" points="330.38,-56.75 330.38,-56.75 508.12,-56.75 508.12,-56.75 330.38,-56.75"/>
<polygon fill="#666666" stroke="#666666" points="330.38,-20.25 330.38,-20.25 343.12,-20.25 343.12,-20.25 330.38,-20.25"/>
<polygon fill="#666666" stroke="#666666" points="343.12,-20.25 343.12,-20.25 508.12,-20.25 508.12,-20.25 343.12,-20.25"/>
<polygon fill="none" stroke="#666666" points="330.38,0 330.38,-77 508.12,-77 508.12,0 330.38,0"/>
</a>
</g>
</g>
<!-- Node2 -->
<g id="Node000002" class="node">
<title>Node2</title>
<g id="a_Node000002"><a xlink:href="structespnow__prov__wifi__s.html" target="_top" xlink:title="WiFi configuration.">
<polygon fill="white" stroke="none" points="838.5,-295.5 0,-295.5 0,-127.25 838.5,-127.25 838.5,-295.5"/>
<text text-anchor="start" x="364.5" y="-280.1" font-family="Arial" font-size="12.00">espnow_prov_wifi_s</text>
<text text-anchor="start" x="4" y="-261.85" font-family="Arial" font-size="12.00">+</text>
<text text-anchor="start" x="14.75" y="-261.85" font-family="Arial" font-size="12.00">wifi_mode_t mode</text>
<text text-anchor="start" x="4" y="-243.6" font-family="Arial" font-size="12.00">+</text>
<text text-anchor="start" x="14.75" y="-243.6" font-family="Arial" font-size="12.00">wifi_ap_config_t ap</text>
<text text-anchor="start" x="4" y="-225.35" font-family="Arial" font-size="12.00">+</text>
<text text-anchor="start" x="14.75" y="-225.35" font-family="Arial" font-size="12.00">wifi_sta_config_t sta</text>
<text text-anchor="start" x="4" y="-207.1" font-family="Arial" font-size="12.00">+</text>
<text text-anchor="start" x="14.75" y="-207.1" font-family="Arial" font-size="12.00">union espnow_prov_wifi_s::@275077142311234330123152311230317163374353356374 @320033122122017150111175345306174372334274050326</text>
<text text-anchor="start" x="4" y="-188.85" font-family="Arial" font-size="12.00">+</text>
<text text-anchor="start" x="14.75" y="-188.85" font-family="Arial" font-size="12.00">char token</text>
<text text-anchor="start" x="4" y="-170.6" font-family="Arial" font-size="12.00">+</text>
<text text-anchor="start" x="14.75" y="-170.6" font-family="Arial" font-size="12.00">uint8_t custom_size</text>
<text text-anchor="start" x="4" y="-152.35" font-family="Arial" font-size="12.00">+</text>
<text text-anchor="start" x="14.75" y="-152.35" font-family="Arial" font-size="12.00">uint8_t custom_data</text>
<text text-anchor="start" x="417.75" y="-134.1" font-family="Arial" font-size="12.00"> </text>
<polygon fill="#666666" stroke="#666666" points="0,-275.25 0,-275.25 838.5,-275.25 838.5,-275.25 0,-275.25"/>
<polygon fill="#666666" stroke="#666666" points="0,-147.5 0,-147.5 12.75,-147.5 12.75,-147.5 0,-147.5"/>
<polygon fill="#666666" stroke="#666666" points="12.75,-147.5 12.75,-147.5 838.5,-147.5 838.5,-147.5 12.75,-147.5"/>
<polygon fill="none" stroke="#666666" points="0,-127.25 0,-295.5 838.5,-295.5 838.5,-127.25 0,-127.25"/>
</a>
</g>
</g>
<!-- Node2&#45;&gt;Node1 -->
<g id="edge1_Node000001_Node000002" class="edge">
<title>Node2&#45;&gt;Node1</title>
<g id="a_edge1_Node000001_Node000002"><a xlink:title=" ">
<path fill="none" stroke="#63b8ff" d="M419.25,-127.44C419.25,-114.59 419.25,-101.66 419.25,-89.83"/>
<polygon fill="none" stroke="#63b8ff" points="419.25,-89.89 415.25,-83.89 419.25,-77.89 423.25,-83.89 419.25,-89.89"/>
</a>
</g>
<text text-anchor="middle" x="452.62" y="-97.85" font-family="Arial" font-size="12.00" fill="grey"> +wifi_config</text>
</g>
</g>
</svg>
