<?xml version="1.0" encoding="UTF-8" standalone="no"?>
<!DOCTYPE svg PUBLIC "-//W3C//DTD SVG 1.1//EN"
 "http://www.w3.org/Graphics/SVG/1.1/DTD/svg11.dtd">
<!-- Generated by graphviz version 12.2.1 (20241206.2353)
 -->
<!-- Title: espnow_ctrl_data_s Pages: 1 -->
<svg width="847pt" height="213pt"
 viewBox="0.00 0.00 846.50 212.75" xmlns="http://www.w3.org/2000/svg" xmlns:xlink="http://www.w3.org/1999/xlink">
<g id="graph0" class="graph" transform="scale(1 1) rotate(0) translate(4 208.75)">
<title>espnow_ctrl_data_s</title>
<!-- Node1 -->
<g id="Node000001" class="node">
<title>Node1</title>
<g id="a_Node000001"><a xlink:title="Control data from initiator.">
<polygon fill="#999999" stroke="none" points="838.5,-204.75 0,-204.75 0,0 838.5,0 838.5,-204.75"/>
<text text-anchor="start" x="365.62" y="-189.35" font-family="Arial" font-size="12.00">espnow_ctrl_data_s</text>
<text text-anchor="start" x="4" y="-171.1" font-family="Arial" font-size="12.00">+</text>
<text text-anchor="start" x="14.75" y="-171.1" font-family="Arial" font-size="12.00">espnow_attribute_t initiator_attribute</text>
<text text-anchor="start" x="4" y="-152.85" font-family="Arial" font-size="12.00">+</text>
<text text-anchor="start" x="14.75" y="-152.85" font-family="Arial" font-size="12.00">espnow_attribute_t responder_attribute</text>
<text text-anchor="start" x="4" y="-134.6" font-family="Arial" font-size="12.00">+</text>
<text text-anchor="start" x="14.75" y="-134.6" font-family="Arial" font-size="12.00">bool responder_value_b</text>
<text text-anchor="start" x="4" y="-116.35" font-family="Arial" font-size="12.00">+</text>
<text text-anchor="start" x="14.75" y="-116.35" font-family="Arial" font-size="12.00">int responder_value_i</text>
<text text-anchor="start" x="4" y="-98.1" font-family="Arial" font-size="12.00">+</text>
<text text-anchor="start" x="14.75" y="-98.1" font-family="Arial" font-size="12.00">float responder_value_f</text>
<text text-anchor="start" x="4" y="-79.85" font-family="Arial" font-size="12.00">+</text>
<text text-anchor="start" x="14.75" y="-79.85" font-family="Arial" font-size="12.00">uint32_t responder_value_s_flag</text>
<text text-anchor="start" x="4" y="-61.6" font-family="Arial" font-size="12.00">+</text>
<text text-anchor="start" x="14.75" y="-61.6" font-family="Arial" font-size="12.00">uint8_t responder_value_s_size</text>
<text text-anchor="start" x="4" y="-43.35" font-family="Arial" font-size="12.00">+</text>
<text text-anchor="start" x="14.75" y="-43.35" font-family="Arial" font-size="12.00">union espnow_ctrl_data_s::@125037067024311010263364265307112041261022026240 @140202241270134305315033342074126375222054012332</text>
<text text-anchor="start" x="4" y="-25.1" font-family="Arial" font-size="12.00">+</text>
<text text-anchor="start" x="14.75" y="-25.1" font-family="Arial" font-size="12.00">char responder_value_s</text>
<text text-anchor="start" x="417.75" y="-6.85" font-family="Arial" font-size="12.00"> </text>
<polygon fill="#666666" stroke="#666666" points="0,-184.5 0,-184.5 838.5,-184.5 838.5,-184.5 0,-184.5"/>
<polygon fill="#666666" stroke="#666666" points="0,-20.25 0,-20.25 12.75,-20.25 12.75,-20.25 0,-20.25"/>
<polygon fill="#666666" stroke="#666666" points="12.75,-20.25 12.75,-20.25 838.5,-20.25 838.5,-20.25 12.75,-20.25"/>
<polygon fill="none" stroke="#666666" points="0,0 0,-204.75 838.5,-204.75 838.5,0 0,0"/>
</a>
</g>
</g>
</g>
</svg>
