<?xml version="1.0" encoding="UTF-8" standalone="no"?>
<!DOCTYPE svg PUBLIC "-//W3C//DTD SVG 1.1//EN"
 "http://www.w3.org/Graphics/SVG/1.1/DTD/svg11.dtd">
<!-- Generated by graphviz version 12.2.1 (20241206.2353)
 -->
<!-- Title: espnow_prov_responder_s Pages: 1 -->
<svg width="162pt" height="85pt"
 viewBox="0.00 0.00 161.50 85.00" xmlns="http://www.w3.org/2000/svg" xmlns:xlink="http://www.w3.org/1999/xlink">
<g id="graph0" class="graph" transform="scale(1 1) rotate(0) translate(4 81)">
<title>espnow_prov_responder_s</title>
<!-- Node1 -->
<g id="Node000001" class="node">
<title>Node1</title>
<g id="a_Node000001"><a xlink:title="Responder information.">
<polygon fill="#999999" stroke="none" points="153.5,-77 0,-77 0,0 153.5,0 153.5,-77"/>
<text text-anchor="start" x="4" y="-61.6" font-family="Arial" font-size="12.00">espnow_prov_responder_s</text>
<text text-anchor="start" x="13.12" y="-43.35" font-family="Arial" font-size="12.00">+</text>
<text text-anchor="start" x="33" y="-43.35" font-family="Arial" font-size="12.00">char product_id</text>
<text text-anchor="start" x="13.12" y="-25.1" font-family="Arial" font-size="12.00">+</text>
<text text-anchor="start" x="33" y="-25.1" font-family="Arial" font-size="12.00">char device_name</text>
<text text-anchor="start" x="75.25" y="-6.85" font-family="Arial" font-size="12.00"> </text>
<polygon fill="#666666" stroke="#666666" points="0,-56.75 0,-56.75 153.5,-56.75 153.5,-56.75 0,-56.75"/>
<polygon fill="#666666" stroke="#666666" points="0,-20.25 0,-20.25 31,-20.25 31,-20.25 0,-20.25"/>
<polygon fill="#666666" stroke="#666666" points="31,-20.25 31,-20.25 153.5,-20.25 153.5,-20.25 31,-20.25"/>
<polygon fill="none" stroke="#666666" points="0,0 0,-77 153.5,-77 153.5,0 0,0"/>
</a>
</g>
</g>
</g>
</svg>
