<?xml version="1.0" encoding="UTF-8" standalone="no"?>
<!DOCTYPE svg PUBLIC "-//W3C//DTD SVG 1.1//EN"
 "http://www.w3.org/Graphics/SVG/1.1/DTD/svg11.dtd">
<!-- Generated by graphviz version 12.2.1 (20241206.2353)
 -->
<!-- Title: hid_host_driver_config_t Pages: 1 -->
<svg width="184pt" height="249pt"
 viewBox="0.00 0.00 184.25 248.75" xmlns="http://www.w3.org/2000/svg" xmlns:xlink="http://www.w3.org/1999/xlink">
<g id="graph0" class="graph" transform="scale(1 1) rotate(0) translate(4 244.75)">
<title>hid_host_driver_config_t</title>
<!-- Node1 -->
<g id="Node000001" class="node">
<title>Node1</title>
<g id="a_Node000001"><a xlink:title="HID configuration structure.">
<polygon fill="#999999" stroke="none" points="176.25,-131.75 0,-131.75 0,0 176.25,0 176.25,-131.75"/>
<text text-anchor="start" x="22.5" y="-116.35" font-family="Arial" font-size="12.00">hid_host_driver_config_t</text>
<text text-anchor="start" x="4" y="-98.1" font-family="Arial" font-size="12.00">+</text>
<text text-anchor="start" x="14.75" y="-98.1" font-family="Arial" font-size="12.00">bool create_background_task</text>
<text text-anchor="start" x="4" y="-79.85" font-family="Arial" font-size="12.00">+</text>
<text text-anchor="start" x="14.75" y="-79.85" font-family="Arial" font-size="12.00">size_t task_priority</text>
<text text-anchor="start" x="4" y="-61.6" font-family="Arial" font-size="12.00">+</text>
<text text-anchor="start" x="14.75" y="-61.6" font-family="Arial" font-size="12.00">size_t stack_size</text>
<text text-anchor="start" x="4" y="-43.35" font-family="Arial" font-size="12.00">+</text>
<text text-anchor="start" x="14.75" y="-43.35" font-family="Arial" font-size="12.00">BaseType_t core_id</text>
<text text-anchor="start" x="4" y="-25.1" font-family="Arial" font-size="12.00">+</text>
<text text-anchor="start" x="14.75" y="-25.1" font-family="Arial" font-size="12.00">void * callback_arg</text>
<text text-anchor="start" x="86.62" y="-6.85" font-family="Arial" font-size="12.00"> </text>
<polygon fill="#666666" stroke="#666666" points="0,-111.5 0,-111.5 176.25,-111.5 176.25,-111.5 0,-111.5"/>
<polygon fill="#666666" stroke="#666666" points="0,-20.25 0,-20.25 12.75,-20.25 12.75,-20.25 0,-20.25"/>
<polygon fill="#666666" stroke="#666666" points="12.75,-20.25 12.75,-20.25 176.25,-20.25 176.25,-20.25 12.75,-20.25"/>
<polygon fill="none" stroke="#666666" points="0,0 0,-131.75 176.25,-131.75 176.25,0 0,0"/>
</a>
</g>
</g>
<!-- Node2 -->
<g id="Node000002" class="node">
<title>Node2</title>
<g id="a_Node000002"><a xlink:href="structhid__interface.html" target="_top" xlink:title="HID Interface structure in device to interact with. After HID device opening keeps the interface conf...">
<polygon fill="white" stroke="none" points="126.62,-240.75 49.62,-240.75 49.62,-182 126.62,-182 126.62,-240.75"/>
<text text-anchor="start" x="53.62" y="-225.35" font-family="Arial" font-size="12.00">hid_interface</text>
<text text-anchor="start" x="86.62" y="-207.1" font-family="Arial" font-size="12.00"> </text>
<text text-anchor="start" x="86.62" y="-188.85" font-family="Arial" font-size="12.00"> </text>
<polygon fill="#666666" stroke="#666666" points="49.62,-220.5 49.62,-220.5 126.62,-220.5 126.62,-220.5 49.62,-220.5"/>
<polygon fill="#666666" stroke="#666666" points="49.62,-202.25 49.62,-202.25 126.62,-202.25 126.62,-202.25 49.62,-202.25"/>
<polygon fill="none" stroke="#666666" points="49.62,-182 49.62,-240.75 126.62,-240.75 126.62,-182 49.62,-182"/>
</a>
</g>
</g>
<!-- Node2&#45;&gt;Node1 -->
<g id="edge1_Node000001_Node000002" class="edge">
<title>Node2&#45;&gt;Node1</title>
<g id="a_edge1_Node000001_Node000002"><a xlink:title=" ">
<path fill="none" stroke="#63b8ff" d="M88.12,-182.02C88.12,-171.07 88.12,-157.95 88.12,-144.55"/>
<polygon fill="none" stroke="#63b8ff" points="88.13,-144.59 84.13,-138.59 88.13,-132.59 92.13,-138.59 88.13,-144.59"/>
</a>
</g>
<text text-anchor="middle" x="115.12" y="-152.6" font-family="Arial" font-size="12.00" fill="grey"> +callback</text>
</g>
</g>
</svg>
