<?xml version="1.0" encoding="UTF-8" standalone="no"?>
<!DOCTYPE svg PUBLIC "-//W3C//DTD SVG 1.1//EN"
 "http://www.w3.org/Graphics/SVG/1.1/DTD/svg11.dtd">
<!-- Generated by graphviz version 12.2.1 (20241206.2353)
 -->
<!-- Title: espnow_sec_data_t Pages: 1 -->
<svg width="123pt" height="103pt"
 viewBox="0.00 0.00 123.25 103.25" xmlns="http://www.w3.org/2000/svg" xmlns:xlink="http://www.w3.org/1999/xlink">
<g id="graph0" class="graph" transform="scale(1 1) rotate(0) translate(4 99.25)">
<title>espnow_sec_data_t</title>
<!-- Node1 -->
<g id="Node000001" class="node">
<title>Node1</title>
<g id="a_Node000001"><a xlink:title=" ">
<polygon fill="#999999" stroke="none" points="115.25,-95.25 0,-95.25 0,0 115.25,0 115.25,-95.25"/>
<text text-anchor="start" x="4" y="-79.85" font-family="Arial" font-size="12.00">espnow_sec_data_t</text>
<text text-anchor="start" x="6.75" y="-61.6" font-family="Arial" font-size="12.00">+</text>
<text text-anchor="start" x="20.25" y="-61.6" font-family="Arial" font-size="12.00">uint8_t src_addr</text>
<text text-anchor="start" x="6.75" y="-43.35" font-family="Arial" font-size="12.00">+</text>
<text text-anchor="start" x="20.25" y="-43.35" font-family="Arial" font-size="12.00">void * data</text>
<text text-anchor="start" x="6.75" y="-25.1" font-family="Arial" font-size="12.00">+</text>
<text text-anchor="start" x="20.25" y="-25.1" font-family="Arial" font-size="12.00">size_t size</text>
<text text-anchor="start" x="56.12" y="-6.85" font-family="Arial" font-size="12.00"> </text>
<polygon fill="#666666" stroke="#666666" points="0,-75 0,-75 115.25,-75 115.25,-75 0,-75"/>
<polygon fill="#666666" stroke="#666666" points="0,-20.25 0,-20.25 18.25,-20.25 18.25,-20.25 0,-20.25"/>
<polygon fill="#666666" stroke="#666666" points="18.25,-20.25 18.25,-20.25 115.25,-20.25 115.25,-20.25 18.25,-20.25"/>
<polygon fill="none" stroke="#666666" points="0,0 0,-95.25 115.25,-95.25 115.25,0 0,0"/>
</a>
</g>
</g>
</g>
</svg>
