<?xml version="1.0" encoding="UTF-8" standalone="no"?>
<!DOCTYPE svg PUBLIC "-//W3C//DTD SVG 1.1//EN"
 "http://www.w3.org/Graphics/SVG/1.1/DTD/svg11.dtd">
<!-- Generated by graphviz version 12.2.1 (20241206.2353)
 -->
<!-- Title: espnow_sec_s Pages: 1 -->
<svg width="115pt" height="176pt"
 viewBox="0.00 0.00 114.50 176.25" xmlns="http://www.w3.org/2000/svg" xmlns:xlink="http://www.w3.org/1999/xlink">
<g id="graph0" class="graph" transform="scale(1 1) rotate(0) translate(4 172.25)">
<title>espnow_sec_s</title>
<!-- Node1 -->
<g id="Node000001" class="node">
<title>Node1</title>
<g id="a_Node000001"><a xlink:title="Struct of security.">
<polygon fill="#999999" stroke="none" points="106.5,-168.25 0,-168.25 0,0 106.5,0 106.5,-168.25"/>
<text text-anchor="start" x="13.12" y="-152.85" font-family="Arial" font-size="12.00">espnow_sec_s</text>
<text text-anchor="start" x="4" y="-134.6" font-family="Arial" font-size="12.00">+</text>
<text text-anchor="start" x="14.75" y="-134.6" font-family="Arial" font-size="12.00">int state</text>
<text text-anchor="start" x="4" y="-116.35" font-family="Arial" font-size="12.00">+</text>
<text text-anchor="start" x="14.75" y="-116.35" font-family="Arial" font-size="12.00">uint8_t key</text>
<text text-anchor="start" x="4" y="-98.1" font-family="Arial" font-size="12.00">+</text>
<text text-anchor="start" x="14.75" y="-98.1" font-family="Arial" font-size="12.00">uint8_t iv</text>
<text text-anchor="start" x="4" y="-79.85" font-family="Arial" font-size="12.00">+</text>
<text text-anchor="start" x="14.75" y="-79.85" font-family="Arial" font-size="12.00">uint8_t key_len</text>
<text text-anchor="start" x="4" y="-61.6" font-family="Arial" font-size="12.00">+</text>
<text text-anchor="start" x="14.75" y="-61.6" font-family="Arial" font-size="12.00">uint8_t iv_len</text>
<text text-anchor="start" x="4" y="-43.35" font-family="Arial" font-size="12.00">+</text>
<text text-anchor="start" x="14.75" y="-43.35" font-family="Arial" font-size="12.00">uint8_t tag_len</text>
<text text-anchor="start" x="4" y="-25.1" font-family="Arial" font-size="12.00">+</text>
<text text-anchor="start" x="14.75" y="-25.1" font-family="Arial" font-size="12.00">void * cipher_ctx</text>
<text text-anchor="start" x="51.75" y="-6.85" font-family="Arial" font-size="12.00"> </text>
<polygon fill="#666666" stroke="#666666" points="0,-148 0,-148 106.5,-148 106.5,-148 0,-148"/>
<polygon fill="#666666" stroke="#666666" points="0,-20.25 0,-20.25 12.75,-20.25 12.75,-20.25 0,-20.25"/>
<polygon fill="#666666" stroke="#666666" points="12.75,-20.25 12.75,-20.25 106.5,-20.25 106.5,-20.25 12.75,-20.25"/>
<polygon fill="none" stroke="#666666" points="0,0 0,-168.25 106.5,-168.25 106.5,0 0,0"/>
</a>
</g>
</g>
</g>
</svg>
