<?xml version="1.0" encoding="UTF-8" standalone="no"?>
<!DOCTYPE svg PUBLIC "-//W3C//DTD SVG 1.1//EN"
 "http://www.w3.org/Graphics/SVG/1.1/DTD/svg11.dtd">
<!-- Generated by graphviz version 12.2.1 (20241206.2353)
 -->
<!-- Title: pcap_packet_header_t Pages: 1 -->
<svg width="152pt" height="122pt"
 viewBox="0.00 0.00 152.00 121.50" xmlns="http://www.w3.org/2000/svg" xmlns:xlink="http://www.w3.org/1999/xlink">
<g id="graph0" class="graph" transform="scale(1 1) rotate(0) translate(4 117.5)">
<title>pcap_packet_header_t</title>
<!-- Node1 -->
<g id="Node000001" class="node">
<title>Node1</title>
<g id="a_Node000001"><a xlink:title="Pcap Packet Header Type Definition.">
<polygon fill="#999999" stroke="none" points="144,-113.5 0,-113.5 0,0 144,0 144,-113.5"/>
<text text-anchor="start" x="10.88" y="-98.1" font-family="Arial" font-size="12.00">pcap_packet_header_t</text>
<text text-anchor="start" x="4" y="-79.85" font-family="Arial" font-size="12.00">+</text>
<text text-anchor="start" x="14.75" y="-79.85" font-family="Arial" font-size="12.00">uint32_t seconds</text>
<text text-anchor="start" x="4" y="-61.6" font-family="Arial" font-size="12.00">+</text>
<text text-anchor="start" x="14.75" y="-61.6" font-family="Arial" font-size="12.00">uint32_t microseconds</text>
<text text-anchor="start" x="4" y="-43.35" font-family="Arial" font-size="12.00">+</text>
<text text-anchor="start" x="14.75" y="-43.35" font-family="Arial" font-size="12.00">uint32_t capture_length</text>
<text text-anchor="start" x="4" y="-25.1" font-family="Arial" font-size="12.00">+</text>
<text text-anchor="start" x="14.75" y="-25.1" font-family="Arial" font-size="12.00">uint32_t packet_length</text>
<text text-anchor="start" x="70.5" y="-6.85" font-family="Arial" font-size="12.00"> </text>
<polygon fill="#666666" stroke="#666666" points="0,-93.25 0,-93.25 144,-93.25 144,-93.25 0,-93.25"/>
<polygon fill="#666666" stroke="#666666" points="0,-20.25 0,-20.25 12.75,-20.25 12.75,-20.25 0,-20.25"/>
<polygon fill="#666666" stroke="#666666" points="12.75,-20.25 12.75,-20.25 144,-20.25 144,-20.25 12.75,-20.25"/>
<polygon fill="none" stroke="#666666" points="0,0 0,-113.5 144,-113.5 144,0 0,0"/>
</a>
</g>
</g>
</g>
</svg>
