<?xml version="1.0" encoding="UTF-8" standalone="no"?>
<!DOCTYPE svg PUBLIC "-//W3C//DTD SVG 1.1//EN"
 "http://www.w3.org/Graphics/SVG/1.1/DTD/svg11.dtd">
<!-- Generated by graphviz version 12.2.1 (20241206.2353)
 -->
<!-- Title: flash_log_info_t Pages: 1 -->
<svg width="101pt" height="103pt"
 viewBox="0.00 0.00 100.75 103.25" xmlns="http://www.w3.org/2000/svg" xmlns:xlink="http://www.w3.org/1999/xlink">
<g id="graph0" class="graph" transform="scale(1 1) rotate(0) translate(4 99.25)">
<title>flash_log_info_t</title>
<!-- Node1 -->
<g id="Node000001" class="node">
<title>Node1</title>
<g id="a_Node000001"><a xlink:title="Create files configuration.">
<polygon fill="#999999" stroke="none" points="92.75,-95.25 0,-95.25 0,0 92.75,0 92.75,-95.25"/>
<text text-anchor="start" x="4" y="-79.85" font-family="Arial" font-size="12.00">flash_log_info_t</text>
<text text-anchor="start" x="5.06" y="-61.6" font-family="Arial" font-size="12.00">+</text>
<text text-anchor="start" x="16.88" y="-61.6" font-family="Arial" font-size="12.00">size_t size</text>
<text text-anchor="start" x="5.06" y="-43.35" font-family="Arial" font-size="12.00">+</text>
<text text-anchor="start" x="16.88" y="-43.35" font-family="Arial" font-size="12.00">int offset</text>
<text text-anchor="start" x="5.06" y="-25.1" font-family="Arial" font-size="12.00">+</text>
<text text-anchor="start" x="16.88" y="-25.1" font-family="Arial" font-size="12.00">uint32_t addr</text>
<text text-anchor="start" x="44.88" y="-6.85" font-family="Arial" font-size="12.00"> </text>
<polygon fill="#666666" stroke="#666666" points="0,-75 0,-75 92.75,-75 92.75,-75 0,-75"/>
<polygon fill="#666666" stroke="#666666" points="0,-20.25 0,-20.25 14.88,-20.25 14.88,-20.25 0,-20.25"/>
<polygon fill="#666666" stroke="#666666" points="14.88,-20.25 14.88,-20.25 92.75,-20.25 92.75,-20.25 14.88,-20.25"/>
<polygon fill="none" stroke="#666666" points="0,0 0,-95.25 92.75,-95.25 92.75,0 0,0"/>
</a>
</g>
</g>
</g>
</svg>
