<?xml version="1.0" encoding="UTF-8" standalone="no"?>
<!DOCTYPE svg PUBLIC "-//W3C//DTD SVG 1.1//EN"
 "http://www.w3.org/Graphics/SVG/1.1/DTD/svg11.dtd">
<!-- Generated by graphviz version 12.2.1 (20241206.2353)
 -->
<!-- Title: hid_host_device_config_t Pages: 1 -->
<svg width="153pt" height="176pt"
 viewBox="0.00 0.00 152.50 175.75" xmlns="http://www.w3.org/2000/svg" xmlns:xlink="http://www.w3.org/1999/xlink">
<g id="graph0" class="graph" transform="scale(1 1) rotate(0) translate(4 171.75)">
<title>hid_host_device_config_t</title>
<!-- Node1 -->
<g id="Node000001" class="node">
<title>Node1</title>
<g id="a_Node000001"><a xlink:title="HID device configuration structure (HID Interface)">
<polygon fill="#999999" stroke="none" points="144.5,-58.75 0,-58.75 0,0 144.5,0 144.5,-58.75"/>
<text text-anchor="start" x="4" y="-43.35" font-family="Arial" font-size="12.00">hid_host_device_config_t</text>
<text text-anchor="start" x="10.12" y="-25.1" font-family="Arial" font-size="12.00">+</text>
<text text-anchor="start" x="27" y="-25.1" font-family="Arial" font-size="12.00">void * callback_arg</text>
<text text-anchor="start" x="70.75" y="-6.85" font-family="Arial" font-size="12.00"> </text>
<polygon fill="#666666" stroke="#666666" points="0,-38.5 0,-38.5 144.5,-38.5 144.5,-38.5 0,-38.5"/>
<polygon fill="#666666" stroke="#666666" points="0,-20.25 0,-20.25 25,-20.25 25,-20.25 0,-20.25"/>
<polygon fill="#666666" stroke="#666666" points="25,-20.25 25,-20.25 144.5,-20.25 144.5,-20.25 25,-20.25"/>
<polygon fill="none" stroke="#666666" points="0,0 0,-58.75 144.5,-58.75 144.5,0 0,0"/>
</a>
</g>
</g>
<!-- Node2 -->
<g id="Node000002" class="node">
<title>Node2</title>
<g id="a_Node000002"><a xlink:href="structhid__interface.html" target="_top" xlink:title="HID Interface structure in device to interact with. After HID device opening keeps the interface conf...">
<polygon fill="white" stroke="none" points="110.75,-167.75 33.75,-167.75 33.75,-109 110.75,-109 110.75,-167.75"/>
<text text-anchor="start" x="37.75" y="-152.35" font-family="Arial" font-size="12.00">hid_interface</text>
<text text-anchor="start" x="70.75" y="-134.1" font-family="Arial" font-size="12.00"> </text>
<text text-anchor="start" x="70.75" y="-115.85" font-family="Arial" font-size="12.00"> </text>
<polygon fill="#666666" stroke="#666666" points="33.75,-147.5 33.75,-147.5 110.75,-147.5 110.75,-147.5 33.75,-147.5"/>
<polygon fill="#666666" stroke="#666666" points="33.75,-129.25 33.75,-129.25 110.75,-129.25 110.75,-129.25 33.75,-129.25"/>
<polygon fill="none" stroke="#666666" points="33.75,-109 33.75,-167.75 110.75,-167.75 110.75,-109 33.75,-109"/>
</a>
</g>
</g>
<!-- Node2&#45;&gt;Node1 -->
<g id="edge1_Node000001_Node000002" class="edge">
<title>Node2&#45;&gt;Node1</title>
<g id="a_edge1_Node000001_Node000002"><a xlink:title=" ">
<path fill="none" stroke="#63b8ff" d="M72.25,-109.26C72.25,-97.68 72.25,-84.03 72.25,-71.38"/>
<polygon fill="none" stroke="#63b8ff" points="72.25,-71.57 68.25,-65.57 72.25,-59.57 76.25,-65.57 72.25,-71.57"/>
</a>
</g>
<text text-anchor="middle" x="99.25" y="-79.6" font-family="Arial" font-size="12.00" fill="grey"> +callback</text>
</g>
</g>
</svg>
