<?xml version="1.0" encoding="UTF-8" standalone="no"?>
<!DOCTYPE svg PUBLIC "-//W3C//DTD SVG 1.1//EN"
 "http://www.w3.org/Graphics/SVG/1.1/DTD/svg11.dtd">
<!-- Generated by graphviz version 12.2.1 (20241206.2353)
 -->
<!-- Title: dns_header_t Pages: 1 -->
<svg width="122pt" height="322pt"
 viewBox="0.00 0.00 121.75 321.75" xmlns="http://www.w3.org/2000/svg" xmlns:xlink="http://www.w3.org/1999/xlink">
<g id="graph0" class="graph" transform="scale(1 1) rotate(0) translate(4 317.75)">
<title>dns_header_t</title>
<!-- Node1 -->
<g id="Node000001" class="node">
<title>Node1</title>
<g id="a_Node000001"><a xlink:title=" ">
<polygon fill="#999999" stroke="none" points="112.75,-77 1,-77 1,0 112.75,0 112.75,-77"/>
<text text-anchor="start" x="20.12" y="-61.6" font-family="Arial" font-size="12.00">dns_header_t</text>
<text text-anchor="start" x="5" y="-43.35" font-family="Arial" font-size="12.00">+</text>
<text text-anchor="start" x="15.75" y="-43.35" font-family="Arial" font-size="12.00">uint16_t id</text>
<text text-anchor="start" x="5" y="-25.1" font-family="Arial" font-size="12.00">+</text>
<text text-anchor="start" x="15.75" y="-25.1" font-family="Arial" font-size="12.00">uint16_t n_record</text>
<text text-anchor="start" x="55.38" y="-6.85" font-family="Arial" font-size="12.00"> </text>
<polygon fill="#666666" stroke="#666666" points="1,-56.75 1,-56.75 112.75,-56.75 112.75,-56.75 1,-56.75"/>
<polygon fill="#666666" stroke="#666666" points="1,-20.25 1,-20.25 13.75,-20.25 13.75,-20.25 1,-20.25"/>
<polygon fill="#666666" stroke="#666666" points="13.75,-20.25 13.75,-20.25 112.75,-20.25 112.75,-20.25 13.75,-20.25"/>
<polygon fill="none" stroke="#666666" points="1,0 1,-77 112.75,-77 112.75,0 1,0"/>
</a>
</g>
</g>
<!-- Node2 -->
<g id="Node000002" class="node">
<title>Node2</title>
<g id="a_Node000002"><a xlink:href="structdns__header__flags__t.html" target="_top" xlink:title=" ">
<polygon fill="white" stroke="none" points="113.75,-313.75 0,-313.75 0,-127.25 113.75,-127.25 113.75,-313.75"/>
<text text-anchor="start" x="4" y="-298.35" font-family="Arial" font-size="12.00">dns_header_flags_t</text>
<text text-anchor="start" x="8.06" y="-280.1" font-family="Arial" font-size="12.00">+</text>
<text text-anchor="start" x="22.88" y="-280.1" font-family="Arial" font-size="12.00">uint8_t rd</text>
<text text-anchor="start" x="8.06" y="-261.85" font-family="Arial" font-size="12.00">+</text>
<text text-anchor="start" x="22.88" y="-261.85" font-family="Arial" font-size="12.00">uint8_t tc</text>
<text text-anchor="start" x="8.06" y="-243.6" font-family="Arial" font-size="12.00">+</text>
<text text-anchor="start" x="22.88" y="-243.6" font-family="Arial" font-size="12.00">uint8_t aa</text>
<text text-anchor="start" x="8.06" y="-225.35" font-family="Arial" font-size="12.00">+</text>
<text text-anchor="start" x="22.88" y="-225.35" font-family="Arial" font-size="12.00">uint8_t opcode</text>
<text text-anchor="start" x="8.06" y="-207.1" font-family="Arial" font-size="12.00">+</text>
<text text-anchor="start" x="22.88" y="-207.1" font-family="Arial" font-size="12.00">uint8_t qr</text>
<text text-anchor="start" x="8.06" y="-188.85" font-family="Arial" font-size="12.00">+</text>
<text text-anchor="start" x="22.88" y="-188.85" font-family="Arial" font-size="12.00">uint8_t rcode</text>
<text text-anchor="start" x="8.06" y="-170.6" font-family="Arial" font-size="12.00">+</text>
<text text-anchor="start" x="22.88" y="-170.6" font-family="Arial" font-size="12.00">uint8_t z</text>
<text text-anchor="start" x="8.06" y="-152.35" font-family="Arial" font-size="12.00">+</text>
<text text-anchor="start" x="22.88" y="-152.35" font-family="Arial" font-size="12.00">uint8_t ra</text>
<text text-anchor="start" x="55.38" y="-134.1" font-family="Arial" font-size="12.00"> </text>
<polygon fill="#666666" stroke="#666666" points="0,-293.5 0,-293.5 113.75,-293.5 113.75,-293.5 0,-293.5"/>
<polygon fill="#666666" stroke="#666666" points="0,-147.5 0,-147.5 20.88,-147.5 20.88,-147.5 0,-147.5"/>
<polygon fill="#666666" stroke="#666666" points="20.88,-147.5 20.88,-147.5 113.75,-147.5 113.75,-147.5 20.88,-147.5"/>
<polygon fill="none" stroke="#666666" points="0,-127.25 0,-313.75 113.75,-313.75 113.75,-127.25 0,-127.25"/>
</a>
</g>
</g>
<!-- Node2&#45;&gt;Node1 -->
<g id="edge1_Node000001_Node000002" class="edge">
<title>Node2&#45;&gt;Node1</title>
<g id="a_edge1_Node000001_Node000002"><a xlink:title=" ">
<path fill="none" stroke="#63b8ff" d="M56.88,-127.39C56.88,-114.32 56.88,-101.31 56.88,-89.46"/>
<polygon fill="none" stroke="#63b8ff" points="56.88,-89.53 52.88,-83.53 56.88,-77.53 60.88,-83.53 56.88,-89.53"/>
</a>
</g>
<text text-anchor="middle" x="74.5" y="-97.85" font-family="Arial" font-size="12.00" fill="grey"> +flags</text>
</g>
</g>
</svg>
