<?xml version="1.0" encoding="UTF-8" standalone="no"?>
<!DOCTYPE svg PUBLIC "-//W3C//DTD SVG 1.1//EN"
 "http://www.w3.org/Graphics/SVG/1.1/DTD/svg11.dtd">
<!-- Generated by graphviz version 12.2.1 (20241206.2353)
 -->
<!-- Title: espnow_prov_init_t Pages: 1 -->
<svg width="558pt" height="340pt"
 viewBox="0.00 0.00 557.75 340.00" xmlns="http://www.w3.org/2000/svg" xmlns:xlink="http://www.w3.org/1999/xlink">
<g id="graph0" class="graph" transform="scale(1 1) rotate(0) translate(4 336)">
<title>espnow_prov_init_t</title>
<!-- Node1 -->
<g id="Node000001" class="node">
<title>Node1</title>
<g id="a_Node000001"><a xlink:title=" ">
<polygon fill="#999999" stroke="none" points="549.75,-204.75 0,-204.75 0,0 549.75,0 549.75,-204.75"/>
<text text-anchor="start" x="222.75" y="-189.35" font-family="Arial" font-size="12.00">espnow_prov_init_t</text>
<text text-anchor="start" x="4" y="-171.1" font-family="Arial" font-size="12.00">+</text>
<text text-anchor="start" x="14.75" y="-171.1" font-family="Arial" font-size="12.00">bool beacon_en</text>
<text text-anchor="start" x="4" y="-152.85" font-family="Arial" font-size="12.00">+</text>
<text text-anchor="start" x="14.75" y="-152.85" font-family="Arial" font-size="12.00">bool wifi_en</text>
<text text-anchor="start" x="4" y="-134.6" font-family="Arial" font-size="12.00">+</text>
<text text-anchor="start" x="14.75" y="-134.6" font-family="Arial" font-size="12.00">bool fix_ch</text>
<text text-anchor="start" x="4" y="-116.35" font-family="Arial" font-size="12.00">+</text>
<text text-anchor="start" x="14.75" y="-116.35" font-family="Arial" font-size="12.00">bool config</text>
<text text-anchor="start" x="4" y="-98.1" font-family="Arial" font-size="12.00">+</text>
<text text-anchor="start" x="14.75" y="-98.1" font-family="Arial" font-size="12.00">espnow_prov_cb_t wifi_cb</text>
<text text-anchor="start" x="4" y="-79.85" font-family="Arial" font-size="12.00">+</text>
<text text-anchor="start" x="14.75" y="-79.85" font-family="Arial" font-size="12.00">uint32_t stop_tick</text>
<text text-anchor="start" x="4" y="-61.6" font-family="Arial" font-size="12.00">+</text>
<text text-anchor="start" x="14.75" y="-61.6" font-family="Arial" font-size="12.00">wifi_pkt_rx_ctrl_t * rx_ctrl</text>
<text text-anchor="start" x="4" y="-43.35" font-family="Arial" font-size="12.00">+</text>
<text text-anchor="start" x="14.75" y="-43.35" font-family="Arial" font-size="12.00">uint8_t * addr</text>
<text text-anchor="start" x="4" y="-25.1" font-family="Arial" font-size="12.00">+</text>
<text text-anchor="start" x="14.75" y="-25.1" font-family="Arial" font-size="12.00">struct espnow_prov_init_t::@060136372260227247170015117321152140340362056320 scan_info</text>
<text text-anchor="start" x="273.38" y="-6.85" font-family="Arial" font-size="12.00"> </text>
<polygon fill="#666666" stroke="#666666" points="0,-184.5 0,-184.5 549.75,-184.5 549.75,-184.5 0,-184.5"/>
<polygon fill="#666666" stroke="#666666" points="0,-20.25 0,-20.25 12.75,-20.25 12.75,-20.25 0,-20.25"/>
<polygon fill="#666666" stroke="#666666" points="12.75,-20.25 12.75,-20.25 549.75,-20.25 549.75,-20.25 12.75,-20.25"/>
<polygon fill="none" stroke="#666666" points="0,0 0,-204.75 549.75,-204.75 549.75,0 0,0"/>
</a>
</g>
</g>
<!-- Node2 -->
<g id="Node000002" class="node">
<title>Node2</title>
<g id="a_Node000002"><a xlink:href="structespnow__prov__responder__s.html" target="_top" xlink:title="Responder information.">
<polygon fill="white" stroke="none" points="351.62,-332 198.12,-332 198.12,-255 351.62,-255 351.62,-332"/>
<text text-anchor="start" x="202.12" y="-316.6" font-family="Arial" font-size="12.00">espnow_prov_responder_s</text>
<text text-anchor="start" x="211.25" y="-298.35" font-family="Arial" font-size="12.00">+</text>
<text text-anchor="start" x="231.12" y="-298.35" font-family="Arial" font-size="12.00">char product_id</text>
<text text-anchor="start" x="211.25" y="-280.1" font-family="Arial" font-size="12.00">+</text>
<text text-anchor="start" x="231.12" y="-280.1" font-family="Arial" font-size="12.00">char device_name</text>
<text text-anchor="start" x="273.38" y="-261.85" font-family="Arial" font-size="12.00"> </text>
<polygon fill="#666666" stroke="#666666" points="198.12,-311.75 198.12,-311.75 351.62,-311.75 351.62,-311.75 198.12,-311.75"/>
<polygon fill="#666666" stroke="#666666" points="198.12,-275.25 198.12,-275.25 229.12,-275.25 229.12,-275.25 198.12,-275.25"/>
<polygon fill="#666666" stroke="#666666" points="229.12,-275.25 229.12,-275.25 351.62,-275.25 351.62,-275.25 229.12,-275.25"/>
<polygon fill="none" stroke="#666666" points="198.12,-255 198.12,-332 351.62,-332 351.62,-255 198.12,-255"/>
</a>
</g>
</g>
<!-- Node2&#45;&gt;Node1 -->
<g id="edge1_Node000001_Node000002" class="edge">
<title>Node2&#45;&gt;Node1</title>
<g id="a_edge1_Node000001_Node000002"><a xlink:title=" ">
<path fill="none" stroke="#63b8ff" d="M274.88,-255.13C274.88,-243.96 274.88,-231.08 274.88,-217.64"/>
<polygon fill="none" stroke="#63b8ff" points="274.88,-217.52 270.88,-211.52 274.88,-205.52 278.88,-211.52 274.88,-217.52"/>
</a>
</g>
<text text-anchor="middle" x="319.88" y="-225.6" font-family="Arial" font-size="12.00" fill="grey"> +responder_info</text>
</g>
</g>
</svg>
