<?xml version="1.0" encoding="UTF-8" standalone="no"?>
<!DOCTYPE svg PUBLIC "-//W3C//DTD SVG 1.1//EN"
 "http://www.w3.org/Graphics/SVG/1.1/DTD/svg11.dtd">
<!-- Generated by graphviz version 12.2.1 (20241206.2353)
 -->
<!-- Title: ps4::app_event_queue_t Pages: 1 -->
<svg width="622pt" height="140pt"
 viewBox="0.00 0.00 622.25 139.75" xmlns="http://www.w3.org/2000/svg" xmlns:xlink="http://www.w3.org/1999/xlink">
<g id="graph0" class="graph" transform="scale(1 1) rotate(0) translate(4 135.75)">
<title>ps4::app_event_queue_t</title>
<!-- Node1 -->
<g id="Node000001" class="node">
<title>Node1</title>
<g id="a_Node000001"><a xlink:title="APP event queue.">
<polygon fill="#999999" stroke="none" points="614.25,-131.75 0,-131.75 0,0 614.25,0 614.25,-131.75"/>
<text text-anchor="start" x="241.12" y="-116.35" font-family="Arial" font-size="12.00">ps4::app_event_queue_t</text>
<text text-anchor="start" x="4" y="-98.1" font-family="Arial" font-size="12.00">+</text>
<text text-anchor="start" x="14.75" y="-98.1" font-family="Arial" font-size="12.00">app_event_group_t event_group</text>
<text text-anchor="start" x="4" y="-79.85" font-family="Arial" font-size="12.00">+</text>
<text text-anchor="start" x="14.75" y="-79.85" font-family="Arial" font-size="12.00">hid_host_device_handle_t handle</text>
<text text-anchor="start" x="4" y="-61.6" font-family="Arial" font-size="12.00">+</text>
<text text-anchor="start" x="14.75" y="-61.6" font-family="Arial" font-size="12.00">hid_host_driver_event_t event</text>
<text text-anchor="start" x="4" y="-43.35" font-family="Arial" font-size="12.00">+</text>
<text text-anchor="start" x="14.75" y="-43.35" font-family="Arial" font-size="12.00">void * arg</text>
<text text-anchor="start" x="4" y="-25.1" font-family="Arial" font-size="12.00">+</text>
<text text-anchor="start" x="14.75" y="-25.1" font-family="Arial" font-size="12.00">struct ps4::app_event_queue_t::@123061022327074070366157012040011344170056241055 hid_host_device</text>
<text text-anchor="start" x="305.62" y="-6.85" font-family="Arial" font-size="12.00"> </text>
<polygon fill="#666666" stroke="#666666" points="0,-111.5 0,-111.5 614.25,-111.5 614.25,-111.5 0,-111.5"/>
<polygon fill="#666666" stroke="#666666" points="0,-20.25 0,-20.25 12.75,-20.25 12.75,-20.25 0,-20.25"/>
<polygon fill="#666666" stroke="#666666" points="12.75,-20.25 12.75,-20.25 614.25,-20.25 614.25,-20.25 12.75,-20.25"/>
<polygon fill="none" stroke="#666666" points="0,0 0,-131.75 614.25,-131.75 614.25,0 0,0"/>
</a>
</g>
</g>
</g>
</svg>
