<?xml version="1.0" encoding="UTF-8" standalone="no"?>
<!DOCTYPE svg PUBLIC "-//W3C//DTD SVG 1.1//EN"
 "http://www.w3.org/Graphics/SVG/1.1/DTD/svg11.dtd">
<!-- Generated by graphviz version 12.2.1 (20241206.2353)
 -->
<!-- Title: espnow_bindlist_t Pages: 1 -->
<svg width="220pt" height="212pt"
 viewBox="0.00 0.00 219.50 212.25" xmlns="http://www.w3.org/2000/svg" xmlns:xlink="http://www.w3.org/1999/xlink">

<svg id="main" version="1.1" xmlns="http://www.w3.org/2000/svg" xmlns:xlink="http://www.w3.org/1999/xlink" xml:space="preserve">

<style type="text/css"><![CDATA[
.node, .edge {opacity: 0.7;}
.node.selected, .edge.selected {opacity: 1;}
.edge:hover path { stroke: red; }
.edge:hover polygon { stroke: red; fill: red; }
]]></style>
<script type="application/ecmascript" xlink:href="svg.min.js"/>
<svg id="graph" class="graph">
<g id="graph0" class="graph" transform="scale(1 1) rotate(0) translate(4 208.25)">
<title>espnow_bindlist_t</title>
<!-- Node1 -->
<g id="Node000001" class="node">
<title>Node1</title>
<g id="a_Node000001"><a xlink:title=" ">
<polygon fill="#999999" stroke="none" points="158.12,-77 53.38,-77 53.38,0 158.12,0 158.12,-77"/>
<text text-anchor="start" x="57.38" y="-61.6" font-family="Arial" font-size="12.00">espnow_bindlist_t</text>
<text text-anchor="start" x="64.44" y="-43.35" font-family="Arial" font-size="12.00">+</text>
<text text-anchor="start" x="82.25" y="-43.35" font-family="Arial" font-size="12.00">size_t size</text>
<text text-anchor="start" x="64.44" y="-25.1" font-family="Arial" font-size="12.00">+</text>
<text text-anchor="start" x="82.25" y="-25.1" font-family="Arial" font-size="12.00">bool is_init</text>
<text text-anchor="start" x="104.25" y="-6.85" font-family="Arial" font-size="12.00"> </text>
<polygon fill="#666666" stroke="#666666" points="53.38,-56.75 53.38,-56.75 158.12,-56.75 158.12,-56.75 53.38,-56.75"/>
<polygon fill="#666666" stroke="#666666" points="53.38,-20.25 53.38,-20.25 80.25,-20.25 80.25,-20.25 53.38,-20.25"/>
<polygon fill="#666666" stroke="#666666" points="80.25,-20.25 80.25,-20.25 158.12,-20.25 158.12,-20.25 80.25,-20.25"/>
<polygon fill="none" stroke="#666666" points="53.38,0 53.38,-77 158.12,-77 158.12,0 53.38,0"/>
</a>
</g>
</g>
<!-- Node2 -->
<g id="Node000002" class="node">
<title>Node2</title>
<g id="a_Node000002"><a xlink:href="structespnow__ctrl__bind__info__s.html" target="_top" xlink:title="Bind information from initiator.">
<polygon fill="white" stroke="none" points="211.5,-204.25 0,-204.25 0,-127.25 211.5,-127.25 211.5,-204.25"/>
<text text-anchor="start" x="39" y="-188.85" font-family="Arial" font-size="12.00">espnow_ctrl_bind_info_s</text>
<text text-anchor="start" x="4" y="-170.6" font-family="Arial" font-size="12.00">+</text>
<text text-anchor="start" x="14.75" y="-170.6" font-family="Arial" font-size="12.00">uint8_t mac</text>
<text text-anchor="start" x="4" y="-152.35" font-family="Arial" font-size="12.00">+</text>
<text text-anchor="start" x="14.75" y="-152.35" font-family="Arial" font-size="12.00">espnow_attribute_t initiator_attribute</text>
<text text-anchor="start" x="104.25" y="-134.1" font-family="Arial" font-size="12.00"> </text>
<polygon fill="#666666" stroke="#666666" points="0,-184 0,-184 211.5,-184 211.5,-184 0,-184"/>
<polygon fill="#666666" stroke="#666666" points="0,-147.5 0,-147.5 12.75,-147.5 12.75,-147.5 0,-147.5"/>
<polygon fill="#666666" stroke="#666666" points="12.75,-147.5 12.75,-147.5 211.5,-147.5 211.5,-147.5 12.75,-147.5"/>
<polygon fill="none" stroke="#666666" points="0,-127.25 0,-204.25 211.5,-204.25 211.5,-127.25 0,-127.25"/>
</a>
</g>
</g>
<!-- Node2&#45;&gt;Node1 -->
<g id="edge1_Node000001_Node000002" class="edge">
<title>Node2&#45;&gt;Node1</title>
<g id="a_edge1_Node000001_Node000002"><a xlink:title=" ">
<path fill="none" stroke="#63b8ff" d="M105.75,-127.51C105.75,-115.63 105.75,-102.28 105.75,-89.64"/>
<polygon fill="none" stroke="#63b8ff" points="105.75,-89.71 101.75,-83.71 105.75,-77.71 109.75,-83.71 105.75,-89.71"/>
</a>
</g>
<text text-anchor="middle" x="122.25" y="-97.85" font-family="Arial" font-size="12.00" fill="grey"> +data</text>
</g>
</g>
</svg>
</svg>

<style type='text/css'>
<![CDATA[
[data-mouse-over-selected='false'] { opacity: 0.7; }
[data-mouse-over-selected='true']  { opacity: 1.0; }
]]>
</style>
<script type="application/ecmascript"><![CDATA[
document.addEventListener('DOMContentLoaded', (event) => {
  highlightEdges();
  highlightAdjacentNodes();
});
]]></script>
</svg>
