<?xml version="1.0" encoding="UTF-8" standalone="no"?>
<!DOCTYPE svg PUBLIC "-//W3C//DTD SVG 1.1//EN"
 "http://www.w3.org/Graphics/SVG/1.1/DTD/svg11.dtd">
<!-- Generated by graphviz version 12.2.1 (20241206.2353)
 -->
<!-- Title: espnow_group_item Pages: 1 -->
<svg width="129pt" height="67pt"
 viewBox="0.00 0.00 128.75 66.75" xmlns="http://www.w3.org/2000/svg" xmlns:xlink="http://www.w3.org/1999/xlink">
<g id="graph0" class="graph" transform="scale(1 1) rotate(0) translate(4 62.75)">
<title>espnow_group_item</title>
<!-- Node1 -->
<g id="Node000001" class="node">
<title>Node1</title>
<g id="a_Node000001"><a xlink:title=" ">
<polygon fill="#999999" stroke="none" points="120.75,-58.75 0,-58.75 0,0 120.75,0 120.75,-58.75"/>
<text text-anchor="start" x="6" y="-43.35" font-family="Arial" font-size="12.00">espnow_group_item</text>
<text text-anchor="start" x="4" y="-25.1" font-family="Arial" font-size="12.00">+</text>
<text text-anchor="start" x="14.75" y="-25.1" font-family="Arial" font-size="12.00">espnow_group_t id</text>
<text text-anchor="start" x="58.88" y="-6.85" font-family="Arial" font-size="12.00"> </text>
<polygon fill="#666666" stroke="#666666" points="0,-38.5 0,-38.5 120.75,-38.5 120.75,-38.5 0,-38.5"/>
<polygon fill="#666666" stroke="#666666" points="0,-20.25 0,-20.25 12.75,-20.25 12.75,-20.25 0,-20.25"/>
<polygon fill="#666666" stroke="#666666" points="12.75,-20.25 12.75,-20.25 120.75,-20.25 120.75,-20.25 12.75,-20.25"/>
<polygon fill="none" stroke="#666666" points="0,0 0,-58.75 120.75,-58.75 120.75,0 0,0"/>
</a>
</g>
</g>
</g>
</svg>
