<?xml version="1.0" encoding="UTF-8" standalone="no"?>
<!DOCTYPE svg PUBLIC "-//W3C//DTD SVG 1.1//EN"
 "http://www.w3.org/Graphics/SVG/1.1/DTD/svg11.dtd">
<!-- Generated by graphviz version 12.2.1 (20241206.2353)
 -->
<!-- Title: espnow_prov_initiator_s Pages: 1 -->
<svg width="871pt" height="213pt"
 viewBox="0.00 0.00 870.50 212.75" xmlns="http://www.w3.org/2000/svg" xmlns:xlink="http://www.w3.org/1999/xlink">
<g id="graph0" class="graph" transform="scale(1 1) rotate(0) translate(4 208.75)">
<title>espnow_prov_initiator_s</title>
<!-- Node1 -->
<g id="Node000001" class="node">
<title>Node1</title>
<g id="a_Node000001"><a xlink:title="Initiator information.">
<polygon fill="#999999" stroke="none" points="862.5,-204.75 0,-204.75 0,0 862.5,0 862.5,-204.75"/>
<text text-anchor="start" x="366" y="-189.35" font-family="Arial" font-size="12.00">espnow_prov_initiator_s</text>
<text text-anchor="start" x="4" y="-171.1" font-family="Arial" font-size="12.00">+</text>
<text text-anchor="start" x="14.75" y="-171.1" font-family="Arial" font-size="12.00">char product_id</text>
<text text-anchor="start" x="4" y="-152.85" font-family="Arial" font-size="12.00">+</text>
<text text-anchor="start" x="14.75" y="-152.85" font-family="Arial" font-size="12.00">char device_name</text>
<text text-anchor="start" x="4" y="-134.6" font-family="Arial" font-size="12.00">+</text>
<text text-anchor="start" x="14.75" y="-134.6" font-family="Arial" font-size="12.00">espnow_prov_auth_mode_t auth_mode</text>
<text text-anchor="start" x="4" y="-116.35" font-family="Arial" font-size="12.00">+</text>
<text text-anchor="start" x="14.75" y="-116.35" font-family="Arial" font-size="12.00">char device_secret</text>
<text text-anchor="start" x="4" y="-98.1" font-family="Arial" font-size="12.00">+</text>
<text text-anchor="start" x="14.75" y="-98.1" font-family="Arial" font-size="12.00">char product_secret</text>
<text text-anchor="start" x="4" y="-79.85" font-family="Arial" font-size="12.00">+</text>
<text text-anchor="start" x="14.75" y="-79.85" font-family="Arial" font-size="12.00">char cert_secret</text>
<text text-anchor="start" x="4" y="-61.6" font-family="Arial" font-size="12.00">+</text>
<text text-anchor="start" x="14.75" y="-61.6" font-family="Arial" font-size="12.00">union espnow_prov_initiator_s::@043041052202217063034332372160144350266260376206 @011035043213242377221072205350177346036254320364</text>
<text text-anchor="start" x="4" y="-43.35" font-family="Arial" font-size="12.00">+</text>
<text text-anchor="start" x="14.75" y="-43.35" font-family="Arial" font-size="12.00">uint8_t custom_size</text>
<text text-anchor="start" x="4" y="-25.1" font-family="Arial" font-size="12.00">+</text>
<text text-anchor="start" x="14.75" y="-25.1" font-family="Arial" font-size="12.00">uint8_t custom_data</text>
<text text-anchor="start" x="429.75" y="-6.85" font-family="Arial" font-size="12.00"> </text>
<polygon fill="#666666" stroke="#666666" points="0,-184.5 0,-184.5 862.5,-184.5 862.5,-184.5 0,-184.5"/>
<polygon fill="#666666" stroke="#666666" points="0,-20.25 0,-20.25 12.75,-20.25 12.75,-20.25 0,-20.25"/>
<polygon fill="#666666" stroke="#666666" points="12.75,-20.25 12.75,-20.25 862.5,-20.25 862.5,-20.25 12.75,-20.25"/>
<polygon fill="none" stroke="#666666" points="0,0 0,-204.75 862.5,-204.75 862.5,0 0,0"/>
</a>
</g>
</g>
</g>
</svg>
