<?xml version="1.0" encoding="UTF-8" standalone="no"?>
<!DOCTYPE svg PUBLIC "-//W3C//DTD SVG 1.1//EN"
 "http://www.w3.org/Graphics/SVG/1.1/DTD/svg11.dtd">
<!-- Generated by graphviz version 12.2.1 (20241206.2353)
 -->
<!-- Title: espnow_ota_responder_s Pages: 1 -->
<svg width="171pt" height="122pt"
 viewBox="0.00 0.00 170.75 121.50" xmlns="http://www.w3.org/2000/svg" xmlns:xlink="http://www.w3.org/1999/xlink">
<g id="graph0" class="graph" transform="scale(1 1) rotate(0) translate(4 117.5)">
<title>espnow_ota_responder_s</title>
<!-- Node1 -->
<g id="Node000001" class="node">
<title>Node1</title>
<g id="a_Node000001"><a xlink:title="Responder upgrade information.">
<polygon fill="#999999" stroke="none" points="162.75,-113.5 0,-113.5 0,0 162.75,0 162.75,-113.5"/>
<text text-anchor="start" x="12" y="-98.1" font-family="Arial" font-size="12.00">espnow_ota_responder_s</text>
<text text-anchor="start" x="4" y="-79.85" font-family="Arial" font-size="12.00">+</text>
<text text-anchor="start" x="14.75" y="-79.85" font-family="Arial" font-size="12.00">uint8_t mac</text>
<text text-anchor="start" x="4" y="-61.6" font-family="Arial" font-size="12.00">+</text>
<text text-anchor="start" x="14.75" y="-61.6" font-family="Arial" font-size="12.00">int8_t rssi</text>
<text text-anchor="start" x="4" y="-43.35" font-family="Arial" font-size="12.00">+</text>
<text text-anchor="start" x="14.75" y="-43.35" font-family="Arial" font-size="12.00">uint8_t channel</text>
<text text-anchor="start" x="4" y="-25.1" font-family="Arial" font-size="12.00">+</text>
<text text-anchor="start" x="14.75" y="-25.1" font-family="Arial" font-size="12.00">esp_app_desc_t app_desc</text>
<text text-anchor="start" x="79.88" y="-6.85" font-family="Arial" font-size="12.00"> </text>
<polygon fill="#666666" stroke="#666666" points="0,-93.25 0,-93.25 162.75,-93.25 162.75,-93.25 0,-93.25"/>
<polygon fill="#666666" stroke="#666666" points="0,-20.25 0,-20.25 12.75,-20.25 12.75,-20.25 0,-20.25"/>
<polygon fill="#666666" stroke="#666666" points="12.75,-20.25 12.75,-20.25 162.75,-20.25 162.75,-20.25 12.75,-20.25"/>
<polygon fill="none" stroke="#666666" points="0,0 0,-113.5 162.75,-113.5 162.75,0 0,0"/>
</a>
</g>
</g>
</g>
</svg>
