<?xml version="1.0" encoding="UTF-8" standalone="no"?>
<!DOCTYPE svg PUBLIC "-//W3C//DTD SVG 1.1//EN"
 "http://www.w3.org/Graphics/SVG/1.1/DTD/svg11.dtd">
<!-- Generated by graphviz version 12.2.1 (20241206.2353)
 -->
<!-- Title: espnow_ota_data_t Pages: 1 -->
<svg width="121pt" height="103pt"
 viewBox="0.00 0.00 121.00 103.25" xmlns="http://www.w3.org/2000/svg" xmlns:xlink="http://www.w3.org/1999/xlink">

<svg id="main" version="1.1" xmlns="http://www.w3.org/2000/svg" xmlns:xlink="http://www.w3.org/1999/xlink" xml:space="preserve">

<style type="text/css"><![CDATA[
.node, .edge {opacity: 0.7;}
.node.selected, .edge.selected {opacity: 1;}
.edge:hover path { stroke: red; }
.edge:hover polygon { stroke: red; fill: red; }
]]></style>
<script type="application/ecmascript" xlink:href="svg.min.js"/>
<svg id="graph" class="graph">
<g id="graph0" class="graph" transform="scale(1 1) rotate(0) translate(4 99.25)">
<title>espnow_ota_data_t</title>
<!-- Node1 -->
<g id="Node000001" class="node">
<title>Node1</title>
<g id="a_Node000001"><a xlink:title=" ">
<polygon fill="#999999" stroke="none" points="113,-95.25 0,-95.25 0,0 113,0 113,-95.25"/>
<text text-anchor="start" x="4" y="-79.85" font-family="Arial" font-size="12.00">espnow_ota_data_t</text>
<text text-anchor="start" x="6.19" y="-61.6" font-family="Arial" font-size="12.00">+</text>
<text text-anchor="start" x="19.12" y="-61.6" font-family="Arial" font-size="12.00">uint8_t src_addr</text>
<text text-anchor="start" x="6.19" y="-43.35" font-family="Arial" font-size="12.00">+</text>
<text text-anchor="start" x="19.12" y="-43.35" font-family="Arial" font-size="12.00">void * data</text>
<text text-anchor="start" x="6.19" y="-25.1" font-family="Arial" font-size="12.00">+</text>
<text text-anchor="start" x="19.12" y="-25.1" font-family="Arial" font-size="12.00">size_t size</text>
<text text-anchor="start" x="55" y="-6.85" font-family="Arial" font-size="12.00"> </text>
<polygon fill="#666666" stroke="#666666" points="0,-75 0,-75 113,-75 113,-75 0,-75"/>
<polygon fill="#666666" stroke="#666666" points="0,-20.25 0,-20.25 17.12,-20.25 17.12,-20.25 0,-20.25"/>
<polygon fill="#666666" stroke="#666666" points="17.12,-20.25 17.12,-20.25 113,-20.25 113,-20.25 17.12,-20.25"/>
<polygon fill="none" stroke="#666666" points="0,0 0,-95.25 113,-95.25 113,0 0,0"/>
</a>
</g>
</g>
</g>
</svg>
</svg>

<style type='text/css'>
<![CDATA[
[data-mouse-over-selected='false'] { opacity: 0.7; }
[data-mouse-over-selected='true']  { opacity: 1.0; }
]]>
</style>
<script type="application/ecmascript"><![CDATA[
document.addEventListener('DOMContentLoaded', (event) => {
  highlightEdges();
  highlightAdjacentNodes();
});
]]></script>
</svg>
