<?xml version="1.0" encoding="UTF-8" standalone="no"?>
<!DOCTYPE svg PUBLIC "-//W3C//DTD SVG 1.1//EN"
 "http://www.w3.org/Graphics/SVG/1.1/DTD/svg11.dtd">
<!-- Generated by graphviz version 12.2.1 (20241206.2353)
 -->
<!-- Title: espnow_iperf_cfg Pages: 1 -->
<!--zoomable 504 -->

<svg id="main" version="1.1" xmlns="http://www.w3.org/2000/svg" xmlns:xlink="http://www.w3.org/1999/xlink" xml:space="preserve" onload="init(evt)">

<style type="text/css"><![CDATA[
.node, .edge {opacity: 0.7;}
.node.selected, .edge.selected {opacity: 1;}
.edge:hover path { stroke: red; }
.edge:hover polygon { stroke: red; fill: red; }
]]></style>

<defs>
  <circle id="rim" cx="0" cy="0" r="7"/>
  <circle id="rim2" cx="0" cy="0" r="3.5"/>
  <g id="zoomPlus">
    <use xlink:href="#rim" fill="#404040"><set attributeName="fill" to="#808080" begin="zoomplus.mouseover" end="zoomplus.mouseout"/></use>
    <path d="M-4,0h8M0,-4v8" fill="none" stroke="white" stroke-width="1.5" pointer-events="none"/>
  </g>
  <g id="zoomMin">
    <use xlink:href="#rim" fill="#404040"><set attributeName="fill" to="#808080" begin="zoomminus.mouseover" end="zoomminus.mouseout"/></use>
    <path d="M-4,0h8" fill="none" stroke="white" stroke-width="1.5" pointer-events="none"/>
  </g>
  <g id="arrowUp" transform="translate(30 24)">
    <use xlink:href="#rim"/>
    <path pointer-events="none" fill="none" stroke="white" stroke-width="1.5" d="M0,-3.0v7 M-2.5,-0.5L0,-3.0L2.5,-0.5"/>
  </g>
  <g id="arrowRight" transform="rotate(90) translate(36 -43)">
    <use xlink:href="#rim"/>
    <path pointer-events="none" fill="none" stroke="white" stroke-width="1.5" d="M0,-3.0v7 M-2.5,-0.5L0,-3.0L2.5,-0.5"/>
  </g>
  <g id="arrowDown" transform="rotate(180) translate(-30 -48)">
    <use xlink:href="#rim"/>
    <path pointer-events="none" fill="none" stroke="white" stroke-width="1.5" d="M0,-3.0v7 M-2.5,-0.5L0,-3.0L2.5,-0.5"/>
  </g>
  <g id="arrowLeft" transform="rotate(270) translate(-36 17)">
    <use xlink:href="#rim"/>
    <path pointer-events="none" fill="none" stroke="white" stroke-width="1.5" d="M0,-3.0v7 M-2.5,-0.5L0,-3.0L2.5,-0.5"/>
  </g>
  <g id="resetDef">
    <use xlink:href="#rim2" fill="#404040"><set attributeName="fill" to="#808080" begin="reset.mouseover" end="reset.mouseout"/></use>
  </g>
</defs>
<script type="application/ecmascript">
var viewWidth = 178;
var viewHeight = 504;
var sectionId = 'dynsection-0';
</script>
<script type="application/ecmascript" xlink:href="svg.min.js"/>
<svg id="graph" class="graph">
<g id="viewport">
<title>espnow_iperf_cfg</title>
<!-- Node1 -->
<g id="Node000001" class="node">
<title>Node1</title>
<g id="a_Node000001"><a xlink:title=" ">
<polygon fill="#999999" stroke="none" points="162.38,-186.5 7.12,-186.5 7.12,0 162.38,0 162.38,-186.5"/>
<text text-anchor="start" x="37.5" y="-171.1" font-family="Arial" font-size="12.00">espnow_iperf_cfg</text>
<text text-anchor="start" x="11.12" y="-152.85" font-family="Arial" font-size="12.00">+</text>
<text text-anchor="start" x="21.88" y="-152.85" font-family="Arial" font-size="12.00">bool finish</text>
<text text-anchor="start" x="11.12" y="-134.6" font-family="Arial" font-size="12.00">+</text>
<text text-anchor="start" x="21.88" y="-134.6" font-family="Arial" font-size="12.00">uint16_t packet_len</text>
<text text-anchor="start" x="11.12" y="-116.35" font-family="Arial" font-size="12.00">+</text>
<text text-anchor="start" x="21.88" y="-116.35" font-family="Arial" font-size="12.00">uint16_t transmit_time</text>
<text text-anchor="start" x="11.12" y="-98.1" font-family="Arial" font-size="12.00">+</text>
<text text-anchor="start" x="21.88" y="-98.1" font-family="Arial" font-size="12.00">uint32_t ping_count</text>
<text text-anchor="start" x="11.12" y="-79.85" font-family="Arial" font-size="12.00">+</text>
<text text-anchor="start" x="21.88" y="-79.85" font-family="Arial" font-size="12.00">uint16_t report_interval</text>
<text text-anchor="start" x="11.12" y="-61.6" font-family="Arial" font-size="12.00">+</text>
<text text-anchor="start" x="21.88" y="-61.6" font-family="Arial" font-size="12.00">espnow_data_type_t type</text>
<text text-anchor="start" x="11.12" y="-43.35" font-family="Arial" font-size="12.00">+</text>
<text text-anchor="start" x="21.88" y="-43.35" font-family="Arial" font-size="12.00">uint8_t addr</text>
<text text-anchor="start" x="11.12" y="-25.1" font-family="Arial" font-size="12.00">+</text>
<text text-anchor="start" x="21.88" y="-25.1" font-family="Arial" font-size="12.00">int gpio_num</text>
<text text-anchor="start" x="83.25" y="-6.85" font-family="Arial" font-size="12.00"> </text>
<polygon fill="#666666" stroke="#666666" points="7.12,-166.25 7.12,-166.25 162.38,-166.25 162.38,-166.25 7.12,-166.25"/>
<polygon fill="#666666" stroke="#666666" points="7.12,-20.25 7.12,-20.25 19.88,-20.25 19.88,-20.25 7.12,-20.25"/>
<polygon fill="#666666" stroke="#666666" points="19.88,-20.25 19.88,-20.25 162.38,-20.25 162.38,-20.25 19.88,-20.25"/>
<polygon fill="none" stroke="#666666" points="7.12,0 7.12,-186.5 162.38,-186.5 162.38,0 7.12,0"/>
</a>
</g>
</g>
<!-- Node2 -->
<g id="Node000002" class="node">
<title>Node2</title>
<g id="a_Node000002"><a xlink:href="structespnow__frame__head__s.html" target="_top" xlink:title="Frame header of espnow.">
<polygon fill="white" stroke="none" points="169.5,-496.25 0,-496.25 0,-236.75 169.5,-236.75 169.5,-496.25"/>
<text text-anchor="start" x="22.12" y="-480.85" font-family="Arial" font-size="12.00">espnow_frame_head_s</text>
<text text-anchor="start" x="4" y="-462.6" font-family="Arial" font-size="12.00">+</text>
<text text-anchor="start" x="14.75" y="-462.6" font-family="Arial" font-size="12.00">uint16_t magic</text>
<text text-anchor="start" x="4" y="-444.35" font-family="Arial" font-size="12.00">+</text>
<text text-anchor="start" x="14.75" y="-444.35" font-family="Arial" font-size="12.00">uint8_t channel</text>
<text text-anchor="start" x="4" y="-426.1" font-family="Arial" font-size="12.00">+</text>
<text text-anchor="start" x="14.75" y="-426.1" font-family="Arial" font-size="12.00">bool filter_adjacent_channel</text>
<text text-anchor="start" x="4" y="-407.85" font-family="Arial" font-size="12.00">+</text>
<text text-anchor="start" x="14.75" y="-407.85" font-family="Arial" font-size="12.00">bool filter_weak_signal</text>
<text text-anchor="start" x="4" y="-389.6" font-family="Arial" font-size="12.00">+</text>
<text text-anchor="start" x="14.75" y="-389.6" font-family="Arial" font-size="12.00">bool security</text>
<text text-anchor="start" x="4" y="-371.35" font-family="Arial" font-size="12.00">+</text>
<text text-anchor="start" x="14.75" y="-371.35" font-family="Arial" font-size="12.00">uint16_t __pad0__</text>
<text text-anchor="start" x="4" y="-353.1" font-family="Arial" font-size="12.00">+</text>
<text text-anchor="start" x="14.75" y="-353.1" font-family="Arial" font-size="12.00">bool broadcast</text>
<text text-anchor="start" x="4" y="-334.85" font-family="Arial" font-size="12.00">+</text>
<text text-anchor="start" x="14.75" y="-334.85" font-family="Arial" font-size="12.00">bool group</text>
<text text-anchor="start" x="4" y="-316.6" font-family="Arial" font-size="12.00">+</text>
<text text-anchor="start" x="14.75" y="-316.6" font-family="Arial" font-size="12.00">bool ack</text>
<text text-anchor="start" x="4" y="-298.35" font-family="Arial" font-size="12.00">+</text>
<text text-anchor="start" x="14.75" y="-298.35" font-family="Arial" font-size="12.00">uint16_t retransmit_count</text>
<text text-anchor="start" x="4" y="-280.1" font-family="Arial" font-size="12.00">+</text>
<text text-anchor="start" x="14.75" y="-280.1" font-family="Arial" font-size="12.00">uint8_t forward_ttl</text>
<text text-anchor="start" x="4" y="-261.85" font-family="Arial" font-size="12.00">+</text>
<text text-anchor="start" x="14.75" y="-261.85" font-family="Arial" font-size="12.00">int8_t forward_rssi</text>
<text text-anchor="start" x="83.25" y="-243.6" font-family="Arial" font-size="12.00"> </text>
<polygon fill="#666666" stroke="#666666" points="0,-476 0,-476 169.5,-476 169.5,-476 0,-476"/>
<polygon fill="#666666" stroke="#666666" points="0,-257 0,-257 12.75,-257 12.75,-257 0,-257"/>
<polygon fill="#666666" stroke="#666666" points="12.75,-257 12.75,-257 169.5,-257 169.5,-257 12.75,-257"/>
<polygon fill="none" stroke="#666666" points="0,-236.75 0,-496.25 169.5,-496.25 169.5,-236.75 0,-236.75"/>
</a>
</g>
</g>
<!-- Node2&#45;&gt;Node1 -->
<g id="edge1_Node000001_Node000002" class="edge">
<title>Node2&#45;&gt;Node1</title>
<g id="a_edge1_Node000001_Node000002"><a xlink:title=" ">
<path fill="none" stroke="#63b8ff" d="M84.75,-237.02C84.75,-224.32 84.75,-211.53 84.75,-199.11"/>
<polygon fill="none" stroke="#63b8ff" points="84.75,-199.21 80.75,-193.21 84.75,-187.21 88.75,-193.21 84.75,-199.21"/>
</a>
</g>
<text text-anchor="middle" x="121.5" y="-207.35" font-family="Arial" font-size="12.00" fill="grey"> +frame_head</text>
</g>
</g>
</svg>

<g id="navigator" transform="translate(0 0)" fill="#404254">
  <rect fill="#f2f5e9" fill-opacity="0.5" stroke="#606060" stroke-width=".5" x="0" y="0" width="60" height="60"/>
  <use id="zoomplus" xlink:href="#zoomPlus" x="17" y="9" onmousedown="handleZoom(evt,'in')"/>
  <use id="zoomminus" xlink:href="#zoomMin" x="42" y="9" onmousedown="handleZoom(evt,'out')"/>
  <use id="reset" xlink:href="#resetDef" x="30" y="36" onmousedown="handleReset()"/>
   <use id="arrowup" xlink:href="#arrowUp" x="0" y="0" onmousedown="handlePan(0,-1)"/>
  <use id="arrowright" xlink:href="#arrowRight" x="0" y="0" onmousedown="handlePan(1,0)"/>
  <use id="arrowdown" xlink:href="#arrowDown" x="0" y="0" onmousedown="handlePan(0,1)"/>
  <use id="arrowleft" xlink:href="#arrowLeft" x="0" y="0" onmousedown="handlePan(-1,0)"/>
</g>
<svg viewBox="0 0 15 15" width="100%" height="30px" preserveAspectRatio="xMaxYMin meet">
 <g id="arrow_out" transform="scale(0.3 0.3)">
  <a xlink:href="structespnow__iperf__cfg__coll__graph_org.svg" target="_base">
   <rect id="button" ry="5" rx="5" y="6" x="6" height="38" width="38"
        fill="#f2f5e9" fill-opacity="0.5" stroke="#606060" stroke-width="1.0"/>
   <path id="arrow"
     d="M 11.500037,31.436501 C 11.940474,20.09759 22.043105,11.32322 32.158766,21.979434 L 37.068811,17.246167 C 37.068811,17.246167 37.088388,32 37.088388,32 L 22.160133,31.978069 C 22.160133,31.978069 26.997745,27.140456 26.997745,27.140456 C 18.528582,18.264221 13.291696,25.230495 11.500037,31.436501 z"
     style="fill:#404040;"/>
  </a>
 </g>
</svg>

<style type='text/css'>
<![CDATA[
[data-mouse-over-selected='false'] { opacity: 0.7; }
[data-mouse-over-selected='true']  { opacity: 1.0; }
]]>
</style>
<script type="application/ecmascript"><![CDATA[
document.addEventListener('DOMContentLoaded', (event) => {
  highlightEdges();
  highlightAdjacentNodes();
});
]]></script>
</svg>
