<?xml version="1.0" encoding="UTF-8" standalone="no"?>
<!DOCTYPE svg PUBLIC "-//W3C//DTD SVG 1.1//EN"
 "http://www.w3.org/Graphics/SVG/1.1/DTD/svg11.dtd">
<!-- Generated by graphviz version 12.2.1 (20241206.2353)
 -->
<!-- Title: web_server_start Pages: 1 -->
<svg width="341pt" height="30pt"
 viewBox="0.00 0.00 341.00 30.25" xmlns="http://www.w3.org/2000/svg" xmlns:xlink="http://www.w3.org/1999/xlink">
<g id="graph0" class="graph" transform="scale(1 1) rotate(0) translate(4 26.25)">
<title>web_server_start</title>
<!-- Node1 -->
<g id="Node000001" class="node">
<title>Node1</title>
<g id="a_Node000001"><a xlink:title=" ">
<polygon fill="#999999" stroke="#666666" points="107.5,-22.25 0,-22.25 0,0 107.5,0 107.5,-22.25"/>
<text text-anchor="middle" x="53.75" y="-6.85" font-family="Arial" font-size="12.00">web_server_start</text>
</a>
</g>
</g>
<!-- Node2 -->
<g id="Node000002" class="node">
<title>Node2</title>
<g id="a_Node000002"><a xlink:href="dns__server_8c.html#a22a75be23ae9a816f763a9f88c76a311" target="_top" xlink:title=" ">
<polygon fill="white" stroke="#666666" points="218,-22.25 143.5,-22.25 143.5,0 218,0 218,-22.25"/>
<text text-anchor="middle" x="180.75" y="-6.85" font-family="Arial" font-size="12.00">dnserv_init</text>
</a>
</g>
</g>
<!-- Node1&#45;&gt;Node2 -->
<g id="edge1_Node000001_Node000002" class="edge">
<title>Node1&#45;&gt;Node2</title>
<g id="a_edge1_Node000001_Node000002"><a xlink:title=" ">
<path fill="none" stroke="#63b8ff" d="M107.76,-11.12C115.81,-11.12 124.07,-11.12 132,-11.12"/>
<polygon fill="#63b8ff" stroke="#63b8ff" points="131.79,-14.63 141.79,-11.13 131.79,-7.63 131.79,-14.63"/>
</a>
</g>
</g>
<!-- Node3 -->
<g id="Node000003" class="node">
<title>Node3</title>
<g id="a_Node000003"><a xlink:href="dns__server_8c.html#afae3cb76b4389d5ff7f476d4d9c1c8ce" target="_top" xlink:title=" ">
<polygon fill="white" stroke="#666666" points="333,-22.25 254,-22.25 254,0 333,0 333,-22.25"/>
<text text-anchor="middle" x="293.5" y="-6.85" font-family="Arial" font-size="12.00">dnserv_free</text>
</a>
</g>
</g>
<!-- Node2&#45;&gt;Node3 -->
<g id="edge2_Node000002_Node000003" class="edge">
<title>Node2&#45;&gt;Node3</title>
<g id="a_edge2_Node000002_Node000003"><a xlink:title=" ">
<path fill="none" stroke="#63b8ff" d="M218.32,-11.12C226.03,-11.12 234.29,-11.12 242.4,-11.12"/>
<polygon fill="#63b8ff" stroke="#63b8ff" points="242.17,-14.63 252.17,-11.13 242.17,-7.63 242.17,-14.63"/>
</a>
</g>
</g>
</g>
</svg>
