<?xml version="1.0" encoding="UTF-8" standalone="no"?>
<!DOCTYPE svg PUBLIC "-//W3C//DTD SVG 1.1//EN"
 "http://www.w3.org/Graphics/SVG/1.1/DTD/svg11.dtd">
<!-- Generated by graphviz version 12.2.1 (20241206.2353)
 -->
<!-- Title: app_main Pages: 1 -->
<svg width="1004pt" height="670pt"
 viewBox="0.00 0.00 1003.75 670.25" xmlns="http://www.w3.org/2000/svg" xmlns:xlink="http://www.w3.org/1999/xlink">
<g id="graph0" class="graph" transform="scale(1 1) rotate(0) translate(4 666.25)">
<title>app_main</title>
<!-- Node1 -->
<g id="Node000001" class="node">
<title>Node1</title>
<g id="a_Node000001"><a xlink:title=" ">
<polygon fill="#999999" stroke="#666666" points="69.25,-382.25 0,-382.25 0,-360 69.25,-360 69.25,-382.25"/>
<text text-anchor="middle" x="34.62" y="-366.85" font-family="Arial" font-size="12.00">app_main</text>
</a>
</g>
</g>
<!-- Node2 -->
<g id="Node000002" class="node">
<title>Node2</title>
<g id="a_Node000002"><a xlink:href="monitor_8c.html#af7d10fd98a27a714321d8b4cedce0221" target="_top" xlink:title=" ">
<polygon fill="white" stroke="#666666" points="314.75,-442.25 112,-442.25 112,-420 314.75,-420 314.75,-442.25"/>
<text text-anchor="middle" x="213.38" y="-426.85" font-family="Arial" font-size="12.00">app_espnow_monitor_device_start</text>
</a>
</g>
</g>
<!-- Node1&#45;&gt;Node2 -->
<g id="edge1_Node000001_Node000002" class="edge">
<title>Node1&#45;&gt;Node2</title>
<g id="a_edge1_Node000001_Node000002"><a xlink:title=" ">
<path fill="none" stroke="#63b8ff" d="M69.7,-382.69C97.58,-392.16 137.22,-405.61 167.65,-415.94"/>
<polygon fill="#63b8ff" stroke="#63b8ff" points="166.37,-419.21 176.97,-419.11 168.62,-412.58 166.37,-419.21"/>
</a>
</g>
</g>
<!-- Node35 -->
<g id="Node000035" class="node">
<title>Node35</title>
<g id="a_Node000035"><a xlink:href="monitored_8c.html#ad027b7ef6355a241f0590f8d6ad74615" target="_top" xlink:title=" ">
<polygon fill="white" stroke="#666666" points="321.5,-362.25 105.25,-362.25 105.25,-340 321.5,-340 321.5,-362.25"/>
<text text-anchor="middle" x="213.38" y="-346.85" font-family="Arial" font-size="12.00">app_espnow_monitored_device_start</text>
</a>
</g>
</g>
<!-- Node1&#45;&gt;Node35 -->
<g id="edge35_Node000001_Node000035" class="edge">
<title>Node1&#45;&gt;Node35</title>
<g id="a_edge35_Node000001_Node000035"><a xlink:title=" ">
<path fill="none" stroke="#63b8ff" d="M69.7,-367.27C78.4,-366.29 88.23,-365.17 98.58,-364"/>
<polygon fill="#63b8ff" stroke="#63b8ff" points="98.93,-367.48 108.47,-362.88 98.14,-360.53 98.93,-367.48"/>
</a>
</g>
</g>
<!-- Node3 -->
<g id="Node000003" class="node">
<title>Node3</title>
<g id="a_Node000003"><a xlink:href="espnow__commands_8c.html#a0bb86e9397ef9f6da395e1a03b34a139" target="_top" xlink:title="Register Common commands.">
<polygon fill="white" stroke="#666666" points="576,-362.25 357.5,-362.25 357.5,-340 576,-340 576,-362.25"/>
<text text-anchor="middle" x="466.75" y="-346.85" font-family="Arial" font-size="12.00">espnow_console_commands_register</text>
</a>
</g>
</g>
<!-- Node2&#45;&gt;Node3 -->
<g id="edge2_Node000002_Node000003" class="edge">
<title>Node2&#45;&gt;Node3</title>
<g id="a_edge2_Node000002_Node000003"><a xlink:title=" ">
<path fill="none" stroke="#63b8ff" d="M250.66,-419.58C294.93,-405.49 369.9,-381.63 418.6,-366.13"/>
<polygon fill="#63b8ff" stroke="#63b8ff" points="419.57,-369.5 428.04,-363.13 417.44,-362.83 419.57,-369.5"/>
</a>
</g>
</g>
<!-- Node23 -->
<g id="Node000023" class="node">
<title>Node23</title>
<g id="a_Node000023"><a xlink:href="espnow__console_8c.html#aa6f31005efa0f0074f02968b96f8bd7a" target="_top" xlink:title="Initialize console module.">
<polygon fill="white" stroke="#666666" points="531.38,-522.25 402.12,-522.25 402.12,-500 531.38,-500 531.38,-522.25"/>
<text text-anchor="middle" x="466.75" y="-506.85" font-family="Arial" font-size="12.00">espnow_console_init</text>
</a>
</g>
</g>
<!-- Node2&#45;&gt;Node23 -->
<g id="edge22_Node000002_Node000023" class="edge">
<title>Node2&#45;&gt;Node23</title>
<g id="a_edge22_Node000002_Node000023"><a xlink:title=" ">
<path fill="none" stroke="#63b8ff" d="M237.61,-442.7C265.47,-456.13 313.87,-478.11 357.5,-491.12 368.08,-494.28 379.39,-497.03 390.57,-499.39"/>
<polygon fill="#63b8ff" stroke="#63b8ff" points="389.69,-502.79 400.19,-501.33 391.08,-495.93 389.69,-502.79"/>
</a>
</g>
</g>
<!-- Node24 -->
<g id="Node000024" class="node">
<title>Node24</title>
<g id="a_Node000024"><a xlink:href="espnow_8c.html#a5e8b13ca7f586bed41ed5779b84f61f4" target="_top" xlink:title="Set configuration when receiving the corresponding ESP&#45;NOW data type Include: Set to enable/disable h...">
<polygon fill="white" stroke="#666666" points="811,-642.25 612,-642.25 612,-620 811,-620 811,-642.25"/>
<text text-anchor="middle" x="711.5" y="-626.85" font-family="Arial" font-size="12.00">espnow_set_config_for_data_type</text>
</a>
</g>
</g>
<!-- Node2&#45;&gt;Node24 -->
<g id="edge33_Node000002_Node000024" class="edge">
<title>Node2&#45;&gt;Node24</title>
<g id="a_edge33_Node000002_Node000024"><a xlink:title=" ">
<path fill="none" stroke="#63b8ff" d="M227.7,-442.57C252.01,-462.93 305.82,-505.7 357.5,-531.12 446.66,-574.99 558.23,-602.53 631.79,-617.35"/>
<polygon fill="#63b8ff" stroke="#63b8ff" points="630.84,-620.73 641.33,-619.24 632.2,-613.86 630.84,-620.73"/>
</a>
</g>
</g>
<!-- Node25 -->
<g id="Node000025" class="node">
<title>Node25</title>
<g id="a_Node000025"><a xlink:href="espnow_8c.html#a82456d56cc86371962135c5ff82fd954" target="_top" xlink:title="Initialize ESP&#45;NOW function.">
<polygon fill="white" stroke="#666666" points="507,-482.25 426.5,-482.25 426.5,-460 507,-460 507,-482.25"/>
<text text-anchor="middle" x="466.75" y="-466.85" font-family="Arial" font-size="12.00">espnow_init</text>
</a>
</g>
</g>
<!-- Node2&#45;&gt;Node25 -->
<g id="edge24_Node000002_Node000025" class="edge">
<title>Node2&#45;&gt;Node25</title>
<g id="a_edge24_Node000002_Node000025"><a xlink:title=" ">
<path fill="none" stroke="#63b8ff" d="M287.42,-442.75C328.41,-449.27 378.51,-457.24 415.16,-463.08"/>
<polygon fill="#63b8ff" stroke="#63b8ff" points="414.16,-466.46 424.58,-464.57 415.26,-459.55 414.16,-466.46"/>
</a>
</g>
</g>
<!-- Node34 -->
<g id="Node000034" class="node">
<title>Node34</title>
<g id="a_Node000034"><a xlink:href="espnow__storage_8c.html#afcdac79eafab05bba3191708b3d6c672" target="_top" xlink:title="Intialise ESP Storage.">
<polygon fill="white" stroke="#666666" points="530.25,-322.25 403.25,-322.25 403.25,-300 530.25,-300 530.25,-322.25"/>
<text text-anchor="middle" x="466.75" y="-306.85" font-family="Arial" font-size="12.00">espnow_storage_init</text>
</a>
</g>
</g>
<!-- Node2&#45;&gt;Node34 -->
<g id="edge34_Node000002_Node000034" class="edge">
<title>Node2&#45;&gt;Node34</title>
<g id="a_edge34_Node000002_Node000034"><a xlink:title=" ">
<path fill="none" stroke="#63b8ff" d="M240.07,-419.69C262.73,-408.94 296.02,-391.49 321.5,-371.12 340.18,-356.19 336.63,-342.81 357.5,-331.12 368.03,-325.23 379.96,-321.02 391.95,-318.04"/>
<polygon fill="#63b8ff" stroke="#63b8ff" points="392.45,-321.51 401.46,-315.94 390.94,-314.67 392.45,-321.51"/>
</a>
</g>
</g>
<!-- Node4 -->
<g id="Node000004" class="node">
<title>Node4</title>
<g id="a_Node000004"><a xlink:href="cmd__espnow_8c.html#a49ab8b4f30ba6620b8349e8dbcf6e7a7" target="_top" xlink:title=" ">
<polygon fill="white" stroke="#666666" points="763.75,-162.25 659.25,-162.25 659.25,-140 763.75,-140 763.75,-162.25"/>
<text text-anchor="middle" x="711.5" y="-146.85" font-family="Arial" font-size="12.00">register_espnow</text>
</a>
</g>
</g>
<!-- Node3&#45;&gt;Node4 -->
<g id="edge3_Node000003_Node000004" class="edge">
<title>Node3&#45;&gt;Node4</title>
<g id="a_edge3_Node000003_Node000004"><a xlink:title=" ">
<path fill="none" stroke="#63b8ff" d="M564.69,-339.75C568.75,-337.29 572.56,-334.44 576,-331.12 628.53,-280.59 559.92,-222.12 612,-171.12 621.69,-161.63 634.58,-156.06 647.83,-152.91"/>
<polygon fill="#63b8ff" stroke="#63b8ff" points="648.32,-156.38 657.49,-151.07 647.02,-149.5 648.32,-156.38"/>
</a>
</g>
</g>
<!-- Node10 -->
<g id="Node000010" class="node">
<title>Node10</title>
<g id="a_Node000010"><a xlink:href="cmd__iperf_8c.html#aba7899961f37bd327bbcfbfbe6582b3d" target="_top" xlink:title=" ">
<polygon fill="white" stroke="#666666" points="754.38,-82.25 668.62,-82.25 668.62,-60 754.38,-60 754.38,-82.25"/>
<text text-anchor="middle" x="711.5" y="-66.85" font-family="Arial" font-size="12.00">register_iperf</text>
</a>
</g>
</g>
<!-- Node3&#45;&gt;Node10 -->
<g id="edge9_Node000003_Node000010" class="edge">
<title>Node3&#45;&gt;Node10</title>
<g id="a_edge9_Node000003_Node000010"><a xlink:title=" ">
<path fill="none" stroke="#63b8ff" d="M565.35,-339.63C569.18,-337.19 572.76,-334.38 576,-331.12 639.72,-267.11 560.94,-205.62 612,-131.12 625.43,-111.53 647.58,-97.2 667.47,-87.48"/>
<polygon fill="#63b8ff" stroke="#63b8ff" points="668.92,-90.67 676.54,-83.31 666,-84.31 668.92,-90.67"/>
</a>
</g>
</g>
<!-- Node13 -->
<g id="Node000013" class="node">
<title>Node13</title>
<g id="a_Node000013"><a xlink:href="cmd__peripherals_8c.html#a32de1cde0b0101a969e28a296a893a0c" target="_top" xlink:title=" ">
<polygon fill="white" stroke="#666666" points="772.75,-442.25 650.25,-442.25 650.25,-420 772.75,-420 772.75,-442.25"/>
<text text-anchor="middle" x="711.5" y="-426.85" font-family="Arial" font-size="12.00">register_peripherals</text>
</a>
</g>
</g>
<!-- Node3&#45;&gt;Node13 -->
<g id="edge12_Node000003_Node000013" class="edge">
<title>Node3&#45;&gt;Node13</title>
<g id="a_edge12_Node000003_Node000013"><a xlink:title=" ">
<path fill="none" stroke="#63b8ff" d="M491.22,-362.55C519.35,-375.85 568.17,-397.7 612,-411.12 620.6,-413.76 629.73,-416.14 638.83,-418.27"/>
<polygon fill="#63b8ff" stroke="#63b8ff" points="637.87,-421.64 648.39,-420.41 639.4,-414.81 637.87,-421.64"/>
</a>
</g>
</g>
<!-- Node14 -->
<g id="Node000014" class="node">
<title>Node14</title>
<g id="a_Node000014"><a xlink:href="cmd__sdcard_8c.html#aee0a19b9ec59752b8124fcb5d3b45d23" target="_top" xlink:title="Register sdcard command.">
<polygon fill="white" stroke="#666666" points="760.75,-402.25 662.25,-402.25 662.25,-380 760.75,-380 760.75,-402.25"/>
<text text-anchor="middle" x="711.5" y="-386.85" font-family="Arial" font-size="12.00">register_sdcard</text>
</a>
</g>
</g>
<!-- Node3&#45;&gt;Node14 -->
<g id="edge13_Node000003_Node000014" class="edge">
<title>Node3&#45;&gt;Node14</title>
<g id="a_edge13_Node000003_Node000014"><a xlink:title=" ">
<path fill="none" stroke="#63b8ff" d="M538.29,-362.75C574.01,-368.63 616.89,-375.7 650.93,-381.31"/>
<polygon fill="#63b8ff" stroke="#63b8ff" points="650.19,-384.73 660.62,-382.91 651.32,-377.83 650.19,-384.73"/>
</a>
</g>
</g>
<!-- Node15 -->
<g id="Node000015" class="node">
<title>Node15</title>
<g id="a_Node000015"><a xlink:href="cmd__system_8c.html#a5cea85be00cb1ee5b57616da2fec81dd" target="_top" xlink:title=" ">
<polygon fill="white" stroke="#666666" points="761.5,-362.25 661.5,-362.25 661.5,-340 761.5,-340 761.5,-362.25"/>
<text text-anchor="middle" x="711.5" y="-346.85" font-family="Arial" font-size="12.00">register_system</text>
</a>
</g>
</g>
<!-- Node3&#45;&gt;Node15 -->
<g id="edge14_Node000003_Node000015" class="edge">
<title>Node3&#45;&gt;Node15</title>
<g id="a_edge14_Node000003_Node000015"><a xlink:title=" ">
<path fill="none" stroke="#63b8ff" d="M576.34,-351.12C601.61,-351.12 627.62,-351.12 649.93,-351.12"/>
<polygon fill="#63b8ff" stroke="#63b8ff" points="649.72,-354.63 659.72,-351.13 649.72,-347.63 649.72,-354.63"/>
</a>
</g>
</g>
<!-- Node16 -->
<g id="Node000016" class="node">
<title>Node16</title>
<g id="a_Node000016"><a xlink:href="cmd__wifi_8c.html#acc3b783818c73878210baf4064425629" target="_top" xlink:title=" ">
<polygon fill="white" stroke="#666666" points="751.75,-322.25 671.25,-322.25 671.25,-300 751.75,-300 751.75,-322.25"/>
<text text-anchor="middle" x="711.5" y="-306.85" font-family="Arial" font-size="12.00">register_wifi</text>
</a>
</g>
</g>
<!-- Node3&#45;&gt;Node16 -->
<g id="edge15_Node000003_Node000016" class="edge">
<title>Node3&#45;&gt;Node16</title>
<g id="a_edge15_Node000003_Node000016"><a xlink:title=" ">
<path fill="none" stroke="#63b8ff" d="M538.29,-339.5C577.19,-333.09 624.6,-325.28 659.82,-319.48"/>
<polygon fill="#63b8ff" stroke="#63b8ff" points="660.01,-322.99 669.31,-317.91 658.87,-316.08 660.01,-322.99"/>
</a>
</g>
</g>
<!-- Node20 -->
<g id="Node000020" class="node">
<title>Node20</title>
<g id="a_Node000020"><a xlink:href="cmd__wifi__sniffer_8c.html#aeca2ef6acde5704f187f7f3734ca0a51" target="_top" xlink:title=" ">
<polygon fill="white" stroke="#666666" points="771.25,-282.25 651.75,-282.25 651.75,-260 771.25,-260 771.25,-282.25"/>
<text text-anchor="middle" x="711.5" y="-266.85" font-family="Arial" font-size="12.00">register_wifi_sniffer</text>
</a>
</g>
</g>
<!-- Node3&#45;&gt;Node20 -->
<g id="edge19_Node000003_Node000020" class="edge">
<title>Node3&#45;&gt;Node20</title>
<g id="a_edge19_Node000003_Node000020"><a xlink:title=" ">
<path fill="none" stroke="#63b8ff" d="M557.16,-339.55C563.72,-337.22 570.08,-334.44 576,-331.12 596.87,-319.44 591.23,-302.99 612,-291.12 620.64,-286.19 630.32,-282.46 640.15,-279.64"/>
<polygon fill="#63b8ff" stroke="#63b8ff" points="640.95,-283.05 649.79,-277.21 639.24,-276.26 640.95,-283.05"/>
</a>
</g>
</g>
<!-- Node21 -->
<g id="Node000021" class="node">
<title>Node21</title>
<g id="a_Node000021"><a xlink:href="sdcard_8c.html#ae3e13ea01aad71d69c7e3c4656de1803" target="_top" xlink:title="Initialize sdcard, Using SDMMC peripheral.">
<polygon fill="white" stroke="#666666" points="748.75,-242.25 674.25,-242.25 674.25,-220 748.75,-220 748.75,-242.25"/>
<text text-anchor="middle" x="711.5" y="-226.85" font-family="Arial" font-size="12.00">sdcard_init</text>
</a>
</g>
</g>
<!-- Node3&#45;&gt;Node21 -->
<g id="edge20_Node000003_Node000021" class="edge">
<title>Node3&#45;&gt;Node21</title>
<g id="a_edge20_Node000003_Node000021"><a xlink:title=" ">
<path fill="none" stroke="#63b8ff" d="M562.64,-339.52C567.37,-337.15 571.87,-334.37 576,-331.12 606.67,-307.06 581.54,-275.46 612,-251.12 626.2,-239.78 645.16,-234.35 662.65,-231.91"/>
<polygon fill="#63b8ff" stroke="#63b8ff" points="662.79,-235.42 672.36,-230.87 662.04,-228.46 662.79,-235.42"/>
</a>
</g>
</g>
<!-- Node22 -->
<g id="Node000022" class="node">
<title>Node22</title>
<g id="a_Node000022"><a xlink:href="sdcard_8c.html#a1ee82a88b28b169594e94eada1cf1233" target="_top" xlink:title="Check if sdcard is mounted.">
<polygon fill="white" stroke="#666666" points="765.25,-202.25 657.75,-202.25 657.75,-180 765.25,-180 765.25,-202.25"/>
<text text-anchor="middle" x="711.5" y="-186.85" font-family="Arial" font-size="12.00">sdcard_is_mount</text>
</a>
</g>
</g>
<!-- Node3&#45;&gt;Node22 -->
<g id="edge21_Node000003_Node000022" class="edge">
<title>Node3&#45;&gt;Node22</title>
<g id="a_edge21_Node000003_Node000022"><a xlink:title=" ">
<path fill="none" stroke="#63b8ff" d="M563.92,-339.74C568.24,-337.29 572.3,-334.44 576,-331.12 617.45,-293.95 570.87,-248.66 612,-211.12 621.52,-202.44 633.75,-197.1 646.32,-193.9"/>
<polygon fill="#63b8ff" stroke="#63b8ff" points="646.84,-197.36 655.93,-191.91 645.43,-190.51 646.84,-197.36"/>
</a>
</g>
</g>
<!-- Node5 -->
<g id="Node000005" class="node">
<title>Node5</title>
<g id="a_Node000005"><a xlink:href="cmd__espnow_8c.html#a663e227ca7f408c5e70f3a543066c1f3" target="_top" xlink:title="Register command command.">
<polygon fill="white" stroke="#666666" points="978.88,-222.25 863.88,-222.25 863.88,-200 978.88,-200 978.88,-222.25"/>
<text text-anchor="middle" x="921.38" y="-206.85" font-family="Arial" font-size="12.00">register_command</text>
</a>
</g>
</g>
<!-- Node4&#45;&gt;Node5 -->
<g id="edge4_Node000004_Node000005" class="edge">
<title>Node4&#45;&gt;Node5</title>
<g id="a_edge4_Node000004_Node000005"><a xlink:title=" ">
<path fill="none" stroke="#63b8ff" d="M764.2,-158.54C779.54,-161.55 796.19,-165.65 811,-171.12 828.17,-177.46 830.05,-184.22 847,-191.12 851.33,-192.89 855.87,-194.55 860.48,-196.1"/>
<polygon fill="#63b8ff" stroke="#63b8ff" points="859.25,-199.38 869.84,-199.05 861.36,-192.7 859.25,-199.38"/>
</a>
</g>
</g>
<!-- Node6 -->
<g id="Node000006" class="node">
<title>Node6</title>
<g id="a_Node000006"><a xlink:href="cmd__espnow_8c.html#a133f010c7f704fae3fd7c7844ab8adb4" target="_top" xlink:title=" ">
<polygon fill="white" stroke="#666666" points="970.62,-182.25 872.12,-182.25 872.12,-160 970.62,-160 970.62,-182.25"/>
<text text-anchor="middle" x="921.38" y="-166.85" font-family="Arial" font-size="12.00">register_control</text>
</a>
</g>
</g>
<!-- Node4&#45;&gt;Node6 -->
<g id="edge5_Node000004_Node000006" class="edge">
<title>Node4&#45;&gt;Node6</title>
<g id="a_edge5_Node000004_Node000006"><a xlink:title=" ">
<path fill="none" stroke="#63b8ff" d="M764.15,-156.09C793.37,-158.91 830.03,-162.43 860.5,-165.36"/>
<polygon fill="#63b8ff" stroke="#63b8ff" points="860.05,-168.84 870.34,-166.31 860.72,-161.87 860.05,-168.84"/>
</a>
</g>
</g>
<!-- Node7 -->
<g id="Node000007" class="node">
<title>Node7</title>
<g id="a_Node000007"><a xlink:href="cmd__espnow_8c.html#a4116f70abed28605f9edde3cb2b49df3" target="_top" xlink:title=" ">
<polygon fill="white" stroke="#666666" points="960.88,-142.25 881.88,-142.25 881.88,-120 960.88,-120 960.88,-142.25"/>
<text text-anchor="middle" x="921.38" y="-126.85" font-family="Arial" font-size="12.00">register_ota</text>
</a>
</g>
</g>
<!-- Node4&#45;&gt;Node7 -->
<g id="edge6_Node000004_Node000007" class="edge">
<title>Node4&#45;&gt;Node7</title>
<g id="a_edge6_Node000004_Node000007"><a xlink:title=" ">
<path fill="none" stroke="#63b8ff" d="M764.15,-146.16C796.49,-143.04 837.97,-139.05 870.05,-135.97"/>
<polygon fill="#63b8ff" stroke="#63b8ff" points="870.29,-139.46 879.91,-135.02 869.62,-132.49 870.29,-139.46"/>
</a>
</g>
</g>
<!-- Node8 -->
<g id="Node000008" class="node">
<title>Node8</title>
<g id="a_Node000008"><a xlink:href="cmd__espnow_8c.html#a250a2960cac20a0a927ea9ee538d0ed1" target="_top" xlink:title=" ">
<polygon fill="white" stroke="#666666" points="985.25,-102.25 857.5,-102.25 857.5,-80 985.25,-80 985.25,-102.25"/>
<text text-anchor="middle" x="921.38" y="-86.85" font-family="Arial" font-size="12.00">register_provisioning</text>
</a>
</g>
</g>
<!-- Node4&#45;&gt;Node8 -->
<g id="edge7_Node000004_Node000008" class="edge">
<title>Node4&#45;&gt;Node8</title>
<g id="a_edge7_Node000004_Node000008"><a xlink:title=" ">
<path fill="none" stroke="#63b8ff" d="M750.7,-139.51C777.58,-131.4 814.43,-120.4 847,-111.12 853.26,-109.34 859.84,-107.5 866.37,-105.69"/>
<polygon fill="#63b8ff" stroke="#63b8ff" points="867.09,-109.13 875.8,-103.1 865.23,-102.38 867.09,-109.13"/>
</a>
</g>
</g>
<!-- Node9 -->
<g id="Node000009" class="node">
<title>Node9</title>
<g id="a_Node000009"><a xlink:href="cmd__espnow_8c.html#a952bdf39df32da2582cc93259df66b21" target="_top" xlink:title=" ">
<polygon fill="white" stroke="#666666" points="965.38,-262.25 877.38,-262.25 877.38,-240 965.38,-240 965.38,-262.25"/>
<text text-anchor="middle" x="921.38" y="-246.85" font-family="Arial" font-size="12.00">register_scan</text>
</a>
</g>
</g>
<!-- Node4&#45;&gt;Node9 -->
<g id="edge8_Node000004_Node000009" class="edge">
<title>Node4&#45;&gt;Node9</title>
<g id="a_edge8_Node000004_Node000009"><a xlink:title=" ">
<path fill="none" stroke="#63b8ff" d="M764.06,-153.51C780.23,-156.28 797.39,-161.51 811,-171.12 836.39,-189.08 822.21,-212.35 847,-231.12 852.73,-235.47 859.35,-238.87 866.21,-241.53"/>
<polygon fill="#63b8ff" stroke="#63b8ff" points="865.08,-244.84 875.67,-244.66 867.27,-238.19 865.08,-244.84"/>
</a>
</g>
</g>
<!-- Node11 -->
<g id="Node000011" class="node">
<title>Node11</title>
<g id="a_Node000011"><a xlink:href="cmd__iperf_8c.html#a59752ecd5d3a975453892e77911181f3" target="_top" xlink:title=" ">
<polygon fill="white" stroke="#666666" points="993.12,-22.25 849.62,-22.25 849.62,0 993.12,0 993.12,-22.25"/>
<text text-anchor="middle" x="921.38" y="-6.85" font-family="Arial" font-size="12.00">register_espnow_config</text>
</a>
</g>
</g>
<!-- Node10&#45;&gt;Node11 -->
<g id="edge10_Node000010_Node000011" class="edge">
<title>Node10&#45;&gt;Node11</title>
<g id="a_edge10_Node000010_Node000011"><a xlink:title=" ">
<path fill="none" stroke="#63b8ff" d="M754.5,-65.52C772.28,-62.4 792.99,-57.77 811,-51.12 828.17,-44.79 830.05,-38.03 847,-31.12 851.33,-29.36 855.87,-27.7 860.48,-26.15"/>
<polygon fill="#63b8ff" stroke="#63b8ff" points="861.36,-29.55 869.84,-23.2 859.25,-22.87 861.36,-29.55"/>
</a>
</g>
</g>
<!-- Node12 -->
<g id="Node000012" class="node">
<title>Node12</title>
<g id="a_Node000012"><a xlink:href="cmd__iperf_8c.html#a3e3a4b00f06201a66ee042ac3363f9de" target="_top" xlink:title=" ">
<polygon fill="white" stroke="#666666" points="988.62,-62.25 854.12,-62.25 854.12,-40 988.62,-40 988.62,-62.25"/>
<text text-anchor="middle" x="921.38" y="-46.85" font-family="Arial" font-size="12.00">register_espnow_iperf</text>
</a>
</g>
</g>
<!-- Node10&#45;&gt;Node12 -->
<g id="edge11_Node000010_Node000012" class="edge">
<title>Node10&#45;&gt;Node12</title>
<g id="a_edge11_Node000010_Node000012"><a xlink:title=" ">
<path fill="none" stroke="#63b8ff" d="M754.82,-67.05C780.08,-64.62 812.94,-61.46 842.73,-58.6"/>
<polygon fill="#63b8ff" stroke="#63b8ff" points="842.84,-62.1 852.46,-57.66 842.17,-55.13 842.84,-62.1"/>
</a>
</g>
</g>
<!-- Node17 -->
<g id="Node000017" class="node">
<title>Node17</title>
<g id="a_Node000017"><a xlink:href="cmd__wifi_8c.html#a53edfa7e48af95ba07348e7c1421feea" target="_top" xlink:title=" ">
<polygon fill="white" stroke="#666666" points="971.75,-382.25 871,-382.25 871,-360 971.75,-360 971.75,-382.25"/>
<text text-anchor="middle" x="921.38" y="-366.85" font-family="Arial" font-size="12.00">register_wifi_ap</text>
</a>
</g>
</g>
<!-- Node16&#45;&gt;Node17 -->
<g id="edge16_Node000016_Node000017" class="edge">
<title>Node16&#45;&gt;Node17</title>
<g id="a_edge16_Node000016_Node000017"><a xlink:title=" ">
<path fill="none" stroke="#63b8ff" d="M752.1,-316.32C770.39,-319.43 792.18,-324.17 811,-331.12 828.17,-337.46 830.05,-344.22 847,-351.12 851.33,-352.89 855.87,-354.55 860.48,-356.1"/>
<polygon fill="#63b8ff" stroke="#63b8ff" points="859.25,-359.38 869.84,-359.05 861.36,-352.7 859.25,-359.38"/>
</a>
</g>
</g>
<!-- Node18 -->
<g id="Node000018" class="node">
<title>Node18</title>
<g id="a_Node000018"><a xlink:href="cmd__wifi_8c.html#a829e61400c74b6e8b03ebbc968fb6ae9" target="_top" xlink:title=" ">
<polygon fill="white" stroke="#666666" points="976.62,-342.25 866.12,-342.25 866.12,-320 976.62,-320 976.62,-342.25"/>
<text text-anchor="middle" x="921.38" y="-326.85" font-family="Arial" font-size="12.00">register_wifi_ping</text>
</a>
</g>
</g>
<!-- Node16&#45;&gt;Node18 -->
<g id="edge17_Node000016_Node000018" class="edge">
<title>Node16&#45;&gt;Node18</title>
<g id="a_edge17_Node000016_Node000018"><a xlink:title=" ">
<path fill="none" stroke="#63b8ff" d="M752.09,-314.93C781.09,-317.72 821.1,-321.57 854.84,-324.82"/>
<polygon fill="#63b8ff" stroke="#63b8ff" points="854.22,-328.28 864.51,-325.75 854.89,-321.31 854.22,-328.28"/>
</a>
</g>
</g>
<!-- Node19 -->
<g id="Node000019" class="node">
<title>Node19</title>
<g id="a_Node000019"><a xlink:href="cmd__wifi_8c.html#af11c2a0aaba22bf6cce6d38be617ed89" target="_top" xlink:title="Register wifi scan command.">
<polygon fill="white" stroke="#666666" points="977.75,-302.25 865,-302.25 865,-280 977.75,-280 977.75,-302.25"/>
<text text-anchor="middle" x="921.38" y="-286.85" font-family="Arial" font-size="12.00">register_wifi_scan</text>
</a>
</g>
</g>
<!-- Node16&#45;&gt;Node19 -->
<g id="edge18_Node000016_Node000019" class="edge">
<title>Node16&#45;&gt;Node19</title>
<g id="a_edge18_Node000016_Node000019"><a xlink:title=" ">
<path fill="none" stroke="#63b8ff" d="M752.09,-307.32C780.77,-304.56 820.23,-300.76 853.73,-297.54"/>
<polygon fill="#63b8ff" stroke="#63b8ff" points="853.71,-301.05 863.33,-296.61 853.04,-294.09 853.71,-301.05"/>
</a>
</g>
</g>
<!-- Node23&#45;&gt;Node24 -->
<g id="edge23_Node000023_Node000024" class="edge">
<title>Node23&#45;&gt;Node24</title>
<g id="a_edge23_Node000023_Node000024"><a xlink:title=" ">
<path fill="none" stroke="#63b8ff" d="M490.28,-522.67C512.87,-534.69 548.21,-554.73 576,-576.12 593.68,-589.74 592.27,-600.71 612,-611.12 615.06,-612.74 618.25,-614.23 621.51,-615.6"/>
<polygon fill="#63b8ff" stroke="#63b8ff" points="620.15,-618.83 630.74,-619.04 622.59,-612.27 620.15,-618.83"/>
</a>
</g>
</g>
<!-- Node26 -->
<g id="Node000026" class="node">
<title>Node26</title>
<g id="a_Node000026"><a xlink:href="espnow_8c.html#ab9e96f875511fcc24184f7b863ff8747" target="_top" xlink:title="When used for unicast, add the target device.">
<polygon fill="white" stroke="#666666" points="769.38,-482.25 653.62,-482.25 653.62,-460 769.38,-460 769.38,-482.25"/>
<text text-anchor="middle" x="711.5" y="-466.85" font-family="Arial" font-size="12.00">espnow_add_peer</text>
</a>
</g>
</g>
<!-- Node25&#45;&gt;Node26 -->
<g id="edge25_Node000025_Node000026" class="edge">
<title>Node25&#45;&gt;Node26</title>
<g id="a_edge25_Node000025_Node000026"><a xlink:title=" ">
<path fill="none" stroke="#63b8ff" d="M507.29,-471.12C543.67,-471.12 598.42,-471.12 641.92,-471.12"/>
<polygon fill="#63b8ff" stroke="#63b8ff" points="641.78,-474.63 651.78,-471.13 641.78,-467.63 641.78,-474.63"/>
</a>
</g>
</g>
<!-- Node27 -->
<g id="Node000027" class="node">
<title>Node27</title>
<g id="a_Node000027"><a xlink:href="espnow_8c.html#ae2e7d37b72ff59a530a9447bea4aa106" target="_top" xlink:title=" ">
<polygon fill="white" stroke="#666666" points="764.88,-602.25 658.12,-602.25 658.12,-580 764.88,-580 764.88,-602.25"/>
<text text-anchor="middle" x="711.5" y="-586.85" font-family="Arial" font-size="12.00">espnow_recv_cb</text>
</a>
</g>
</g>
<!-- Node25&#45;&gt;Node27 -->
<g id="edge26_Node000025_Node000027" class="edge">
<title>Node25&#45;&gt;Node27</title>
<g id="a_edge26_Node000025_Node000027"><a xlink:title=" ">
<path fill="none" stroke="#63b8ff" d="M507.44,-469.8C529.69,-471.02 556.75,-476.02 576,-491.12 606.67,-515.19 581.54,-546.79 612,-571.12 621.96,-579.09 634.27,-584.13 646.76,-587.28"/>
<polygon fill="#63b8ff" stroke="#63b8ff" points="645.75,-590.64 656.26,-589.27 647.19,-583.79 645.75,-590.64"/>
</a>
</g>
</g>
<!-- Node32 -->
<g id="Node000032" class="node">
<title>Node32</title>
<g id="a_Node000032"><a xlink:href="espnow__security_8c.html#accbf76d2b120ee4e43003ad1472c2b05" target="_top" xlink:title="Initialize the specified security info.">
<polygon fill="white" stroke="#666666" points="764.5,-562.25 658.5,-562.25 658.5,-540 764.5,-540 764.5,-562.25"/>
<text text-anchor="middle" x="711.5" y="-546.85" font-family="Arial" font-size="12.00">espnow_sec_init</text>
</a>
</g>
</g>
<!-- Node25&#45;&gt;Node32 -->
<g id="edge31_Node000025_Node000032" class="edge">
<title>Node25&#45;&gt;Node32</title>
<g id="a_edge31_Node000025_Node000032"><a xlink:title=" ">
<path fill="none" stroke="#63b8ff" d="M507.4,-472.31C528.86,-474.41 555.15,-479.46 576,-491.12 596.87,-502.81 591.23,-519.26 612,-531.12 622.67,-537.22 634.93,-541.48 647.09,-544.45"/>
<polygon fill="#63b8ff" stroke="#63b8ff" points="646.19,-547.83 656.7,-546.51 647.66,-540.99 646.19,-547.83"/>
</a>
</g>
</g>
<!-- Node33 -->
<g id="Node000033" class="node">
<title>Node33</title>
<g id="a_Node000033"><a xlink:href="espnow_8c.html#ae3d39a3c355f8c0a8297f76a28f7eaee" target="_top" xlink:title=" ">
<polygon fill="white" stroke="#666666" points="766.75,-522.25 656.25,-522.25 656.25,-500 766.75,-500 766.75,-522.25"/>
<text text-anchor="middle" x="711.5" y="-506.85" font-family="Arial" font-size="12.00">espnow_send_cb</text>
</a>
</g>
</g>
<!-- Node25&#45;&gt;Node33 -->
<g id="edge32_Node000025_Node000033" class="edge">
<title>Node25&#45;&gt;Node33</title>
<g id="a_edge32_Node000025_Node000033"><a xlink:title=" ">
<path fill="none" stroke="#63b8ff" d="M507.29,-477.64C544.49,-483.77 600.89,-493.06 644.84,-500.31"/>
<polygon fill="#63b8ff" stroke="#63b8ff" points="644.08,-503.73 654.52,-501.9 645.22,-496.82 644.08,-503.73"/>
</a>
</g>
</g>
<!-- Node28 -->
<g id="Node000028" class="node">
<title>Node28</title>
<g id="a_Node000028"><a xlink:href="espnow_8h.html#af0be4b97c8dad6c432c969e960110c1e" target="_top" xlink:title="Set group ID addresses.">
<polygon fill="white" stroke="#666666" points="982.62,-662.25 860.12,-662.25 860.12,-640 982.62,-640 982.62,-662.25"/>
<text text-anchor="middle" x="921.38" y="-646.85" font-family="Arial" font-size="12.00">espnow_add_group</text>
</a>
</g>
</g>
<!-- Node27&#45;&gt;Node28 -->
<g id="edge27_Node000027_Node000028" class="edge">
<title>Node27&#45;&gt;Node28</title>
<g id="a_edge27_Node000027_Node000028"><a xlink:title=" ">
<path fill="none" stroke="#63b8ff" d="M765.22,-598.74C780.27,-601.73 796.51,-605.78 811,-611.12 828.17,-617.46 830.05,-624.22 847,-631.12 851.33,-632.89 855.87,-634.55 860.48,-636.1"/>
<polygon fill="#63b8ff" stroke="#63b8ff" points="859.25,-639.38 869.84,-639.05 861.36,-632.7 859.25,-639.38"/>
</a>
</g>
</g>
<!-- Node29 -->
<g id="Node000029" class="node">
<title>Node29</title>
<g id="a_Node000029"><a xlink:href="espnow__group_8c.html#a875855b479ddb660719afebdc90b8b4d" target="_top" xlink:title="Delete group ID addresses.">
<polygon fill="white" stroke="#666666" points="980.75,-622.25 862,-622.25 862,-600 980.75,-600 980.75,-622.25"/>
<text text-anchor="middle" x="921.38" y="-606.85" font-family="Arial" font-size="12.00">espnow_del_group</text>
</a>
</g>
</g>
<!-- Node27&#45;&gt;Node29 -->
<g id="edge28_Node000027_Node000029" class="edge">
<title>Node27&#45;&gt;Node29</title>
<g id="a_edge28_Node000027_Node000029"><a xlink:title=" ">
<path fill="none" stroke="#63b8ff" d="M765.22,-596.2C791.13,-598.69 822.68,-601.73 850.56,-604.41"/>
<polygon fill="#63b8ff" stroke="#63b8ff" points="850.05,-607.87 860.34,-605.35 850.72,-600.91 850.05,-607.87"/>
</a>
</g>
</g>
<!-- Node30 -->
<g id="Node000030" class="node">
<title>Node30</title>
<g id="a_Node000030"><a xlink:href="espnow__group_8c.html#aa7b993563fd6da0fb75573573733daa3" target="_top" xlink:title="Get the number of group ID addresses.">
<polygon fill="white" stroke="#666666" points="995.75,-582.25 847,-582.25 847,-560 995.75,-560 995.75,-582.25"/>
<text text-anchor="middle" x="921.38" y="-566.85" font-family="Arial" font-size="12.00">espnow_get_group_num</text>
</a>
</g>
</g>
<!-- Node27&#45;&gt;Node30 -->
<g id="edge29_Node000027_Node000030" class="edge">
<title>Node27&#45;&gt;Node30</title>
<g id="a_edge29_Node000027_Node000030"><a xlink:title=" ">
<path fill="none" stroke="#63b8ff" d="M765.22,-586.05C786.51,-584 811.62,-581.59 835.36,-579.3"/>
<polygon fill="#63b8ff" stroke="#63b8ff" points="835.4,-582.82 845.01,-578.38 834.72,-575.85 835.4,-582.82"/>
</a>
</g>
</g>
<!-- Node31 -->
<g id="Node000031" class="node">
<title>Node31</title>
<g id="a_Node000031"><a xlink:href="espnow__group_8c.html#af826ca7f397223b5075b39529f9ba115" target="_top" xlink:title="Check whether the specified group address is my group.">
<polygon fill="white" stroke="#666666" points="988.25,-542.25 854.5,-542.25 854.5,-520 988.25,-520 988.25,-542.25"/>
<text text-anchor="middle" x="921.38" y="-526.85" font-family="Arial" font-size="12.00">espnow_is_my_group</text>
</a>
</g>
</g>
<!-- Node27&#45;&gt;Node31 -->
<g id="edge30_Node000027_Node000031" class="edge">
<title>Node27&#45;&gt;Node31</title>
<g id="a_edge30_Node000027_Node000031"><a xlink:title=" ">
<path fill="none" stroke="#63b8ff" d="M765.22,-583.51C780.27,-580.52 796.51,-576.47 811,-571.12 828.17,-564.79 830.05,-558.03 847,-551.12 851.33,-549.36 855.87,-547.7 860.48,-546.15"/>
<polygon fill="#63b8ff" stroke="#63b8ff" points="861.36,-549.55 869.84,-543.2 859.25,-542.87 861.36,-549.55"/>
</a>
</g>
</g>
<!-- Node35&#45;&gt;Node3 -->
<g id="edge36_Node000035_Node000003" class="edge">
<title>Node35&#45;&gt;Node3</title>
<g id="a_edge36_Node000035_Node000003"><a xlink:title=" ">
<path fill="none" stroke="#63b8ff" d="M321.71,-351.12C329.69,-351.12 337.77,-351.12 345.82,-351.12"/>
<polygon fill="#63b8ff" stroke="#63b8ff" points="345.66,-354.63 355.66,-351.13 345.66,-347.63 345.66,-354.63"/>
</a>
</g>
</g>
<!-- Node35&#45;&gt;Node23 -->
<g id="edge37_Node000035_Node000023" class="edge">
<title>Node35&#45;&gt;Node23</title>
<g id="a_edge37_Node000035_Node000023"><a xlink:title=" ">
<path fill="none" stroke="#63b8ff" d="M246.53,-362.74C269.9,-372.56 300.91,-388.65 321.5,-411.12 347.83,-439.88 326.83,-467.06 357.5,-491.12 367.11,-498.67 378.67,-503.69 390.61,-506.98"/>
<polygon fill="#63b8ff" stroke="#63b8ff" points="389.63,-510.35 400.16,-509.2 391.21,-503.53 389.63,-510.35"/>
</a>
</g>
</g>
<!-- Node35&#45;&gt;Node25 -->
<g id="edge38_Node000035_Node000025" class="edge">
<title>Node35&#45;&gt;Node25</title>
<g id="a_edge38_Node000035_Node000025"><a xlink:title=" ">
<path fill="none" stroke="#63b8ff" d="M238.48,-362.63C283.34,-384.04 379.75,-430.07 431.41,-454.73"/>
<polygon fill="#63b8ff" stroke="#63b8ff" points="429.82,-457.85 440.35,-459 432.84,-451.54 429.82,-457.85"/>
</a>
</g>
</g>
<!-- Node35&#45;&gt;Node34 -->
<g id="edge41_Node000035_Node000034" class="edge">
<title>Node35&#45;&gt;Node34</title>
<g id="a_edge41_Node000035_Node000034"><a xlink:title=" ">
<path fill="none" stroke="#63b8ff" d="M287.42,-339.5C320.1,-334.3 358.57,-328.18 391.4,-322.96"/>
<polygon fill="#63b8ff" stroke="#63b8ff" points="391.94,-326.41 401.26,-321.39 390.84,-319.5 391.94,-326.41"/>
</a>
</g>
</g>
<!-- Node36 -->
<g id="Node000036" class="node">
<title>Node36</title>
<g id="a_Node000036"><a xlink:href="espnow__log_8c.html#a6d4afb9055e0375fefca1df8298b5ef9" target="_top" xlink:title="Initialize log debug.">
<polygon fill="white" stroke="#666666" points="518.62,-282.25 414.88,-282.25 414.88,-260 518.62,-260 518.62,-282.25"/>
<text text-anchor="middle" x="466.75" y="-266.85" font-family="Arial" font-size="12.00">espnow_log_init</text>
</a>
</g>
</g>
<!-- Node35&#45;&gt;Node36 -->
<g id="edge39_Node000035_Node000036" class="edge">
<title>Node35&#45;&gt;Node36</title>
<g id="a_edge39_Node000035_Node000036"><a xlink:title=" ">
<path fill="none" stroke="#63b8ff" d="M237.61,-339.55C265.47,-326.12 313.87,-304.14 357.5,-291.12 372.24,-286.73 388.41,-283.12 403.65,-280.24"/>
<polygon fill="#63b8ff" stroke="#63b8ff" points="403.84,-283.76 413.06,-278.54 402.6,-276.87 403.84,-283.76"/>
</a>
</g>
</g>
<!-- Node38 -->
<g id="Node000038" class="node">
<title>Node38</title>
<g id="a_Node000038"><a xlink:href="espnow__timesync_8c.html#a2111aa57c26ce6218f9f0cfb6bf235af" target="_top" xlink:title="Initialize time synchronization.">
<polygon fill="white" stroke="#666666" points="537.38,-242.25 396.12,-242.25 396.12,-220 537.38,-220 537.38,-242.25"/>
<text text-anchor="middle" x="466.75" y="-226.85" font-family="Arial" font-size="12.00">espnow_timesync_start</text>
</a>
</g>
</g>
<!-- Node35&#45;&gt;Node38 -->
<g id="edge42_Node000035_Node000038" class="edge">
<title>Node35&#45;&gt;Node38</title>
<g id="a_edge42_Node000035_Node000038"><a xlink:title=" ">
<path fill="none" stroke="#63b8ff" d="M226.67,-339.71C250.15,-318.61 303.81,-273.59 357.5,-251.12 366.12,-247.52 375.39,-244.56 384.75,-242.14"/>
<polygon fill="#63b8ff" stroke="#63b8ff" points="385.36,-245.59 394.28,-239.88 383.74,-238.78 385.36,-245.59"/>
</a>
</g>
</g>
<!-- Node37 -->
<g id="Node000037" class="node">
<title>Node37</title>
<g id="a_Node000037"><a xlink:href="espnow__log__flash_8c.html#a8f2cce758ed84ea78771e12972d3e929" target="_top" xlink:title="Initialize espnow log flash Find and get log flash partition which size is not smaller than LOG_FLASH...">
<polygon fill="white" stroke="#666666" points="779.5,-42.25 643.5,-42.25 643.5,-20 779.5,-20 779.5,-42.25"/>
<text text-anchor="middle" x="711.5" y="-26.85" font-family="Arial" font-size="12.00">espnow_log_flash_init</text>
</a>
</g>
</g>
<!-- Node36&#45;&gt;Node37 -->
<g id="edge40_Node000036_Node000037" class="edge">
<title>Node36&#45;&gt;Node37</title>
<g id="a_edge40_Node000036_Node000037"><a xlink:title=" ">
<path fill="none" stroke="#63b8ff" d="M519.02,-273.54C539.3,-271.76 561.24,-265.96 576,-251.12 639.72,-187.11 548.85,-115.69 612,-51.12 617.79,-45.21 624.81,-40.8 632.42,-37.54"/>
<polygon fill="#63b8ff" stroke="#63b8ff" points="633.39,-40.9 641.66,-34.27 631.06,-34.3 633.39,-40.9"/>
</a>
</g>
</g>
</g>
</svg>
