<?xml version="1.0" encoding="UTF-8" standalone="no"?>
<!DOCTYPE svg PUBLIC "-//W3C//DTD SVG 1.1//EN"
 "http://www.w3.org/Graphics/SVG/1.1/DTD/svg11.dtd">
<!-- Generated by graphviz version 12.2.1 (20241206.2353)
 -->
<!-- Title: include/all_includes.h Pages: 1 -->
<svg width="2342pt" height="89pt"
 viewBox="0.00 0.00 2342.38 88.50" xmlns="http://www.w3.org/2000/svg" xmlns:xlink="http://www.w3.org/1999/xlink">
<g id="graph0" class="graph" transform="scale(1 1) rotate(0) translate(4 84.5)">
<title>include/all_includes.h</title>
<!-- Node1 -->
<g id="Node000001" class="node">
<title>Node1</title>
<g id="a_Node000001"><a xlink:title="Contains the system wide includes for esp&#45;idf and c++, along with structs and enums.">
<polygon fill="#999999" stroke="#666666" points="1177.75,-80.5 1045.5,-80.5 1045.5,-58.25 1177.75,-58.25 1177.75,-80.5"/>
<text text-anchor="middle" x="1111.62" y="-65.1" font-family="Arial" font-size="12.00">include/all_includes.h</text>
</a>
</g>
</g>
<!-- Node2 -->
<g id="Node000002" class="node">
<title>Node2</title>
<g id="a_Node000002"><a xlink:title=" ">
<polygon fill="#e0e0e0" stroke="#999999" points="45.25,-22.25 0,-22.25 0,0 45.25,0 45.25,-22.25"/>
<text text-anchor="middle" x="22.62" y="-6.85" font-family="Arial" font-size="12.00">string</text>
</a>
</g>
</g>
<!-- Node1&#45;&gt;Node2 -->
<g id="edge1_Node000001_Node000002" class="edge">
<title>Node1&#45;&gt;Node2</title>
<g id="a_edge1_Node000001_Node000002"><a xlink:title=" ">
<path fill="none" stroke="#63b8ff" d="M1045.24,-67.84C848.03,-65.88 266.78,-57.36 56.68,-22.32"/>
<polygon fill="#63b8ff" stroke="#63b8ff" points="57.41,-18.89 46.96,-20.61 56.21,-25.79 57.41,-18.89"/>
</a>
</g>
</g>
<!-- Node3 -->
<g id="Node000003" class="node">
<title>Node3</title>
<g id="a_Node000003"><a xlink:title=" ">
<polygon fill="#e0e0e0" stroke="#999999" points="118.12,-22.25 63.12,-22.25 63.12,0 118.12,0 118.12,-22.25"/>
<text text-anchor="middle" x="90.62" y="-6.85" font-family="Arial" font-size="12.00">string.h</text>
</a>
</g>
</g>
<!-- Node1&#45;&gt;Node3 -->
<g id="edge2_Node000001_Node000003" class="edge">
<title>Node1&#45;&gt;Node3</title>
<g id="a_edge2_Node000001_Node000003"><a xlink:title=" ">
<path fill="none" stroke="#63b8ff" d="M1045.17,-67.23C857.6,-63.7 325.51,-51.48 129.69,-22.37"/>
<polygon fill="#63b8ff" stroke="#63b8ff" points="130.31,-18.92 119.89,-20.84 129.23,-25.84 130.31,-18.92"/>
</a>
</g>
</g>
<!-- Node4 -->
<g id="Node000004" class="node">
<title>Node4</title>
<g id="a_Node000004"><a xlink:title=" ">
<polygon fill="#e0e0e0" stroke="#999999" points="187.25,-22.25 136,-22.25 136,0 187.25,0 187.25,-22.25"/>
<text text-anchor="middle" x="161.62" y="-6.85" font-family="Arial" font-size="12.00">stdio.h</text>
</a>
</g>
</g>
<!-- Node1&#45;&gt;Node4 -->
<g id="edge3_Node000001_Node000004" class="edge">
<title>Node1&#45;&gt;Node4</title>
<g id="a_edge3_Node000001_Node000004"><a xlink:title=" ">
<path fill="none" stroke="#63b8ff" d="M1045.05,-67.02C866.88,-63.07 380.95,-50.17 198.76,-22.15"/>
<polygon fill="#63b8ff" stroke="#63b8ff" points="199.39,-18.7 188.96,-20.56 198.27,-25.61 199.39,-18.7"/>
</a>
</g>
</g>
<!-- Node5 -->
<g id="Node000005" class="node">
<title>Node5</title>
<g id="a_Node000005"><a xlink:title=" ">
<polygon fill="#e0e0e0" stroke="#999999" points="257.62,-22.25 205.62,-22.25 205.62,0 257.62,0 257.62,-22.25"/>
<text text-anchor="middle" x="231.62" y="-6.85" font-family="Arial" font-size="12.00">math.h</text>
</a>
</g>
</g>
<!-- Node1&#45;&gt;Node5 -->
<g id="edge4_Node000001_Node000005" class="edge">
<title>Node1&#45;&gt;Node5</title>
<g id="a_edge4_Node000001_Node000005"><a xlink:title=" ">
<path fill="none" stroke="#63b8ff" d="M1045.21,-66.7C877.12,-62.15 436.83,-48.25 269.2,-22.26"/>
<polygon fill="#63b8ff" stroke="#63b8ff" points="269.78,-18.8 259.34,-20.65 268.65,-25.71 269.78,-18.8"/>
</a>
</g>
</g>
<!-- Node6 -->
<g id="Node000006" class="node">
<title>Node6</title>
<g id="a_Node000006"><a xlink:title=" ">
<polygon fill="#e0e0e0" stroke="#999999" points="349.5,-22.25 275.75,-22.25 275.75,0 349.5,0 349.5,-22.25"/>
<text text-anchor="middle" x="312.62" y="-6.85" font-family="Arial" font-size="12.00">esp_now.h</text>
</a>
</g>
</g>
<!-- Node1&#45;&gt;Node6 -->
<g id="edge5_Node000001_Node000006" class="edge">
<title>Node1&#45;&gt;Node6</title>
<g id="a_edge5_Node000001_Node000006"><a xlink:title=" ">
<path fill="none" stroke="#63b8ff" d="M1045.05,-67.76C915.2,-65.82 618.97,-57.69 361.03,-22.39"/>
<polygon fill="#63b8ff" stroke="#63b8ff" points="361.83,-18.96 351.44,-21.06 360.87,-25.9 361.83,-18.96"/>
</a>
</g>
</g>
<!-- Node7 -->
<g id="Node000007" class="node">
<title>Node7</title>
<g id="a_Node000007"><a xlink:title=" ">
<polygon fill="#e0e0e0" stroke="#999999" points="437.62,-22.25 367.62,-22.25 367.62,0 437.62,0 437.62,-22.25"/>
<text text-anchor="middle" x="402.62" y="-6.85" font-family="Arial" font-size="12.00">esp_wifi.h</text>
</a>
</g>
</g>
<!-- Node1&#45;&gt;Node7 -->
<g id="edge6_Node000001_Node000007" class="edge">
<title>Node1&#45;&gt;Node7</title>
<g id="a_edge6_Node000001_Node000007"><a xlink:title=" ">
<path fill="none" stroke="#63b8ff" d="M1045.18,-67.21C927.07,-64.39 672.74,-54.93 449.36,-22.45"/>
<polygon fill="#63b8ff" stroke="#63b8ff" points="449.98,-19 439.57,-21.01 448.95,-25.93 449.98,-19"/>
</a>
</g>
</g>
<!-- Node8 -->
<g id="Node000008" class="node">
<title>Node8</title>
<g id="a_Node000008"><a xlink:title=" ">
<polygon fill="#e0e0e0" stroke="#999999" points="523.88,-22.25 455.38,-22.25 455.38,0 523.88,0 523.88,-22.25"/>
<text text-anchor="middle" x="489.62" y="-6.85" font-family="Arial" font-size="12.00">esp_log.h</text>
</a>
</g>
</g>
<!-- Node1&#45;&gt;Node8 -->
<g id="edge7_Node000001_Node000008" class="edge">
<title>Node1&#45;&gt;Node8</title>
<g id="a_edge7_Node000001_Node000008"><a xlink:title=" ">
<path fill="none" stroke="#63b8ff" d="M1045.38,-66.24C939.68,-62.15 726.23,-51.06 535.49,-22.31"/>
<polygon fill="#63b8ff" stroke="#63b8ff" points="536.03,-18.85 525.62,-20.79 534.97,-25.77 536.03,-18.85"/>
</a>
</g>
</g>
<!-- Node9 -->
<g id="Node000009" class="node">
<title>Node9</title>
<g id="a_Node000009"><a xlink:title=" ">
<polygon fill="#e0e0e0" stroke="#999999" points="616.88,-22.25 542.38,-22.25 542.38,0 616.88,0 616.88,-22.25"/>
<text text-anchor="middle" x="579.62" y="-6.85" font-family="Arial" font-size="12.00">esp_mac.h</text>
</a>
</g>
</g>
<!-- Node1&#45;&gt;Node9 -->
<g id="edge8_Node000001_Node000009" class="edge">
<title>Node1&#45;&gt;Node9</title>
<g id="a_edge8_Node000001_Node000009"><a xlink:title=" ">
<path fill="none" stroke="#63b8ff" d="M1045.27,-64.65C953.61,-58.94 782.9,-46.25 628.31,-22.52"/>
<polygon fill="#63b8ff" stroke="#63b8ff" points="629.12,-19.1 618.71,-21.02 628.05,-26.02 629.12,-19.1"/>
</a>
</g>
</g>
<!-- Node10 -->
<g id="Node000010" class="node">
<title>Node10</title>
<g id="a_Node000010"><a xlink:title=" ">
<polygon fill="#e0e0e0" stroke="#999999" points="760.38,-22.25 634.88,-22.25 634.88,0 760.38,0 760.38,-22.25"/>
<text text-anchor="middle" x="697.62" y="-6.85" font-family="Arial" font-size="12.00">freertos/FreeRTOS.h</text>
</a>
</g>
</g>
<!-- Node1&#45;&gt;Node10 -->
<g id="edge9_Node000001_Node000010" class="edge">
<title>Node1&#45;&gt;Node10</title>
<g id="a_edge9_Node000001_Node000010"><a xlink:title=" ">
<path fill="none" stroke="#63b8ff" d="M1045.09,-59.51C978.65,-50.64 873.28,-36.5 772.19,-22.6"/>
<polygon fill="#63b8ff" stroke="#63b8ff" points="772.72,-19.14 762.34,-21.24 771.77,-26.07 772.72,-19.14"/>
</a>
</g>
</g>
<!-- Node11 -->
<g id="Node000011" class="node">
<title>Node11</title>
<g id="a_Node000011"><a xlink:title=" ">
<polygon fill="#e0e0e0" stroke="#999999" points="868.75,-22.25 778.5,-22.25 778.5,0 868.75,0 868.75,-22.25"/>
<text text-anchor="middle" x="823.62" y="-6.85" font-family="Arial" font-size="12.00">freertos/task.h</text>
</a>
</g>
</g>
<!-- Node1&#45;&gt;Node11 -->
<g id="edge10_Node000001_Node000011" class="edge">
<title>Node1&#45;&gt;Node11</title>
<g id="a_edge10_Node000001_Node000011"><a xlink:title=" ">
<path fill="none" stroke="#63b8ff" d="M1057.45,-57.79C1006.86,-47.91 931.63,-33.22 880.25,-23.19"/>
<polygon fill="#63b8ff" stroke="#63b8ff" points="881,-19.76 870.51,-21.28 879.66,-26.63 881,-19.76"/>
</a>
</g>
</g>
<!-- Node12 -->
<g id="Node000012" class="node">
<title>Node12</title>
<g id="a_Node000012"><a xlink:title=" ">
<polygon fill="#e0e0e0" stroke="#999999" points="988.75,-22.25 886.5,-22.25 886.5,0 988.75,0 988.75,-22.25"/>
<text text-anchor="middle" x="937.62" y="-6.85" font-family="Arial" font-size="12.00">freertos/queue.h</text>
</a>
</g>
</g>
<!-- Node1&#45;&gt;Node12 -->
<g id="edge11_Node000001_Node000012" class="edge">
<title>Node1&#45;&gt;Node12</title>
<g id="a_edge11_Node000001_Node000012"><a xlink:title=" ">
<path fill="none" stroke="#63b8ff" d="M1078.9,-57.79C1051.19,-48.84 1011.26,-35.93 980.91,-26.12"/>
<polygon fill="#63b8ff" stroke="#63b8ff" points="982.24,-22.87 971.65,-23.12 980.09,-29.53 982.24,-22.87"/>
</a>
</g>
</g>
<!-- Node13 -->
<g id="Node000013" class="node">
<title>Node13</title>
<g id="a_Node000013"><a xlink:title=" ">
<polygon fill="#e0e0e0" stroke="#999999" points="1108,-22.25 1007.25,-22.25 1007.25,0 1108,0 1108,-22.25"/>
<text text-anchor="middle" x="1057.62" y="-6.85" font-family="Arial" font-size="12.00">freertos/timers.h</text>
</a>
</g>
</g>
<!-- Node1&#45;&gt;Node13 -->
<g id="edge12_Node000001_Node000013" class="edge">
<title>Node1&#45;&gt;Node13</title>
<g id="a_edge12_Node000001_Node000013"><a xlink:title=" ">
<path fill="none" stroke="#63b8ff" d="M1101.47,-57.79C1094.15,-50.17 1084.09,-39.69 1075.45,-30.69"/>
<polygon fill="#63b8ff" stroke="#63b8ff" points="1078.23,-28.54 1068.78,-23.75 1073.19,-33.39 1078.23,-28.54"/>
</a>
</g>
</g>
<!-- Node14 -->
<g id="Node000014" class="node">
<title>Node14</title>
<g id="a_Node000014"><a xlink:title=" ">
<polygon fill="#e0e0e0" stroke="#999999" points="1207.62,-22.25 1125.62,-22.25 1125.62,0 1207.62,0 1207.62,-22.25"/>
<text text-anchor="middle" x="1166.62" y="-6.85" font-family="Arial" font-size="12.00">driver/gpio.h</text>
</a>
</g>
</g>
<!-- Node1&#45;&gt;Node14 -->
<g id="edge13_Node000001_Node000014" class="edge">
<title>Node1&#45;&gt;Node14</title>
<g id="a_edge13_Node000001_Node000014"><a xlink:title=" ">
<path fill="none" stroke="#63b8ff" d="M1121.97,-57.79C1129.42,-50.17 1139.67,-39.69 1148.47,-30.69"/>
<polygon fill="#63b8ff" stroke="#63b8ff" points="1150.78,-33.34 1155.27,-23.74 1145.77,-28.44 1150.78,-33.34"/>
</a>
</g>
</g>
<!-- Node15 -->
<g id="Node000015" class="node">
<title>Node15</title>
<g id="a_Node000015"><a xlink:title=" ">
<polygon fill="#e0e0e0" stroke="#999999" points="1341.88,-22.25 1225.38,-22.25 1225.38,0 1341.88,0 1341.88,-22.25"/>
<text text-anchor="middle" x="1283.62" y="-6.85" font-family="Arial" font-size="12.00">driver/i2c_master.h</text>
</a>
</g>
</g>
<!-- Node1&#45;&gt;Node15 -->
<g id="edge14_Node000001_Node000015" class="edge">
<title>Node1&#45;&gt;Node15</title>
<g id="a_edge14_Node000001_Node000015"><a xlink:title=" ">
<path fill="none" stroke="#63b8ff" d="M1143.98,-57.79C1171.36,-48.84 1210.84,-35.93 1240.84,-26.12"/>
<polygon fill="#63b8ff" stroke="#63b8ff" points="1241.56,-29.56 1249.98,-23.13 1239.39,-22.91 1241.56,-29.56"/>
</a>
</g>
</g>
<!-- Node16 -->
<g id="Node000016" class="node">
<title>Node16</title>
<g id="a_Node000016"><a xlink:title=" ">
<polygon fill="#e0e0e0" stroke="#999999" points="1440.88,-22.25 1360.38,-22.25 1360.38,0 1440.88,0 1440.88,-22.25"/>
<text text-anchor="middle" x="1400.62" y="-6.85" font-family="Arial" font-size="12.00">driver/twai.h</text>
</a>
</g>
</g>
<!-- Node1&#45;&gt;Node16 -->
<g id="edge15_Node000001_Node000016" class="edge">
<title>Node1&#45;&gt;Node16</title>
<g id="a_edge15_Node000001_Node000016"><a xlink:title=" ">
<path fill="none" stroke="#63b8ff" d="M1167.19,-57.8C1213.19,-49.01 1280.55,-36.07 1348.98,-22.56"/>
<polygon fill="#63b8ff" stroke="#63b8ff" points="1349.36,-26.06 1358.49,-20.68 1348,-19.19 1349.36,-26.06"/>
</a>
</g>
</g>
<!-- Node17 -->
<g id="Node000017" class="node">
<title>Node17</title>
<g id="a_Node000017"><a xlink:title=" ">
<polygon fill="#e0e0e0" stroke="#999999" points="1540.25,-22.25 1459,-22.25 1459,0 1540.25,0 1540.25,-22.25"/>
<text text-anchor="middle" x="1499.62" y="-6.85" font-family="Arial" font-size="12.00">driver/ledc.h</text>
</a>
</g>
</g>
<!-- Node1&#45;&gt;Node17 -->
<g id="edge16_Node000001_Node000017" class="edge">
<title>Node1&#45;&gt;Node17</title>
<g id="a_edge16_Node000001_Node000017"><a xlink:title=" ">
<path fill="none" stroke="#63b8ff" d="M1178.2,-60.57C1244.03,-52.56 1347.92,-39.15 1447.55,-22.51"/>
<polygon fill="#63b8ff" stroke="#63b8ff" points="1447.96,-25.99 1457.24,-20.88 1446.8,-19.09 1447.96,-25.99"/>
</a>
</g>
</g>
<!-- Node18 -->
<g id="Node000018" class="node">
<title>Node18</title>
<g id="a_Node000018"><a xlink:title=" ">
<polygon fill="#e0e0e0" stroke="#999999" points="1647.38,-22.25 1557.88,-22.25 1557.88,0 1647.38,0 1647.38,-22.25"/>
<text text-anchor="middle" x="1602.62" y="-6.85" font-family="Arial" font-size="12.00">esp_system.h</text>
</a>
</g>
</g>
<!-- Node1&#45;&gt;Node18 -->
<g id="edge17_Node000001_Node000018" class="edge">
<title>Node1&#45;&gt;Node18</title>
<g id="a_edge17_Node000001_Node000018"><a xlink:title=" ">
<path fill="none" stroke="#63b8ff" d="M1177.88,-63.14C1261.59,-56.14 1410.29,-42.41 1546.52,-22.62"/>
<polygon fill="#63b8ff" stroke="#63b8ff" points="1546.68,-26.14 1556.07,-21.22 1545.66,-19.21 1546.68,-26.14"/>
</a>
</g>
</g>
<!-- Node19 -->
<g id="Node000019" class="node">
<title>Node19</title>
<g id="a_Node000019"><a xlink:title=" ">
<polygon fill="#e0e0e0" stroke="#999999" points="1732.12,-22.25 1665.12,-22.25 1665.12,0 1732.12,0 1732.12,-22.25"/>
<text text-anchor="middle" x="1698.62" y="-6.85" font-family="Arial" font-size="12.00">espnow.h</text>
</a>
</g>
</g>
<!-- Node1&#45;&gt;Node19 -->
<g id="edge18_Node000001_Node000019" class="edge">
<title>Node1&#45;&gt;Node19</title>
<g id="a_edge18_Node000001_Node000019"><a xlink:title=" ">
<path fill="none" stroke="#63b8ff" d="M1177.88,-66.02C1278.7,-61.72 1476.78,-50.47 1653.45,-22.57"/>
<polygon fill="#63b8ff" stroke="#63b8ff" points="1653.97,-26.03 1663.29,-20.99 1652.87,-19.12 1653.97,-26.03"/>
</a>
</g>
</g>
<!-- Node20 -->
<g id="Node000020" class="node">
<title>Node20</title>
<g id="a_Node000020"><a xlink:title=" ">
<polygon fill="#e0e0e0" stroke="#999999" points="1831.25,-22.25 1750,-22.25 1750,0 1831.25,0 1831.25,-22.25"/>
<text text-anchor="middle" x="1790.62" y="-6.85" font-family="Arial" font-size="12.00">esp_event.h</text>
</a>
</g>
</g>
<!-- Node1&#45;&gt;Node20 -->
<g id="edge19_Node000001_Node000020" class="edge">
<title>Node1&#45;&gt;Node20</title>
<g id="a_edge19_Node000001_Node000020"><a xlink:title=" ">
<path fill="none" stroke="#63b8ff" d="M1178.14,-66.36C1291.35,-62.31 1528.88,-51.1 1738.31,-22.57"/>
<polygon fill="#63b8ff" stroke="#63b8ff" points="1738.59,-26.07 1748.02,-21.23 1737.64,-19.13 1738.59,-26.07"/>
</a>
</g>
</g>
<!-- Node21 -->
<g id="Node000021" class="node">
<title>Node21</title>
<g id="a_Node000021"><a xlink:title=" ">
<polygon fill="#e0e0e0" stroke="#999999" points="1926,-22.25 1849.25,-22.25 1849.25,0 1926,0 1926,-22.25"/>
<text text-anchor="middle" x="1887.62" y="-6.85" font-family="Arial" font-size="12.00">nvs_flash.h</text>
</a>
</g>
</g>
<!-- Node1&#45;&gt;Node21 -->
<g id="edge20_Node000001_Node000021" class="edge">
<title>Node1&#45;&gt;Node21</title>
<g id="a_edge20_Node000001_Node000021"><a xlink:title=" ">
<path fill="none" stroke="#63b8ff" d="M1177.8,-67.48C1304.32,-65.06 1589.36,-56.15 1837.92,-22.45"/>
<polygon fill="#63b8ff" stroke="#63b8ff" points="1838.05,-25.96 1847.48,-21.13 1837.09,-19.03 1838.05,-25.96"/>
</a>
</g>
</g>
<!-- Node22 -->
<g id="Node000022" class="node">
<title>Node22</title>
<g id="a_Node000022"><a xlink:title=" ">
<polygon fill="#e0e0e0" stroke="#999999" points="2034.75,-22.25 1944.5,-22.25 1944.5,0 2034.75,0 2034.75,-22.25"/>
<text text-anchor="middle" x="1989.62" y="-6.85" font-family="Arial" font-size="12.00">espnow_ctrl.h</text>
</a>
</g>
</g>
<!-- Node1&#45;&gt;Node22 -->
<g id="edge21_Node000001_Node000022" class="edge">
<title>Node1&#45;&gt;Node22</title>
<g id="a_edge21_Node000001_Node000022"><a xlink:title=" ">
<path fill="none" stroke="#63b8ff" d="M1178.01,-67.49C1316.45,-65.03 1646.19,-55.96 1933.03,-22.28"/>
<polygon fill="#63b8ff" stroke="#63b8ff" points="1933.05,-25.8 1942.57,-21.15 1932.23,-18.85 1933.05,-25.8"/>
</a>
</g>
</g>
<!-- Node23 -->
<g id="Node000023" class="node">
<title>Node23</title>
<g id="a_Node000023"><a xlink:title=" ">
<polygon fill="#e0e0e0" stroke="#999999" points="2148.75,-22.25 2052.5,-22.25 2052.5,0 2148.75,0 2148.75,-22.25"/>
<text text-anchor="middle" x="2100.62" y="-6.85" font-family="Arial" font-size="12.00">espnow_utils.h</text>
</a>
</g>
</g>
<!-- Node1&#45;&gt;Node23 -->
<g id="edge22_Node000001_Node000023" class="edge">
<title>Node1&#45;&gt;Node23</title>
<g id="a_edge22_Node000001_Node000023"><a xlink:title=" ">
<path fill="none" stroke="#63b8ff" d="M1178.25,-67.96C1329.78,-66.4 1711.95,-58.95 2040.99,-22.42"/>
<polygon fill="#63b8ff" stroke="#63b8ff" points="2041.12,-25.92 2050.67,-21.33 2040.34,-18.97 2041.12,-25.92"/>
</a>
</g>
</g>
<!-- Node24 -->
<g id="Node000024" class="node">
<title>Node24</title>
<g id="a_Node000024"><a xlink:title=" ">
<polygon fill="#e0e0e0" stroke="#999999" points="2244.38,-22.25 2166.88,-22.25 2166.88,0 2244.38,0 2244.38,-22.25"/>
<text text-anchor="middle" x="2205.62" y="-6.85" font-family="Arial" font-size="12.00">esp_timer.h</text>
</a>
</g>
</g>
<!-- Node1&#45;&gt;Node24 -->
<g id="edge23_Node000001_Node000024" class="edge">
<title>Node1&#45;&gt;Node24</title>
<g id="a_edge23_Node000001_Node000024"><a xlink:title=" ">
<path fill="none" stroke="#63b8ff" d="M1178.17,-66.87C1373.77,-62.22 1945.75,-46.97 2155.23,-22.31"/>
<polygon fill="#63b8ff" stroke="#63b8ff" points="2155.42,-25.81 2164.92,-21.12 2154.57,-18.87 2155.42,-25.81"/>
</a>
</g>
</g>
<!-- Node25 -->
<g id="Node000025" class="node">
<title>Node25</title>
<g id="a_Node000025"><a xlink:title=" ">
<polygon fill="#e0e0e0" stroke="#999999" points="2334.38,-22.25 2262.88,-22.25 2262.88,0 2334.38,0 2334.38,-22.25"/>
<text text-anchor="middle" x="2298.62" y="-6.85" font-family="Arial" font-size="12.00">led_strip.h</text>
</a>
</g>
</g>
<!-- Node1&#45;&gt;Node25 -->
<g id="edge24_Node000001_Node000025" class="edge">
<title>Node1&#45;&gt;Node25</title>
<g id="a_edge24_Node000001_Node000025"><a xlink:title=" ">
<path fill="none" stroke="#63b8ff" d="M1178.23,-67.27C1386.09,-63.57 2022.02,-50.34 2251.13,-22.3"/>
<polygon fill="#63b8ff" stroke="#63b8ff" points="2251.4,-25.8 2260.88,-21.06 2250.51,-18.85 2251.4,-25.8"/>
</a>
</g>
</g>
</g>
</svg>
