<?xml version="1.0" encoding="UTF-8" standalone="no"?>
<!DOCTYPE svg PUBLIC "-//W3C//DTD SVG 1.1//EN"
 "http://www.w3.org/Graphics/SVG/1.1/DTD/svg11.dtd">
<!-- Generated by graphviz version 12.2.1 (20241206.2353)
 -->
<!-- Title: include/all_includes.h Pages: 1 -->
<svg width="2765pt" height="380pt"
 viewBox="0.00 0.00 2765.25 379.75" xmlns="http://www.w3.org/2000/svg" xmlns:xlink="http://www.w3.org/1999/xlink">
<g id="graph0" class="graph" transform="scale(1 1) rotate(0) translate(4 375.75)">
<title>include/all_includes.h</title>
<!-- Node1 -->
<g id="Node000001" class="node">
<title>Node1</title>
<g id="a_Node000001"><a xlink:title="Contains the system wide includes for esp&#45;idf and c++, along with structs and enums.">
<polygon fill="#999999" stroke="#666666" points="1458.38,-371.75 1326.12,-371.75 1326.12,-349.5 1458.38,-349.5 1458.38,-371.75"/>
<text text-anchor="middle" x="1392.25" y="-356.35" font-family="Arial" font-size="12.00">include/all_includes.h</text>
</a>
</g>
</g>
<!-- Node2 -->
<g id="Node000002" class="node">
<title>Node2</title>
<g id="a_Node000002"><a xlink:href="led__strip__driver_8h.html" target="_top" xlink:title=" ">
<polygon fill="white" stroke="#666666" points="310.5,-313.5 122,-313.5 122,-291.25 310.5,-291.25 310.5,-313.5"/>
<text text-anchor="middle" x="216.25" y="-298.1" font-family="Arial" font-size="12.00">include/drivers/led_strip_driver.h</text>
</a>
</g>
</g>
<!-- Node1&#45;&gt;Node2 -->
<g id="edge1_Node000001_Node000002" class="edge">
<title>Node1&#45;&gt;Node2</title>
<g id="a_edge1_Node000001_Node000002"><a xlink:title=" ">
<path fill="none" stroke="#63b8ff" d="M1314.23,-355.89C1105.9,-345.93 537.08,-318.72 310.86,-307.9"/>
<polygon fill="#63b8ff" stroke="#63b8ff" points="1313.99,-359.39 1324.14,-356.37 1314.32,-352.39 1313.99,-359.39"/>
</a>
</g>
</g>
<!-- Node5 -->
<g id="Node000005" class="node">
<title>Node5</title>
<g id="a_Node000005"><a xlink:href="o_drive_8h.html" target="_top" xlink:title="This is the header for the oDrive class.">
<polygon fill="white" stroke="#666666" points="1218.25,-255.25 1076.25,-255.25 1076.25,-233 1218.25,-233 1218.25,-255.25"/>
<text text-anchor="middle" x="1147.25" y="-239.85" font-family="Arial" font-size="12.00">include/drivers/oDrive.h</text>
</a>
</g>
</g>
<!-- Node1&#45;&gt;Node5 -->
<g id="edge4_Node000001_Node000005" class="edge">
<title>Node1&#45;&gt;Node5</title>
<g id="a_edge4_Node000001_Node000005"><a xlink:title=" ">
<path fill="none" stroke="#63b8ff" d="M1324.39,-346.37C1295.03,-339.07 1260.91,-328.39 1232.25,-313.5 1202.17,-297.87 1172.6,-270.67 1157.53,-255.72"/>
<polygon fill="#63b8ff" stroke="#63b8ff" points="1323.37,-349.73 1333.91,-348.66 1325,-342.92 1323.37,-349.73"/>
</a>
</g>
</g>
<!-- Node6 -->
<g id="Node000006" class="node">
<title>Node6</title>
<g id="a_Node000006"><a xlink:href="kicker__drive__train_8h.html" target="_top" xlink:title="Header for the kicker drive_train class.">
<polygon fill="white" stroke="#666666" points="1020,-197 798.5,-197 798.5,-174.75 1020,-174.75 1020,-197"/>
<text text-anchor="middle" x="909.25" y="-181.6" font-family="Arial" font-size="12.00">include/supporting/kicker_drive_train.h</text>
</a>
</g>
</g>
<!-- Node1&#45;&gt;Node6 -->
<g id="edge59_Node000001_Node000006" class="edge">
<title>Node1&#45;&gt;Node6</title>
<g id="a_edge59_Node000001_Node000006"><a xlink:title=" ">
<path fill="none" stroke="#63b8ff" d="M1317.85,-346.9C1241.36,-331.93 1120.21,-302.88 1024.25,-255.25 1008.41,-247.38 1006.3,-242.29 991.25,-233 970.4,-220.14 945.83,-206.51 929.06,-197.43"/>
<polygon fill="#63b8ff" stroke="#63b8ff" points="1316.83,-350.27 1327.31,-348.72 1318.15,-343.4 1316.83,-350.27"/>
</a>
</g>
</g>
<!-- Node7 -->
<g id="Node000007" class="node">
<title>Node7</title>
<g id="a_Node000007"><a xlink:href="kicker__drive__train__task_8h.html" target="_top" xlink:title="Contains the externs and defines for the kicker drive train task.">
<polygon fill="white" stroke="#666666" points="1357,-138.75 1135.5,-138.75 1135.5,-116.5 1357,-116.5 1357,-138.75"/>
<text text-anchor="middle" x="1246.25" y="-123.35" font-family="Arial" font-size="12.00">include/tasks/kicker_drive_train_task.h</text>
</a>
</g>
</g>
<!-- Node1&#45;&gt;Node7 -->
<g id="edge62_Node000001_Node000007" class="edge">
<title>Node1&#45;&gt;Node7</title>
<g id="a_edge62_Node000001_Node000007"><a xlink:title=" ">
<path fill="none" stroke="#63b8ff" d="M1361.64,-343.4C1331.82,-325.86 1287.79,-295 1265.25,-255.25 1243.43,-216.77 1244.05,-161.6 1245.41,-138.94"/>
<polygon fill="#63b8ff" stroke="#63b8ff" points="1359.8,-346.38 1370.22,-348.29 1363.26,-340.29 1359.8,-346.38"/>
</a>
</g>
</g>
<!-- Node8 -->
<g id="Node000008" class="node">
<title>Node8</title>
<g id="a_Node000008"><a xlink:href="main_8cpp.html" target="_top" xlink:title="This is the file that contains the main function and all other tasks for the robot.">
<polygon fill="white" stroke="#666666" points="1585.25,-22.25 1491.25,-22.25 1491.25,0 1585.25,0 1585.25,-22.25"/>
<text text-anchor="middle" x="1538.25" y="-6.85" font-family="Arial" font-size="12.00">main/main.cpp</text>
</a>
</g>
</g>
<!-- Node1&#45;&gt;Node8 -->
<g id="edge64_Node000001_Node000008" class="edge">
<title>Node1&#45;&gt;Node8</title>
<g id="a_edge64_Node000001_Node000008"><a xlink:title=" ">
<path fill="none" stroke="#63b8ff" d="M1470.3,-355.51C1658.96,-344.52 2124.25,-310.76 2124.25,-245.12 2124.25,-245.12 2124.25,-245.12 2124.25,-126.62 2124.25,-17.13 1725.21,-10.38 1585.71,-11.36"/>
<polygon fill="#63b8ff" stroke="#63b8ff" points="1470.12,-352.01 1460.34,-356.08 1470.52,-359 1470.12,-352.01"/>
</a>
</g>
</g>
<!-- Node12 -->
<g id="Node000012" class="node">
<title>Node12</title>
<g id="a_Node000012"><a xlink:href="servo_8h.html" target="_top" xlink:title="This is the header for the servo motor class.">
<polygon fill="white" stroke="#666666" points="784.25,-313.5 648.25,-313.5 648.25,-291.25 784.25,-291.25 784.25,-313.5"/>
<text text-anchor="middle" x="716.25" y="-298.1" font-family="Arial" font-size="12.00">include/drivers/servo.h</text>
</a>
</g>
</g>
<!-- Node1&#45;&gt;Node12 -->
<g id="edge12_Node000001_Node000012" class="edge">
<title>Node1&#45;&gt;Node12</title>
<g id="a_edge12_Node000001_Node000012"><a xlink:title=" ">
<path fill="none" stroke="#63b8ff" d="M1314.77,-353.47C1206.21,-344.79 1002.66,-328.37 829.25,-313.5 814.83,-312.26 799.37,-310.9 784.66,-309.59"/>
<polygon fill="#63b8ff" stroke="#63b8ff" points="1314.18,-356.93 1324.43,-354.24 1314.74,-349.95 1314.18,-356.93"/>
</a>
</g>
</g>
<!-- Node13 -->
<g id="Node000013" class="node">
<title>Node13</title>
<g id="a_Node000013"><a xlink:href="servo__driver__task_8h.html" target="_top" xlink:title="Contains the externs and defines for the servo driver task.">
<polygon fill="white" stroke="#666666" points="812.75,-255.25 619.75,-255.25 619.75,-233 812.75,-233 812.75,-255.25"/>
<text text-anchor="middle" x="716.25" y="-239.85" font-family="Arial" font-size="12.00">include/tasks/servo_driver_task.h</text>
</a>
</g>
</g>
<!-- Node1&#45;&gt;Node13 -->
<g id="edge63_Node000001_Node000013" class="edge">
<title>Node1&#45;&gt;Node13</title>
<g id="a_edge63_Node000001_Node000013"><a xlink:title=" ">
<path fill="none" stroke="#63b8ff" d="M1314.44,-355.55C1226.4,-349.99 1079,-337.79 954.25,-313.5 878.29,-298.71 791.49,-270.91 746.64,-255.71"/>
<polygon fill="#63b8ff" stroke="#63b8ff" points="1313.97,-359.03 1324.16,-356.15 1314.4,-352.04 1313.97,-359.03"/>
</a>
</g>
</g>
<!-- Node16 -->
<g id="Node000016" class="node">
<title>Node16</title>
<g id="a_Node000016"><a xlink:href="ssd1306_8h.html" target="_top" xlink:title=" ">
<polygon fill="white" stroke="#666666" points="2304.5,-197 2152,-197 2152,-174.75 2304.5,-174.75 2304.5,-197"/>
<text text-anchor="middle" x="2228.25" y="-181.6" font-family="Arial" font-size="12.00">include/drivers/ssd1306.h</text>
</a>
</g>
</g>
<!-- Node1&#45;&gt;Node16 -->
<g id="edge17_Node000001_Node000016" class="edge">
<title>Node1&#45;&gt;Node16</title>
<g id="a_edge17_Node000001_Node000016"><a xlink:title=" ">
<path fill="none" stroke="#63b8ff" d="M1469.91,-358.39C1639.61,-355.13 2038.83,-344.36 2170.25,-313.5 2234.66,-298.38 2270.75,-310.43 2307.25,-255.25 2323.66,-230.44 2286.62,-209.36 2257.88,-197.41"/>
<polygon fill="#63b8ff" stroke="#63b8ff" points="1470.03,-354.88 1460.09,-358.57 1470.16,-361.88 1470.03,-354.88"/>
</a>
</g>
</g>
<!-- Node18 -->
<g id="Node000018" class="node">
<title>Node18</title>
<g id="a_Node000018"><a xlink:href="display__driver__task_8h.html" target="_top" xlink:title="Contains the externs and defines for the display driver task.">
<polygon fill="white" stroke="#666666" points="2433.25,-80.5 2231.25,-80.5 2231.25,-58.25 2433.25,-58.25 2433.25,-80.5"/>
<text text-anchor="middle" x="2332.25" y="-65.1" font-family="Arial" font-size="12.00">include/tasks/display_driver_task.h</text>
</a>
</g>
</g>
<!-- Node1&#45;&gt;Node18 -->
<g id="edge60_Node000001_Node000018" class="edge">
<title>Node1&#45;&gt;Node18</title>
<g id="a_edge60_Node000001_Node000018"><a xlink:title=" ">
<path fill="none" stroke="#63b8ff" d="M1469.68,-359.73C1720.92,-359.05 2497.25,-348.59 2497.25,-245.12 2497.25,-245.12 2497.25,-245.12 2497.25,-184.88 2497.25,-126.3 2426.19,-95.29 2377.34,-80.9"/>
<polygon fill="#63b8ff" stroke="#63b8ff" points="1469.98,-356.23 1459.99,-359.75 1469.99,-363.23 1469.98,-356.23"/>
</a>
</g>
</g>
<!-- Node22 -->
<g id="Node000022" class="node">
<title>Node22</title>
<g id="a_Node000022"><a xlink:href="pinout_8h.html" target="_top" xlink:title="This is the file that contains the pinout and other configuration information.">
<polygon fill="white" stroke="#666666" points="1588.62,-313.5 1487.88,-313.5 1487.88,-291.25 1588.62,-291.25 1588.62,-313.5"/>
<text text-anchor="middle" x="1538.25" y="-298.1" font-family="Arial" font-size="12.00">include/pinout.h</text>
</a>
</g>
</g>
<!-- Node1&#45;&gt;Node22 -->
<g id="edge25_Node000001_Node000022" class="edge">
<title>Node1&#45;&gt;Node22</title>
<g id="a_edge25_Node000001_Node000022"><a xlink:title=" ">
<path fill="none" stroke="#63b8ff" d="M1430.4,-344.93C1455.66,-335.19 1488.21,-322.65 1510.91,-313.91"/>
<polygon fill="#63b8ff" stroke="#63b8ff" points="1429.2,-341.64 1421.12,-348.5 1431.71,-348.17 1429.2,-341.64"/>
</a>
</g>
</g>
<!-- Node23 -->
<g id="Node000023" class="node">
<title>Node23</title>
<g id="a_Node000023"><a xlink:href="esp__now__callback__setup_8h.html" target="_top" xlink:title="Contains the callback functions for esp&#45;now.">
<polygon fill="white" stroke="#666666" points="1510.12,-255.25 1274.38,-255.25 1274.38,-233 1510.12,-233 1510.12,-255.25"/>
<text text-anchor="middle" x="1392.25" y="-239.85" font-family="Arial" font-size="12.00">include/setup/esp_now_callback_setup.h</text>
</a>
</g>
</g>
<!-- Node1&#45;&gt;Node23 -->
<g id="edge52_Node000001_Node000023" class="edge">
<title>Node1&#45;&gt;Node23</title>
<g id="a_edge52_Node000001_Node000023"><a xlink:title=" ">
<path fill="none" stroke="#63b8ff" d="M1392.25,-337.68C1392.25,-313.08 1392.25,-274.22 1392.25,-255.67"/>
<polygon fill="#63b8ff" stroke="#63b8ff" points="1388.75,-337.54 1392.25,-347.54 1395.75,-337.54 1388.75,-337.54"/>
</a>
</g>
</g>
<!-- Node24 -->
<g id="Node000024" class="node">
<title>Node24</title>
<g id="a_Node000024"><a xlink:href="esp__now__setup_8h.html" target="_top" xlink:title="Contains the code that sets up the ESP&#45;NOW communication.">
<polygon fill="white" stroke="#666666" points="1788.62,-197 1603.88,-197 1603.88,-174.75 1788.62,-174.75 1788.62,-197"/>
<text text-anchor="middle" x="1696.25" y="-181.6" font-family="Arial" font-size="12.00">include/setup/esp_now_setup.h</text>
</a>
</g>
</g>
<!-- Node1&#45;&gt;Node24 -->
<g id="edge53_Node000001_Node000024" class="edge">
<title>Node1&#45;&gt;Node24</title>
<g id="a_edge53_Node000001_Node000024"><a xlink:title=" ">
<path fill="none" stroke="#63b8ff" d="M1469.66,-354.7C1510.21,-349.16 1559.21,-337.57 1597.25,-313.5 1644.88,-283.35 1678.98,-221.94 1691.25,-197.38"/>
<polygon fill="#63b8ff" stroke="#63b8ff" points="1469.45,-351.2 1459.96,-355.92 1470.32,-358.14 1469.45,-351.2"/>
</a>
</g>
</g>
<!-- Node27 -->
<g id="Node000027" class="node">
<title>Node27</title>
<g id="a_Node000027"><a xlink:href="i2c__setup_8h.html" target="_top" xlink:title="Contains the code that sets up the i2c bus.">
<polygon fill="white" stroke="#666666" points="982.12,-255.25 830.38,-255.25 830.38,-233 982.12,-233 982.12,-255.25"/>
<text text-anchor="middle" x="906.25" y="-239.85" font-family="Arial" font-size="12.00">include/setup/i2c_setup.h</text>
</a>
</g>
</g>
<!-- Node1&#45;&gt;Node27 -->
<g id="edge54_Node000001_Node000027" class="edge">
<title>Node1&#45;&gt;Node27</title>
<g id="a_edge54_Node000001_Node000027"><a xlink:title=" ">
<path fill="none" stroke="#63b8ff" d="M1314.58,-355.45C1216.08,-349.31 1052.3,-336.07 996.25,-313.5 963.12,-300.16 931.61,-271.23 916.16,-255.62"/>
<polygon fill="#63b8ff" stroke="#63b8ff" points="1314.26,-358.93 1324.45,-356.05 1314.68,-351.94 1314.26,-358.93"/>
</a>
</g>
</g>
<!-- Node29 -->
<g id="Node000029" class="node">
<title>Node29</title>
<g id="a_Node000029"><a xlink:href="led__strip__setup_8h.html" target="_top" xlink:title="Contains the code to set up RMT for LED strips.">
<polygon fill="white" stroke="#666666" points="602.12,-255.25 420.38,-255.25 420.38,-233 602.12,-233 602.12,-255.25"/>
<text text-anchor="middle" x="511.25" y="-239.85" font-family="Arial" font-size="12.00">include/setup/led_strip_setup.h</text>
</a>
</g>
</g>
<!-- Node1&#45;&gt;Node29 -->
<g id="edge55_Node000001_Node000029" class="edge">
<title>Node1&#45;&gt;Node29</title>
<g id="a_edge55_Node000001_Node000029"><a xlink:title=" ">
<path fill="none" stroke="#63b8ff" d="M1314.74,-359.05C1148.88,-357.15 764.44,-348.94 639.25,-313.5 594.89,-300.94 548.54,-271.4 525.72,-255.57"/>
<polygon fill="#63b8ff" stroke="#63b8ff" points="1314.27,-362.55 1324.31,-359.16 1314.35,-355.55 1314.27,-362.55"/>
</a>
</g>
</g>
<!-- Node30 -->
<g id="Node000030" class="node">
<title>Node30</title>
<g id="a_Node000030"><a xlink:href="font_8h.html" target="_top" xlink:title="This file contains the class for the 12x16 font class.">
<polygon fill="white" stroke="#666666" points="2298.5,-255.25 2152,-255.25 2152,-233 2298.5,-233 2298.5,-255.25"/>
<text text-anchor="middle" x="2225.25" y="-239.85" font-family="Arial" font-size="12.00">include/supporting/font.h</text>
</a>
</g>
</g>
<!-- Node1&#45;&gt;Node30 -->
<g id="edge58_Node000001_Node000030" class="edge">
<title>Node1&#45;&gt;Node30</title>
<g id="a_edge58_Node000001_Node000030"><a xlink:title=" ">
<path fill="none" stroke="#63b8ff" d="M1470.13,-357.43C1648.71,-352.03 2077.07,-336.8 2138.25,-313.5 2171.1,-300.99 2201.44,-271.42 2216.08,-255.58"/>
<polygon fill="#63b8ff" stroke="#63b8ff" points="1470.14,-353.93 1460.25,-357.73 1470.35,-360.93 1470.14,-353.93"/>
</a>
</g>
</g>
<!-- Node32 -->
<g id="Node000032" class="node">
<title>Node32</title>
<g id="a_Node000032"><a xlink:href="esp__now__task_8h.html" target="_top" xlink:title="Contains the externs and defines for the esp_now task.">
<polygon fill="white" stroke="#666666" points="1902.12,-255.25 1726.38,-255.25 1726.38,-233 1902.12,-233 1902.12,-255.25"/>
<text text-anchor="middle" x="1814.25" y="-239.85" font-family="Arial" font-size="12.00">include/tasks/esp_now_task.h</text>
</a>
</g>
</g>
<!-- Node1&#45;&gt;Node32 -->
<g id="edge61_Node000001_Node000032" class="edge">
<title>Node1&#45;&gt;Node32</title>
<g id="a_edge61_Node000001_Node000032"><a xlink:title=" ">
<path fill="none" stroke="#63b8ff" d="M1469.82,-356.25C1533.12,-351.55 1624.07,-340.33 1699.25,-313.5 1738.85,-299.37 1779.94,-271.04 1800.62,-255.65"/>
<polygon fill="#63b8ff" stroke="#63b8ff" points="1469.96,-352.73 1460.23,-356.92 1470.45,-359.71 1469.96,-352.73"/>
</a>
</g>
</g>
<!-- Node34 -->
<g id="Node000034" class="node">
<title>Node34</title>
<g id="a_Node000034"><a xlink:href="changeable__values_8h.html" target="_top" xlink:title="Contains the information for the changeable values class, this class allows a value to be modifed by ...">
<polygon fill="white" stroke="#666666" points="2757.25,-313.5 2525.25,-313.5 2525.25,-291.25 2757.25,-291.25 2757.25,-313.5"/>
<text text-anchor="middle" x="2641.25" y="-298.1" font-family="Arial" font-size="12.00">include/supporting/changeable_values.h</text>
</a>
</g>
</g>
<!-- Node1&#45;&gt;Node34 -->
<g id="edge56_Node000001_Node000034" class="edge">
<title>Node1&#45;&gt;Node34</title>
<g id="a_edge56_Node000001_Node000034"><a xlink:title=" ">
<path fill="none" stroke="#63b8ff" d="M1470.15,-357.39C1652.36,-351.96 2120.53,-336.76 2511.25,-313.5 2515.77,-313.23 2520.38,-312.94 2525.03,-312.64"/>
<polygon fill="#63b8ff" stroke="#63b8ff" points="1470.23,-353.89 1460.34,-357.68 1470.44,-360.89 1470.23,-353.89"/>
</a>
</g>
</g>
<!-- Node3 -->
<g id="Node000003" class="node">
<title>Node3</title>
<g id="a_Node000003"><a xlink:href="led__strip__driver_8cpp.html" target="_top" xlink:title=" ">
<polygon fill="white" stroke="#666666" points="188.5,-255.25 0,-255.25 0,-233 188.5,-233 188.5,-255.25"/>
<text text-anchor="middle" x="94.25" y="-239.85" font-family="Arial" font-size="12.00">main/drivers/led_strip_driver.cpp</text>
</a>
</g>
</g>
<!-- Node2&#45;&gt;Node3 -->
<g id="edge2_Node000002_Node000003" class="edge">
<title>Node2&#45;&gt;Node3</title>
<g id="a_edge2_Node000002_Node000003"><a xlink:title=" ">
<path fill="none" stroke="#63b8ff" d="M182.95,-286.02C162.05,-276.38 135.64,-264.21 117.09,-255.66"/>
<polygon fill="#63b8ff" stroke="#63b8ff" points="181.38,-289.15 191.93,-290.16 184.31,-282.8 181.38,-289.15"/>
</a>
</g>
</g>
<!-- Node4 -->
<g id="Node000004" class="node">
<title>Node4</title>
<g id="a_Node000004"><a xlink:href="led__strip__setup_8cpp.html" target="_top" xlink:title="source file that sets up the led strips">
<polygon fill="white" stroke="#666666" points="284.12,-197 102.38,-197 102.38,-174.75 284.12,-174.75 284.12,-197"/>
<text text-anchor="middle" x="193.25" y="-181.6" font-family="Arial" font-size="12.00">main/setup/led_strip_setup.cpp</text>
</a>
</g>
</g>
<!-- Node2&#45;&gt;Node4 -->
<g id="edge3_Node000002_Node000004" class="edge">
<title>Node2&#45;&gt;Node4</title>
<g id="a_edge3_Node000002_Node000004"><a xlink:title=" ">
<path fill="none" stroke="#63b8ff" d="M211.91,-279.77C206.97,-255.19 199.11,-216.06 195.37,-197.42"/>
<polygon fill="#63b8ff" stroke="#63b8ff" points="208.43,-280.21 213.83,-289.32 215.29,-278.83 208.43,-280.21"/>
</a>
</g>
</g>
<!-- Node5&#45;&gt;Node6 -->
<g id="edge5_Node000005_Node000006" class="edge">
<title>Node5&#45;&gt;Node6</title>
<g id="a_edge5_Node000005_Node000006"><a xlink:title=" ">
<path fill="none" stroke="#63b8ff" d="M1091.34,-229.91C1049.39,-220 992.73,-206.61 953.82,-197.41"/>
<polygon fill="#63b8ff" stroke="#63b8ff" points="1090.47,-233.3 1101.01,-232.2 1092.08,-226.49 1090.47,-233.3"/>
</a>
</g>
</g>
<!-- Node5&#45;&gt;Node7 -->
<g id="edge10_Node000005_Node000007" class="edge">
<title>Node5&#45;&gt;Node7</title>
<g id="a_edge10_Node000005_Node000007"><a xlink:title=" ">
<path fill="none" stroke="#63b8ff" d="M1107.25,-228.09C1079.69,-215.42 1050.78,-196.01 1067.25,-174.75 1080.03,-158.26 1125.99,-146.63 1168.13,-139.16"/>
<polygon fill="#63b8ff" stroke="#63b8ff" points="1105.7,-231.23 1116.26,-232 1108.48,-224.81 1105.7,-231.23"/>
</a>
</g>
</g>
<!-- Node11 -->
<g id="Node000011" class="node">
<title>Node11</title>
<g id="a_Node000011"><a xlink:href="o_drive_8cpp.html" target="_top" xlink:title=" ">
<polygon fill="white" stroke="#666666" points="1218.25,-197 1076.25,-197 1076.25,-174.75 1218.25,-174.75 1218.25,-197"/>
<text text-anchor="middle" x="1147.25" y="-181.6" font-family="Arial" font-size="12.00">main/drivers/oDrive.cpp</text>
</a>
</g>
</g>
<!-- Node5&#45;&gt;Node11 -->
<g id="edge11_Node000005_Node000011" class="edge">
<title>Node5&#45;&gt;Node11</title>
<g id="a_edge11_Node000005_Node000011"><a xlink:title=" ">
<path fill="none" stroke="#63b8ff" d="M1147.25,-221.1C1147.25,-212.95 1147.25,-204.08 1147.25,-197.41"/>
<polygon fill="#63b8ff" stroke="#63b8ff" points="1143.75,-221.03 1147.25,-231.03 1150.75,-221.03 1143.75,-221.03"/>
</a>
</g>
</g>
<!-- Node6&#45;&gt;Node7 -->
<g id="edge6_Node000006_Node000007" class="edge">
<title>Node6&#45;&gt;Node7</title>
<g id="a_edge6_Node000006_Node000007"><a xlink:title=" ">
<path fill="none" stroke="#63b8ff" d="M983.88,-172.42C1043.57,-162.45 1126.35,-148.64 1182.86,-139.21"/>
<polygon fill="#63b8ff" stroke="#63b8ff" points="983.42,-168.95 974.13,-174.05 984.57,-175.85 983.42,-168.95"/>
</a>
</g>
</g>
<!-- Node10 -->
<g id="Node000010" class="node">
<title>Node10</title>
<g id="a_Node000010"><a xlink:href="kicker__drive__train_8cpp.html" target="_top" xlink:title="source file for the class that handles the drive train">
<polygon fill="white" stroke="#666666" points="1020,-138.75 798.5,-138.75 798.5,-116.5 1020,-116.5 1020,-138.75"/>
<text text-anchor="middle" x="909.25" y="-123.35" font-family="Arial" font-size="12.00">main/supporting/kicker_drive_train.cpp</text>
</a>
</g>
</g>
<!-- Node6&#45;&gt;Node10 -->
<g id="edge9_Node000006_Node000010" class="edge">
<title>Node6&#45;&gt;Node10</title>
<g id="a_edge9_Node000006_Node000010"><a xlink:title=" ">
<path fill="none" stroke="#63b8ff" d="M909.25,-162.85C909.25,-154.7 909.25,-145.83 909.25,-139.16"/>
<polygon fill="#63b8ff" stroke="#63b8ff" points="905.75,-162.78 909.25,-172.78 912.75,-162.78 905.75,-162.78"/>
</a>
</g>
</g>
<!-- Node7&#45;&gt;Node8 -->
<g id="edge7_Node000007_Node000008" class="edge">
<title>Node7&#45;&gt;Node8</title>
<g id="a_edge7_Node000007_Node000008"><a xlink:title=" ">
<path fill="none" stroke="#63b8ff" d="M1246.47,-105C1247.83,-89.73 1252.25,-69.97 1265.25,-58.25 1297.7,-29 1421.68,-18.04 1490.86,-14.13"/>
<polygon fill="#63b8ff" stroke="#63b8ff" points="1242.99,-104.38 1246,-114.54 1249.98,-104.72 1242.99,-104.38"/>
</a>
</g>
</g>
<!-- Node9 -->
<g id="Node000009" class="node">
<title>Node9</title>
<g id="a_Node000009"><a xlink:href="kicker__drive__train__task_8cpp.html" target="_top" xlink:title=" ">
<polygon fill="white" stroke="#666666" points="1496,-80.5 1274.5,-80.5 1274.5,-58.25 1496,-58.25 1496,-80.5"/>
<text text-anchor="middle" x="1385.25" y="-65.1" font-family="Arial" font-size="12.00">main/tasks/kicker_drive_train_task.cpp</text>
</a>
</g>
</g>
<!-- Node7&#45;&gt;Node9 -->
<g id="edge8_Node000007_Node000009" class="edge">
<title>Node7&#45;&gt;Node9</title>
<g id="a_edge8_Node000007_Node000009"><a xlink:title=" ">
<path fill="none" stroke="#63b8ff" d="M1282.89,-111.8C1306.9,-102.08 1337.71,-89.62 1359.22,-80.91"/>
<polygon fill="#63b8ff" stroke="#63b8ff" points="1281.75,-108.48 1273.8,-115.48 1284.38,-114.97 1281.75,-108.48"/>
</a>
</g>
</g>
<!-- Node12&#45;&gt;Node13 -->
<g id="edge13_Node000012_Node000013" class="edge">
<title>Node12&#45;&gt;Node13</title>
<g id="a_edge13_Node000012_Node000013"><a xlink:title=" ">
<path fill="none" stroke="#63b8ff" d="M716.25,-279.35C716.25,-271.2 716.25,-262.33 716.25,-255.66"/>
<polygon fill="#63b8ff" stroke="#63b8ff" points="712.75,-279.28 716.25,-289.28 719.75,-279.28 712.75,-279.28"/>
</a>
</g>
</g>
<!-- Node15 -->
<g id="Node000015" class="node">
<title>Node15</title>
<g id="a_Node000015"><a xlink:href="servo_8cpp.html" target="_top" xlink:title="This is the source file for the servo motor class.">
<polygon fill="white" stroke="#666666" points="402.25,-255.25 266.25,-255.25 266.25,-233 402.25,-233 402.25,-255.25"/>
<text text-anchor="middle" x="334.25" y="-239.85" font-family="Arial" font-size="12.00">main/drivers/servo.cpp</text>
</a>
</g>
</g>
<!-- Node12&#45;&gt;Node15 -->
<g id="edge16_Node000012_Node000015" class="edge">
<title>Node12&#45;&gt;Node15</title>
<g id="a_edge16_Node000012_Node000015"><a xlink:title=" ">
<path fill="none" stroke="#63b8ff" d="M636.69,-289.66C567.49,-279.47 468.27,-264.86 402.6,-255.19"/>
<polygon fill="#63b8ff" stroke="#63b8ff" points="636.06,-293.1 646.46,-291.1 637.08,-286.18 636.06,-293.1"/>
</a>
</g>
</g>
<!-- Node13&#45;&gt;Node8 -->
<g id="edge14_Node000013_Node000008" class="edge">
<title>Node13&#45;&gt;Node8</title>
<g id="a_edge14_Node000013_Node000008"><a xlink:title=" ">
<path fill="none" stroke="#63b8ff" d="M635.17,-229.87C596.29,-219.71 561.94,-202.57 581.25,-174.75 686.53,-23.06 1312.74,-11.9 1490.95,-11.83"/>
<polygon fill="#63b8ff" stroke="#63b8ff" points="634.2,-233.23 644.74,-232.19 635.85,-226.43 634.2,-233.23"/>
</a>
</g>
</g>
<!-- Node14 -->
<g id="Node000014" class="node">
<title>Node14</title>
<g id="a_Node000014"><a xlink:href="servo__driver__task_8cpp.html" target="_top" xlink:title="source file for the task to control the servos">
<polygon fill="white" stroke="#666666" points="533.75,-197 340.75,-197 340.75,-174.75 533.75,-174.75 533.75,-197"/>
<text text-anchor="middle" x="437.25" y="-181.6" font-family="Arial" font-size="12.00">main/tasks/servo_driver_task.cpp</text>
</a>
</g>
</g>
<!-- Node13&#45;&gt;Node14 -->
<g id="edge15_Node000013_Node000014" class="edge">
<title>Node13&#45;&gt;Node14</title>
<g id="a_edge15_Node000013_Node000014"><a xlink:title=" ">
<path fill="none" stroke="#63b8ff" d="M652.59,-230.29C603.24,-220.34 535.7,-206.72 489.49,-197.41"/>
<polygon fill="#63b8ff" stroke="#63b8ff" points="651.79,-233.7 662.29,-232.25 653.18,-226.84 651.79,-233.7"/>
</a>
</g>
</g>
<!-- Node17 -->
<g id="Node000017" class="node">
<title>Node17</title>
<g id="a_Node000017"><a xlink:href="menus_8h.html" target="_top" xlink:title="This is the file that contains the class for menus.">
<polygon fill="white" stroke="#666666" points="2688.75,-138.75 2525.75,-138.75 2525.75,-116.5 2688.75,-116.5 2688.75,-138.75"/>
<text text-anchor="middle" x="2607.25" y="-123.35" font-family="Arial" font-size="12.00">include/supporting/menus.h</text>
</a>
</g>
</g>
<!-- Node16&#45;&gt;Node17 -->
<g id="edge18_Node000016_Node000017" class="edge">
<title>Node16&#45;&gt;Node17</title>
<g id="a_edge18_Node000016_Node000017"><a xlink:title=" ">
<path fill="none" stroke="#63b8ff" d="M2310.93,-172.6C2378.15,-162.63 2472.01,-148.7 2535.96,-139.21"/>
<polygon fill="#63b8ff" stroke="#63b8ff" points="2310.41,-169.14 2301.03,-174.07 2311.44,-176.07 2310.41,-169.14"/>
</a>
</g>
</g>
<!-- Node16&#45;&gt;Node18 -->
<g id="edge23_Node000016_Node000018" class="edge">
<title>Node16&#45;&gt;Node18</title>
<g id="a_edge23_Node000016_Node000018"><a xlink:title=" ">
<path fill="none" stroke="#63b8ff" d="M2271.42,-169.68C2286.56,-162.43 2302.46,-152.3 2313.25,-138.75 2326.91,-121.59 2330.76,-95.24 2331.84,-80.77"/>
<polygon fill="#63b8ff" stroke="#63b8ff" points="2270.23,-166.38 2262.51,-173.64 2273.07,-172.77 2270.23,-166.38"/>
</a>
</g>
</g>
<!-- Node21 -->
<g id="Node000021" class="node">
<title>Node21</title>
<g id="a_Node000021"><a xlink:href="ssd1306_8cpp.html" target="_top" xlink:title=" ">
<polygon fill="white" stroke="#666666" points="2304.5,-138.75 2152,-138.75 2152,-116.5 2304.5,-116.5 2304.5,-138.75"/>
<text text-anchor="middle" x="2228.25" y="-123.35" font-family="Arial" font-size="12.00">main/drivers/ssd1306.cpp</text>
</a>
</g>
</g>
<!-- Node16&#45;&gt;Node21 -->
<g id="edge24_Node000016_Node000021" class="edge">
<title>Node16&#45;&gt;Node21</title>
<g id="a_edge24_Node000016_Node000021"><a xlink:title=" ">
<path fill="none" stroke="#63b8ff" d="M2228.25,-162.85C2228.25,-154.7 2228.25,-145.83 2228.25,-139.16"/>
<polygon fill="#63b8ff" stroke="#63b8ff" points="2224.75,-162.78 2228.25,-172.78 2231.75,-162.78 2224.75,-162.78"/>
</a>
</g>
</g>
<!-- Node17&#45;&gt;Node18 -->
<g id="edge19_Node000017_Node000018" class="edge">
<title>Node17&#45;&gt;Node18</title>
<g id="a_edge19_Node000017_Node000018"><a xlink:title=" ">
<path fill="none" stroke="#63b8ff" d="M2544.5,-113.79C2495.86,-103.84 2429.28,-90.22 2383.74,-80.91"/>
<polygon fill="#63b8ff" stroke="#63b8ff" points="2543.54,-117.17 2554.04,-115.74 2544.95,-110.31 2543.54,-117.17"/>
</a>
</g>
</g>
<!-- Node20 -->
<g id="Node000020" class="node">
<title>Node20</title>
<g id="a_Node000020"><a xlink:href="menus_8cpp.html" target="_top" xlink:title="source file for the class that handles the creation of menus">
<polygon fill="white" stroke="#666666" points="2688.75,-80.5 2525.75,-80.5 2525.75,-58.25 2688.75,-58.25 2688.75,-80.5"/>
<text text-anchor="middle" x="2607.25" y="-65.1" font-family="Arial" font-size="12.00">main/supporting/menus.cpp</text>
</a>
</g>
</g>
<!-- Node17&#45;&gt;Node20 -->
<g id="edge22_Node000017_Node000020" class="edge">
<title>Node17&#45;&gt;Node20</title>
<g id="a_edge22_Node000017_Node000020"><a xlink:title=" ">
<path fill="none" stroke="#63b8ff" d="M2607.25,-104.6C2607.25,-96.45 2607.25,-87.58 2607.25,-80.91"/>
<polygon fill="#63b8ff" stroke="#63b8ff" points="2603.75,-104.53 2607.25,-114.53 2610.75,-104.53 2603.75,-104.53"/>
</a>
</g>
</g>
<!-- Node18&#45;&gt;Node8 -->
<g id="edge20_Node000018_Node000008" class="edge">
<title>Node18&#45;&gt;Node8</title>
<g id="a_edge20_Node000018_Node000008"><a xlink:title=" ">
<path fill="none" stroke="#63b8ff" d="M2219.49,-60.39C2043.03,-47.89 1709.06,-24.23 1585.64,-15.48"/>
<polygon fill="#63b8ff" stroke="#63b8ff" points="2219.15,-63.87 2229.37,-61.09 2219.65,-56.89 2219.15,-63.87"/>
</a>
</g>
</g>
<!-- Node19 -->
<g id="Node000019" class="node">
<title>Node19</title>
<g id="a_Node000019"><a xlink:href="display__driver__task_8cpp.html" target="_top" xlink:title="source file for the task that drives the display, displays controller connected status,...">
<polygon fill="white" stroke="#666666" points="2433.25,-22.25 2231.25,-22.25 2231.25,0 2433.25,0 2433.25,-22.25"/>
<text text-anchor="middle" x="2332.25" y="-6.85" font-family="Arial" font-size="12.00">main/tasks/display_driver_task.cpp</text>
</a>
</g>
</g>
<!-- Node18&#45;&gt;Node19 -->
<g id="edge21_Node000018_Node000019" class="edge">
<title>Node18&#45;&gt;Node19</title>
<g id="a_edge21_Node000018_Node000019"><a xlink:title=" ">
<path fill="none" stroke="#63b8ff" d="M2332.25,-46.35C2332.25,-38.2 2332.25,-29.33 2332.25,-22.66"/>
<polygon fill="#63b8ff" stroke="#63b8ff" points="2328.75,-46.28 2332.25,-56.28 2335.75,-46.28 2328.75,-46.28"/>
</a>
</g>
</g>
<!-- Node22&#45;&gt;Node5 -->
<g id="edge26_Node000022_Node000005" class="edge">
<title>Node22&#45;&gt;Node5</title>
<g id="a_edge26_Node000022_Node000005"><a xlink:title=" ">
<path fill="none" stroke="#63b8ff" d="M1476.24,-292.45C1406.12,-282.37 1292.12,-265.97 1218.42,-255.36"/>
<polygon fill="#63b8ff" stroke="#63b8ff" points="1475.64,-295.9 1486.04,-293.86 1476.64,-288.98 1475.64,-295.9"/>
</a>
</g>
</g>
<!-- Node22&#45;&gt;Node6 -->
<g id="edge43_Node000022_Node000006" class="edge">
<title>Node22&#45;&gt;Node6</title>
<g id="a_edge43_Node000022_Node000006"><a xlink:title=" ">
<path fill="none" stroke="#63b8ff" d="M1476.28,-298.22C1366.49,-292.15 1142.3,-277.45 1067.25,-255.25 1046.62,-249.15 1043.81,-241.96 1024.25,-233 995.3,-219.74 961.39,-206.4 937.93,-197.5"/>
<polygon fill="#63b8ff" stroke="#63b8ff" points="1475.81,-301.7 1485.98,-298.75 1476.19,-294.71 1475.81,-301.7"/>
</a>
</g>
</g>
<!-- Node22&#45;&gt;Node7 -->
<g id="edge48_Node000022_Node000007" class="edge">
<title>Node22&#45;&gt;Node7</title>
<g id="a_edge48_Node000022_Node000007"><a xlink:title=" ">
<path fill="none" stroke="#63b8ff" d="M1541.93,-279.75C1545.37,-251.54 1546.52,-202.52 1519.25,-174.75 1496.65,-151.73 1422.67,-140.17 1357.42,-134.38"/>
<polygon fill="#63b8ff" stroke="#63b8ff" points="1538.52,-278.87 1540.55,-289.27 1545.45,-279.87 1538.52,-278.87"/>
</a>
</g>
</g>
<!-- Node22&#45;&gt;Node8 -->
<g id="edge51_Node000022_Node000008" class="edge">
<title>Node22&#45;&gt;Node8</title>
<g id="a_edge51_Node000022_Node000008"><a xlink:title=" ">
<path fill="none" stroke="#63b8ff" d="M1548.87,-280.51C1552.25,-272.78 1555.56,-263.81 1557.25,-255.25 1559.17,-245.55 1557.67,-242.88 1557.25,-233 1553.77,-151.87 1543.12,-54.43 1539.48,-22.68"/>
<polygon fill="#63b8ff" stroke="#63b8ff" points="1545.78,-278.85 1544.67,-289.39 1552.11,-281.84 1545.78,-278.85"/>
</a>
</g>
</g>
<!-- Node22&#45;&gt;Node13 -->
<g id="edge49_Node000022_Node000013" class="edge">
<title>Node22&#45;&gt;Node13</title>
<g id="a_edge49_Node000022_Node000013"><a xlink:title=" ">
<path fill="none" stroke="#63b8ff" d="M1476.66,-298.08C1352.56,-291.28 1063.6,-274.72 821.25,-255.25 818.6,-255.04 815.92,-254.82 813.21,-254.59"/>
<polygon fill="#63b8ff" stroke="#63b8ff" points="1476.1,-301.55 1486.28,-298.6 1476.49,-294.56 1476.1,-301.55"/>
</a>
</g>
</g>
<!-- Node22&#45;&gt;Node16 -->
<g id="edge27_Node000022_Node000016" class="edge">
<title>Node22&#45;&gt;Node16</title>
<g id="a_edge27_Node000022_Node000016"><a xlink:title=" ">
<path fill="none" stroke="#63b8ff" d="M1600.21,-301.93C1699.28,-301.49 1898.82,-295.12 2062.25,-255.25 2117.21,-241.84 2177.68,-213.08 2208.22,-197.47"/>
<polygon fill="#63b8ff" stroke="#63b8ff" points="1600.43,-298.43 1590.44,-301.96 1600.44,-305.43 1600.43,-298.43"/>
</a>
</g>
</g>
<!-- Node22&#45;&gt;Node18 -->
<g id="edge44_Node000022_Node000018" class="edge">
<title>Node22&#45;&gt;Node18</title>
<g id="a_edge44_Node000022_Node000018"><a xlink:title=" ">
<path fill="none" stroke="#63b8ff" d="M1600.24,-300.02C1675.33,-296.96 1804.97,-287.06 1911.25,-255.25 1967.28,-238.48 1978.99,-226.9 2029.25,-197 2082.55,-165.29 2086.8,-142.19 2143.25,-116.5 2180.91,-99.36 2225.8,-88.06 2262.39,-80.94"/>
<polygon fill="#63b8ff" stroke="#63b8ff" points="1600.49,-296.51 1590.63,-300.39 1600.76,-303.51 1600.49,-296.51"/>
</a>
</g>
</g>
<!-- Node22&#45;&gt;Node21 -->
<g id="edge50_Node000022_Node000021" class="edge">
<title>Node22&#45;&gt;Node21</title>
<g id="a_edge50_Node000022_Node000021"><a xlink:title=" ">
<path fill="none" stroke="#63b8ff" d="M1599.99,-299.32C1712.81,-294.93 1947.71,-282.73 2024.25,-255.25 2039.27,-249.86 2129.61,-183.04 2143.25,-174.75 2164.77,-161.67 2190.26,-148.08 2207.67,-139.07"/>
<polygon fill="#63b8ff" stroke="#63b8ff" points="1600.18,-295.81 1590.32,-299.68 1600.45,-302.8 1600.18,-295.81"/>
</a>
</g>
</g>
<!-- Node22&#45;&gt;Node23 -->
<g id="edge28_Node000022_Node000023" class="edge">
<title>Node22&#45;&gt;Node23</title>
<g id="a_edge28_Node000022_Node000023"><a xlink:title=" ">
<path fill="none" stroke="#63b8ff" d="M1500.1,-286.68C1474.84,-276.94 1442.29,-264.4 1419.59,-255.66"/>
<polygon fill="#63b8ff" stroke="#63b8ff" points="1498.79,-289.92 1509.38,-290.25 1501.3,-283.39 1498.79,-289.92"/>
</a>
</g>
</g>
<!-- Node22&#45;&gt;Node24 -->
<g id="edge33_Node000022_Node000024" class="edge">
<title>Node22&#45;&gt;Node24</title>
<g id="a_edge33_Node000022_Node000024"><a xlink:title=" ">
<path fill="none" stroke="#63b8ff" d="M1561.82,-284.29C1594.96,-260.28 1654.34,-217.25 1681.7,-197.42"/>
<polygon fill="#63b8ff" stroke="#63b8ff" points="1560.1,-281.22 1554.06,-289.92 1564.21,-286.89 1560.1,-281.22"/>
</a>
</g>
</g>
<!-- Node22&#45;&gt;Node27 -->
<g id="edge34_Node000022_Node000027" class="edge">
<title>Node22&#45;&gt;Node27</title>
<g id="a_edge34_Node000022_Node000027"><a xlink:title=" ">
<path fill="none" stroke="#63b8ff" d="M1476.43,-295.87C1360.09,-285.52 1108.91,-263.16 982.38,-251.9"/>
<polygon fill="#63b8ff" stroke="#63b8ff" points="1475.82,-299.33 1486.09,-296.73 1476.44,-292.36 1475.82,-299.33"/>
</a>
</g>
</g>
<!-- Node22&#45;&gt;Node29 -->
<g id="edge37_Node000022_Node000029" class="edge">
<title>Node22&#45;&gt;Node29</title>
<g id="a_edge37_Node000022_Node000029"><a xlink:title=" ">
<path fill="none" stroke="#63b8ff" d="M1476.29,-299.39C1327.18,-294.37 936.59,-279.8 611.25,-255.25 608.38,-255.03 605.46,-254.8 602.52,-254.56"/>
<polygon fill="#63b8ff" stroke="#63b8ff" points="1475.82,-302.87 1485.93,-299.71 1476.06,-295.88 1475.82,-302.87"/>
</a>
</g>
</g>
<!-- Node22&#45;&gt;Node30 -->
<g id="edge40_Node000022_Node000030" class="edge">
<title>Node22&#45;&gt;Node30</title>
<g id="a_edge40_Node000022_Node000030"><a xlink:title=" ">
<path fill="none" stroke="#63b8ff" d="M1600.45,-296.28C1727.41,-285.89 2015.82,-262.27 2151.76,-251.14"/>
<polygon fill="#63b8ff" stroke="#63b8ff" points="1600.24,-292.79 1590.55,-297.09 1600.81,-299.76 1600.24,-292.79"/>
</a>
</g>
</g>
<!-- Node22&#45;&gt;Node32 -->
<g id="edge45_Node000022_Node000032" class="edge">
<title>Node22&#45;&gt;Node32</title>
<g id="a_edge45_Node000022_Node000032"><a xlink:title=" ">
<path fill="none" stroke="#63b8ff" d="M1599.95,-288.8C1648.86,-278.83 1716.44,-265.06 1762.54,-255.66"/>
<polygon fill="#63b8ff" stroke="#63b8ff" points="1599.46,-285.33 1590.36,-290.76 1600.85,-292.19 1599.46,-285.33"/>
</a>
</g>
</g>
<!-- Node23&#45;&gt;Node24 -->
<g id="edge29_Node000023_Node000024" class="edge">
<title>Node23&#45;&gt;Node24</title>
<g id="a_edge29_Node000023_Node000024"><a xlink:title=" ">
<path fill="none" stroke="#63b8ff" d="M1460.58,-230.48C1514.35,-220.53 1588.41,-206.83 1639.07,-197.46"/>
<polygon fill="#63b8ff" stroke="#63b8ff" points="1460.11,-227.01 1450.92,-232.27 1461.39,-233.89 1460.11,-227.01"/>
</a>
</g>
</g>
<!-- Node26 -->
<g id="Node000026" class="node">
<title>Node26</title>
<g id="a_Node000026"><a xlink:href="esp__now__callback__setup_8cpp.html" target="_top" xlink:title="source file that sets up esp&#45;now callbacks">
<polygon fill="white" stroke="#666666" points="1510.12,-197 1274.38,-197 1274.38,-174.75 1510.12,-174.75 1510.12,-197"/>
<text text-anchor="middle" x="1392.25" y="-181.6" font-family="Arial" font-size="12.00">main/setup/esp_now_callback_setup.cpp</text>
</a>
</g>
</g>
<!-- Node23&#45;&gt;Node26 -->
<g id="edge32_Node000023_Node000026" class="edge">
<title>Node23&#45;&gt;Node26</title>
<g id="a_edge32_Node000023_Node000026"><a xlink:title=" ">
<path fill="none" stroke="#63b8ff" d="M1392.25,-221.1C1392.25,-212.95 1392.25,-204.08 1392.25,-197.41"/>
<polygon fill="#63b8ff" stroke="#63b8ff" points="1388.75,-221.03 1392.25,-231.03 1395.75,-221.03 1388.75,-221.03"/>
</a>
</g>
</g>
<!-- Node24&#45;&gt;Node8 -->
<g id="edge30_Node000024_Node000008" class="edge">
<title>Node24&#45;&gt;Node8</title>
<g id="a_edge30_Node000024_Node000008"><a xlink:title=" ">
<path fill="none" stroke="#63b8ff" d="M1728.56,-168.62C1749.89,-155.59 1771.78,-136.27 1759.25,-116.5 1721.21,-56.46 1638.34,-30.31 1585.59,-19.4"/>
<polygon fill="#63b8ff" stroke="#63b8ff" points="1726.87,-165.56 1719.92,-173.56 1730.34,-171.63 1726.87,-165.56"/>
</a>
</g>
</g>
<!-- Node25 -->
<g id="Node000025" class="node">
<title>Node25</title>
<g id="a_Node000025"><a xlink:href="esp__now__setup_8cpp.html" target="_top" xlink:title="source file that sets up esp&#45;now">
<polygon fill="white" stroke="#666666" points="1750.62,-138.75 1565.88,-138.75 1565.88,-116.5 1750.62,-116.5 1750.62,-138.75"/>
<text text-anchor="middle" x="1658.25" y="-123.35" font-family="Arial" font-size="12.00">main/setup/esp_now_setup.cpp</text>
</a>
</g>
</g>
<!-- Node24&#45;&gt;Node25 -->
<g id="edge31_Node000024_Node000025" class="edge">
<title>Node24&#45;&gt;Node25</title>
<g id="a_edge31_Node000024_Node000025"><a xlink:title=" ">
<path fill="none" stroke="#63b8ff" d="M1682.72,-164.85C1676.86,-156.17 1670.24,-146.37 1665.37,-139.16"/>
<polygon fill="#63b8ff" stroke="#63b8ff" points="1679.76,-166.71 1688.26,-173.04 1685.56,-162.79 1679.76,-166.71"/>
</a>
</g>
</g>
<!-- Node27&#45;&gt;Node8 -->
<g id="edge35_Node000027_Node000008" class="edge">
<title>Node27&#45;&gt;Node8</title>
<g id="a_edge35_Node000027_Node000008"><a xlink:title=" ">
<path fill="none" stroke="#63b8ff" d="M831.53,-228.67C814.94,-221.85 799.32,-211.8 789.25,-197 769.12,-167.42 765.76,-143.49 789.25,-116.5 835.63,-63.21 1333.54,-25.74 1490.88,-15.17"/>
<polygon fill="#63b8ff" stroke="#63b8ff" points="829.92,-231.81 840.51,-232 832.35,-225.25 829.92,-231.81"/>
</a>
</g>
</g>
<!-- Node28 -->
<g id="Node000028" class="node">
<title>Node28</title>
<g id="a_Node000028"><a xlink:href="i2c__setup_8cpp.html" target="_top" xlink:title="source file that sets up the i2c bus">
<polygon fill="white" stroke="#666666" points="742.12,-197 590.38,-197 590.38,-174.75 742.12,-174.75 742.12,-197"/>
<text text-anchor="middle" x="666.25" y="-181.6" font-family="Arial" font-size="12.00">main/setup/i2c_setup.cpp</text>
</a>
</g>
</g>
<!-- Node27&#45;&gt;Node28 -->
<g id="edge36_Node000027_Node000028" class="edge">
<title>Node27&#45;&gt;Node28</title>
<g id="a_edge36_Node000027_Node000028"><a xlink:title=" ">
<path fill="none" stroke="#63b8ff" d="M850.14,-229.97C807.82,-220.05 750.52,-206.62 711.19,-197.41"/>
<polygon fill="#63b8ff" stroke="#63b8ff" points="849.1,-233.33 859.63,-232.2 850.7,-226.51 849.1,-233.33"/>
</a>
</g>
</g>
<!-- Node29&#45;&gt;Node4 -->
<g id="edge39_Node000029_Node000004" class="edge">
<title>Node29&#45;&gt;Node4</title>
<g id="a_edge39_Node000029_Node000004"><a xlink:title=" ">
<path fill="none" stroke="#63b8ff" d="M440.13,-230.54C383.85,-220.59 306.17,-206.85 253.06,-197.46"/>
<polygon fill="#63b8ff" stroke="#63b8ff" points="439.49,-233.99 449.95,-232.28 440.71,-227.09 439.49,-233.99"/>
</a>
</g>
</g>
<!-- Node29&#45;&gt;Node8 -->
<g id="edge38_Node000029_Node000008" class="edge">
<title>Node29&#45;&gt;Node8</title>
<g id="a_edge38_Node000029_Node000008"><a xlink:title=" ">
<path fill="none" stroke="#63b8ff" d="M421.26,-230.54C382.32,-223.08 342.96,-212.08 331.25,-197 325.19,-189.19 325.24,-182.61 331.25,-174.75 451.26,-17.8 565.27,-90.15 760.25,-58.25 1034.32,-13.4 1369.03,-10.82 1490.96,-11.56"/>
<polygon fill="#63b8ff" stroke="#63b8ff" points="420.26,-233.92 430.72,-232.28 421.52,-227.03 420.26,-233.92"/>
</a>
</g>
</g>
<!-- Node30&#45;&gt;Node16 -->
<g id="edge41_Node000030_Node000016" class="edge">
<title>Node30&#45;&gt;Node16</title>
<g id="a_edge41_Node000030_Node000016"><a xlink:title=" ">
<path fill="none" stroke="#63b8ff" d="M2226.42,-221.1C2226.86,-212.95 2227.33,-204.08 2227.69,-197.41"/>
<polygon fill="#63b8ff" stroke="#63b8ff" points="2222.93,-220.86 2225.89,-231.03 2229.92,-221.23 2222.93,-220.86"/>
</a>
</g>
</g>
<!-- Node31 -->
<g id="Node000031" class="node">
<title>Node31</title>
<g id="a_Node000031"><a xlink:href="font_8cpp.html" target="_top" xlink:title="source file for the class that maps ascii characters to their font representation">
<polygon fill="white" stroke="#666666" points="2469.5,-197 2323,-197 2323,-174.75 2469.5,-174.75 2469.5,-197"/>
<text text-anchor="middle" x="2396.25" y="-181.6" font-family="Arial" font-size="12.00">main/supporting/font.cpp</text>
</a>
</g>
</g>
<!-- Node30&#45;&gt;Node31 -->
<g id="edge42_Node000030_Node000031" class="edge">
<title>Node30&#45;&gt;Node31</title>
<g id="a_edge42_Node000030_Node000031"><a xlink:title=" ">
<path fill="none" stroke="#63b8ff" d="M2268.34,-228.95C2298.15,-219.14 2337.16,-206.31 2364.23,-197.41"/>
<polygon fill="#63b8ff" stroke="#63b8ff" points="2267.26,-225.62 2258.85,-232.07 2269.44,-232.27 2267.26,-225.62"/>
</a>
</g>
</g>
<!-- Node32&#45;&gt;Node8 -->
<g id="edge46_Node000032_Node000008" class="edge">
<title>Node32&#45;&gt;Node8</title>
<g id="a_edge46_Node000032_Node000008"><a xlink:title=" ">
<path fill="none" stroke="#63b8ff" d="M1811.33,-221.35C1804.57,-180.72 1783.69,-94.21 1725.25,-58.25 1682.39,-31.88 1625.29,-20.57 1585.51,-15.73"/>
<polygon fill="#63b8ff" stroke="#63b8ff" points="1807.85,-221.73 1812.8,-231.1 1814.77,-220.69 1807.85,-221.73"/>
</a>
</g>
</g>
<!-- Node33 -->
<g id="Node000033" class="node">
<title>Node33</title>
<g id="a_Node000033"><a xlink:href="esp__now__task_8cpp.html" target="_top" xlink:title="source file for the task that sends the battery voltage to the controller">
<polygon fill="white" stroke="#666666" points="2020.12,-197 1844.38,-197 1844.38,-174.75 2020.12,-174.75 2020.12,-197"/>
<text text-anchor="middle" x="1932.25" y="-181.6" font-family="Arial" font-size="12.00">main/tasks/esp_now_task.cpp</text>
</a>
</g>
</g>
<!-- Node32&#45;&gt;Node33 -->
<g id="edge47_Node000032_Node000033" class="edge">
<title>Node32&#45;&gt;Node33</title>
<g id="a_edge47_Node000032_Node000033"><a xlink:title=" ">
<path fill="none" stroke="#63b8ff" d="M1846.74,-227.64C1866.91,-218.02 1892.3,-205.92 1910.15,-197.41"/>
<polygon fill="#63b8ff" stroke="#63b8ff" points="1845.33,-224.43 1837.81,-231.89 1848.34,-230.75 1845.33,-224.43"/>
</a>
</g>
</g>
<!-- Node34&#45;&gt;Node17 -->
<g id="edge57_Node000034_Node000017" class="edge">
<title>Node34&#45;&gt;Node17</title>
<g id="a_edge57_Node000034_Node000017"><a xlink:title=" ">
<path fill="none" stroke="#63b8ff" d="M2636.98,-279.7C2629.61,-242.22 2614.73,-166.65 2609.3,-139.03"/>
<polygon fill="#63b8ff" stroke="#63b8ff" points="2633.52,-280.21 2638.88,-289.34 2640.38,-278.86 2633.52,-280.21"/>
</a>
</g>
</g>
</g>
</svg>
