<?xml version="1.0" encoding="UTF-8" standalone="no"?>
<!DOCTYPE svg PUBLIC "-//W3C//DTD SVG 1.1//EN"
 "http://www.w3.org/Graphics/SVG/1.1/DTD/svg11.dtd">
<!-- Generated by graphviz version 12.2.1 (20241206.2353)
 -->
<!-- Title: include/supporting/changeable_values.h Pages: 1 -->
<svg width="421pt" height="205pt"
 viewBox="0.00 0.00 420.50 205.00" xmlns="http://www.w3.org/2000/svg" xmlns:xlink="http://www.w3.org/1999/xlink">
<g id="graph0" class="graph" transform="scale(1 1) rotate(0) translate(4 201)">
<title>include/supporting/changeable_values.h</title>
<!-- Node1 -->
<g id="Node000001" class="node">
<title>Node1</title>
<g id="a_Node000001"><a xlink:title="Contains the information for the changeable values class, this class allows a value to be modifed by ...">
<polygon fill="#999999" stroke="#666666" points="346,-197 114,-197 114,-174.75 346,-174.75 346,-197"/>
<text text-anchor="middle" x="230" y="-181.6" font-family="Arial" font-size="12.00">include/supporting/changeable_values.h</text>
</a>
</g>
</g>
<!-- Node2 -->
<g id="Node000002" class="node">
<title>Node2</title>
<g id="a_Node000002"><a xlink:href="menus_8h.html" target="_top" xlink:title="This is the file that contains the class for menus.">
<polygon fill="white" stroke="#666666" points="311.5,-138.75 148.5,-138.75 148.5,-116.5 311.5,-116.5 311.5,-138.75"/>
<text text-anchor="middle" x="230" y="-123.35" font-family="Arial" font-size="12.00">include/supporting/menus.h</text>
</a>
</g>
</g>
<!-- Node1&#45;&gt;Node2 -->
<g id="edge1_Node000001_Node000002" class="edge">
<title>Node1&#45;&gt;Node2</title>
<g id="a_edge1_Node000001_Node000002"><a xlink:title=" ">
<path fill="none" stroke="#63b8ff" d="M230,-162.85C230,-154.7 230,-145.83 230,-139.16"/>
<polygon fill="#63b8ff" stroke="#63b8ff" points="226.5,-162.78 230,-172.78 233.5,-162.78 226.5,-162.78"/>
</a>
</g>
</g>
<!-- Node3 -->
<g id="Node000003" class="node">
<title>Node3</title>
<g id="a_Node000003"><a xlink:href="display__driver__task_8h.html" target="_top" xlink:title="Contains the externs and defines for the display driver task.">
<polygon fill="white" stroke="#666666" points="231,-80.5 29,-80.5 29,-58.25 231,-58.25 231,-80.5"/>
<text text-anchor="middle" x="130" y="-65.1" font-family="Arial" font-size="12.00">include/tasks/display_driver_task.h</text>
</a>
</g>
</g>
<!-- Node2&#45;&gt;Node3 -->
<g id="edge2_Node000002_Node000003" class="edge">
<title>Node2&#45;&gt;Node3</title>
<g id="a_edge2_Node000002_Node000003"><a xlink:title=" ">
<path fill="none" stroke="#63b8ff" d="M201.28,-110.47C184.38,-100.97 163.51,-89.22 148.72,-80.91"/>
<polygon fill="#63b8ff" stroke="#63b8ff" points="199.44,-113.45 209.87,-115.3 202.87,-107.35 199.44,-113.45"/>
</a>
</g>
</g>
<!-- Node6 -->
<g id="Node000006" class="node">
<title>Node6</title>
<g id="a_Node000006"><a xlink:href="menus_8cpp.html" target="_top" xlink:title="source file for the class that handles the creation of menus">
<polygon fill="white" stroke="#666666" points="412.5,-80.5 249.5,-80.5 249.5,-58.25 412.5,-58.25 412.5,-80.5"/>
<text text-anchor="middle" x="331" y="-65.1" font-family="Arial" font-size="12.00">main/supporting/menus.cpp</text>
</a>
</g>
</g>
<!-- Node2&#45;&gt;Node6 -->
<g id="edge5_Node000002_Node000006" class="edge">
<title>Node2&#45;&gt;Node6</title>
<g id="a_edge5_Node000002_Node000006"><a xlink:title=" ">
<path fill="none" stroke="#63b8ff" d="M259.01,-110.47C276.07,-100.97 297.16,-89.22 312.09,-80.91"/>
<polygon fill="#63b8ff" stroke="#63b8ff" points="257.35,-107.38 250.32,-115.31 260.76,-113.5 257.35,-107.38"/>
</a>
</g>
</g>
<!-- Node4 -->
<g id="Node000004" class="node">
<title>Node4</title>
<g id="a_Node000004"><a xlink:href="main_8cpp.html" target="_top" xlink:title="This is the file that contains the main function and all other tasks for the robot.">
<polygon fill="white" stroke="#666666" points="94,-22.25 0,-22.25 0,0 94,0 94,-22.25"/>
<text text-anchor="middle" x="47" y="-6.85" font-family="Arial" font-size="12.00">main/main.cpp</text>
</a>
</g>
</g>
<!-- Node3&#45;&gt;Node4 -->
<g id="edge3_Node000003_Node000004" class="edge">
<title>Node3&#45;&gt;Node4</title>
<g id="a_edge3_Node000003_Node000004"><a xlink:title=" ">
<path fill="none" stroke="#63b8ff" d="M104.96,-51.41C91.16,-42.05 74.46,-30.74 62.54,-22.66"/>
<polygon fill="#63b8ff" stroke="#63b8ff" points="102.89,-54.23 113.14,-56.95 106.82,-48.44 102.89,-54.23"/>
</a>
</g>
</g>
<!-- Node5 -->
<g id="Node000005" class="node">
<title>Node5</title>
<g id="a_Node000005"><a xlink:href="display__driver__task_8cpp.html" target="_top" xlink:title="source file for the task that drives the display, displays controller connected status,...">
<polygon fill="white" stroke="#666666" points="314,-22.25 112,-22.25 112,0 314,0 314,-22.25"/>
<text text-anchor="middle" x="213" y="-6.85" font-family="Arial" font-size="12.00">main/tasks/display_driver_task.cpp</text>
</a>
</g>
</g>
<!-- Node3&#45;&gt;Node5 -->
<g id="edge4_Node000003_Node000005" class="edge">
<title>Node3&#45;&gt;Node5</title>
<g id="a_edge4_Node000003_Node000005"><a xlink:title=" ">
<path fill="none" stroke="#63b8ff" d="M155.04,-51.41C168.84,-42.05 185.54,-30.74 197.46,-22.66"/>
<polygon fill="#63b8ff" stroke="#63b8ff" points="153.18,-48.44 146.86,-56.95 157.11,-54.23 153.18,-48.44"/>
</a>
</g>
</g>
</g>
</svg>
