<?xml version="1.0" encoding="UTF-8" standalone="no"?>
<!DOCTYPE svg PUBLIC "-//W3C//DTD SVG 1.1//EN"
 "http://www.w3.org/Graphics/SVG/1.1/DTD/svg11.dtd">
<!-- Generated by graphviz version 12.2.1 (20241206.2353)
 -->
<!-- Title: menu::increase_selected_value Pages: 1 -->
<svg width="415pt" height="70pt"
 viewBox="0.00 0.00 415.00 70.25" xmlns="http://www.w3.org/2000/svg" xmlns:xlink="http://www.w3.org/1999/xlink">
<g id="graph0" class="graph" transform="scale(1 1) rotate(0) translate(4 66.25)">
<title>menu::increase_selected_value</title>
<!-- Node1 -->
<g id="Node000001" class="node">
<title>Node1</title>
<g id="a_Node000001"><a xlink:title=" ">
<polygon fill="#999999" stroke="#666666" points="185.5,-42.25 0,-42.25 0,-20 185.5,-20 185.5,-42.25"/>
<text text-anchor="middle" x="92.75" y="-26.85" font-family="Arial" font-size="12.00">menu::increase_selected_value</text>
</a>
</g>
</g>
<!-- Node2 -->
<g id="Node000002" class="node">
<title>Node2</title>
<g id="a_Node000002"><a xlink:href="classmenu.html#a125867fd9fccd69d7851afe0294466e7" target="_top" xlink:title="This function increases the selected value in the menu (if modifiable)">
<polygon fill="white" stroke="#666666" points="407,-62.25 221.5,-62.25 221.5,-40 407,-40 407,-62.25"/>
<text text-anchor="middle" x="314.25" y="-46.85" font-family="Arial" font-size="12.00">menu::increase_selected_value</text>
</a>
</g>
</g>
<!-- Node1&#45;&gt;Node2 -->
<g id="edge1_Node000001_Node000002" class="edge">
<title>Node1&#45;&gt;Node2</title>
<g id="a_edge1_Node000001_Node000002"><a xlink:title=" ">
<path fill="none" stroke="#63b8ff" d="M185.88,-39.52C193.78,-40.24 201.8,-40.97 209.77,-41.7"/>
<polygon fill="#63b8ff" stroke="#63b8ff" points="209.22,-45.16 219.49,-42.58 209.85,-38.19 209.22,-45.16"/>
</a>
</g>
</g>
<!-- Node3 -->
<g id="Node000003" class="node">
<title>Node3</title>
<g id="a_Node000003"><a xlink:href="classmenu.html#a43fc0dce51cf325ab9b4ade948ae35e6" target="_top" xlink:title="This is the constructor for the menu class.">
<polygon fill="white" stroke="#666666" points="355.25,-22.25 273.25,-22.25 273.25,0 355.25,0 355.25,-22.25"/>
<text text-anchor="middle" x="314.25" y="-6.85" font-family="Arial" font-size="12.00">menu::menu</text>
</a>
</g>
</g>
<!-- Node1&#45;&gt;Node3 -->
<g id="edge2_Node000001_Node000003" class="edge">
<title>Node1&#45;&gt;Node3</title>
<g id="a_edge2_Node000001_Node000003"><a xlink:title=" ">
<path fill="none" stroke="#63b8ff" d="M185.88,-22.73C211.76,-20.37 238.98,-17.89 261.58,-15.83"/>
<polygon fill="#63b8ff" stroke="#63b8ff" points="261.8,-19.33 271.44,-14.93 261.16,-12.36 261.8,-19.33"/>
</a>
</g>
</g>
</g>
</svg>
