<?xml version="1.0" encoding="UTF-8" standalone="no"?>
<!DOCTYPE svg PUBLIC "-//W3C//DTD SVG 1.1//EN"
 "http://www.w3.org/Graphics/SVG/1.1/DTD/svg11.dtd">
<!-- Generated by graphviz version 12.2.1 (20241206.2353)
 -->
<!-- Title: kicker_drive_train::calibrating Pages: 1 -->
<svg width="918pt" height="30pt"
 viewBox="0.00 0.00 917.50 30.25" xmlns="http://www.w3.org/2000/svg" xmlns:xlink="http://www.w3.org/1999/xlink">
<g id="graph0" class="graph" transform="scale(1 1) rotate(0) translate(4 26.25)">
<title>kicker_drive_train::calibrating</title>
<!-- Node1 -->
<g id="Node000001" class="node">
<title>Node1</title>
<g id="a_Node000001"><a xlink:title="run the calibration sequence with periodic messages over can bus to prevent the odrives from entering...">
<polygon fill="#999999" stroke="#666666" points="909.5,-22.25 737.5,-22.25 737.5,0 909.5,0 909.5,-22.25"/>
<text text-anchor="middle" x="823.5" y="-6.85" font-family="Arial" font-size="12.00">kicker_drive_train::calibrating</text>
</a>
</g>
</g>
<!-- Node2 -->
<g id="Node000002" class="node">
<title>Node2</title>
<g id="a_Node000002"><a xlink:href="classkicker__drive__train.html#a2c011997429fafeeacddbb1e74d604c4" target="_top" xlink:title="change the status of the motors">
<polygon fill="white" stroke="#666666" points="701.5,-22.25 469.5,-22.25 469.5,0 701.5,0 701.5,-22.25"/>
<text text-anchor="middle" x="585.5" y="-6.85" font-family="Arial" font-size="12.00">kicker_drive_train::motor_status_updater</text>
</a>
</g>
</g>
<!-- Node1&#45;&gt;Node2 -->
<g id="edge1_Node000001_Node000002" class="edge">
<title>Node1&#45;&gt;Node2</title>
<g id="a_edge1_Node000001_Node000002"><a xlink:title=" ">
<path fill="none" stroke="#63b8ff" d="M725.86,-11.12C717.98,-11.12 709.97,-11.12 701.97,-11.12"/>
<polygon fill="#63b8ff" stroke="#63b8ff" points="725.79,-14.63 735.79,-11.13 725.79,-7.63 725.79,-14.63"/>
</a>
</g>
</g>
<!-- Node3 -->
<g id="Node000003" class="node">
<title>Node3</title>
<g id="a_Node000003"><a xlink:href="classkicker__drive__train.html#af6663d5dc9de9ac8ca7f32f817cb8bd6" target="_top" xlink:title="The main loop for the drive train, updates values, checks battery, and drives motors.">
<polygon fill="white" stroke="#666666" points="433.5,-22.25 280.25,-22.25 280.25,0 433.5,0 433.5,-22.25"/>
<text text-anchor="middle" x="356.88" y="-6.85" font-family="Arial" font-size="12.00">kicker_drive_train::update</text>
</a>
</g>
</g>
<!-- Node2&#45;&gt;Node3 -->
<g id="edge2_Node000002_Node000003" class="edge">
<title>Node2&#45;&gt;Node3</title>
<g id="a_edge2_Node000002_Node000003"><a xlink:title=" ">
<path fill="none" stroke="#63b8ff" d="M457.94,-11.12C449.72,-11.12 441.6,-11.12 433.74,-11.12"/>
<polygon fill="#63b8ff" stroke="#63b8ff" points="457.68,-14.63 467.68,-11.13 457.68,-7.63 457.68,-14.63"/>
</a>
</g>
</g>
<!-- Node4 -->
<g id="Node000004" class="node">
<title>Node4</title>
<g id="a_Node000004"><a xlink:href="kicker__drive__train__task_8cpp.html#a938e6bfee6576fa0854ce50fcaa54b7a" target="_top" xlink:title="The task to drive the odrive motors, set speeds, modify ramped velocity parameters,...">
<polygon fill="white" stroke="#666666" points="244.25,-22.25 105.25,-22.25 105.25,0 244.25,0 244.25,-22.25"/>
<text text-anchor="middle" x="174.75" y="-6.85" font-family="Arial" font-size="12.00">kicker_drive_train_task</text>
</a>
</g>
</g>
<!-- Node3&#45;&gt;Node4 -->
<g id="edge3_Node000003_Node000004" class="edge">
<title>Node3&#45;&gt;Node4</title>
<g id="a_edge3_Node000003_Node000004"><a xlink:title=" ">
<path fill="none" stroke="#63b8ff" d="M268.66,-11.12C260.6,-11.12 252.51,-11.12 244.65,-11.12"/>
<polygon fill="#63b8ff" stroke="#63b8ff" points="268.49,-14.63 278.49,-11.13 268.49,-7.63 268.49,-14.63"/>
</a>
</g>
</g>
<!-- Node5 -->
<g id="Node000005" class="node">
<title>Node5</title>
<g id="a_Node000005"><a xlink:href="main_8cpp.html#a630544a7f0a2cc40d8a7fefab7e2fe70" target="_top" xlink:title="the main function for the program, creates all semaphores, tasks, and runs setup functions">
<polygon fill="white" stroke="#666666" points="69.25,-22.25 0,-22.25 0,0 69.25,0 69.25,-22.25"/>
<text text-anchor="middle" x="34.62" y="-6.85" font-family="Arial" font-size="12.00">app_main</text>
</a>
</g>
</g>
<!-- Node4&#45;&gt;Node5 -->
<g id="edge4_Node000004_Node000005" class="edge">
<title>Node4&#45;&gt;Node5</title>
<g id="a_edge4_Node000004_Node000005"><a xlink:title=" ">
<path fill="none" stroke="#63b8ff" d="M93.58,-11.12C85.21,-11.12 77.06,-11.12 69.64,-11.12"/>
<polygon fill="#63b8ff" stroke="#63b8ff" points="93.58,-14.63 103.58,-11.13 93.58,-7.63 93.58,-14.63"/>
</a>
</g>
</g>
</g>
</svg>
