<?xml version="1.0" encoding="UTF-8" standalone="no"?>
<!DOCTYPE svg PUBLIC "-//W3C//DTD SVG 1.1//EN"
 "http://www.w3.org/Graphics/SVG/1.1/DTD/svg11.dtd">
<!-- Generated by graphviz version 12.2.1 (20241206.2353)
 -->
<!-- Title: kicker_drive_train::break_motors Pages: 1 -->
<svg width="935pt" height="50pt"
 viewBox="0.00 0.00 934.75 50.25" xmlns="http://www.w3.org/2000/svg" xmlns:xlink="http://www.w3.org/1999/xlink">
<g id="graph0" class="graph" transform="scale(1 1) rotate(0) translate(4 46.25)">
<title>kicker_drive_train::break_motors</title>
<!-- Node1 -->
<g id="Node000001" class="node">
<title>Node1</title>
<g id="a_Node000001"><a xlink:title="brake the motors by setting the velocity to 0">
<polygon fill="#999999" stroke="#666666" points="926.75,-22.25 737.5,-22.25 737.5,0 926.75,0 926.75,-22.25"/>
<text text-anchor="middle" x="832.12" y="-6.85" font-family="Arial" font-size="12.00">kicker_drive_train::break_motors</text>
</a>
</g>
</g>
<!-- Node2 -->
<g id="Node000002" class="node">
<title>Node2</title>
<g id="a_Node000002"><a xlink:href="classkicker__drive__train.html#a2c011997429fafeeacddbb1e74d604c4" target="_top" xlink:title="change the status of the motors">
<polygon fill="white" stroke="#666666" points="701.5,-42.25 469.5,-42.25 469.5,-20 701.5,-20 701.5,-42.25"/>
<text text-anchor="middle" x="585.5" y="-26.85" font-family="Arial" font-size="12.00">kicker_drive_train::motor_status_updater</text>
</a>
</g>
</g>
<!-- Node1&#45;&gt;Node2 -->
<g id="edge1_Node000001_Node000002" class="edge">
<title>Node1&#45;&gt;Node2</title>
<g id="a_edge1_Node000001_Node000002"><a xlink:title=" ">
<path fill="none" stroke="#63b8ff" d="M726.02,-19.72C718.01,-20.37 709.91,-21.04 701.85,-21.69"/>
<polygon fill="#63b8ff" stroke="#63b8ff" points="726.06,-23.23 735.74,-18.92 725.49,-16.25 726.06,-23.23"/>
</a>
</g>
</g>
<!-- Node3 -->
<g id="Node000003" class="node">
<title>Node3</title>
<g id="a_Node000003"><a xlink:href="classkicker__drive__train.html#af6663d5dc9de9ac8ca7f32f817cb8bd6" target="_top" xlink:title="The main loop for the drive train, updates values, checks battery, and drives motors.">
<polygon fill="white" stroke="#666666" points="433.5,-22.25 280.25,-22.25 280.25,0 433.5,0 433.5,-22.25"/>
<text text-anchor="middle" x="356.88" y="-6.85" font-family="Arial" font-size="12.00">kicker_drive_train::update</text>
</a>
</g>
</g>
<!-- Node1&#45;&gt;Node3 -->
<g id="edge5_Node000001_Node000003" class="edge">
<title>Node1&#45;&gt;Node3</title>
<g id="a_edge5_Node000001_Node000003"><a xlink:title=" ">
<path fill="none" stroke="#63b8ff" d="M725.63,-11.12C637.12,-11.12 512.83,-11.12 433.83,-11.12"/>
<polygon fill="#63b8ff" stroke="#63b8ff" points="725.55,-14.63 735.55,-11.13 725.55,-7.63 725.55,-14.63"/>
</a>
</g>
</g>
<!-- Node2&#45;&gt;Node3 -->
<g id="edge2_Node000002_Node000003" class="edge">
<title>Node2&#45;&gt;Node3</title>
<g id="a_edge2_Node000002_Node000003"><a xlink:title=" ">
<path fill="none" stroke="#63b8ff" d="M457.94,-19.96C449.72,-19.23 441.6,-18.51 433.74,-17.82"/>
<polygon fill="#63b8ff" stroke="#63b8ff" points="457.42,-23.42 467.69,-20.82 458.03,-16.45 457.42,-23.42"/>
</a>
</g>
</g>
<!-- Node4 -->
<g id="Node000004" class="node">
<title>Node4</title>
<g id="a_Node000004"><a xlink:href="kicker__drive__train__task_8cpp.html#a938e6bfee6576fa0854ce50fcaa54b7a" target="_top" xlink:title="The task to drive the odrive motors, set speeds, modify ramped velocity parameters,...">
<polygon fill="white" stroke="#666666" points="244.25,-22.25 105.25,-22.25 105.25,0 244.25,0 244.25,-22.25"/>
<text text-anchor="middle" x="174.75" y="-6.85" font-family="Arial" font-size="12.00">kicker_drive_train_task</text>
</a>
</g>
</g>
<!-- Node3&#45;&gt;Node4 -->
<g id="edge3_Node000003_Node000004" class="edge">
<title>Node3&#45;&gt;Node4</title>
<g id="a_edge3_Node000003_Node000004"><a xlink:title=" ">
<path fill="none" stroke="#63b8ff" d="M268.66,-11.12C260.6,-11.12 252.51,-11.12 244.65,-11.12"/>
<polygon fill="#63b8ff" stroke="#63b8ff" points="268.49,-14.63 278.49,-11.13 268.49,-7.63 268.49,-14.63"/>
</a>
</g>
</g>
<!-- Node5 -->
<g id="Node000005" class="node">
<title>Node5</title>
<g id="a_Node000005"><a xlink:href="main_8cpp.html#a630544a7f0a2cc40d8a7fefab7e2fe70" target="_top" xlink:title="the main function for the program, creates all semaphores, tasks, and runs setup functions">
<polygon fill="white" stroke="#666666" points="69.25,-22.25 0,-22.25 0,0 69.25,0 69.25,-22.25"/>
<text text-anchor="middle" x="34.62" y="-6.85" font-family="Arial" font-size="12.00">app_main</text>
</a>
</g>
</g>
<!-- Node4&#45;&gt;Node5 -->
<g id="edge4_Node000004_Node000005" class="edge">
<title>Node4&#45;&gt;Node5</title>
<g id="a_edge4_Node000004_Node000005"><a xlink:title=" ">
<path fill="none" stroke="#63b8ff" d="M93.58,-11.12C85.21,-11.12 77.06,-11.12 69.64,-11.12"/>
<polygon fill="#63b8ff" stroke="#63b8ff" points="93.58,-14.63 103.58,-11.13 93.58,-7.63 93.58,-14.63"/>
</a>
</g>
</g>
</g>
</svg>
