<?xml version="1.0" encoding="UTF-8" standalone="no"?>
<!DOCTYPE svg PUBLIC "-//W3C//DTD SVG 1.1//EN"
 "http://www.w3.org/Graphics/SVG/1.1/DTD/svg11.dtd">
<!-- Generated by graphviz version 12.2.1 (20241206.2353)
 -->
<!-- Title: servo Pages: 1 -->
<svg width="615pt" height="158pt"
 viewBox="0.00 0.00 614.75 158.00" xmlns="http://www.w3.org/2000/svg" xmlns:xlink="http://www.w3.org/1999/xlink">
<g id="graph0" class="graph" transform="scale(1 1) rotate(0) translate(4 154)">
<title>servo</title>
<!-- Node1 -->
<g id="Node000001" class="node">
<title>Node1</title>
<g id="a_Node000001"><a xlink:title="This is a class for controlling a pwm based servo motor.">
<polygon fill="#999999" stroke="none" points="606.75,-150 0,-150 0,0 606.75,0 606.75,-150"/>
<text text-anchor="start" x="288.75" y="-134.6" font-family="Arial" font-size="12.00">servo</text>
<text text-anchor="start" x="5.5" y="-116.35" font-family="Arial" font-size="12.00">&#45;</text>
<text text-anchor="start" x="14.75" y="-116.35" font-family="Arial" font-size="12.00">ledc_channel_t ledc_timer</text>
<text text-anchor="start" x="5.5" y="-98.1" font-family="Arial" font-size="12.00">&#45;</text>
<text text-anchor="start" x="14.75" y="-98.1" font-family="Arial" font-size="12.00">int16_t pwm_low_limit</text>
<text text-anchor="start" x="5.5" y="-79.85" font-family="Arial" font-size="12.00">&#45;</text>
<text text-anchor="start" x="14.75" y="-79.85" font-family="Arial" font-size="12.00">int16_t pwm_high_limit</text>
<text text-anchor="start" x="5.5" y="-61.6" font-family="Arial" font-size="12.00">&#45;</text>
<text text-anchor="start" x="14.75" y="-61.6" font-family="Arial" font-size="12.00">bool direction</text>
<text text-anchor="start" x="5.5" y="-43.35" font-family="Arial" font-size="12.00">&#45;</text>
<text text-anchor="start" x="14.75" y="-43.35" font-family="Arial" font-size="12.00">int8_t offset</text>
<text text-anchor="start" x="4" y="-25.1" font-family="Arial" font-size="12.00">+</text>
<text text-anchor="start" x="14.75" y="-25.1" font-family="Arial" font-size="12.00">servo(ledc_channel_t ledc_timer, uint16_t pwm_low_limit, uint16_t pwm_high_limit, bool direction, int8_t offset)</text>
<text text-anchor="start" x="4" y="-6.85" font-family="Arial" font-size="12.00">+</text>
<text text-anchor="start" x="14.75" y="-6.85" font-family="Arial" font-size="12.00">void setDegree(uint16_t new_degree)</text>
<polygon fill="#666666" stroke="#666666" points="0,-129.75 0,-129.75 606.75,-129.75 606.75,-129.75 0,-129.75"/>
<polygon fill="#666666" stroke="#666666" points="0,-38.5 0,-38.5 12.75,-38.5 12.75,-38.5 0,-38.5"/>
<polygon fill="#666666" stroke="#666666" points="12.75,-38.5 12.75,-38.5 606.75,-38.5 606.75,-38.5 12.75,-38.5"/>
<polygon fill="none" stroke="#666666" points="0,0 0,-150 606.75,-150 606.75,0 0,0"/>
</a>
</g>
</g>
</g>
</svg>
