<?xml version="1.0" encoding="UTF-8" standalone="no"?>
<!DOCTYPE svg PUBLIC "-//W3C//DTD SVG 1.1//EN"
 "http://www.w3.org/Graphics/SVG/1.1/DTD/svg11.dtd">
<!-- Generated by graphviz version 12.2.1 (20241206.2353)
 -->
<!-- Title: oDrive::clear_battery_voltage Pages: 1 -->
<svg width="543pt" height="50pt"
 viewBox="0.00 0.00 542.75 50.25" xmlns="http://www.w3.org/2000/svg" xmlns:xlink="http://www.w3.org/1999/xlink">
<g id="graph0" class="graph" transform="scale(1 1) rotate(0) translate(4 46.25)">
<title>oDrive::clear_battery_voltage</title>
<!-- Node1 -->
<g id="Node000001" class="node">
<title>Node1</title>
<g id="a_Node000001"><a xlink:title="the function that is called when something has gone wrong, and no message is received when Get_Bus_Vo...">
<polygon fill="#999999" stroke="#666666" points="534.75,-22.25 362.75,-22.25 362.75,0 534.75,0 534.75,-22.25"/>
<text text-anchor="middle" x="448.75" y="-6.85" font-family="Arial" font-size="12.00">oDrive::clear_battery_voltage</text>
</a>
</g>
</g>
<!-- Node2 -->
<g id="Node000002" class="node">
<title>Node2</title>
<g id="a_Node000002"><a xlink:href="classo_drive.html#aa484e8a0703f3459aa6cb8b9415ea80c" target="_top" xlink:title="the function that handles when a message needs to be received from the Odrive">
<polygon fill="white" stroke="#666666" points="326.75,-42.25 175,-42.25 175,-20 326.75,-20 326.75,-42.25"/>
<text text-anchor="middle" x="250.88" y="-26.85" font-family="Arial" font-size="12.00">oDrive::receive_message</text>
</a>
</g>
</g>
<!-- Node1&#45;&gt;Node2 -->
<g id="edge1_Node000001_Node000002" class="edge">
<title>Node1&#45;&gt;Node2</title>
<g id="a_edge1_Node000001_Node000002"><a xlink:title=" ">
<path fill="none" stroke="#63b8ff" d="M351.06,-21C343.01,-21.82 334.95,-22.64 327.1,-23.44"/>
<polygon fill="#63b8ff" stroke="#63b8ff" points="351.31,-24.49 360.9,-19.99 350.6,-17.53 351.31,-24.49"/>
</a>
</g>
</g>
<!-- Node3 -->
<g id="Node000003" class="node">
<title>Node3</title>
<g id="a_Node000003"><a xlink:href="classo_drive.html#a4853976dc551c59e848dd2a832158d4a" target="_top" xlink:title="send a command to the Odrive">
<polygon fill="white" stroke="#666666" points="139,-22.25 0,-22.25 0,0 139,0 139,-22.25"/>
<text text-anchor="middle" x="69.5" y="-6.85" font-family="Arial" font-size="12.00">oDrive::send_message</text>
</a>
</g>
</g>
<!-- Node1&#45;&gt;Node3 -->
<g id="edge3_Node000001_Node000003" class="edge">
<title>Node1&#45;&gt;Node3</title>
<g id="a_edge3_Node000001_Node000003"><a xlink:title=" ">
<path fill="none" stroke="#63b8ff" d="M351.33,-11.12C285.05,-11.12 198.64,-11.12 139.27,-11.12"/>
<polygon fill="#63b8ff" stroke="#63b8ff" points="351.1,-14.63 361.1,-11.13 351.1,-7.63 351.1,-14.63"/>
</a>
</g>
</g>
<!-- Node2&#45;&gt;Node3 -->
<g id="edge2_Node000002_Node000003" class="edge">
<title>Node2&#45;&gt;Node3</title>
<g id="a_edge2_Node000002_Node000003"><a xlink:title=" ">
<path fill="none" stroke="#63b8ff" d="M163.27,-21.47C155.23,-20.57 147.16,-19.67 139.31,-18.8"/>
<polygon fill="#63b8ff" stroke="#63b8ff" points="162.75,-24.93 173.08,-22.56 163.53,-17.98 162.75,-24.93"/>
</a>
</g>
</g>
</g>
</svg>
