<?xml version="1.0" encoding="UTF-8" standalone="no"?>
<!DOCTYPE svg PUBLIC "-//W3C//DTD SVG 1.1//EN"
 "http://www.w3.org/Graphics/SVG/1.1/DTD/svg11.dtd">
<!-- Generated by graphviz version 12.2.1 (20241206.2353)
 -->
<!-- Title: kicker_drive_train::update Pages: 1 -->
<!--zoomable 261 -->

<svg id="main" version="1.1" xmlns="http://www.w3.org/2000/svg" xmlns:xlink="http://www.w3.org/1999/xlink" xml:space="preserve" onload="init(evt)">

<style type="text/css"><![CDATA[
.node, .edge {opacity: 0.7;}
.node.selected, .edge.selected {opacity: 1;}
.edge:hover path { stroke: red; }
.edge:hover polygon { stroke: red; fill: red; }
]]></style>

<defs>
  <circle id="rim" cx="0" cy="0" r="7"/>
  <circle id="rim2" cx="0" cy="0" r="3.5"/>
  <g id="zoomPlus">
    <use xlink:href="#rim" fill="#404040"><set attributeName="fill" to="#808080" begin="zoomplus.mouseover" end="zoomplus.mouseout"/></use>
    <path d="M-4,0h8M0,-4v8" fill="none" stroke="white" stroke-width="1.5" pointer-events="none"/>
  </g>
  <g id="zoomMin">
    <use xlink:href="#rim" fill="#404040"><set attributeName="fill" to="#808080" begin="zoomminus.mouseover" end="zoomminus.mouseout"/></use>
    <path d="M-4,0h8" fill="none" stroke="white" stroke-width="1.5" pointer-events="none"/>
  </g>
  <g id="arrowUp" transform="translate(30 24)">
    <use xlink:href="#rim"/>
    <path pointer-events="none" fill="none" stroke="white" stroke-width="1.5" d="M0,-3.0v7 M-2.5,-0.5L0,-3.0L2.5,-0.5"/>
  </g>
  <g id="arrowRight" transform="rotate(90) translate(36 -43)">
    <use xlink:href="#rim"/>
    <path pointer-events="none" fill="none" stroke="white" stroke-width="1.5" d="M0,-3.0v7 M-2.5,-0.5L0,-3.0L2.5,-0.5"/>
  </g>
  <g id="arrowDown" transform="rotate(180) translate(-30 -48)">
    <use xlink:href="#rim"/>
    <path pointer-events="none" fill="none" stroke="white" stroke-width="1.5" d="M0,-3.0v7 M-2.5,-0.5L0,-3.0L2.5,-0.5"/>
  </g>
  <g id="arrowLeft" transform="rotate(270) translate(-36 17)">
    <use xlink:href="#rim"/>
    <path pointer-events="none" fill="none" stroke="white" stroke-width="1.5" d="M0,-3.0v7 M-2.5,-0.5L0,-3.0L2.5,-0.5"/>
  </g>
  <g id="resetDef">
    <use xlink:href="#rim2" fill="#404040"><set attributeName="fill" to="#808080" begin="reset.mouseover" end="reset.mouseout"/></use>
  </g>
</defs>
<script type="application/ecmascript">
var viewWidth = 953;
var viewHeight = 261;
var sectionId = 'dynsection-14';
</script>
<script type="application/ecmascript" xlink:href="svg.min.js"/>
<svg id="graph" class="graph">
<g id="viewport">
<title>kicker_drive_train::update</title>
<!-- Node1 -->
<g id="Node000001" class="node">
<title>Node1</title>
<g id="a_Node000001"><a xlink:title="The main loop for the drive train, updates values, checks battery, and drives motors.">
<polygon fill="#999999" stroke="#666666" points="153.25,-142.25 0,-142.25 0,-120 153.25,-120 153.25,-142.25"/>
<text text-anchor="middle" x="76.62" y="-126.85" font-family="Arial" font-size="12.00">kicker_drive_train::update</text>
</a>
</g>
</g>
<!-- Node2 -->
<g id="Node000002" class="node">
<title>Node2</title>
<g id="a_Node000002"><a xlink:href="classkicker__drive__train.html#a7b21d38c1a81e3646f07602f41cab0bc" target="_top" xlink:title="brake the motors by setting the velocity to 0">
<polygon fill="white" stroke="#666666" points="706.88,-200.25 517.62,-200.25 517.62,-178 706.88,-178 706.88,-200.25"/>
<text text-anchor="middle" x="612.25" y="-184.85" font-family="Arial" font-size="12.00">kicker_drive_train::break_motors</text>
</a>
</g>
</g>
<!-- Node1&#45;&gt;Node2 -->
<g id="edge1_Node000001_Node000002" class="edge">
<title>Node1&#45;&gt;Node2</title>
<g id="a_edge1_Node000001_Node000002"><a xlink:title=" ">
<path fill="none" stroke="#63b8ff" d="M85.8,-142.71C102.31,-164.96 142.1,-213.1 189.25,-231.12 322.14,-281.95 494.87,-232.11 571.56,-204.62"/>
<polygon fill="#63b8ff" stroke="#63b8ff" points="572.56,-207.98 580.75,-201.26 570.15,-201.41 572.56,-207.98"/>
</a>
</g>
</g>
<!-- Node4 -->
<g id="Node000004" class="node">
<title>Node4</title>
<g id="a_Node000004"><a xlink:href="classkicker__drive__train.html#a78a7597a4a1b0bc9492ef66c32b8a0c6" target="_top" xlink:title="drive the motors based on set parameters and last joystick values">
<polygon fill="white" stroke="#666666" points="426.5,-222.25 241,-222.25 241,-200 426.5,-200 426.5,-222.25"/>
<text text-anchor="middle" x="333.75" y="-206.85" font-family="Arial" font-size="12.00">kicker_drive_train::drive_motors</text>
</a>
</g>
</g>
<!-- Node1&#45;&gt;Node4 -->
<g id="edge3_Node000001_Node000004" class="edge">
<title>Node1&#45;&gt;Node4</title>
<g id="a_edge3_Node000001_Node000004"><a xlink:title=" ">
<path fill="none" stroke="#63b8ff" d="M94.54,-142.71C115.7,-156.59 153.49,-179.44 189.25,-191.12 202.08,-195.32 215.83,-198.63 229.56,-201.25"/>
<polygon fill="#63b8ff" stroke="#63b8ff" points="228.6,-204.63 239.06,-202.94 229.83,-197.74 228.6,-204.63"/>
</a>
</g>
</g>
<!-- Node5 -->
<g id="Node000005" class="node">
<title>Node5</title>
<g id="a_Node000005"><a xlink:href="classkicker__drive__train.html#a429f74f99def00f7d234662909150be0" target="_top" xlink:title="modify the speed multipliers">
<polygon fill="white" stroke="#666666" points="478.25,-182.25 189.25,-182.25 189.25,-160 478.25,-160 478.25,-182.25"/>
<text text-anchor="middle" x="333.75" y="-166.85" font-family="Arial" font-size="12.00">kicker_drive_train::motor_speed_multiplier_updater</text>
</a>
</g>
</g>
<!-- Node1&#45;&gt;Node5 -->
<g id="edge4_Node000001_Node000005" class="edge">
<title>Node1&#45;&gt;Node5</title>
<g id="a_edge4_Node000001_Node000005"><a xlink:title=" ">
<path fill="none" stroke="#63b8ff" d="M139.84,-142.71C155.91,-145.59 173.21,-148.57 189.25,-151.12 203.84,-153.45 219.29,-155.76 234.44,-157.94"/>
<polygon fill="#63b8ff" stroke="#63b8ff" points="233.51,-161.34 243.9,-159.29 234.5,-154.41 233.51,-161.34"/>
</a>
</g>
</g>
<!-- Node6 -->
<g id="Node000006" class="node">
<title>Node6</title>
<g id="a_Node000006"><a xlink:href="classkicker__drive__train.html#a059b7bd8b12aa236032041c49c0312cd" target="_top" xlink:title="update the speeds of the motors based on the joysticks">
<polygon fill="white" stroke="#666666" points="453.5,-142.25 214,-142.25 214,-120 453.5,-120 453.5,-142.25"/>
<text text-anchor="middle" x="333.75" y="-126.85" font-family="Arial" font-size="12.00">kicker_drive_train::motor_speeds_updater</text>
</a>
</g>
</g>
<!-- Node1&#45;&gt;Node6 -->
<g id="edge5_Node000001_Node000006" class="edge">
<title>Node1&#45;&gt;Node6</title>
<g id="a_edge5_Node000001_Node000006"><a xlink:title=" ">
<path fill="none" stroke="#63b8ff" d="M153.48,-131.12C169.02,-131.12 185.8,-131.12 202.63,-131.12"/>
<polygon fill="#63b8ff" stroke="#63b8ff" points="202.18,-134.63 212.18,-131.13 202.18,-127.63 202.18,-134.63"/>
</a>
</g>
</g>
<!-- Node7 -->
<g id="Node000007" class="node">
<title>Node7</title>
<g id="a_Node000007"><a xlink:href="classkicker__drive__train.html#a2c011997429fafeeacddbb1e74d604c4" target="_top" xlink:title="change the status of the motors">
<polygon fill="white" stroke="#666666" points="449.75,-102.25 217.75,-102.25 217.75,-80 449.75,-80 449.75,-102.25"/>
<text text-anchor="middle" x="333.75" y="-86.85" font-family="Arial" font-size="12.00">kicker_drive_train::motor_status_updater</text>
</a>
</g>
</g>
<!-- Node1&#45;&gt;Node7 -->
<g id="edge6_Node000001_Node000007" class="edge">
<title>Node1&#45;&gt;Node7</title>
<g id="a_edge6_Node000001_Node000007"><a xlink:title=" ">
<path fill="none" stroke="#63b8ff" d="M139.84,-119.54C155.91,-116.66 173.21,-113.68 189.25,-111.12 203.84,-108.8 219.29,-106.49 234.44,-104.31"/>
<polygon fill="#63b8ff" stroke="#63b8ff" points="234.5,-107.84 243.9,-102.96 233.51,-100.91 234.5,-107.84"/>
</a>
</g>
</g>
<!-- Node11 -->
<g id="Node000011" class="node">
<title>Node11</title>
<g id="a_Node000011"><a xlink:href="classkicker__drive__train.html#acae2e06df7e1d3c8af4f988fc1629b2f" target="_top" xlink:title="update the battery voltage if the correct amount of time has passed">
<polygon fill="white" stroke="#666666" points="459.88,-62.25 207.62,-62.25 207.62,-40 459.88,-40 459.88,-62.25"/>
<text text-anchor="middle" x="333.75" y="-46.85" font-family="Arial" font-size="12.00">kicker_drive_train::periodic_voltage_reading</text>
</a>
</g>
</g>
<!-- Node1&#45;&gt;Node11 -->
<g id="edge12_Node000001_Node000011" class="edge">
<title>Node1&#45;&gt;Node11</title>
<g id="a_edge12_Node000001_Node000011"><a xlink:title=" ">
<path fill="none" stroke="#63b8ff" d="M94.54,-119.54C115.7,-105.66 153.49,-82.81 189.25,-71.12 195.92,-68.95 202.84,-67 209.87,-65.27"/>
<polygon fill="#63b8ff" stroke="#63b8ff" points="210.56,-68.71 219.53,-63.06 209,-61.88 210.56,-68.71"/>
</a>
</g>
</g>
<!-- Node12 -->
<g id="Node000012" class="node">
<title>Node12</title>
<g id="a_Node000012"><a xlink:href="classkicker__drive__train.html#a1aea7c500cba07d358770050e51fd6cb" target="_top" xlink:title="update the ramped velocity parameters if they have been changed">
<polygon fill="white" stroke="#666666" points="459.88,-22.25 207.62,-22.25 207.62,0 459.88,0 459.88,-22.25"/>
<text text-anchor="middle" x="333.75" y="-6.85" font-family="Arial" font-size="12.00">kicker_drive_train::ramped_settings_updater</text>
</a>
</g>
</g>
<!-- Node1&#45;&gt;Node12 -->
<g id="edge13_Node000001_Node000012" class="edge">
<title>Node1&#45;&gt;Node12</title>
<g id="a_edge13_Node000001_Node000012"><a xlink:title=" ">
<path fill="none" stroke="#63b8ff" d="M86.3,-119.78C103.39,-98.37 143.7,-52.26 189.25,-31.12 193.01,-29.38 196.88,-27.78 200.82,-26.31"/>
<polygon fill="#63b8ff" stroke="#63b8ff" points="201.66,-29.72 210.01,-23.19 199.42,-23.09 201.66,-29.72"/>
</a>
</g>
</g>
<!-- Node3 -->
<g id="Node000003" class="node">
<title>Node3</title>
<g id="a_Node000003"><a xlink:href="classkicker__drive__train.html#a6ef0c24f1b0871021979a48fde1c9ff4" target="_top" xlink:title="set the motors to their idle state">
<polygon fill="white" stroke="#666666" points="944.5,-180.25 746.25,-180.25 746.25,-158 944.5,-158 944.5,-180.25"/>
<text text-anchor="middle" x="845.38" y="-164.85" font-family="Arial" font-size="12.00">kicker_drive_train::disable_motors</text>
</a>
</g>
</g>
<!-- Node2&#45;&gt;Node3 -->
<g id="edge2_Node000002_Node000003" class="edge">
<title>Node2&#45;&gt;Node3</title>
<g id="a_edge2_Node000002_Node000003"><a xlink:title=" ">
<path fill="none" stroke="#63b8ff" d="M707.26,-180.99C716.32,-180.21 725.57,-179.41 734.76,-178.61"/>
<polygon fill="#63b8ff" stroke="#63b8ff" points="734.77,-182.12 744.43,-177.77 734.17,-175.15 734.77,-182.12"/>
</a>
</g>
</g>
<!-- Node7&#45;&gt;Node2 -->
<g id="edge7_Node000007_Node000002" class="edge">
<title>Node7&#45;&gt;Node2</title>
<g id="a_edge7_Node000007_Node000002"><a xlink:title=" ">
<path fill="none" stroke="#63b8ff" d="M450.22,-98.35C460.09,-101.57 469.6,-105.75 478.25,-111.12 502.43,-126.16 490.96,-147.74 514.25,-164.12 519.27,-167.66 524.75,-170.69 530.47,-173.3"/>
<polygon fill="#63b8ff" stroke="#63b8ff" points="528.99,-176.48 539.58,-176.98 531.61,-169.99 528.99,-176.48"/>
</a>
</g>
</g>
<!-- Node7&#45;&gt;Node3 -->
<g id="edge10_Node000007_Node000003" class="edge">
<title>Node7&#45;&gt;Node3</title>
<g id="a_edge10_Node000007_Node000003"><a xlink:title=" ">
<path fill="none" stroke="#63b8ff" d="M447.31,-102.74C457.89,-105.05 468.35,-107.81 478.25,-111.12 495.61,-116.93 496.82,-125.53 514.25,-131.12 585.51,-154.02 669.34,-163.47 734.69,-167.22"/>
<polygon fill="#63b8ff" stroke="#63b8ff" points="734.15,-170.7 744.33,-167.73 734.53,-163.71 734.15,-170.7"/>
</a>
</g>
</g>
<!-- Node8 -->
<g id="Node000008" class="node">
<title>Node8</title>
<g id="a_Node000008"><a xlink:href="classkicker__drive__train.html#ac9c1b7680ef0506c28d674f26bda4ee7" target="_top" xlink:title="run the calibration sequence with periodic messages over can bus to prevent the odrives from entering...">
<polygon fill="white" stroke="#666666" points="698.25,-122.25 526.25,-122.25 526.25,-100 698.25,-100 698.25,-122.25"/>
<text text-anchor="middle" x="612.25" y="-106.85" font-family="Arial" font-size="12.00">kicker_drive_train::calibrating</text>
</a>
</g>
</g>
<!-- Node7&#45;&gt;Node8 -->
<g id="edge8_Node000007_Node000008" class="edge">
<title>Node7&#45;&gt;Node8</title>
<g id="a_edge8_Node000007_Node000008"><a xlink:title=" ">
<path fill="none" stroke="#63b8ff" d="M450.01,-99.46C471.51,-101.02 493.78,-102.63 514.65,-104.14"/>
<polygon fill="#63b8ff" stroke="#63b8ff" points="514.35,-107.63 524.58,-104.86 514.86,-100.64 514.35,-107.63"/>
</a>
</g>
</g>
<!-- Node9 -->
<g id="Node000009" class="node">
<title>Node9</title>
<g id="a_Node000009"><a xlink:href="classkicker__drive__train.html#ad5670ad9be6bd4d7055b8dfbfafe75db" target="_top" xlink:title="clear the errors on the odrives">
<polygon fill="white" stroke="#666666" points="702.38,-82.25 522.12,-82.25 522.12,-60 702.38,-60 702.38,-82.25"/>
<text text-anchor="middle" x="612.25" y="-66.85" font-family="Arial" font-size="12.00">kicker_drive_train::clear_errors</text>
</a>
</g>
</g>
<!-- Node7&#45;&gt;Node9 -->
<g id="edge9_Node000007_Node000009" class="edge">
<title>Node7&#45;&gt;Node9</title>
<g id="a_edge9_Node000007_Node000009"><a xlink:title=" ">
<path fill="none" stroke="#63b8ff" d="M450.01,-82.79C470.08,-81.34 490.81,-79.84 510.45,-78.42"/>
<polygon fill="#63b8ff" stroke="#63b8ff" points="510.64,-81.91 520.36,-77.7 510.14,-74.93 510.64,-81.91"/>
</a>
</g>
</g>
<!-- Node10 -->
<g id="Node000010" class="node">
<title>Node10</title>
<g id="a_Node000010"><a xlink:href="classkicker__drive__train.html#aa08dd2966d8975334cf46f3e939f1751" target="_top" xlink:title="set the motors to their active state">
<polygon fill="white" stroke="#666666" points="710.25,-42.25 514.25,-42.25 514.25,-20 710.25,-20 710.25,-42.25"/>
<text text-anchor="middle" x="612.25" y="-26.85" font-family="Arial" font-size="12.00">kicker_drive_train::enable_motors</text>
</a>
</g>
</g>
<!-- Node7&#45;&gt;Node10 -->
<g id="edge11_Node000007_Node000010" class="edge">
<title>Node7&#45;&gt;Node10</title>
<g id="a_edge11_Node000007_Node000010"><a xlink:title=" ">
<path fill="none" stroke="#63b8ff" d="M447.31,-79.51C457.89,-77.2 468.35,-74.44 478.25,-71.12 495.61,-65.32 497.09,-57.49 514.25,-51.12 519.6,-49.14 525.2,-47.33 530.89,-45.69"/>
<polygon fill="#63b8ff" stroke="#63b8ff" points="531.68,-49.1 540.44,-43.13 529.87,-42.34 531.68,-49.1"/>
</a>
</g>
</g>
</g>
</svg>

<g id="navigator" transform="translate(0 0)" fill="#404254">
  <rect fill="#f2f5e9" fill-opacity="0.5" stroke="#606060" stroke-width=".5" x="0" y="0" width="60" height="60"/>
  <use id="zoomplus" xlink:href="#zoomPlus" x="17" y="9" onmousedown="handleZoom(evt,'in')"/>
  <use id="zoomminus" xlink:href="#zoomMin" x="42" y="9" onmousedown="handleZoom(evt,'out')"/>
  <use id="reset" xlink:href="#resetDef" x="30" y="36" onmousedown="handleReset()"/>
   <use id="arrowup" xlink:href="#arrowUp" x="0" y="0" onmousedown="handlePan(0,-1)"/>
  <use id="arrowright" xlink:href="#arrowRight" x="0" y="0" onmousedown="handlePan(1,0)"/>
  <use id="arrowdown" xlink:href="#arrowDown" x="0" y="0" onmousedown="handlePan(0,1)"/>
  <use id="arrowleft" xlink:href="#arrowLeft" x="0" y="0" onmousedown="handlePan(-1,0)"/>
</g>
<svg viewBox="0 0 15 15" width="100%" height="30px" preserveAspectRatio="xMaxYMin meet">
 <g id="arrow_out" transform="scale(0.3 0.3)">
  <a xlink:href="classkicker__drive__train_af6663d5dc9de9ac8ca7f32f817cb8bd6_cgraph_org.svg" target="_base">
   <rect id="button" ry="5" rx="5" y="6" x="6" height="38" width="38"
        fill="#f2f5e9" fill-opacity="0.5" stroke="#606060" stroke-width="1.0"/>
   <path id="arrow"
     d="M 11.500037,31.436501 C 11.940474,20.09759 22.043105,11.32322 32.158766,21.979434 L 37.068811,17.246167 C 37.068811,17.246167 37.088388,32 37.088388,32 L 22.160133,31.978069 C 22.160133,31.978069 26.997745,27.140456 26.997745,27.140456 C 18.528582,18.264221 13.291696,25.230495 11.500037,31.436501 z"
     style="fill:#404040;"/>
  </a>
 </g>
</svg>

<style type='text/css'>
<![CDATA[
[data-mouse-over-selected='false'] { opacity: 0.7; }
[data-mouse-over-selected='true']  { opacity: 1.0; }
]]>
</style>
<script type="application/ecmascript"><![CDATA[
document.addEventListener('DOMContentLoaded', (event) => {
  highlightEdges();
  highlightAdjacentNodes();
});
]]></script>
</svg>
