<?xml version="1.0" encoding="UTF-8" standalone="no"?>
<!DOCTYPE svg PUBLIC "-//W3C//DTD SVG 1.1//EN"
 "http://www.w3.org/Graphics/SVG/1.1/DTD/svg11.dtd">
<!-- Generated by graphviz version 12.2.1 (20241206.2353)
 -->
<!-- Title: menu::draw_to_display Pages: 1 -->
<svg width="429pt" height="70pt"
 viewBox="0.00 0.00 428.75 70.25" xmlns="http://www.w3.org/2000/svg" xmlns:xlink="http://www.w3.org/1999/xlink">
<g id="graph0" class="graph" transform="scale(1 1) rotate(0) translate(4 66.25)">
<title>menu::draw_to_display</title>
<!-- Node1 -->
<g id="Node000001" class="node">
<title>Node1</title>
<g id="a_Node000001"><a xlink:title="This function draws the menu to the display.">
<polygon fill="#999999" stroke="#666666" points="420.75,-42.25 281,-42.25 281,-20 420.75,-20 420.75,-42.25"/>
<text text-anchor="middle" x="350.88" y="-26.85" font-family="Arial" font-size="12.00">menu::draw_to_display</text>
</a>
</g>
</g>
<!-- Node2 -->
<g id="Node000002" class="node">
<title>Node2</title>
<g id="a_Node000002"><a xlink:href="display__driver__task_8cpp.html#ad4b666a6c9c2ec527932313b8dee6e6a" target="_top" xlink:title="The display driver task.">
<polygon fill="white" stroke="#666666" points="234.88,-62.25 115.38,-62.25 115.38,-40 234.88,-40 234.88,-62.25"/>
<text text-anchor="middle" x="175.12" y="-46.85" font-family="Arial" font-size="12.00">display_driver_task</text>
</a>
</g>
</g>
<!-- Node1&#45;&gt;Node2 -->
<g id="edge1_Node000001_Node000002" class="edge">
<title>Node1&#45;&gt;Node2</title>
<g id="a_edge1_Node000001_Node000002"><a xlink:title=" ">
<path fill="none" stroke="#63b8ff" d="M269.31,-40.4C257.84,-41.72 246.22,-43.06 235.25,-44.32"/>
<polygon fill="#63b8ff" stroke="#63b8ff" points="269.67,-43.88 279.2,-39.26 268.87,-36.93 269.67,-43.88"/>
</a>
</g>
</g>
<!-- Node4 -->
<g id="Node000004" class="node">
<title>Node4</title>
<g id="a_Node000004"><a xlink:href="classmenu.html#a581ddb789b3d1840c715107a764b3c75" target="_top" xlink:title=" ">
<polygon fill="white" stroke="#666666" points="245,-22.25 105.25,-22.25 105.25,0 245,0 245,-22.25"/>
<text text-anchor="middle" x="175.12" y="-6.85" font-family="Arial" font-size="12.00">menu::draw_to_display</text>
</a>
</g>
</g>
<!-- Node1&#45;&gt;Node4 -->
<g id="edge3_Node000001_Node000004" class="edge">
<title>Node1&#45;&gt;Node4</title>
<g id="a_edge3_Node000001_Node000004"><a xlink:title=" ">
<path fill="none" stroke="#63b8ff" d="M269.41,-21.86C261.37,-20.94 253.25,-20 245.34,-19.09"/>
<polygon fill="#63b8ff" stroke="#63b8ff" points="268.87,-25.32 279.2,-22.99 269.67,-18.37 268.87,-25.32"/>
</a>
</g>
</g>
<!-- Node3 -->
<g id="Node000003" class="node">
<title>Node3</title>
<g id="a_Node000003"><a xlink:href="main_8cpp.html#a630544a7f0a2cc40d8a7fefab7e2fe70" target="_top" xlink:title="the main function for the program, creates all semaphores, tasks, and runs setup functions">
<polygon fill="white" stroke="#666666" points="69.25,-62.25 0,-62.25 0,-40 69.25,-40 69.25,-62.25"/>
<text text-anchor="middle" x="34.62" y="-46.85" font-family="Arial" font-size="12.00">app_main</text>
</a>
</g>
</g>
<!-- Node2&#45;&gt;Node3 -->
<g id="edge2_Node000002_Node000003" class="edge">
<title>Node2&#45;&gt;Node3</title>
<g id="a_edge2_Node000002_Node000003"><a xlink:title=" ">
<path fill="none" stroke="#63b8ff" d="M103.59,-51.12C91.66,-51.12 79.79,-51.12 69.38,-51.12"/>
<polygon fill="#63b8ff" stroke="#63b8ff" points="103.47,-54.63 113.47,-51.13 103.47,-47.63 103.47,-54.63"/>
</a>
</g>
</g>
</g>
</svg>
