<?xml version="1.0" encoding="UTF-8" standalone="no"?>
<!DOCTYPE svg PUBLIC "-//W3C//DTD SVG 1.1//EN"
 "http://www.w3.org/Graphics/SVG/1.1/DTD/svg11.dtd">
<!-- Generated by graphviz version 12.2.1 (20241206.2353)
 -->
<!-- Title: ssd1306::send_command_SSD1306 Pages: 1 -->
<svg width="707pt" height="110pt"
 viewBox="0.00 0.00 706.50 110.25" xmlns="http://www.w3.org/2000/svg" xmlns:xlink="http://www.w3.org/1999/xlink">
<g id="graph0" class="graph" transform="scale(1 1) rotate(0) translate(4 106.25)">
<title>ssd1306::send_command_SSD1306</title>
<!-- Node1 -->
<g id="Node000001" class="node">
<title>Node1</title>
<g id="a_Node000001"><a xlink:title="Sends a command to the SSD1306.">
<polygon fill="#999999" stroke="#666666" points="698.5,-62.25 486,-62.25 486,-40 698.5,-40 698.5,-62.25"/>
<text text-anchor="middle" x="592.25" y="-46.85" font-family="Arial" font-size="12.00">ssd1306::send_command_SSD1306</text>
</a>
</g>
</g>
<!-- Node2 -->
<g id="Node000002" class="node">
<title>Node2</title>
<g id="a_Node000002"><a xlink:href="classssd1306.html#a1aae212504a93232231113bfe2e864a5" target="_top" xlink:title=" ">
<polygon fill="white" stroke="#666666" points="432,-102.25 278.75,-102.25 278.75,-80 432,-80 432,-102.25"/>
<text text-anchor="middle" x="355.38" y="-86.85" font-family="Arial" font-size="12.00">ssd1306::clear_SSD1306</text>
</a>
</g>
</g>
<!-- Node1&#45;&gt;Node2 -->
<g id="edge1_Node000001_Node000002" class="edge">
<title>Node1&#45;&gt;Node2</title>
<g id="a_edge1_Node000001_Node000002"><a xlink:title=" ">
<path fill="none" stroke="#63b8ff" d="M511.88,-64.64C483.48,-69.48 451.75,-74.88 424.39,-79.54"/>
<polygon fill="#63b8ff" stroke="#63b8ff" points="512.24,-68.13 521.51,-63 511.06,-61.23 512.24,-68.13"/>
</a>
</g>
</g>
<!-- Node4 -->
<g id="Node000004" class="node">
<title>Node4</title>
<g id="a_Node000004"><a xlink:href="classssd1306.html#a5196c8d2e984359da2cc876c8d5f58db" target="_top" xlink:title="Initializes the SSD1306.">
<polygon fill="white" stroke="#666666" points="426.75,-62.25 284,-62.25 284,-40 426.75,-40 426.75,-62.25"/>
<text text-anchor="middle" x="355.38" y="-46.85" font-family="Arial" font-size="12.00">ssd1306::init_SSD1306</text>
</a>
</g>
</g>
<!-- Node1&#45;&gt;Node4 -->
<g id="edge3_Node000001_Node000004" class="edge">
<title>Node1&#45;&gt;Node4</title>
<g id="a_edge3_Node000001_Node000004"><a xlink:title=" ">
<path fill="none" stroke="#63b8ff" d="M474.62,-51.12C458.39,-51.12 442.15,-51.12 427.12,-51.12"/>
<polygon fill="#63b8ff" stroke="#63b8ff" points="474.32,-54.63 484.32,-51.13 474.32,-47.63 474.32,-54.63"/>
</a>
</g>
</g>
<!-- Node5 -->
<g id="Node000005" class="node">
<title>Node5</title>
<g id="a_Node000005"><a xlink:href="classssd1306.html#a8534651a9db59a3d8c5162b91457e322" target="_top" xlink:title="Writes the buffer to the display.">
<polygon fill="white" stroke="#666666" points="450,-22.25 260.75,-22.25 260.75,0 450,0 450,-22.25"/>
<text text-anchor="middle" x="355.38" y="-6.85" font-family="Arial" font-size="12.00">ssd1306::write_buffer_SSD1306</text>
</a>
</g>
</g>
<!-- Node1&#45;&gt;Node5 -->
<g id="edge5_Node000001_Node000005" class="edge">
<title>Node1&#45;&gt;Node5</title>
<g id="a_edge5_Node000001_Node000005"><a xlink:title=" ">
<path fill="none" stroke="#63b8ff" d="M511.88,-37.61C483.48,-32.77 451.75,-27.37 424.39,-22.71"/>
<polygon fill="#63b8ff" stroke="#63b8ff" points="511.06,-41.02 521.51,-39.25 512.24,-34.12 511.06,-41.02"/>
</a>
</g>
</g>
<!-- Node3 -->
<g id="Node000003" class="node">
<title>Node3</title>
<g id="a_Node000003"><a xlink:href="classssd1306.html#a2518946b016e3c7f651eacaa1416864f" target="_top" xlink:title="Constructor for the SSD1306 class.">
<polygon fill="white" stroke="#666666" points="221.75,-82.25 108.25,-82.25 108.25,-60 221.75,-60 221.75,-82.25"/>
<text text-anchor="middle" x="165" y="-66.85" font-family="Arial" font-size="12.00">ssd1306::ssd1306</text>
</a>
</g>
</g>
<!-- Node2&#45;&gt;Node3 -->
<g id="edge2_Node000002_Node000003" class="edge">
<title>Node2&#45;&gt;Node3</title>
<g id="a_edge2_Node000002_Node000003"><a xlink:title=" ">
<path fill="none" stroke="#63b8ff" d="M267.2,-81.87C251.86,-80.24 236.28,-78.59 222.08,-77.08"/>
<polygon fill="#63b8ff" stroke="#63b8ff" points="266.48,-85.31 276.79,-82.89 267.22,-78.35 266.48,-85.31"/>
</a>
</g>
</g>
<!-- Node4&#45;&gt;Node3 -->
<g id="edge4_Node000004_Node000003" class="edge">
<title>Node4&#45;&gt;Node3</title>
<g id="a_edge4_Node000004_Node000003"><a xlink:title=" ">
<path fill="none" stroke="#63b8ff" d="M272.59,-59.81C255.54,-61.62 237.94,-63.49 222.07,-65.17"/>
<polygon fill="#63b8ff" stroke="#63b8ff" points="272.62,-63.33 282.19,-58.79 271.88,-56.36 272.62,-63.33"/>
</a>
</g>
</g>
<!-- Node6 -->
<g id="Node000006" class="node">
<title>Node6</title>
<g id="a_Node000006"><a xlink:href="display__driver__task_8cpp.html#ad4b666a6c9c2ec527932313b8dee6e6a" target="_top" xlink:title="The display driver task.">
<polygon fill="white" stroke="#666666" points="224.75,-22.25 105.25,-22.25 105.25,0 224.75,0 224.75,-22.25"/>
<text text-anchor="middle" x="165" y="-6.85" font-family="Arial" font-size="12.00">display_driver_task</text>
</a>
</g>
</g>
<!-- Node5&#45;&gt;Node6 -->
<g id="edge6_Node000005_Node000006" class="edge">
<title>Node5&#45;&gt;Node6</title>
<g id="a_edge6_Node000005_Node000006"><a xlink:title=" ">
<path fill="none" stroke="#63b8ff" d="M249.17,-11.12C240.92,-11.12 232.78,-11.12 225.02,-11.12"/>
<polygon fill="#63b8ff" stroke="#63b8ff" points="248.95,-14.63 258.95,-11.13 248.95,-7.63 248.95,-14.63"/>
</a>
</g>
</g>
<!-- Node7 -->
<g id="Node000007" class="node">
<title>Node7</title>
<g id="a_Node000007"><a xlink:href="main_8cpp.html#a630544a7f0a2cc40d8a7fefab7e2fe70" target="_top" xlink:title="the main function for the program, creates all semaphores, tasks, and runs setup functions">
<polygon fill="white" stroke="#666666" points="69.25,-22.25 0,-22.25 0,0 69.25,0 69.25,-22.25"/>
<text text-anchor="middle" x="34.62" y="-6.85" font-family="Arial" font-size="12.00">app_main</text>
</a>
</g>
</g>
<!-- Node6&#45;&gt;Node7 -->
<g id="edge7_Node000006_Node000007" class="edge">
<title>Node6&#45;&gt;Node7</title>
<g id="a_edge7_Node000006_Node000007"><a xlink:title=" ">
<path fill="none" stroke="#63b8ff" d="M93.68,-11.12C85.35,-11.12 77.16,-11.12 69.68,-11.12"/>
<polygon fill="#63b8ff" stroke="#63b8ff" points="93.56,-14.63 103.56,-11.13 93.56,-7.63 93.56,-14.63"/>
</a>
</g>
</g>
</g>
</svg>
