<?xml version="1.0" encoding="UTF-8" standalone="no"?>
<!DOCTYPE svg PUBLIC "-//W3C//DTD SVG 1.1//EN"
 "http://www.w3.org/Graphics/SVG/1.1/DTD/svg11.dtd">
<!-- Generated by graphviz version 12.2.1 (20241206.2353)
 -->
<!-- Title: oDrive::send_message Pages: 1 -->
<svg width="592pt" height="110pt"
 viewBox="0.00 0.00 592.25 110.25" xmlns="http://www.w3.org/2000/svg" xmlns:xlink="http://www.w3.org/1999/xlink">
<g id="graph0" class="graph" transform="scale(1 1) rotate(0) translate(4 106.25)">
<title>oDrive::send_message</title>
<!-- Node1 -->
<g id="Node000001" class="node">
<title>Node1</title>
<g id="a_Node000001"><a xlink:title="send a command to the Odrive">
<polygon fill="#999999" stroke="#666666" points="139,-81.25 0,-81.25 0,-59 139,-59 139,-81.25"/>
<text text-anchor="middle" x="69.5" y="-65.85" font-family="Arial" font-size="12.00">oDrive::send_message</text>
</a>
</g>
</g>
<!-- Node2 -->
<g id="Node000002" class="node">
<title>Node2</title>
<g id="a_Node000002"><a xlink:href="classo_drive.html#a55578b8304755ca7927f330b18958dca" target="_top" xlink:title="the function that is called when something has gone wrong, and no message is received when Get_Bus_Vo...">
<polygon fill="white" stroke="#666666" points="559.5,-102.25 387.5,-102.25 387.5,-80 559.5,-80 559.5,-102.25"/>
<text text-anchor="middle" x="473.5" y="-86.85" font-family="Arial" font-size="12.00">oDrive::clear_battery_voltage</text>
</a>
</g>
</g>
<!-- Node1&#45;&gt;Node2 -->
<g id="edge1_Node000001_Node000002" class="edge">
<title>Node1&#45;&gt;Node2</title>
<g id="a_edge1_Node000001_Node000002"><a xlink:title=" ">
<path fill="none" stroke="#63b8ff" d="M139.15,-73.71C204.42,-77.12 303.21,-82.28 376.31,-86.1"/>
<polygon fill="#63b8ff" stroke="#63b8ff" points="375.68,-89.57 385.85,-86.6 376.04,-82.58 375.68,-89.57"/>
</a>
</g>
</g>
<!-- Node3 -->
<g id="Node000003" class="node">
<title>Node3</title>
<g id="a_Node000003"><a xlink:href="classo_drive.html#aa484e8a0703f3459aa6cb8b9415ea80c" target="_top" xlink:title="the function that handles when a message needs to be received from the Odrive">
<polygon fill="white" stroke="#666666" points="326.75,-62.25 175,-62.25 175,-40 326.75,-40 326.75,-62.25"/>
<text text-anchor="middle" x="250.88" y="-46.85" font-family="Arial" font-size="12.00">oDrive::receive_message</text>
</a>
</g>
</g>
<!-- Node1&#45;&gt;Node3 -->
<g id="edge2_Node000001_Node000003" class="edge">
<title>Node1&#45;&gt;Node3</title>
<g id="a_edge2_Node000001_Node000003"><a xlink:title=" ">
<path fill="none" stroke="#63b8ff" d="M139.34,-62.83C147.19,-62 155.28,-61.15 163.33,-60.29"/>
<polygon fill="#63b8ff" stroke="#63b8ff" points="163.58,-63.79 173.15,-59.25 162.84,-56.82 163.58,-63.79"/>
</a>
</g>
</g>
<!-- Node3&#45;&gt;Node2 -->
<g id="edge3_Node000003_Node000002" class="edge">
<title>Node3&#45;&gt;Node2</title>
<g id="a_edge3_Node000003_Node000002"><a xlink:title=" ">
<path fill="none" stroke="#63b8ff" d="M315.99,-62.75C341.48,-67.37 370.99,-72.72 397.47,-77.52"/>
<polygon fill="#63b8ff" stroke="#63b8ff" points="396.66,-80.93 407.12,-79.27 397.91,-74.04 396.66,-80.93"/>
</a>
</g>
</g>
<!-- Node4 -->
<g id="Node000004" class="node">
<title>Node4</title>
<g id="a_Node000004"><a xlink:href="classo_drive.html#a61ff4f913fe19d2a83d78db6b11ab5f4" target="_top" xlink:title="the function that is called to update the display&#39;s battery voltage">
<polygon fill="white" stroke="#666666" points="564.75,-62.25 382.25,-62.25 382.25,-40 564.75,-40 564.75,-62.25"/>
<text text-anchor="middle" x="473.5" y="-46.85" font-family="Arial" font-size="12.00">oDrive::update_battery_voltage</text>
</a>
</g>
</g>
<!-- Node3&#45;&gt;Node4 -->
<g id="edge4_Node000003_Node000004" class="edge">
<title>Node3&#45;&gt;Node4</title>
<g id="a_edge4_Node000003_Node000004"><a xlink:title=" ">
<path fill="none" stroke="#63b8ff" d="M327.18,-51.12C341.21,-51.12 356.08,-51.12 370.74,-51.12"/>
<polygon fill="#63b8ff" stroke="#63b8ff" points="370.39,-54.63 380.39,-51.13 370.39,-47.63 370.39,-54.63"/>
</a>
</g>
</g>
<!-- Node5 -->
<g id="Node000005" class="node">
<title>Node5</title>
<g id="a_Node000005"><a xlink:href="classo_drive.html#af01746212d3a6f79099c715d5b5ae33f" target="_top" xlink:title="Read the motor velocity from an odrive.">
<polygon fill="white" stroke="#666666" points="584.25,-22.25 362.75,-22.25 362.75,0 584.25,0 584.25,-22.25"/>
<text text-anchor="middle" x="473.5" y="-6.85" font-family="Arial" font-size="12.00">oDrive::update_current_motor_velocity</text>
</a>
</g>
</g>
<!-- Node3&#45;&gt;Node5 -->
<g id="edge5_Node000003_Node000005" class="edge">
<title>Node3&#45;&gt;Node5</title>
<g id="a_edge5_Node000003_Node000005"><a xlink:title=" ">
<path fill="none" stroke="#63b8ff" d="M315.99,-39.5C341.48,-34.88 370.99,-29.53 397.47,-24.73"/>
<polygon fill="#63b8ff" stroke="#63b8ff" points="397.91,-28.21 407.12,-22.98 396.66,-21.32 397.91,-28.21"/>
</a>
</g>
</g>
</g>
</svg>
