<?xml version="1.0" encoding="UTF-8" standalone="no"?>
<!DOCTYPE svg PUBLIC "-//W3C//DTD SVG 1.1//EN"
 "http://www.w3.org/Graphics/SVG/1.1/DTD/svg11.dtd">
<!-- Generated by graphviz version 12.2.1 (20241206.2353)
 -->
<!-- Title: kicker_drive_train Pages: 1 -->
<!--zoomable 701 -->

<svg id="main" version="1.1" xmlns="http://www.w3.org/2000/svg" xmlns:xlink="http://www.w3.org/1999/xlink" xml:space="preserve" onload="init(evt)">

<style type="text/css"><![CDATA[
.node, .edge {opacity: 0.7;}
.node.selected, .edge.selected {opacity: 1;}
.edge:hover path { stroke: red; }
.edge:hover polygon { stroke: red; fill: red; }
]]></style>

<defs>
  <circle id="rim" cx="0" cy="0" r="7"/>
  <circle id="rim2" cx="0" cy="0" r="3.5"/>
  <g id="zoomPlus">
    <use xlink:href="#rim" fill="#404040"><set attributeName="fill" to="#808080" begin="zoomplus.mouseover" end="zoomplus.mouseout"/></use>
    <path d="M-4,0h8M0,-4v8" fill="none" stroke="white" stroke-width="1.5" pointer-events="none"/>
  </g>
  <g id="zoomMin">
    <use xlink:href="#rim" fill="#404040"><set attributeName="fill" to="#808080" begin="zoomminus.mouseover" end="zoomminus.mouseout"/></use>
    <path d="M-4,0h8" fill="none" stroke="white" stroke-width="1.5" pointer-events="none"/>
  </g>
  <g id="arrowUp" transform="translate(30 24)">
    <use xlink:href="#rim"/>
    <path pointer-events="none" fill="none" stroke="white" stroke-width="1.5" d="M0,-3.0v7 M-2.5,-0.5L0,-3.0L2.5,-0.5"/>
  </g>
  <g id="arrowRight" transform="rotate(90) translate(36 -43)">
    <use xlink:href="#rim"/>
    <path pointer-events="none" fill="none" stroke="white" stroke-width="1.5" d="M0,-3.0v7 M-2.5,-0.5L0,-3.0L2.5,-0.5"/>
  </g>
  <g id="arrowDown" transform="rotate(180) translate(-30 -48)">
    <use xlink:href="#rim"/>
    <path pointer-events="none" fill="none" stroke="white" stroke-width="1.5" d="M0,-3.0v7 M-2.5,-0.5L0,-3.0L2.5,-0.5"/>
  </g>
  <g id="arrowLeft" transform="rotate(270) translate(-36 17)">
    <use xlink:href="#rim"/>
    <path pointer-events="none" fill="none" stroke="white" stroke-width="1.5" d="M0,-3.0v7 M-2.5,-0.5L0,-3.0L2.5,-0.5"/>
  </g>
  <g id="resetDef">
    <use xlink:href="#rim2" fill="#404040"><set attributeName="fill" to="#808080" begin="reset.mouseover" end="reset.mouseout"/></use>
  </g>
</defs>
<script type="application/ecmascript">
var viewWidth = 733;
var viewHeight = 701;
var sectionId = 'dynsection-0';
</script>
<script type="application/ecmascript" xlink:href="svg.min.js"/>
<svg id="graph" class="graph">
<g id="viewport">
<title>kicker_drive_train</title>
<!-- Node1 -->
<g id="Node000001" class="node">
<title>Node1</title>
<g id="a_Node000001"><a xlink:title="This class is for controlling the kicker drive train (2 odrives)">
<polygon fill="#999999" stroke="none" points="609.38,-478.5 115.13,-478.5 115.13,0 609.38,0 609.38,-478.5"/>
<text text-anchor="start" x="315" y="-463.1" font-family="Arial" font-size="12.00">kicker_drive_train</text>
<text text-anchor="start" x="120.62" y="-444.85" font-family="Arial" font-size="12.00">&#45;</text>
<text text-anchor="start" x="129.88" y="-444.85" font-family="Arial" font-size="12.00">int64_t last_time</text>
<text text-anchor="start" x="120.62" y="-426.6" font-family="Arial" font-size="12.00">&#45;</text>
<text text-anchor="start" x="129.88" y="-426.6" font-family="Arial" font-size="12.00">int32_t battery_update_time</text>
<text text-anchor="start" x="120.62" y="-408.35" font-family="Arial" font-size="12.00">&#45;</text>
<text text-anchor="start" x="129.88" y="-408.35" font-family="Arial" font-size="12.00">uint8_t last_motor_state</text>
<text text-anchor="start" x="120.62" y="-390.1" font-family="Arial" font-size="12.00">&#45;</text>
<text text-anchor="start" x="129.88" y="-390.1" font-family="Arial" font-size="12.00">uint8_t last_driving_speed</text>
<text text-anchor="start" x="120.62" y="-371.85" font-family="Arial" font-size="12.00">&#45;</text>
<text text-anchor="start" x="129.88" y="-371.85" font-family="Arial" font-size="12.00">uint8_t last_turning_speed</text>
<text text-anchor="start" x="120.62" y="-353.6" font-family="Arial" font-size="12.00">&#45;</text>
<text text-anchor="start" x="129.88" y="-353.6" font-family="Arial" font-size="12.00">uint8_t last_driving_speed_mult</text>
<text text-anchor="start" x="120.62" y="-335.35" font-family="Arial" font-size="12.00">&#45;</text>
<text text-anchor="start" x="129.88" y="-335.35" font-family="Arial" font-size="12.00">uint8_t last_turning_speed_mult</text>
<text text-anchor="start" x="120.62" y="-317.1" font-family="Arial" font-size="12.00">&#45;</text>
<text text-anchor="start" x="129.88" y="-317.1" font-family="Arial" font-size="12.00">uint8_t CLOSED_LOOP_CONTROL</text>
<text text-anchor="start" x="120.62" y="-298.85" font-family="Arial" font-size="12.00">&#45;</text>
<text text-anchor="start" x="129.88" y="-298.85" font-family="Arial" font-size="12.00">uint8_t NO_DATA</text>
<text text-anchor="start" x="120.62" y="-280.6" font-family="Arial" font-size="12.00">&#45;</text>
<text text-anchor="start" x="129.88" y="-280.6" font-family="Arial" font-size="12.00">uint8_t IDLE_STATE</text>
<text text-anchor="start" x="120.62" y="-262.35" font-family="Arial" font-size="12.00">&#45;</text>
<text text-anchor="start" x="129.88" y="-262.35" font-family="Arial" font-size="12.00">uint8_t FULL_CALIBRATION_SEQUENCE</text>
<text text-anchor="start" x="119.12" y="-244.1" font-family="Arial" font-size="12.00">+</text>
<text text-anchor="start" x="129.88" y="-244.1" font-family="Arial" font-size="12.00">kicker_drive_train(oDrive *left_drive, oDrive *right_drive, uint32_t battery_voltage_refresh)</text>
<text text-anchor="start" x="119.12" y="-225.85" font-family="Arial" font-size="12.00">+</text>
<text text-anchor="start" x="129.88" y="-225.85" font-family="Arial" font-size="12.00">void update()</text>
<text text-anchor="start" x="120.62" y="-207.6" font-family="Arial" font-size="12.00">&#45;</text>
<text text-anchor="start" x="129.88" y="-207.6" font-family="Arial" font-size="12.00">void periodic_voltage_reading()</text>
<text text-anchor="start" x="120.62" y="-189.35" font-family="Arial" font-size="12.00">&#45;</text>
<text text-anchor="start" x="129.88" y="-189.35" font-family="Arial" font-size="12.00">void ramped_settings_updater()</text>
<text text-anchor="start" x="120.62" y="-171.1" font-family="Arial" font-size="12.00">&#45;</text>
<text text-anchor="start" x="129.88" y="-171.1" font-family="Arial" font-size="12.00">void drive_motors(bool boosted)</text>
<text text-anchor="start" x="120.62" y="-152.85" font-family="Arial" font-size="12.00">&#45;</text>
<text text-anchor="start" x="129.88" y="-152.85" font-family="Arial" font-size="12.00">void calibrating()</text>
<text text-anchor="start" x="120.62" y="-134.6" font-family="Arial" font-size="12.00">&#45;</text>
<text text-anchor="start" x="129.88" y="-134.6" font-family="Arial" font-size="12.00">void clear_errors()</text>
<text text-anchor="start" x="120.62" y="-116.35" font-family="Arial" font-size="12.00">&#45;</text>
<text text-anchor="start" x="129.88" y="-116.35" font-family="Arial" font-size="12.00">void disable_motors()</text>
<text text-anchor="start" x="120.62" y="-98.1" font-family="Arial" font-size="12.00">&#45;</text>
<text text-anchor="start" x="129.88" y="-98.1" font-family="Arial" font-size="12.00">void enable_motors()</text>
<text text-anchor="start" x="120.62" y="-79.85" font-family="Arial" font-size="12.00">&#45;</text>
<text text-anchor="start" x="129.88" y="-79.85" font-family="Arial" font-size="12.00">void motor_status_updater()</text>
<text text-anchor="start" x="120.62" y="-61.6" font-family="Arial" font-size="12.00">&#45;</text>
<text text-anchor="start" x="129.88" y="-61.6" font-family="Arial" font-size="12.00">void motor_speed_multiplier_updater()</text>
<text text-anchor="start" x="120.62" y="-43.35" font-family="Arial" font-size="12.00">&#45;</text>
<text text-anchor="start" x="129.88" y="-43.35" font-family="Arial" font-size="12.00">void motor_speeds_updater()</text>
<text text-anchor="start" x="120.62" y="-25.1" font-family="Arial" font-size="12.00">&#45;</text>
<text text-anchor="start" x="129.88" y="-25.1" font-family="Arial" font-size="12.00">void estop()</text>
<text text-anchor="start" x="120.62" y="-6.85" font-family="Arial" font-size="12.00">&#45;</text>
<text text-anchor="start" x="129.88" y="-6.85" font-family="Arial" font-size="12.00">void break_motors()</text>
<polygon fill="#666666" stroke="#666666" points="115.12,-458.25 115.12,-458.25 609.38,-458.25 609.38,-458.25 115.12,-458.25"/>
<polygon fill="#666666" stroke="#666666" points="115.12,-257.5 115.12,-257.5 127.88,-257.5 127.88,-257.5 115.12,-257.5"/>
<polygon fill="#666666" stroke="#666666" points="127.88,-257.5 127.88,-257.5 609.38,-257.5 609.38,-257.5 127.88,-257.5"/>
<polygon fill="none" stroke="#666666" points="115.12,0 115.12,-478.5 609.38,-478.5 609.38,0 115.12,0"/>
</a>
</g>
</g>
<!-- Node2 -->
<g id="Node000002" class="node">
<title>Node2</title>
<g id="a_Node000002"><a xlink:href="classo_drive.html" target="_top" xlink:title="This is the class to control an odrive motor controller.">
<polygon fill="white" stroke="none" points="724.5,-693 0,-693 0,-543 724.5,-543 724.5,-693"/>
<text text-anchor="start" x="344.62" y="-677.6" font-family="Arial" font-size="12.00">oDrive</text>
<text text-anchor="start" x="5.5" y="-659.35" font-family="Arial" font-size="12.00">&#45;</text>
<text text-anchor="start" x="14.75" y="-659.35" font-family="Arial" font-size="12.00">uint8_t node_ID</text>
<text text-anchor="start" x="4" y="-641.1" font-family="Arial" font-size="12.00">+</text>
<text text-anchor="start" x="14.75" y="-641.1" font-family="Arial" font-size="12.00">oDrive(uint8_t node_IDV)</text>
<text text-anchor="start" x="4" y="-622.85" font-family="Arial" font-size="12.00">+</text>
<text text-anchor="start" x="14.75" y="-622.85" font-family="Arial" font-size="12.00">void send_message(const uint8_t message_ID, const uint8_t *message_contents, uint8_t message_length, const bool data_returned)</text>
<text text-anchor="start" x="5.5" y="-604.6" font-family="Arial" font-size="12.00">&#45;</text>
<text text-anchor="start" x="14.75" y="-604.6" font-family="Arial" font-size="12.00">void update_battery_voltage(twai_message_t rx_message)</text>
<text text-anchor="start" x="5.5" y="-586.35" font-family="Arial" font-size="12.00">&#45;</text>
<text text-anchor="start" x="14.75" y="-586.35" font-family="Arial" font-size="12.00">void receive_message(uint8_t message_ID)</text>
<text text-anchor="start" x="5.5" y="-568.1" font-family="Arial" font-size="12.00">&#45;</text>
<text text-anchor="start" x="14.75" y="-568.1" font-family="Arial" font-size="12.00">void clear_battery_voltage()</text>
<text text-anchor="start" x="5.5" y="-549.85" font-family="Arial" font-size="12.00">&#45;</text>
<text text-anchor="start" x="14.75" y="-549.85" font-family="Arial" font-size="12.00">void update_current_motor_velocity(twai_message_t rx_message)</text>
<polygon fill="#666666" stroke="#666666" points="0,-672.75 0,-672.75 724.5,-672.75 724.5,-672.75 0,-672.75"/>
<polygon fill="#666666" stroke="#666666" points="0,-654.5 0,-654.5 12.75,-654.5 12.75,-654.5 0,-654.5"/>
<polygon fill="#666666" stroke="#666666" points="12.75,-654.5 12.75,-654.5 724.5,-654.5 724.5,-654.5 12.75,-654.5"/>
<polygon fill="none" stroke="#666666" points="0,-543 0,-693 724.5,-693 724.5,-543 0,-543"/>
</a>
</g>
</g>
<!-- Node2&#45;&gt;Node1 -->
<g id="edge1_Node000001_Node000002" class="edge">
<title>Node2&#45;&gt;Node1</title>
<g id="a_edge1_Node000001_Node000002"><a xlink:title=" ">
<path fill="none" stroke="#63b8ff" d="M362.25,-543.02C362.25,-527.17 362.25,-509.59 362.25,-491.1"/>
<polygon fill="none" stroke="#63b8ff" points="362.25,-491.07 358.25,-485.07 362.25,-479.07 366.25,-485.07 362.25,-491.07"/>
</a>
</g>
<text text-anchor="middle" x="392.25" y="-513.6" font-family="Arial" font-size="12.00" fill="grey"> &#45;left_drive</text>
<text text-anchor="middle" x="392.25" y="-499.35" font-family="Arial" font-size="12.00" fill="grey">&#45;right_drive</text>
</g>
</g>
</svg>

<g id="navigator" transform="translate(0 0)" fill="#404254">
  <rect fill="#f2f5e9" fill-opacity="0.5" stroke="#606060" stroke-width=".5" x="0" y="0" width="60" height="60"/>
  <use id="zoomplus" xlink:href="#zoomPlus" x="17" y="9" onmousedown="handleZoom(evt,'in')"/>
  <use id="zoomminus" xlink:href="#zoomMin" x="42" y="9" onmousedown="handleZoom(evt,'out')"/>
  <use id="reset" xlink:href="#resetDef" x="30" y="36" onmousedown="handleReset()"/>
   <use id="arrowup" xlink:href="#arrowUp" x="0" y="0" onmousedown="handlePan(0,-1)"/>
  <use id="arrowright" xlink:href="#arrowRight" x="0" y="0" onmousedown="handlePan(1,0)"/>
  <use id="arrowdown" xlink:href="#arrowDown" x="0" y="0" onmousedown="handlePan(0,1)"/>
  <use id="arrowleft" xlink:href="#arrowLeft" x="0" y="0" onmousedown="handlePan(-1,0)"/>
</g>
<svg viewBox="0 0 15 15" width="100%" height="30px" preserveAspectRatio="xMaxYMin meet">
 <g id="arrow_out" transform="scale(0.3 0.3)">
  <a xlink:href="classkicker__drive__train__coll__graph_org.svg" target="_base">
   <rect id="button" ry="5" rx="5" y="6" x="6" height="38" width="38"
        fill="#f2f5e9" fill-opacity="0.5" stroke="#606060" stroke-width="1.0"/>
   <path id="arrow"
     d="M 11.500037,31.436501 C 11.940474,20.09759 22.043105,11.32322 32.158766,21.979434 L 37.068811,17.246167 C 37.068811,17.246167 37.088388,32 37.088388,32 L 22.160133,31.978069 C 22.160133,31.978069 26.997745,27.140456 26.997745,27.140456 C 18.528582,18.264221 13.291696,25.230495 11.500037,31.436501 z"
     style="fill:#404040;"/>
  </a>
 </g>
</svg>

<style type='text/css'>
<![CDATA[
[data-mouse-over-selected='false'] { opacity: 0.7; }
[data-mouse-over-selected='true']  { opacity: 1.0; }
]]>
</style>
<script type="application/ecmascript"><![CDATA[
document.addEventListener('DOMContentLoaded', (event) => {
  highlightEdges();
  highlightAdjacentNodes();
});
]]></script>
</svg>
