<?xml version="1.0" encoding="UTF-8" standalone="no"?>
<!DOCTYPE svg PUBLIC "-//W3C//DTD SVG 1.1//EN"
 "http://www.w3.org/Graphics/SVG/1.1/DTD/svg11.dtd">
<!-- Generated by graphviz version 12.2.1 (20241206.2353)
 -->
<!-- Title: oDrive::update_battery_voltage Pages: 1 -->
<svg width="553pt" height="30pt"
 viewBox="0.00 0.00 553.25 30.25" xmlns="http://www.w3.org/2000/svg" xmlns:xlink="http://www.w3.org/1999/xlink">
<g id="graph0" class="graph" transform="scale(1 1) rotate(0) translate(4 26.25)">
<title>oDrive::update_battery_voltage</title>
<!-- Node1 -->
<g id="Node000001" class="node">
<title>Node1</title>
<g id="a_Node000001"><a xlink:title="the function that is called to update the display&#39;s battery voltage">
<polygon fill="#999999" stroke="#666666" points="545.25,-22.25 362.75,-22.25 362.75,0 545.25,0 545.25,-22.25"/>
<text text-anchor="middle" x="454" y="-6.85" font-family="Arial" font-size="12.00">oDrive::update_battery_voltage</text>
</a>
</g>
</g>
<!-- Node2 -->
<g id="Node000002" class="node">
<title>Node2</title>
<g id="a_Node000002"><a xlink:href="classo_drive.html#aa484e8a0703f3459aa6cb8b9415ea80c" target="_top" xlink:title="the function that handles when a message needs to be received from the Odrive">
<polygon fill="white" stroke="#666666" points="326.75,-22.25 175,-22.25 175,0 326.75,0 326.75,-22.25"/>
<text text-anchor="middle" x="250.88" y="-6.85" font-family="Arial" font-size="12.00">oDrive::receive_message</text>
</a>
</g>
</g>
<!-- Node1&#45;&gt;Node2 -->
<g id="edge1_Node000001_Node000002" class="edge">
<title>Node1&#45;&gt;Node2</title>
<g id="a_edge1_Node000001_Node000002"><a xlink:title=" ">
<path fill="none" stroke="#63b8ff" d="M351.08,-11.12C343.04,-11.12 335.01,-11.12 327.19,-11.12"/>
<polygon fill="#63b8ff" stroke="#63b8ff" points="350.93,-14.63 360.93,-11.13 350.93,-7.63 350.93,-14.63"/>
</a>
</g>
</g>
<!-- Node3 -->
<g id="Node000003" class="node">
<title>Node3</title>
<g id="a_Node000003"><a xlink:href="classo_drive.html#a4853976dc551c59e848dd2a832158d4a" target="_top" xlink:title="send a command to the Odrive">
<polygon fill="white" stroke="#666666" points="139,-22.25 0,-22.25 0,0 139,0 139,-22.25"/>
<text text-anchor="middle" x="69.5" y="-6.85" font-family="Arial" font-size="12.00">oDrive::send_message</text>
</a>
</g>
</g>
<!-- Node2&#45;&gt;Node3 -->
<g id="edge2_Node000002_Node000003" class="edge">
<title>Node2&#45;&gt;Node3</title>
<g id="a_edge2_Node000002_Node000003"><a xlink:title=" ">
<path fill="none" stroke="#63b8ff" d="M163.27,-11.12C155.23,-11.12 147.16,-11.12 139.31,-11.12"/>
<polygon fill="#63b8ff" stroke="#63b8ff" points="163.07,-14.63 173.07,-11.13 163.07,-7.63 163.07,-14.63"/>
</a>
</g>
</g>
</g>
</svg>
