<?xml version="1.0" encoding="UTF-8" standalone="no"?>
<!DOCTYPE svg PUBLIC "-//W3C//DTD SVG 1.1//EN"
 "http://www.w3.org/Graphics/SVG/1.1/DTD/svg11.dtd">
<!-- Generated by graphviz version 12.2.1 (20241206.2353)
 -->
<!-- Title: menu::menu Pages: 1 -->
<svg width="315pt" height="110pt"
 viewBox="0.00 0.00 315.25 110.25" xmlns="http://www.w3.org/2000/svg" xmlns:xlink="http://www.w3.org/1999/xlink">

<svg id="main" version="1.1" xmlns="http://www.w3.org/2000/svg" xmlns:xlink="http://www.w3.org/1999/xlink" xml:space="preserve">

<style type="text/css"><![CDATA[
.node, .edge {opacity: 0.7;}
.node.selected, .edge.selected {opacity: 1;}
.edge:hover path { stroke: red; }
.edge:hover polygon { stroke: red; fill: red; }
]]></style>
<script type="application/ecmascript" xlink:href="svg.min.js"/>
<svg id="graph" class="graph">
<g id="graph0" class="graph" transform="scale(1 1) rotate(0) translate(4 106.25)">
<title>menu::menu</title>
<!-- Node1 -->
<g id="Node000001" class="node">
<title>Node1</title>
<g id="a_Node000001"><a xlink:title="This is the constructor for the menu class.">
<polygon fill="#999999" stroke="#666666" points="307.25,-62.25 225.25,-62.25 225.25,-40 307.25,-40 307.25,-62.25"/>
<text text-anchor="middle" x="266.25" y="-46.85" font-family="Arial" font-size="12.00">menu::menu</text>
</a>
</g>
</g>
<!-- Node2 -->
<g id="Node000002" class="node">
<title>Node2</title>
<g id="a_Node000002"><a xlink:href="classmenu.html#a7e091ecf3ad5a16b628d94deecf7f0e8" target="_top" xlink:title=" ">
<polygon fill="white" stroke="#666666" points="189.25,-102.25 0,-102.25 0,-80 189.25,-80 189.25,-102.25"/>
<text text-anchor="middle" x="94.62" y="-86.85" font-family="Arial" font-size="12.00">menu::decrease_selected_value</text>
</a>
</g>
</g>
<!-- Node1&#45;&gt;Node2 -->
<g id="edge1_Node000001_Node000002" class="edge">
<title>Node1&#45;&gt;Node2</title>
<g id="a_edge1_Node000001_Node000002"><a xlink:title=" ">
<path fill="none" stroke="#63b8ff" d="M214.03,-64.95C205.76,-67.09 197.28,-69.21 189.25,-71.12 177.12,-74.01 164.07,-76.93 151.67,-79.6"/>
<polygon fill="#63b8ff" stroke="#63b8ff" points="214.85,-68.36 223.64,-62.45 213.08,-61.58 214.85,-68.36"/>
</a>
</g>
</g>
<!-- Node3 -->
<g id="Node000003" class="node">
<title>Node3</title>
<g id="a_Node000003"><a xlink:href="classmenu.html#a581ddb789b3d1840c715107a764b3c75" target="_top" xlink:title=" ">
<polygon fill="white" stroke="#666666" points="164.5,-62.25 24.75,-62.25 24.75,-40 164.5,-40 164.5,-62.25"/>
<text text-anchor="middle" x="94.62" y="-46.85" font-family="Arial" font-size="12.00">menu::draw_to_display</text>
</a>
</g>
</g>
<!-- Node1&#45;&gt;Node3 -->
<g id="edge2_Node000001_Node000003" class="edge">
<title>Node1&#45;&gt;Node3</title>
<g id="a_edge2_Node000001_Node000003"><a xlink:title=" ">
<path fill="none" stroke="#63b8ff" d="M213.64,-51.12C198.23,-51.12 181.07,-51.12 164.73,-51.12"/>
<polygon fill="#63b8ff" stroke="#63b8ff" points="213.54,-54.63 223.54,-51.13 213.54,-47.63 213.54,-54.63"/>
</a>
</g>
</g>
<!-- Node4 -->
<g id="Node000004" class="node">
<title>Node4</title>
<g id="a_Node000004"><a xlink:href="classmenu.html#a3a5d9075755694b34ee8b3b59bf765a1" target="_top" xlink:title=" ">
<polygon fill="white" stroke="#666666" points="187.38,-22.25 1.88,-22.25 1.88,0 187.38,0 187.38,-22.25"/>
<text text-anchor="middle" x="94.62" y="-6.85" font-family="Arial" font-size="12.00">menu::increase_selected_value</text>
</a>
</g>
</g>
<!-- Node1&#45;&gt;Node4 -->
<g id="edge3_Node000001_Node000004" class="edge">
<title>Node1&#45;&gt;Node4</title>
<g id="a_edge3_Node000001_Node000004"><a xlink:title=" ">
<path fill="none" stroke="#63b8ff" d="M214.03,-37.3C205.76,-35.16 197.28,-33.04 189.25,-31.12 177.12,-28.24 164.07,-25.32 151.67,-22.65"/>
<polygon fill="#63b8ff" stroke="#63b8ff" points="213.08,-40.67 223.64,-39.8 214.85,-33.89 213.08,-40.67"/>
</a>
</g>
</g>
</g>
</svg>
</svg>

<style type='text/css'>
<![CDATA[
[data-mouse-over-selected='false'] { opacity: 0.7; }
[data-mouse-over-selected='true']  { opacity: 1.0; }
]]>
</style>
<script type="application/ecmascript"><![CDATA[
document.addEventListener('DOMContentLoaded', (event) => {
  highlightEdges();
  highlightAdjacentNodes();
});
]]></script>
</svg>
