<?xml version="1.0" encoding="UTF-8" standalone="no"?>
<!DOCTYPE svg PUBLIC "-//W3C//DTD SVG 1.1//EN"
 "http://www.w3.org/Graphics/SVG/1.1/DTD/svg11.dtd">
<!-- Generated by graphviz version 12.2.1 (20241206.2353)
 -->
<!-- Title: ssd1306::send_data_SSD1306 Pages: 1 -->
<svg width="677pt" height="70pt"
 viewBox="0.00 0.00 677.25 70.25" xmlns="http://www.w3.org/2000/svg" xmlns:xlink="http://www.w3.org/1999/xlink">
<g id="graph0" class="graph" transform="scale(1 1) rotate(0) translate(4 66.25)">
<title>ssd1306::send_data_SSD1306</title>
<!-- Node1 -->
<g id="Node000001" class="node">
<title>Node1</title>
<g id="a_Node000001"><a xlink:title="Sends data to the SSD1306.">
<polygon fill="#999999" stroke="#666666" points="669.25,-42.25 486,-42.25 486,-20 669.25,-20 669.25,-42.25"/>
<text text-anchor="middle" x="577.62" y="-26.85" font-family="Arial" font-size="12.00">ssd1306::send_data_SSD1306</text>
</a>
</g>
</g>
<!-- Node2 -->
<g id="Node000002" class="node">
<title>Node2</title>
<g id="a_Node000002"><a xlink:href="classssd1306.html#a1aae212504a93232231113bfe2e864a5" target="_top" xlink:title=" ">
<polygon fill="white" stroke="#666666" points="432,-62.25 278.75,-62.25 278.75,-40 432,-40 432,-62.25"/>
<text text-anchor="middle" x="355.38" y="-46.85" font-family="Arial" font-size="12.00">ssd1306::clear_SSD1306</text>
</a>
</g>
</g>
<!-- Node1&#45;&gt;Node2 -->
<g id="edge1_Node000001_Node000002" class="edge">
<title>Node1&#45;&gt;Node2</title>
<g id="a_edge1_Node000001_Node000002"><a xlink:title=" ">
<path fill="none" stroke="#63b8ff" d="M474.45,-40.4C460.26,-41.69 445.9,-43 432.3,-44.23"/>
<polygon fill="#63b8ff" stroke="#63b8ff" points="474.62,-43.9 484.26,-39.51 473.99,-36.93 474.62,-43.9"/>
</a>
</g>
</g>
<!-- Node4 -->
<g id="Node000004" class="node">
<title>Node4</title>
<g id="a_Node000004"><a xlink:href="classssd1306.html#a8534651a9db59a3d8c5162b91457e322" target="_top" xlink:title="Writes the buffer to the display.">
<polygon fill="white" stroke="#666666" points="450,-22.25 260.75,-22.25 260.75,0 450,0 450,-22.25"/>
<text text-anchor="middle" x="355.38" y="-6.85" font-family="Arial" font-size="12.00">ssd1306::write_buffer_SSD1306</text>
</a>
</g>
</g>
<!-- Node1&#45;&gt;Node4 -->
<g id="edge3_Node000001_Node000004" class="edge">
<title>Node1&#45;&gt;Node4</title>
<g id="a_edge3_Node000001_Node000004"><a xlink:title=" ">
<path fill="none" stroke="#63b8ff" d="M474.42,-21.84C466.36,-21.11 458.23,-20.37 450.23,-19.65"/>
<polygon fill="#63b8ff" stroke="#63b8ff" points="473.99,-25.32 484.26,-22.74 474.62,-18.35 473.99,-25.32"/>
</a>
</g>
</g>
<!-- Node3 -->
<g id="Node000003" class="node">
<title>Node3</title>
<g id="a_Node000003"><a xlink:href="classssd1306.html#a2518946b016e3c7f651eacaa1416864f" target="_top" xlink:title="Constructor for the SSD1306 class.">
<polygon fill="white" stroke="#666666" points="221.75,-62.25 108.25,-62.25 108.25,-40 221.75,-40 221.75,-62.25"/>
<text text-anchor="middle" x="165" y="-46.85" font-family="Arial" font-size="12.00">ssd1306::ssd1306</text>
</a>
</g>
</g>
<!-- Node2&#45;&gt;Node3 -->
<g id="edge2_Node000002_Node000003" class="edge">
<title>Node2&#45;&gt;Node3</title>
<g id="a_edge2_Node000002_Node000003"><a xlink:title=" ">
<path fill="none" stroke="#63b8ff" d="M267.2,-51.12C251.86,-51.12 236.28,-51.12 222.08,-51.12"/>
<polygon fill="#63b8ff" stroke="#63b8ff" points="266.79,-54.63 276.79,-51.13 266.79,-47.63 266.79,-54.63"/>
</a>
</g>
</g>
<!-- Node5 -->
<g id="Node000005" class="node">
<title>Node5</title>
<g id="a_Node000005"><a xlink:href="display__driver__task_8cpp.html#ad4b666a6c9c2ec527932313b8dee6e6a" target="_top" xlink:title="The display driver task.">
<polygon fill="white" stroke="#666666" points="224.75,-22.25 105.25,-22.25 105.25,0 224.75,0 224.75,-22.25"/>
<text text-anchor="middle" x="165" y="-6.85" font-family="Arial" font-size="12.00">display_driver_task</text>
</a>
</g>
</g>
<!-- Node4&#45;&gt;Node5 -->
<g id="edge4_Node000004_Node000005" class="edge">
<title>Node4&#45;&gt;Node5</title>
<g id="a_edge4_Node000004_Node000005"><a xlink:title=" ">
<path fill="none" stroke="#63b8ff" d="M249.17,-11.12C240.92,-11.12 232.78,-11.12 225.02,-11.12"/>
<polygon fill="#63b8ff" stroke="#63b8ff" points="248.95,-14.63 258.95,-11.13 248.95,-7.63 248.95,-14.63"/>
</a>
</g>
</g>
<!-- Node6 -->
<g id="Node000006" class="node">
<title>Node6</title>
<g id="a_Node000006"><a xlink:href="main_8cpp.html#a630544a7f0a2cc40d8a7fefab7e2fe70" target="_top" xlink:title="the main function for the program, creates all semaphores, tasks, and runs setup functions">
<polygon fill="white" stroke="#666666" points="69.25,-22.25 0,-22.25 0,0 69.25,0 69.25,-22.25"/>
<text text-anchor="middle" x="34.62" y="-6.85" font-family="Arial" font-size="12.00">app_main</text>
</a>
</g>
</g>
<!-- Node5&#45;&gt;Node6 -->
<g id="edge5_Node000005_Node000006" class="edge">
<title>Node5&#45;&gt;Node6</title>
<g id="a_edge5_Node000005_Node000006"><a xlink:title=" ">
<path fill="none" stroke="#63b8ff" d="M93.68,-11.12C85.35,-11.12 77.16,-11.12 69.68,-11.12"/>
<polygon fill="#63b8ff" stroke="#63b8ff" points="93.56,-14.63 103.56,-11.13 93.56,-7.63 93.56,-14.63"/>
</a>
</g>
</g>
</g>
</svg>
