<?xml version="1.0" encoding="UTF-8" standalone="no"?>
<!DOCTYPE svg PUBLIC "-//W3C//DTD SVG 1.1//EN"
 "http://www.w3.org/Graphics/SVG/1.1/DTD/svg11.dtd">
<!-- Generated by graphviz version 12.2.1 (20241206.2353)
 -->
<!-- Title: kicker_drive_train Pages: 1 -->
<svg width="733pt" height="701pt"
 viewBox="0.00 0.00 732.50 701.00" xmlns="http://www.w3.org/2000/svg" xmlns:xlink="http://www.w3.org/1999/xlink">
<g id="graph0" class="graph" transform="scale(1 1) rotate(0) translate(4 697)">
<title>kicker_drive_train</title>
<!-- Node1 -->
<g id="Node000001" class="node">
<title>Node1</title>
<g id="a_Node000001"><a xlink:title="This class is for controlling the kicker drive train (2 odrives)">
<polygon fill="#999999" stroke="none" points="609.38,-478.5 115.13,-478.5 115.13,0 609.38,0 609.38,-478.5"/>
<text text-anchor="start" x="315" y="-463.1" font-family="Arial" font-size="12.00">kicker_drive_train</text>
<text text-anchor="start" x="120.62" y="-444.85" font-family="Arial" font-size="12.00">&#45;</text>
<text text-anchor="start" x="129.88" y="-444.85" font-family="Arial" font-size="12.00">int64_t last_time</text>
<text text-anchor="start" x="120.62" y="-426.6" font-family="Arial" font-size="12.00">&#45;</text>
<text text-anchor="start" x="129.88" y="-426.6" font-family="Arial" font-size="12.00">int32_t battery_update_time</text>
<text text-anchor="start" x="120.62" y="-408.35" font-family="Arial" font-size="12.00">&#45;</text>
<text text-anchor="start" x="129.88" y="-408.35" font-family="Arial" font-size="12.00">uint8_t last_motor_state</text>
<text text-anchor="start" x="120.62" y="-390.1" font-family="Arial" font-size="12.00">&#45;</text>
<text text-anchor="start" x="129.88" y="-390.1" font-family="Arial" font-size="12.00">uint8_t last_driving_speed</text>
<text text-anchor="start" x="120.62" y="-371.85" font-family="Arial" font-size="12.00">&#45;</text>
<text text-anchor="start" x="129.88" y="-371.85" font-family="Arial" font-size="12.00">uint8_t last_turning_speed</text>
<text text-anchor="start" x="120.62" y="-353.6" font-family="Arial" font-size="12.00">&#45;</text>
<text text-anchor="start" x="129.88" y="-353.6" font-family="Arial" font-size="12.00">uint8_t last_driving_speed_mult</text>
<text text-anchor="start" x="120.62" y="-335.35" font-family="Arial" font-size="12.00">&#45;</text>
<text text-anchor="start" x="129.88" y="-335.35" font-family="Arial" font-size="12.00">uint8_t last_turning_speed_mult</text>
<text text-anchor="start" x="120.62" y="-317.1" font-family="Arial" font-size="12.00">&#45;</text>
<text text-anchor="start" x="129.88" y="-317.1" font-family="Arial" font-size="12.00">uint8_t CLOSED_LOOP_CONTROL</text>
<text text-anchor="start" x="120.62" y="-298.85" font-family="Arial" font-size="12.00">&#45;</text>
<text text-anchor="start" x="129.88" y="-298.85" font-family="Arial" font-size="12.00">uint8_t NO_DATA</text>
<text text-anchor="start" x="120.62" y="-280.6" font-family="Arial" font-size="12.00">&#45;</text>
<text text-anchor="start" x="129.88" y="-280.6" font-family="Arial" font-size="12.00">uint8_t IDLE_STATE</text>
<text text-anchor="start" x="120.62" y="-262.35" font-family="Arial" font-size="12.00">&#45;</text>
<text text-anchor="start" x="129.88" y="-262.35" font-family="Arial" font-size="12.00">uint8_t FULL_CALIBRATION_SEQUENCE</text>
<text text-anchor="start" x="119.12" y="-244.1" font-family="Arial" font-size="12.00">+</text>
<text text-anchor="start" x="129.88" y="-244.1" font-family="Arial" font-size="12.00">kicker_drive_train(oDrive *left_drive, oDrive *right_drive, uint32_t battery_voltage_refresh)</text>
<text text-anchor="start" x="119.12" y="-225.85" font-family="Arial" font-size="12.00">+</text>
<text text-anchor="start" x="129.88" y="-225.85" font-family="Arial" font-size="12.00">void update()</text>
<text text-anchor="start" x="120.62" y="-207.6" font-family="Arial" font-size="12.00">&#45;</text>
<text text-anchor="start" x="129.88" y="-207.6" font-family="Arial" font-size="12.00">void periodic_voltage_reading()</text>
<text text-anchor="start" x="120.62" y="-189.35" font-family="Arial" font-size="12.00">&#45;</text>
<text text-anchor="start" x="129.88" y="-189.35" font-family="Arial" font-size="12.00">void ramped_settings_updater()</text>
<text text-anchor="start" x="120.62" y="-171.1" font-family="Arial" font-size="12.00">&#45;</text>
<text text-anchor="start" x="129.88" y="-171.1" font-family="Arial" font-size="12.00">void drive_motors(bool boosted)</text>
<text text-anchor="start" x="120.62" y="-152.85" font-family="Arial" font-size="12.00">&#45;</text>
<text text-anchor="start" x="129.88" y="-152.85" font-family="Arial" font-size="12.00">void calibrating()</text>
<text text-anchor="start" x="120.62" y="-134.6" font-family="Arial" font-size="12.00">&#45;</text>
<text text-anchor="start" x="129.88" y="-134.6" font-family="Arial" font-size="12.00">void clear_errors()</text>
<text text-anchor="start" x="120.62" y="-116.35" font-family="Arial" font-size="12.00">&#45;</text>
<text text-anchor="start" x="129.88" y="-116.35" font-family="Arial" font-size="12.00">void disable_motors()</text>
<text text-anchor="start" x="120.62" y="-98.1" font-family="Arial" font-size="12.00">&#45;</text>
<text text-anchor="start" x="129.88" y="-98.1" font-family="Arial" font-size="12.00">void enable_motors()</text>
<text text-anchor="start" x="120.62" y="-79.85" font-family="Arial" font-size="12.00">&#45;</text>
<text text-anchor="start" x="129.88" y="-79.85" font-family="Arial" font-size="12.00">void motor_status_updater()</text>
<text text-anchor="start" x="120.62" y="-61.6" font-family="Arial" font-size="12.00">&#45;</text>
<text text-anchor="start" x="129.88" y="-61.6" font-family="Arial" font-size="12.00">void motor_speed_multiplier_updater()</text>
<text text-anchor="start" x="120.62" y="-43.35" font-family="Arial" font-size="12.00">&#45;</text>
<text text-anchor="start" x="129.88" y="-43.35" font-family="Arial" font-size="12.00">void motor_speeds_updater()</text>
<text text-anchor="start" x="120.62" y="-25.1" font-family="Arial" font-size="12.00">&#45;</text>
<text text-anchor="start" x="129.88" y="-25.1" font-family="Arial" font-size="12.00">void estop()</text>
<text text-anchor="start" x="120.62" y="-6.85" font-family="Arial" font-size="12.00">&#45;</text>
<text text-anchor="start" x="129.88" y="-6.85" font-family="Arial" font-size="12.00">void break_motors()</text>
<polygon fill="#666666" stroke="#666666" points="115.12,-458.25 115.12,-458.25 609.38,-458.25 609.38,-458.25 115.12,-458.25"/>
<polygon fill="#666666" stroke="#666666" points="115.12,-257.5 115.12,-257.5 127.88,-257.5 127.88,-257.5 115.12,-257.5"/>
<polygon fill="#666666" stroke="#666666" points="127.88,-257.5 127.88,-257.5 609.38,-257.5 609.38,-257.5 127.88,-257.5"/>
<polygon fill="none" stroke="#666666" points="115.12,0 115.12,-478.5 609.38,-478.5 609.38,0 115.12,0"/>
</a>
</g>
</g>
<!-- Node2 -->
<g id="Node000002" class="node">
<title>Node2</title>
<g id="a_Node000002"><a xlink:href="classo_drive.html" target="_top" xlink:title="This is the class to control an odrive motor controller.">
<polygon fill="white" stroke="none" points="724.5,-693 0,-693 0,-543 724.5,-543 724.5,-693"/>
<text text-anchor="start" x="344.62" y="-677.6" font-family="Arial" font-size="12.00">oDrive</text>
<text text-anchor="start" x="5.5" y="-659.35" font-family="Arial" font-size="12.00">&#45;</text>
<text text-anchor="start" x="14.75" y="-659.35" font-family="Arial" font-size="12.00">uint8_t node_ID</text>
<text text-anchor="start" x="4" y="-641.1" font-family="Arial" font-size="12.00">+</text>
<text text-anchor="start" x="14.75" y="-641.1" font-family="Arial" font-size="12.00">oDrive(uint8_t node_IDV)</text>
<text text-anchor="start" x="4" y="-622.85" font-family="Arial" font-size="12.00">+</text>
<text text-anchor="start" x="14.75" y="-622.85" font-family="Arial" font-size="12.00">void send_message(const uint8_t message_ID, const uint8_t *message_contents, uint8_t message_length, const bool data_returned)</text>
<text text-anchor="start" x="5.5" y="-604.6" font-family="Arial" font-size="12.00">&#45;</text>
<text text-anchor="start" x="14.75" y="-604.6" font-family="Arial" font-size="12.00">void update_battery_voltage(twai_message_t rx_message)</text>
<text text-anchor="start" x="5.5" y="-586.35" font-family="Arial" font-size="12.00">&#45;</text>
<text text-anchor="start" x="14.75" y="-586.35" font-family="Arial" font-size="12.00">void receive_message(uint8_t message_ID)</text>
<text text-anchor="start" x="5.5" y="-568.1" font-family="Arial" font-size="12.00">&#45;</text>
<text text-anchor="start" x="14.75" y="-568.1" font-family="Arial" font-size="12.00">void clear_battery_voltage()</text>
<text text-anchor="start" x="5.5" y="-549.85" font-family="Arial" font-size="12.00">&#45;</text>
<text text-anchor="start" x="14.75" y="-549.85" font-family="Arial" font-size="12.00">void update_current_motor_velocity(twai_message_t rx_message)</text>
<polygon fill="#666666" stroke="#666666" points="0,-672.75 0,-672.75 724.5,-672.75 724.5,-672.75 0,-672.75"/>
<polygon fill="#666666" stroke="#666666" points="0,-654.5 0,-654.5 12.75,-654.5 12.75,-654.5 0,-654.5"/>
<polygon fill="#666666" stroke="#666666" points="12.75,-654.5 12.75,-654.5 724.5,-654.5 724.5,-654.5 12.75,-654.5"/>
<polygon fill="none" stroke="#666666" points="0,-543 0,-693 724.5,-693 724.5,-543 0,-543"/>
</a>
</g>
</g>
<!-- Node2&#45;&gt;Node1 -->
<g id="edge1_Node000001_Node000002" class="edge">
<title>Node2&#45;&gt;Node1</title>
<g id="a_edge1_Node000001_Node000002"><a xlink:title=" ">
<path fill="none" stroke="#63b8ff" d="M362.25,-543.02C362.25,-527.17 362.25,-509.59 362.25,-491.1"/>
<polygon fill="none" stroke="#63b8ff" points="362.25,-491.07 358.25,-485.07 362.25,-479.07 366.25,-485.07 362.25,-491.07"/>
</a>
</g>
<text text-anchor="middle" x="392.25" y="-513.6" font-family="Arial" font-size="12.00" fill="grey"> &#45;left_drive</text>
<text text-anchor="middle" x="392.25" y="-499.35" font-family="Arial" font-size="12.00" fill="grey">&#45;right_drive</text>
</g>
</g>
</svg>
