<?xml version="1.0" encoding="UTF-8" standalone="no"?>
<!DOCTYPE svg PUBLIC "-//W3C//DTD SVG 1.1//EN"
 "http://www.w3.org/Graphics/SVG/1.1/DTD/svg11.dtd">
<!-- Generated by graphviz version 12.2.1 (20241206.2353)
 -->
<!-- Title: oDrive Pages: 1 -->
<svg width="733pt" height="158pt"
 viewBox="0.00 0.00 732.50 158.00" xmlns="http://www.w3.org/2000/svg" xmlns:xlink="http://www.w3.org/1999/xlink">
<g id="graph0" class="graph" transform="scale(1 1) rotate(0) translate(4 154)">
<title>oDrive</title>
<!-- Node1 -->
<g id="Node000001" class="node">
<title>Node1</title>
<g id="a_Node000001"><a xlink:title="This is the class to control an odrive motor controller.">
<polygon fill="#999999" stroke="none" points="724.5,-150 0,-150 0,0 724.5,0 724.5,-150"/>
<text text-anchor="start" x="344.62" y="-134.6" font-family="Arial" font-size="12.00">oDrive</text>
<text text-anchor="start" x="5.5" y="-116.35" font-family="Arial" font-size="12.00">&#45;</text>
<text text-anchor="start" x="14.75" y="-116.35" font-family="Arial" font-size="12.00">uint8_t node_ID</text>
<text text-anchor="start" x="4" y="-98.1" font-family="Arial" font-size="12.00">+</text>
<text text-anchor="start" x="14.75" y="-98.1" font-family="Arial" font-size="12.00">oDrive(uint8_t node_IDV)</text>
<text text-anchor="start" x="4" y="-79.85" font-family="Arial" font-size="12.00">+</text>
<text text-anchor="start" x="14.75" y="-79.85" font-family="Arial" font-size="12.00">void send_message(const uint8_t message_ID, const uint8_t *message_contents, uint8_t message_length, const bool data_returned)</text>
<text text-anchor="start" x="5.5" y="-61.6" font-family="Arial" font-size="12.00">&#45;</text>
<text text-anchor="start" x="14.75" y="-61.6" font-family="Arial" font-size="12.00">void update_battery_voltage(twai_message_t rx_message)</text>
<text text-anchor="start" x="5.5" y="-43.35" font-family="Arial" font-size="12.00">&#45;</text>
<text text-anchor="start" x="14.75" y="-43.35" font-family="Arial" font-size="12.00">void receive_message(uint8_t message_ID)</text>
<text text-anchor="start" x="5.5" y="-25.1" font-family="Arial" font-size="12.00">&#45;</text>
<text text-anchor="start" x="14.75" y="-25.1" font-family="Arial" font-size="12.00">void clear_battery_voltage()</text>
<text text-anchor="start" x="5.5" y="-6.85" font-family="Arial" font-size="12.00">&#45;</text>
<text text-anchor="start" x="14.75" y="-6.85" font-family="Arial" font-size="12.00">void update_current_motor_velocity(twai_message_t rx_message)</text>
<polygon fill="#666666" stroke="#666666" points="0,-129.75 0,-129.75 724.5,-129.75 724.5,-129.75 0,-129.75"/>
<polygon fill="#666666" stroke="#666666" points="0,-111.5 0,-111.5 12.75,-111.5 12.75,-111.5 0,-111.5"/>
<polygon fill="#666666" stroke="#666666" points="12.75,-111.5 12.75,-111.5 724.5,-111.5 724.5,-111.5 12.75,-111.5"/>
<polygon fill="none" stroke="#666666" points="0,0 0,-150 724.5,-150 724.5,0 0,0"/>
</a>
</g>
</g>
</g>
</svg>
