<?xml version="1.0" encoding="UTF-8" standalone="no"?>
<!DOCTYPE svg PUBLIC "-//W3C//DTD SVG 1.1//EN"
 "http://www.w3.org/Graphics/SVG/1.1/DTD/svg11.dtd">
<!-- Generated by graphviz version 12.2.1 (20241206.2353)
 -->
<!-- Title: led_strip_driver Pages: 1 -->
<svg width="433pt" height="122pt"
 viewBox="0.00 0.00 433.25 121.50" xmlns="http://www.w3.org/2000/svg" xmlns:xlink="http://www.w3.org/1999/xlink">
<g id="graph0" class="graph" transform="scale(1 1) rotate(0) translate(4 117.5)">
<title>led_strip_driver</title>
<!-- Node1 -->
<g id="Node000001" class="node">
<title>Node1</title>
<g id="a_Node000001"><a xlink:title="This is a class to control ws2812b led strips.">
<polygon fill="#999999" stroke="none" points="425.25,-113.5 0,-113.5 0,0 425.25,0 425.25,-113.5"/>
<text text-anchor="start" x="171.38" y="-98.1" font-family="Arial" font-size="12.00">led_strip_driver</text>
<text text-anchor="start" x="5.5" y="-79.85" font-family="Arial" font-size="12.00">&#45;</text>
<text text-anchor="start" x="14.75" y="-79.85" font-family="Arial" font-size="12.00">led_strip_rmt_config_t rmt_config</text>
<text text-anchor="start" x="5.5" y="-61.6" font-family="Arial" font-size="12.00">&#45;</text>
<text text-anchor="start" x="14.75" y="-61.6" font-family="Arial" font-size="12.00">led_strip_config_t led_strip_config</text>
<text text-anchor="start" x="5.5" y="-43.35" font-family="Arial" font-size="12.00">&#45;</text>
<text text-anchor="start" x="14.75" y="-43.35" font-family="Arial" font-size="12.00">led_strip_handle_t led_strip</text>
<text text-anchor="start" x="4" y="-25.1" font-family="Arial" font-size="12.00">+</text>
<text text-anchor="start" x="14.75" y="-25.1" font-family="Arial" font-size="12.00">led_strip_driver(uint8_t strip_gpio_pin, uint8_t number_of_leds_in_strip)</text>
<text text-anchor="start" x="4" y="-6.85" font-family="Arial" font-size="12.00">+</text>
<text text-anchor="start" x="14.75" y="-6.85" font-family="Arial" font-size="12.00">void set_color(uint8_t r, uint8_t g, uint8_t b, uint8_t led_start, uint8_t led_end)</text>
<polygon fill="#666666" stroke="#666666" points="0,-93.25 0,-93.25 425.25,-93.25 425.25,-93.25 0,-93.25"/>
<polygon fill="#666666" stroke="#666666" points="0,-38.5 0,-38.5 12.75,-38.5 12.75,-38.5 0,-38.5"/>
<polygon fill="#666666" stroke="#666666" points="12.75,-38.5 12.75,-38.5 425.25,-38.5 425.25,-38.5 12.75,-38.5"/>
<polygon fill="none" stroke="#666666" points="0,0 0,-113.5 425.25,-113.5 425.25,0 0,0"/>
</a>
</g>
</g>
</g>
</svg>
