<?xml version="1.0" encoding="UTF-8" standalone="no"?>
<!DOCTYPE svg PUBLIC "-//W3C//DTD SVG 1.1//EN"
 "http://www.w3.org/Graphics/SVG/1.1/DTD/svg11.dtd">
<!-- Generated by graphviz version 12.2.1 (20241206.2353)
 -->
<!-- Title: kicker_drive_train::motor_status_updater Pages: 1 -->
<svg width="706pt" height="188pt"
 viewBox="0.00 0.00 706.25 188.25" xmlns="http://www.w3.org/2000/svg" xmlns:xlink="http://www.w3.org/1999/xlink">
<g id="graph0" class="graph" transform="scale(1 1) rotate(0) translate(4 184.25)">
<title>kicker_drive_train::motor_status_updater</title>
<!-- Node1 -->
<g id="Node000001" class="node">
<title>Node1</title>
<g id="a_Node000001"><a xlink:title="change the status of the motors">
<polygon fill="#999999" stroke="#666666" points="232,-102.25 0,-102.25 0,-80 232,-80 232,-102.25"/>
<text text-anchor="middle" x="116" y="-86.85" font-family="Arial" font-size="12.00">kicker_drive_train::motor_status_updater</text>
</a>
</g>
</g>
<!-- Node2 -->
<g id="Node000002" class="node">
<title>Node2</title>
<g id="a_Node000002"><a xlink:href="classkicker__drive__train.html#a7b21d38c1a81e3646f07602f41cab0bc" target="_top" xlink:title="brake the motors by setting the velocity to 0">
<polygon fill="white" stroke="#666666" points="460.62,-180.25 271.38,-180.25 271.38,-158 460.62,-158 460.62,-180.25"/>
<text text-anchor="middle" x="366" y="-164.85" font-family="Arial" font-size="12.00">kicker_drive_train::break_motors</text>
</a>
</g>
</g>
<!-- Node1&#45;&gt;Node2 -->
<g id="edge1_Node000001_Node000002" class="edge">
<title>Node1&#45;&gt;Node2</title>
<g id="a_edge1_Node000001_Node000002"><a xlink:title=" ">
<path fill="none" stroke="#63b8ff" d="M147.4,-102.66C177.72,-113.95 225.73,-131.29 268,-144.12 280.23,-147.84 293.43,-151.48 306.03,-154.78"/>
<polygon fill="#63b8ff" stroke="#63b8ff" points="304.89,-158.11 315.45,-157.22 306.64,-151.33 304.89,-158.11"/>
</a>
</g>
</g>
<!-- Node3 -->
<g id="Node000003" class="node">
<title>Node3</title>
<g id="a_Node000003"><a xlink:href="classkicker__drive__train.html#a6ef0c24f1b0871021979a48fde1c9ff4" target="_top" xlink:title="set the motors to their idle state">
<polygon fill="white" stroke="#666666" points="698.25,-160.25 500,-160.25 500,-138 698.25,-138 698.25,-160.25"/>
<text text-anchor="middle" x="599.12" y="-144.85" font-family="Arial" font-size="12.00">kicker_drive_train::disable_motors</text>
</a>
</g>
</g>
<!-- Node1&#45;&gt;Node3 -->
<g id="edge5_Node000001_Node000003" class="edge">
<title>Node1&#45;&gt;Node3</title>
<g id="a_edge5_Node000001_Node000003"><a xlink:title=" ">
<path fill="none" stroke="#63b8ff" d="M202.81,-102.75C224.1,-105.56 246.87,-108.51 268,-111.12 341.46,-120.22 424.2,-129.74 488.47,-136.98"/>
<polygon fill="#63b8ff" stroke="#63b8ff" points="488.01,-140.45 498.34,-138.09 488.79,-133.49 488.01,-140.45"/>
</a>
</g>
</g>
<!-- Node4 -->
<g id="Node000004" class="node">
<title>Node4</title>
<g id="a_Node000004"><a xlink:href="classkicker__drive__train.html#ac9c1b7680ef0506c28d674f26bda4ee7" target="_top" xlink:title="run the calibration sequence with periodic messages over can bus to prevent the odrives from entering...">
<polygon fill="white" stroke="#666666" points="452,-102.25 280,-102.25 280,-80 452,-80 452,-102.25"/>
<text text-anchor="middle" x="366" y="-86.85" font-family="Arial" font-size="12.00">kicker_drive_train::calibrating</text>
</a>
</g>
</g>
<!-- Node1&#45;&gt;Node4 -->
<g id="edge3_Node000001_Node000004" class="edge">
<title>Node1&#45;&gt;Node4</title>
<g id="a_edge3_Node000001_Node000004"><a xlink:title=" ">
<path fill="none" stroke="#63b8ff" d="M232.29,-91.12C244.37,-91.12 256.55,-91.12 268.39,-91.12"/>
<polygon fill="#63b8ff" stroke="#63b8ff" points="268.11,-94.63 278.11,-91.13 268.11,-87.63 268.11,-94.63"/>
</a>
</g>
</g>
<!-- Node5 -->
<g id="Node000005" class="node">
<title>Node5</title>
<g id="a_Node000005"><a xlink:href="classkicker__drive__train.html#ad5670ad9be6bd4d7055b8dfbfafe75db" target="_top" xlink:title="clear the errors on the odrives">
<polygon fill="white" stroke="#666666" points="456.12,-62.25 275.88,-62.25 275.88,-40 456.12,-40 456.12,-62.25"/>
<text text-anchor="middle" x="366" y="-46.85" font-family="Arial" font-size="12.00">kicker_drive_train::clear_errors</text>
</a>
</g>
</g>
<!-- Node1&#45;&gt;Node5 -->
<g id="edge4_Node000001_Node000005" class="edge">
<title>Node1&#45;&gt;Node5</title>
<g id="a_edge4_Node000001_Node000005"><a xlink:title=" ">
<path fill="none" stroke="#63b8ff" d="M189.07,-79.5C218.11,-74.82 251.78,-69.39 281.85,-64.54"/>
<polygon fill="#63b8ff" stroke="#63b8ff" points="282.37,-68 291.69,-62.95 281.26,-61.09 282.37,-68"/>
</a>
</g>
</g>
<!-- Node6 -->
<g id="Node000006" class="node">
<title>Node6</title>
<g id="a_Node000006"><a xlink:href="classkicker__drive__train.html#aa08dd2966d8975334cf46f3e939f1751" target="_top" xlink:title="set the motors to their active state">
<polygon fill="white" stroke="#666666" points="464,-22.25 268,-22.25 268,0 464,0 464,-22.25"/>
<text text-anchor="middle" x="366" y="-6.85" font-family="Arial" font-size="12.00">kicker_drive_train::enable_motors</text>
</a>
</g>
</g>
<!-- Node1&#45;&gt;Node6 -->
<g id="edge6_Node000001_Node000006" class="edge">
<title>Node1&#45;&gt;Node6</title>
<g id="a_edge6_Node000001_Node000006"><a xlink:title=" ">
<path fill="none" stroke="#63b8ff" d="M142.17,-79.55C171.76,-66.31 222.6,-44.71 268,-31.12 274.95,-29.05 282.24,-27.11 289.57,-25.32"/>
<polygon fill="#63b8ff" stroke="#63b8ff" points="290.27,-28.76 299.21,-23.08 288.68,-21.94 290.27,-28.76"/>
</a>
</g>
</g>
<!-- Node2&#45;&gt;Node3 -->
<g id="edge2_Node000002_Node000003" class="edge">
<title>Node2&#45;&gt;Node3</title>
<g id="a_edge2_Node000002_Node000003"><a xlink:title=" ">
<path fill="none" stroke="#63b8ff" d="M461.01,-160.99C470.07,-160.21 479.32,-159.41 488.51,-158.61"/>
<polygon fill="#63b8ff" stroke="#63b8ff" points="488.52,-162.12 498.18,-157.77 487.92,-155.15 488.52,-162.12"/>
</a>
</g>
</g>
</g>
</svg>
