<?xml version="1.0" encoding="UTF-8" standalone="no"?>
<!DOCTYPE svg PUBLIC "-//W3C//DTD SVG 1.1//EN"
 "http://www.w3.org/Graphics/SVG/1.1/DTD/svg11.dtd">
<!-- Generated by graphviz version 12.2.1 (20241206.2353)
 -->
<!-- Title: menu::draw_to_display Pages: 1 -->
<svg width="327pt" height="110pt"
 viewBox="0.00 0.00 327.25 110.25" xmlns="http://www.w3.org/2000/svg" xmlns:xlink="http://www.w3.org/1999/xlink">
<g id="graph0" class="graph" transform="scale(1 1) rotate(0) translate(4 106.25)">
<title>menu::draw_to_display</title>
<!-- Node1 -->
<g id="Node000001" class="node">
<title>Node1</title>
<g id="a_Node000001"><a xlink:title=" ">
<polygon fill="#999999" stroke="#666666" points="139.75,-62.25 0,-62.25 0,-40 139.75,-40 139.75,-62.25"/>
<text text-anchor="middle" x="69.88" y="-46.85" font-family="Arial" font-size="12.00">menu::draw_to_display</text>
</a>
</g>
</g>
<!-- Node2 -->
<g id="Node000002" class="node">
<title>Node2</title>
<g id="a_Node000002"><a xlink:href="classmenu.html#ac0666103fe5e90c5964cb043564b856b" target="_top" xlink:title="This function changes what value is selected in the menu (if modifiable)">
<polygon fill="white" stroke="#666666" points="319.25,-102.25 175.75,-102.25 175.75,-80 319.25,-80 319.25,-102.25"/>
<text text-anchor="middle" x="247.5" y="-86.85" font-family="Arial" font-size="12.00">menu::change_selected</text>
</a>
</g>
</g>
<!-- Node1&#45;&gt;Node2 -->
<g id="edge1_Node000001_Node000002" class="edge">
<title>Node1&#45;&gt;Node2</title>
<g id="a_edge1_Node000001_Node000002"><a xlink:title=" ">
<path fill="none" stroke="#63b8ff" d="M121.67,-62.69C141.25,-67.15 163.82,-72.3 184.35,-76.97"/>
<polygon fill="#63b8ff" stroke="#63b8ff" points="183.51,-80.37 194.04,-79.18 185.06,-73.54 183.51,-80.37"/>
</a>
</g>
</g>
<!-- Node3 -->
<g id="Node000003" class="node">
<title>Node3</title>
<g id="a_Node000003"><a xlink:href="classmenu.html#ace9a681a44f014b790e060eb82ad109d" target="_top" xlink:title="This function draws the menu to the display.">
<polygon fill="white" stroke="#666666" points="317.38,-62.25 177.62,-62.25 177.62,-40 317.38,-40 317.38,-62.25"/>
<text text-anchor="middle" x="247.5" y="-46.85" font-family="Arial" font-size="12.00">menu::draw_to_display</text>
</a>
</g>
</g>
<!-- Node1&#45;&gt;Node3 -->
<g id="edge2_Node000001_Node000003" class="edge">
<title>Node1&#45;&gt;Node3</title>
<g id="a_edge2_Node000001_Node000003"><a xlink:title=" ">
<path fill="none" stroke="#63b8ff" d="M140.03,-51.12C148.58,-51.12 157.37,-51.12 166.06,-51.12"/>
<polygon fill="#63b8ff" stroke="#63b8ff" points="165.89,-54.63 175.89,-51.13 165.89,-47.63 165.89,-54.63"/>
</a>
</g>
</g>
<!-- Node4 -->
<g id="Node000004" class="node">
<title>Node4</title>
<g id="a_Node000004"><a xlink:href="classmenu.html#a43fc0dce51cf325ab9b4ade948ae35e6" target="_top" xlink:title="This is the constructor for the menu class.">
<polygon fill="white" stroke="#666666" points="288.5,-22.25 206.5,-22.25 206.5,0 288.5,0 288.5,-22.25"/>
<text text-anchor="middle" x="247.5" y="-6.85" font-family="Arial" font-size="12.00">menu::menu</text>
</a>
</g>
</g>
<!-- Node1&#45;&gt;Node4 -->
<g id="edge3_Node000001_Node000004" class="edge">
<title>Node1&#45;&gt;Node4</title>
<g id="a_edge3_Node000001_Node000004"><a xlink:title=" ">
<path fill="none" stroke="#63b8ff" d="M121.67,-39.56C144.74,-34.3 171.99,-28.1 195.13,-22.83"/>
<polygon fill="#63b8ff" stroke="#63b8ff" points="195.67,-26.29 204.64,-20.66 194.12,-19.47 195.67,-26.29"/>
</a>
</g>
</g>
</g>
</svg>
