<?xml version="1.0" encoding="UTF-8" standalone="no"?>
<!DOCTYPE svg PUBLIC "-//W3C//DTD SVG 1.1//EN"
 "http://www.w3.org/Graphics/SVG/1.1/DTD/svg11.dtd">
<!-- Generated by graphviz version 12.2.1 (20241206.2353)
 -->
<!-- Title: kicker_drive_train::disable_motors Pages: 1 -->
<svg width="1169pt" height="69pt"
 viewBox="0.00 0.00 1169.00 69.25" xmlns="http://www.w3.org/2000/svg" xmlns:xlink="http://www.w3.org/1999/xlink">
<g id="graph0" class="graph" transform="scale(1 1) rotate(0) translate(4 65.25)">
<title>kicker_drive_train::disable_motors</title>
<!-- Node1 -->
<g id="Node000001" class="node">
<title>Node1</title>
<g id="a_Node000001"><a xlink:title="set the motors to their idle state">
<polygon fill="#999999" stroke="#666666" points="1161,-41.25 962.75,-41.25 962.75,-19 1161,-19 1161,-41.25"/>
<text text-anchor="middle" x="1061.88" y="-25.85" font-family="Arial" font-size="12.00">kicker_drive_train::disable_motors</text>
</a>
</g>
</g>
<!-- Node2 -->
<g id="Node000002" class="node">
<title>Node2</title>
<g id="a_Node000002"><a xlink:href="classkicker__drive__train.html#a7b21d38c1a81e3646f07602f41cab0bc" target="_top" xlink:title="brake the motors by setting the velocity to 0">
<polygon fill="white" stroke="#666666" points="926.75,-22.25 737.5,-22.25 737.5,0 926.75,0 926.75,-22.25"/>
<text text-anchor="middle" x="832.12" y="-6.85" font-family="Arial" font-size="12.00">kicker_drive_train::break_motors</text>
</a>
</g>
</g>
<!-- Node1&#45;&gt;Node2 -->
<g id="edge1_Node000001_Node000002" class="edge">
<title>Node1&#45;&gt;Node2</title>
<g id="a_edge1_Node000001_Node000002"><a xlink:title=" ">
<path fill="none" stroke="#63b8ff" d="M951.05,-20.96C943.06,-20.3 935.05,-19.63 927.17,-18.97"/>
<polygon fill="#63b8ff" stroke="#63b8ff" points="950.54,-24.43 960.8,-21.78 951.12,-17.46 950.54,-24.43"/>
</a>
</g>
</g>
<!-- Node3 -->
<g id="Node000003" class="node">
<title>Node3</title>
<g id="a_Node000003"><a xlink:href="classkicker__drive__train.html#a2c011997429fafeeacddbb1e74d604c4" target="_top" xlink:title="change the status of the motors">
<polygon fill="white" stroke="#666666" points="701.5,-61.25 469.5,-61.25 469.5,-39 701.5,-39 701.5,-61.25"/>
<text text-anchor="middle" x="585.5" y="-45.85" font-family="Arial" font-size="12.00">kicker_drive_train::motor_status_updater</text>
</a>
</g>
</g>
<!-- Node1&#45;&gt;Node3 -->
<g id="edge7_Node000001_Node000003" class="edge">
<title>Node1&#45;&gt;Node3</title>
<g id="a_edge7_Node000001_Node000003"><a xlink:title=" ">
<path fill="none" stroke="#63b8ff" d="M950.98,-34.76C876.23,-37.91 777.51,-42.07 701.66,-45.27"/>
<polygon fill="#63b8ff" stroke="#63b8ff" points="950.94,-38.26 960.78,-34.34 950.65,-31.27 950.94,-38.26"/>
</a>
</g>
</g>
<!-- Node2&#45;&gt;Node3 -->
<g id="edge2_Node000002_Node000003" class="edge">
<title>Node2&#45;&gt;Node3</title>
<g id="a_edge2_Node000002_Node000003"><a xlink:title=" ">
<path fill="none" stroke="#63b8ff" d="M747.2,-24.5C718.65,-29.06 686.99,-34.1 659.38,-38.51"/>
<polygon fill="#63b8ff" stroke="#63b8ff" points="747.57,-27.99 756.9,-22.96 746.47,-21.08 747.57,-27.99"/>
</a>
</g>
</g>
<!-- Node4 -->
<g id="Node000004" class="node">
<title>Node4</title>
<g id="a_Node000004"><a xlink:href="classkicker__drive__train.html#af6663d5dc9de9ac8ca7f32f817cb8bd6" target="_top" xlink:title="The main loop for the drive train, updates values, checks battery, and drives motors.">
<polygon fill="white" stroke="#666666" points="433.5,-41.25 280.25,-41.25 280.25,-19 433.5,-19 433.5,-41.25"/>
<text text-anchor="middle" x="356.88" y="-25.85" font-family="Arial" font-size="12.00">kicker_drive_train::update</text>
</a>
</g>
</g>
<!-- Node2&#45;&gt;Node4 -->
<g id="edge6_Node000002_Node000004" class="edge">
<title>Node2&#45;&gt;Node4</title>
<g id="a_edge6_Node000002_Node000004"><a xlink:title=" ">
<path fill="none" stroke="#63b8ff" d="M725.63,-15.36C637.12,-18.91 512.83,-23.9 433.83,-27.08"/>
<polygon fill="#63b8ff" stroke="#63b8ff" points="725.7,-18.86 735.55,-14.96 725.42,-11.87 725.7,-18.86"/>
</a>
</g>
</g>
<!-- Node3&#45;&gt;Node4 -->
<g id="edge3_Node000003_Node000004" class="edge">
<title>Node3&#45;&gt;Node4</title>
<g id="a_edge3_Node000003_Node000004"><a xlink:title=" ">
<path fill="none" stroke="#63b8ff" d="M457.94,-38.96C449.72,-38.23 441.6,-37.51 433.74,-36.82"/>
<polygon fill="#63b8ff" stroke="#63b8ff" points="457.42,-42.42 467.69,-39.82 458.03,-35.45 457.42,-42.42"/>
</a>
</g>
</g>
<!-- Node5 -->
<g id="Node000005" class="node">
<title>Node5</title>
<g id="a_Node000005"><a xlink:href="kicker__drive__train__task_8cpp.html#a938e6bfee6576fa0854ce50fcaa54b7a" target="_top" xlink:title="The task to drive the odrive motors, set speeds, modify ramped velocity parameters,...">
<polygon fill="white" stroke="#666666" points="244.25,-41.25 105.25,-41.25 105.25,-19 244.25,-19 244.25,-41.25"/>
<text text-anchor="middle" x="174.75" y="-25.85" font-family="Arial" font-size="12.00">kicker_drive_train_task</text>
</a>
</g>
</g>
<!-- Node4&#45;&gt;Node5 -->
<g id="edge4_Node000004_Node000005" class="edge">
<title>Node4&#45;&gt;Node5</title>
<g id="a_edge4_Node000004_Node000005"><a xlink:title=" ">
<path fill="none" stroke="#63b8ff" d="M268.66,-30.12C260.6,-30.12 252.51,-30.12 244.65,-30.12"/>
<polygon fill="#63b8ff" stroke="#63b8ff" points="268.49,-33.63 278.49,-30.13 268.49,-26.63 268.49,-33.63"/>
</a>
</g>
</g>
<!-- Node6 -->
<g id="Node000006" class="node">
<title>Node6</title>
<g id="a_Node000006"><a xlink:href="main_8cpp.html#a630544a7f0a2cc40d8a7fefab7e2fe70" target="_top" xlink:title="the main function for the program, creates all semaphores, tasks, and runs setup functions">
<polygon fill="white" stroke="#666666" points="69.25,-41.25 0,-41.25 0,-19 69.25,-19 69.25,-41.25"/>
<text text-anchor="middle" x="34.62" y="-25.85" font-family="Arial" font-size="12.00">app_main</text>
</a>
</g>
</g>
<!-- Node5&#45;&gt;Node6 -->
<g id="edge5_Node000005_Node000006" class="edge">
<title>Node5&#45;&gt;Node6</title>
<g id="a_edge5_Node000005_Node000006"><a xlink:title=" ">
<path fill="none" stroke="#63b8ff" d="M93.58,-30.12C85.21,-30.12 77.06,-30.12 69.64,-30.12"/>
<polygon fill="#63b8ff" stroke="#63b8ff" points="93.58,-33.63 103.58,-30.13 93.58,-26.63 93.58,-33.63"/>
</a>
</g>
</g>
</g>
</svg>
