<?xml version="1.0" encoding="UTF-8" standalone="no"?>
<!DOCTYPE svg PUBLIC "-//W3C//DTD SVG 1.1//EN"
 "http://www.w3.org/Graphics/SVG/1.1/DTD/svg11.dtd">
<!-- Generated by graphviz version 12.2.1 (20241206.2353)
 -->
<!-- Title: ssd1306 Pages: 1 -->
<!--zoomable 559 -->

<svg id="main" version="1.1" xmlns="http://www.w3.org/2000/svg" xmlns:xlink="http://www.w3.org/1999/xlink" xml:space="preserve" onload="init(evt)">

<style type="text/css"><![CDATA[
.node, .edge {opacity: 0.7;}
.node.selected, .edge.selected {opacity: 1;}
.edge:hover path { stroke: red; }
.edge:hover polygon { stroke: red; fill: red; }
]]></style>

<defs>
  <circle id="rim" cx="0" cy="0" r="7"/>
  <circle id="rim2" cx="0" cy="0" r="3.5"/>
  <g id="zoomPlus">
    <use xlink:href="#rim" fill="#404040"><set attributeName="fill" to="#808080" begin="zoomplus.mouseover" end="zoomplus.mouseout"/></use>
    <path d="M-4,0h8M0,-4v8" fill="none" stroke="white" stroke-width="1.5" pointer-events="none"/>
  </g>
  <g id="zoomMin">
    <use xlink:href="#rim" fill="#404040"><set attributeName="fill" to="#808080" begin="zoomminus.mouseover" end="zoomminus.mouseout"/></use>
    <path d="M-4,0h8" fill="none" stroke="white" stroke-width="1.5" pointer-events="none"/>
  </g>
  <g id="arrowUp" transform="translate(30 24)">
    <use xlink:href="#rim"/>
    <path pointer-events="none" fill="none" stroke="white" stroke-width="1.5" d="M0,-3.0v7 M-2.5,-0.5L0,-3.0L2.5,-0.5"/>
  </g>
  <g id="arrowRight" transform="rotate(90) translate(36 -43)">
    <use xlink:href="#rim"/>
    <path pointer-events="none" fill="none" stroke="white" stroke-width="1.5" d="M0,-3.0v7 M-2.5,-0.5L0,-3.0L2.5,-0.5"/>
  </g>
  <g id="arrowDown" transform="rotate(180) translate(-30 -48)">
    <use xlink:href="#rim"/>
    <path pointer-events="none" fill="none" stroke="white" stroke-width="1.5" d="M0,-3.0v7 M-2.5,-0.5L0,-3.0L2.5,-0.5"/>
  </g>
  <g id="arrowLeft" transform="rotate(270) translate(-36 17)">
    <use xlink:href="#rim"/>
    <path pointer-events="none" fill="none" stroke="white" stroke-width="1.5" d="M0,-3.0v7 M-2.5,-0.5L0,-3.0L2.5,-0.5"/>
  </g>
  <g id="resetDef">
    <use xlink:href="#rim2" fill="#404040"><set attributeName="fill" to="#808080" begin="reset.mouseover" end="reset.mouseout"/></use>
  </g>
</defs>
<script type="application/ecmascript">
var viewWidth = 415;
var viewHeight = 559;
var sectionId = 'dynsection-0';
</script>
<script type="application/ecmascript" xlink:href="svg.min.js"/>
<svg id="graph" class="graph">
<g id="viewport">
<title>ssd1306</title>
<!-- Node1 -->
<g id="Node000001" class="node">
<title>Node1</title>
<g id="a_Node000001"><a xlink:title="This is a class to drive an ssd1306 over i2c.">
<polygon fill="#999999" stroke="none" points="407.25,-241.25 0,-241.25 0,0 407.25,0 407.25,-241.25"/>
<text text-anchor="start" x="180.75" y="-225.85" font-family="Arial" font-size="12.00">ssd1306</text>
<text text-anchor="start" x="5.5" y="-207.6" font-family="Arial" font-size="12.00">&#45;</text>
<text text-anchor="start" x="14.75" y="-207.6" font-family="Arial" font-size="12.00">uint8_t buffer</text>
<text text-anchor="start" x="5.5" y="-189.35" font-family="Arial" font-size="12.00">&#45;</text>
<text text-anchor="start" x="14.75" y="-189.35" font-family="Arial" font-size="12.00">i2c_master_dev_handle_t ssd1306_handle</text>
<text text-anchor="start" x="4" y="-171.1" font-family="Arial" font-size="12.00">+</text>
<text text-anchor="start" x="14.75" y="-171.1" font-family="Arial" font-size="12.00">ssd1306(i2c_master_dev_handle_t ssd1306_handle)</text>
<text text-anchor="start" x="4" y="-152.85" font-family="Arial" font-size="12.00">+</text>
<text text-anchor="start" x="14.75" y="-152.85" font-family="Arial" font-size="12.00">void write_string_SSD1306(std::string word, uint8_t x_pos, uint8_t y_pos)</text>
<text text-anchor="start" x="4" y="-134.6" font-family="Arial" font-size="12.00">+</text>
<text text-anchor="start" x="14.75" y="-134.6" font-family="Arial" font-size="12.00">void clear_buffer()</text>
<text text-anchor="start" x="4" y="-116.35" font-family="Arial" font-size="12.00">+</text>
<text text-anchor="start" x="14.75" y="-116.35" font-family="Arial" font-size="12.00">void write_buffer_SSD1306()</text>
<text text-anchor="start" x="5.5" y="-98.1" font-family="Arial" font-size="12.00">&#45;</text>
<text text-anchor="start" x="14.75" y="-98.1" font-family="Arial" font-size="12.00">void send_command_SSD1306(uint8_t command)</text>
<text text-anchor="start" x="5.5" y="-79.85" font-family="Arial" font-size="12.00">&#45;</text>
<text text-anchor="start" x="14.75" y="-79.85" font-family="Arial" font-size="12.00">void send_data_SSD1306(uint8_t *data, size_t len)</text>
<text text-anchor="start" x="5.5" y="-61.6" font-family="Arial" font-size="12.00">&#45;</text>
<text text-anchor="start" x="14.75" y="-61.6" font-family="Arial" font-size="12.00">void init_SSD1306()</text>
<text text-anchor="start" x="5.5" y="-43.35" font-family="Arial" font-size="12.00">&#45;</text>
<text text-anchor="start" x="14.75" y="-43.35" font-family="Arial" font-size="12.00">void clear_SSD1306()</text>
<text text-anchor="start" x="5.5" y="-25.1" font-family="Arial" font-size="12.00">&#45;</text>
<text text-anchor="start" x="14.75" y="-25.1" font-family="Arial" font-size="12.00">void draw_pixel_SSD1306(uint8_t x, uint8_t y)</text>
<text text-anchor="start" x="5.5" y="-6.85" font-family="Arial" font-size="12.00">&#45;</text>
<text text-anchor="start" x="14.75" y="-6.85" font-family="Arial" font-size="12.00">void write_letter_SSD1306(uint8_t letter, uint8_t x_pos, uint8_t y_pos)</text>
<polygon fill="#666666" stroke="#666666" points="0,-221 0,-221 407.25,-221 407.25,-221 0,-221"/>
<polygon fill="#666666" stroke="#666666" points="0,-184.5 0,-184.5 12.75,-184.5 12.75,-184.5 0,-184.5"/>
<polygon fill="#666666" stroke="#666666" points="12.75,-184.5 12.75,-184.5 407.25,-184.5 407.25,-184.5 12.75,-184.5"/>
<polygon fill="none" stroke="#666666" points="0,0 0,-241.25 407.25,-241.25 407.25,0 0,0"/>
</a>
</g>
</g>
<!-- Node2 -->
<g id="Node000002" class="node">
<title>Node2</title>
<g id="a_Node000002"><a xlink:href="classfont.html" target="_top" xlink:title="12x16 pixel font.">
<polygon fill="white" stroke="none" points="332.25,-551 75,-551 75,-291.5 332.25,-291.5 332.25,-551"/>
<text text-anchor="start" x="193.88" y="-535.6" font-family="Arial" font-size="12.00">font</text>
<text text-anchor="start" x="80.5" y="-517.35" font-family="Arial" font-size="12.00">&#45;</text>
<text text-anchor="start" x="89.75" y="-517.35" font-family="Arial" font-size="12.00">const uint16_t * font_map</text>
<text text-anchor="start" x="80.5" y="-499.1" font-family="Arial" font-size="12.00">&#45;</text>
<text text-anchor="start" x="89.75" y="-499.1" font-family="Arial" font-size="12.00">const uint16_t zero</text>
<text text-anchor="start" x="80.5" y="-480.85" font-family="Arial" font-size="12.00">&#45;</text>
<text text-anchor="start" x="89.75" y="-480.85" font-family="Arial" font-size="12.00">const uint16_t one</text>
<text text-anchor="start" x="80.5" y="-462.6" font-family="Arial" font-size="12.00">&#45;</text>
<text text-anchor="start" x="89.75" y="-462.6" font-family="Arial" font-size="12.00">const uint16_t two</text>
<text text-anchor="start" x="80.5" y="-444.35" font-family="Arial" font-size="12.00">&#45;</text>
<text text-anchor="start" x="89.75" y="-444.35" font-family="Arial" font-size="12.00">const uint16_t three</text>
<text text-anchor="start" x="80.5" y="-426.1" font-family="Arial" font-size="12.00">&#45;</text>
<text text-anchor="start" x="89.75" y="-426.1" font-family="Arial" font-size="12.00">const uint16_t four</text>
<text text-anchor="start" x="80.5" y="-407.85" font-family="Arial" font-size="12.00">&#45;</text>
<text text-anchor="start" x="89.75" y="-407.85" font-family="Arial" font-size="12.00">const uint16_t five</text>
<text text-anchor="start" x="80.5" y="-389.6" font-family="Arial" font-size="12.00">&#45;</text>
<text text-anchor="start" x="89.75" y="-389.6" font-family="Arial" font-size="12.00">const uint16_t six</text>
<text text-anchor="start" x="80.5" y="-371.35" font-family="Arial" font-size="12.00">&#45;</text>
<text text-anchor="start" x="89.75" y="-371.35" font-family="Arial" font-size="12.00">const uint16_t seven</text>
<text text-anchor="start" x="80.5" y="-353.1" font-family="Arial" font-size="12.00">&#45;</text>
<text text-anchor="start" x="89.75" y="-353.1" font-family="Arial" font-size="12.00">const uint16_t eight</text>
<text text-anchor="start" x="89.75" y="-334.85" font-family="Arial" font-size="12.00">and 59 more...</text>
<text text-anchor="start" x="79" y="-316.6" font-family="Arial" font-size="12.00">+</text>
<text text-anchor="start" x="89.75" y="-316.6" font-family="Arial" font-size="12.00">font()</text>
<text text-anchor="start" x="79" y="-298.35" font-family="Arial" font-size="12.00">+</text>
<text text-anchor="start" x="89.75" y="-298.35" font-family="Arial" font-size="12.00">const uint16_t * get_letter(const uint8_t letter)</text>
<polygon fill="#666666" stroke="#666666" points="75,-530.75 75,-530.75 332.25,-530.75 332.25,-530.75 75,-530.75"/>
<polygon fill="#666666" stroke="#666666" points="75,-330 75,-330 87.75,-330 87.75,-330 75,-330"/>
<polygon fill="#666666" stroke="#666666" points="87.75,-330 87.75,-330 332.25,-330 332.25,-330 87.75,-330"/>
<polygon fill="none" stroke="#666666" points="75,-291.5 75,-551 332.25,-551 332.25,-291.5 75,-291.5"/>
</a>
</g>
</g>
<!-- Node2&#45;&gt;Node1 -->
<g id="edge1_Node000001_Node000002" class="edge">
<title>Node2&#45;&gt;Node1</title>
<g id="a_edge1_Node000001_Node000002"><a xlink:title=" ">
<path fill="none" stroke="#63b8ff" d="M203.62,-291.87C203.62,-279.32 203.62,-266.56 203.62,-253.97"/>
<polygon fill="none" stroke="#63b8ff" points="203.63,-253.82 199.63,-247.82 203.63,-241.82 207.63,-247.82 203.63,-253.82"/>
</a>
</g>
<text text-anchor="middle" x="242.62" y="-262.1" font-family="Arial" font-size="12.00" fill="grey"> &#45;font_instance</text>
</g>
</g>
</svg>

<g id="navigator" transform="translate(0 0)" fill="#404254">
  <rect fill="#f2f5e9" fill-opacity="0.5" stroke="#606060" stroke-width=".5" x="0" y="0" width="60" height="60"/>
  <use id="zoomplus" xlink:href="#zoomPlus" x="17" y="9" onmousedown="handleZoom(evt,'in')"/>
  <use id="zoomminus" xlink:href="#zoomMin" x="42" y="9" onmousedown="handleZoom(evt,'out')"/>
  <use id="reset" xlink:href="#resetDef" x="30" y="36" onmousedown="handleReset()"/>
   <use id="arrowup" xlink:href="#arrowUp" x="0" y="0" onmousedown="handlePan(0,-1)"/>
  <use id="arrowright" xlink:href="#arrowRight" x="0" y="0" onmousedown="handlePan(1,0)"/>
  <use id="arrowdown" xlink:href="#arrowDown" x="0" y="0" onmousedown="handlePan(0,1)"/>
  <use id="arrowleft" xlink:href="#arrowLeft" x="0" y="0" onmousedown="handlePan(-1,0)"/>
</g>
<svg viewBox="0 0 15 15" width="100%" height="30px" preserveAspectRatio="xMaxYMin meet">
 <g id="arrow_out" transform="scale(0.3 0.3)">
  <a xlink:href="classssd1306__coll__graph_org.svg" target="_base">
   <rect id="button" ry="5" rx="5" y="6" x="6" height="38" width="38"
        fill="#f2f5e9" fill-opacity="0.5" stroke="#606060" stroke-width="1.0"/>
   <path id="arrow"
     d="M 11.500037,31.436501 C 11.940474,20.09759 22.043105,11.32322 32.158766,21.979434 L 37.068811,17.246167 C 37.068811,17.246167 37.088388,32 37.088388,32 L 22.160133,31.978069 C 22.160133,31.978069 26.997745,27.140456 26.997745,27.140456 C 18.528582,18.264221 13.291696,25.230495 11.500037,31.436501 z"
     style="fill:#404040;"/>
  </a>
 </g>
</svg>

<style type='text/css'>
<![CDATA[
[data-mouse-over-selected='false'] { opacity: 0.7; }
[data-mouse-over-selected='true']  { opacity: 1.0; }
]]>
</style>
<script type="application/ecmascript"><![CDATA[
document.addEventListener('DOMContentLoaded', (event) => {
  highlightEdges();
  highlightAdjacentNodes();
});
]]></script>
</svg>
