<?xml version="1.0" encoding="UTF-8" standalone="no"?>
<!DOCTYPE svg PUBLIC "-//W3C//DTD SVG 1.1//EN"
 "http://www.w3.org/Graphics/SVG/1.1/DTD/svg11.dtd">
<!-- Generated by graphviz version 12.2.1 (20241206.2353)
 -->
<!-- Title: ssd1306 Pages: 1 -->
<svg width="415pt" height="559pt"
 viewBox="0.00 0.00 415.25 559.00" xmlns="http://www.w3.org/2000/svg" xmlns:xlink="http://www.w3.org/1999/xlink">
<g id="graph0" class="graph" transform="scale(1 1) rotate(0) translate(4 555)">
<title>ssd1306</title>
<!-- Node1 -->
<g id="Node000001" class="node">
<title>Node1</title>
<g id="a_Node000001"><a xlink:title="This is a class to drive an ssd1306 over i2c.">
<polygon fill="#999999" stroke="none" points="407.25,-241.25 0,-241.25 0,0 407.25,0 407.25,-241.25"/>
<text text-anchor="start" x="180.75" y="-225.85" font-family="Arial" font-size="12.00">ssd1306</text>
<text text-anchor="start" x="5.5" y="-207.6" font-family="Arial" font-size="12.00">&#45;</text>
<text text-anchor="start" x="14.75" y="-207.6" font-family="Arial" font-size="12.00">uint8_t buffer</text>
<text text-anchor="start" x="5.5" y="-189.35" font-family="Arial" font-size="12.00">&#45;</text>
<text text-anchor="start" x="14.75" y="-189.35" font-family="Arial" font-size="12.00">i2c_master_dev_handle_t ssd1306_handle</text>
<text text-anchor="start" x="4" y="-171.1" font-family="Arial" font-size="12.00">+</text>
<text text-anchor="start" x="14.75" y="-171.1" font-family="Arial" font-size="12.00">ssd1306(i2c_master_dev_handle_t ssd1306_handle)</text>
<text text-anchor="start" x="4" y="-152.85" font-family="Arial" font-size="12.00">+</text>
<text text-anchor="start" x="14.75" y="-152.85" font-family="Arial" font-size="12.00">void write_string_SSD1306(std::string word, uint8_t x_pos, uint8_t y_pos)</text>
<text text-anchor="start" x="4" y="-134.6" font-family="Arial" font-size="12.00">+</text>
<text text-anchor="start" x="14.75" y="-134.6" font-family="Arial" font-size="12.00">void clear_buffer()</text>
<text text-anchor="start" x="4" y="-116.35" font-family="Arial" font-size="12.00">+</text>
<text text-anchor="start" x="14.75" y="-116.35" font-family="Arial" font-size="12.00">void write_buffer_SSD1306()</text>
<text text-anchor="start" x="5.5" y="-98.1" font-family="Arial" font-size="12.00">&#45;</text>
<text text-anchor="start" x="14.75" y="-98.1" font-family="Arial" font-size="12.00">void send_command_SSD1306(uint8_t command)</text>
<text text-anchor="start" x="5.5" y="-79.85" font-family="Arial" font-size="12.00">&#45;</text>
<text text-anchor="start" x="14.75" y="-79.85" font-family="Arial" font-size="12.00">void send_data_SSD1306(uint8_t *data, size_t len)</text>
<text text-anchor="start" x="5.5" y="-61.6" font-family="Arial" font-size="12.00">&#45;</text>
<text text-anchor="start" x="14.75" y="-61.6" font-family="Arial" font-size="12.00">void init_SSD1306()</text>
<text text-anchor="start" x="5.5" y="-43.35" font-family="Arial" font-size="12.00">&#45;</text>
<text text-anchor="start" x="14.75" y="-43.35" font-family="Arial" font-size="12.00">void clear_SSD1306()</text>
<text text-anchor="start" x="5.5" y="-25.1" font-family="Arial" font-size="12.00">&#45;</text>
<text text-anchor="start" x="14.75" y="-25.1" font-family="Arial" font-size="12.00">void draw_pixel_SSD1306(uint8_t x, uint8_t y)</text>
<text text-anchor="start" x="5.5" y="-6.85" font-family="Arial" font-size="12.00">&#45;</text>
<text text-anchor="start" x="14.75" y="-6.85" font-family="Arial" font-size="12.00">void write_letter_SSD1306(uint8_t letter, uint8_t x_pos, uint8_t y_pos)</text>
<polygon fill="#666666" stroke="#666666" points="0,-221 0,-221 407.25,-221 407.25,-221 0,-221"/>
<polygon fill="#666666" stroke="#666666" points="0,-184.5 0,-184.5 12.75,-184.5 12.75,-184.5 0,-184.5"/>
<polygon fill="#666666" stroke="#666666" points="12.75,-184.5 12.75,-184.5 407.25,-184.5 407.25,-184.5 12.75,-184.5"/>
<polygon fill="none" stroke="#666666" points="0,0 0,-241.25 407.25,-241.25 407.25,0 0,0"/>
</a>
</g>
</g>
<!-- Node2 -->
<g id="Node000002" class="node">
<title>Node2</title>
<g id="a_Node000002"><a xlink:href="classfont.html" target="_top" xlink:title="12x16 pixel font.">
<polygon fill="white" stroke="none" points="332.25,-551 75,-551 75,-291.5 332.25,-291.5 332.25,-551"/>
<text text-anchor="start" x="193.88" y="-535.6" font-family="Arial" font-size="12.00">font</text>
<text text-anchor="start" x="80.5" y="-517.35" font-family="Arial" font-size="12.00">&#45;</text>
<text text-anchor="start" x="89.75" y="-517.35" font-family="Arial" font-size="12.00">const uint16_t * font_map</text>
<text text-anchor="start" x="80.5" y="-499.1" font-family="Arial" font-size="12.00">&#45;</text>
<text text-anchor="start" x="89.75" y="-499.1" font-family="Arial" font-size="12.00">const uint16_t zero</text>
<text text-anchor="start" x="80.5" y="-480.85" font-family="Arial" font-size="12.00">&#45;</text>
<text text-anchor="start" x="89.75" y="-480.85" font-family="Arial" font-size="12.00">const uint16_t one</text>
<text text-anchor="start" x="80.5" y="-462.6" font-family="Arial" font-size="12.00">&#45;</text>
<text text-anchor="start" x="89.75" y="-462.6" font-family="Arial" font-size="12.00">const uint16_t two</text>
<text text-anchor="start" x="80.5" y="-444.35" font-family="Arial" font-size="12.00">&#45;</text>
<text text-anchor="start" x="89.75" y="-444.35" font-family="Arial" font-size="12.00">const uint16_t three</text>
<text text-anchor="start" x="80.5" y="-426.1" font-family="Arial" font-size="12.00">&#45;</text>
<text text-anchor="start" x="89.75" y="-426.1" font-family="Arial" font-size="12.00">const uint16_t four</text>
<text text-anchor="start" x="80.5" y="-407.85" font-family="Arial" font-size="12.00">&#45;</text>
<text text-anchor="start" x="89.75" y="-407.85" font-family="Arial" font-size="12.00">const uint16_t five</text>
<text text-anchor="start" x="80.5" y="-389.6" font-family="Arial" font-size="12.00">&#45;</text>
<text text-anchor="start" x="89.75" y="-389.6" font-family="Arial" font-size="12.00">const uint16_t six</text>
<text text-anchor="start" x="80.5" y="-371.35" font-family="Arial" font-size="12.00">&#45;</text>
<text text-anchor="start" x="89.75" y="-371.35" font-family="Arial" font-size="12.00">const uint16_t seven</text>
<text text-anchor="start" x="80.5" y="-353.1" font-family="Arial" font-size="12.00">&#45;</text>
<text text-anchor="start" x="89.75" y="-353.1" font-family="Arial" font-size="12.00">const uint16_t eight</text>
<text text-anchor="start" x="89.75" y="-334.85" font-family="Arial" font-size="12.00">and 59 more...</text>
<text text-anchor="start" x="79" y="-316.6" font-family="Arial" font-size="12.00">+</text>
<text text-anchor="start" x="89.75" y="-316.6" font-family="Arial" font-size="12.00">font()</text>
<text text-anchor="start" x="79" y="-298.35" font-family="Arial" font-size="12.00">+</text>
<text text-anchor="start" x="89.75" y="-298.35" font-family="Arial" font-size="12.00">const uint16_t * get_letter(const uint8_t letter)</text>
<polygon fill="#666666" stroke="#666666" points="75,-530.75 75,-530.75 332.25,-530.75 332.25,-530.75 75,-530.75"/>
<polygon fill="#666666" stroke="#666666" points="75,-330 75,-330 87.75,-330 87.75,-330 75,-330"/>
<polygon fill="#666666" stroke="#666666" points="87.75,-330 87.75,-330 332.25,-330 332.25,-330 87.75,-330"/>
<polygon fill="none" stroke="#666666" points="75,-291.5 75,-551 332.25,-551 332.25,-291.5 75,-291.5"/>
</a>
</g>
</g>
<!-- Node2&#45;&gt;Node1 -->
<g id="edge1_Node000001_Node000002" class="edge">
<title>Node2&#45;&gt;Node1</title>
<g id="a_edge1_Node000001_Node000002"><a xlink:title=" ">
<path fill="none" stroke="#63b8ff" d="M203.62,-291.87C203.62,-279.32 203.62,-266.56 203.62,-253.97"/>
<polygon fill="none" stroke="#63b8ff" points="203.63,-253.82 199.63,-247.82 203.63,-241.82 207.63,-247.82 203.63,-253.82"/>
</a>
</g>
<text text-anchor="middle" x="242.62" y="-262.1" font-family="Arial" font-size="12.00" fill="grey"> &#45;font_instance</text>
</g>
</g>
</svg>
