<?xml version="1.0" encoding="UTF-8" standalone="no"?>
<!DOCTYPE svg PUBLIC "-//W3C//DTD SVG 1.1//EN"
 "http://www.w3.org/Graphics/SVG/1.1/DTD/svg11.dtd">
<!-- Generated by graphviz version 12.2.1 (20241206.2353)
 -->
<!-- Title: font Pages: 1 -->
<svg width="265pt" height="268pt"
 viewBox="0.00 0.00 265.25 267.50" xmlns="http://www.w3.org/2000/svg" xmlns:xlink="http://www.w3.org/1999/xlink">
<g id="graph0" class="graph" transform="scale(1 1) rotate(0) translate(4 263.5)">
<title>font</title>
<!-- Node1 -->
<g id="Node000001" class="node">
<title>Node1</title>
<g id="a_Node000001"><a xlink:title="12x16 pixel font.">
<polygon fill="#999999" stroke="none" points="257.25,-259.5 0,-259.5 0,0 257.25,0 257.25,-259.5"/>
<text text-anchor="start" x="118.88" y="-244.1" font-family="Arial" font-size="12.00">font</text>
<text text-anchor="start" x="5.5" y="-225.85" font-family="Arial" font-size="12.00">&#45;</text>
<text text-anchor="start" x="14.75" y="-225.85" font-family="Arial" font-size="12.00">const uint16_t * font_map</text>
<text text-anchor="start" x="5.5" y="-207.6" font-family="Arial" font-size="12.00">&#45;</text>
<text text-anchor="start" x="14.75" y="-207.6" font-family="Arial" font-size="12.00">const uint16_t zero</text>
<text text-anchor="start" x="5.5" y="-189.35" font-family="Arial" font-size="12.00">&#45;</text>
<text text-anchor="start" x="14.75" y="-189.35" font-family="Arial" font-size="12.00">const uint16_t one</text>
<text text-anchor="start" x="5.5" y="-171.1" font-family="Arial" font-size="12.00">&#45;</text>
<text text-anchor="start" x="14.75" y="-171.1" font-family="Arial" font-size="12.00">const uint16_t two</text>
<text text-anchor="start" x="5.5" y="-152.85" font-family="Arial" font-size="12.00">&#45;</text>
<text text-anchor="start" x="14.75" y="-152.85" font-family="Arial" font-size="12.00">const uint16_t three</text>
<text text-anchor="start" x="5.5" y="-134.6" font-family="Arial" font-size="12.00">&#45;</text>
<text text-anchor="start" x="14.75" y="-134.6" font-family="Arial" font-size="12.00">const uint16_t four</text>
<text text-anchor="start" x="5.5" y="-116.35" font-family="Arial" font-size="12.00">&#45;</text>
<text text-anchor="start" x="14.75" y="-116.35" font-family="Arial" font-size="12.00">const uint16_t five</text>
<text text-anchor="start" x="5.5" y="-98.1" font-family="Arial" font-size="12.00">&#45;</text>
<text text-anchor="start" x="14.75" y="-98.1" font-family="Arial" font-size="12.00">const uint16_t six</text>
<text text-anchor="start" x="5.5" y="-79.85" font-family="Arial" font-size="12.00">&#45;</text>
<text text-anchor="start" x="14.75" y="-79.85" font-family="Arial" font-size="12.00">const uint16_t seven</text>
<text text-anchor="start" x="5.5" y="-61.6" font-family="Arial" font-size="12.00">&#45;</text>
<text text-anchor="start" x="14.75" y="-61.6" font-family="Arial" font-size="12.00">const uint16_t eight</text>
<text text-anchor="start" x="14.75" y="-43.35" font-family="Arial" font-size="12.00">and 59 more...</text>
<text text-anchor="start" x="4" y="-25.1" font-family="Arial" font-size="12.00">+</text>
<text text-anchor="start" x="14.75" y="-25.1" font-family="Arial" font-size="12.00">font()</text>
<text text-anchor="start" x="4" y="-6.85" font-family="Arial" font-size="12.00">+</text>
<text text-anchor="start" x="14.75" y="-6.85" font-family="Arial" font-size="12.00">const uint16_t * get_letter(const uint8_t letter)</text>
<polygon fill="#666666" stroke="#666666" points="0,-239.25 0,-239.25 257.25,-239.25 257.25,-239.25 0,-239.25"/>
<polygon fill="#666666" stroke="#666666" points="0,-38.5 0,-38.5 12.75,-38.5 12.75,-38.5 0,-38.5"/>
<polygon fill="#666666" stroke="#666666" points="12.75,-38.5 12.75,-38.5 257.25,-38.5 257.25,-38.5 12.75,-38.5"/>
<polygon fill="none" stroke="#666666" points="0,0 0,-259.5 257.25,-259.5 257.25,0 0,0"/>
</a>
</g>
</g>
</g>
</svg>
