<?xml version="1.0" encoding="UTF-8" standalone="no"?>
<!DOCTYPE svg PUBLIC "-//W3C//DTD SVG 1.1//EN"
 "http://www.w3.org/Graphics/SVG/1.1/DTD/svg11.dtd">
<!-- Generated by graphviz version 12.2.1 (20241206.2353)
 -->
<!-- Title: include/tasks Pages: 1 -->
<!--zoomable 143 -->

<svg id="main" version="1.1" xmlns="http://www.w3.org/2000/svg" xmlns:xlink="http://www.w3.org/1999/xlink" xml:space="preserve" onload="init(evt)">

<style type="text/css"><![CDATA[
.node, .edge {opacity: 0.7;}
.node.selected, .edge.selected {opacity: 1;}
.edge:hover path { stroke: red; }
.edge:hover polygon { stroke: red; fill: red; }
]]></style>

<defs>
  <circle id="rim" cx="0" cy="0" r="7"/>
  <circle id="rim2" cx="0" cy="0" r="3.5"/>
  <g id="zoomPlus">
    <use xlink:href="#rim" fill="#404040"><set attributeName="fill" to="#808080" begin="zoomplus.mouseover" end="zoomplus.mouseout"/></use>
    <path d="M-4,0h8M0,-4v8" fill="none" stroke="white" stroke-width="1.5" pointer-events="none"/>
  </g>
  <g id="zoomMin">
    <use xlink:href="#rim" fill="#404040"><set attributeName="fill" to="#808080" begin="zoomminus.mouseover" end="zoomminus.mouseout"/></use>
    <path d="M-4,0h8" fill="none" stroke="white" stroke-width="1.5" pointer-events="none"/>
  </g>
  <g id="arrowUp" transform="translate(30 24)">
    <use xlink:href="#rim"/>
    <path pointer-events="none" fill="none" stroke="white" stroke-width="1.5" d="M0,-3.0v7 M-2.5,-0.5L0,-3.0L2.5,-0.5"/>
  </g>
  <g id="arrowRight" transform="rotate(90) translate(36 -43)">
    <use xlink:href="#rim"/>
    <path pointer-events="none" fill="none" stroke="white" stroke-width="1.5" d="M0,-3.0v7 M-2.5,-0.5L0,-3.0L2.5,-0.5"/>
  </g>
  <g id="arrowDown" transform="rotate(180) translate(-30 -48)">
    <use xlink:href="#rim"/>
    <path pointer-events="none" fill="none" stroke="white" stroke-width="1.5" d="M0,-3.0v7 M-2.5,-0.5L0,-3.0L2.5,-0.5"/>
  </g>
  <g id="arrowLeft" transform="rotate(270) translate(-36 17)">
    <use xlink:href="#rim"/>
    <path pointer-events="none" fill="none" stroke="white" stroke-width="1.5" d="M0,-3.0v7 M-2.5,-0.5L0,-3.0L2.5,-0.5"/>
  </g>
  <g id="resetDef">
    <use xlink:href="#rim2" fill="#404040"><set attributeName="fill" to="#808080" begin="reset.mouseover" end="reset.mouseout"/></use>
  </g>
</defs>
<script type="application/ecmascript">
var viewWidth = 1786;
var viewHeight = 143;
var sectionId = 'dynsection-0';
</script>
<script type="application/ecmascript" xlink:href="svg.min.js"/>
<svg id="graph" class="graph">
<g id="viewport">
<title>include/tasks</title>
<g id="clust1" class="cluster">
<title>clusterdir_d44c64559bbebec7f509842c48db8b23</title>
<g id="a_clust1"><a xlink:href="dir_d44c64559bbebec7f509842c48db8b23.html" target="_top" xlink:title="include">
<polygon fill="#f2f0fa" stroke="#404040" stroke-dasharray="5,2" points="8,-8 8,-126.75 1770,-126.75 1770,-8 8,-8"/>
<text text-anchor="middle" x="889" y="-111.35" font-family="Arial" font-size="12.00">include</text>
</a>
</g>
</g>
<!-- dir_4fe5cf12322eb0f9892753dc20f1484c -->
<g id="node1" class="node">
<title>dir_4fe5cf12322eb0f9892753dc20f1484c</title>
<g id="a_node1"><a xlink:href="dir_4fe5cf12322eb0f9892753dc20f1484c.html" target="_top" xlink:title="drivers">
<polygon fill="#bab1e6" stroke="#404040" points="880,-38.25 16,-38.25 16,-16 880,-16 880,-38.25"/>
<text text-anchor="middle" x="448" y="-22.85" font-family="Arial" font-size="12.00">drivers</text>
</a>
</g>
</g>
<!-- dir_9f2d1a50a06e247712ce1db5027d0725 -->
<g id="node2" class="node">
<title>dir_9f2d1a50a06e247712ce1db5027d0725</title>
<g id="a_node2"><a xlink:href="dir_9f2d1a50a06e247712ce1db5027d0725.html" target="_top" xlink:title="supporting">
<polygon fill="#bab1e6" stroke="#404040" points="1762,-38.25 898,-38.25 898,-16 1762,-16 1762,-38.25"/>
<text text-anchor="middle" x="1330" y="-22.85" font-family="Arial" font-size="12.00">supporting</text>
</a>
</g>
</g>
<!-- dir_82c971ab0d5e5ccdaf3e4293caecc069 -->
<g id="node3" class="node">
<title>dir_82c971ab0d5e5ccdaf3e4293caecc069</title>
<g id="a_node3"><a xlink:href="dir_82c971ab0d5e5ccdaf3e4293caecc069.html" target="_top" xlink:title="tasks">
<polygon fill="#f2f0fa" stroke="#404040" stroke-width="2" points="1321,-96.5 457,-96.5 457,-74.25 1321,-74.25 1321,-96.5"/>
<text text-anchor="middle" x="889" y="-81.1" font-family="Arial" font-size="12.00">tasks</text>
</a>
</g>
</g>
<!-- dir_82c971ab0d5e5ccdaf3e4293caecc069&#45;&gt;dir_4fe5cf12322eb0f9892753dc20f1484c -->
<g id="edge1" class="edge">
<title>dir_82c971ab0d5e5ccdaf3e4293caecc069&#45;&gt;dir_4fe5cf12322eb0f9892753dc20f1484c</title>
<g id="a_edge1"><a xlink:href="dir_000008_000000.html" target="_top">
<path fill="none" stroke="#63b8ff" d="M805.79,-73.76C730.85,-64.2 620.77,-50.16 542.53,-40.18"/>
<polygon fill="#63b8ff" stroke="#63b8ff" points="543.09,-36.73 532.73,-38.93 542.2,-43.67 543.09,-36.73"/>
</a>
</g>
<g id="a_edge1&#45;headlabel"><a xlink:href="dir_000008_000000.html" target="_top" xlink:title="3">
<text text-anchor="middle" x="545.51" y="-29.9" font-family="Arial" font-size="12.00" fill="#63b8ff">3</text>
</a>
</g>
</g>
<!-- dir_82c971ab0d5e5ccdaf3e4293caecc069&#45;&gt;dir_9f2d1a50a06e247712ce1db5027d0725 -->
<g id="edge2" class="edge">
<title>dir_82c971ab0d5e5ccdaf3e4293caecc069&#45;&gt;dir_9f2d1a50a06e247712ce1db5027d0725</title>
<g id="a_edge2"><a xlink:href="dir_000008_000006.html" target="_top">
<path fill="none" stroke="#63b8ff" d="M972.21,-73.76C1047.15,-64.2 1157.23,-50.16 1235.47,-40.18"/>
<polygon fill="#63b8ff" stroke="#63b8ff" points="1235.8,-43.67 1245.27,-38.93 1234.91,-36.73 1235.8,-43.67"/>
</a>
</g>
<g id="a_edge2&#45;headlabel"><a xlink:href="dir_000008_000006.html" target="_top" xlink:title="2">
<text text-anchor="middle" x="1234.09" y="-42.47" font-family="Arial" font-size="12.00" fill="#63b8ff">2</text>
</a>
</g>
</g>
</g>
</svg>

<g id="navigator" transform="translate(0 0)" fill="#404254">
  <rect fill="#f2f5e9" fill-opacity="0.5" stroke="#606060" stroke-width=".5" x="0" y="0" width="60" height="60"/>
  <use id="zoomplus" xlink:href="#zoomPlus" x="17" y="9" onmousedown="handleZoom(evt,'in')"/>
  <use id="zoomminus" xlink:href="#zoomMin" x="42" y="9" onmousedown="handleZoom(evt,'out')"/>
  <use id="reset" xlink:href="#resetDef" x="30" y="36" onmousedown="handleReset()"/>
   <use id="arrowup" xlink:href="#arrowUp" x="0" y="0" onmousedown="handlePan(0,-1)"/>
  <use id="arrowright" xlink:href="#arrowRight" x="0" y="0" onmousedown="handlePan(1,0)"/>
  <use id="arrowdown" xlink:href="#arrowDown" x="0" y="0" onmousedown="handlePan(0,1)"/>
  <use id="arrowleft" xlink:href="#arrowLeft" x="0" y="0" onmousedown="handlePan(-1,0)"/>
</g>
<svg viewBox="0 0 15 15" width="100%" height="30px" preserveAspectRatio="xMaxYMin meet">
 <g id="arrow_out" transform="scale(0.3 0.3)">
  <a xlink:href="dir_82c971ab0d5e5ccdaf3e4293caecc069_dep_org.svg" target="_base">
   <rect id="button" ry="5" rx="5" y="6" x="6" height="38" width="38"
        fill="#f2f5e9" fill-opacity="0.5" stroke="#606060" stroke-width="1.0"/>
   <path id="arrow"
     d="M 11.500037,31.436501 C 11.940474,20.09759 22.043105,11.32322 32.158766,21.979434 L 37.068811,17.246167 C 37.068811,17.246167 37.088388,32 37.088388,32 L 22.160133,31.978069 C 22.160133,31.978069 26.997745,27.140456 26.997745,27.140456 C 18.528582,18.264221 13.291696,25.230495 11.500037,31.436501 z"
     style="fill:#404040;"/>
  </a>
 </g>
</svg>

<style type='text/css'>
<![CDATA[
[data-mouse-over-selected='false'] { opacity: 0.7; }
[data-mouse-over-selected='true']  { opacity: 1.0; }
]]>
</style>
<script type="application/ecmascript"><![CDATA[
document.addEventListener('DOMContentLoaded', (event) => {
  highlightEdges();
  highlightAdjacentNodes();
});
]]></script>
</svg>
