<?xml version="1.0" encoding="UTF-8" standalone="no"?>
<!DOCTYPE svg PUBLIC "-//W3C//DTD SVG 1.1//EN"
 "http://www.w3.org/Graphics/SVG/1.1/DTD/svg11.dtd">
<!-- Generated by graphviz version 12.2.1 (20241206.2353)
 -->
<!-- Title: main Pages: 1 -->
<svg width="4432pt" height="105pt"
 viewBox="0.00 0.00 4432.00 104.50" xmlns="http://www.w3.org/2000/svg" xmlns:xlink="http://www.w3.org/1999/xlink">
<g id="graph0" class="graph" transform="scale(1 1) rotate(0) translate(4 100.5)">
<title>main</title>
<g id="clust1" class="cluster">
<title>clusterdir_5c982d53a68cdbcd421152b4020263a9</title>
<g id="a_clust1"><a xlink:href="dir_5c982d53a68cdbcd421152b4020263a9.html" target="_top">
<polygon fill="#f2f0fa" stroke="#404040" stroke-width="2" points="8,-50.25 8,-88.5 4416,-88.5 4416,-50.25 8,-50.25"/>
</a>
</g>
</g>
<!-- dir_5c982d53a68cdbcd421152b4020263a9 -->
<g id="node1" class="node">
<title>dir_5c982d53a68cdbcd421152b4020263a9</title>
<text text-anchor="middle" x="448" y="-65.1" font-family="Arial" font-size="12.00">main</text>
</g>
<!-- dir_d44c64559bbebec7f509842c48db8b23 -->
<g id="node6" class="node">
<title>dir_d44c64559bbebec7f509842c48db8b23</title>
<g id="a_node6"><a xlink:href="dir_d44c64559bbebec7f509842c48db8b23.html" target="_top" xlink:title="include">
<polygon fill="#f2f0fa" stroke="red" points="2644,-22.25 1780,-22.25 1780,0 2644,0 2644,-22.25"/>
<text text-anchor="middle" x="2212" y="-6.85" font-family="Arial" font-size="12.00">include</text>
</a>
</g>
</g>
<!-- dir_5c982d53a68cdbcd421152b4020263a9&#45;&gt;dir_d44c64559bbebec7f509842c48db8b23 -->
<g id="edge1" class="edge">
<title>dir_5c982d53a68cdbcd421152b4020263a9&#45;&gt;dir_d44c64559bbebec7f509842c48db8b23</title>
<g id="a_edge1"><a xlink:href="dir_000003_000002.html" target="_top">
<path fill="none" stroke="#63b8ff" d="M681.14,-58.26C748.23,-55.49 821.51,-52.61 889,-50.25 1189.11,-39.76 1527.59,-30.04 1787.05,-23.05"/>
<polygon fill="#63b8ff" stroke="#63b8ff" points="1786.77,-26.56 1796.67,-22.79 1786.58,-19.56 1786.77,-26.56"/>
</a>
</g>
<g id="a_edge1&#45;headlabel"><a xlink:href="dir_000003_000002.html" target="_top" xlink:title="26">
<text text-anchor="middle" x="1784.76" y="-25.17" font-family="Arial" font-size="12.00" fill="#63b8ff">26</text>
</a>
</g>
</g>
<!-- dir_ce9acbebd20a964a9fb527ea0a00b86e -->
<g id="node2" class="node">
<title>dir_ce9acbebd20a964a9fb527ea0a00b86e</title>
<g id="a_node2"><a xlink:href="dir_ce9acbebd20a964a9fb527ea0a00b86e.html" target="_top" xlink:title="drivers">
<polygon fill="#bab1e6" stroke="#404040" points="1762,-80.5 898,-80.5 898,-58.25 1762,-58.25 1762,-80.5"/>
<text text-anchor="middle" x="1330" y="-65.1" font-family="Arial" font-size="12.00">drivers</text>
</a>
</g>
</g>
<!-- dir_ce9acbebd20a964a9fb527ea0a00b86e&#45;&gt;dir_d44c64559bbebec7f509842c48db8b23 -->
<g id="edge2" class="edge">
<title>dir_ce9acbebd20a964a9fb527ea0a00b86e&#45;&gt;dir_d44c64559bbebec7f509842c48db8b23</title>
<g id="a_edge2"><a xlink:href="dir_000001_000002.html" target="_top">
<path fill="none" stroke="#63b8ff" d="M1496.42,-57.76C1649.98,-47.97 1877.33,-33.47 2034.37,-23.45"/>
<polygon fill="#63b8ff" stroke="#63b8ff" points="2034.28,-26.97 2044.04,-22.84 2033.84,-19.98 2034.28,-26.97"/>
</a>
</g>
<g id="a_edge2&#45;headlabel"><a xlink:href="dir_000001_000002.html" target="_top" xlink:title="5">
<text text-anchor="middle" x="2032.39" y="-25.66" font-family="Arial" font-size="12.00" fill="#63b8ff">5</text>
</a>
</g>
</g>
<!-- dir_1e3bb530acb0c66f9dd77483f2d44dda -->
<g id="node3" class="node">
<title>dir_1e3bb530acb0c66f9dd77483f2d44dda</title>
<g id="a_node3"><a xlink:href="dir_1e3bb530acb0c66f9dd77483f2d44dda.html" target="_top" xlink:title="setup">
<polygon fill="#bab1e6" stroke="#404040" points="2644,-80.5 1780,-80.5 1780,-58.25 2644,-58.25 2644,-80.5"/>
<text text-anchor="middle" x="2212" y="-65.1" font-family="Arial" font-size="12.00">setup</text>
</a>
</g>
</g>
<!-- dir_1e3bb530acb0c66f9dd77483f2d44dda&#45;&gt;dir_d44c64559bbebec7f509842c48db8b23 -->
<g id="edge3" class="edge">
<title>dir_1e3bb530acb0c66f9dd77483f2d44dda&#45;&gt;dir_d44c64559bbebec7f509842c48db8b23</title>
<g id="a_edge3"><a xlink:href="dir_000005_000002.html" target="_top">
<path fill="none" stroke="#63b8ff" d="M2212,-57.79C2212,-51.12 2212,-42.24 2212,-34.09"/>
<polygon fill="#63b8ff" stroke="#63b8ff" points="2215.5,-34.17 2212,-24.17 2208.5,-34.17 2215.5,-34.17"/>
</a>
</g>
<g id="a_edge3&#45;headlabel"><a xlink:href="dir_000005_000002.html" target="_top" xlink:title="5">
<text text-anchor="middle" x="2218.34" y="-31.98" font-family="Arial" font-size="12.00" fill="#63b8ff">5</text>
</a>
</g>
</g>
<!-- dir_125ad5345ea6726cbc53fe03c8e89125 -->
<g id="node4" class="node">
<title>dir_125ad5345ea6726cbc53fe03c8e89125</title>
<g id="a_node4"><a xlink:href="dir_125ad5345ea6726cbc53fe03c8e89125.html" target="_top" xlink:title="supporting">
<polygon fill="#bab1e6" stroke="#404040" points="3526,-80.5 2662,-80.5 2662,-58.25 3526,-58.25 3526,-80.5"/>
<text text-anchor="middle" x="3094" y="-65.1" font-family="Arial" font-size="12.00">supporting</text>
</a>
</g>
</g>
<!-- dir_125ad5345ea6726cbc53fe03c8e89125&#45;&gt;dir_d44c64559bbebec7f509842c48db8b23 -->
<g id="edge4" class="edge">
<title>dir_125ad5345ea6726cbc53fe03c8e89125&#45;&gt;dir_d44c64559bbebec7f509842c48db8b23</title>
<g id="a_edge4"><a xlink:href="dir_000007_000002.html" target="_top">
<path fill="none" stroke="#63b8ff" d="M2927.58,-57.76C2774.02,-47.97 2546.67,-33.47 2389.63,-23.45"/>
<polygon fill="#63b8ff" stroke="#63b8ff" points="2390.16,-19.98 2379.96,-22.84 2389.72,-26.97 2390.16,-19.98"/>
</a>
</g>
<g id="a_edge4&#45;headlabel"><a xlink:href="dir_000007_000002.html" target="_top" xlink:title="3">
<text text-anchor="middle" x="2392.42" y="-13" font-family="Arial" font-size="12.00" fill="#63b8ff">3</text>
</a>
</g>
</g>
<!-- dir_76dd8867a16d204aa2db31affc56d971 -->
<g id="node5" class="node">
<title>dir_76dd8867a16d204aa2db31affc56d971</title>
<g id="a_node5"><a xlink:href="dir_76dd8867a16d204aa2db31affc56d971.html" target="_top" xlink:title="tasks">
<polygon fill="#bab1e6" stroke="#404040" points="4408,-80.5 3544,-80.5 3544,-58.25 4408,-58.25 4408,-80.5"/>
<text text-anchor="middle" x="3976" y="-65.1" font-family="Arial" font-size="12.00">tasks</text>
</a>
</g>
</g>
<!-- dir_76dd8867a16d204aa2db31affc56d971&#45;&gt;dir_d44c64559bbebec7f509842c48db8b23 -->
<g id="edge5" class="edge">
<title>dir_76dd8867a16d204aa2db31affc56d971&#45;&gt;dir_d44c64559bbebec7f509842c48db8b23</title>
<g id="a_edge5"><a xlink:href="dir_000009_000002.html" target="_top">
<path fill="none" stroke="#63b8ff" d="M3730.52,-57.75C3666.85,-55.14 3598.37,-52.47 3535,-50.25 3234.89,-39.76 2896.41,-30.04 2636.95,-23.05"/>
<polygon fill="#63b8ff" stroke="#63b8ff" points="2637.42,-19.56 2627.33,-22.79 2637.23,-26.56 2637.42,-19.56"/>
</a>
</g>
<g id="a_edge5&#45;headlabel"><a xlink:href="dir_000009_000002.html" target="_top" xlink:title="4">
<text text-anchor="middle" x="2639.58" y="-12.5" font-family="Arial" font-size="12.00" fill="#63b8ff">4</text>
</a>
</g>
</g>
</g>
</svg>
