<?xml version="1.0" encoding="UTF-8" standalone="no"?>
<!DOCTYPE svg PUBLIC "-//W3C//DTD SVG 1.1//EN"
 "http://www.w3.org/Graphics/SVG/1.1/DTD/svg11.dtd">
<!-- Generated by graphviz version 12.2.1 (20241206.2353)
 -->
<!-- Title: include/tasks/display_driver_task.h Pages: 1 -->
<svg width="2342pt" height="380pt"
 viewBox="0.00 0.00 2341.62 379.75" xmlns="http://www.w3.org/2000/svg" xmlns:xlink="http://www.w3.org/1999/xlink">
<g id="graph0" class="graph" transform="scale(1 1) rotate(0) translate(4 375.75)">
<title>include/tasks/display_driver_task.h</title>
<!-- Node1 -->
<g id="Node000001" class="node">
<title>Node1</title>
<g id="a_Node000001"><a xlink:title="Contains the externs and defines for the display driver task.">
<polygon fill="#999999" stroke="#666666" points="1438,-371.75 1236,-371.75 1236,-349.5 1438,-349.5 1438,-371.75"/>
<text text-anchor="middle" x="1337" y="-356.35" font-family="Arial" font-size="12.00">include/tasks/display_driver_task.h</text>
</a>
</g>
</g>
<!-- Node2 -->
<g id="Node000002" class="node">
<title>Node2</title>
<g id="a_Node000002"><a xlink:href="all__includes_8h.html" target="_top" xlink:title="Contains the system wide includes for esp&#45;idf and c++, along with structs and enums.">
<polygon fill="white" stroke="#666666" points="1343.62,-80.5 1244.38,-80.5 1244.38,-58.25 1343.62,-58.25 1343.62,-80.5"/>
<text text-anchor="middle" x="1294" y="-65.1" font-family="Arial" font-size="12.00">../all_includes.h</text>
</a>
</g>
</g>
<!-- Node1&#45;&gt;Node2 -->
<g id="edge1_Node000001_Node000002" class="edge">
<title>Node1&#45;&gt;Node2</title>
<g id="a_edge1_Node000001_Node000002"><a xlink:title=" ">
<path fill="none" stroke="#63b8ff" d="M1340.44,-349.02C1346.62,-328.96 1359,-283.99 1359,-245.12 1359,-245.12 1359,-245.12 1359,-184.88 1359,-147.07 1331.87,-110.33 1312.67,-89.05"/>
<polygon fill="#63b8ff" stroke="#63b8ff" points="1315.46,-86.91 1306.06,-82.02 1310.36,-91.71 1315.46,-86.91"/>
</a>
</g>
</g>
<!-- Node27 -->
<g id="Node000027" class="node">
<title>Node27</title>
<g id="a_Node000027"><a xlink:href="pinout_8h.html" target="_top" xlink:title="This is the file that contains the pinout and other configuration information.">
<polygon fill="white" stroke="#666666" points="1202.88,-138.75 1135.12,-138.75 1135.12,-116.5 1202.88,-116.5 1202.88,-138.75"/>
<text text-anchor="middle" x="1169" y="-123.35" font-family="Arial" font-size="12.00">../pinout.h</text>
</a>
</g>
</g>
<!-- Node1&#45;&gt;Node27 -->
<g id="edge26_Node000001_Node000027" class="edge">
<title>Node1&#45;&gt;Node27</title>
<g id="a_edge26_Node000001_Node000027"><a xlink:title=" ">
<path fill="none" stroke="#63b8ff" d="M1314.88,-349.04C1273.06,-327.48 1184.32,-273.94 1159,-197 1153.95,-181.66 1156.98,-163.56 1160.98,-149.83"/>
<polygon fill="#63b8ff" stroke="#63b8ff" points="1164.24,-151.1 1164.09,-140.51 1157.6,-148.89 1164.24,-151.1"/>
</a>
</g>
</g>
<!-- Node28 -->
<g id="Node000028" class="node">
<title>Node28</title>
<g id="a_Node000028"><a xlink:href="ssd1306_8h.html" target="_top" xlink:title=" ">
<polygon fill="white" stroke="#666666" points="1330.75,-255.25 1211.25,-255.25 1211.25,-233 1330.75,-233 1330.75,-255.25"/>
<text text-anchor="middle" x="1271" y="-239.85" font-family="Arial" font-size="12.00">../drivers/ssd1306.h</text>
</a>
</g>
</g>
<!-- Node1&#45;&gt;Node28 -->
<g id="edge28_Node000001_Node000028" class="edge">
<title>Node1&#45;&gt;Node28</title>
<g id="a_edge28_Node000001_Node000028"><a xlink:title=" ">
<path fill="none" stroke="#63b8ff" d="M1330.91,-349.06C1319.96,-330.06 1296.77,-289.83 1282.67,-265.37"/>
<polygon fill="#63b8ff" stroke="#63b8ff" points="1285.86,-263.89 1277.83,-256.98 1279.79,-267.39 1285.86,-263.89"/>
</a>
</g>
</g>
<!-- Node30 -->
<g id="Node000030" class="node">
<title>Node30</title>
<g id="a_Node000030"><a xlink:href="menus_8h.html" target="_top" xlink:title="This is the file that contains the class for menus.">
<polygon fill="white" stroke="#666666" points="1517,-313.5 1387,-313.5 1387,-291.25 1517,-291.25 1517,-313.5"/>
<text text-anchor="middle" x="1452" y="-298.1" font-family="Arial" font-size="12.00">../supporting/menus.h</text>
</a>
</g>
</g>
<!-- Node1&#45;&gt;Node30 -->
<g id="edge34_Node000001_Node000030" class="edge">
<title>Node1&#45;&gt;Node30</title>
<g id="a_edge34_Node000001_Node000030"><a xlink:title=" ">
<path fill="none" stroke="#63b8ff" d="M1358.63,-349.04C1375.98,-340.56 1400.58,-328.53 1420.17,-318.94"/>
<polygon fill="#63b8ff" stroke="#63b8ff" points="1421.66,-322.11 1429.11,-314.57 1418.59,-315.82 1421.66,-322.11"/>
</a>
</g>
</g>
<!-- Node3 -->
<g id="Node000003" class="node">
<title>Node3</title>
<g id="a_Node000003"><a xlink:title=" ">
<polygon fill="#e0e0e0" stroke="#999999" points="2333.62,-22.25 2288.38,-22.25 2288.38,0 2333.62,0 2333.62,-22.25"/>
<text text-anchor="middle" x="2311" y="-6.85" font-family="Arial" font-size="12.00">string</text>
</a>
</g>
</g>
<!-- Node2&#45;&gt;Node3 -->
<g id="edge2_Node000002_Node000003" class="edge">
<title>Node2&#45;&gt;Node3</title>
<g id="a_edge2_Node000002_Node000003"><a xlink:title=" ">
<path fill="none" stroke="#63b8ff" d="M1343.84,-67.81C1514.51,-65.61 2075.5,-56.08 2276.84,-22.34"/>
<polygon fill="#63b8ff" stroke="#63b8ff" points="2277.42,-25.79 2286.66,-20.61 2276.21,-18.9 2277.42,-25.79"/>
</a>
</g>
</g>
<!-- Node4 -->
<g id="Node000004" class="node">
<title>Node4</title>
<g id="a_Node000004"><a xlink:title=" ">
<polygon fill="#e0e0e0" stroke="#999999" points="2201.5,-22.25 2146.5,-22.25 2146.5,0 2201.5,0 2201.5,-22.25"/>
<text text-anchor="middle" x="2174" y="-6.85" font-family="Arial" font-size="12.00">string.h</text>
</a>
</g>
</g>
<!-- Node2&#45;&gt;Node4 -->
<g id="edge3_Node000002_Node000004" class="edge">
<title>Node2&#45;&gt;Node4</title>
<g id="a_edge3_Node000002_Node000004"><a xlink:title=" ">
<path fill="none" stroke="#63b8ff" d="M1344.11,-67.08C1497.9,-62.88 1962.69,-48.49 2135.06,-22.37"/>
<polygon fill="#63b8ff" stroke="#63b8ff" points="2135.41,-25.85 2144.73,-20.82 2134.31,-18.94 2135.41,-25.85"/>
</a>
</g>
</g>
<!-- Node5 -->
<g id="Node000005" class="node">
<title>Node5</title>
<g id="a_Node000005"><a xlink:title=" ">
<polygon fill="#e0e0e0" stroke="#999999" points="2270.62,-22.25 2219.38,-22.25 2219.38,0 2270.62,0 2270.62,-22.25"/>
<text text-anchor="middle" x="2245" y="-6.85" font-family="Arial" font-size="12.00">stdio.h</text>
</a>
</g>
</g>
<!-- Node2&#45;&gt;Node5 -->
<g id="edge4_Node000002_Node000005" class="edge">
<title>Node2&#45;&gt;Node5</title>
<g id="a_edge4_Node000002_Node000005"><a xlink:title=" ">
<path fill="none" stroke="#63b8ff" d="M1344.03,-67.43C1506.7,-64.13 2020.44,-51.74 2207.83,-22.38"/>
<polygon fill="#63b8ff" stroke="#63b8ff" points="2208.37,-25.84 2217.67,-20.76 2207.23,-18.93 2208.37,-25.84"/>
</a>
</g>
</g>
<!-- Node6 -->
<g id="Node000006" class="node">
<title>Node6</title>
<g id="a_Node000006"><a xlink:title=" ">
<polygon fill="#e0e0e0" stroke="#999999" points="52,-22.25 0,-22.25 0,0 52,0 52,-22.25"/>
<text text-anchor="middle" x="26" y="-6.85" font-family="Arial" font-size="12.00">math.h</text>
</a>
</g>
</g>
<!-- Node2&#45;&gt;Node6 -->
<g id="edge5_Node000002_Node000006" class="edge">
<title>Node2&#45;&gt;Node6</title>
<g id="a_edge5_Node000002_Node000006"><a xlink:title=" ">
<path fill="none" stroke="#63b8ff" d="M1243.92,-68.13C1046,-66.91 317.1,-60.03 63.57,-22.22"/>
<polygon fill="#63b8ff" stroke="#63b8ff" points="64.13,-18.77 53.71,-20.69 63.06,-25.68 64.13,-18.77"/>
</a>
</g>
</g>
<!-- Node7 -->
<g id="Node000007" class="node">
<title>Node7</title>
<g id="a_Node000007"><a xlink:title=" ">
<polygon fill="#e0e0e0" stroke="#999999" points="143.88,-22.25 70.12,-22.25 70.12,0 143.88,0 143.88,-22.25"/>
<text text-anchor="middle" x="107" y="-6.85" font-family="Arial" font-size="12.00">esp_now.h</text>
</a>
</g>
</g>
<!-- Node2&#45;&gt;Node7 -->
<g id="edge6_Node000002_Node000007" class="edge">
<title>Node2&#45;&gt;Node7</title>
<g id="a_edge6_Node000002_Node000007"><a xlink:title=" ">
<path fill="none" stroke="#63b8ff" d="M1244.19,-67.53C1056.44,-64.17 390.72,-50.59 155.52,-22.31"/>
<polygon fill="#63b8ff" stroke="#63b8ff" points="156.17,-18.87 145.81,-21.1 155.3,-25.82 156.17,-18.87"/>
</a>
</g>
</g>
<!-- Node8 -->
<g id="Node000008" class="node">
<title>Node8</title>
<g id="a_Node000008"><a xlink:title=" ">
<polygon fill="#e0e0e0" stroke="#999999" points="232,-22.25 162,-22.25 162,0 232,0 232,-22.25"/>
<text text-anchor="middle" x="197" y="-6.85" font-family="Arial" font-size="12.00">esp_wifi.h</text>
</a>
</g>
</g>
<!-- Node2&#45;&gt;Node8 -->
<g id="edge7_Node000002_Node000008" class="edge">
<title>Node2&#45;&gt;Node8</title>
<g id="a_edge7_Node000002_Node000008"><a xlink:title=" ">
<path fill="none" stroke="#63b8ff" d="M1244.04,-67.4C1065.74,-63.72 460.33,-49.58 243.69,-22.34"/>
<polygon fill="#63b8ff" stroke="#63b8ff" points="244.31,-18.89 233.94,-21.06 243.4,-25.83 244.31,-18.89"/>
</a>
</g>
</g>
<!-- Node9 -->
<g id="Node000009" class="node">
<title>Node9</title>
<g id="a_Node000009"><a xlink:title=" ">
<polygon fill="#e0e0e0" stroke="#999999" points="318.25,-22.25 249.75,-22.25 249.75,0 318.25,0 318.25,-22.25"/>
<text text-anchor="middle" x="284" y="-6.85" font-family="Arial" font-size="12.00">esp_log.h</text>
</a>
</g>
</g>
<!-- Node2&#45;&gt;Node9 -->
<g id="edge8_Node000002_Node000009" class="edge">
<title>Node2&#45;&gt;Node9</title>
<g id="a_edge8_Node000002_Node000009"><a xlink:title=" ">
<path fill="none" stroke="#63b8ff" d="M1244.07,-67.17C1075.76,-62.92 529.1,-47.62 329.69,-22.17"/>
<polygon fill="#63b8ff" stroke="#63b8ff" points="330.35,-18.72 319.98,-20.87 329.43,-25.66 330.35,-18.72"/>
</a>
</g>
</g>
<!-- Node10 -->
<g id="Node000010" class="node">
<title>Node10</title>
<g id="a_Node000010"><a xlink:title=" ">
<polygon fill="#e0e0e0" stroke="#999999" points="411.25,-22.25 336.75,-22.25 336.75,0 411.25,0 411.25,-22.25"/>
<text text-anchor="middle" x="374" y="-6.85" font-family="Arial" font-size="12.00">esp_mac.h</text>
</a>
</g>
</g>
<!-- Node2&#45;&gt;Node10 -->
<g id="edge9_Node000002_Node000010" class="edge">
<title>Node2&#45;&gt;Node10</title>
<g id="a_edge9_Node000002_Node000010"><a xlink:title=" ">
<path fill="none" stroke="#63b8ff" d="M1243.97,-68.59C1111.41,-68.57 740.14,-64.53 422.83,-22.43"/>
<polygon fill="#63b8ff" stroke="#63b8ff" points="423.44,-18.98 413.07,-21.12 422.51,-25.92 423.44,-18.98"/>
</a>
</g>
</g>
<!-- Node11 -->
<g id="Node000011" class="node">
<title>Node11</title>
<g id="a_Node000011"><a xlink:title=" ">
<polygon fill="#e0e0e0" stroke="#999999" points="554.75,-22.25 429.25,-22.25 429.25,0 554.75,0 554.75,-22.25"/>
<text text-anchor="middle" x="492" y="-6.85" font-family="Arial" font-size="12.00">freertos/FreeRTOS.h</text>
</a>
</g>
</g>
<!-- Node2&#45;&gt;Node11 -->
<g id="edge10_Node000002_Node000011" class="edge">
<title>Node2&#45;&gt;Node11</title>
<g id="a_edge10_Node000002_Node000011"><a xlink:title=" ">
<path fill="none" stroke="#63b8ff" d="M1243.89,-66.53C1127.09,-61.96 827.53,-48.57 566.41,-22.42"/>
<polygon fill="#63b8ff" stroke="#63b8ff" points="566.99,-18.96 556.69,-21.44 566.29,-25.93 566.99,-18.96"/>
</a>
</g>
</g>
<!-- Node12 -->
<g id="Node000012" class="node">
<title>Node12</title>
<g id="a_Node000012"><a xlink:title=" ">
<polygon fill="#e0e0e0" stroke="#999999" points="663.12,-22.25 572.88,-22.25 572.88,0 663.12,0 663.12,-22.25"/>
<text text-anchor="middle" x="618" y="-6.85" font-family="Arial" font-size="12.00">freertos/task.h</text>
</a>
</g>
</g>
<!-- Node2&#45;&gt;Node12 -->
<g id="edge11_Node000002_Node000012" class="edge">
<title>Node2&#45;&gt;Node12</title>
<g id="a_edge11_Node000002_Node000012"><a xlink:title=" ">
<path fill="none" stroke="#63b8ff" d="M1244.22,-66.57C1140.29,-62.38 892.46,-50.29 674.93,-22.51"/>
<polygon fill="#63b8ff" stroke="#63b8ff" points="675.48,-19.05 665.11,-21.24 674.58,-25.99 675.48,-19.05"/>
</a>
</g>
</g>
<!-- Node13 -->
<g id="Node000013" class="node">
<title>Node13</title>
<g id="a_Node000013"><a xlink:title=" ">
<polygon fill="#e0e0e0" stroke="#999999" points="783.12,-22.25 680.88,-22.25 680.88,0 783.12,0 783.12,-22.25"/>
<text text-anchor="middle" x="732" y="-6.85" font-family="Arial" font-size="12.00">freertos/queue.h</text>
</a>
</g>
</g>
<!-- Node2&#45;&gt;Node13 -->
<g id="edge12_Node000002_Node000013" class="edge">
<title>Node2&#45;&gt;Node13</title>
<g id="a_edge12_Node000002_Node000013"><a xlink:title=" ">
<path fill="none" stroke="#63b8ff" d="M1244.09,-64.99C1155.78,-58.73 965.98,-44.11 794.79,-22.39"/>
<polygon fill="#63b8ff" stroke="#63b8ff" points="795.41,-18.94 785.05,-21.14 794.52,-25.89 795.41,-18.94"/>
</a>
</g>
</g>
<!-- Node14 -->
<g id="Node000014" class="node">
<title>Node14</title>
<g id="a_Node000014"><a xlink:title=" ">
<polygon fill="#e0e0e0" stroke="#999999" points="902.38,-22.25 801.62,-22.25 801.62,0 902.38,0 902.38,-22.25"/>
<text text-anchor="middle" x="852" y="-6.85" font-family="Arial" font-size="12.00">freertos/timers.h</text>
</a>
</g>
</g>
<!-- Node2&#45;&gt;Node14 -->
<g id="edge13_Node000002_Node000014" class="edge">
<title>Node2&#45;&gt;Node14</title>
<g id="a_edge13_Node000002_Node000014"><a xlink:title=" ">
<path fill="none" stroke="#63b8ff" d="M1244.01,-63.16C1172.93,-55.57 1038.31,-40.55 914.04,-22.64"/>
<polygon fill="#63b8ff" stroke="#63b8ff" points="914.72,-19.2 904.32,-21.23 913.71,-26.13 914.72,-19.2"/>
</a>
</g>
</g>
<!-- Node15 -->
<g id="Node000015" class="node">
<title>Node15</title>
<g id="a_Node000015"><a xlink:title=" ">
<polygon fill="#e0e0e0" stroke="#999999" points="1002,-22.25 920,-22.25 920,0 1002,0 1002,-22.25"/>
<text text-anchor="middle" x="961" y="-6.85" font-family="Arial" font-size="12.00">driver/gpio.h</text>
</a>
</g>
</g>
<!-- Node2&#45;&gt;Node15 -->
<g id="edge14_Node000002_Node000015" class="edge">
<title>Node2&#45;&gt;Node15</title>
<g id="a_edge14_Node000002_Node000015"><a xlink:title=" ">
<path fill="none" stroke="#63b8ff" d="M1244.06,-60.83C1189.76,-52.49 1100.14,-38.34 1013.54,-22.66"/>
<polygon fill="#63b8ff" stroke="#63b8ff" points="1014.4,-19.26 1003.94,-20.92 1013.15,-26.15 1014.4,-19.26"/>
</a>
</g>
</g>
<!-- Node16 -->
<g id="Node000016" class="node">
<title>Node16</title>
<g id="a_Node000016"><a xlink:title=" ">
<polygon fill="#e0e0e0" stroke="#999999" points="1136.25,-22.25 1019.75,-22.25 1019.75,0 1136.25,0 1136.25,-22.25"/>
<text text-anchor="middle" x="1078" y="-6.85" font-family="Arial" font-size="12.00">driver/i2c_master.h</text>
</a>
</g>
</g>
<!-- Node2&#45;&gt;Node16 -->
<g id="edge15_Node000002_Node000016" class="edge">
<title>Node2&#45;&gt;Node16</title>
<g id="a_edge15_Node000002_Node000016"><a xlink:title=" ">
<path fill="none" stroke="#63b8ff" d="M1253.37,-57.79C1218.22,-48.64 1167.23,-35.36 1129.28,-25.48"/>
<polygon fill="#63b8ff" stroke="#63b8ff" points="1130.47,-22.17 1119.91,-23.04 1128.71,-28.95 1130.47,-22.17"/>
</a>
</g>
</g>
<!-- Node17 -->
<g id="Node000017" class="node">
<title>Node17</title>
<g id="a_Node000017"><a xlink:title=" ">
<polygon fill="#e0e0e0" stroke="#999999" points="1235.25,-22.25 1154.75,-22.25 1154.75,0 1235.25,0 1235.25,-22.25"/>
<text text-anchor="middle" x="1195" y="-6.85" font-family="Arial" font-size="12.00">driver/twai.h</text>
</a>
</g>
</g>
<!-- Node2&#45;&gt;Node17 -->
<g id="edge16_Node000002_Node000017" class="edge">
<title>Node2&#45;&gt;Node17</title>
<g id="a_edge16_Node000002_Node000017"><a xlink:title=" ">
<path fill="none" stroke="#63b8ff" d="M1275.38,-57.79C1260.72,-49.47 1240.05,-37.72 1223.34,-28.23"/>
<polygon fill="#63b8ff" stroke="#63b8ff" points="1225.28,-25.3 1214.85,-23.41 1221.82,-31.39 1225.28,-25.3"/>
</a>
</g>
</g>
<!-- Node18 -->
<g id="Node000018" class="node">
<title>Node18</title>
<g id="a_Node000018"><a xlink:title=" ">
<polygon fill="#e0e0e0" stroke="#999999" points="1334.62,-22.25 1253.38,-22.25 1253.38,0 1334.62,0 1334.62,-22.25"/>
<text text-anchor="middle" x="1294" y="-6.85" font-family="Arial" font-size="12.00">driver/ledc.h</text>
</a>
</g>
</g>
<!-- Node2&#45;&gt;Node18 -->
<g id="edge17_Node000002_Node000018" class="edge">
<title>Node2&#45;&gt;Node18</title>
<g id="a_edge17_Node000002_Node000018"><a xlink:title=" ">
<path fill="none" stroke="#63b8ff" d="M1294,-57.79C1294,-51.12 1294,-42.24 1294,-34.09"/>
<polygon fill="#63b8ff" stroke="#63b8ff" points="1297.5,-34.17 1294,-24.17 1290.5,-34.17 1297.5,-34.17"/>
</a>
</g>
</g>
<!-- Node19 -->
<g id="Node000019" class="node">
<title>Node19</title>
<g id="a_Node000019"><a xlink:title=" ">
<polygon fill="#e0e0e0" stroke="#999999" points="1441.75,-22.25 1352.25,-22.25 1352.25,0 1441.75,0 1441.75,-22.25"/>
<text text-anchor="middle" x="1397" y="-6.85" font-family="Arial" font-size="12.00">esp_system.h</text>
</a>
</g>
</g>
<!-- Node2&#45;&gt;Node19 -->
<g id="edge18_Node000002_Node000019" class="edge">
<title>Node2&#45;&gt;Node19</title>
<g id="a_edge18_Node000002_Node000019"><a xlink:title=" ">
<path fill="none" stroke="#63b8ff" d="M1313.37,-57.79C1328.77,-49.39 1350.54,-37.5 1368.01,-27.96"/>
<polygon fill="#63b8ff" stroke="#63b8ff" points="1369.29,-31.25 1376.38,-23.38 1365.93,-25.1 1369.29,-31.25"/>
</a>
</g>
</g>
<!-- Node20 -->
<g id="Node000020" class="node">
<title>Node20</title>
<g id="a_Node000020"><a xlink:title=" ">
<polygon fill="#e0e0e0" stroke="#999999" points="1526.5,-22.25 1459.5,-22.25 1459.5,0 1526.5,0 1526.5,-22.25"/>
<text text-anchor="middle" x="1493" y="-6.85" font-family="Arial" font-size="12.00">espnow.h</text>
</a>
</g>
</g>
<!-- Node2&#45;&gt;Node20 -->
<g id="edge19_Node000002_Node000020" class="edge">
<title>Node2&#45;&gt;Node20</title>
<g id="a_edge19_Node000002_Node000020"><a xlink:title=" ">
<path fill="none" stroke="#63b8ff" d="M1331.43,-57.79C1364.55,-48.43 1412.95,-34.75 1448.13,-24.81"/>
<polygon fill="#63b8ff" stroke="#63b8ff" points="1448.93,-28.22 1457.6,-22.13 1447.02,-21.48 1448.93,-28.22"/>
</a>
</g>
</g>
<!-- Node21 -->
<g id="Node000021" class="node">
<title>Node21</title>
<g id="a_Node000021"><a xlink:title=" ">
<polygon fill="#e0e0e0" stroke="#999999" points="1625.62,-22.25 1544.38,-22.25 1544.38,0 1625.62,0 1625.62,-22.25"/>
<text text-anchor="middle" x="1585" y="-6.85" font-family="Arial" font-size="12.00">esp_event.h</text>
</a>
</g>
</g>
<!-- Node2&#45;&gt;Node21 -->
<g id="edge20_Node000002_Node000021" class="edge">
<title>Node2&#45;&gt;Node21</title>
<g id="a_edge20_Node000002_Node000021"><a xlink:title=" ">
<path fill="none" stroke="#63b8ff" d="M1344.1,-59.06C1390.68,-50.35 1462.3,-36.82 1533.19,-22.79"/>
<polygon fill="#63b8ff" stroke="#63b8ff" points="1533.49,-26.3 1542.62,-20.92 1532.13,-19.43 1533.49,-26.3"/>
</a>
</g>
</g>
<!-- Node22 -->
<g id="Node000022" class="node">
<title>Node22</title>
<g id="a_Node000022"><a xlink:title=" ">
<polygon fill="#e0e0e0" stroke="#999999" points="1720.38,-22.25 1643.62,-22.25 1643.62,0 1720.38,0 1720.38,-22.25"/>
<text text-anchor="middle" x="1682" y="-6.85" font-family="Arial" font-size="12.00">nvs_flash.h</text>
</a>
</g>
</g>
<!-- Node2&#45;&gt;Node22 -->
<g id="edge21_Node000002_Node000022" class="edge">
<title>Node2&#45;&gt;Node22</title>
<g id="a_edge21_Node000002_Node000022"><a xlink:title=" ">
<path fill="none" stroke="#63b8ff" d="M1343.88,-62.86C1408.27,-55.47 1524.01,-41.26 1632.2,-22.64"/>
<polygon fill="#63b8ff" stroke="#63b8ff" points="1632.57,-26.13 1641.83,-20.97 1631.37,-19.23 1632.57,-26.13"/>
</a>
</g>
</g>
<!-- Node23 -->
<g id="Node000023" class="node">
<title>Node23</title>
<g id="a_Node000023"><a xlink:title=" ">
<polygon fill="#e0e0e0" stroke="#999999" points="1829.12,-22.25 1738.88,-22.25 1738.88,0 1829.12,0 1829.12,-22.25"/>
<text text-anchor="middle" x="1784" y="-6.85" font-family="Arial" font-size="12.00">espnow_ctrl.h</text>
</a>
</g>
</g>
<!-- Node2&#45;&gt;Node23 -->
<g id="edge22_Node000002_Node000023" class="edge">
<title>Node2&#45;&gt;Node23</title>
<g id="a_edge22_Node000002_Node000023"><a xlink:title=" ">
<path fill="none" stroke="#63b8ff" d="M1344.06,-64.32C1423.09,-57.64 1581.82,-43.12 1727.1,-22.42"/>
<polygon fill="#63b8ff" stroke="#63b8ff" points="1727.53,-25.9 1736.93,-21.01 1726.53,-18.97 1727.53,-25.9"/>
</a>
</g>
</g>
<!-- Node24 -->
<g id="Node000024" class="node">
<title>Node24</title>
<g id="a_Node000024"><a xlink:title=" ">
<polygon fill="#e0e0e0" stroke="#999999" points="1943.12,-22.25 1846.88,-22.25 1846.88,0 1943.12,0 1943.12,-22.25"/>
<text text-anchor="middle" x="1895" y="-6.85" font-family="Arial" font-size="12.00">espnow_utils.h</text>
</a>
</g>
</g>
<!-- Node2&#45;&gt;Node24 -->
<g id="edge23_Node000002_Node000024" class="edge">
<title>Node2&#45;&gt;Node24</title>
<g id="a_edge23_Node000002_Node000024"><a xlink:title=" ">
<path fill="none" stroke="#63b8ff" d="M1344.04,-65.66C1438.22,-60.23 1648.43,-46.52 1835.39,-22.49"/>
<polygon fill="#63b8ff" stroke="#63b8ff" points="1835.57,-26 1845.04,-21.24 1834.67,-19.06 1835.57,-26"/>
</a>
</g>
</g>
<!-- Node25 -->
<g id="Node000025" class="node">
<title>Node25</title>
<g id="a_Node000025"><a xlink:title=" ">
<polygon fill="#e0e0e0" stroke="#999999" points="2038.75,-22.25 1961.25,-22.25 1961.25,0 2038.75,0 2038.75,-22.25"/>
<text text-anchor="middle" x="2000" y="-6.85" font-family="Arial" font-size="12.00">esp_timer.h</text>
</a>
</g>
</g>
<!-- Node2&#45;&gt;Node25 -->
<g id="edge24_Node000002_Node000025" class="edge">
<title>Node2&#45;&gt;Node25</title>
<g id="a_edge24_Node000002_Node000025"><a xlink:title=" ">
<path fill="none" stroke="#63b8ff" d="M1343.77,-67.23C1452.12,-64.23 1717.57,-54.14 1949.42,-22.43"/>
<polygon fill="#63b8ff" stroke="#63b8ff" points="1949.86,-25.9 1959.29,-21.06 1948.9,-18.97 1949.86,-25.9"/>
</a>
</g>
</g>
<!-- Node26 -->
<g id="Node000026" class="node">
<title>Node26</title>
<g id="a_Node000026"><a xlink:title=" ">
<polygon fill="#e0e0e0" stroke="#999999" points="2128.75,-22.25 2057.25,-22.25 2057.25,0 2128.75,0 2128.75,-22.25"/>
<text text-anchor="middle" x="2093" y="-6.85" font-family="Arial" font-size="12.00">led_strip.h</text>
</a>
</g>
</g>
<!-- Node2&#45;&gt;Node26 -->
<g id="edge25_Node000002_Node000026" class="edge">
<title>Node2&#45;&gt;Node26</title>
<g id="a_edge25_Node000002_Node000026"><a xlink:title=" ">
<path fill="none" stroke="#63b8ff" d="M1343.68,-68.08C1463.09,-66.79 1775.72,-59.91 2046.02,-22.3"/>
<polygon fill="#63b8ff" stroke="#63b8ff" points="2046.32,-25.79 2055.74,-20.93 2045.34,-18.86 2046.32,-25.79"/>
</a>
</g>
</g>
<!-- Node27&#45;&gt;Node2 -->
<g id="edge27_Node000027_Node000002" class="edge">
<title>Node27&#45;&gt;Node2</title>
<g id="a_edge27_Node000027_Node000002"><a xlink:title=" ">
<path fill="none" stroke="#63b8ff" d="M1192.51,-116.04C1211.63,-107.44 1238.85,-95.19 1260.29,-85.54"/>
<polygon fill="#63b8ff" stroke="#63b8ff" points="1261.53,-88.82 1269.21,-81.53 1258.66,-82.44 1261.53,-88.82"/>
</a>
</g>
</g>
<!-- Node28&#45;&gt;Node2 -->
<g id="edge32_Node000028_Node000002" class="edge">
<title>Node28&#45;&gt;Node2</title>
<g id="a_edge32_Node000028_Node000002"><a xlink:title=" ">
<path fill="none" stroke="#63b8ff" d="M1280.67,-232.72C1288.13,-223.94 1297.84,-210.66 1302,-197 1312.87,-161.33 1305.87,-117.46 1299.87,-91.84"/>
<polygon fill="#63b8ff" stroke="#63b8ff" points="1303.31,-91.14 1297.47,-82.31 1296.52,-92.86 1303.31,-91.14"/>
</a>
</g>
</g>
<!-- Node28&#45;&gt;Node27 -->
<g id="edge33_Node000028_Node000027" class="edge">
<title>Node28&#45;&gt;Node27</title>
<g id="a_edge33_Node000028_Node000027"><a xlink:title=" ">
<path fill="none" stroke="#63b8ff" d="M1221.23,-232.55C1201.87,-225.77 1181.59,-214.75 1170,-197 1160.97,-183.18 1161.46,-164.2 1163.78,-149.74"/>
<polygon fill="#63b8ff" stroke="#63b8ff" points="1167.13,-150.85 1165.7,-140.35 1160.27,-149.45 1167.13,-150.85"/>
</a>
</g>
</g>
<!-- Node29 -->
<g id="Node000029" class="node">
<title>Node29</title>
<g id="a_Node000029"><a xlink:href="font_8h.html" target="_top" xlink:title="This file contains the class for the 12x16 font class.">
<polygon fill="white" stroke="#666666" points="1292.75,-197 1179.25,-197 1179.25,-174.75 1292.75,-174.75 1292.75,-197"/>
<text text-anchor="middle" x="1236" y="-181.6" font-family="Arial" font-size="12.00">../supporting/font.h</text>
</a>
</g>
</g>
<!-- Node28&#45;&gt;Node29 -->
<g id="edge29_Node000028_Node000029" class="edge">
<title>Node28&#45;&gt;Node29</title>
<g id="a_edge29_Node000028_Node000029"><a xlink:title=" ">
<path fill="none" stroke="#63b8ff" d="M1264.42,-232.54C1259.97,-225.4 1253.95,-215.73 1248.6,-207.13"/>
<polygon fill="#63b8ff" stroke="#63b8ff" points="1251.61,-205.33 1243.35,-198.69 1245.66,-209.03 1251.61,-205.33"/>
</a>
</g>
</g>
<!-- Node29&#45;&gt;Node2 -->
<g id="edge30_Node000029_Node000002" class="edge">
<title>Node29&#45;&gt;Node2</title>
<g id="a_edge30_Node000029_Node000002"><a xlink:title=" ">
<path fill="none" stroke="#63b8ff" d="M1241.35,-174.31C1250.93,-155.39 1271.17,-115.44 1283.58,-90.95"/>
<polygon fill="#63b8ff" stroke="#63b8ff" points="1286.58,-92.77 1287.98,-82.27 1280.34,-89.61 1286.58,-92.77"/>
</a>
</g>
</g>
<!-- Node29&#45;&gt;Node27 -->
<g id="edge31_Node000029_Node000027" class="edge">
<title>Node29&#45;&gt;Node27</title>
<g id="a_edge31_Node000029_Node000027"><a xlink:title=" ">
<path fill="none" stroke="#63b8ff" d="M1223.4,-174.29C1214.04,-166.44 1201.06,-155.54 1190.12,-146.36"/>
<polygon fill="#63b8ff" stroke="#63b8ff" points="1192.61,-143.88 1182.7,-140.13 1188.11,-149.24 1192.61,-143.88"/>
</a>
</g>
</g>
<!-- Node30&#45;&gt;Node3 -->
<g id="edge38_Node000030_Node000003" class="edge">
<title>Node30&#45;&gt;Node3</title>
<g id="a_edge38_Node000030_Node000003"><a xlink:title=" ">
<path fill="none" stroke="#63b8ff" d="M1517.44,-299.64C1650.69,-294.32 1941,-272.87 1941,-186.88 1941,-186.88 1941,-186.88 1941,-126.62 1941,27.48 2121.35,-65.51 2277.28,-22.85"/>
<polygon fill="#63b8ff" stroke="#63b8ff" points="2277.94,-26.3 2286.54,-20.12 2275.96,-19.59 2277.94,-26.3"/>
</a>
</g>
</g>
<!-- Node30&#45;&gt;Node28 -->
<g id="edge35_Node000030_Node000028" class="edge">
<title>Node30&#45;&gt;Node28</title>
<g id="a_edge35_Node000030_Node000028"><a xlink:title=" ">
<path fill="none" stroke="#63b8ff" d="M1417.96,-290.79C1389.01,-281.8 1347.23,-268.82 1315.61,-258.99"/>
<polygon fill="#63b8ff" stroke="#63b8ff" points="1316.93,-255.73 1306.34,-256.11 1314.85,-262.42 1316.93,-255.73"/>
</a>
</g>
</g>
<!-- Node31 -->
<g id="Node000031" class="node">
<title>Node31</title>
<g id="a_Node000031"><a xlink:href="changeable__values_8h.html" target="_top" xlink:title="Contains the information for the changeable values class, this class allows a value to be modifed by ...">
<polygon fill="white" stroke="#666666" points="1517.38,-197 1386.62,-197 1386.62,-174.75 1517.38,-174.75 1517.38,-197"/>
<text text-anchor="middle" x="1452" y="-181.6" font-family="Arial" font-size="12.00">changeable_values.h</text>
</a>
</g>
</g>
<!-- Node30&#45;&gt;Node31 -->
<g id="edge36_Node000030_Node000031" class="edge">
<title>Node30&#45;&gt;Node31</title>
<g id="a_edge36_Node000030_Node000031"><a xlink:title=" ">
<path fill="none" stroke="#63b8ff" d="M1452,-290.81C1452,-272.23 1452,-233.37 1452,-208.79"/>
<polygon fill="#63b8ff" stroke="#63b8ff" points="1455.5,-208.93 1452,-198.93 1448.5,-208.93 1455.5,-208.93"/>
</a>
</g>
</g>
<!-- Node31&#45;&gt;Node2 -->
<g id="edge37_Node000031_Node000002" class="edge">
<title>Node31&#45;&gt;Node2</title>
<g id="a_edge37_Node000031_Node000002"><a xlink:title=" ">
<path fill="none" stroke="#63b8ff" d="M1441.28,-174.46C1426.57,-160.43 1398.97,-135.07 1373,-116.5 1357.57,-105.46 1339.34,-94.69 1324.29,-86.33"/>
<polygon fill="#63b8ff" stroke="#63b8ff" points="1326.23,-83.4 1315.77,-81.68 1322.87,-89.54 1326.23,-83.4"/>
</a>
</g>
</g>
</g>
</svg>
