<?xml version="1.0" encoding="UTF-8" standalone="no"?>
<!DOCTYPE svg PUBLIC "-//W3C//DTD SVG 1.1//EN"
 "http://www.w3.org/Graphics/SVG/1.1/DTD/svg11.dtd">
<!-- Generated by graphviz version 12.2.1 (20241206.2353)
 -->
<!-- Title: display_driver_task Pages: 1 -->
<svg width="601pt" height="130pt"
 viewBox="0.00 0.00 601.25 130.25" xmlns="http://www.w3.org/2000/svg" xmlns:xlink="http://www.w3.org/1999/xlink">
<g id="graph0" class="graph" transform="scale(1 1) rotate(0) translate(4 126.25)">
<title>display_driver_task</title>
<!-- Node1 -->
<g id="Node000001" class="node">
<title>Node1</title>
<g id="a_Node000001"><a xlink:title="The display driver task.">
<polygon fill="#999999" stroke="#666666" points="119.5,-82.25 0,-82.25 0,-60 119.5,-60 119.5,-82.25"/>
<text text-anchor="middle" x="59.75" y="-66.85" font-family="Arial" font-size="12.00">display_driver_task</text>
</a>
</g>
</g>
<!-- Node2 -->
<g id="Node000002" class="node">
<title>Node2</title>
<g id="a_Node000002"><a xlink:href="classssd1306.html#a23098da61ef8c67a1b1f530526dc4507" target="_top" xlink:title="Clears the display buffer.">
<polygon fill="white" stroke="#666666" points="315.5,-122.25 184.75,-122.25 184.75,-100 315.5,-100 315.5,-122.25"/>
<text text-anchor="middle" x="250.12" y="-106.85" font-family="Arial" font-size="12.00">ssd1306::clear_buffer</text>
</a>
</g>
</g>
<!-- Node1&#45;&gt;Node2 -->
<g id="edge1_Node000001_Node000002" class="edge">
<title>Node1&#45;&gt;Node2</title>
<g id="a_edge1_Node000001_Node000002"><a xlink:title=" ">
<path fill="none" stroke="#63b8ff" d="M115.49,-82.75C136.77,-87.27 161.33,-92.48 183.54,-97.2"/>
<polygon fill="#63b8ff" stroke="#63b8ff" points="182.59,-100.57 193.09,-99.23 184.04,-93.73 182.59,-100.57"/>
</a>
</g>
</g>
<!-- Node3 -->
<g id="Node000003" class="node">
<title>Node3</title>
<g id="a_Node000003"><a xlink:href="classmenu.html#ace9a681a44f014b790e060eb82ad109d" target="_top" xlink:title="This function draws the menu to the display.">
<polygon fill="white" stroke="#666666" points="320,-82.25 180.25,-82.25 180.25,-60 320,-60 320,-82.25"/>
<text text-anchor="middle" x="250.12" y="-66.85" font-family="Arial" font-size="12.00">menu::draw_to_display</text>
</a>
</g>
</g>
<!-- Node1&#45;&gt;Node3 -->
<g id="edge2_Node000001_Node000003" class="edge">
<title>Node1&#45;&gt;Node3</title>
<g id="a_edge2_Node000001_Node000003"><a xlink:title=" ">
<path fill="none" stroke="#63b8ff" d="M119.84,-71.12C135.35,-71.12 152.35,-71.12 168.78,-71.12"/>
<polygon fill="#63b8ff" stroke="#63b8ff" points="168.52,-74.63 178.52,-71.13 168.52,-67.63 168.52,-74.63"/>
</a>
</g>
</g>
<!-- Node4 -->
<g id="Node000004" class="node">
<title>Node4</title>
<g id="a_Node000004"><a xlink:href="classssd1306.html#a8534651a9db59a3d8c5162b91457e322" target="_top" xlink:title="Writes the buffer to the display.">
<polygon fill="white" stroke="#666666" points="344.75,-42.25 155.5,-42.25 155.5,-20 344.75,-20 344.75,-42.25"/>
<text text-anchor="middle" x="250.12" y="-26.85" font-family="Arial" font-size="12.00">ssd1306::write_buffer_SSD1306</text>
</a>
</g>
</g>
<!-- Node1&#45;&gt;Node4 -->
<g id="edge3_Node000001_Node000004" class="edge">
<title>Node1&#45;&gt;Node4</title>
<g id="a_edge3_Node000001_Node000004"><a xlink:title=" ">
<path fill="none" stroke="#63b8ff" d="M115.49,-59.5C136.77,-54.98 161.33,-49.77 183.54,-45.05"/>
<polygon fill="#63b8ff" stroke="#63b8ff" points="184.04,-48.52 193.09,-43.02 182.59,-41.68 184.04,-48.52"/>
</a>
</g>
</g>
<!-- Node5 -->
<g id="Node000005" class="node">
<title>Node5</title>
<g id="a_Node000005"><a xlink:href="classssd1306.html#ab1436aa90d5c6404a1246e8f740e80b4" target="_top" xlink:title="Sends a command to the SSD1306.">
<polygon fill="white" stroke="#666666" points="593.25,-62.25 380.75,-62.25 380.75,-40 593.25,-40 593.25,-62.25"/>
<text text-anchor="middle" x="487" y="-46.85" font-family="Arial" font-size="12.00">ssd1306::send_command_SSD1306</text>
</a>
</g>
</g>
<!-- Node4&#45;&gt;Node5 -->
<g id="edge4_Node000004_Node000005" class="edge">
<title>Node4&#45;&gt;Node5</title>
<g id="a_edge4_Node000004_Node000005"><a xlink:title=" ">
<path fill="none" stroke="#63b8ff" d="M344.97,-39.12C352.87,-39.79 360.92,-40.47 368.97,-41.16"/>
<polygon fill="#63b8ff" stroke="#63b8ff" points="368.56,-44.64 378.83,-42 369.16,-37.66 368.56,-44.64"/>
</a>
</g>
</g>
<!-- Node6 -->
<g id="Node000006" class="node">
<title>Node6</title>
<g id="a_Node000006"><a xlink:href="classssd1306.html#a81795f6478fb00df3bca485ba125fb02" target="_top" xlink:title="Sends data to the SSD1306.">
<polygon fill="white" stroke="#666666" points="578.62,-22.25 395.38,-22.25 395.38,0 578.62,0 578.62,-22.25"/>
<text text-anchor="middle" x="487" y="-6.85" font-family="Arial" font-size="12.00">ssd1306::send_data_SSD1306</text>
</a>
</g>
</g>
<!-- Node4&#45;&gt;Node6 -->
<g id="edge5_Node000004_Node000006" class="edge">
<title>Node4&#45;&gt;Node6</title>
<g id="a_edge5_Node000004_Node000006"><a xlink:title=" ">
<path fill="none" stroke="#63b8ff" d="M344.97,-23.13C357.72,-22.05 370.85,-20.93 383.74,-19.83"/>
<polygon fill="#63b8ff" stroke="#63b8ff" points="383.81,-23.34 393.48,-19 383.22,-16.36 383.81,-23.34"/>
</a>
</g>
</g>
</g>
</svg>
