<?xml version="1.0" encoding="UTF-8" standalone="no"?>
<!DOCTYPE svg PUBLIC "-//W3C//DTD SVG 1.1//EN"
 "http://www.w3.org/Graphics/SVG/1.1/DTD/svg11.dtd">
<!-- Generated by graphviz version 12.2.1 (20241206.2353)
 -->
<!-- Title: include/setup/esp_now_callback_setup.h Pages: 1 -->
<svg width="479pt" height="147pt"
 viewBox="0.00 0.00 478.88 146.75" xmlns="http://www.w3.org/2000/svg" xmlns:xlink="http://www.w3.org/1999/xlink">

<svg id="main" version="1.1" xmlns="http://www.w3.org/2000/svg" xmlns:xlink="http://www.w3.org/1999/xlink" xml:space="preserve">

<style type="text/css"><![CDATA[
.node, .edge {opacity: 0.7;}
.node.selected, .edge.selected {opacity: 1;}
.edge:hover path { stroke: red; }
.edge:hover polygon { stroke: red; fill: red; }
]]></style>
<script type="application/ecmascript" xlink:href="svg.min.js"/>
<svg id="graph" class="graph">
<g id="graph0" class="graph" transform="scale(1 1) rotate(0) translate(4 142.75)">
<title>include/setup/esp_now_callback_setup.h</title>
<!-- Node1 -->
<g id="Node000001" class="node">
<title>Node1</title>
<g id="a_Node000001"><a xlink:title="Contains the callback functions for esp&#45;now.">
<polygon fill="#999999" stroke="#666666" points="356.88,-138.75 121.12,-138.75 121.12,-116.5 356.88,-116.5 356.88,-138.75"/>
<text text-anchor="middle" x="239" y="-123.35" font-family="Arial" font-size="12.00">include/setup/esp_now_callback_setup.h</text>
</a>
</g>
</g>
<!-- Node2 -->
<g id="Node000002" class="node">
<title>Node2</title>
<g id="a_Node000002"><a xlink:href="esp__now__setup_8h.html" target="_top" xlink:title="Contains the code that sets up the ESP&#45;NOW communication.">
<polygon fill="white" stroke="#666666" points="217.38,-80.5 32.62,-80.5 32.62,-58.25 217.38,-58.25 217.38,-80.5"/>
<text text-anchor="middle" x="125" y="-65.1" font-family="Arial" font-size="12.00">include/setup/esp_now_setup.h</text>
</a>
</g>
</g>
<!-- Node1&#45;&gt;Node2 -->
<g id="edge1_Node000001_Node000002" class="edge">
<title>Node1&#45;&gt;Node2</title>
<g id="a_edge1_Node000001_Node000002"><a xlink:title=" ">
<path fill="none" stroke="#63b8ff" d="M207.34,-111C187.9,-101.41 163.52,-89.38 146.35,-80.91"/>
<polygon fill="#63b8ff" stroke="#63b8ff" points="205.68,-114.09 216.2,-115.38 208.78,-107.81 205.68,-114.09"/>
</a>
</g>
</g>
<!-- Node5 -->
<g id="Node000005" class="node">
<title>Node5</title>
<g id="a_Node000005"><a xlink:href="esp__now__callback__setup_8cpp.html" target="_top" xlink:title="source file that sets up esp&#45;now callbacks">
<polygon fill="white" stroke="#666666" points="470.88,-80.5 235.12,-80.5 235.12,-58.25 470.88,-58.25 470.88,-80.5"/>
<text text-anchor="middle" x="353" y="-65.1" font-family="Arial" font-size="12.00">main/setup/esp_now_callback_setup.cpp</text>
</a>
</g>
</g>
<!-- Node1&#45;&gt;Node5 -->
<g id="edge4_Node000001_Node000005" class="edge">
<title>Node1&#45;&gt;Node5</title>
<g id="a_edge4_Node000001_Node000005"><a xlink:title=" ">
<path fill="none" stroke="#63b8ff" d="M270.66,-111C290.1,-101.41 314.48,-89.38 331.65,-80.91"/>
<polygon fill="#63b8ff" stroke="#63b8ff" points="269.22,-107.81 261.8,-115.38 272.32,-114.09 269.22,-107.81"/>
</a>
</g>
</g>
<!-- Node3 -->
<g id="Node000003" class="node">
<title>Node3</title>
<g id="a_Node000003"><a xlink:href="main_8cpp.html" target="_top" xlink:title="This is the file that contains the main function and all other tasks for the robot.">
<polygon fill="white" stroke="#666666" points="94,-22.25 0,-22.25 0,0 94,0 94,-22.25"/>
<text text-anchor="middle" x="47" y="-6.85" font-family="Arial" font-size="12.00">main/main.cpp</text>
</a>
</g>
</g>
<!-- Node2&#45;&gt;Node3 -->
<g id="edge2_Node000002_Node000003" class="edge">
<title>Node2&#45;&gt;Node3</title>
<g id="a_edge2_Node000002_Node000003"><a xlink:title=" ">
<path fill="none" stroke="#63b8ff" d="M101.09,-51.13C88.2,-41.83 72.7,-30.66 61.61,-22.66"/>
<polygon fill="#63b8ff" stroke="#63b8ff" points="98.94,-53.9 109.1,-56.91 103.04,-48.22 98.94,-53.9"/>
</a>
</g>
</g>
<!-- Node4 -->
<g id="Node000004" class="node">
<title>Node4</title>
<g id="a_Node000004"><a xlink:href="esp__now__setup_8cpp.html" target="_top" xlink:title="source file that sets up esp&#45;now">
<polygon fill="white" stroke="#666666" points="296.38,-22.25 111.62,-22.25 111.62,0 296.38,0 296.38,-22.25"/>
<text text-anchor="middle" x="204" y="-6.85" font-family="Arial" font-size="12.00">main/setup/esp_now_setup.cpp</text>
</a>
</g>
</g>
<!-- Node2&#45;&gt;Node4 -->
<g id="edge3_Node000002_Node000004" class="edge">
<title>Node2&#45;&gt;Node4</title>
<g id="a_edge3_Node000002_Node000004"><a xlink:title=" ">
<path fill="none" stroke="#63b8ff" d="M149.21,-51.13C162.27,-41.83 177.97,-30.66 189.21,-22.66"/>
<polygon fill="#63b8ff" stroke="#63b8ff" points="147.21,-48.27 141.09,-56.92 151.27,-53.97 147.21,-48.27"/>
</a>
</g>
</g>
</g>
</svg>
</svg>

<style type='text/css'>
<![CDATA[
[data-mouse-over-selected='false'] { opacity: 0.7; }
[data-mouse-over-selected='true']  { opacity: 1.0; }
]]>
</style>
<script type="application/ecmascript"><![CDATA[
document.addEventListener('DOMContentLoaded', (event) => {
  highlightEdges();
  highlightAdjacentNodes();
});
]]></script>
</svg>
