<?xml version="1.0" encoding="UTF-8" standalone="no"?>
<!DOCTYPE svg PUBLIC "-//W3C//DTD SVG 1.1//EN"
 "http://www.w3.org/Graphics/SVG/1.1/DTD/svg11.dtd">
<!-- Generated by graphviz version 12.2.1 (20241206.2353)
 -->
<!-- Title: esp_now_setup Pages: 1 -->
<svg width="220pt" height="70pt"
 viewBox="0.00 0.00 220.00 70.25" xmlns="http://www.w3.org/2000/svg" xmlns:xlink="http://www.w3.org/1999/xlink">
<g id="graph0" class="graph" transform="scale(1 1) rotate(0) translate(4 66.25)">
<title>esp_now_setup</title>
<!-- Node1 -->
<g id="Node000001" class="node">
<title>Node1</title>
<g id="a_Node000001"><a xlink:title="Sets up the ESP&#45;NOW communication, including setting up the callback functions.">
<polygon fill="#999999" stroke="#666666" points="100.75,-42.25 0,-42.25 0,-20 100.75,-20 100.75,-42.25"/>
<text text-anchor="middle" x="50.38" y="-26.85" font-family="Arial" font-size="12.00">esp_now_setup</text>
</a>
</g>
</g>
<!-- Node2 -->
<g id="Node000002" class="node">
<title>Node2</title>
<g id="a_Node000002"><a xlink:href="esp__now__callback__setup_8cpp.html#a0125c0c0903f463f26ed56c90a2ec006" target="_top" xlink:title="Callback function for when a message is received.">
<polygon fill="white" stroke="#666666" points="212,-62.25 136.75,-62.25 136.75,-40 212,-40 212,-62.25"/>
<text text-anchor="middle" x="174.38" y="-46.85" font-family="Arial" font-size="12.00">on_receive</text>
</a>
</g>
</g>
<!-- Node1&#45;&gt;Node2 -->
<g id="edge1_Node000001_Node000002" class="edge">
<title>Node1&#45;&gt;Node2</title>
<g id="a_edge1_Node000001_Node000002"><a xlink:title=" ">
<path fill="none" stroke="#63b8ff" d="M101,-39.26C108.98,-40.57 117.22,-41.92 125.17,-43.22"/>
<polygon fill="#63b8ff" stroke="#63b8ff" points="124.59,-46.67 135.03,-44.84 125.73,-39.77 124.59,-46.67"/>
</a>
</g>
</g>
<!-- Node3 -->
<g id="Node000003" class="node">
<title>Node3</title>
<g id="a_Node000003"><a xlink:href="esp__now__callback__setup_8cpp.html#a16fcfe50c95ced45f0ad21870f6e169a" target="_top" xlink:title="Callback function for when a message is sent.">
<polygon fill="white" stroke="#666666" points="205.62,-22.25 143.12,-22.25 143.12,0 205.62,0 205.62,-22.25"/>
<text text-anchor="middle" x="174.38" y="-6.85" font-family="Arial" font-size="12.00">on_send</text>
</a>
</g>
</g>
<!-- Node1&#45;&gt;Node3 -->
<g id="edge2_Node000001_Node000003" class="edge">
<title>Node1&#45;&gt;Node3</title>
<g id="a_edge2_Node000001_Node000003"><a xlink:title=" ">
<path fill="none" stroke="#63b8ff" d="M101,-22.99C111.14,-21.33 121.73,-19.59 131.57,-17.98"/>
<polygon fill="#63b8ff" stroke="#63b8ff" points="131.91,-21.47 141.21,-16.4 130.78,-14.56 131.91,-21.47"/>
</a>
</g>
</g>
</g>
</svg>
