<?xml version="1.0" encoding="UTF-8" standalone="no"?>
<!DOCTYPE svg PUBLIC "-//W3C//DTD SVG 1.1//EN"
 "http://www.w3.org/Graphics/SVG/1.1/DTD/svg11.dtd">
<!-- Generated by graphviz version 12.2.1 (20241206.2353)
 -->
<!-- Title: include/tasks/esp_now_task.h Pages: 1 -->
<svg width="296pt" height="89pt"
 viewBox="0.00 0.00 295.88 88.50" xmlns="http://www.w3.org/2000/svg" xmlns:xlink="http://www.w3.org/1999/xlink">
<g id="graph0" class="graph" transform="scale(1 1) rotate(0) translate(4 84.5)">
<title>include/tasks/esp_now_task.h</title>
<!-- Node1 -->
<g id="Node000001" class="node">
<title>Node1</title>
<g id="a_Node000001"><a xlink:title="Contains the externs and defines for the esp_now task.">
<polygon fill="#999999" stroke="#666666" points="210.88,-80.5 35.12,-80.5 35.12,-58.25 210.88,-58.25 210.88,-80.5"/>
<text text-anchor="middle" x="123" y="-65.1" font-family="Arial" font-size="12.00">include/tasks/esp_now_task.h</text>
</a>
</g>
</g>
<!-- Node2 -->
<g id="Node000002" class="node">
<title>Node2</title>
<g id="a_Node000002"><a xlink:href="main_8cpp.html" target="_top" xlink:title="This is the file that contains the main function and all other tasks for the robot.">
<polygon fill="white" stroke="#666666" points="94,-22.25 0,-22.25 0,0 94,0 94,-22.25"/>
<text text-anchor="middle" x="47" y="-6.85" font-family="Arial" font-size="12.00">main/main.cpp</text>
</a>
</g>
</g>
<!-- Node1&#45;&gt;Node2 -->
<g id="edge1_Node000001_Node000002" class="edge">
<title>Node1&#45;&gt;Node2</title>
<g id="a_edge1_Node000001_Node000002"><a xlink:title=" ">
<path fill="none" stroke="#63b8ff" d="M99.7,-51.13C87.14,-41.83 72.04,-30.66 61.23,-22.66"/>
<polygon fill="#63b8ff" stroke="#63b8ff" points="97.37,-53.76 107.49,-56.89 101.53,-48.13 97.37,-53.76"/>
</a>
</g>
</g>
<!-- Node3 -->
<g id="Node000003" class="node">
<title>Node3</title>
<g id="a_Node000003"><a xlink:href="esp__now__task_8cpp.html" target="_top" xlink:title="source file for the task that sends the battery voltage to the controller">
<polygon fill="white" stroke="#666666" points="287.88,-22.25 112.12,-22.25 112.12,0 287.88,0 287.88,-22.25"/>
<text text-anchor="middle" x="200" y="-6.85" font-family="Arial" font-size="12.00">main/tasks/esp_now_task.cpp</text>
</a>
</g>
</g>
<!-- Node1&#45;&gt;Node3 -->
<g id="edge2_Node000001_Node000003" class="edge">
<title>Node1&#45;&gt;Node3</title>
<g id="a_edge2_Node000001_Node000003"><a xlink:title=" ">
<path fill="none" stroke="#63b8ff" d="M146.6,-51.13C159.33,-41.83 174.63,-30.66 185.58,-22.66"/>
<polygon fill="#63b8ff" stroke="#63b8ff" points="144.72,-48.18 138.71,-56.9 148.84,-53.83 144.72,-48.18"/>
</a>
</g>
</g>
</g>
</svg>
