<?xml version="1.0" encoding="UTF-8" standalone="no"?>
<!DOCTYPE svg PUBLIC "-//W3C//DTD SVG 1.1//EN"
 "http://www.w3.org/Graphics/SVG/1.1/DTD/svg11.dtd">
<!-- Generated by graphviz version 12.2.1 (20241206.2353)
 -->
<!-- Title: on_receive Pages: 1 -->
<svg width="325pt" height="30pt"
 viewBox="0.00 0.00 325.25 30.25" xmlns="http://www.w3.org/2000/svg" xmlns:xlink="http://www.w3.org/1999/xlink">
<g id="graph0" class="graph" transform="scale(1 1) rotate(0) translate(4 26.25)">
<title>on_receive</title>
<!-- Node1 -->
<g id="Node000001" class="node">
<title>Node1</title>
<g id="a_Node000001"><a xlink:title="Callback function for when a message is received.">
<polygon fill="#999999" stroke="#666666" points="317.25,-22.25 242,-22.25 242,0 317.25,0 317.25,-22.25"/>
<text text-anchor="middle" x="279.62" y="-6.85" font-family="Arial" font-size="12.00">on_receive</text>
</a>
</g>
</g>
<!-- Node2 -->
<g id="Node000002" class="node">
<title>Node2</title>
<g id="a_Node000002"><a xlink:href="esp__now__setup_8cpp.html#a889303b81f10f5b0163bec7442a0bcdc" target="_top" xlink:title="Sets up the ESP&#45;NOW communication, including setting up the callback functions.">
<polygon fill="white" stroke="#666666" points="206,-22.25 105.25,-22.25 105.25,0 206,0 206,-22.25"/>
<text text-anchor="middle" x="155.62" y="-6.85" font-family="Arial" font-size="12.00">esp_now_setup</text>
</a>
</g>
</g>
<!-- Node1&#45;&gt;Node2 -->
<g id="edge1_Node000001_Node000002" class="edge">
<title>Node1&#45;&gt;Node2</title>
<g id="a_edge1_Node000001_Node000002"><a xlink:title=" ">
<path fill="none" stroke="#63b8ff" d="M230.44,-11.12C222.57,-11.12 214.4,-11.12 206.5,-11.12"/>
<polygon fill="#63b8ff" stroke="#63b8ff" points="230.18,-14.63 240.18,-11.13 230.18,-7.63 230.18,-14.63"/>
</a>
</g>
</g>
<!-- Node3 -->
<g id="Node000003" class="node">
<title>Node3</title>
<g id="a_Node000003"><a xlink:href="main_8cpp.html#a630544a7f0a2cc40d8a7fefab7e2fe70" target="_top" xlink:title="the main function for the program, creates all semaphores, tasks, and runs setup functions">
<polygon fill="white" stroke="#666666" points="69.25,-22.25 0,-22.25 0,0 69.25,0 69.25,-22.25"/>
<text text-anchor="middle" x="34.62" y="-6.85" font-family="Arial" font-size="12.00">app_main</text>
</a>
</g>
</g>
<!-- Node2&#45;&gt;Node3 -->
<g id="edge2_Node000002_Node000003" class="edge">
<title>Node2&#45;&gt;Node3</title>
<g id="a_edge2_Node000002_Node000003"><a xlink:title=" ">
<path fill="none" stroke="#63b8ff" d="M93.37,-11.12C85.22,-11.12 77.12,-11.12 69.67,-11.12"/>
<polygon fill="#63b8ff" stroke="#63b8ff" points="93.33,-14.63 103.33,-11.13 93.33,-7.63 93.33,-14.63"/>
</a>
</g>
</g>
</g>
</svg>
