<?xml version="1.0" encoding="UTF-8" standalone="no"?>
<!DOCTYPE svg PUBLIC "-//W3C//DTD SVG 1.1//EN"
 "http://www.w3.org/Graphics/SVG/1.1/DTD/svg11.dtd">
<!-- Generated by graphviz version 12.2.1 (20241206.2353)
 -->
<!-- Title: include/supporting/font.h Pages: 1 -->
<svg width="500pt" height="263pt"
 viewBox="0.00 0.00 500.25 263.25" xmlns="http://www.w3.org/2000/svg" xmlns:xlink="http://www.w3.org/1999/xlink">
<g id="graph0" class="graph" transform="scale(1 1) rotate(0) translate(4 259.25)">
<title>include/supporting/font.h</title>
<!-- Node1 -->
<g id="Node000001" class="node">
<title>Node1</title>
<g id="a_Node000001"><a xlink:title="This file contains the class for the 12x16 font class.">
<polygon fill="#999999" stroke="#666666" points="397.25,-255.25 250.75,-255.25 250.75,-233 397.25,-233 397.25,-255.25"/>
<text text-anchor="middle" x="324" y="-239.85" font-family="Arial" font-size="12.00">include/supporting/font.h</text>
</a>
</g>
</g>
<!-- Node2 -->
<g id="Node000002" class="node">
<title>Node2</title>
<g id="a_Node000002"><a xlink:href="ssd1306_8h.html" target="_top" xlink:title=" ">
<polygon fill="white" stroke="#666666" points="316.25,-197 163.75,-197 163.75,-174.75 316.25,-174.75 316.25,-197"/>
<text text-anchor="middle" x="240" y="-181.6" font-family="Arial" font-size="12.00">include/drivers/ssd1306.h</text>
</a>
</g>
</g>
<!-- Node1&#45;&gt;Node2 -->
<g id="edge1_Node000001_Node000002" class="edge">
<title>Node1&#45;&gt;Node2</title>
<g id="a_edge1_Node000001_Node000002"><a xlink:title=" ">
<path fill="none" stroke="#63b8ff" d="M298.66,-226.16C284.69,-216.8 267.79,-205.49 255.73,-197.41"/>
<polygon fill="#63b8ff" stroke="#63b8ff" points="296.69,-229.05 306.94,-231.7 300.58,-223.23 296.69,-229.05"/>
</a>
</g>
</g>
<!-- Node9 -->
<g id="Node000009" class="node">
<title>Node9</title>
<g id="a_Node000009"><a xlink:href="font_8cpp.html" target="_top" xlink:title="source file for the class that maps ascii characters to their font representation">
<polygon fill="white" stroke="#666666" points="481.25,-197 334.75,-197 334.75,-174.75 481.25,-174.75 481.25,-197"/>
<text text-anchor="middle" x="408" y="-181.6" font-family="Arial" font-size="12.00">main/supporting/font.cpp</text>
</a>
</g>
</g>
<!-- Node1&#45;&gt;Node9 -->
<g id="edge9_Node000001_Node000009" class="edge">
<title>Node1&#45;&gt;Node9</title>
<g id="a_edge9_Node000001_Node000009"><a xlink:title=" ">
<path fill="none" stroke="#63b8ff" d="M349.34,-226.16C363.31,-216.8 380.21,-205.49 392.27,-197.41"/>
<polygon fill="#63b8ff" stroke="#63b8ff" points="347.42,-223.23 341.06,-231.7 351.31,-229.05 347.42,-223.23"/>
</a>
</g>
</g>
<!-- Node3 -->
<g id="Node000003" class="node">
<title>Node3</title>
<g id="a_Node000003"><a xlink:href="menus_8h.html" target="_top" xlink:title="This is the file that contains the class for menus.">
<polygon fill="white" stroke="#666666" points="321.5,-138.75 158.5,-138.75 158.5,-116.5 321.5,-116.5 321.5,-138.75"/>
<text text-anchor="middle" x="240" y="-123.35" font-family="Arial" font-size="12.00">include/supporting/menus.h</text>
</a>
</g>
</g>
<!-- Node2&#45;&gt;Node3 -->
<g id="edge2_Node000002_Node000003" class="edge">
<title>Node2&#45;&gt;Node3</title>
<g id="a_edge2_Node000002_Node000003"><a xlink:title=" ">
<path fill="none" stroke="#63b8ff" d="M240,-162.85C240,-154.7 240,-145.83 240,-139.16"/>
<polygon fill="#63b8ff" stroke="#63b8ff" points="236.5,-162.78 240,-172.78 243.5,-162.78 236.5,-162.78"/>
</a>
</g>
</g>
<!-- Node4 -->
<g id="Node000004" class="node">
<title>Node4</title>
<g id="a_Node000004"><a xlink:href="display__driver__task_8h.html" target="_top" xlink:title="Contains the externs and defines for the display driver task.">
<polygon fill="white" stroke="#666666" points="231,-80.5 29,-80.5 29,-58.25 231,-58.25 231,-80.5"/>
<text text-anchor="middle" x="130" y="-65.1" font-family="Arial" font-size="12.00">include/tasks/display_driver_task.h</text>
</a>
</g>
</g>
<!-- Node2&#45;&gt;Node4 -->
<g id="edge7_Node000002_Node000004" class="edge">
<title>Node2&#45;&gt;Node4</title>
<g id="a_edge7_Node000002_Node000004"><a xlink:title=" ">
<path fill="none" stroke="#63b8ff" d="M194.12,-169.98C178.19,-162.78 161.47,-152.62 150,-138.75 135.97,-121.78 131.78,-95.35 130.53,-80.82"/>
<polygon fill="#63b8ff" stroke="#63b8ff" points="192.43,-173.07 203.01,-173.7 195.14,-166.61 192.43,-173.07"/>
</a>
</g>
</g>
<!-- Node8 -->
<g id="Node000008" class="node">
<title>Node8</title>
<g id="a_Node000008"><a xlink:href="ssd1306_8cpp.html" target="_top" xlink:title=" ">
<polygon fill="white" stroke="#666666" points="492.25,-138.75 339.75,-138.75 339.75,-116.5 492.25,-116.5 492.25,-138.75"/>
<text text-anchor="middle" x="416" y="-123.35" font-family="Arial" font-size="12.00">main/drivers/ssd1306.cpp</text>
</a>
</g>
</g>
<!-- Node2&#45;&gt;Node8 -->
<g id="edge8_Node000002_Node000008" class="edge">
<title>Node2&#45;&gt;Node8</title>
<g id="a_edge8_Node000002_Node000008"><a xlink:title=" ">
<path fill="none" stroke="#63b8ff" d="M283.95,-170.83C314.68,-161.01 355.06,-148.1 383.04,-139.16"/>
<polygon fill="#63b8ff" stroke="#63b8ff" points="283.01,-167.46 274.55,-173.83 285.14,-174.12 283.01,-167.46"/>
</a>
</g>
</g>
<!-- Node3&#45;&gt;Node4 -->
<g id="edge3_Node000003_Node000004" class="edge">
<title>Node3&#45;&gt;Node4</title>
<g id="a_edge3_Node000003_Node000004"><a xlink:title=" ">
<path fill="none" stroke="#63b8ff" d="M209.19,-110.87C190.47,-101.3 167.09,-89.34 150.6,-80.91"/>
<polygon fill="#63b8ff" stroke="#63b8ff" points="207.47,-113.92 217.96,-115.36 210.65,-107.69 207.47,-113.92"/>
</a>
</g>
</g>
<!-- Node7 -->
<g id="Node000007" class="node">
<title>Node7</title>
<g id="a_Node000007"><a xlink:href="menus_8cpp.html" target="_top" xlink:title="source file for the class that handles the creation of menus">
<polygon fill="white" stroke="#666666" points="412.5,-80.5 249.5,-80.5 249.5,-58.25 412.5,-58.25 412.5,-80.5"/>
<text text-anchor="middle" x="331" y="-65.1" font-family="Arial" font-size="12.00">main/supporting/menus.cpp</text>
</a>
</g>
</g>
<!-- Node3&#45;&gt;Node7 -->
<g id="edge6_Node000003_Node000007" class="edge">
<title>Node3&#45;&gt;Node7</title>
<g id="a_edge6_Node000003_Node000007"><a xlink:title=" ">
<path fill="none" stroke="#63b8ff" d="M266.57,-110.2C281.87,-100.74 300.64,-89.14 313.96,-80.91"/>
<polygon fill="#63b8ff" stroke="#63b8ff" points="265.07,-107.01 258.4,-115.25 268.75,-112.97 265.07,-107.01"/>
</a>
</g>
</g>
<!-- Node5 -->
<g id="Node000005" class="node">
<title>Node5</title>
<g id="a_Node000005"><a xlink:href="main_8cpp.html" target="_top" xlink:title="This is the file that contains the main function and all other tasks for the robot.">
<polygon fill="white" stroke="#666666" points="94,-22.25 0,-22.25 0,0 94,0 94,-22.25"/>
<text text-anchor="middle" x="47" y="-6.85" font-family="Arial" font-size="12.00">main/main.cpp</text>
</a>
</g>
</g>
<!-- Node4&#45;&gt;Node5 -->
<g id="edge4_Node000004_Node000005" class="edge">
<title>Node4&#45;&gt;Node5</title>
<g id="a_edge4_Node000004_Node000005"><a xlink:title=" ">
<path fill="none" stroke="#63b8ff" d="M104.96,-51.41C91.16,-42.05 74.46,-30.74 62.54,-22.66"/>
<polygon fill="#63b8ff" stroke="#63b8ff" points="102.89,-54.23 113.14,-56.95 106.82,-48.44 102.89,-54.23"/>
</a>
</g>
</g>
<!-- Node6 -->
<g id="Node000006" class="node">
<title>Node6</title>
<g id="a_Node000006"><a xlink:href="display__driver__task_8cpp.html" target="_top" xlink:title="source file for the task that drives the display, displays controller connected status,...">
<polygon fill="white" stroke="#666666" points="314,-22.25 112,-22.25 112,0 314,0 314,-22.25"/>
<text text-anchor="middle" x="213" y="-6.85" font-family="Arial" font-size="12.00">main/tasks/display_driver_task.cpp</text>
</a>
</g>
</g>
<!-- Node4&#45;&gt;Node6 -->
<g id="edge5_Node000004_Node000006" class="edge">
<title>Node4&#45;&gt;Node6</title>
<g id="a_edge5_Node000004_Node000006"><a xlink:title=" ">
<path fill="none" stroke="#63b8ff" d="M155.04,-51.41C168.84,-42.05 185.54,-30.74 197.46,-22.66"/>
<polygon fill="#63b8ff" stroke="#63b8ff" points="153.18,-48.44 146.86,-56.95 157.11,-54.23 153.18,-48.44"/>
</a>
</g>
</g>
</g>
</svg>
