<?xml version="1.0" encoding="UTF-8" standalone="no"?>
<!DOCTYPE svg PUBLIC "-//W3C//DTD SVG 1.1//EN"
 "http://www.w3.org/Graphics/SVG/1.1/DTD/svg11.dtd">
<!-- Generated by graphviz version 12.2.1 (20241206.2353)
 -->
<!-- Title: kicker_drive_train_task Pages: 1 -->
<svg width="1128pt" height="261pt"
 viewBox="0.00 0.00 1127.50 261.31" xmlns="http://www.w3.org/2000/svg" xmlns:xlink="http://www.w3.org/1999/xlink">
<g id="graph0" class="graph" transform="scale(1 1) rotate(0) translate(4 257.31)">
<title>kicker_drive_train_task</title>
<!-- Node1 -->
<g id="Node000001" class="node">
<title>Node1</title>
<g id="a_Node000001"><a xlink:title="The task to drive the odrive motors, set speeds, modify ramped velocity parameters,...">
<polygon fill="#999999" stroke="#666666" points="139,-142.25 0,-142.25 0,-120 139,-120 139,-142.25"/>
<text text-anchor="middle" x="69.5" y="-126.85" font-family="Arial" font-size="12.00">kicker_drive_train_task</text>
</a>
</g>
</g>
<!-- Node2 -->
<g id="Node000002" class="node">
<title>Node2</title>
<g id="a_Node000002"><a xlink:href="classkicker__drive__train.html#af6663d5dc9de9ac8ca7f32f817cb8bd6" target="_top" xlink:title="The main loop for the drive train, updates values, checks battery, and drives motors.">
<polygon fill="white" stroke="#666666" points="328.25,-142.25 175,-142.25 175,-120 328.25,-120 328.25,-142.25"/>
<text text-anchor="middle" x="251.62" y="-126.85" font-family="Arial" font-size="12.00">kicker_drive_train::update</text>
</a>
</g>
</g>
<!-- Node1&#45;&gt;Node2 -->
<g id="edge1_Node000001_Node000002" class="edge">
<title>Node1&#45;&gt;Node2</title>
<g id="a_edge1_Node000001_Node000002"><a xlink:title=" ">
<path fill="none" stroke="#63b8ff" d="M139.37,-131.12C147.2,-131.12 155.26,-131.12 163.28,-131.12"/>
<polygon fill="#63b8ff" stroke="#63b8ff" points="163.08,-134.63 173.08,-131.13 163.08,-127.63 163.08,-134.63"/>
</a>
</g>
</g>
<!-- Node3 -->
<g id="Node000003" class="node">
<title>Node3</title>
<g id="a_Node000003"><a xlink:href="classkicker__drive__train.html#a7b21d38c1a81e3646f07602f41cab0bc" target="_top" xlink:title="brake the motors by setting the velocity to 0">
<polygon fill="white" stroke="#666666" points="881.88,-200.25 692.62,-200.25 692.62,-178 881.88,-178 881.88,-200.25"/>
<text text-anchor="middle" x="787.25" y="-184.85" font-family="Arial" font-size="12.00">kicker_drive_train::break_motors</text>
</a>
</g>
</g>
<!-- Node2&#45;&gt;Node3 -->
<g id="edge2_Node000002_Node000003" class="edge">
<title>Node2&#45;&gt;Node3</title>
<g id="a_edge2_Node000002_Node000003"><a xlink:title=" ">
<path fill="none" stroke="#63b8ff" d="M260.8,-142.71C277.31,-164.96 317.1,-213.1 364.25,-231.12 497.14,-281.95 669.87,-232.11 746.56,-204.62"/>
<polygon fill="#63b8ff" stroke="#63b8ff" points="747.56,-207.98 755.75,-201.26 745.15,-201.41 747.56,-207.98"/>
</a>
</g>
</g>
<!-- Node5 -->
<g id="Node000005" class="node">
<title>Node5</title>
<g id="a_Node000005"><a xlink:href="classkicker__drive__train.html#a78a7597a4a1b0bc9492ef66c32b8a0c6" target="_top" xlink:title="drive the motors based on set parameters and last joystick values">
<polygon fill="white" stroke="#666666" points="601.5,-222.25 416,-222.25 416,-200 601.5,-200 601.5,-222.25"/>
<text text-anchor="middle" x="508.75" y="-206.85" font-family="Arial" font-size="12.00">kicker_drive_train::drive_motors</text>
</a>
</g>
</g>
<!-- Node2&#45;&gt;Node5 -->
<g id="edge4_Node000002_Node000005" class="edge">
<title>Node2&#45;&gt;Node5</title>
<g id="a_edge4_Node000002_Node000005"><a xlink:title=" ">
<path fill="none" stroke="#63b8ff" d="M269.54,-142.71C290.7,-156.59 328.49,-179.44 364.25,-191.12 377.08,-195.32 390.83,-198.63 404.56,-201.25"/>
<polygon fill="#63b8ff" stroke="#63b8ff" points="403.6,-204.63 414.06,-202.94 404.83,-197.74 403.6,-204.63"/>
</a>
</g>
</g>
<!-- Node6 -->
<g id="Node000006" class="node">
<title>Node6</title>
<g id="a_Node000006"><a xlink:href="classkicker__drive__train.html#a429f74f99def00f7d234662909150be0" target="_top" xlink:title="modify the speed multipliers">
<polygon fill="white" stroke="#666666" points="653.25,-182.25 364.25,-182.25 364.25,-160 653.25,-160 653.25,-182.25"/>
<text text-anchor="middle" x="508.75" y="-166.85" font-family="Arial" font-size="12.00">kicker_drive_train::motor_speed_multiplier_updater</text>
</a>
</g>
</g>
<!-- Node2&#45;&gt;Node6 -->
<g id="edge5_Node000002_Node000006" class="edge">
<title>Node2&#45;&gt;Node6</title>
<g id="a_edge5_Node000002_Node000006"><a xlink:title=" ">
<path fill="none" stroke="#63b8ff" d="M314.84,-142.71C330.91,-145.59 348.21,-148.57 364.25,-151.12 378.84,-153.45 394.29,-155.76 409.44,-157.94"/>
<polygon fill="#63b8ff" stroke="#63b8ff" points="408.51,-161.34 418.9,-159.29 409.5,-154.41 408.51,-161.34"/>
</a>
</g>
</g>
<!-- Node7 -->
<g id="Node000007" class="node">
<title>Node7</title>
<g id="a_Node000007"><a xlink:href="classkicker__drive__train.html#a059b7bd8b12aa236032041c49c0312cd" target="_top" xlink:title="update the speeds of the motors based on the joysticks">
<polygon fill="white" stroke="#666666" points="628.5,-142.25 389,-142.25 389,-120 628.5,-120 628.5,-142.25"/>
<text text-anchor="middle" x="508.75" y="-126.85" font-family="Arial" font-size="12.00">kicker_drive_train::motor_speeds_updater</text>
</a>
</g>
</g>
<!-- Node2&#45;&gt;Node7 -->
<g id="edge6_Node000002_Node000007" class="edge">
<title>Node2&#45;&gt;Node7</title>
<g id="a_edge6_Node000002_Node000007"><a xlink:title=" ">
<path fill="none" stroke="#63b8ff" d="M328.48,-131.12C344.02,-131.12 360.8,-131.12 377.63,-131.12"/>
<polygon fill="#63b8ff" stroke="#63b8ff" points="377.18,-134.63 387.18,-131.13 377.18,-127.63 377.18,-134.63"/>
</a>
</g>
</g>
<!-- Node8 -->
<g id="Node000008" class="node">
<title>Node8</title>
<g id="a_Node000008"><a xlink:href="classkicker__drive__train.html#a2c011997429fafeeacddbb1e74d604c4" target="_top" xlink:title="change the status of the motors">
<polygon fill="white" stroke="#666666" points="624.75,-102.25 392.75,-102.25 392.75,-80 624.75,-80 624.75,-102.25"/>
<text text-anchor="middle" x="508.75" y="-86.85" font-family="Arial" font-size="12.00">kicker_drive_train::motor_status_updater</text>
</a>
</g>
</g>
<!-- Node2&#45;&gt;Node8 -->
<g id="edge7_Node000002_Node000008" class="edge">
<title>Node2&#45;&gt;Node8</title>
<g id="a_edge7_Node000002_Node000008"><a xlink:title=" ">
<path fill="none" stroke="#63b8ff" d="M314.84,-119.54C330.91,-116.66 348.21,-113.68 364.25,-111.12 378.84,-108.8 394.29,-106.49 409.44,-104.31"/>
<polygon fill="#63b8ff" stroke="#63b8ff" points="409.5,-107.84 418.9,-102.96 408.51,-100.91 409.5,-107.84"/>
</a>
</g>
</g>
<!-- Node12 -->
<g id="Node000012" class="node">
<title>Node12</title>
<g id="a_Node000012"><a xlink:href="classkicker__drive__train.html#acae2e06df7e1d3c8af4f988fc1629b2f" target="_top" xlink:title="update the battery voltage if the correct amount of time has passed">
<polygon fill="white" stroke="#666666" points="634.88,-62.25 382.62,-62.25 382.62,-40 634.88,-40 634.88,-62.25"/>
<text text-anchor="middle" x="508.75" y="-46.85" font-family="Arial" font-size="12.00">kicker_drive_train::periodic_voltage_reading</text>
</a>
</g>
</g>
<!-- Node2&#45;&gt;Node12 -->
<g id="edge13_Node000002_Node000012" class="edge">
<title>Node2&#45;&gt;Node12</title>
<g id="a_edge13_Node000002_Node000012"><a xlink:title=" ">
<path fill="none" stroke="#63b8ff" d="M269.54,-119.54C290.7,-105.66 328.49,-82.81 364.25,-71.12 370.92,-68.95 377.84,-67 384.87,-65.27"/>
<polygon fill="#63b8ff" stroke="#63b8ff" points="385.56,-68.71 394.53,-63.06 384,-61.88 385.56,-68.71"/>
</a>
</g>
</g>
<!-- Node13 -->
<g id="Node000013" class="node">
<title>Node13</title>
<g id="a_Node000013"><a xlink:href="classkicker__drive__train.html#a1aea7c500cba07d358770050e51fd6cb" target="_top" xlink:title="update the ramped velocity parameters if they have been changed">
<polygon fill="white" stroke="#666666" points="634.88,-22.25 382.62,-22.25 382.62,0 634.88,0 634.88,-22.25"/>
<text text-anchor="middle" x="508.75" y="-6.85" font-family="Arial" font-size="12.00">kicker_drive_train::ramped_settings_updater</text>
</a>
</g>
</g>
<!-- Node2&#45;&gt;Node13 -->
<g id="edge14_Node000002_Node000013" class="edge">
<title>Node2&#45;&gt;Node13</title>
<g id="a_edge14_Node000002_Node000013"><a xlink:title=" ">
<path fill="none" stroke="#63b8ff" d="M261.3,-119.78C278.39,-98.37 318.7,-52.26 364.25,-31.12 368.01,-29.38 371.88,-27.78 375.82,-26.31"/>
<polygon fill="#63b8ff" stroke="#63b8ff" points="376.66,-29.72 385.01,-23.19 374.42,-23.09 376.66,-29.72"/>
</a>
</g>
</g>
<!-- Node4 -->
<g id="Node000004" class="node">
<title>Node4</title>
<g id="a_Node000004"><a xlink:href="classkicker__drive__train.html#a6ef0c24f1b0871021979a48fde1c9ff4" target="_top" xlink:title="set the motors to their idle state">
<polygon fill="white" stroke="#666666" points="1119.5,-180.25 921.25,-180.25 921.25,-158 1119.5,-158 1119.5,-180.25"/>
<text text-anchor="middle" x="1020.38" y="-164.85" font-family="Arial" font-size="12.00">kicker_drive_train::disable_motors</text>
</a>
</g>
</g>
<!-- Node3&#45;&gt;Node4 -->
<g id="edge3_Node000003_Node000004" class="edge">
<title>Node3&#45;&gt;Node4</title>
<g id="a_edge3_Node000003_Node000004"><a xlink:title=" ">
<path fill="none" stroke="#63b8ff" d="M882.26,-180.99C891.32,-180.21 900.57,-179.41 909.76,-178.61"/>
<polygon fill="#63b8ff" stroke="#63b8ff" points="909.77,-182.12 919.43,-177.77 909.17,-175.15 909.77,-182.12"/>
</a>
</g>
</g>
<!-- Node8&#45;&gt;Node3 -->
<g id="edge8_Node000008_Node000003" class="edge">
<title>Node8&#45;&gt;Node3</title>
<g id="a_edge8_Node000008_Node000003"><a xlink:title=" ">
<path fill="none" stroke="#63b8ff" d="M625.22,-98.35C635.09,-101.57 644.6,-105.75 653.25,-111.12 677.43,-126.16 665.96,-147.74 689.25,-164.12 694.27,-167.66 699.75,-170.69 705.47,-173.3"/>
<polygon fill="#63b8ff" stroke="#63b8ff" points="703.99,-176.48 714.58,-176.98 706.61,-169.99 703.99,-176.48"/>
</a>
</g>
</g>
<!-- Node8&#45;&gt;Node4 -->
<g id="edge11_Node000008_Node000004" class="edge">
<title>Node8&#45;&gt;Node4</title>
<g id="a_edge11_Node000008_Node000004"><a xlink:title=" ">
<path fill="none" stroke="#63b8ff" d="M622.31,-102.74C632.89,-105.05 643.35,-107.81 653.25,-111.12 670.61,-116.93 671.82,-125.53 689.25,-131.12 760.51,-154.02 844.34,-163.47 909.69,-167.22"/>
<polygon fill="#63b8ff" stroke="#63b8ff" points="909.15,-170.7 919.33,-167.73 909.53,-163.71 909.15,-170.7"/>
</a>
</g>
</g>
<!-- Node9 -->
<g id="Node000009" class="node">
<title>Node9</title>
<g id="a_Node000009"><a xlink:href="classkicker__drive__train.html#ac9c1b7680ef0506c28d674f26bda4ee7" target="_top" xlink:title="run the calibration sequence with periodic messages over can bus to prevent the odrives from entering...">
<polygon fill="white" stroke="#666666" points="873.25,-122.25 701.25,-122.25 701.25,-100 873.25,-100 873.25,-122.25"/>
<text text-anchor="middle" x="787.25" y="-106.85" font-family="Arial" font-size="12.00">kicker_drive_train::calibrating</text>
</a>
</g>
</g>
<!-- Node8&#45;&gt;Node9 -->
<g id="edge9_Node000008_Node000009" class="edge">
<title>Node8&#45;&gt;Node9</title>
<g id="a_edge9_Node000008_Node000009"><a xlink:title=" ">
<path fill="none" stroke="#63b8ff" d="M625.01,-99.46C646.51,-101.02 668.78,-102.63 689.65,-104.14"/>
<polygon fill="#63b8ff" stroke="#63b8ff" points="689.35,-107.63 699.58,-104.86 689.86,-100.64 689.35,-107.63"/>
</a>
</g>
</g>
<!-- Node10 -->
<g id="Node000010" class="node">
<title>Node10</title>
<g id="a_Node000010"><a xlink:href="classkicker__drive__train.html#ad5670ad9be6bd4d7055b8dfbfafe75db" target="_top" xlink:title="clear the errors on the odrives">
<polygon fill="white" stroke="#666666" points="877.38,-82.25 697.12,-82.25 697.12,-60 877.38,-60 877.38,-82.25"/>
<text text-anchor="middle" x="787.25" y="-66.85" font-family="Arial" font-size="12.00">kicker_drive_train::clear_errors</text>
</a>
</g>
</g>
<!-- Node8&#45;&gt;Node10 -->
<g id="edge10_Node000008_Node000010" class="edge">
<title>Node8&#45;&gt;Node10</title>
<g id="a_edge10_Node000008_Node000010"><a xlink:title=" ">
<path fill="none" stroke="#63b8ff" d="M625.01,-82.79C645.08,-81.34 665.81,-79.84 685.45,-78.42"/>
<polygon fill="#63b8ff" stroke="#63b8ff" points="685.64,-81.91 695.36,-77.7 685.14,-74.93 685.64,-81.91"/>
</a>
</g>
</g>
<!-- Node11 -->
<g id="Node000011" class="node">
<title>Node11</title>
<g id="a_Node000011"><a xlink:href="classkicker__drive__train.html#aa08dd2966d8975334cf46f3e939f1751" target="_top" xlink:title="set the motors to their active state">
<polygon fill="white" stroke="#666666" points="885.25,-42.25 689.25,-42.25 689.25,-20 885.25,-20 885.25,-42.25"/>
<text text-anchor="middle" x="787.25" y="-26.85" font-family="Arial" font-size="12.00">kicker_drive_train::enable_motors</text>
</a>
</g>
</g>
<!-- Node8&#45;&gt;Node11 -->
<g id="edge12_Node000008_Node000011" class="edge">
<title>Node8&#45;&gt;Node11</title>
<g id="a_edge12_Node000008_Node000011"><a xlink:title=" ">
<path fill="none" stroke="#63b8ff" d="M622.31,-79.51C632.89,-77.2 643.35,-74.44 653.25,-71.12 670.61,-65.32 672.09,-57.49 689.25,-51.12 694.6,-49.14 700.2,-47.33 705.89,-45.69"/>
<polygon fill="#63b8ff" stroke="#63b8ff" points="706.68,-49.1 715.44,-43.13 704.87,-42.34 706.68,-49.1"/>
</a>
</g>
</g>
</g>
</svg>
