<?xml version="1.0" encoding="UTF-8" standalone="no"?>
<!DOCTYPE svg PUBLIC "-//W3C//DTD SVG 1.1//EN"
 "http://www.w3.org/Graphics/SVG/1.1/DTD/svg11.dtd">
<!-- Generated by graphviz version 12.2.1 (20241206.2353)
 -->
<!-- Title: include/supporting/kicker_drive_train.h Pages: 1 -->
<svg width="494pt" height="147pt"
 viewBox="0.00 0.00 493.75 146.75" xmlns="http://www.w3.org/2000/svg" xmlns:xlink="http://www.w3.org/1999/xlink">

<svg id="main" version="1.1" xmlns="http://www.w3.org/2000/svg" xmlns:xlink="http://www.w3.org/1999/xlink" xml:space="preserve">

<style type="text/css"><![CDATA[
.node, .edge {opacity: 0.7;}
.node.selected, .edge.selected {opacity: 1;}
.edge:hover path { stroke: red; }
.edge:hover polygon { stroke: red; fill: red; }
]]></style>
<script type="application/ecmascript" xlink:href="svg.min.js"/>
<svg id="graph" class="graph">
<g id="graph0" class="graph" transform="scale(1 1) rotate(0) translate(4 142.75)">
<title>include/supporting/kicker_drive_train.h</title>
<!-- Node1 -->
<g id="Node000001" class="node">
<title>Node1</title>
<g id="a_Node000001"><a xlink:title="Header for the kicker drive_train class.">
<polygon fill="#999999" stroke="#666666" points="365.75,-138.75 144.25,-138.75 144.25,-116.5 365.75,-116.5 365.75,-138.75"/>
<text text-anchor="middle" x="255" y="-123.35" font-family="Arial" font-size="12.00">include/supporting/kicker_drive_train.h</text>
</a>
</g>
</g>
<!-- Node2 -->
<g id="Node000002" class="node">
<title>Node2</title>
<g id="a_Node000002"><a xlink:href="kicker__drive__train__task_8h.html" target="_top" xlink:title="Contains the externs and defines for the kicker drive train task.">
<polygon fill="white" stroke="#666666" points="245.75,-80.5 24.25,-80.5 24.25,-58.25 245.75,-58.25 245.75,-80.5"/>
<text text-anchor="middle" x="135" y="-65.1" font-family="Arial" font-size="12.00">include/tasks/kicker_drive_train_task.h</text>
</a>
</g>
</g>
<!-- Node1&#45;&gt;Node2 -->
<g id="edge1_Node000001_Node000002" class="edge">
<title>Node1&#45;&gt;Node2</title>
<g id="a_edge1_Node000001_Node000002"><a xlink:title=" ">
<path fill="none" stroke="#63b8ff" d="M222.24,-111.27C201.68,-101.63 175.71,-89.46 157.47,-80.91"/>
<polygon fill="#63b8ff" stroke="#63b8ff" points="220.52,-114.33 231.06,-115.4 223.49,-107.99 220.52,-114.33"/>
</a>
</g>
</g>
<!-- Node5 -->
<g id="Node000005" class="node">
<title>Node5</title>
<g id="a_Node000005"><a xlink:href="kicker__drive__train_8cpp.html" target="_top" xlink:title="source file for the class that handles the drive train">
<polygon fill="white" stroke="#666666" points="485.75,-80.5 264.25,-80.5 264.25,-58.25 485.75,-58.25 485.75,-80.5"/>
<text text-anchor="middle" x="375" y="-65.1" font-family="Arial" font-size="12.00">main/supporting/kicker_drive_train.cpp</text>
</a>
</g>
</g>
<!-- Node1&#45;&gt;Node5 -->
<g id="edge4_Node000001_Node000005" class="edge">
<title>Node1&#45;&gt;Node5</title>
<g id="a_edge4_Node000001_Node000005"><a xlink:title=" ">
<path fill="none" stroke="#63b8ff" d="M287.76,-111.27C308.32,-101.63 334.29,-89.46 352.53,-80.91"/>
<polygon fill="#63b8ff" stroke="#63b8ff" points="286.51,-107.99 278.94,-115.4 289.48,-114.33 286.51,-107.99"/>
</a>
</g>
</g>
<!-- Node3 -->
<g id="Node000003" class="node">
<title>Node3</title>
<g id="a_Node000003"><a xlink:href="main_8cpp.html" target="_top" xlink:title="This is the file that contains the main function and all other tasks for the robot.">
<polygon fill="white" stroke="#666666" points="94,-22.25 0,-22.25 0,0 94,0 94,-22.25"/>
<text text-anchor="middle" x="47" y="-6.85" font-family="Arial" font-size="12.00">main/main.cpp</text>
</a>
</g>
</g>
<!-- Node2&#45;&gt;Node3 -->
<g id="edge2_Node000002_Node000003" class="edge">
<title>Node2&#45;&gt;Node3</title>
<g id="a_edge2_Node000002_Node000003"><a xlink:title=" ">
<path fill="none" stroke="#63b8ff" d="M108.88,-51.68C94.17,-42.27 76.24,-30.82 63.48,-22.66"/>
<polygon fill="#63b8ff" stroke="#63b8ff" points="106.86,-54.54 117.17,-56.98 110.63,-48.64 106.86,-54.54"/>
</a>
</g>
</g>
<!-- Node4 -->
<g id="Node000004" class="node">
<title>Node4</title>
<g id="a_Node000004"><a xlink:href="kicker__drive__train__task_8cpp.html" target="_top" xlink:title=" ">
<polygon fill="white" stroke="#666666" points="333.75,-22.25 112.25,-22.25 112.25,0 333.75,0 333.75,-22.25"/>
<text text-anchor="middle" x="223" y="-6.85" font-family="Arial" font-size="12.00">main/tasks/kicker_drive_train_task.cpp</text>
</a>
</g>
</g>
<!-- Node2&#45;&gt;Node4 -->
<g id="edge3_Node000002_Node000004" class="edge">
<title>Node2&#45;&gt;Node4</title>
<g id="a_edge3_Node000002_Node000004"><a xlink:title=" ">
<path fill="none" stroke="#63b8ff" d="M161.12,-51.68C175.83,-42.27 193.76,-30.82 206.52,-22.66"/>
<polygon fill="#63b8ff" stroke="#63b8ff" points="159.37,-48.64 152.83,-56.98 163.14,-54.54 159.37,-48.64"/>
</a>
</g>
</g>
</g>
</svg>
</svg>

<style type='text/css'>
<![CDATA[
[data-mouse-over-selected='false'] { opacity: 0.7; }
[data-mouse-over-selected='true']  { opacity: 1.0; }
]]>
</style>
<script type="application/ecmascript"><![CDATA[
document.addEventListener('DOMContentLoaded', (event) => {
  highlightEdges();
  highlightAdjacentNodes();
});
]]></script>
</svg>
