<?xml version="1.0" encoding="UTF-8" standalone="no"?>
<!DOCTYPE svg PUBLIC "-//W3C//DTD SVG 1.1//EN"
 "http://www.w3.org/Graphics/SVG/1.1/DTD/svg11.dtd">
<!-- Generated by graphviz version 12.2.1 (20241206.2353)
 -->
<!-- Title: main/tasks/kicker_drive_train_task.cpp Pages: 1 -->
<!--zoomable 380 -->

<svg id="main" version="1.1" xmlns="http://www.w3.org/2000/svg" xmlns:xlink="http://www.w3.org/1999/xlink" xml:space="preserve" onload="init(evt)">

<style type="text/css"><![CDATA[
.node, .edge {opacity: 0.7;}
.node.selected, .edge.selected {opacity: 1;}
.edge:hover path { stroke: red; }
.edge:hover polygon { stroke: red; fill: red; }
]]></style>

<defs>
  <circle id="rim" cx="0" cy="0" r="7"/>
  <circle id="rim2" cx="0" cy="0" r="3.5"/>
  <g id="zoomPlus">
    <use xlink:href="#rim" fill="#404040"><set attributeName="fill" to="#808080" begin="zoomplus.mouseover" end="zoomplus.mouseout"/></use>
    <path d="M-4,0h8M0,-4v8" fill="none" stroke="white" stroke-width="1.5" pointer-events="none"/>
  </g>
  <g id="zoomMin">
    <use xlink:href="#rim" fill="#404040"><set attributeName="fill" to="#808080" begin="zoomminus.mouseover" end="zoomminus.mouseout"/></use>
    <path d="M-4,0h8" fill="none" stroke="white" stroke-width="1.5" pointer-events="none"/>
  </g>
  <g id="arrowUp" transform="translate(30 24)">
    <use xlink:href="#rim"/>
    <path pointer-events="none" fill="none" stroke="white" stroke-width="1.5" d="M0,-3.0v7 M-2.5,-0.5L0,-3.0L2.5,-0.5"/>
  </g>
  <g id="arrowRight" transform="rotate(90) translate(36 -43)">
    <use xlink:href="#rim"/>
    <path pointer-events="none" fill="none" stroke="white" stroke-width="1.5" d="M0,-3.0v7 M-2.5,-0.5L0,-3.0L2.5,-0.5"/>
  </g>
  <g id="arrowDown" transform="rotate(180) translate(-30 -48)">
    <use xlink:href="#rim"/>
    <path pointer-events="none" fill="none" stroke="white" stroke-width="1.5" d="M0,-3.0v7 M-2.5,-0.5L0,-3.0L2.5,-0.5"/>
  </g>
  <g id="arrowLeft" transform="rotate(270) translate(-36 17)">
    <use xlink:href="#rim"/>
    <path pointer-events="none" fill="none" stroke="white" stroke-width="1.5" d="M0,-3.0v7 M-2.5,-0.5L0,-3.0L2.5,-0.5"/>
  </g>
  <g id="resetDef">
    <use xlink:href="#rim2" fill="#404040"><set attributeName="fill" to="#808080" begin="reset.mouseover" end="reset.mouseout"/></use>
  </g>
</defs>
<script type="application/ecmascript">
var viewWidth = 2342;
var viewHeight = 380;
var sectionId = 'dynsection-0';
</script>
<script type="application/ecmascript" xlink:href="svg.min.js"/>
<svg id="graph" class="graph">
<g id="viewport">
<title>main/tasks/kicker_drive_train_task.cpp</title>
<!-- Node1 -->
<g id="Node000001" class="node">
<title>Node1</title>
<g id="a_Node000001"><a xlink:title=" ">
<polygon fill="#999999" stroke="#666666" points="1256.38,-371.75 1034.88,-371.75 1034.88,-349.5 1256.38,-349.5 1256.38,-371.75"/>
<text text-anchor="middle" x="1145.62" y="-356.35" font-family="Arial" font-size="12.00">main/tasks/kicker_drive_train_task.cpp</text>
</a>
</g>
</g>
<!-- Node2 -->
<g id="Node000002" class="node">
<title>Node2</title>
<g id="a_Node000002"><a xlink:href="kicker__drive__train__task_8h.html" target="_top" xlink:title="Contains the externs and defines for the kicker drive train task.">
<polygon fill="white" stroke="#666666" points="1265.38,-313.5 1025.88,-313.5 1025.88,-291.25 1265.38,-291.25 1265.38,-313.5"/>
<text text-anchor="middle" x="1145.62" y="-298.1" font-family="Arial" font-size="12.00">../../include/tasks/kicker_drive_train_task.h</text>
</a>
</g>
</g>
<!-- Node1&#45;&gt;Node2 -->
<g id="edge1_Node000001_Node000002" class="edge">
<title>Node1&#45;&gt;Node2</title>
<g id="a_edge1_Node000001_Node000002"><a xlink:title=" ">
<path fill="none" stroke="#63b8ff" d="M1145.62,-349.04C1145.62,-342.37 1145.62,-333.49 1145.62,-325.34"/>
<polygon fill="#63b8ff" stroke="#63b8ff" points="1149.13,-325.42 1145.63,-315.42 1142.13,-325.42 1149.13,-325.42"/>
</a>
</g>
</g>
<!-- Node3 -->
<g id="Node000003" class="node">
<title>Node3</title>
<g id="a_Node000003"><a xlink:href="all__includes_8h.html" target="_top" xlink:title="Contains the system wide includes for esp&#45;idf and c++, along with structs and enums.">
<polygon fill="white" stroke="#666666" points="1161.25,-80.5 1062,-80.5 1062,-58.25 1161.25,-58.25 1161.25,-80.5"/>
<text text-anchor="middle" x="1111.62" y="-65.1" font-family="Arial" font-size="12.00">../all_includes.h</text>
</a>
</g>
</g>
<!-- Node2&#45;&gt;Node3 -->
<g id="edge2_Node000002_Node000003" class="edge">
<title>Node2&#45;&gt;Node3</title>
<g id="a_edge2_Node000002_Node000003"><a xlink:title=" ">
<path fill="none" stroke="#63b8ff" d="M1152.54,-291.04C1171.19,-261.76 1218.93,-176.51 1185.62,-116.5 1178.19,-103.1 1165.07,-93.09 1151.92,-85.88"/>
<polygon fill="#63b8ff" stroke="#63b8ff" points="1153.82,-82.92 1143.31,-81.58 1150.69,-89.18 1153.82,-82.92"/>
</a>
</g>
</g>
<!-- Node28 -->
<g id="Node000028" class="node">
<title>Node28</title>
<g id="a_Node000028"><a xlink:href="pinout_8h.html" target="_top" xlink:title="This is the file that contains the pinout and other configuration information.">
<polygon fill="white" stroke="#666666" points="1176.5,-138.75 1108.75,-138.75 1108.75,-116.5 1176.5,-116.5 1176.5,-138.75"/>
<text text-anchor="middle" x="1142.62" y="-123.35" font-family="Arial" font-size="12.00">../pinout.h</text>
</a>
</g>
</g>
<!-- Node2&#45;&gt;Node28 -->
<g id="edge27_Node000002_Node000028" class="edge">
<title>Node2&#45;&gt;Node28</title>
<g id="a_edge27_Node000002_Node000028"><a xlink:title=" ">
<path fill="none" stroke="#63b8ff" d="M1145.44,-290.83C1144.96,-263.05 1143.65,-187.47 1143,-150.11"/>
<polygon fill="#63b8ff" stroke="#63b8ff" points="1146.51,-150.48 1142.83,-140.55 1139.51,-150.61 1146.51,-150.48"/>
</a>
</g>
</g>
<!-- Node29 -->
<g id="Node000029" class="node">
<title>Node29</title>
<g id="a_Node000029"><a xlink:href="o_drive_8h.html" target="_top" xlink:title="This is the header for the oDrive class.">
<polygon fill="white" stroke="#666666" points="1098.12,-197 989.12,-197 989.12,-174.75 1098.12,-174.75 1098.12,-197"/>
<text text-anchor="middle" x="1043.62" y="-181.6" font-family="Arial" font-size="12.00">../drivers/oDrive.h</text>
</a>
</g>
</g>
<!-- Node2&#45;&gt;Node29 -->
<g id="edge29_Node000002_Node000029" class="edge">
<title>Node2&#45;&gt;Node29</title>
<g id="a_edge29_Node000002_Node000029"><a xlink:title=" ">
<path fill="none" stroke="#63b8ff" d="M1141.67,-291.23C1135.78,-277.07 1123.69,-251.07 1107.62,-233 1097.46,-221.57 1083.98,-211.33 1072.01,-203.42"/>
<polygon fill="#63b8ff" stroke="#63b8ff" points="1074.02,-200.55 1063.7,-198.16 1070.28,-206.46 1074.02,-200.55"/>
</a>
</g>
</g>
<!-- Node31 -->
<g id="Node000031" class="node">
<title>Node31</title>
<g id="a_Node000031"><a xlink:href="kicker__drive__train_8h.html" target="_top" xlink:title="Header for the kicker drive_train class.">
<polygon fill="white" stroke="#666666" points="1098.88,-255.25 910.38,-255.25 910.38,-233 1098.88,-233 1098.88,-255.25"/>
<text text-anchor="middle" x="1004.62" y="-239.85" font-family="Arial" font-size="12.00">../supporting/kicker_drive_train.h</text>
</a>
</g>
</g>
<!-- Node2&#45;&gt;Node31 -->
<g id="edge33_Node000002_Node000031" class="edge">
<title>Node2&#45;&gt;Node31</title>
<g id="a_edge33_Node000002_Node000031"><a xlink:title=" ">
<path fill="none" stroke="#63b8ff" d="M1119.1,-290.79C1097.24,-282.07 1065.99,-269.61 1041.66,-259.9"/>
<polygon fill="#63b8ff" stroke="#63b8ff" points="1043.02,-256.67 1032.43,-256.22 1040.42,-263.17 1043.02,-256.67"/>
</a>
</g>
</g>
<!-- Node4 -->
<g id="Node000004" class="node">
<title>Node4</title>
<g id="a_Node000004"><a xlink:title=" ">
<polygon fill="#e0e0e0" stroke="#999999" points="45.25,-22.25 0,-22.25 0,0 45.25,0 45.25,-22.25"/>
<text text-anchor="middle" x="22.62" y="-6.85" font-family="Arial" font-size="12.00">string</text>
</a>
</g>
</g>
<!-- Node3&#45;&gt;Node4 -->
<g id="edge3_Node000003_Node000004" class="edge">
<title>Node3&#45;&gt;Node4</title>
<g id="a_edge3_Node000003_Node000004"><a xlink:title=" ">
<path fill="none" stroke="#63b8ff" d="M1061.64,-67.99C882.58,-66.36 272.76,-58.34 56.68,-22.31"/>
<polygon fill="#63b8ff" stroke="#63b8ff" points="57.41,-18.89 46.96,-20.61 56.21,-25.78 57.41,-18.89"/>
</a>
</g>
</g>
<!-- Node5 -->
<g id="Node000005" class="node">
<title>Node5</title>
<g id="a_Node000005"><a xlink:title=" ">
<polygon fill="#e0e0e0" stroke="#999999" points="118.12,-22.25 63.12,-22.25 63.12,0 118.12,0 118.12,-22.25"/>
<text text-anchor="middle" x="90.62" y="-6.85" font-family="Arial" font-size="12.00">string.h</text>
</a>
</g>
</g>
<!-- Node3&#45;&gt;Node5 -->
<g id="edge4_Node000003_Node000005" class="edge">
<title>Node3&#45;&gt;Node5</title>
<g id="a_edge4_Node000003_Node000005"><a xlink:title=" ">
<path fill="none" stroke="#63b8ff" d="M1061.58,-67.53C890.88,-64.44 331.43,-52.34 129.73,-22.37"/>
<polygon fill="#63b8ff" stroke="#63b8ff" points="130.31,-18.92 119.89,-20.84 129.23,-25.84 130.31,-18.92"/>
</a>
</g>
</g>
<!-- Node6 -->
<g id="Node000006" class="node">
<title>Node6</title>
<g id="a_Node000006"><a xlink:title=" ">
<polygon fill="#e0e0e0" stroke="#999999" points="187.25,-22.25 136,-22.25 136,0 187.25,0 187.25,-22.25"/>
<text text-anchor="middle" x="161.62" y="-6.85" font-family="Arial" font-size="12.00">stdio.h</text>
</a>
</g>
</g>
<!-- Node3&#45;&gt;Node6 -->
<g id="edge5_Node000003_Node000006" class="edge">
<title>Node3&#45;&gt;Node6</title>
<g id="a_edge5_Node000003_Node000006"><a xlink:title=" ">
<path fill="none" stroke="#63b8ff" d="M1061.71,-67.38C899.34,-63.9 386.37,-51.03 198.56,-22.11"/>
<polygon fill="#63b8ff" stroke="#63b8ff" points="199.39,-18.7 188.96,-20.56 198.27,-25.61 199.39,-18.7"/>
</a>
</g>
</g>
<!-- Node7 -->
<g id="Node000007" class="node">
<title>Node7</title>
<g id="a_Node000007"><a xlink:title=" ">
<polygon fill="#e0e0e0" stroke="#999999" points="257.62,-22.25 205.62,-22.25 205.62,0 257.62,0 257.62,-22.25"/>
<text text-anchor="middle" x="231.62" y="-6.85" font-family="Arial" font-size="12.00">math.h</text>
</a>
</g>
</g>
<!-- Node3&#45;&gt;Node7 -->
<g id="edge6_Node000003_Node000007" class="edge">
<title>Node3&#45;&gt;Node7</title>
<g id="a_edge6_Node000003_Node000007"><a xlink:title=" ">
<path fill="none" stroke="#63b8ff" d="M1061.72,-67.14C908.01,-63.1 442.16,-49.09 269.07,-22.23"/>
<polygon fill="#63b8ff" stroke="#63b8ff" points="269.78,-18.8 259.34,-20.65 268.65,-25.71 269.78,-18.8"/>
</a>
</g>
</g>
<!-- Node8 -->
<g id="Node000008" class="node">
<title>Node8</title>
<g id="a_Node000008"><a xlink:title=" ">
<polygon fill="#e0e0e0" stroke="#999999" points="349.5,-22.25 275.75,-22.25 275.75,0 349.5,0 349.5,-22.25"/>
<text text-anchor="middle" x="312.62" y="-6.85" font-family="Arial" font-size="12.00">esp_now.h</text>
</a>
</g>
</g>
<!-- Node3&#45;&gt;Node8 -->
<g id="edge7_Node000003_Node000008" class="edge">
<title>Node3&#45;&gt;Node8</title>
<g id="a_edge7_Node000003_Node000008"><a xlink:title=" ">
<path fill="none" stroke="#63b8ff" d="M1061.57,-67.99C942.01,-66.5 630.3,-59.22 361.11,-22.4"/>
<polygon fill="#63b8ff" stroke="#63b8ff" points="361.83,-18.96 351.44,-21.06 360.87,-25.9 361.83,-18.96"/>
</a>
</g>
</g>
<!-- Node9 -->
<g id="Node000009" class="node">
<title>Node9</title>
<g id="a_Node000009"><a xlink:title=" ">
<polygon fill="#e0e0e0" stroke="#999999" points="437.62,-22.25 367.62,-22.25 367.62,0 437.62,0 437.62,-22.25"/>
<text text-anchor="middle" x="402.62" y="-6.85" font-family="Arial" font-size="12.00">esp_wifi.h</text>
</a>
</g>
</g>
<!-- Node3&#45;&gt;Node9 -->
<g id="edge8_Node000003_Node000009" class="edge">
<title>Node3&#45;&gt;Node9</title>
<g id="a_edge8_Node000003_Node000009"><a xlink:title=" ">
<path fill="none" stroke="#63b8ff" d="M1061.7,-67.58C952.33,-65.27 683.28,-56.47 449.2,-22.43"/>
<polygon fill="#63b8ff" stroke="#63b8ff" points="449.98,-19 439.57,-21.01 448.95,-25.93 449.98,-19"/>
</a>
</g>
</g>
<!-- Node10 -->
<g id="Node000010" class="node">
<title>Node10</title>
<g id="a_Node000010"><a xlink:title=" ">
<polygon fill="#e0e0e0" stroke="#999999" points="523.88,-22.25 455.38,-22.25 455.38,0 523.88,0 523.88,-22.25"/>
<text text-anchor="middle" x="489.62" y="-6.85" font-family="Arial" font-size="12.00">esp_log.h</text>
</a>
</g>
</g>
<!-- Node3&#45;&gt;Node10 -->
<g id="edge9_Node000003_Node000010" class="edge">
<title>Node3&#45;&gt;Node10</title>
<g id="a_edge9_Node000003_Node000010"><a xlink:title=" ">
<path fill="none" stroke="#63b8ff" d="M1061.86,-66.86C963.31,-63.33 736.26,-52.56 535.48,-22.3"/>
<polygon fill="#63b8ff" stroke="#63b8ff" points="536.03,-18.85 525.62,-20.79 534.97,-25.77 536.03,-18.85"/>
</a>
</g>
</g>
<!-- Node11 -->
<g id="Node000011" class="node">
<title>Node11</title>
<g id="a_Node000011"><a xlink:title=" ">
<polygon fill="#e0e0e0" stroke="#999999" points="616.88,-22.25 542.38,-22.25 542.38,0 616.88,0 616.88,-22.25"/>
<text text-anchor="middle" x="579.62" y="-6.85" font-family="Arial" font-size="12.00">esp_mac.h</text>
</a>
</g>
</g>
<!-- Node3&#45;&gt;Node11 -->
<g id="edge10_Node000003_Node000011" class="edge">
<title>Node3&#45;&gt;Node11</title>
<g id="a_edge10_Node000003_Node000011"><a xlink:title=" ">
<path fill="none" stroke="#63b8ff" d="M1061.7,-65.65C975.34,-60.51 792.34,-47.67 628.47,-22.54"/>
<polygon fill="#63b8ff" stroke="#63b8ff" points="629.12,-19.1 618.71,-21.02 628.05,-26.02 629.12,-19.1"/>
</a>
</g>
</g>
<!-- Node12 -->
<g id="Node000012" class="node">
<title>Node12</title>
<g id="a_Node000012"><a xlink:title=" ">
<polygon fill="#e0e0e0" stroke="#999999" points="760.38,-22.25 634.88,-22.25 634.88,0 760.38,0 760.38,-22.25"/>
<text text-anchor="middle" x="697.62" y="-6.85" font-family="Arial" font-size="12.00">freertos/FreeRTOS.h</text>
</a>
</g>
</g>
<!-- Node3&#45;&gt;Node12 -->
<g id="edge11_Node000003_Node000012" class="edge">
<title>Node3&#45;&gt;Node12</title>
<g id="a_edge11_Node000003_Node000012"><a xlink:title=" ">
<path fill="none" stroke="#63b8ff" d="M1061.77,-61.74C997.38,-53.15 881.51,-37.63 772.09,-22.58"/>
<polygon fill="#63b8ff" stroke="#63b8ff" points="772.72,-19.14 762.34,-21.24 771.77,-26.07 772.72,-19.14"/>
</a>
</g>
</g>
<!-- Node13 -->
<g id="Node000013" class="node">
<title>Node13</title>
<g id="a_Node000013"><a xlink:title=" ">
<polygon fill="#e0e0e0" stroke="#999999" points="868.75,-22.25 778.5,-22.25 778.5,0 868.75,0 868.75,-22.25"/>
<text text-anchor="middle" x="823.62" y="-6.85" font-family="Arial" font-size="12.00">freertos/task.h</text>
</a>
</g>
</g>
<!-- Node3&#45;&gt;Node13 -->
<g id="edge12_Node000003_Node000013" class="edge">
<title>Node3&#45;&gt;Node13</title>
<g id="a_edge12_Node000003_Node000013"><a xlink:title=" ">
<path fill="none" stroke="#63b8ff" d="M1061.79,-58.64C1011.24,-48.77 933.13,-33.51 880.27,-23.19"/>
<polygon fill="#63b8ff" stroke="#63b8ff" points="881.03,-19.77 870.55,-21.29 879.69,-26.64 881.03,-19.77"/>
</a>
</g>
</g>
<!-- Node14 -->
<g id="Node000014" class="node">
<title>Node14</title>
<g id="a_Node000014"><a xlink:title=" ">
<polygon fill="#e0e0e0" stroke="#999999" points="988.75,-22.25 886.5,-22.25 886.5,0 988.75,0 988.75,-22.25"/>
<text text-anchor="middle" x="937.62" y="-6.85" font-family="Arial" font-size="12.00">freertos/queue.h</text>
</a>
</g>
</g>
<!-- Node3&#45;&gt;Node14 -->
<g id="edge13_Node000003_Node000014" class="edge">
<title>Node3&#45;&gt;Node14</title>
<g id="a_edge13_Node000003_Node000014"><a xlink:title=" ">
<path fill="none" stroke="#63b8ff" d="M1078.9,-57.79C1051.19,-48.84 1011.26,-35.93 980.91,-26.12"/>
<polygon fill="#63b8ff" stroke="#63b8ff" points="982.24,-22.87 971.65,-23.12 980.09,-29.53 982.24,-22.87"/>
</a>
</g>
</g>
<!-- Node15 -->
<g id="Node000015" class="node">
<title>Node15</title>
<g id="a_Node000015"><a xlink:title=" ">
<polygon fill="#e0e0e0" stroke="#999999" points="1108,-22.25 1007.25,-22.25 1007.25,0 1108,0 1108,-22.25"/>
<text text-anchor="middle" x="1057.62" y="-6.85" font-family="Arial" font-size="12.00">freertos/timers.h</text>
</a>
</g>
</g>
<!-- Node3&#45;&gt;Node15 -->
<g id="edge14_Node000003_Node000015" class="edge">
<title>Node3&#45;&gt;Node15</title>
<g id="a_edge14_Node000003_Node000015"><a xlink:title=" ">
<path fill="none" stroke="#63b8ff" d="M1101.47,-57.79C1094.15,-50.17 1084.09,-39.69 1075.45,-30.69"/>
<polygon fill="#63b8ff" stroke="#63b8ff" points="1078.23,-28.54 1068.78,-23.75 1073.19,-33.39 1078.23,-28.54"/>
</a>
</g>
</g>
<!-- Node16 -->
<g id="Node000016" class="node">
<title>Node16</title>
<g id="a_Node000016"><a xlink:title=" ">
<polygon fill="#e0e0e0" stroke="#999999" points="1207.62,-22.25 1125.62,-22.25 1125.62,0 1207.62,0 1207.62,-22.25"/>
<text text-anchor="middle" x="1166.62" y="-6.85" font-family="Arial" font-size="12.00">driver/gpio.h</text>
</a>
</g>
</g>
<!-- Node3&#45;&gt;Node16 -->
<g id="edge15_Node000003_Node000016" class="edge">
<title>Node3&#45;&gt;Node16</title>
<g id="a_edge15_Node000003_Node000016"><a xlink:title=" ">
<path fill="none" stroke="#63b8ff" d="M1121.97,-57.79C1129.42,-50.17 1139.67,-39.69 1148.47,-30.69"/>
<polygon fill="#63b8ff" stroke="#63b8ff" points="1150.78,-33.34 1155.27,-23.74 1145.77,-28.44 1150.78,-33.34"/>
</a>
</g>
</g>
<!-- Node17 -->
<g id="Node000017" class="node">
<title>Node17</title>
<g id="a_Node000017"><a xlink:title=" ">
<polygon fill="#e0e0e0" stroke="#999999" points="1341.88,-22.25 1225.38,-22.25 1225.38,0 1341.88,0 1341.88,-22.25"/>
<text text-anchor="middle" x="1283.62" y="-6.85" font-family="Arial" font-size="12.00">driver/i2c_master.h</text>
</a>
</g>
</g>
<!-- Node3&#45;&gt;Node17 -->
<g id="edge16_Node000003_Node000017" class="edge">
<title>Node3&#45;&gt;Node17</title>
<g id="a_edge16_Node000003_Node000017"><a xlink:title=" ">
<path fill="none" stroke="#63b8ff" d="M1143.98,-57.79C1171.36,-48.84 1210.84,-35.93 1240.84,-26.12"/>
<polygon fill="#63b8ff" stroke="#63b8ff" points="1241.56,-29.56 1249.98,-23.13 1239.39,-22.91 1241.56,-29.56"/>
</a>
</g>
</g>
<!-- Node18 -->
<g id="Node000018" class="node">
<title>Node18</title>
<g id="a_Node000018"><a xlink:title=" ">
<polygon fill="#e0e0e0" stroke="#999999" points="1440.88,-22.25 1360.38,-22.25 1360.38,0 1440.88,0 1440.88,-22.25"/>
<text text-anchor="middle" x="1400.62" y="-6.85" font-family="Arial" font-size="12.00">driver/twai.h</text>
</a>
</g>
</g>
<!-- Node3&#45;&gt;Node18 -->
<g id="edge17_Node000003_Node000018" class="edge">
<title>Node3&#45;&gt;Node18</title>
<g id="a_edge17_Node000003_Node000018"><a xlink:title=" ">
<path fill="none" stroke="#63b8ff" d="M1161.55,-58.88C1207.55,-50.1 1278.03,-36.56 1349.04,-22.55"/>
<polygon fill="#63b8ff" stroke="#63b8ff" points="1349.36,-26.06 1358.49,-20.68 1348,-19.19 1349.36,-26.06"/>
</a>
</g>
</g>
<!-- Node19 -->
<g id="Node000019" class="node">
<title>Node19</title>
<g id="a_Node000019"><a xlink:title=" ">
<polygon fill="#e0e0e0" stroke="#999999" points="1540.25,-22.25 1459,-22.25 1459,0 1540.25,0 1540.25,-22.25"/>
<text text-anchor="middle" x="1499.62" y="-6.85" font-family="Arial" font-size="12.00">driver/ledc.h</text>
</a>
</g>
</g>
<!-- Node3&#45;&gt;Node19 -->
<g id="edge18_Node000003_Node000019" class="edge">
<title>Node3&#45;&gt;Node19</title>
<g id="a_edge18_Node000003_Node000019"><a xlink:title=" ">
<path fill="none" stroke="#63b8ff" d="M1161.6,-62.57C1225.5,-54.93 1339.82,-40.5 1447.65,-22.5"/>
<polygon fill="#63b8ff" stroke="#63b8ff" points="1447.96,-25.99 1457.24,-20.88 1446.8,-19.09 1447.96,-25.99"/>
</a>
</g>
</g>
<!-- Node20 -->
<g id="Node000020" class="node">
<title>Node20</title>
<g id="a_Node000020"><a xlink:title=" ">
<polygon fill="#e0e0e0" stroke="#999999" points="1647.38,-22.25 1557.88,-22.25 1557.88,0 1647.38,0 1647.38,-22.25"/>
<text text-anchor="middle" x="1602.62" y="-6.85" font-family="Arial" font-size="12.00">esp_system.h</text>
</a>
</g>
</g>
<!-- Node3&#45;&gt;Node20 -->
<g id="edge19_Node000003_Node000020" class="edge">
<title>Node3&#45;&gt;Node20</title>
<g id="a_edge19_Node000003_Node000020"><a xlink:title=" ">
<path fill="none" stroke="#63b8ff" d="M1161.72,-64.48C1241.2,-57.99 1401.3,-43.7 1546.27,-22.66"/>
<polygon fill="#63b8ff" stroke="#63b8ff" points="1546.68,-26.13 1556.07,-21.22 1545.66,-19.21 1546.68,-26.13"/>
</a>
</g>
</g>
<!-- Node21 -->
<g id="Node000021" class="node">
<title>Node21</title>
<g id="a_Node000021"><a xlink:title=" ">
<polygon fill="#e0e0e0" stroke="#999999" points="1732.12,-22.25 1665.12,-22.25 1665.12,0 1732.12,0 1732.12,-22.25"/>
<text text-anchor="middle" x="1698.62" y="-6.85" font-family="Arial" font-size="12.00">espnow.h</text>
</a>
</g>
</g>
<!-- Node3&#45;&gt;Node21 -->
<g id="edge20_Node000003_Node000021" class="edge">
<title>Node3&#45;&gt;Node21</title>
<g id="a_edge20_Node000003_Node000021"><a xlink:title=" ">
<path fill="none" stroke="#63b8ff" d="M1161.53,-66.69C1255.94,-62.96 1467.25,-51.98 1653.68,-22.53"/>
<polygon fill="#63b8ff" stroke="#63b8ff" points="1653.97,-26.03 1663.29,-20.99 1652.87,-19.12 1653.97,-26.03"/>
</a>
</g>
</g>
<!-- Node22 -->
<g id="Node000022" class="node">
<title>Node22</title>
<g id="a_Node000022"><a xlink:title=" ">
<polygon fill="#e0e0e0" stroke="#999999" points="1831.25,-22.25 1750,-22.25 1750,0 1831.25,0 1831.25,-22.25"/>
<text text-anchor="middle" x="1790.62" y="-6.85" font-family="Arial" font-size="12.00">esp_event.h</text>
</a>
</g>
</g>
<!-- Node3&#45;&gt;Node22 -->
<g id="edge21_Node000003_Node000022" class="edge">
<title>Node3&#45;&gt;Node22</title>
<g id="a_edge21_Node000003_Node000022"><a xlink:title=" ">
<path fill="none" stroke="#63b8ff" d="M1161.68,-66.93C1266.84,-63.42 1518.56,-52.51 1738.41,-22.56"/>
<polygon fill="#63b8ff" stroke="#63b8ff" points="1738.59,-26.07 1748.02,-21.23 1737.64,-19.13 1738.59,-26.07"/>
</a>
</g>
</g>
<!-- Node23 -->
<g id="Node000023" class="node">
<title>Node23</title>
<g id="a_Node000023"><a xlink:title=" ">
<polygon fill="#e0e0e0" stroke="#999999" points="1926,-22.25 1849.25,-22.25 1849.25,0 1926,0 1926,-22.25"/>
<text text-anchor="middle" x="1887.62" y="-6.85" font-family="Arial" font-size="12.00">nvs_flash.h</text>
</a>
</g>
</g>
<!-- Node3&#45;&gt;Node23 -->
<g id="edge22_Node000003_Node000023" class="edge">
<title>Node3&#45;&gt;Node23</title>
<g id="a_edge22_Node000003_Node000023"><a xlink:title=" ">
<path fill="none" stroke="#63b8ff" d="M1161.38,-67.78C1278.01,-65.83 1578.22,-57.65 1837.82,-22.46"/>
<polygon fill="#63b8ff" stroke="#63b8ff" points="1838.05,-25.96 1847.48,-21.13 1837.09,-19.03 1838.05,-25.96"/>
</a>
</g>
</g>
<!-- Node24 -->
<g id="Node000024" class="node">
<title>Node24</title>
<g id="a_Node000024"><a xlink:title=" ">
<polygon fill="#e0e0e0" stroke="#999999" points="2034.75,-22.25 1944.5,-22.25 1944.5,0 2034.75,0 2034.75,-22.25"/>
<text text-anchor="middle" x="1989.62" y="-6.85" font-family="Arial" font-size="12.00">espnow_ctrl.h</text>
</a>
</g>
</g>
<!-- Node3&#45;&gt;Node24 -->
<g id="edge23_Node000003_Node000024" class="edge">
<title>Node3&#45;&gt;Node24</title>
<g id="a_edge23_Node000003_Node000024"><a xlink:title=" ">
<path fill="none" stroke="#63b8ff" d="M1161.45,-67.77C1288.39,-65.75 1634.39,-57.34 1933.02,-22.28"/>
<polygon fill="#63b8ff" stroke="#63b8ff" points="1933.05,-25.8 1942.57,-21.15 1932.23,-18.85 1933.05,-25.8"/>
</a>
</g>
</g>
<!-- Node25 -->
<g id="Node000025" class="node">
<title>Node25</title>
<g id="a_Node000025"><a xlink:title=" ">
<polygon fill="#e0e0e0" stroke="#999999" points="2148.75,-22.25 2052.5,-22.25 2052.5,0 2148.75,0 2148.75,-22.25"/>
<text text-anchor="middle" x="2100.62" y="-6.85" font-family="Arial" font-size="12.00">espnow_utils.h</text>
</a>
</g>
</g>
<!-- Node3&#45;&gt;Node25 -->
<g id="edge24_Node000003_Node000025" class="edge">
<title>Node3&#45;&gt;Node25</title>
<g id="a_edge24_Node000003_Node000025"><a xlink:title=" ">
<path fill="none" stroke="#63b8ff" d="M1161.56,-68.12C1299.8,-66.94 1699.28,-60.34 2040.82,-22.44"/>
<polygon fill="#63b8ff" stroke="#63b8ff" points="2041.12,-25.92 2050.67,-21.33 2040.34,-18.97 2041.12,-25.92"/>
</a>
</g>
</g>
<!-- Node26 -->
<g id="Node000026" class="node">
<title>Node26</title>
<g id="a_Node000026"><a xlink:title=" ">
<polygon fill="#e0e0e0" stroke="#999999" points="2244.38,-22.25 2166.88,-22.25 2166.88,0 2244.38,0 2244.38,-22.25"/>
<text text-anchor="middle" x="2205.62" y="-6.85" font-family="Arial" font-size="12.00">esp_timer.h</text>
</a>
</g>
</g>
<!-- Node3&#45;&gt;Node26 -->
<g id="edge25_Node000003_Node000026" class="edge">
<title>Node3&#45;&gt;Node26</title>
<g id="a_edge25_Node000003_Node000026"><a xlink:title=" ">
<path fill="none" stroke="#63b8ff" d="M1161.55,-67.26C1339,-63.13 1939.66,-47.67 2155.22,-22.31"/>
<polygon fill="#63b8ff" stroke="#63b8ff" points="2155.42,-25.81 2164.92,-21.12 2154.57,-18.87 2155.42,-25.81"/>
</a>
</g>
</g>
<!-- Node27 -->
<g id="Node000027" class="node">
<title>Node27</title>
<g id="a_Node000027"><a xlink:title=" ">
<polygon fill="#e0e0e0" stroke="#999999" points="2334.38,-22.25 2262.88,-22.25 2262.88,0 2334.38,0 2334.38,-22.25"/>
<text text-anchor="middle" x="2298.62" y="-6.85" font-family="Arial" font-size="12.00">led_strip.h</text>
</a>
</g>
</g>
<!-- Node3&#45;&gt;Node27 -->
<g id="edge26_Node000003_Node000027" class="edge">
<title>Node3&#45;&gt;Node27</title>
<g id="a_edge26_Node000003_Node000027"><a xlink:title=" ">
<path fill="none" stroke="#63b8ff" d="M1161.48,-67.56C1349.41,-64.31 2015.76,-51.1 2251.16,-22.3"/>
<polygon fill="#63b8ff" stroke="#63b8ff" points="2251.4,-25.8 2260.88,-21.06 2250.51,-18.85 2251.4,-25.8"/>
</a>
</g>
</g>
<!-- Node28&#45;&gt;Node3 -->
<g id="edge28_Node000028_Node000003" class="edge">
<title>Node28&#45;&gt;Node3</title>
<g id="a_edge28_Node000028_Node000003"><a xlink:title=" ">
<path fill="none" stroke="#63b8ff" d="M1136.79,-116.04C1132.9,-108.97 1127.64,-99.44 1122.94,-90.91"/>
<polygon fill="#63b8ff" stroke="#63b8ff" points="1126.05,-89.3 1118.16,-82.23 1119.92,-92.68 1126.05,-89.3"/>
</a>
</g>
</g>
<!-- Node29&#45;&gt;Node3 -->
<g id="edge30_Node000029_Node000003" class="edge">
<title>Node29&#45;&gt;Node3</title>
<g id="a_edge30_Node000029_Node000003"><a xlink:title=" ">
<path fill="none" stroke="#63b8ff" d="M1049.9,-174.31C1061.18,-155.31 1085.08,-115.08 1099.6,-90.62"/>
<polygon fill="#63b8ff" stroke="#63b8ff" points="1102.49,-92.6 1104.59,-82.22 1096.48,-89.03 1102.49,-92.6"/>
</a>
</g>
</g>
<!-- Node29&#45;&gt;Node28 -->
<g id="edge32_Node000029_Node000028" class="edge">
<title>Node29&#45;&gt;Node28</title>
<g id="a_edge32_Node000029_Node000028"><a xlink:title=" ">
<path fill="none" stroke="#63b8ff" d="M1062.25,-174.29C1076.9,-165.97 1097.58,-154.22 1114.28,-144.73"/>
<polygon fill="#63b8ff" stroke="#63b8ff" points="1115.81,-147.89 1122.77,-139.91 1112.35,-141.8 1115.81,-147.89"/>
</a>
</g>
</g>
<!-- Node30 -->
<g id="Node000030" class="node">
<title>Node30</title>
<g id="a_Node000030"><a xlink:href="odrive__commands_8h.html" target="_top" xlink:title=" ">
<polygon fill="white" stroke="#666666" points="1052.75,-138.75 860.5,-138.75 860.5,-116.5 1052.75,-116.5 1052.75,-138.75"/>
<text text-anchor="middle" x="956.62" y="-123.35" font-family="Arial" font-size="12.00">../supporting/odrive_commands.h</text>
</a>
</g>
</g>
<!-- Node29&#45;&gt;Node30 -->
<g id="edge31_Node000029_Node000030" class="edge">
<title>Node29&#45;&gt;Node30</title>
<g id="a_edge31_Node000029_Node000030"><a xlink:title=" ">
<path fill="none" stroke="#63b8ff" d="M1027.26,-174.29C1014.62,-166.12 996.9,-154.66 982.36,-145.27"/>
<polygon fill="#63b8ff" stroke="#63b8ff" points="984.48,-142.47 974.19,-139.98 980.68,-148.35 984.48,-142.47"/>
</a>
</g>
</g>
<!-- Node31&#45;&gt;Node3 -->
<g id="edge34_Node000031_Node000003" class="edge">
<title>Node31&#45;&gt;Node3</title>
<g id="a_edge34_Node000031_Node000003"><a xlink:title=" ">
<path fill="none" stroke="#63b8ff" d="M971.86,-232.54C915.31,-212.62 809.32,-166.97 851.62,-116.5 876.49,-86.84 981.66,-76.24 1050.39,-72.46"/>
<polygon fill="#63b8ff" stroke="#63b8ff" points="1050.19,-75.97 1060,-71.97 1049.83,-68.98 1050.19,-75.97"/>
</a>
</g>
</g>
<!-- Node31&#45;&gt;Node28 -->
<g id="edge35_Node000031_Node000028" class="edge">
<title>Node31&#45;&gt;Node28</title>
<g id="a_edge35_Node000031_Node000028"><a xlink:title=" ">
<path fill="none" stroke="#63b8ff" d="M1043.73,-232.58C1064.69,-225.34 1089.79,-213.93 1107.62,-197 1121.21,-184.11 1130.42,-164.78 1135.97,-149.96"/>
<polygon fill="#63b8ff" stroke="#63b8ff" points="1139.22,-151.27 1139.16,-140.68 1132.6,-149 1139.22,-151.27"/>
</a>
</g>
</g>
<!-- Node31&#45;&gt;Node29 -->
<g id="edge36_Node000031_Node000029" class="edge">
<title>Node31&#45;&gt;Node29</title>
<g id="a_edge36_Node000031_Node000029"><a xlink:title=" ">
<path fill="none" stroke="#63b8ff" d="M1011.96,-232.54C1016.97,-225.32 1023.77,-215.51 1029.78,-206.84"/>
<polygon fill="#63b8ff" stroke="#63b8ff" points="1032.64,-208.86 1035.46,-198.65 1026.89,-204.88 1032.64,-208.86"/>
</a>
</g>
</g>
<!-- Node31&#45;&gt;Node30 -->
<g id="edge37_Node000031_Node000030" class="edge">
<title>Node31&#45;&gt;Node30</title>
<g id="a_edge37_Node000031_Node000030"><a xlink:title=" ">
<path fill="none" stroke="#63b8ff" d="M998.66,-232.71C993.52,-223.49 986.08,-209.59 980.62,-197 973.9,-181.46 967.61,-163.37 963.16,-149.69"/>
<polygon fill="#63b8ff" stroke="#63b8ff" points="966.58,-148.91 960.22,-140.44 959.91,-151.03 966.58,-148.91"/>
</a>
</g>
</g>
</g>
</svg>

<g id="navigator" transform="translate(0 0)" fill="#404254">
  <rect fill="#f2f5e9" fill-opacity="0.5" stroke="#606060" stroke-width=".5" x="0" y="0" width="60" height="60"/>
  <use id="zoomplus" xlink:href="#zoomPlus" x="17" y="9" onmousedown="handleZoom(evt,'in')"/>
  <use id="zoomminus" xlink:href="#zoomMin" x="42" y="9" onmousedown="handleZoom(evt,'out')"/>
  <use id="reset" xlink:href="#resetDef" x="30" y="36" onmousedown="handleReset()"/>
   <use id="arrowup" xlink:href="#arrowUp" x="0" y="0" onmousedown="handlePan(0,-1)"/>
  <use id="arrowright" xlink:href="#arrowRight" x="0" y="0" onmousedown="handlePan(1,0)"/>
  <use id="arrowdown" xlink:href="#arrowDown" x="0" y="0" onmousedown="handlePan(0,1)"/>
  <use id="arrowleft" xlink:href="#arrowLeft" x="0" y="0" onmousedown="handlePan(-1,0)"/>
</g>
<svg viewBox="0 0 15 15" width="100%" height="30px" preserveAspectRatio="xMaxYMin meet">
 <g id="arrow_out" transform="scale(0.3 0.3)">
  <a xlink:href="kicker__drive__train__task_8cpp__incl_org.svg" target="_base">
   <rect id="button" ry="5" rx="5" y="6" x="6" height="38" width="38"
        fill="#f2f5e9" fill-opacity="0.5" stroke="#606060" stroke-width="1.0"/>
   <path id="arrow"
     d="M 11.500037,31.436501 C 11.940474,20.09759 22.043105,11.32322 32.158766,21.979434 L 37.068811,17.246167 C 37.068811,17.246167 37.088388,32 37.088388,32 L 22.160133,31.978069 C 22.160133,31.978069 26.997745,27.140456 26.997745,27.140456 C 18.528582,18.264221 13.291696,25.230495 11.500037,31.436501 z"
     style="fill:#404040;"/>
  </a>
 </g>
</svg>

<style type='text/css'>
<![CDATA[
[data-mouse-over-selected='false'] { opacity: 0.7; }
[data-mouse-over-selected='true']  { opacity: 1.0; }
]]>
</style>
<script type="application/ecmascript"><![CDATA[
document.addEventListener('DOMContentLoaded', (event) => {
  highlightEdges();
  highlightAdjacentNodes();
});
]]></script>
</svg>
