<?xml version="1.0" encoding="UTF-8" standalone="no"?>
<!DOCTYPE svg PUBLIC "-//W3C//DTD SVG 1.1//EN"
 "http://www.w3.org/Graphics/SVG/1.1/DTD/svg11.dtd">
<!-- Generated by graphviz version 12.2.1 (20241206.2353)
 -->
<!-- Title: include/drivers/led_strip_driver.h Pages: 1 -->
<svg width="396pt" height="89pt"
 viewBox="0.00 0.00 396.12 88.50" xmlns="http://www.w3.org/2000/svg" xmlns:xlink="http://www.w3.org/1999/xlink">
<g id="graph0" class="graph" transform="scale(1 1) rotate(0) translate(4 84.5)">
<title>include/drivers/led_strip_driver.h</title>
<!-- Node1 -->
<g id="Node000001" class="node">
<title>Node1</title>
<g id="a_Node000001"><a xlink:title=" ">
<polygon fill="#999999" stroke="#666666" points="289.5,-80.5 101,-80.5 101,-58.25 289.5,-58.25 289.5,-80.5"/>
<text text-anchor="middle" x="195.25" y="-65.1" font-family="Arial" font-size="12.00">include/drivers/led_strip_driver.h</text>
</a>
</g>
</g>
<!-- Node2 -->
<g id="Node000002" class="node">
<title>Node2</title>
<g id="a_Node000002"><a xlink:href="led__strip__driver_8cpp.html" target="_top" xlink:title=" ">
<polygon fill="white" stroke="#666666" points="188.5,-22.25 0,-22.25 0,0 188.5,0 188.5,-22.25"/>
<text text-anchor="middle" x="94.25" y="-6.85" font-family="Arial" font-size="12.00">main/drivers/led_strip_driver.cpp</text>
</a>
</g>
</g>
<!-- Node1&#45;&gt;Node2 -->
<g id="edge1_Node000001_Node000002" class="edge">
<title>Node1&#45;&gt;Node2</title>
<g id="a_edge1_Node000001_Node000002"><a xlink:title=" ">
<path fill="none" stroke="#63b8ff" d="M166.24,-52.22C149.18,-42.72 128.09,-30.97 113.16,-22.66"/>
<polygon fill="#63b8ff" stroke="#63b8ff" points="164.49,-55.25 174.93,-57.06 167.9,-49.13 164.49,-55.25"/>
</a>
</g>
</g>
<!-- Node3 -->
<g id="Node000003" class="node">
<title>Node3</title>
<g id="a_Node000003"><a xlink:href="led__strip__setup_8cpp.html" target="_top" xlink:title="source file that sets up the led strips">
<polygon fill="white" stroke="#666666" points="388.12,-22.25 206.38,-22.25 206.38,0 388.12,0 388.12,-22.25"/>
<text text-anchor="middle" x="297.25" y="-6.85" font-family="Arial" font-size="12.00">main/setup/led_strip_setup.cpp</text>
</a>
</g>
</g>
<!-- Node1&#45;&gt;Node3 -->
<g id="edge2_Node000001_Node000003" class="edge">
<title>Node1&#45;&gt;Node3</title>
<g id="a_edge2_Node000001_Node000003"><a xlink:title=" ">
<path fill="none" stroke="#63b8ff" d="M224.06,-52.49C241.38,-42.94 262.93,-31.05 278.15,-22.66"/>
<polygon fill="#63b8ff" stroke="#63b8ff" points="222.83,-49.17 215.76,-57.06 226.21,-55.3 222.83,-49.17"/>
</a>
</g>
</g>
</g>
</svg>
