<?xml version="1.0" encoding="UTF-8" standalone="no"?>
<!DOCTYPE svg PUBLIC "-//W3C//DTD SVG 1.1//EN"
 "http://www.w3.org/Graphics/SVG/1.1/DTD/svg11.dtd">
<!-- Generated by graphviz version 12.2.1 (20241206.2353)
 -->
<!-- Title: app_main Pages: 1 -->
<svg width="1269pt" height="388pt"
 viewBox="0.00 0.00 1268.75 388.25" xmlns="http://www.w3.org/2000/svg" xmlns:xlink="http://www.w3.org/1999/xlink">
<g id="graph0" class="graph" transform="scale(1 1) rotate(0) translate(4 384.25)">
<title>app_main</title>
<!-- Node1 -->
<g id="Node000001" class="node">
<title>Node1</title>
<g id="a_Node000001"><a xlink:title="the main function for the program, creates all semaphores, tasks, and runs setup functions">
<polygon fill="#999999" stroke="#666666" points="69.25,-151.25 0,-151.25 0,-129 69.25,-129 69.25,-151.25"/>
<text text-anchor="middle" x="34.62" y="-135.85" font-family="Arial" font-size="12.00">app_main</text>
</a>
</g>
</g>
<!-- Node2 -->
<g id="Node000002" class="node">
<title>Node2</title>
<g id="a_Node000002"><a xlink:href="display__driver__task_8cpp.html#ad4b666a6c9c2ec527932313b8dee6e6a" target="_top" xlink:title="The display driver task.">
<polygon fill="white" stroke="#666666" points="234.5,-320.25 115,-320.25 115,-298 234.5,-298 234.5,-320.25"/>
<text text-anchor="middle" x="174.75" y="-304.85" font-family="Arial" font-size="12.00">display_driver_task</text>
</a>
</g>
</g>
<!-- Node1&#45;&gt;Node2 -->
<g id="edge1_Node000001_Node000002" class="edge">
<title>Node1&#45;&gt;Node2</title>
<g id="a_edge1_Node000001_Node000002"><a xlink:title=" ">
<path fill="none" stroke="#63b8ff" d="M42.74,-151.69C54.72,-170.81 80.05,-209.9 105.25,-240.12 120.11,-257.95 138.76,-276.53 152.85,-289.91"/>
<polygon fill="#63b8ff" stroke="#63b8ff" points="150.17,-292.19 159.85,-296.48 154.96,-287.09 150.17,-292.19"/>
</a>
</g>
</g>
<!-- Node8 -->
<g id="Node000008" class="node">
<title>Node8</title>
<g id="a_Node000008"><a xlink:href="esp__now__setup_8cpp.html#a889303b81f10f5b0163bec7442a0bcdc" target="_top" xlink:title="Sets up the ESP&#45;NOW communication, including setting up the callback functions.">
<polygon fill="white" stroke="#666666" points="225.12,-231.25 124.38,-231.25 124.38,-209 225.12,-209 225.12,-231.25"/>
<text text-anchor="middle" x="174.75" y="-215.85" font-family="Arial" font-size="12.00">esp_now_setup</text>
</a>
</g>
</g>
<!-- Node1&#45;&gt;Node8 -->
<g id="edge7_Node000001_Node000008" class="edge">
<title>Node1&#45;&gt;Node8</title>
<g id="a_edge7_Node000001_Node000008"><a xlink:title=" ">
<path fill="none" stroke="#63b8ff" d="M45.85,-151.5C58.53,-164.97 81.41,-187.18 105.25,-200.12 108.06,-201.65 110.99,-203.07 114,-204.39"/>
<polygon fill="#63b8ff" stroke="#63b8ff" points="112.46,-207.54 123.04,-207.96 115.02,-201.03 112.46,-207.54"/>
</a>
</g>
</g>
<!-- Node11 -->
<g id="Node000011" class="node">
<title>Node11</title>
<g id="a_Node000011"><a xlink:href="i2c__setup_8cpp.html#a4f4aa63c7d4429490f91bfd80164f309" target="_top" xlink:title="Sets up the I2C bus, with the set pins and port number.">
<polygon fill="white" stroke="#666666" points="208.62,-191.25 140.88,-191.25 140.88,-169 208.62,-169 208.62,-191.25"/>
<text text-anchor="middle" x="174.75" y="-175.85" font-family="Arial" font-size="12.00">i2c_setup</text>
</a>
</g>
</g>
<!-- Node1&#45;&gt;Node11 -->
<g id="edge10_Node000001_Node000011" class="edge">
<title>Node1&#45;&gt;Node11</title>
<g id="a_edge10_Node000001_Node000011"><a xlink:title=" ">
<path fill="none" stroke="#63b8ff" d="M69.41,-149.91C87.66,-155.19 110.39,-161.78 129.98,-167.45"/>
<polygon fill="#63b8ff" stroke="#63b8ff" points="128.75,-170.74 139.33,-170.16 130.7,-164.01 128.75,-170.74"/>
</a>
</g>
</g>
<!-- Node12 -->
<g id="Node000012" class="node">
<title>Node12</title>
<g id="a_Node000012"><a xlink:href="kicker__drive__train__task_8cpp.html#a938e6bfee6576fa0854ce50fcaa54b7a" target="_top" xlink:title="The task to drive the odrive motors, set speeds, modify ramped velocity parameters,...">
<polygon fill="white" stroke="#666666" points="244.25,-151.25 105.25,-151.25 105.25,-129 244.25,-129 244.25,-151.25"/>
<text text-anchor="middle" x="174.75" y="-135.85" font-family="Arial" font-size="12.00">kicker_drive_train_task</text>
</a>
</g>
</g>
<!-- Node1&#45;&gt;Node12 -->
<g id="edge11_Node000001_Node000012" class="edge">
<title>Node1&#45;&gt;Node12</title>
<g id="a_edge11_Node000001_Node000012"><a xlink:title=" ">
<path fill="none" stroke="#63b8ff" d="M69.41,-140.12C76.91,-140.12 85.17,-140.12 93.65,-140.12"/>
<polygon fill="#63b8ff" stroke="#63b8ff" points="93.37,-143.63 103.37,-140.13 93.37,-136.63 93.37,-143.63"/>
</a>
</g>
</g>
<!-- Node25 -->
<g id="Node000025" class="node">
<title>Node25</title>
<g id="a_Node000025"><a xlink:href="led__strip__setup_8cpp.html#ad61bd19de422f745c4f8706997898625" target="_top" xlink:title="Sets up the led strip, including the RMT and led strip config.">
<polygon fill="white" stroke="#666666" points="209,-111.25 140.5,-111.25 140.5,-89 209,-89 209,-111.25"/>
<text text-anchor="middle" x="174.75" y="-95.85" font-family="Arial" font-size="12.00">led_setup</text>
</a>
</g>
</g>
<!-- Node1&#45;&gt;Node25 -->
<g id="edge26_Node000001_Node000025" class="edge">
<title>Node1&#45;&gt;Node25</title>
<g id="a_edge26_Node000001_Node000025"><a xlink:title=" ">
<path fill="none" stroke="#63b8ff" d="M69.41,-130.34C87.44,-125.12 109.85,-118.63 129.27,-113.01"/>
<polygon fill="#63b8ff" stroke="#63b8ff" points="130.22,-116.37 138.86,-110.23 128.28,-109.65 130.22,-116.37"/>
</a>
</g>
</g>
<!-- Node27 -->
<g id="Node000027" class="node">
<title>Node27</title>
<g id="a_Node000027"><a xlink:href="esp__now__task_8cpp.html#ab9edebb5dc10653223f27304bc558cfb" target="_top" xlink:title="The task to transmit the battery voltage over esp&#45;now.">
<polygon fill="white" stroke="#666666" points="225.12,-71.25 124.38,-71.25 124.38,-49 225.12,-49 225.12,-71.25"/>
<text text-anchor="middle" x="174.75" y="-55.85" font-family="Arial" font-size="12.00">send_data_task</text>
</a>
</g>
</g>
<!-- Node1&#45;&gt;Node27 -->
<g id="edge28_Node000001_Node000027" class="edge">
<title>Node1&#45;&gt;Node27</title>
<g id="a_edge28_Node000001_Node000027"><a xlink:title=" ">
<path fill="none" stroke="#63b8ff" d="M45.85,-128.75C58.53,-115.28 81.41,-93.07 105.25,-80.12 108.06,-78.6 110.99,-77.18 114,-75.86"/>
<polygon fill="#63b8ff" stroke="#63b8ff" points="115.02,-79.22 123.04,-72.29 112.46,-72.71 115.02,-79.22"/>
</a>
</g>
</g>
<!-- Node28 -->
<g id="Node000028" class="node">
<title>Node28</title>
<g id="a_Node000028"><a xlink:href="servo__driver__task_8cpp.html#a8e1f9855aa8e67ae3bfce99c2a861bc5" target="_top" xlink:title="The task to drive the servo motor.">
<polygon fill="white" stroke="#666666" points="230,-31.25 119.5,-31.25 119.5,-9 230,-9 230,-31.25"/>
<text text-anchor="middle" x="174.75" y="-15.85" font-family="Arial" font-size="12.00">servo_driver_task</text>
</a>
</g>
</g>
<!-- Node1&#45;&gt;Node28 -->
<g id="edge29_Node000001_Node000028" class="edge">
<title>Node1&#45;&gt;Node28</title>
<g id="a_edge29_Node000001_Node000028"><a xlink:title=" ">
<path fill="none" stroke="#63b8ff" d="M40.47,-128.62C49.83,-107.77 72.44,-63.71 105.25,-40.12 106.84,-38.98 108.5,-37.9 110.2,-36.89"/>
<polygon fill="#63b8ff" stroke="#63b8ff" points="111.74,-40.03 119.08,-32.39 108.58,-33.78 111.74,-40.03"/>
</a>
</g>
</g>
<!-- Node3 -->
<g id="Node000003" class="node">
<title>Node3</title>
<g id="a_Node000003"><a xlink:href="classssd1306.html#a23098da61ef8c67a1b1f530526dc4507" target="_top" xlink:title="Clears the display buffer.">
<polygon fill="white" stroke="#666666" points="440.25,-380.25 309.5,-380.25 309.5,-358 440.25,-358 440.25,-380.25"/>
<text text-anchor="middle" x="374.88" y="-364.85" font-family="Arial" font-size="12.00">ssd1306::clear_buffer</text>
</a>
</g>
</g>
<!-- Node2&#45;&gt;Node3 -->
<g id="edge2_Node000002_Node000003" class="edge">
<title>Node2&#45;&gt;Node3</title>
<g id="a_edge2_Node000002_Node000003"><a xlink:title=" ">
<path fill="none" stroke="#63b8ff" d="M202.42,-320.65C223.3,-329.35 253.24,-341.12 280.25,-349.12 287.18,-351.18 294.46,-353.11 301.77,-354.91"/>
<polygon fill="#63b8ff" stroke="#63b8ff" points="300.83,-358.28 311.37,-357.17 302.44,-351.47 300.83,-358.28"/>
</a>
</g>
</g>
<!-- Node4 -->
<g id="Node000004" class="node">
<title>Node4</title>
<g id="a_Node000004"><a xlink:href="classmenu.html#ace9a681a44f014b790e060eb82ad109d" target="_top" xlink:title="This function draws the menu to the display.">
<polygon fill="white" stroke="#666666" points="444.75,-340.25 305,-340.25 305,-318 444.75,-318 444.75,-340.25"/>
<text text-anchor="middle" x="374.88" y="-324.85" font-family="Arial" font-size="12.00">menu::draw_to_display</text>
</a>
</g>
</g>
<!-- Node2&#45;&gt;Node4 -->
<g id="edge3_Node000002_Node000004" class="edge">
<title>Node2&#45;&gt;Node4</title>
<g id="a_edge3_Node000002_Node000004"><a xlink:title=" ">
<path fill="none" stroke="#63b8ff" d="M234.93,-315.1C253.23,-316.95 273.71,-319.01 293.2,-320.98"/>
<polygon fill="#63b8ff" stroke="#63b8ff" points="292.74,-324.45 303.04,-321.97 293.44,-317.49 292.74,-324.45"/>
</a>
</g>
</g>
<!-- Node5 -->
<g id="Node000005" class="node">
<title>Node5</title>
<g id="a_Node000005"><a xlink:href="classssd1306.html#a8534651a9db59a3d8c5162b91457e322" target="_top" xlink:title="Writes the buffer to the display.">
<polygon fill="white" stroke="#666666" points="469.5,-300.25 280.25,-300.25 280.25,-278 469.5,-278 469.5,-300.25"/>
<text text-anchor="middle" x="374.88" y="-284.85" font-family="Arial" font-size="12.00">ssd1306::write_buffer_SSD1306</text>
</a>
</g>
</g>
<!-- Node2&#45;&gt;Node5 -->
<g id="edge4_Node000002_Node000005" class="edge">
<title>Node2&#45;&gt;Node5</title>
<g id="a_edge4_Node000002_Node000005"><a xlink:title=" ">
<path fill="none" stroke="#63b8ff" d="M234.93,-303.15C245.64,-302.07 257.1,-300.91 268.68,-299.74"/>
<polygon fill="#63b8ff" stroke="#63b8ff" points="268.68,-303.26 278.28,-298.77 267.98,-296.3 268.68,-303.26"/>
</a>
</g>
</g>
<!-- Node6 -->
<g id="Node000006" class="node">
<title>Node6</title>
<g id="a_Node000006"><a xlink:href="classssd1306.html#ab1436aa90d5c6404a1246e8f740e80b4" target="_top" xlink:title="Sends a command to the SSD1306.">
<polygon fill="white" stroke="#666666" points="756.25,-340.25 543.75,-340.25 543.75,-318 756.25,-318 756.25,-340.25"/>
<text text-anchor="middle" x="650" y="-324.85" font-family="Arial" font-size="12.00">ssd1306::send_command_SSD1306</text>
</a>
</g>
</g>
<!-- Node5&#45;&gt;Node6 -->
<g id="edge5_Node000005_Node000006" class="edge">
<title>Node5&#45;&gt;Node6</title>
<g id="a_edge5_Node000005_Node000006"><a xlink:title=" ">
<path fill="none" stroke="#63b8ff" d="M449.88,-300.73C468.06,-303.53 487.48,-306.48 505.5,-309.12 520.97,-311.4 537.39,-313.74 553.38,-316"/>
<polygon fill="#63b8ff" stroke="#63b8ff" points="552.48,-319.4 562.87,-317.33 553.45,-312.47 552.48,-319.4"/>
</a>
</g>
</g>
<!-- Node7 -->
<g id="Node000007" class="node">
<title>Node7</title>
<g id="a_Node000007"><a xlink:href="classssd1306.html#a81795f6478fb00df3bca485ba125fb02" target="_top" xlink:title="Sends data to the SSD1306.">
<polygon fill="white" stroke="#666666" points="741.62,-300.25 558.38,-300.25 558.38,-278 741.62,-278 741.62,-300.25"/>
<text text-anchor="middle" x="650" y="-284.85" font-family="Arial" font-size="12.00">ssd1306::send_data_SSD1306</text>
</a>
</g>
</g>
<!-- Node5&#45;&gt;Node7 -->
<g id="edge6_Node000005_Node000007" class="edge">
<title>Node5&#45;&gt;Node7</title>
<g id="a_edge6_Node000005_Node000007"><a xlink:title=" ">
<path fill="none" stroke="#63b8ff" d="M469.87,-289.12C494.62,-289.12 521.45,-289.12 546.63,-289.12"/>
<polygon fill="#63b8ff" stroke="#63b8ff" points="546.55,-292.63 556.55,-289.13 546.55,-285.63 546.55,-292.63"/>
</a>
</g>
</g>
<!-- Node9 -->
<g id="Node000009" class="node">
<title>Node9</title>
<g id="a_Node000009"><a xlink:href="esp__now__callback__setup_8cpp.html#a0125c0c0903f463f26ed56c90a2ec006" target="_top" xlink:title="Callback function for when a message is received.">
<polygon fill="white" stroke="#666666" points="412.5,-250.25 337.25,-250.25 337.25,-228 412.5,-228 412.5,-250.25"/>
<text text-anchor="middle" x="374.88" y="-234.85" font-family="Arial" font-size="12.00">on_receive</text>
</a>
</g>
</g>
<!-- Node8&#45;&gt;Node9 -->
<g id="edge8_Node000008_Node000009" class="edge">
<title>Node8&#45;&gt;Node9</title>
<g id="a_edge8_Node000008_Node000009"><a xlink:title=" ">
<path fill="none" stroke="#63b8ff" d="M225.49,-224.89C256.19,-227.84 295.36,-231.6 325.75,-234.51"/>
<polygon fill="#63b8ff" stroke="#63b8ff" points="325.14,-237.97 335.43,-235.44 325.81,-231 325.14,-237.97"/>
</a>
</g>
</g>
<!-- Node10 -->
<g id="Node000010" class="node">
<title>Node10</title>
<g id="a_Node000010"><a xlink:href="esp__now__callback__setup_8cpp.html#a16fcfe50c95ced45f0ad21870f6e169a" target="_top" xlink:title="Callback function for when a message is sent.">
<polygon fill="white" stroke="#666666" points="406.12,-210.25 343.62,-210.25 343.62,-188 406.12,-188 406.12,-210.25"/>
<text text-anchor="middle" x="374.88" y="-194.85" font-family="Arial" font-size="12.00">on_send</text>
</a>
</g>
</g>
<!-- Node8&#45;&gt;Node10 -->
<g id="edge9_Node000008_Node000010" class="edge">
<title>Node8&#45;&gt;Node10</title>
<g id="a_edge9_Node000008_Node000010"><a xlink:title=" ">
<path fill="none" stroke="#63b8ff" d="M225.49,-214.85C258.32,-211.37 300.85,-206.86 331.96,-203.57"/>
<polygon fill="#63b8ff" stroke="#63b8ff" points="332.2,-207.06 341.77,-202.53 331.46,-200.1 332.2,-207.06"/>
</a>
</g>
</g>
<!-- Node13 -->
<g id="Node000013" class="node">
<title>Node13</title>
<g id="a_Node000013"><a xlink:href="classkicker__drive__train.html#af6663d5dc9de9ac8ca7f32f817cb8bd6" target="_top" xlink:title="The main loop for the drive train, updates values, checks battery, and drives motors.">
<polygon fill="white" stroke="#666666" points="451.5,-151.25 298.25,-151.25 298.25,-129 451.5,-129 451.5,-151.25"/>
<text text-anchor="middle" x="374.88" y="-135.85" font-family="Arial" font-size="12.00">kicker_drive_train::update</text>
</a>
</g>
</g>
<!-- Node12&#45;&gt;Node13 -->
<g id="edge12_Node000012_Node000013" class="edge">
<title>Node12&#45;&gt;Node13</title>
<g id="a_edge12_Node000012_Node000013"><a xlink:title=" ">
<path fill="none" stroke="#63b8ff" d="M244.49,-140.12C258.07,-140.12 272.49,-140.12 286.59,-140.12"/>
<polygon fill="#63b8ff" stroke="#63b8ff" points="286.29,-143.63 296.29,-140.13 286.29,-136.63 286.29,-143.63"/>
</a>
</g>
</g>
<!-- Node14 -->
<g id="Node000014" class="node">
<title>Node14</title>
<g id="a_Node000014"><a xlink:href="classkicker__drive__train.html#a7b21d38c1a81e3646f07602f41cab0bc" target="_top" xlink:title="brake the motors by setting the velocity to 0">
<polygon fill="white" stroke="#666666" points="1023.12,-200.25 833.88,-200.25 833.88,-178 1023.12,-178 1023.12,-200.25"/>
<text text-anchor="middle" x="928.5" y="-184.85" font-family="Arial" font-size="12.00">kicker_drive_train::break_motors</text>
</a>
</g>
</g>
<!-- Node13&#45;&gt;Node14 -->
<g id="edge13_Node000013_Node000014" class="edge">
<title>Node13&#45;&gt;Node14</title>
<g id="a_edge13_Node000013_Node000014"><a xlink:title=" ">
<path fill="none" stroke="#63b8ff" d="M417.33,-151.66C434.68,-157.87 454.3,-166.84 469.5,-179.12 491.36,-196.8 480.6,-218.08 505.5,-231.12 634.48,-298.7 816.04,-236.8 891.96,-205.14"/>
<polygon fill="#63b8ff" stroke="#63b8ff" points="893.15,-208.44 900.98,-201.3 890.41,-202 893.15,-208.44"/>
</a>
</g>
</g>
<!-- Node16 -->
<g id="Node000016" class="node">
<title>Node16</title>
<g id="a_Node000016"><a xlink:href="classkicker__drive__train.html#a78a7597a4a1b0bc9492ef66c32b8a0c6" target="_top" xlink:title="drive the motors based on set parameters and last joystick values">
<polygon fill="white" stroke="#666666" points="742.75,-222.25 557.25,-222.25 557.25,-200 742.75,-200 742.75,-222.25"/>
<text text-anchor="middle" x="650" y="-206.85" font-family="Arial" font-size="12.00">kicker_drive_train::drive_motors</text>
</a>
</g>
</g>
<!-- Node13&#45;&gt;Node16 -->
<g id="edge15_Node000013_Node000016" class="edge">
<title>Node13&#45;&gt;Node16</title>
<g id="a_edge15_Node000013_Node000016"><a xlink:title=" ">
<path fill="none" stroke="#63b8ff" d="M402.92,-151.64C434.68,-165.01 485.56,-185.89 505.5,-191.12 518.33,-194.49 531.96,-197.32 545.53,-199.69"/>
<polygon fill="#63b8ff" stroke="#63b8ff" points="544.95,-203.14 555.39,-201.33 546.1,-196.24 544.95,-203.14"/>
</a>
</g>
</g>
<!-- Node17 -->
<g id="Node000017" class="node">
<title>Node17</title>
<g id="a_Node000017"><a xlink:href="classkicker__drive__train.html#a429f74f99def00f7d234662909150be0" target="_top" xlink:title="modify the speed multipliers">
<polygon fill="white" stroke="#666666" points="794.5,-182.25 505.5,-182.25 505.5,-160 794.5,-160 794.5,-182.25"/>
<text text-anchor="middle" x="650" y="-166.85" font-family="Arial" font-size="12.00">kicker_drive_train::motor_speed_multiplier_updater</text>
</a>
</g>
</g>
<!-- Node13&#45;&gt;Node17 -->
<g id="edge16_Node000013_Node000017" class="edge">
<title>Node13&#45;&gt;Node17</title>
<g id="a_edge16_Node000013_Node000017"><a xlink:title=" ">
<path fill="none" stroke="#63b8ff" d="M451.96,-148.76C477.87,-151.7 507.43,-155.06 535.64,-158.26"/>
<polygon fill="#63b8ff" stroke="#63b8ff" points="534.95,-161.7 545.28,-159.35 535.74,-154.75 534.95,-161.7"/>
</a>
</g>
</g>
<!-- Node18 -->
<g id="Node000018" class="node">
<title>Node18</title>
<g id="a_Node000018"><a xlink:href="classkicker__drive__train.html#a059b7bd8b12aa236032041c49c0312cd" target="_top" xlink:title="update the speeds of the motors based on the joysticks">
<polygon fill="white" stroke="#666666" points="769.75,-142.25 530.25,-142.25 530.25,-120 769.75,-120 769.75,-142.25"/>
<text text-anchor="middle" x="650" y="-126.85" font-family="Arial" font-size="12.00">kicker_drive_train::motor_speeds_updater</text>
</a>
</g>
</g>
<!-- Node13&#45;&gt;Node18 -->
<g id="edge17_Node000013_Node000018" class="edge">
<title>Node13&#45;&gt;Node18</title>
<g id="a_edge17_Node000013_Node000018"><a xlink:title=" ">
<path fill="none" stroke="#63b8ff" d="M451.96,-137.62C472.62,-136.94 495.59,-136.18 518.34,-135.43"/>
<polygon fill="#63b8ff" stroke="#63b8ff" points="518.45,-138.93 528.33,-135.1 518.22,-131.93 518.45,-138.93"/>
</a>
</g>
</g>
<!-- Node19 -->
<g id="Node000019" class="node">
<title>Node19</title>
<g id="a_Node000019"><a xlink:href="classkicker__drive__train.html#a2c011997429fafeeacddbb1e74d604c4" target="_top" xlink:title="change the status of the motors">
<polygon fill="white" stroke="#666666" points="766,-102.25 534,-102.25 534,-80 766,-80 766,-102.25"/>
<text text-anchor="middle" x="650" y="-86.85" font-family="Arial" font-size="12.00">kicker_drive_train::motor_status_updater</text>
</a>
</g>
</g>
<!-- Node13&#45;&gt;Node19 -->
<g id="edge18_Node000013_Node000019" class="edge">
<title>Node13&#45;&gt;Node19</title>
<g id="a_edge18_Node000013_Node000019"><a xlink:title=" ">
<path fill="none" stroke="#63b8ff" d="M431.39,-128.6C443.94,-125.9 457.19,-122.98 469.5,-120.12 485.57,-116.4 489.31,-114.27 505.5,-111.12 517.91,-108.72 530.99,-106.48 543.98,-104.45"/>
<polygon fill="#63b8ff" stroke="#63b8ff" points="544.51,-107.91 553.86,-102.94 543.45,-100.99 544.51,-107.91"/>
</a>
</g>
</g>
<!-- Node23 -->
<g id="Node000023" class="node">
<title>Node23</title>
<g id="a_Node000023"><a xlink:href="classkicker__drive__train.html#acae2e06df7e1d3c8af4f988fc1629b2f" target="_top" xlink:title="update the battery voltage if the correct amount of time has passed">
<polygon fill="white" stroke="#666666" points="776.12,-62.25 523.88,-62.25 523.88,-40 776.12,-40 776.12,-62.25"/>
<text text-anchor="middle" x="650" y="-46.85" font-family="Arial" font-size="12.00">kicker_drive_train::periodic_voltage_reading</text>
</a>
</g>
</g>
<!-- Node13&#45;&gt;Node23 -->
<g id="edge24_Node000013_Node000023" class="edge">
<title>Node13&#45;&gt;Node23</title>
<g id="a_edge24_Node000013_Node000023"><a xlink:title=" ">
<path fill="none" stroke="#63b8ff" d="M451.91,-128.96C458.1,-126.55 464.06,-123.64 469.5,-120.12 492.2,-105.46 482.29,-84.97 505.5,-71.12 508,-69.63 510.58,-68.23 513.2,-66.92"/>
<polygon fill="#63b8ff" stroke="#63b8ff" points="514.5,-70.17 522.21,-62.91 511.66,-63.78 514.5,-70.17"/>
</a>
</g>
</g>
<!-- Node24 -->
<g id="Node000024" class="node">
<title>Node24</title>
<g id="a_Node000024"><a xlink:href="classkicker__drive__train.html#a1aea7c500cba07d358770050e51fd6cb" target="_top" xlink:title="update the ramped velocity parameters if they have been changed">
<polygon fill="white" stroke="#666666" points="776.12,-22.25 523.88,-22.25 523.88,0 776.12,0 776.12,-22.25"/>
<text text-anchor="middle" x="650" y="-6.85" font-family="Arial" font-size="12.00">kicker_drive_train::ramped_settings_updater</text>
</a>
</g>
</g>
<!-- Node13&#45;&gt;Node24 -->
<g id="edge25_Node000013_Node000024" class="edge">
<title>Node13&#45;&gt;Node24</title>
<g id="a_edge25_Node000013_Node000024"><a xlink:title=" ">
<path fill="none" stroke="#63b8ff" d="M451.56,-130.97C458.04,-128.17 464.15,-124.61 469.5,-120.12 502.18,-92.69 471.86,-57.37 505.5,-31.12 508.1,-29.09 510.82,-27.22 513.62,-25.49"/>
<polygon fill="#63b8ff" stroke="#63b8ff" points="515.03,-28.71 522.16,-20.87 511.7,-22.55 515.03,-28.71"/>
</a>
</g>
</g>
<!-- Node15 -->
<g id="Node000015" class="node">
<title>Node15</title>
<g id="a_Node000015"><a xlink:href="classkicker__drive__train.html#a6ef0c24f1b0871021979a48fde1c9ff4" target="_top" xlink:title="set the motors to their idle state">
<polygon fill="white" stroke="#666666" points="1260.75,-180.25 1062.5,-180.25 1062.5,-158 1260.75,-158 1260.75,-180.25"/>
<text text-anchor="middle" x="1161.62" y="-164.85" font-family="Arial" font-size="12.00">kicker_drive_train::disable_motors</text>
</a>
</g>
</g>
<!-- Node14&#45;&gt;Node15 -->
<g id="edge14_Node000014_Node000015" class="edge">
<title>Node14&#45;&gt;Node15</title>
<g id="a_edge14_Node000014_Node000015"><a xlink:title=" ">
<path fill="none" stroke="#63b8ff" d="M1023.51,-180.99C1032.57,-180.21 1041.82,-179.41 1051.01,-178.61"/>
<polygon fill="#63b8ff" stroke="#63b8ff" points="1051.02,-182.12 1060.68,-177.77 1050.42,-175.15 1051.02,-182.12"/>
</a>
</g>
</g>
<!-- Node19&#45;&gt;Node14 -->
<g id="edge19_Node000019_Node000014" class="edge">
<title>Node19&#45;&gt;Node14</title>
<g id="a_edge19_Node000019_Node000014"><a xlink:title=" ">
<path fill="none" stroke="#63b8ff" d="M766.47,-98.35C776.34,-101.57 785.85,-105.75 794.5,-111.12 818.68,-126.16 807.21,-147.74 830.5,-164.12 835.52,-167.66 841,-170.69 846.72,-173.3"/>
<polygon fill="#63b8ff" stroke="#63b8ff" points="845.24,-176.48 855.83,-176.98 847.86,-169.99 845.24,-176.48"/>
</a>
</g>
</g>
<!-- Node19&#45;&gt;Node15 -->
<g id="edge22_Node000019_Node000015" class="edge">
<title>Node19&#45;&gt;Node15</title>
<g id="a_edge22_Node000019_Node000015"><a xlink:title=" ">
<path fill="none" stroke="#63b8ff" d="M763.56,-102.74C774.14,-105.05 784.6,-107.81 794.5,-111.12 811.86,-116.93 813.07,-125.53 830.5,-131.12 901.76,-154.02 985.59,-163.47 1050.94,-167.22"/>
<polygon fill="#63b8ff" stroke="#63b8ff" points="1050.4,-170.7 1060.58,-167.73 1050.78,-163.71 1050.4,-170.7"/>
</a>
</g>
</g>
<!-- Node20 -->
<g id="Node000020" class="node">
<title>Node20</title>
<g id="a_Node000020"><a xlink:href="classkicker__drive__train.html#ac9c1b7680ef0506c28d674f26bda4ee7" target="_top" xlink:title="run the calibration sequence with periodic messages over can bus to prevent the odrives from entering...">
<polygon fill="white" stroke="#666666" points="1014.5,-122.25 842.5,-122.25 842.5,-100 1014.5,-100 1014.5,-122.25"/>
<text text-anchor="middle" x="928.5" y="-106.85" font-family="Arial" font-size="12.00">kicker_drive_train::calibrating</text>
</a>
</g>
</g>
<!-- Node19&#45;&gt;Node20 -->
<g id="edge20_Node000019_Node000020" class="edge">
<title>Node19&#45;&gt;Node20</title>
<g id="a_edge20_Node000019_Node000020"><a xlink:title=" ">
<path fill="none" stroke="#63b8ff" d="M766.26,-99.46C787.76,-101.02 810.03,-102.63 830.9,-104.14"/>
<polygon fill="#63b8ff" stroke="#63b8ff" points="830.6,-107.63 840.83,-104.86 831.11,-100.64 830.6,-107.63"/>
</a>
</g>
</g>
<!-- Node21 -->
<g id="Node000021" class="node">
<title>Node21</title>
<g id="a_Node000021"><a xlink:href="classkicker__drive__train.html#ad5670ad9be6bd4d7055b8dfbfafe75db" target="_top" xlink:title="clear the errors on the odrives">
<polygon fill="white" stroke="#666666" points="1018.62,-82.25 838.38,-82.25 838.38,-60 1018.62,-60 1018.62,-82.25"/>
<text text-anchor="middle" x="928.5" y="-66.85" font-family="Arial" font-size="12.00">kicker_drive_train::clear_errors</text>
</a>
</g>
</g>
<!-- Node19&#45;&gt;Node21 -->
<g id="edge21_Node000019_Node000021" class="edge">
<title>Node19&#45;&gt;Node21</title>
<g id="a_edge21_Node000019_Node000021"><a xlink:title=" ">
<path fill="none" stroke="#63b8ff" d="M766.26,-82.79C786.33,-81.34 807.06,-79.84 826.7,-78.42"/>
<polygon fill="#63b8ff" stroke="#63b8ff" points="826.89,-81.91 836.61,-77.7 826.39,-74.93 826.89,-81.91"/>
</a>
</g>
</g>
<!-- Node22 -->
<g id="Node000022" class="node">
<title>Node22</title>
<g id="a_Node000022"><a xlink:href="classkicker__drive__train.html#aa08dd2966d8975334cf46f3e939f1751" target="_top" xlink:title="set the motors to their active state">
<polygon fill="white" stroke="#666666" points="1026.5,-42.25 830.5,-42.25 830.5,-20 1026.5,-20 1026.5,-42.25"/>
<text text-anchor="middle" x="928.5" y="-26.85" font-family="Arial" font-size="12.00">kicker_drive_train::enable_motors</text>
</a>
</g>
</g>
<!-- Node19&#45;&gt;Node22 -->
<g id="edge23_Node000019_Node000022" class="edge">
<title>Node19&#45;&gt;Node22</title>
<g id="a_edge23_Node000019_Node000022"><a xlink:title=" ">
<path fill="none" stroke="#63b8ff" d="M763.56,-79.51C774.14,-77.2 784.6,-74.44 794.5,-71.12 811.86,-65.32 813.34,-57.49 830.5,-51.12 835.85,-49.14 841.45,-47.33 847.14,-45.69"/>
<polygon fill="#63b8ff" stroke="#63b8ff" points="847.93,-49.1 856.69,-43.13 846.12,-42.34 847.93,-49.1"/>
</a>
</g>
</g>
<!-- Node26 -->
<g id="Node000026" class="node">
<title>Node26</title>
<g id="a_Node000026"><a xlink:href="classled__strip__driver.html#a55d9fff12f864b0acfdac864fca5232b" target="_top" xlink:title="set the color for a set of leds in the strip">
<polygon fill="white" stroke="#666666" points="451.5,-111.25 298.25,-111.25 298.25,-89 451.5,-89 451.5,-111.25"/>
<text text-anchor="middle" x="374.88" y="-95.85" font-family="Arial" font-size="12.00">led_strip_driver::set_color</text>
</a>
</g>
</g>
<!-- Node25&#45;&gt;Node26 -->
<g id="edge27_Node000025_Node000026" class="edge">
<title>Node25&#45;&gt;Node26</title>
<g id="a_edge27_Node000025_Node000026"><a xlink:title=" ">
<path fill="none" stroke="#63b8ff" d="M209.36,-100.12C230.71,-100.12 259.39,-100.12 286.83,-100.12"/>
<polygon fill="#63b8ff" stroke="#63b8ff" points="286.57,-103.63 296.57,-100.13 286.57,-96.63 286.57,-103.63"/>
</a>
</g>
</g>
<!-- Node29 -->
<g id="Node000029" class="node">
<title>Node29</title>
<g id="a_Node000029"><a xlink:href="classservo.html#ab55e39bebe95e8bb62aea015a0dcb7c1" target="_top" xlink:title="set the angle of the servo motor">
<polygon fill="white" stroke="#666666" points="428.25,-31.25 321.5,-31.25 321.5,-9 428.25,-9 428.25,-31.25"/>
<text text-anchor="middle" x="374.88" y="-15.85" font-family="Arial" font-size="12.00">servo::setDegree</text>
</a>
</g>
</g>
<!-- Node28&#45;&gt;Node29 -->
<g id="edge30_Node000028_Node000029" class="edge">
<title>Node28&#45;&gt;Node29</title>
<g id="a_edge30_Node000028_Node000029"><a xlink:title=" ">
<path fill="none" stroke="#63b8ff" d="M230.41,-20.12C254.95,-20.12 284.06,-20.12 309.63,-20.12"/>
<polygon fill="#63b8ff" stroke="#63b8ff" points="309.59,-23.63 319.59,-20.13 309.59,-16.63 309.59,-23.63"/>
</a>
</g>
</g>
</g>
</svg>
