<?xml version="1.0" encoding="UTF-8" standalone="no"?>
<!DOCTYPE svg PUBLIC "-//W3C//DTD SVG 1.1//EN"
 "http://www.w3.org/Graphics/SVG/1.1/DTD/svg11.dtd">
<!-- Generated by graphviz version 12.2.1 (20241206.2353)
 -->
<!-- Title: main/main.cpp Pages: 1 -->
<svg width="2343pt" height="438pt"
 viewBox="0.00 0.00 2342.62 438.00" xmlns="http://www.w3.org/2000/svg" xmlns:xlink="http://www.w3.org/1999/xlink">
<g id="graph0" class="graph" transform="scale(1 1) rotate(0) translate(4 434)">
<title>main/main.cpp</title>
<!-- Node1 -->
<g id="Node000001" class="node">
<title>Node1</title>
<g id="a_Node000001"><a xlink:title="This is the file that contains the main function and all other tasks for the robot.">
<polygon fill="#999999" stroke="#666666" points="1290.62,-430 1196.62,-430 1196.62,-407.75 1290.62,-407.75 1290.62,-430"/>
<text text-anchor="middle" x="1243.62" y="-414.6" font-family="Arial" font-size="12.00">main/main.cpp</text>
</a>
</g>
</g>
<!-- Node2 -->
<g id="Node000002" class="node">
<title>Node2</title>
<g id="a_Node000002"><a xlink:href="all__includes_8h.html" target="_top" xlink:title="Contains the system wide includes for esp&#45;idf and c++, along with structs and enums.">
<polygon fill="white" stroke="#666666" points="1281.25,-80.5 1140,-80.5 1140,-58.25 1281.25,-58.25 1281.25,-80.5"/>
<text text-anchor="middle" x="1210.62" y="-65.1" font-family="Arial" font-size="12.00">../include/all_includes.h</text>
</a>
</g>
</g>
<!-- Node1&#45;&gt;Node2 -->
<g id="edge1_Node000001_Node000002" class="edge">
<title>Node1&#45;&gt;Node2</title>
<g id="a_edge1_Node000001_Node000002"><a xlink:title=" ">
<path fill="none" stroke="#63b8ff" d="M1290.91,-416.2C1463.95,-409.46 2052.62,-380.82 2052.62,-303.38 2052.62,-303.38 2052.62,-303.38 2052.62,-184.88 2052.62,-121.16 1987.84,-134.15 1926.62,-116.5 1809.82,-82.82 1454.89,-73.68 1292.86,-71.24"/>
<polygon fill="#63b8ff" stroke="#63b8ff" points="1293.1,-67.75 1283.05,-71.1 1292.99,-74.75 1293.1,-67.75"/>
</a>
</g>
</g>
<!-- Node27 -->
<g id="Node000027" class="node">
<title>Node27</title>
<g id="a_Node000027"><a xlink:href="pinout_8h.html" target="_top" xlink:title="This is the file that contains the pinout and other configuration information.">
<polygon fill="white" stroke="#666666" points="1167.5,-138.75 1057.75,-138.75 1057.75,-116.5 1167.5,-116.5 1167.5,-138.75"/>
<text text-anchor="middle" x="1112.62" y="-123.35" font-family="Arial" font-size="12.00">../include/pinout.h</text>
</a>
</g>
</g>
<!-- Node1&#45;&gt;Node27 -->
<g id="edge26_Node000001_Node000027" class="edge">
<title>Node1&#45;&gt;Node27</title>
<g id="a_edge26_Node000001_Node000027"><a xlink:title=" ">
<path fill="none" stroke="#63b8ff" d="M1207.66,-407.35C1164.15,-392.14 1096.62,-359.5 1096.62,-303.38 1096.62,-303.38 1096.62,-303.38 1096.62,-243.12 1096.62,-210.44 1103.1,-173.01 1107.81,-150.09"/>
<polygon fill="#63b8ff" stroke="#63b8ff" points="1111.2,-150.97 1109.88,-140.46 1104.36,-149.5 1111.2,-150.97"/>
</a>
</g>
</g>
<!-- Node28 -->
<g id="Node000028" class="node">
<title>Node28</title>
<g id="a_Node000028"><a xlink:href="esp__now__setup_8h.html" target="_top" xlink:title="Contains the code that sets up the ESP&#45;NOW communication.">
<polygon fill="white" stroke="#666666" points="1030.5,-255.25 836.75,-255.25 836.75,-233 1030.5,-233 1030.5,-255.25"/>
<text text-anchor="middle" x="933.62" y="-239.85" font-family="Arial" font-size="12.00">../include/setup/esp_now_setup.h</text>
</a>
</g>
</g>
<!-- Node1&#45;&gt;Node28 -->
<g id="edge28_Node000001_Node000028" class="edge">
<title>Node1&#45;&gt;Node28</title>
<g id="a_edge28_Node000001_Node000028"><a xlink:title=" ">
<path fill="none" stroke="#63b8ff" d="M1196.16,-409.81C1162.98,-402.88 1118.38,-390.9 1082.62,-371.75 1028.58,-342.81 976.64,-291.69 950.73,-264.08"/>
<polygon fill="#63b8ff" stroke="#63b8ff" points="953.36,-261.77 944,-256.8 948.22,-266.52 953.36,-261.77"/>
</a>
</g>
</g>
<!-- Node30 -->
<g id="Node000030" class="node">
<title>Node30</title>
<g id="a_Node000030"><a xlink:href="i2c__setup_8h.html" target="_top" xlink:title="Contains the code that sets up the i2c bus.">
<polygon fill="white" stroke="#666666" points="1805,-197 1644.25,-197 1644.25,-174.75 1805,-174.75 1805,-197"/>
<text text-anchor="middle" x="1724.62" y="-181.6" font-family="Arial" font-size="12.00">../include/setup/i2c_setup.h</text>
</a>
</g>
</g>
<!-- Node1&#45;&gt;Node30 -->
<g id="edge34_Node000001_Node000030" class="edge">
<title>Node1&#45;&gt;Node30</title>
<g id="a_edge34_Node000001_Node000030"><a xlink:title=" ">
<path fill="none" stroke="#63b8ff" d="M1274.6,-407.27C1299.5,-398.48 1335.21,-385.28 1365.62,-371.75 1491.61,-315.71 1635.93,-236.65 1696.03,-203.02"/>
<polygon fill="#63b8ff" stroke="#63b8ff" points="1697.6,-206.16 1704.61,-198.21 1694.17,-200.05 1697.6,-206.16"/>
</a>
</g>
</g>
<!-- Node31 -->
<g id="Node000031" class="node">
<title>Node31</title>
<g id="a_Node000031"><a xlink:href="led__strip__setup_8h.html" target="_top" xlink:title="Contains the code to set up RMT for LED strips.">
<polygon fill="white" stroke="#666666" points="737,-197 546.25,-197 546.25,-174.75 737,-174.75 737,-197"/>
<text text-anchor="middle" x="641.62" y="-181.6" font-family="Arial" font-size="12.00">../include/setup/led_strip_setup.h</text>
</a>
</g>
</g>
<!-- Node1&#45;&gt;Node31 -->
<g id="edge37_Node000001_Node000031" class="edge">
<title>Node1&#45;&gt;Node31</title>
<g id="a_edge37_Node000001_Node000031"><a xlink:title=" ">
<path fill="none" stroke="#63b8ff" d="M1196.15,-409.85C1154.93,-402.2 1093.96,-389.26 1042.62,-371.75 897.95,-322.39 735.37,-237.76 670.55,-202.75"/>
<polygon fill="#63b8ff" stroke="#63b8ff" points="672.44,-199.8 661.98,-198.1 669.1,-205.95 672.44,-199.8"/>
</a>
</g>
</g>
<!-- Node32 -->
<g id="Node000032" class="node">
<title>Node32</title>
<g id="a_Node000032"><a xlink:href="display__driver__task_8h.html" target="_top" xlink:title="Contains the externs and defines for the display driver task.">
<polygon fill="white" stroke="#666666" points="562.12,-371.75 351.12,-371.75 351.12,-349.5 562.12,-349.5 562.12,-371.75"/>
<text text-anchor="middle" x="456.62" y="-356.35" font-family="Arial" font-size="12.00">../include/tasks/display_driver_task.h</text>
</a>
</g>
</g>
<!-- Node1&#45;&gt;Node32 -->
<g id="edge40_Node000001_Node000032" class="edge">
<title>Node1&#45;&gt;Node32</title>
<g id="a_edge40_Node000001_Node000032"><a xlink:title=" ">
<path fill="none" stroke="#63b8ff" d="M1196.17,-414.48C1074.71,-405.8 749.83,-382.58 573.82,-370"/>
<polygon fill="#63b8ff" stroke="#63b8ff" points="574.18,-366.52 563.96,-369.3 573.68,-373.5 574.18,-366.52"/>
</a>
</g>
</g>
<!-- Node37 -->
<g id="Node000037" class="node">
<title>Node37</title>
<g id="a_Node000037"><a xlink:href="esp__now__task_8h.html" target="_top" xlink:title="Contains the externs and defines for the esp_now task.">
<polygon fill="white" stroke="#666666" points="1589,-197 1404.25,-197 1404.25,-174.75 1589,-174.75 1589,-197"/>
<text text-anchor="middle" x="1496.62" y="-181.6" font-family="Arial" font-size="12.00">../include/tasks/esp_now_task.h</text>
</a>
</g>
</g>
<!-- Node1&#45;&gt;Node37 -->
<g id="edge54_Node000001_Node000037" class="edge">
<title>Node1&#45;&gt;Node37</title>
<g id="a_edge54_Node000001_Node000037"><a xlink:title=" ">
<path fill="none" stroke="#63b8ff" d="M1267.59,-407.27C1314.1,-385.5 1416.97,-331.35 1473.62,-255.25 1483.92,-241.42 1489.79,-222.69 1493.03,-208.33"/>
<polygon fill="#63b8ff" stroke="#63b8ff" points="1496.45,-209.04 1494.94,-198.55 1489.58,-207.7 1496.45,-209.04"/>
</a>
</g>
</g>
<!-- Node38 -->
<g id="Node000038" class="node">
<title>Node38</title>
<g id="a_Node000038"><a xlink:href="kicker__drive__train__task_8h.html" target="_top" xlink:title="Contains the externs and defines for the kicker drive train task.">
<polygon fill="white" stroke="#666666" points="1358.88,-313.5 1128.38,-313.5 1128.38,-291.25 1358.88,-291.25 1358.88,-313.5"/>
<text text-anchor="middle" x="1243.62" y="-298.1" font-family="Arial" font-size="12.00">../include/tasks/kicker_drive_train_task.h</text>
</a>
</g>
</g>
<!-- Node1&#45;&gt;Node38 -->
<g id="edge57_Node000001_Node000038" class="edge">
<title>Node1&#45;&gt;Node38</title>
<g id="a_edge57_Node000001_Node000038"><a xlink:title=" ">
<path fill="none" stroke="#63b8ff" d="M1243.62,-407.31C1243.62,-388.73 1243.62,-349.87 1243.62,-325.29"/>
<polygon fill="#63b8ff" stroke="#63b8ff" points="1247.13,-325.43 1243.63,-315.43 1240.13,-325.43 1247.13,-325.43"/>
</a>
</g>
</g>
<!-- Node42 -->
<g id="Node000042" class="node">
<title>Node42</title>
<g id="a_Node000042"><a xlink:href="servo__driver__task_8h.html" target="_top" xlink:title="Contains the externs and defines for the servo driver task.">
<polygon fill="white" stroke="#666666" points="2024.62,-197 1822.62,-197 1822.62,-174.75 2024.62,-174.75 2024.62,-197"/>
<text text-anchor="middle" x="1923.62" y="-181.6" font-family="Arial" font-size="12.00">../include/tasks/servo_driver_task.h</text>
</a>
</g>
</g>
<!-- Node1&#45;&gt;Node42 -->
<g id="edge69_Node000001_Node000042" class="edge">
<title>Node1&#45;&gt;Node42</title>
<g id="a_edge69_Node000001_Node000042"><a xlink:title=" ">
<path fill="none" stroke="#63b8ff" d="M1282.12,-407.29C1314.23,-398.31 1361.11,-384.83 1401.62,-371.75 1583.94,-312.91 1798.7,-233.66 1884.94,-201.42"/>
<polygon fill="#63b8ff" stroke="#63b8ff" points="1885.97,-204.77 1894.11,-197.99 1883.51,-198.22 1885.97,-204.77"/>
</a>
</g>
</g>
<!-- Node3 -->
<g id="Node000003" class="node">
<title>Node3</title>
<g id="a_Node000003"><a xlink:title=" ">
<polygon fill="#e0e0e0" stroke="#999999" points="45.25,-22.25 0,-22.25 0,0 45.25,0 45.25,-22.25"/>
<text text-anchor="middle" x="22.62" y="-6.85" font-family="Arial" font-size="12.00">string</text>
</a>
</g>
</g>
<!-- Node2&#45;&gt;Node3 -->
<g id="edge2_Node000002_Node000003" class="edge">
<title>Node2&#45;&gt;Node3</title>
<g id="a_edge2_Node000002_Node000003"><a xlink:title=" ">
<path fill="none" stroke="#63b8ff" d="M1139.66,-68.01C925.43,-66.54 286.41,-59.25 56.79,-22.08"/>
<polygon fill="#63b8ff" stroke="#63b8ff" points="57.45,-18.64 47.01,-20.42 56.28,-25.54 57.45,-18.64"/>
</a>
</g>
</g>
<!-- Node4 -->
<g id="Node000004" class="node">
<title>Node4</title>
<g id="a_Node000004"><a xlink:title=" ">
<polygon fill="#e0e0e0" stroke="#999999" points="2015.12,-22.25 1960.12,-22.25 1960.12,0 2015.12,0 2015.12,-22.25"/>
<text text-anchor="middle" x="1987.62" y="-6.85" font-family="Arial" font-size="12.00">string.h</text>
</a>
</g>
</g>
<!-- Node2&#45;&gt;Node4 -->
<g id="edge3_Node000002_Node000004" class="edge">
<title>Node2&#45;&gt;Node4</title>
<g id="a_edge3_Node000002_Node000004"><a xlink:title=" ">
<path fill="none" stroke="#63b8ff" d="M1281.69,-68.93C1412.41,-68.88 1699.7,-63.72 1948.77,-22.43"/>
<polygon fill="#63b8ff" stroke="#63b8ff" points="1949.08,-25.93 1958.36,-20.82 1947.92,-19.02 1949.08,-25.93"/>
</a>
</g>
</g>
<!-- Node5 -->
<g id="Node000005" class="node">
<title>Node5</title>
<g id="a_Node000005"><a xlink:title=" ">
<polygon fill="#e0e0e0" stroke="#999999" points="2084.25,-22.25 2033,-22.25 2033,0 2084.25,0 2084.25,-22.25"/>
<text text-anchor="middle" x="2058.62" y="-6.85" font-family="Arial" font-size="12.00">stdio.h</text>
</a>
</g>
</g>
<!-- Node2&#45;&gt;Node5 -->
<g id="edge4_Node000002_Node000005" class="edge">
<title>Node2&#45;&gt;Node5</title>
<g id="a_edge4_Node000002_Node000005"><a xlink:title=" ">
<path fill="none" stroke="#63b8ff" d="M1281.7,-66.47C1448.59,-61.66 1862.81,-47.7 2021.79,-22.34"/>
<polygon fill="#63b8ff" stroke="#63b8ff" points="2022.01,-25.85 2031.29,-20.75 2020.85,-18.95 2022.01,-25.85"/>
</a>
</g>
</g>
<!-- Node6 -->
<g id="Node000006" class="node">
<title>Node6</title>
<g id="a_Node000006"><a xlink:title=" ">
<polygon fill="#e0e0e0" stroke="#999999" points="2154.62,-22.25 2102.62,-22.25 2102.62,0 2154.62,0 2154.62,-22.25"/>
<text text-anchor="middle" x="2128.62" y="-6.85" font-family="Arial" font-size="12.00">math.h</text>
</a>
</g>
</g>
<!-- Node2&#45;&gt;Node6 -->
<g id="edge5_Node000002_Node000006" class="edge">
<title>Node2&#45;&gt;Node6</title>
<g id="a_edge5_Node000002_Node000006"><a xlink:title=" ">
<path fill="none" stroke="#63b8ff" d="M1281.66,-66.77C1458.72,-62.42 1917.25,-49.07 2091.12,-22.24"/>
<polygon fill="#63b8ff" stroke="#63b8ff" points="2091.6,-25.71 2100.91,-20.65 2090.48,-18.8 2091.6,-25.71"/>
</a>
</g>
</g>
<!-- Node7 -->
<g id="Node000007" class="node">
<title>Node7</title>
<g id="a_Node000007"><a xlink:title=" ">
<polygon fill="#e0e0e0" stroke="#999999" points="2246.5,-22.25 2172.75,-22.25 2172.75,0 2246.5,0 2246.5,-22.25"/>
<text text-anchor="middle" x="2209.62" y="-6.85" font-family="Arial" font-size="12.00">esp_now.h</text>
</a>
</g>
</g>
<!-- Node2&#45;&gt;Node7 -->
<g id="edge6_Node000002_Node000007" class="edge">
<title>Node2&#45;&gt;Node7</title>
<g id="a_edge6_Node000002_Node000007"><a xlink:title=" ">
<path fill="none" stroke="#63b8ff" d="M1281.53,-69.01C1438.49,-69.53 1827.2,-65.99 2160.96,-22.39"/>
<polygon fill="#63b8ff" stroke="#63b8ff" points="2161.36,-25.87 2170.81,-21.09 2160.44,-18.93 2161.36,-25.87"/>
</a>
</g>
</g>
<!-- Node8 -->
<g id="Node000008" class="node">
<title>Node8</title>
<g id="a_Node000008"><a xlink:title=" ">
<polygon fill="#e0e0e0" stroke="#999999" points="2334.62,-22.25 2264.62,-22.25 2264.62,0 2334.62,0 2334.62,-22.25"/>
<text text-anchor="middle" x="2299.62" y="-6.85" font-family="Arial" font-size="12.00">esp_wifi.h</text>
</a>
</g>
</g>
<!-- Node2&#45;&gt;Node8 -->
<g id="edge7_Node000002_Node000008" class="edge">
<title>Node2&#45;&gt;Node8</title>
<g id="a_edge7_Node000002_Node000008"><a xlink:title=" ">
<path fill="none" stroke="#63b8ff" d="M1281.42,-66.93C1480.76,-62.6 2045.21,-48.48 2252.8,-22.36"/>
<polygon fill="#63b8ff" stroke="#63b8ff" points="2253.23,-25.83 2262.69,-21.06 2252.31,-18.89 2253.23,-25.83"/>
</a>
</g>
</g>
<!-- Node9 -->
<g id="Node000009" class="node">
<title>Node9</title>
<g id="a_Node000009"><a xlink:title=" ">
<polygon fill="#e0e0e0" stroke="#999999" points="131.88,-22.25 63.38,-22.25 63.38,0 131.88,0 131.88,-22.25"/>
<text text-anchor="middle" x="97.62" y="-6.85" font-family="Arial" font-size="12.00">esp_log.h</text>
</a>
</g>
</g>
<!-- Node2&#45;&gt;Node9 -->
<g id="edge8_Node000002_Node000009" class="edge">
<title>Node2&#45;&gt;Node9</title>
<g id="a_edge8_Node000002_Node000009"><a xlink:title=" ">
<path fill="none" stroke="#63b8ff" d="M1139.68,-67.01C937,-62.84 356.85,-49.01 143.5,-22.18"/>
<polygon fill="#63b8ff" stroke="#63b8ff" points="143.97,-18.71 133.6,-20.88 143.06,-25.65 143.97,-18.71"/>
</a>
</g>
</g>
<!-- Node10 -->
<g id="Node000010" class="node">
<title>Node10</title>
<g id="a_Node000010"><a xlink:title=" ">
<polygon fill="#e0e0e0" stroke="#999999" points="224.88,-22.25 150.38,-22.25 150.38,0 224.88,0 224.88,-22.25"/>
<text text-anchor="middle" x="187.62" y="-6.85" font-family="Arial" font-size="12.00">esp_mac.h</text>
</a>
</g>
</g>
<!-- Node2&#45;&gt;Node10 -->
<g id="edge9_Node000002_Node000010" class="edge">
<title>Node2&#45;&gt;Node10</title>
<g id="a_edge9_Node000002_Node000010"><a xlink:title=" ">
<path fill="none" stroke="#63b8ff" d="M1139.76,-69.13C980.02,-69.94 579.63,-67.04 236.6,-22.44"/>
<polygon fill="#63b8ff" stroke="#63b8ff" points="237.06,-18.97 226.69,-21.13 236.15,-25.91 237.06,-18.97"/>
</a>
</g>
</g>
<!-- Node11 -->
<g id="Node000011" class="node">
<title>Node11</title>
<g id="a_Node000011"><a xlink:title=" ">
<polygon fill="#e0e0e0" stroke="#999999" points="368.38,-22.25 242.88,-22.25 242.88,0 368.38,0 368.38,-22.25"/>
<text text-anchor="middle" x="305.62" y="-6.85" font-family="Arial" font-size="12.00">freertos/FreeRTOS.h</text>
</a>
</g>
</g>
<!-- Node2&#45;&gt;Node11 -->
<g id="edge10_Node000002_Node000011" class="edge">
<title>Node2&#45;&gt;Node11</title>
<g id="a_edge10_Node000002_Node000011"><a xlink:title=" ">
<path fill="none" stroke="#63b8ff" d="M1139.71,-66.47C997.59,-62.2 667.6,-50.1 379.88,-22.39"/>
<polygon fill="#63b8ff" stroke="#63b8ff" points="380.6,-18.95 370.31,-21.46 379.93,-25.91 380.6,-18.95"/>
</a>
</g>
</g>
<!-- Node12 -->
<g id="Node000012" class="node">
<title>Node12</title>
<g id="a_Node000012"><a xlink:title=" ">
<polygon fill="#e0e0e0" stroke="#999999" points="476.75,-22.25 386.5,-22.25 386.5,0 476.75,0 476.75,-22.25"/>
<text text-anchor="middle" x="431.62" y="-6.85" font-family="Arial" font-size="12.00">freertos/task.h</text>
</a>
</g>
</g>
<!-- Node2&#45;&gt;Node12 -->
<g id="edge11_Node000002_Node000012" class="edge">
<title>Node2&#45;&gt;Node12</title>
<g id="a_edge11_Node000002_Node000012"><a xlink:title=" ">
<path fill="none" stroke="#63b8ff" d="M1139.6,-66.73C1011.43,-63.12 732.79,-52.42 488.47,-22.47"/>
<polygon fill="#63b8ff" stroke="#63b8ff" points="489.09,-19.02 478.73,-21.27 488.22,-25.97 489.09,-19.02"/>
</a>
</g>
</g>
<!-- Node13 -->
<g id="Node000013" class="node">
<title>Node13</title>
<g id="a_Node000013"><a xlink:title=" ">
<polygon fill="#e0e0e0" stroke="#999999" points="596.75,-22.25 494.5,-22.25 494.5,0 596.75,0 596.75,-22.25"/>
<text text-anchor="middle" x="545.62" y="-6.85" font-family="Arial" font-size="12.00">freertos/queue.h</text>
</a>
</g>
</g>
<!-- Node2&#45;&gt;Node13 -->
<g id="edge12_Node000002_Node000013" class="edge">
<title>Node2&#45;&gt;Node13</title>
<g id="a_edge12_Node000002_Node000013"><a xlink:title=" ">
<path fill="none" stroke="#63b8ff" d="M1139.76,-64.99C1028.81,-59.26 807.15,-45.99 608.41,-22.36"/>
<polygon fill="#63b8ff" stroke="#63b8ff" points="609.01,-18.91 598.67,-21.19 608.18,-25.86 609.01,-18.91"/>
</a>
</g>
</g>
<!-- Node14 -->
<g id="Node000014" class="node">
<title>Node14</title>
<g id="a_Node000014"><a xlink:title=" ">
<polygon fill="#e0e0e0" stroke="#999999" points="716,-22.25 615.25,-22.25 615.25,0 716,0 716,-22.25"/>
<text text-anchor="middle" x="665.62" y="-6.85" font-family="Arial" font-size="12.00">freertos/timers.h</text>
</a>
</g>
</g>
<!-- Node2&#45;&gt;Node14 -->
<g id="edge13_Node000002_Node000014" class="edge">
<title>Node2&#45;&gt;Node14</title>
<g id="a_edge13_Node000002_Node000014"><a xlink:title=" ">
<path fill="none" stroke="#63b8ff" d="M1139.61,-63.32C1047.09,-56.36 880.06,-42.51 727.84,-22.6"/>
<polygon fill="#63b8ff" stroke="#63b8ff" points="728.31,-19.13 717.94,-21.29 727.39,-26.07 728.31,-19.13"/>
</a>
</g>
</g>
<!-- Node15 -->
<g id="Node000015" class="node">
<title>Node15</title>
<g id="a_Node000015"><a xlink:title=" ">
<polygon fill="#e0e0e0" stroke="#999999" points="815.62,-22.25 733.62,-22.25 733.62,0 815.62,0 815.62,-22.25"/>
<text text-anchor="middle" x="774.62" y="-6.85" font-family="Arial" font-size="12.00">driver/gpio.h</text>
</a>
</g>
</g>
<!-- Node2&#45;&gt;Node15 -->
<g id="edge14_Node000002_Node000015" class="edge">
<title>Node2&#45;&gt;Node15</title>
<g id="a_edge14_Node000002_Node000015"><a xlink:title=" ">
<path fill="none" stroke="#63b8ff" d="M1139.6,-61.63C1064.4,-54.09 942.02,-40.71 827.14,-22.55"/>
<polygon fill="#63b8ff" stroke="#63b8ff" points="827.97,-19.14 817.54,-21.02 826.87,-26.05 827.97,-19.14"/>
</a>
</g>
</g>
<!-- Node16 -->
<g id="Node000016" class="node">
<title>Node16</title>
<g id="a_Node000016"><a xlink:title=" ">
<polygon fill="#e0e0e0" stroke="#999999" points="949.88,-22.25 833.38,-22.25 833.38,0 949.88,0 949.88,-22.25"/>
<text text-anchor="middle" x="891.62" y="-6.85" font-family="Arial" font-size="12.00">driver/i2c_master.h</text>
</a>
</g>
</g>
<!-- Node2&#45;&gt;Node16 -->
<g id="edge15_Node000002_Node000016" class="edge">
<title>Node2&#45;&gt;Node16</title>
<g id="a_edge15_Node000002_Node000016"><a xlink:title=" ">
<path fill="none" stroke="#63b8ff" d="M1150.62,-57.79C1096.82,-48.31 1017.86,-34.38 961.28,-24.41"/>
<polygon fill="#63b8ff" stroke="#63b8ff" points="962.23,-21.02 951.77,-22.73 961.01,-27.91 962.23,-21.02"/>
</a>
</g>
</g>
<!-- Node17 -->
<g id="Node000017" class="node">
<title>Node17</title>
<g id="a_Node000017"><a xlink:title=" ">
<polygon fill="#e0e0e0" stroke="#999999" points="1048.88,-22.25 968.38,-22.25 968.38,0 1048.88,0 1048.88,-22.25"/>
<text text-anchor="middle" x="1008.62" y="-6.85" font-family="Arial" font-size="12.00">driver/twai.h</text>
</a>
</g>
</g>
<!-- Node2&#45;&gt;Node17 -->
<g id="edge16_Node000002_Node000017" class="edge">
<title>Node2&#45;&gt;Node17</title>
<g id="a_edge16_Node000002_Node000017"><a xlink:title=" ">
<path fill="none" stroke="#63b8ff" d="M1172.63,-57.79C1140.04,-48.72 1092.89,-35.59 1057.49,-25.73"/>
<polygon fill="#63b8ff" stroke="#63b8ff" points="1058.48,-22.37 1047.91,-23.06 1056.6,-29.12 1058.48,-22.37"/>
</a>
</g>
</g>
<!-- Node18 -->
<g id="Node000018" class="node">
<title>Node18</title>
<g id="a_Node000018"><a xlink:title=" ">
<polygon fill="#e0e0e0" stroke="#999999" points="1148.25,-22.25 1067,-22.25 1067,0 1148.25,0 1148.25,-22.25"/>
<text text-anchor="middle" x="1107.62" y="-6.85" font-family="Arial" font-size="12.00">driver/ledc.h</text>
</a>
</g>
</g>
<!-- Node2&#45;&gt;Node18 -->
<g id="edge17_Node000002_Node000018" class="edge">
<title>Node2&#45;&gt;Node18</title>
<g id="a_edge17_Node000002_Node000018"><a xlink:title=" ">
<path fill="none" stroke="#63b8ff" d="M1191.25,-57.79C1175.86,-49.39 1154.09,-37.5 1136.62,-27.96"/>
<polygon fill="#63b8ff" stroke="#63b8ff" points="1138.69,-25.1 1128.24,-23.38 1135.34,-31.25 1138.69,-25.1"/>
</a>
</g>
</g>
<!-- Node19 -->
<g id="Node000019" class="node">
<title>Node19</title>
<g id="a_Node000019"><a xlink:title=" ">
<polygon fill="#e0e0e0" stroke="#999999" points="1255.38,-22.25 1165.88,-22.25 1165.88,0 1255.38,0 1255.38,-22.25"/>
<text text-anchor="middle" x="1210.62" y="-6.85" font-family="Arial" font-size="12.00">esp_system.h</text>
</a>
</g>
</g>
<!-- Node2&#45;&gt;Node19 -->
<g id="edge18_Node000002_Node000019" class="edge">
<title>Node2&#45;&gt;Node19</title>
<g id="a_edge18_Node000002_Node000019"><a xlink:title=" ">
<path fill="none" stroke="#63b8ff" d="M1210.62,-57.79C1210.62,-51.12 1210.62,-42.24 1210.62,-34.09"/>
<polygon fill="#63b8ff" stroke="#63b8ff" points="1214.13,-34.17 1210.63,-24.17 1207.13,-34.17 1214.13,-34.17"/>
</a>
</g>
</g>
<!-- Node20 -->
<g id="Node000020" class="node">
<title>Node20</title>
<g id="a_Node000020"><a xlink:title=" ">
<polygon fill="#e0e0e0" stroke="#999999" points="1340.12,-22.25 1273.12,-22.25 1273.12,0 1340.12,0 1340.12,-22.25"/>
<text text-anchor="middle" x="1306.62" y="-6.85" font-family="Arial" font-size="12.00">espnow.h</text>
</a>
</g>
</g>
<!-- Node2&#45;&gt;Node20 -->
<g id="edge19_Node000002_Node000020" class="edge">
<title>Node2&#45;&gt;Node20</title>
<g id="a_edge19_Node000002_Node000020"><a xlink:title=" ">
<path fill="none" stroke="#63b8ff" d="M1228.68,-57.79C1242.9,-49.47 1262.94,-37.72 1279.14,-28.23"/>
<polygon fill="#63b8ff" stroke="#63b8ff" points="1280.48,-31.5 1287.34,-23.42 1276.95,-25.46 1280.48,-31.5"/>
</a>
</g>
</g>
<!-- Node21 -->
<g id="Node000021" class="node">
<title>Node21</title>
<g id="a_Node000021"><a xlink:title=" ">
<polygon fill="#e0e0e0" stroke="#999999" points="1439.25,-22.25 1358,-22.25 1358,0 1439.25,0 1439.25,-22.25"/>
<text text-anchor="middle" x="1398.62" y="-6.85" font-family="Arial" font-size="12.00">esp_event.h</text>
</a>
</g>
</g>
<!-- Node2&#45;&gt;Node21 -->
<g id="edge20_Node000002_Node000021" class="edge">
<title>Node2&#45;&gt;Node21</title>
<g id="a_edge20_Node000002_Node000021"><a xlink:title=" ">
<path fill="none" stroke="#63b8ff" d="M1245.99,-57.79C1276.18,-48.76 1319.82,-35.7 1352.72,-25.86"/>
<polygon fill="#63b8ff" stroke="#63b8ff" points="1353.4,-29.31 1361.97,-23.09 1351.39,-22.61 1353.4,-29.31"/>
</a>
</g>
</g>
<!-- Node22 -->
<g id="Node000022" class="node">
<title>Node22</title>
<g id="a_Node000022"><a xlink:title=" ">
<polygon fill="#e0e0e0" stroke="#999999" points="1534,-22.25 1457.25,-22.25 1457.25,0 1534,0 1534,-22.25"/>
<text text-anchor="middle" x="1495.62" y="-6.85" font-family="Arial" font-size="12.00">nvs_flash.h</text>
</a>
</g>
</g>
<!-- Node2&#45;&gt;Node22 -->
<g id="edge21_Node000002_Node000022" class="edge">
<title>Node2&#45;&gt;Node22</title>
<g id="a_edge21_Node000002_Node000022"><a xlink:title=" ">
<path fill="none" stroke="#63b8ff" d="M1266.95,-57.8C1312.67,-49.14 1379.11,-36.38 1445.78,-22.81"/>
<polygon fill="#63b8ff" stroke="#63b8ff" points="1446.33,-26.27 1455.43,-20.83 1444.93,-19.41 1446.33,-26.27"/>
</a>
</g>
</g>
<!-- Node23 -->
<g id="Node000023" class="node">
<title>Node23</title>
<g id="a_Node000023"><a xlink:title=" ">
<polygon fill="#e0e0e0" stroke="#999999" points="1642.75,-22.25 1552.5,-22.25 1552.5,0 1642.75,0 1642.75,-22.25"/>
<text text-anchor="middle" x="1597.62" y="-6.85" font-family="Arial" font-size="12.00">espnow_ctrl.h</text>
</a>
</g>
</g>
<!-- Node2&#45;&gt;Node23 -->
<g id="edge22_Node000002_Node000023" class="edge">
<title>Node2&#45;&gt;Node23</title>
<g id="a_edge22_Node000002_Node000023"><a xlink:title=" ">
<path fill="none" stroke="#63b8ff" d="M1281.68,-59.42C1346.43,-51.06 1445,-37.8 1540.68,-22.5"/>
<polygon fill="#63b8ff" stroke="#63b8ff" points="1541.22,-25.96 1550.54,-20.92 1540.11,-19.05 1541.22,-25.96"/>
</a>
</g>
</g>
<!-- Node24 -->
<g id="Node000024" class="node">
<title>Node24</title>
<g id="a_Node000024"><a xlink:title=" ">
<polygon fill="#e0e0e0" stroke="#999999" points="1756.75,-22.25 1660.5,-22.25 1660.5,0 1756.75,0 1756.75,-22.25"/>
<text text-anchor="middle" x="1708.62" y="-6.85" font-family="Arial" font-size="12.00">espnow_utils.h</text>
</a>
</g>
</g>
<!-- Node2&#45;&gt;Node24 -->
<g id="edge23_Node000002_Node000024" class="edge">
<title>Node2&#45;&gt;Node24</title>
<g id="a_edge23_Node000002_Node000024"><a xlink:title=" ">
<path fill="none" stroke="#63b8ff" d="M1281.47,-62.54C1366.45,-55.19 1513.46,-41.35 1649.15,-22.52"/>
<polygon fill="#63b8ff" stroke="#63b8ff" points="1649.24,-26.04 1658.65,-21.19 1648.26,-19.11 1649.24,-26.04"/>
</a>
</g>
</g>
<!-- Node25 -->
<g id="Node000025" class="node">
<title>Node25</title>
<g id="a_Node000025"><a xlink:title=" ">
<polygon fill="#e0e0e0" stroke="#999999" points="1852.38,-22.25 1774.88,-22.25 1774.88,0 1852.38,0 1852.38,-22.25"/>
<text text-anchor="middle" x="1813.62" y="-6.85" font-family="Arial" font-size="12.00">esp_timer.h</text>
</a>
</g>
</g>
<!-- Node2&#45;&gt;Node25 -->
<g id="edge24_Node000002_Node000025" class="edge">
<title>Node2&#45;&gt;Node25</title>
<g id="a_edge24_Node000002_Node000025"><a xlink:title=" ">
<path fill="none" stroke="#63b8ff" d="M1281.47,-65.33C1385.12,-60.24 1584.33,-48.08 1763.2,-22.44"/>
<polygon fill="#63b8ff" stroke="#63b8ff" points="1763.51,-25.93 1772.91,-21.03 1762.51,-19.01 1763.51,-25.93"/>
</a>
</g>
</g>
<!-- Node26 -->
<g id="Node000026" class="node">
<title>Node26</title>
<g id="a_Node000026"><a xlink:title=" ">
<polygon fill="#e0e0e0" stroke="#999999" points="1942.38,-22.25 1870.88,-22.25 1870.88,0 1942.38,0 1942.38,-22.25"/>
<text text-anchor="middle" x="1906.62" y="-6.85" font-family="Arial" font-size="12.00">led_strip.h</text>
</a>
</g>
</g>
<!-- Node2&#45;&gt;Node26 -->
<g id="edge25_Node000002_Node000026" class="edge">
<title>Node2&#45;&gt;Node26</title>
<g id="a_edge25_Node000002_Node000026"><a xlink:title=" ">
<path fill="none" stroke="#63b8ff" d="M1281.33,-66.85C1399.21,-63.54 1643.47,-53.43 1859.61,-22.33"/>
<polygon fill="#63b8ff" stroke="#63b8ff" points="1859.97,-25.81 1869.36,-20.9 1858.96,-18.88 1859.97,-25.81"/>
</a>
</g>
</g>
<!-- Node27&#45;&gt;Node2 -->
<g id="edge27_Node000027_Node000002" class="edge">
<title>Node27&#45;&gt;Node2</title>
<g id="a_edge27_Node000027_Node000002"><a xlink:title=" ">
<path fill="none" stroke="#63b8ff" d="M1131.06,-116.04C1145.57,-107.72 1166.03,-95.97 1182.57,-86.48"/>
<polygon fill="#63b8ff" stroke="#63b8ff" points="1184.03,-89.67 1190.96,-81.66 1180.55,-83.6 1184.03,-89.67"/>
</a>
</g>
</g>
<!-- Node28&#45;&gt;Node2 -->
<g id="edge29_Node000028_Node000002" class="edge">
<title>Node28&#45;&gt;Node2</title>
<g id="a_edge29_Node000028_Node000002"><a xlink:title=" ">
<path fill="none" stroke="#63b8ff" d="M883.95,-232.57C845.27,-221.95 801.29,-203.06 821.62,-174.75 857.21,-125.21 1024.96,-94.72 1128.2,-80.32"/>
<polygon fill="#63b8ff" stroke="#63b8ff" points="1128.6,-83.8 1138.03,-78.97 1127.65,-76.86 1128.6,-83.8"/>
</a>
</g>
</g>
<!-- Node28&#45;&gt;Node27 -->
<g id="edge30_Node000028_Node000027" class="edge">
<title>Node28&#45;&gt;Node27</title>
<g id="a_edge30_Node000028_Node000027"><a xlink:title=" ">
<path fill="none" stroke="#63b8ff" d="M950.14,-232.56C981.31,-212.62 1049.02,-169.31 1086.45,-145.37"/>
<polygon fill="#63b8ff" stroke="#63b8ff" points="1088.33,-148.32 1094.87,-139.98 1084.56,-142.42 1088.33,-148.32"/>
</a>
</g>
</g>
<!-- Node29 -->
<g id="Node000029" class="node">
<title>Node29</title>
<g id="a_Node000029"><a xlink:href="esp__now__callback__setup_8h.html" target="_top" xlink:title="Contains the callback functions for esp&#45;now.">
<polygon fill="white" stroke="#666666" points="992.38,-197 830.88,-197 830.88,-174.75 992.38,-174.75 992.38,-197"/>
<text text-anchor="middle" x="911.62" y="-181.6" font-family="Arial" font-size="12.00">esp_now_callback_setup.h</text>
</a>
</g>
</g>
<!-- Node28&#45;&gt;Node29 -->
<g id="edge31_Node000028_Node000029" class="edge">
<title>Node28&#45;&gt;Node29</title>
<g id="a_edge31_Node000028_Node000029"><a xlink:title=" ">
<path fill="none" stroke="#63b8ff" d="M929.49,-232.54C926.78,-225.63 923.16,-216.36 919.88,-207.98"/>
<polygon fill="#63b8ff" stroke="#63b8ff" points="923.2,-206.86 916.3,-198.82 916.68,-209.41 923.2,-206.86"/>
</a>
</g>
</g>
<!-- Node29&#45;&gt;Node2 -->
<g id="edge32_Node000029_Node000002" class="edge">
<title>Node29&#45;&gt;Node2</title>
<g id="a_edge32_Node000029_Node000002"><a xlink:title=" ">
<path fill="none" stroke="#63b8ff" d="M929.74,-174.47C955.51,-159.99 1004.51,-133.62 1048.62,-116.5 1082.89,-103.2 1122.56,-91.85 1154.06,-83.73"/>
<polygon fill="#63b8ff" stroke="#63b8ff" points="1154.54,-87.22 1163.38,-81.37 1152.82,-80.43 1154.54,-87.22"/>
</a>
</g>
</g>
<!-- Node29&#45;&gt;Node27 -->
<g id="edge33_Node000029_Node000027" class="edge">
<title>Node29&#45;&gt;Node27</title>
<g id="a_edge33_Node000029_Node000027"><a xlink:title=" ">
<path fill="none" stroke="#63b8ff" d="M949.43,-174.29C981.86,-165.22 1028.78,-152.09 1064,-142.23"/>
<polygon fill="#63b8ff" stroke="#63b8ff" points="1064.84,-145.63 1073.53,-139.57 1062.96,-138.89 1064.84,-145.63"/>
</a>
</g>
</g>
<!-- Node30&#45;&gt;Node2 -->
<g id="edge35_Node000030_Node000002" class="edge">
<title>Node30&#45;&gt;Node2</title>
<g id="a_edge35_Node000030_Node000002"><a xlink:title=" ">
<path fill="none" stroke="#63b8ff" d="M1714.19,-174.36C1697.94,-158.72 1664.88,-129.75 1630.62,-116.5 1570.95,-93.41 1397.55,-80.37 1293.15,-74.41"/>
<polygon fill="#63b8ff" stroke="#63b8ff" points="1293.4,-70.91 1283.22,-73.85 1293.01,-77.9 1293.4,-70.91"/>
</a>
</g>
</g>
<!-- Node30&#45;&gt;Node27 -->
<g id="edge36_Node000030_Node000027" class="edge">
<title>Node30&#45;&gt;Node27</title>
<g id="a_edge36_Node000030_Node000027"><a xlink:title=" ">
<path fill="none" stroke="#63b8ff" d="M1643.99,-177.46C1521.76,-166.23 1291.89,-145.1 1178.84,-134.71"/>
<polygon fill="#63b8ff" stroke="#63b8ff" points="1179.4,-131.25 1169.12,-133.82 1178.76,-138.22 1179.4,-131.25"/>
</a>
</g>
</g>
<!-- Node31&#45;&gt;Node2 -->
<g id="edge38_Node000031_Node000002" class="edge">
<title>Node31&#45;&gt;Node2</title>
<g id="a_edge38_Node000031_Node000002"><a xlink:title=" ">
<path fill="none" stroke="#63b8ff" d="M659,-174.49C685.8,-159.02 739.28,-130.27 788.62,-116.5 903.78,-84.37 1042.44,-74.44 1128.58,-71.47"/>
<polygon fill="#63b8ff" stroke="#63b8ff" points="1128.46,-74.98 1138.34,-71.16 1128.24,-67.98 1128.46,-74.98"/>
</a>
</g>
</g>
<!-- Node31&#45;&gt;Node27 -->
<g id="edge39_Node000031_Node000027" class="edge">
<title>Node31&#45;&gt;Node27</title>
<g id="a_edge39_Node000031_Node000027"><a xlink:title=" ">
<path fill="none" stroke="#63b8ff" d="M730.49,-174.26C822.28,-163.3 963.43,-146.44 1046.04,-136.58"/>
<polygon fill="#63b8ff" stroke="#63b8ff" points="1046.28,-140.07 1055.79,-135.41 1045.45,-133.12 1046.28,-140.07"/>
</a>
</g>
</g>
<!-- Node32&#45;&gt;Node2 -->
<g id="edge41_Node000032_Node000002" class="edge">
<title>Node32&#45;&gt;Node2</title>
<g id="a_edge41_Node000032_Node000002"><a xlink:title=" ">
<path fill="none" stroke="#63b8ff" d="M354,-349.01C328.32,-342.17 302.47,-331.15 282.62,-313.5 258.21,-291.79 255.62,-277.8 255.62,-245.12 255.62,-245.12 255.62,-245.12 255.62,-184.88 255.62,-153.33 249.99,-136.2 274.62,-116.5 307.7,-90.05 906.38,-76.11 1128.55,-71.83"/>
<polygon fill="#63b8ff" stroke="#63b8ff" points="1128.34,-75.33 1138.27,-71.64 1128.21,-68.34 1128.34,-75.33"/>
</a>
</g>
</g>
<!-- Node32&#45;&gt;Node27 -->
<g id="edge42_Node000032_Node000027" class="edge">
<title>Node32&#45;&gt;Node27</title>
<g id="a_edge42_Node000032_Node000027"><a xlink:title=" ">
<path fill="none" stroke="#63b8ff" d="M562.62,-351.69C709.46,-338.88 965.14,-309.41 1039.62,-255.25 1072.43,-231.4 1061.99,-209.67 1082.62,-174.75 1087.82,-165.96 1093.9,-156.47 1099.23,-148.4"/>
<polygon fill="#63b8ff" stroke="#63b8ff" points="1101.97,-150.61 1104.61,-140.35 1096.14,-146.72 1101.97,-150.61"/>
</a>
</g>
</g>
<!-- Node33 -->
<g id="Node000033" class="node">
<title>Node33</title>
<g id="a_Node000033"><a xlink:href="ssd1306_8h.html" target="_top" xlink:title=" ">
<polygon fill="white" stroke="#666666" points="516.38,-255.25 396.88,-255.25 396.88,-233 516.38,-233 516.38,-255.25"/>
<text text-anchor="middle" x="456.62" y="-239.85" font-family="Arial" font-size="12.00">../drivers/ssd1306.h</text>
</a>
</g>
</g>
<!-- Node32&#45;&gt;Node33 -->
<g id="edge43_Node000032_Node000033" class="edge">
<title>Node32&#45;&gt;Node33</title>
<g id="a_edge43_Node000032_Node000033"><a xlink:title=" ">
<path fill="none" stroke="#63b8ff" d="M456.62,-349.06C456.62,-330.48 456.62,-291.62 456.62,-267.04"/>
<polygon fill="#63b8ff" stroke="#63b8ff" points="460.13,-267.18 456.63,-257.18 453.13,-267.18 460.13,-267.18"/>
</a>
</g>
</g>
<!-- Node35 -->
<g id="Node000035" class="node">
<title>Node35</title>
<g id="a_Node000035"><a xlink:href="menus_8h.html" target="_top" xlink:title="This is the file that contains the class for menus.">
<polygon fill="white" stroke="#666666" points="421.62,-313.5 291.62,-313.5 291.62,-291.25 421.62,-291.25 421.62,-313.5"/>
<text text-anchor="middle" x="356.62" y="-298.1" font-family="Arial" font-size="12.00">../supporting/menus.h</text>
</a>
</g>
</g>
<!-- Node32&#45;&gt;Node35 -->
<g id="edge49_Node000032_Node000035" class="edge">
<title>Node32&#45;&gt;Node35</title>
<g id="a_edge49_Node000032_Node000035"><a xlink:title=" ">
<path fill="none" stroke="#63b8ff" d="M437.82,-349.04C423.01,-340.72 402.13,-328.97 385.25,-319.48"/>
<polygon fill="#63b8ff" stroke="#63b8ff" points="387.1,-316.5 376.67,-314.65 383.67,-322.6 387.1,-316.5"/>
</a>
</g>
</g>
<!-- Node33&#45;&gt;Node2 -->
<g id="edge47_Node000033_Node000002" class="edge">
<title>Node33&#45;&gt;Node2</title>
<g id="a_edge47_Node000033_Node000002"><a xlink:title=" ">
<path fill="none" stroke="#63b8ff" d="M439.1,-232.63C418.8,-219.15 390.02,-195.07 405.62,-174.75 466.7,-95.21 524.78,-133.44 623.62,-116.5 801.88,-85.94 1014.12,-75.59 1128.23,-72.11"/>
<polygon fill="#63b8ff" stroke="#63b8ff" points="1128.23,-75.61 1138.12,-71.82 1128.02,-68.62 1128.23,-75.61"/>
</a>
</g>
</g>
<!-- Node33&#45;&gt;Node27 -->
<g id="edge48_Node000033_Node000027" class="edge">
<title>Node33&#45;&gt;Node27</title>
<g id="a_edge48_Node000033_Node000027"><a xlink:title=" ">
<path fill="none" stroke="#63b8ff" d="M516.82,-235.78C575.58,-228.08 667.31,-214.64 745.62,-197 779.96,-189.27 787.29,-182.47 821.62,-174.75 897.93,-157.61 986.89,-144.49 1046.17,-136.7"/>
<polygon fill="#63b8ff" stroke="#63b8ff" points="1046.29,-140.22 1055.75,-135.46 1045.38,-133.27 1046.29,-140.22"/>
</a>
</g>
</g>
<!-- Node34 -->
<g id="Node000034" class="node">
<title>Node34</title>
<g id="a_Node000034"><a xlink:href="font_8h.html" target="_top" xlink:title="This file contains the class for the 12x16 font class.">
<polygon fill="white" stroke="#666666" points="528.38,-197 414.88,-197 414.88,-174.75 528.38,-174.75 528.38,-197"/>
<text text-anchor="middle" x="471.62" y="-181.6" font-family="Arial" font-size="12.00">../supporting/font.h</text>
</a>
</g>
</g>
<!-- Node33&#45;&gt;Node34 -->
<g id="edge44_Node000033_Node000034" class="edge">
<title>Node33&#45;&gt;Node34</title>
<g id="a_edge44_Node000033_Node000034"><a xlink:title=" ">
<path fill="none" stroke="#63b8ff" d="M459.45,-232.54C461.27,-225.71 463.71,-216.57 465.92,-208.27"/>
<polygon fill="#63b8ff" stroke="#63b8ff" points="469.23,-209.43 468.43,-198.87 462.47,-207.63 469.23,-209.43"/>
</a>
</g>
</g>
<!-- Node34&#45;&gt;Node2 -->
<g id="edge45_Node000034_Node000002" class="edge">
<title>Node34&#45;&gt;Node2</title>
<g id="a_edge45_Node000034_Node000002"><a xlink:title=" ">
<path fill="none" stroke="#63b8ff" d="M503.84,-174.37C551.83,-159.16 645.21,-131.19 726.62,-116.5 866.31,-91.3 1031.33,-79.3 1128.12,-74.04"/>
<polygon fill="#63b8ff" stroke="#63b8ff" points="1128.27,-77.54 1138.07,-73.51 1127.9,-70.55 1128.27,-77.54"/>
</a>
</g>
</g>
<!-- Node34&#45;&gt;Node27 -->
<g id="edge46_Node000034_Node000027" class="edge">
<title>Node34&#45;&gt;Node27</title>
<g id="a_edge46_Node000034_Node000027"><a xlink:title=" ">
<path fill="none" stroke="#63b8ff" d="M528.83,-175.84C531.8,-175.45 534.75,-175.09 537.62,-174.75 721.18,-153.34 938.87,-138.83 1046.11,-132.4"/>
<polygon fill="#63b8ff" stroke="#63b8ff" points="1046.1,-135.9 1055.88,-131.82 1045.69,-128.92 1046.1,-135.9"/>
</a>
</g>
</g>
<!-- Node35&#45;&gt;Node3 -->
<g id="edge53_Node000035_Node000003" class="edge">
<title>Node35&#45;&gt;Node3</title>
<g id="a_edge53_Node000035_Node000003"><a xlink:title=" ">
<path fill="none" stroke="#63b8ff" d="M344.74,-291.08C295.34,-248.3 105.92,-84.26 43.05,-29.81"/>
<polygon fill="#63b8ff" stroke="#63b8ff" points="45.71,-27.49 35.86,-23.59 41.13,-32.78 45.71,-27.49"/>
</a>
</g>
</g>
<!-- Node35&#45;&gt;Node33 -->
<g id="edge50_Node000035_Node000033" class="edge">
<title>Node35&#45;&gt;Node33</title>
<g id="a_edge50_Node000035_Node000033"><a xlink:title=" ">
<path fill="none" stroke="#63b8ff" d="M375.43,-290.79C390.24,-282.47 411.12,-270.72 428,-261.23"/>
<polygon fill="#63b8ff" stroke="#63b8ff" points="429.58,-264.35 436.58,-256.4 426.15,-258.25 429.58,-264.35"/>
</a>
</g>
</g>
<!-- Node36 -->
<g id="Node000036" class="node">
<title>Node36</title>
<g id="a_Node000036"><a xlink:href="changeable__values_8h.html" target="_top" xlink:title="Contains the information for the changeable values class, this class allows a value to be modifed by ...">
<polygon fill="white" stroke="#666666" points="414,-138.75 283.25,-138.75 283.25,-116.5 414,-116.5 414,-138.75"/>
<text text-anchor="middle" x="348.62" y="-123.35" font-family="Arial" font-size="12.00">changeable_values.h</text>
</a>
</g>
</g>
<!-- Node35&#45;&gt;Node36 -->
<g id="edge51_Node000035_Node000036" class="edge">
<title>Node35&#45;&gt;Node36</title>
<g id="a_edge51_Node000035_Node000036"><a xlink:title=" ">
<path fill="none" stroke="#63b8ff" d="M356.14,-290.83C354.85,-263.05 351.35,-187.47 349.62,-150.11"/>
<polygon fill="#63b8ff" stroke="#63b8ff" points="353.14,-150.37 349.18,-140.55 346.14,-150.7 353.14,-150.37"/>
</a>
</g>
</g>
<!-- Node36&#45;&gt;Node2 -->
<g id="edge52_Node000036_Node000002" class="edge">
<title>Node36&#45;&gt;Node2</title>
<g id="a_edge52_Node000036_Node000002"><a xlink:title=" ">
<path fill="none" stroke="#63b8ff" d="M414.11,-117.88C418.68,-117.38 423.22,-116.91 427.62,-116.5 682.57,-92.68 985.42,-78.97 1128.27,-73.37"/>
<polygon fill="#63b8ff" stroke="#63b8ff" points="1128.15,-76.87 1138,-72.99 1127.87,-69.88 1128.15,-76.87"/>
</a>
</g>
</g>
<!-- Node37&#45;&gt;Node2 -->
<g id="edge55_Node000037_Node000002" class="edge">
<title>Node37&#45;&gt;Node2</title>
<g id="a_edge55_Node000037_Node000002"><a xlink:title=" ">
<path fill="none" stroke="#63b8ff" d="M1496.94,-174.31C1496.78,-159.14 1494.07,-131.38 1477.62,-116.5 1450.98,-92.4 1361.08,-80.64 1292.89,-75.07"/>
<polygon fill="#63b8ff" stroke="#63b8ff" points="1293.47,-71.6 1283.23,-74.31 1292.92,-78.58 1293.47,-71.6"/>
</a>
</g>
</g>
<!-- Node37&#45;&gt;Node27 -->
<g id="edge56_Node000037_Node000027" class="edge">
<title>Node37&#45;&gt;Node27</title>
<g id="a_edge56_Node000037_Node000027"><a xlink:title=" ">
<path fill="none" stroke="#63b8ff" d="M1424.4,-174.29C1353.81,-163.95 1247.26,-148.35 1178.81,-138.32"/>
<polygon fill="#63b8ff" stroke="#63b8ff" points="1179.65,-134.91 1169.25,-136.92 1178.63,-141.83 1179.65,-134.91"/>
</a>
</g>
</g>
<!-- Node38&#45;&gt;Node2 -->
<g id="edge58_Node000038_Node000002" class="edge">
<title>Node38&#45;&gt;Node2</title>
<g id="a_edge58_Node000038_Node000002"><a xlink:title=" ">
<path fill="none" stroke="#63b8ff" d="M1242.12,-290.85C1237.07,-255.52 1220.67,-140.7 1213.75,-92.26"/>
<polygon fill="#63b8ff" stroke="#63b8ff" points="1217.23,-91.87 1212.35,-82.46 1210.3,-92.86 1217.23,-91.87"/>
</a>
</g>
</g>
<!-- Node38&#45;&gt;Node27 -->
<g id="edge59_Node000038_Node000027" class="edge">
<title>Node38&#45;&gt;Node27</title>
<g id="a_edge59_Node000038_Node000027"><a xlink:title=" ">
<path fill="none" stroke="#63b8ff" d="M1231.74,-291C1221.8,-282.04 1207.54,-268.47 1196.62,-255.25 1167.52,-220.01 1139.34,-174.47 1124.16,-148.72"/>
<polygon fill="#63b8ff" stroke="#63b8ff" points="1127.31,-147.16 1119.25,-140.28 1121.26,-150.69 1127.31,-147.16"/>
</a>
</g>
</g>
<!-- Node39 -->
<g id="Node000039" class="node">
<title>Node39</title>
<g id="a_Node000039"><a xlink:href="o_drive_8h.html" target="_top" xlink:title="This is the header for the oDrive class.">
<polygon fill="white" stroke="#666666" points="1348.12,-197 1239.12,-197 1239.12,-174.75 1348.12,-174.75 1348.12,-197"/>
<text text-anchor="middle" x="1293.62" y="-181.6" font-family="Arial" font-size="12.00">../drivers/oDrive.h</text>
</a>
</g>
</g>
<!-- Node38&#45;&gt;Node39 -->
<g id="edge60_Node000038_Node000039" class="edge">
<title>Node38&#45;&gt;Node39</title>
<g id="a_edge60_Node000038_Node000039"><a xlink:title=" ">
<path fill="none" stroke="#63b8ff" d="M1246.65,-290.96C1250.75,-277.36 1258.59,-252.94 1267.62,-233 1271.59,-224.25 1276.65,-214.96 1281.25,-207.02"/>
<polygon fill="#63b8ff" stroke="#63b8ff" points="1284.2,-208.91 1286.32,-198.53 1278.19,-205.32 1284.2,-208.91"/>
</a>
</g>
</g>
<!-- Node41 -->
<g id="Node000041" class="node">
<title>Node41</title>
<g id="a_Node000041"><a xlink:href="kicker__drive__train_8h.html" target="_top" xlink:title="Header for the kicker drive_train class.">
<polygon fill="white" stroke="#666666" points="1464.88,-255.25 1276.38,-255.25 1276.38,-233 1464.88,-233 1464.88,-255.25"/>
<text text-anchor="middle" x="1370.62" y="-239.85" font-family="Arial" font-size="12.00">../supporting/kicker_drive_train.h</text>
</a>
</g>
</g>
<!-- Node38&#45;&gt;Node41 -->
<g id="edge64_Node000038_Node000041" class="edge">
<title>Node38&#45;&gt;Node41</title>
<g id="a_edge64_Node000038_Node000041"><a xlink:title=" ">
<path fill="none" stroke="#63b8ff" d="M1267.51,-290.79C1286.94,-282.19 1314.59,-269.94 1336.38,-260.29"/>
<polygon fill="#63b8ff" stroke="#63b8ff" points="1337.73,-263.52 1345.46,-256.27 1334.9,-257.12 1337.73,-263.52"/>
</a>
</g>
</g>
<!-- Node39&#45;&gt;Node2 -->
<g id="edge61_Node000039_Node000002" class="edge">
<title>Node39&#45;&gt;Node2</title>
<g id="a_edge61_Node000039_Node000002"><a xlink:title=" ">
<path fill="none" stroke="#63b8ff" d="M1285.97,-174.31C1272.07,-155.14 1242.51,-114.35 1224.83,-89.96"/>
<polygon fill="#63b8ff" stroke="#63b8ff" points="1227.86,-88.18 1219.15,-82.14 1222.19,-92.29 1227.86,-88.18"/>
</a>
</g>
</g>
<!-- Node39&#45;&gt;Node27 -->
<g id="edge63_Node000039_Node000027" class="edge">
<title>Node39&#45;&gt;Node27</title>
<g id="a_edge63_Node000039_Node000027"><a xlink:title=" ">
<path fill="none" stroke="#63b8ff" d="M1259.58,-174.29C1230.63,-165.3 1188.86,-152.32 1157.24,-142.49"/>
<polygon fill="#63b8ff" stroke="#63b8ff" points="1158.55,-139.23 1147.96,-139.61 1156.47,-145.92 1158.55,-139.23"/>
</a>
</g>
</g>
<!-- Node40 -->
<g id="Node000040" class="node">
<title>Node40</title>
<g id="a_Node000040"><a xlink:href="odrive__commands_8h.html" target="_top" xlink:title=" ">
<polygon fill="white" stroke="#666666" points="1468.75,-138.75 1276.5,-138.75 1276.5,-116.5 1468.75,-116.5 1468.75,-138.75"/>
<text text-anchor="middle" x="1372.62" y="-123.35" font-family="Arial" font-size="12.00">../supporting/odrive_commands.h</text>
</a>
</g>
</g>
<!-- Node39&#45;&gt;Node40 -->
<g id="edge62_Node000039_Node000040" class="edge">
<title>Node39&#45;&gt;Node40</title>
<g id="a_edge62_Node000039_Node000040"><a xlink:title=" ">
<path fill="none" stroke="#63b8ff" d="M1308.48,-174.29C1319.74,-166.28 1335.44,-155.1 1348.49,-145.81"/>
<polygon fill="#63b8ff" stroke="#63b8ff" points="1350.48,-148.69 1356.6,-140.04 1346.42,-142.98 1350.48,-148.69"/>
</a>
</g>
</g>
<!-- Node41&#45;&gt;Node2 -->
<g id="edge65_Node000041_Node000002" class="edge">
<title>Node41&#45;&gt;Node2</title>
<g id="a_edge65_Node000041_Node000002"><a xlink:title=" ">
<path fill="none" stroke="#63b8ff" d="M1465.15,-235.83C1519.64,-229.44 1580.64,-217.79 1597.62,-197 1603.88,-189.34 1602.53,-183.33 1597.62,-174.75 1572.28,-130.43 1546.66,-133.78 1498.62,-116.5 1431.84,-92.48 1351.86,-80.93 1293.15,-75.4"/>
<polygon fill="#63b8ff" stroke="#63b8ff" points="1293.48,-71.92 1283.21,-74.51 1292.85,-78.89 1293.48,-71.92"/>
</a>
</g>
</g>
<!-- Node41&#45;&gt;Node27 -->
<g id="edge66_Node000041_Node000027" class="edge">
<title>Node41&#45;&gt;Node27</title>
<g id="a_edge66_Node000041_Node000027"><a xlink:title=" ">
<path fill="none" stroke="#63b8ff" d="M1331.18,-232.51C1302.67,-224.26 1263.55,-211.77 1230.62,-197 1197.32,-182.06 1161.33,-160.31 1137.97,-145.38"/>
<polygon fill="#63b8ff" stroke="#63b8ff" points="1140.05,-142.55 1129.75,-140.06 1136.24,-148.43 1140.05,-142.55"/>
</a>
</g>
</g>
<!-- Node41&#45;&gt;Node39 -->
<g id="edge67_Node000041_Node000039" class="edge">
<title>Node41&#45;&gt;Node39</title>
<g id="a_edge67_Node000041_Node000039"><a xlink:title=" ">
<path fill="none" stroke="#63b8ff" d="M1356.14,-232.54C1345.17,-224.53 1329.87,-213.35 1317.15,-204.06"/>
<polygon fill="#63b8ff" stroke="#63b8ff" points="1319.4,-201.37 1309.27,-198.3 1315.28,-207.03 1319.4,-201.37"/>
</a>
</g>
</g>
<!-- Node41&#45;&gt;Node40 -->
<g id="edge68_Node000041_Node000040" class="edge">
<title>Node41&#45;&gt;Node40</title>
<g id="a_edge68_Node000041_Node000040"><a xlink:title=" ">
<path fill="none" stroke="#63b8ff" d="M1370.81,-232.56C1371.13,-213.98 1371.81,-175.12 1372.24,-150.54"/>
<polygon fill="#63b8ff" stroke="#63b8ff" points="1375.74,-150.74 1372.41,-140.68 1368.74,-150.62 1375.74,-150.74"/>
</a>
</g>
</g>
<!-- Node42&#45;&gt;Node2 -->
<g id="edge70_Node000042_Node000002" class="edge">
<title>Node42&#45;&gt;Node2</title>
<g id="a_edge70_Node000042_Node000002"><a xlink:title=" ">
<path fill="none" stroke="#63b8ff" d="M1890.34,-174.34C1841.25,-159.2 1746.29,-131.48 1663.62,-116.5 1535.32,-93.24 1384.29,-80.81 1293.09,-74.9"/>
<polygon fill="#63b8ff" stroke="#63b8ff" points="1293.43,-71.42 1283.23,-74.28 1292.99,-78.4 1293.43,-71.42"/>
</a>
</g>
</g>
<!-- Node42&#45;&gt;Node27 -->
<g id="edge71_Node000042_Node000027" class="edge">
<title>Node42&#45;&gt;Node27</title>
<g id="a_edge71_Node000042_Node000027"><a xlink:title=" ">
<path fill="none" stroke="#63b8ff" d="M1822.34,-175.45C1819.4,-175.21 1816.49,-174.98 1813.62,-174.75 1797.93,-173.51 1351.42,-144.26 1179.34,-132.99"/>
<polygon fill="#63b8ff" stroke="#63b8ff" points="1179.64,-129.5 1169.44,-132.34 1179.19,-136.49 1179.64,-129.5"/>
</a>
</g>
</g>
<!-- Node43 -->
<g id="Node000043" class="node">
<title>Node43</title>
<g id="a_Node000043"><a xlink:href="servo_8h.html" target="_top" xlink:title="This is the header for the servo motor class.">
<polygon fill="white" stroke="#666666" points="1917.12,-138.75 1814.12,-138.75 1814.12,-116.5 1917.12,-116.5 1917.12,-138.75"/>
<text text-anchor="middle" x="1865.62" y="-123.35" font-family="Arial" font-size="12.00">../drivers/servo.h</text>
</a>
</g>
</g>
<!-- Node42&#45;&gt;Node43 -->
<g id="edge72_Node000042_Node000043" class="edge">
<title>Node42&#45;&gt;Node43</title>
<g id="a_edge72_Node000042_Node000043"><a xlink:title=" ">
<path fill="none" stroke="#63b8ff" d="M1912.72,-174.29C1904.78,-166.6 1893.83,-155.97 1884.48,-146.91"/>
<polygon fill="#63b8ff" stroke="#63b8ff" points="1887.19,-144.66 1877.57,-140.21 1882.31,-149.69 1887.19,-144.66"/>
</a>
</g>
</g>
<!-- Node43&#45;&gt;Node2 -->
<g id="edge73_Node000043_Node000002" class="edge">
<title>Node43&#45;&gt;Node2</title>
<g id="a_edge73_Node000043_Node000002"><a xlink:title=" ">
<path fill="none" stroke="#63b8ff" d="M1813.88,-120.88C1799.85,-119.39 1784.66,-117.83 1770.62,-116.5 1600.85,-100.46 1401.81,-84.82 1292.64,-76.51"/>
<polygon fill="#63b8ff" stroke="#63b8ff" points="1293.14,-73.04 1282.9,-75.77 1292.61,-80.02 1293.14,-73.04"/>
</a>
</g>
</g>
</g>
</svg>
