<?xml version="1.0" encoding="UTF-8" standalone="no"?>
<!DOCTYPE svg PUBLIC "-//W3C//DTD SVG 1.1//EN"
 "http://www.w3.org/Graphics/SVG/1.1/DTD/svg11.dtd">
<!-- Generated by graphviz version 12.2.1 (20241206.2353)
 -->
<!-- Title: main/supporting/menus.cpp Pages: 1 -->
<!--zoomable 380 -->

<svg id="main" version="1.1" xmlns="http://www.w3.org/2000/svg" xmlns:xlink="http://www.w3.org/1999/xlink" xml:space="preserve" onload="init(evt)">

<style type="text/css"><![CDATA[
.node, .edge {opacity: 0.7;}
.node.selected, .edge.selected {opacity: 1;}
.edge:hover path { stroke: red; }
.edge:hover polygon { stroke: red; fill: red; }
]]></style>

<defs>
  <circle id="rim" cx="0" cy="0" r="7"/>
  <circle id="rim2" cx="0" cy="0" r="3.5"/>
  <g id="zoomPlus">
    <use xlink:href="#rim" fill="#404040"><set attributeName="fill" to="#808080" begin="zoomplus.mouseover" end="zoomplus.mouseout"/></use>
    <path d="M-4,0h8M0,-4v8" fill="none" stroke="white" stroke-width="1.5" pointer-events="none"/>
  </g>
  <g id="zoomMin">
    <use xlink:href="#rim" fill="#404040"><set attributeName="fill" to="#808080" begin="zoomminus.mouseover" end="zoomminus.mouseout"/></use>
    <path d="M-4,0h8" fill="none" stroke="white" stroke-width="1.5" pointer-events="none"/>
  </g>
  <g id="arrowUp" transform="translate(30 24)">
    <use xlink:href="#rim"/>
    <path pointer-events="none" fill="none" stroke="white" stroke-width="1.5" d="M0,-3.0v7 M-2.5,-0.5L0,-3.0L2.5,-0.5"/>
  </g>
  <g id="arrowRight" transform="rotate(90) translate(36 -43)">
    <use xlink:href="#rim"/>
    <path pointer-events="none" fill="none" stroke="white" stroke-width="1.5" d="M0,-3.0v7 M-2.5,-0.5L0,-3.0L2.5,-0.5"/>
  </g>
  <g id="arrowDown" transform="rotate(180) translate(-30 -48)">
    <use xlink:href="#rim"/>
    <path pointer-events="none" fill="none" stroke="white" stroke-width="1.5" d="M0,-3.0v7 M-2.5,-0.5L0,-3.0L2.5,-0.5"/>
  </g>
  <g id="arrowLeft" transform="rotate(270) translate(-36 17)">
    <use xlink:href="#rim"/>
    <path pointer-events="none" fill="none" stroke="white" stroke-width="1.5" d="M0,-3.0v7 M-2.5,-0.5L0,-3.0L2.5,-0.5"/>
  </g>
  <g id="resetDef">
    <use xlink:href="#rim2" fill="#404040"><set attributeName="fill" to="#808080" begin="reset.mouseover" end="reset.mouseout"/></use>
  </g>
</defs>
<script type="application/ecmascript">
var viewWidth = 2342;
var viewHeight = 380;
var sectionId = 'dynsection-0';
</script>
<script type="application/ecmascript" xlink:href="svg.min.js"/>
<svg id="graph" class="graph">
<g id="viewport">
<title>main/supporting/menus.cpp</title>
<!-- Node1 -->
<g id="Node000001" class="node">
<title>Node1</title>
<g id="a_Node000001"><a xlink:title="source file for the class that handles the creation of menus">
<polygon fill="#999999" stroke="#666666" points="1457,-371.75 1294,-371.75 1294,-349.5 1457,-349.5 1457,-371.75"/>
<text text-anchor="middle" x="1375.5" y="-356.35" font-family="Arial" font-size="12.00">main/supporting/menus.cpp</text>
</a>
</g>
</g>
<!-- Node2 -->
<g id="Node000002" class="node">
<title>Node2</title>
<g id="a_Node000002"><a xlink:href="menus_8h.html" target="_top" xlink:title="This is the file that contains the class for menus.">
<polygon fill="white" stroke="#666666" points="1466,-313.5 1285,-313.5 1285,-291.25 1466,-291.25 1466,-313.5"/>
<text text-anchor="middle" x="1375.5" y="-298.1" font-family="Arial" font-size="12.00">../../include/supporting/menus.h</text>
</a>
</g>
</g>
<!-- Node1&#45;&gt;Node2 -->
<g id="edge1_Node000001_Node000002" class="edge">
<title>Node1&#45;&gt;Node2</title>
<g id="a_edge1_Node000001_Node000002"><a xlink:title=" ">
<path fill="none" stroke="#63b8ff" d="M1375.5,-349.04C1375.5,-342.37 1375.5,-333.49 1375.5,-325.34"/>
<polygon fill="#63b8ff" stroke="#63b8ff" points="1379,-325.42 1375.5,-315.42 1372,-325.42 1379,-325.42"/>
</a>
</g>
</g>
<!-- Node3 -->
<g id="Node000003" class="node">
<title>Node3</title>
<g id="a_Node000003"><a xlink:href="ssd1306_8h.html" target="_top" xlink:title=" ">
<polygon fill="white" stroke="#666666" points="1323.25,-255.25 1203.75,-255.25 1203.75,-233 1323.25,-233 1323.25,-255.25"/>
<text text-anchor="middle" x="1263.5" y="-239.85" font-family="Arial" font-size="12.00">../drivers/ssd1306.h</text>
</a>
</g>
</g>
<!-- Node2&#45;&gt;Node3 -->
<g id="edge2_Node000002_Node000003" class="edge">
<title>Node2&#45;&gt;Node3</title>
<g id="a_edge2_Node000002_Node000003"><a xlink:title=" ">
<path fill="none" stroke="#63b8ff" d="M1354.43,-290.79C1337.54,-282.31 1313.58,-270.28 1294.5,-260.69"/>
<polygon fill="#63b8ff" stroke="#63b8ff" points="1296.33,-257.7 1285.82,-256.34 1293.19,-263.95 1296.33,-257.7"/>
</a>
</g>
</g>
<!-- Node6 -->
<g id="Node000006" class="node">
<title>Node6</title>
<g id="a_Node000006"><a xlink:title=" ">
<polygon fill="#e0e0e0" stroke="#999999" points="2334.12,-22.25 2288.88,-22.25 2288.88,0 2334.12,0 2334.12,-22.25"/>
<text text-anchor="middle" x="2311.5" y="-6.85" font-family="Arial" font-size="12.00">string</text>
</a>
</g>
</g>
<!-- Node2&#45;&gt;Node6 -->
<g id="edge35_Node000002_Node000006" class="edge">
<title>Node2&#45;&gt;Node6</title>
<g id="a_edge35_Node000002_Node000006"><a xlink:title=" ">
<path fill="none" stroke="#63b8ff" d="M1466.21,-299.58C1613.77,-294.17 1889.5,-272.58 1889.5,-186.88 1889.5,-186.88 1889.5,-186.88 1889.5,-126.62 1889.5,49.64 2099.4,-68.44 2277.64,-22.79"/>
<polygon fill="#63b8ff" stroke="#63b8ff" points="2278.36,-26.23 2287.06,-20.19 2276.49,-19.48 2278.36,-26.23"/>
</a>
</g>
</g>
<!-- Node31 -->
<g id="Node000031" class="node">
<title>Node31</title>
<g id="a_Node000031"><a xlink:href="changeable__values_8h.html" target="_top" xlink:title="Contains the information for the changeable values class, this class allows a value to be modifed by ...">
<polygon fill="white" stroke="#666666" points="1440.88,-197 1310.12,-197 1310.12,-174.75 1440.88,-174.75 1440.88,-197"/>
<text text-anchor="middle" x="1375.5" y="-181.6" font-family="Arial" font-size="12.00">changeable_values.h</text>
</a>
</g>
</g>
<!-- Node2&#45;&gt;Node31 -->
<g id="edge33_Node000002_Node000031" class="edge">
<title>Node2&#45;&gt;Node31</title>
<g id="a_edge33_Node000002_Node000031"><a xlink:title=" ">
<path fill="none" stroke="#63b8ff" d="M1375.5,-290.81C1375.5,-272.23 1375.5,-233.37 1375.5,-208.79"/>
<polygon fill="#63b8ff" stroke="#63b8ff" points="1379,-208.93 1375.5,-198.93 1372,-208.93 1379,-208.93"/>
</a>
</g>
</g>
<!-- Node4 -->
<g id="Node000004" class="node">
<title>Node4</title>
<g id="a_Node000004"><a xlink:href="font_8h.html" target="_top" xlink:title="This file contains the class for the 12x16 font class.">
<polygon fill="white" stroke="#666666" points="1216.25,-197 1102.75,-197 1102.75,-174.75 1216.25,-174.75 1216.25,-197"/>
<text text-anchor="middle" x="1159.5" y="-181.6" font-family="Arial" font-size="12.00">../supporting/font.h</text>
</a>
</g>
</g>
<!-- Node3&#45;&gt;Node4 -->
<g id="edge3_Node000003_Node000004" class="edge">
<title>Node3&#45;&gt;Node4</title>
<g id="a_edge3_Node000003_Node000004"><a xlink:title=" ">
<path fill="none" stroke="#63b8ff" d="M1243.94,-232.54C1228.4,-224.14 1206.41,-212.25 1188.78,-202.71"/>
<polygon fill="#63b8ff" stroke="#63b8ff" points="1190.77,-199.81 1180.31,-198.13 1187.44,-205.96 1190.77,-199.81"/>
</a>
</g>
</g>
<!-- Node5 -->
<g id="Node000005" class="node">
<title>Node5</title>
<g id="a_Node000005"><a xlink:href="all__includes_8h.html" target="_top" xlink:title="Contains the system wide includes for esp&#45;idf and c++, along with structs and enums.">
<polygon fill="white" stroke="#666666" points="1270.12,-80.5 1170.88,-80.5 1170.88,-58.25 1270.12,-58.25 1270.12,-80.5"/>
<text text-anchor="middle" x="1220.5" y="-65.1" font-family="Arial" font-size="12.00">../all_includes.h</text>
</a>
</g>
</g>
<!-- Node3&#45;&gt;Node5 -->
<g id="edge31_Node000003_Node000005" class="edge">
<title>Node3&#45;&gt;Node5</title>
<g id="a_edge31_Node000003_Node000005"><a xlink:title=" ">
<path fill="none" stroke="#63b8ff" d="M1265.96,-232.81C1270.73,-210.6 1279.45,-157 1263.5,-116.5 1259.26,-105.73 1251.18,-95.98 1243.17,-88.26"/>
<polygon fill="#63b8ff" stroke="#63b8ff" points="1245.6,-85.74 1235.8,-81.72 1240.96,-90.98 1245.6,-85.74"/>
</a>
</g>
</g>
<!-- Node30 -->
<g id="Node000030" class="node">
<title>Node30</title>
<g id="a_Node000030"><a xlink:href="pinout_8h.html" target="_top" xlink:title="This is the file that contains the pinout and other configuration information.">
<polygon fill="white" stroke="#666666" points="1254.38,-138.75 1186.62,-138.75 1186.62,-116.5 1254.38,-116.5 1254.38,-138.75"/>
<text text-anchor="middle" x="1220.5" y="-123.35" font-family="Arial" font-size="12.00">../pinout.h</text>
</a>
</g>
</g>
<!-- Node3&#45;&gt;Node30 -->
<g id="edge32_Node000003_Node000030" class="edge">
<title>Node3&#45;&gt;Node30</title>
<g id="a_edge32_Node000003_Node000030"><a xlink:title=" ">
<path fill="none" stroke="#63b8ff" d="M1259.53,-232.56C1252.49,-213.81 1237.69,-174.41 1228.48,-149.86"/>
<polygon fill="#63b8ff" stroke="#63b8ff" points="1231.78,-148.71 1224.99,-140.58 1225.23,-151.18 1231.78,-148.71"/>
</a>
</g>
</g>
<!-- Node4&#45;&gt;Node5 -->
<g id="edge4_Node000004_Node000005" class="edge">
<title>Node4&#45;&gt;Node5</title>
<g id="a_edge4_Node000004_Node000005"><a xlink:title=" ">
<path fill="none" stroke="#63b8ff" d="M1160.62,-174.56C1162.47,-160.64 1167.07,-135.42 1177.5,-116.5 1183.17,-106.22 1191.63,-96.46 1199.55,-88.59"/>
<polygon fill="#63b8ff" stroke="#63b8ff" points="1201.79,-91.29 1206.68,-81.89 1196.99,-86.19 1201.79,-91.29"/>
</a>
</g>
</g>
<!-- Node4&#45;&gt;Node30 -->
<g id="edge29_Node000004_Node000030" class="edge">
<title>Node4&#45;&gt;Node30</title>
<g id="a_edge29_Node000004_Node000030"><a xlink:title=" ">
<path fill="none" stroke="#63b8ff" d="M1170.97,-174.29C1179.32,-166.6 1190.84,-155.97 1200.67,-146.91"/>
<polygon fill="#63b8ff" stroke="#63b8ff" points="1202.99,-149.54 1207.97,-140.18 1198.24,-144.39 1202.99,-149.54"/>
</a>
</g>
</g>
<!-- Node5&#45;&gt;Node6 -->
<g id="edge5_Node000005_Node000006" class="edge">
<title>Node5&#45;&gt;Node6</title>
<g id="a_edge5_Node000005_Node000006"><a xlink:title=" ">
<path fill="none" stroke="#63b8ff" d="M1270.58,-68C1449.97,-66.37 2060.95,-58.4 2277.42,-22.32"/>
<polygon fill="#63b8ff" stroke="#63b8ff" points="2277.92,-25.78 2287.17,-20.61 2276.71,-18.89 2277.92,-25.78"/>
</a>
</g>
</g>
<!-- Node7 -->
<g id="Node000007" class="node">
<title>Node7</title>
<g id="a_Node000007"><a xlink:title=" ">
<polygon fill="#e0e0e0" stroke="#999999" points="55,-22.25 0,-22.25 0,0 55,0 55,-22.25"/>
<text text-anchor="middle" x="27.5" y="-6.85" font-family="Arial" font-size="12.00">string.h</text>
</a>
</g>
</g>
<!-- Node5&#45;&gt;Node7 -->
<g id="edge6_Node000005_Node000007" class="edge">
<title>Node5&#45;&gt;Node7</title>
<g id="a_edge6_Node000005_Node000007"><a xlink:title=" ">
<path fill="none" stroke="#63b8ff" d="M1170.6,-67.94C980.92,-66.05 303.97,-57.08 66.57,-22.36"/>
<polygon fill="#63b8ff" stroke="#63b8ff" points="67.17,-18.91 56.76,-20.86 66.12,-25.83 67.17,-18.91"/>
</a>
</g>
</g>
<!-- Node8 -->
<g id="Node000008" class="node">
<title>Node8</title>
<g id="a_Node000008"><a xlink:title=" ">
<polygon fill="#e0e0e0" stroke="#999999" points="124.12,-22.25 72.88,-22.25 72.88,0 124.12,0 124.12,-22.25"/>
<text text-anchor="middle" x="98.5" y="-6.85" font-family="Arial" font-size="12.00">stdio.h</text>
</a>
</g>
</g>
<!-- Node5&#45;&gt;Node8 -->
<g id="edge7_Node000005_Node000008" class="edge">
<title>Node5&#45;&gt;Node8</title>
<g id="a_edge7_Node000005_Node000008"><a xlink:title=" ">
<path fill="none" stroke="#63b8ff" d="M1170.47,-67.84C988.2,-65.64 359.16,-55.88 135.62,-22.13"/>
<polygon fill="#63b8ff" stroke="#63b8ff" points="136.25,-18.68 125.83,-20.58 135.16,-25.6 136.25,-18.68"/>
</a>
</g>
</g>
<!-- Node9 -->
<g id="Node000009" class="node">
<title>Node9</title>
<g id="a_Node000009"><a xlink:title=" ">
<polygon fill="#e0e0e0" stroke="#999999" points="194.5,-22.25 142.5,-22.25 142.5,0 194.5,0 194.5,-22.25"/>
<text text-anchor="middle" x="168.5" y="-6.85" font-family="Arial" font-size="12.00">math.h</text>
</a>
</g>
</g>
<!-- Node5&#45;&gt;Node9 -->
<g id="edge8_Node000005_Node000009" class="edge">
<title>Node5&#45;&gt;Node9</title>
<g id="a_edge8_Node000005_Node000009"><a xlink:title=" ">
<path fill="none" stroke="#63b8ff" d="M1170.67,-67.67C996.47,-64.98 414.48,-53.9 205.85,-22.2"/>
<polygon fill="#63b8ff" stroke="#63b8ff" points="206.64,-18.78 196.21,-20.67 205.54,-25.7 206.64,-18.78"/>
</a>
</g>
</g>
<!-- Node10 -->
<g id="Node000010" class="node">
<title>Node10</title>
<g id="a_Node000010"><a xlink:title=" ">
<polygon fill="#e0e0e0" stroke="#999999" points="286.38,-22.25 212.62,-22.25 212.62,0 286.38,0 286.38,-22.25"/>
<text text-anchor="middle" x="249.5" y="-6.85" font-family="Arial" font-size="12.00">esp_now.h</text>
</a>
</g>
</g>
<!-- Node5&#45;&gt;Node10 -->
<g id="edge9_Node000005_Node000010" class="edge">
<title>Node5&#45;&gt;Node10</title>
<g id="a_edge9_Node000005_Node000010"><a xlink:title=" ">
<path fill="none" stroke="#63b8ff" d="M1170.6,-68.8C1032.95,-69.36 636.22,-66.79 298.06,-22.38"/>
<polygon fill="#63b8ff" stroke="#63b8ff" points="298.69,-18.93 288.31,-21.08 297.77,-25.87 298.69,-18.93"/>
</a>
</g>
</g>
<!-- Node11 -->
<g id="Node000011" class="node">
<title>Node11</title>
<g id="a_Node000011"><a xlink:title=" ">
<polygon fill="#e0e0e0" stroke="#999999" points="374.5,-22.25 304.5,-22.25 304.5,0 374.5,0 374.5,-22.25"/>
<text text-anchor="middle" x="339.5" y="-6.85" font-family="Arial" font-size="12.00">esp_wifi.h</text>
</a>
</g>
</g>
<!-- Node5&#45;&gt;Node11 -->
<g id="edge10_Node000005_Node000011" class="edge">
<title>Node5&#45;&gt;Node11</title>
<g id="a_edge10_Node000005_Node000011"><a xlink:title=" ">
<path fill="none" stroke="#63b8ff" d="M1170.68,-68.59C1042.14,-68.52 688.75,-64.32 386.14,-22.4"/>
<polygon fill="#63b8ff" stroke="#63b8ff" points="386.83,-18.96 376.44,-21.04 385.86,-25.9 386.83,-18.96"/>
</a>
</g>
</g>
<!-- Node12 -->
<g id="Node000012" class="node">
<title>Node12</title>
<g id="a_Node000012"><a xlink:title=" ">
<polygon fill="#e0e0e0" stroke="#999999" points="460.75,-22.25 392.25,-22.25 392.25,0 460.75,0 460.75,-22.25"/>
<text text-anchor="middle" x="426.5" y="-6.85" font-family="Arial" font-size="12.00">esp_log.h</text>
</a>
</g>
</g>
<!-- Node5&#45;&gt;Node12 -->
<g id="edge11_Node000005_Node000012" class="edge">
<title>Node5&#45;&gt;Node12</title>
<g id="a_edge11_Node000005_Node000012"><a xlink:title=" ">
<path fill="none" stroke="#63b8ff" d="M1170.63,-68.14C1051.49,-66.97 740.91,-60.34 472.14,-22.23"/>
<polygon fill="#63b8ff" stroke="#63b8ff" points="472.88,-18.8 462.48,-20.84 471.88,-25.73 472.88,-18.8"/>
</a>
</g>
</g>
<!-- Node13 -->
<g id="Node000013" class="node">
<title>Node13</title>
<g id="a_Node000013"><a xlink:title=" ">
<polygon fill="#e0e0e0" stroke="#999999" points="553.75,-22.25 479.25,-22.25 479.25,0 553.75,0 553.75,-22.25"/>
<text text-anchor="middle" x="516.5" y="-6.85" font-family="Arial" font-size="12.00">esp_mac.h</text>
</a>
</g>
</g>
<!-- Node5&#45;&gt;Node13 -->
<g id="edge12_Node000005_Node000013" class="edge">
<title>Node5&#45;&gt;Node13</title>
<g id="a_edge12_Node000005_Node000013"><a xlink:title=" ">
<path fill="none" stroke="#63b8ff" d="M1170.71,-67.37C1062.32,-64.66 796.79,-55.11 565.41,-22.49"/>
<polygon fill="#63b8ff" stroke="#63b8ff" points="565.97,-19.03 555.57,-21.08 564.98,-25.96 565.97,-19.03"/>
</a>
</g>
</g>
<!-- Node14 -->
<g id="Node000014" class="node">
<title>Node14</title>
<g id="a_Node000014"><a xlink:title=" ">
<polygon fill="#e0e0e0" stroke="#999999" points="697.25,-22.25 571.75,-22.25 571.75,0 697.25,0 697.25,-22.25"/>
<text text-anchor="middle" x="634.5" y="-6.85" font-family="Arial" font-size="12.00">freertos/FreeRTOS.h</text>
</a>
</g>
</g>
<!-- Node5&#45;&gt;Node14 -->
<g id="edge13_Node000005_Node000014" class="edge">
<title>Node5&#45;&gt;Node14</title>
<g id="a_edge13_Node000005_Node000014"><a xlink:title=" ">
<path fill="none" stroke="#63b8ff" d="M1170.44,-64.72C1080.35,-57.97 884.72,-42.46 708.97,-22.49"/>
<polygon fill="#63b8ff" stroke="#63b8ff" points="709.53,-19.03 699.2,-21.37 708.73,-25.98 709.53,-19.03"/>
</a>
</g>
</g>
<!-- Node15 -->
<g id="Node000015" class="node">
<title>Node15</title>
<g id="a_Node000015"><a xlink:title=" ">
<polygon fill="#e0e0e0" stroke="#999999" points="805.62,-22.25 715.38,-22.25 715.38,0 805.62,0 805.62,-22.25"/>
<text text-anchor="middle" x="760.5" y="-6.85" font-family="Arial" font-size="12.00">freertos/task.h</text>
</a>
</g>
</g>
<!-- Node5&#45;&gt;Node15 -->
<g id="edge14_Node000005_Node000015" class="edge">
<title>Node5&#45;&gt;Node15</title>
<g id="a_edge14_Node000005_Node000015"><a xlink:title=" ">
<path fill="none" stroke="#63b8ff" d="M1170.66,-63.88C1096.03,-56.9 950.58,-42.3 817.06,-22.55"/>
<polygon fill="#63b8ff" stroke="#63b8ff" points="817.74,-19.11 807.33,-21.09 816.7,-26.03 817.74,-19.11"/>
</a>
</g>
</g>
<!-- Node16 -->
<g id="Node000016" class="node">
<title>Node16</title>
<g id="a_Node000016"><a xlink:title=" ">
<polygon fill="#e0e0e0" stroke="#999999" points="925.62,-22.25 823.38,-22.25 823.38,0 925.62,0 925.62,-22.25"/>
<text text-anchor="middle" x="874.5" y="-6.85" font-family="Arial" font-size="12.00">freertos/queue.h</text>
</a>
</g>
</g>
<!-- Node5&#45;&gt;Node16 -->
<g id="edge15_Node000005_Node000016" class="edge">
<title>Node5&#45;&gt;Node16</title>
<g id="a_edge15_Node000005_Node000016"><a xlink:title=" ">
<path fill="none" stroke="#63b8ff" d="M1170.55,-60.35C1115.98,-51.58 1025.65,-37.01 937.39,-22.55"/>
<polygon fill="#63b8ff" stroke="#63b8ff" points="938.01,-19.11 927.58,-20.95 936.88,-26.02 938.01,-19.11"/>
</a>
</g>
</g>
<!-- Node17 -->
<g id="Node000017" class="node">
<title>Node17</title>
<g id="a_Node000017"><a xlink:title=" ">
<polygon fill="#e0e0e0" stroke="#999999" points="1044.88,-22.25 944.12,-22.25 944.12,0 1044.88,0 1044.88,-22.25"/>
<text text-anchor="middle" x="994.5" y="-6.85" font-family="Arial" font-size="12.00">freertos/timers.h</text>
</a>
</g>
</g>
<!-- Node5&#45;&gt;Node17 -->
<g id="edge16_Node000005_Node000017" class="edge">
<title>Node5&#45;&gt;Node17</title>
<g id="a_edge16_Node000005_Node000017"><a xlink:title=" ">
<path fill="none" stroke="#63b8ff" d="M1177.99,-57.79C1141.14,-48.62 1087.63,-35.3 1047.89,-25.41"/>
<polygon fill="#63b8ff" stroke="#63b8ff" points="1048.84,-22.04 1038.29,-23.02 1047.15,-28.84 1048.84,-22.04"/>
</a>
</g>
</g>
<!-- Node18 -->
<g id="Node000018" class="node">
<title>Node18</title>
<g id="a_Node000018"><a xlink:title=" ">
<polygon fill="#e0e0e0" stroke="#999999" points="1144.5,-22.25 1062.5,-22.25 1062.5,0 1144.5,0 1144.5,-22.25"/>
<text text-anchor="middle" x="1103.5" y="-6.85" font-family="Arial" font-size="12.00">driver/gpio.h</text>
</a>
</g>
</g>
<!-- Node5&#45;&gt;Node18 -->
<g id="edge17_Node000005_Node000018" class="edge">
<title>Node5&#45;&gt;Node18</title>
<g id="a_edge17_Node000005_Node000018"><a xlink:title=" ">
<path fill="none" stroke="#63b8ff" d="M1198.49,-57.79C1180.76,-49.27 1155.58,-37.17 1135.6,-27.56"/>
<polygon fill="#63b8ff" stroke="#63b8ff" points="1137.3,-24.49 1126.77,-23.31 1134.27,-30.8 1137.3,-24.49"/>
</a>
</g>
</g>
<!-- Node19 -->
<g id="Node000019" class="node">
<title>Node19</title>
<g id="a_Node000019"><a xlink:title=" ">
<polygon fill="#e0e0e0" stroke="#999999" points="1278.75,-22.25 1162.25,-22.25 1162.25,0 1278.75,0 1278.75,-22.25"/>
<text text-anchor="middle" x="1220.5" y="-6.85" font-family="Arial" font-size="12.00">driver/i2c_master.h</text>
</a>
</g>
</g>
<!-- Node5&#45;&gt;Node19 -->
<g id="edge18_Node000005_Node000019" class="edge">
<title>Node5&#45;&gt;Node19</title>
<g id="a_edge18_Node000005_Node000019"><a xlink:title=" ">
<path fill="none" stroke="#63b8ff" d="M1220.5,-57.79C1220.5,-51.12 1220.5,-42.24 1220.5,-34.09"/>
<polygon fill="#63b8ff" stroke="#63b8ff" points="1224,-34.17 1220.5,-24.17 1217,-34.17 1224,-34.17"/>
</a>
</g>
</g>
<!-- Node20 -->
<g id="Node000020" class="node">
<title>Node20</title>
<g id="a_Node000020"><a xlink:title=" ">
<polygon fill="#e0e0e0" stroke="#999999" points="1377.75,-22.25 1297.25,-22.25 1297.25,0 1377.75,0 1377.75,-22.25"/>
<text text-anchor="middle" x="1337.5" y="-6.85" font-family="Arial" font-size="12.00">driver/twai.h</text>
</a>
</g>
</g>
<!-- Node5&#45;&gt;Node20 -->
<g id="edge19_Node000005_Node000020" class="edge">
<title>Node5&#45;&gt;Node20</title>
<g id="a_edge19_Node000005_Node000020"><a xlink:title=" ">
<path fill="none" stroke="#63b8ff" d="M1242.51,-57.79C1260.24,-49.27 1285.42,-37.17 1305.4,-27.56"/>
<polygon fill="#63b8ff" stroke="#63b8ff" points="1306.73,-30.8 1314.23,-23.31 1303.7,-24.49 1306.73,-30.8"/>
</a>
</g>
</g>
<!-- Node21 -->
<g id="Node000021" class="node">
<title>Node21</title>
<g id="a_Node000021"><a xlink:title=" ">
<polygon fill="#e0e0e0" stroke="#999999" points="1477.12,-22.25 1395.88,-22.25 1395.88,0 1477.12,0 1477.12,-22.25"/>
<text text-anchor="middle" x="1436.5" y="-6.85" font-family="Arial" font-size="12.00">driver/ledc.h</text>
</a>
</g>
</g>
<!-- Node5&#45;&gt;Node21 -->
<g id="edge20_Node000005_Node000021" class="edge">
<title>Node5&#45;&gt;Node21</title>
<g id="a_edge20_Node000005_Node000021"><a xlink:title=" ">
<path fill="none" stroke="#63b8ff" d="M1261.13,-57.79C1296.28,-48.64 1347.27,-35.36 1385.22,-25.48"/>
<polygon fill="#63b8ff" stroke="#63b8ff" points="1385.79,-28.95 1394.59,-23.04 1384.03,-22.17 1385.79,-28.95"/>
</a>
</g>
</g>
<!-- Node22 -->
<g id="Node000022" class="node">
<title>Node22</title>
<g id="a_Node000022"><a xlink:title=" ">
<polygon fill="#e0e0e0" stroke="#999999" points="1584.25,-22.25 1494.75,-22.25 1494.75,0 1584.25,0 1584.25,-22.25"/>
<text text-anchor="middle" x="1539.5" y="-6.85" font-family="Arial" font-size="12.00">esp_system.h</text>
</a>
</g>
</g>
<!-- Node5&#45;&gt;Node22 -->
<g id="edge21_Node000005_Node000022" class="edge">
<title>Node5&#45;&gt;Node22</title>
<g id="a_edge21_Node000005_Node000022"><a xlink:title=" ">
<path fill="none" stroke="#63b8ff" d="M1270.55,-59.96C1321.65,-51.31 1403.57,-37.28 1483.19,-22.83"/>
<polygon fill="#63b8ff" stroke="#63b8ff" points="1483.7,-26.3 1492.91,-21.07 1482.45,-19.41 1483.7,-26.3"/>
</a>
</g>
</g>
<!-- Node23 -->
<g id="Node000023" class="node">
<title>Node23</title>
<g id="a_Node000023"><a xlink:title=" ">
<polygon fill="#e0e0e0" stroke="#999999" points="1669,-22.25 1602,-22.25 1602,0 1669,0 1669,-22.25"/>
<text text-anchor="middle" x="1635.5" y="-6.85" font-family="Arial" font-size="12.00">espnow.h</text>
</a>
</g>
</g>
<!-- Node5&#45;&gt;Node23 -->
<g id="edge22_Node000005_Node000023" class="edge">
<title>Node5&#45;&gt;Node23</title>
<g id="a_edge22_Node000005_Node000023"><a xlink:title=" ">
<path fill="none" stroke="#63b8ff" d="M1270.55,-64.01C1340.22,-57.53 1470.55,-43.96 1590.45,-22.65"/>
<polygon fill="#63b8ff" stroke="#63b8ff" points="1590.93,-26.12 1600.15,-20.9 1589.69,-19.23 1590.93,-26.12"/>
</a>
</g>
</g>
<!-- Node24 -->
<g id="Node000024" class="node">
<title>Node24</title>
<g id="a_Node000024"><a xlink:title=" ">
<polygon fill="#e0e0e0" stroke="#999999" points="1768.12,-22.25 1686.88,-22.25 1686.88,0 1768.12,0 1768.12,-22.25"/>
<text text-anchor="middle" x="1727.5" y="-6.85" font-family="Arial" font-size="12.00">esp_event.h</text>
</a>
</g>
</g>
<!-- Node5&#45;&gt;Node24 -->
<g id="edge23_Node000005_Node000024" class="edge">
<title>Node5&#45;&gt;Node24</title>
<g id="a_edge23_Node000005_Node000024"><a xlink:title=" ">
<path fill="none" stroke="#63b8ff" d="M1270.53,-65.04C1352.98,-59.17 1522.78,-45.52 1675.42,-22.61"/>
<polygon fill="#63b8ff" stroke="#63b8ff" points="1675.53,-26.13 1684.89,-21.17 1674.47,-19.21 1675.53,-26.13"/>
</a>
</g>
</g>
<!-- Node25 -->
<g id="Node000025" class="node">
<title>Node25</title>
<g id="a_Node000025"><a xlink:title=" ">
<polygon fill="#e0e0e0" stroke="#999999" points="1862.88,-22.25 1786.12,-22.25 1786.12,0 1862.88,0 1862.88,-22.25"/>
<text text-anchor="middle" x="1824.5" y="-6.85" font-family="Arial" font-size="12.00">nvs_flash.h</text>
</a>
</g>
</g>
<!-- Node5&#45;&gt;Node25 -->
<g id="edge24_Node000005_Node000025" class="edge">
<title>Node5&#45;&gt;Node25</title>
<g id="a_edge24_Node000005_Node000025"><a xlink:title=" ">
<path fill="none" stroke="#63b8ff" d="M1270.3,-66.42C1366.15,-62.18 1583.07,-50.32 1774.71,-22.51"/>
<polygon fill="#63b8ff" stroke="#63b8ff" points="1774.96,-26.01 1784.35,-21.09 1773.94,-19.08 1774.96,-26.01"/>
</a>
</g>
</g>
<!-- Node26 -->
<g id="Node000026" class="node">
<title>Node26</title>
<g id="a_Node000026"><a xlink:title=" ">
<polygon fill="#e0e0e0" stroke="#999999" points="1971.62,-22.25 1881.38,-22.25 1881.38,0 1971.62,0 1971.62,-22.25"/>
<text text-anchor="middle" x="1926.5" y="-6.85" font-family="Arial" font-size="12.00">espnow_ctrl.h</text>
</a>
</g>
</g>
<!-- Node5&#45;&gt;Node26 -->
<g id="edge25_Node000005_Node000026" class="edge">
<title>Node5&#45;&gt;Node26</title>
<g id="a_edge25_Node000005_Node000026"><a xlink:title=" ">
<path fill="none" stroke="#63b8ff" d="M1270.51,-66.73C1378.11,-62.78 1639.77,-50.99 1869.67,-22.34"/>
<polygon fill="#63b8ff" stroke="#63b8ff" points="1869.96,-25.83 1879.44,-21.1 1869.08,-18.88 1869.96,-25.83"/>
</a>
</g>
</g>
<!-- Node27 -->
<g id="Node000027" class="node">
<title>Node27</title>
<g id="a_Node000027"><a xlink:title=" ">
<polygon fill="#e0e0e0" stroke="#999999" points="2085.62,-22.25 1989.38,-22.25 1989.38,0 2085.62,0 2085.62,-22.25"/>
<text text-anchor="middle" x="2037.5" y="-6.85" font-family="Arial" font-size="12.00">espnow_utils.h</text>
</a>
</g>
</g>
<!-- Node5&#45;&gt;Node27 -->
<g id="edge26_Node000005_Node000027" class="edge">
<title>Node5&#45;&gt;Node27</title>
<g id="a_edge26_Node000005_Node000027"><a xlink:title=" ">
<path fill="none" stroke="#63b8ff" d="M1270.47,-67.33C1390.61,-64.4 1705.27,-54.18 1977.74,-22.46"/>
<polygon fill="#63b8ff" stroke="#63b8ff" points="1978.02,-25.95 1987.54,-21.3 1977.2,-18.99 1978.02,-25.95"/>
</a>
</g>
</g>
<!-- Node28 -->
<g id="Node000028" class="node">
<title>Node28</title>
<g id="a_Node000028"><a xlink:title=" ">
<polygon fill="#e0e0e0" stroke="#999999" points="2181.25,-22.25 2103.75,-22.25 2103.75,0 2181.25,0 2181.25,-22.25"/>
<text text-anchor="middle" x="2142.5" y="-6.85" font-family="Arial" font-size="12.00">esp_timer.h</text>
</a>
</g>
</g>
<!-- Node5&#45;&gt;Node28 -->
<g id="edge27_Node000005_Node000028" class="edge">
<title>Node5&#45;&gt;Node28</title>
<g id="a_edge27_Node000005_Node000028"><a xlink:title=" ">
<path fill="none" stroke="#63b8ff" d="M1270.51,-68.44C1403.02,-68.05 1774.18,-63.19 2092.01,-22.38"/>
<polygon fill="#63b8ff" stroke="#63b8ff" points="2092.33,-25.87 2101.79,-21.11 2091.42,-18.93 2092.33,-25.87"/>
</a>
</g>
</g>
<!-- Node29 -->
<g id="Node000029" class="node">
<title>Node29</title>
<g id="a_Node000029"><a xlink:title=" ">
<polygon fill="#e0e0e0" stroke="#999999" points="2271.25,-22.25 2199.75,-22.25 2199.75,0 2271.25,0 2271.25,-22.25"/>
<text text-anchor="middle" x="2235.5" y="-6.85" font-family="Arial" font-size="12.00">led_strip.h</text>
</a>
</g>
</g>
<!-- Node5&#45;&gt;Node29 -->
<g id="edge28_Node000005_Node000029" class="edge">
<title>Node5&#45;&gt;Node29</title>
<g id="a_edge28_Node000005_Node000029"><a xlink:title=" ">
<path fill="none" stroke="#63b8ff" d="M1270.5,-69.05C1412.73,-70.32 1831.77,-69.57 2188.41,-22.28"/>
<polygon fill="#63b8ff" stroke="#63b8ff" points="2188.79,-25.76 2198.24,-20.96 2187.86,-18.82 2188.79,-25.76"/>
</a>
</g>
</g>
<!-- Node30&#45;&gt;Node5 -->
<g id="edge30_Node000030_Node000005" class="edge">
<title>Node30&#45;&gt;Node5</title>
<g id="a_edge30_Node000030_Node000005"><a xlink:title=" ">
<path fill="none" stroke="#63b8ff" d="M1220.5,-116.04C1220.5,-109.37 1220.5,-100.49 1220.5,-92.34"/>
<polygon fill="#63b8ff" stroke="#63b8ff" points="1224,-92.42 1220.5,-82.42 1217,-92.42 1224,-92.42"/>
</a>
</g>
</g>
<!-- Node31&#45;&gt;Node5 -->
<g id="edge34_Node000031_Node000005" class="edge">
<title>Node31&#45;&gt;Node5</title>
<g id="a_edge34_Node000031_Node000005"><a xlink:title=" ">
<path fill="none" stroke="#63b8ff" d="M1364.48,-174.28C1349.65,-160.28 1322.16,-135.19 1296.5,-116.5 1281.64,-105.68 1264.16,-94.94 1249.71,-86.56"/>
<polygon fill="#63b8ff" stroke="#63b8ff" points="1251.54,-83.57 1241.12,-81.65 1248.07,-89.65 1251.54,-83.57"/>
</a>
</g>
</g>
</g>
</svg>

<g id="navigator" transform="translate(0 0)" fill="#404254">
  <rect fill="#f2f5e9" fill-opacity="0.5" stroke="#606060" stroke-width=".5" x="0" y="0" width="60" height="60"/>
  <use id="zoomplus" xlink:href="#zoomPlus" x="17" y="9" onmousedown="handleZoom(evt,'in')"/>
  <use id="zoomminus" xlink:href="#zoomMin" x="42" y="9" onmousedown="handleZoom(evt,'out')"/>
  <use id="reset" xlink:href="#resetDef" x="30" y="36" onmousedown="handleReset()"/>
   <use id="arrowup" xlink:href="#arrowUp" x="0" y="0" onmousedown="handlePan(0,-1)"/>
  <use id="arrowright" xlink:href="#arrowRight" x="0" y="0" onmousedown="handlePan(1,0)"/>
  <use id="arrowdown" xlink:href="#arrowDown" x="0" y="0" onmousedown="handlePan(0,1)"/>
  <use id="arrowleft" xlink:href="#arrowLeft" x="0" y="0" onmousedown="handlePan(-1,0)"/>
</g>
<svg viewBox="0 0 15 15" width="100%" height="30px" preserveAspectRatio="xMaxYMin meet">
 <g id="arrow_out" transform="scale(0.3 0.3)">
  <a xlink:href="menus_8cpp__incl_org.svg" target="_base">
   <rect id="button" ry="5" rx="5" y="6" x="6" height="38" width="38"
        fill="#f2f5e9" fill-opacity="0.5" stroke="#606060" stroke-width="1.0"/>
   <path id="arrow"
     d="M 11.500037,31.436501 C 11.940474,20.09759 22.043105,11.32322 32.158766,21.979434 L 37.068811,17.246167 C 37.068811,17.246167 37.088388,32 37.088388,32 L 22.160133,31.978069 C 22.160133,31.978069 26.997745,27.140456 26.997745,27.140456 C 18.528582,18.264221 13.291696,25.230495 11.500037,31.436501 z"
     style="fill:#404040;"/>
  </a>
 </g>
</svg>

<style type='text/css'>
<![CDATA[
[data-mouse-over-selected='false'] { opacity: 0.7; }
[data-mouse-over-selected='true']  { opacity: 1.0; }
]]>
</style>
<script type="application/ecmascript"><![CDATA[
document.addEventListener('DOMContentLoaded', (event) => {
  highlightEdges();
  highlightAdjacentNodes();
});
]]></script>
</svg>
