<?xml version="1.0" encoding="UTF-8" standalone="no"?>
<!DOCTYPE svg PUBLIC "-//W3C//DTD SVG 1.1//EN"
 "http://www.w3.org/Graphics/SVG/1.1/DTD/svg11.dtd">
<!-- Generated by graphviz version 12.2.1 (20241206.2353)
 -->
<!-- Title: include/drivers/oDrive.h Pages: 1 -->
<svg width="553pt" height="205pt"
 viewBox="0.00 0.00 553.00 205.00" xmlns="http://www.w3.org/2000/svg" xmlns:xlink="http://www.w3.org/1999/xlink">
<g id="graph0" class="graph" transform="scale(1 1) rotate(0) translate(4 201)">
<title>include/drivers/oDrive.h</title>
<!-- Node1 -->
<g id="Node000001" class="node">
<title>Node1</title>
<g id="a_Node000001"><a xlink:title="This is the header for the oDrive class.">
<polygon fill="#999999" stroke="#666666" points="345,-197 203,-197 203,-174.75 345,-174.75 345,-197"/>
<text text-anchor="middle" x="274" y="-181.6" font-family="Arial" font-size="12.00">include/drivers/oDrive.h</text>
</a>
</g>
</g>
<!-- Node2 -->
<g id="Node000002" class="node">
<title>Node2</title>
<g id="a_Node000002"><a xlink:href="kicker__drive__train_8h.html" target="_top" xlink:title="Header for the kicker drive_train class.">
<polygon fill="white" stroke="#666666" points="384.75,-138.75 163.25,-138.75 163.25,-116.5 384.75,-116.5 384.75,-138.75"/>
<text text-anchor="middle" x="274" y="-123.35" font-family="Arial" font-size="12.00">include/supporting/kicker_drive_train.h</text>
</a>
</g>
</g>
<!-- Node1&#45;&gt;Node2 -->
<g id="edge1_Node000001_Node000002" class="edge">
<title>Node1&#45;&gt;Node2</title>
<g id="a_edge1_Node000001_Node000002"><a xlink:title=" ">
<path fill="none" stroke="#63b8ff" d="M274,-162.85C274,-154.7 274,-145.83 274,-139.16"/>
<polygon fill="#63b8ff" stroke="#63b8ff" points="270.5,-162.78 274,-172.78 277.5,-162.78 270.5,-162.78"/>
</a>
</g>
</g>
<!-- Node3 -->
<g id="Node000003" class="node">
<title>Node3</title>
<g id="a_Node000003"><a xlink:href="kicker__drive__train__task_8h.html" target="_top" xlink:title="Contains the externs and defines for the kicker drive train task.">
<polygon fill="white" stroke="#666666" points="245.75,-80.5 24.25,-80.5 24.25,-58.25 245.75,-58.25 245.75,-80.5"/>
<text text-anchor="middle" x="135" y="-65.1" font-family="Arial" font-size="12.00">include/tasks/kicker_drive_train_task.h</text>
</a>
</g>
</g>
<!-- Node1&#45;&gt;Node3 -->
<g id="edge6_Node000001_Node000003" class="edge">
<title>Node1&#45;&gt;Node3</title>
<g id="a_edge6_Node000001_Node000003"><a xlink:title=" ">
<path fill="none" stroke="#63b8ff" d="M205.54,-170.76C186.64,-163.89 167.61,-153.73 154,-138.75 139.09,-122.33 135.75,-95.2 135.09,-80.54"/>
<polygon fill="#63b8ff" stroke="#63b8ff" points="204.27,-174.03 214.87,-173.86 206.48,-167.38 204.27,-174.03"/>
</a>
</g>
</g>
<!-- Node7 -->
<g id="Node000007" class="node">
<title>Node7</title>
<g id="a_Node000007"><a xlink:href="o_drive_8cpp.html" target="_top" xlink:title=" ">
<polygon fill="white" stroke="#666666" points="545,-138.75 403,-138.75 403,-116.5 545,-116.5 545,-138.75"/>
<text text-anchor="middle" x="474" y="-123.35" font-family="Arial" font-size="12.00">main/drivers/oDrive.cpp</text>
</a>
</g>
</g>
<!-- Node1&#45;&gt;Node7 -->
<g id="edge7_Node000001_Node000007" class="edge">
<title>Node1&#45;&gt;Node7</title>
<g id="a_edge7_Node000001_Node000007"><a xlink:title=" ">
<path fill="none" stroke="#63b8ff" d="M322.57,-171.22C357.65,-161.35 404.34,-148.22 436.55,-139.16"/>
<polygon fill="#63b8ff" stroke="#63b8ff" points="321.75,-167.81 313.08,-173.89 323.65,-174.55 321.75,-167.81"/>
</a>
</g>
</g>
<!-- Node2&#45;&gt;Node3 -->
<g id="edge2_Node000002_Node000003" class="edge">
<title>Node2&#45;&gt;Node3</title>
<g id="a_edge2_Node000002_Node000003"><a xlink:title=" ">
<path fill="none" stroke="#63b8ff" d="M237.36,-111.8C213.35,-102.08 182.54,-89.62 161.03,-80.91"/>
<polygon fill="#63b8ff" stroke="#63b8ff" points="235.87,-114.97 246.45,-115.48 238.5,-108.48 235.87,-114.97"/>
</a>
</g>
</g>
<!-- Node6 -->
<g id="Node000006" class="node">
<title>Node6</title>
<g id="a_Node000006"><a xlink:href="kicker__drive__train_8cpp.html" target="_top" xlink:title="source file for the class that handles the drive train">
<polygon fill="white" stroke="#666666" points="485.75,-80.5 264.25,-80.5 264.25,-58.25 485.75,-58.25 485.75,-80.5"/>
<text text-anchor="middle" x="375" y="-65.1" font-family="Arial" font-size="12.00">main/supporting/kicker_drive_train.cpp</text>
</a>
</g>
</g>
<!-- Node2&#45;&gt;Node6 -->
<g id="edge5_Node000002_Node000006" class="edge">
<title>Node2&#45;&gt;Node6</title>
<g id="a_edge5_Node000002_Node000006"><a xlink:title=" ">
<path fill="none" stroke="#63b8ff" d="M303.01,-110.47C320.07,-100.97 341.16,-89.22 356.09,-80.91"/>
<polygon fill="#63b8ff" stroke="#63b8ff" points="301.35,-107.38 294.32,-115.31 304.76,-113.5 301.35,-107.38"/>
</a>
</g>
</g>
<!-- Node4 -->
<g id="Node000004" class="node">
<title>Node4</title>
<g id="a_Node000004"><a xlink:href="main_8cpp.html" target="_top" xlink:title="This is the file that contains the main function and all other tasks for the robot.">
<polygon fill="white" stroke="#666666" points="94,-22.25 0,-22.25 0,0 94,0 94,-22.25"/>
<text text-anchor="middle" x="47" y="-6.85" font-family="Arial" font-size="12.00">main/main.cpp</text>
</a>
</g>
</g>
<!-- Node3&#45;&gt;Node4 -->
<g id="edge3_Node000003_Node000004" class="edge">
<title>Node3&#45;&gt;Node4</title>
<g id="a_edge3_Node000003_Node000004"><a xlink:title=" ">
<path fill="none" stroke="#63b8ff" d="M108.88,-51.68C94.17,-42.27 76.24,-30.82 63.48,-22.66"/>
<polygon fill="#63b8ff" stroke="#63b8ff" points="106.86,-54.54 117.17,-56.98 110.63,-48.64 106.86,-54.54"/>
</a>
</g>
</g>
<!-- Node5 -->
<g id="Node000005" class="node">
<title>Node5</title>
<g id="a_Node000005"><a xlink:href="kicker__drive__train__task_8cpp.html" target="_top" xlink:title=" ">
<polygon fill="white" stroke="#666666" points="333.75,-22.25 112.25,-22.25 112.25,0 333.75,0 333.75,-22.25"/>
<text text-anchor="middle" x="223" y="-6.85" font-family="Arial" font-size="12.00">main/tasks/kicker_drive_train_task.cpp</text>
</a>
</g>
</g>
<!-- Node3&#45;&gt;Node5 -->
<g id="edge4_Node000003_Node000005" class="edge">
<title>Node3&#45;&gt;Node5</title>
<g id="a_edge4_Node000003_Node000005"><a xlink:title=" ">
<path fill="none" stroke="#63b8ff" d="M161.12,-51.68C175.83,-42.27 193.76,-30.82 206.52,-22.66"/>
<polygon fill="#63b8ff" stroke="#63b8ff" points="159.37,-48.64 152.83,-56.98 163.14,-54.54 159.37,-48.64"/>
</a>
</g>
</g>
</g>
</svg>
