<?xml version="1.0" encoding="UTF-8" standalone="no"?>
<!DOCTYPE svg PUBLIC "-//W3C//DTD SVG 1.1//EN"
 "http://www.w3.org/Graphics/SVG/1.1/DTD/svg11.dtd">
<!-- Generated by graphviz version 12.2.1 (20241206.2353)
 -->
<!-- Title: include/supporting/odrive_commands.h Pages: 1 -->
<svg width="558pt" height="263pt"
 viewBox="0.00 0.00 557.50 263.25" xmlns="http://www.w3.org/2000/svg" xmlns:xlink="http://www.w3.org/1999/xlink">
<g id="graph0" class="graph" transform="scale(1 1) rotate(0) translate(4 259.25)">
<title>include/supporting/odrive_commands.h</title>
<!-- Node1 -->
<g id="Node000001" class="node">
<title>Node1</title>
<g id="a_Node000001"><a xlink:title=" ">
<polygon fill="#999999" stroke="#666666" points="393.38,-255.25 168.12,-255.25 168.12,-233 393.38,-233 393.38,-255.25"/>
<text text-anchor="middle" x="280.75" y="-239.85" font-family="Arial" font-size="12.00">include/supporting/odrive_commands.h</text>
</a>
</g>
</g>
<!-- Node2 -->
<g id="Node000002" class="node">
<title>Node2</title>
<g id="a_Node000002"><a xlink:href="o_drive_8h.html" target="_top" xlink:title="This is the header for the oDrive class.">
<polygon fill="white" stroke="#666666" points="411.75,-197 269.75,-197 269.75,-174.75 411.75,-174.75 411.75,-197"/>
<text text-anchor="middle" x="340.75" y="-181.6" font-family="Arial" font-size="12.00">include/drivers/oDrive.h</text>
</a>
</g>
</g>
<!-- Node1&#45;&gt;Node2 -->
<g id="edge1_Node000001_Node000002" class="edge">
<title>Node1&#45;&gt;Node2</title>
<g id="a_edge1_Node000001_Node000002"><a xlink:title=" ">
<path fill="none" stroke="#63b8ff" d="M300.32,-224.78C309.99,-215.71 321.31,-205.1 329.52,-197.41"/>
<polygon fill="#63b8ff" stroke="#63b8ff" points="298.04,-222.12 293.14,-231.51 302.83,-227.22 298.04,-222.12"/>
</a>
</g>
</g>
<!-- Node3 -->
<g id="Node000003" class="node">
<title>Node3</title>
<g id="a_Node000003"><a xlink:href="kicker__drive__train_8h.html" target="_top" xlink:title="Header for the kicker drive_train class.">
<polygon fill="white" stroke="#666666" points="322.5,-138.75 101,-138.75 101,-116.5 322.5,-116.5 322.5,-138.75"/>
<text text-anchor="middle" x="211.75" y="-123.35" font-family="Arial" font-size="12.00">include/supporting/kicker_drive_train.h</text>
</a>
</g>
</g>
<!-- Node1&#45;&gt;Node3 -->
<g id="edge9_Node000001_Node000003" class="edge">
<title>Node1&#45;&gt;Node3</title>
<g id="a_edge9_Node000001_Node000003"><a xlink:title=" ">
<path fill="none" stroke="#63b8ff" d="M268.53,-222.85C253.78,-198.37 229.54,-158.15 218.1,-139.17"/>
<polygon fill="#63b8ff" stroke="#63b8ff" points="265.44,-224.5 273.6,-231.26 271.44,-220.89 265.44,-224.5"/>
</a>
</g>
</g>
<!-- Node2&#45;&gt;Node3 -->
<g id="edge2_Node000002_Node000003" class="edge">
<title>Node2&#45;&gt;Node3</title>
<g id="a_edge2_Node000002_Node000003"><a xlink:title=" ">
<path fill="none" stroke="#63b8ff" d="M306.14,-169.78C283.95,-160.11 255.69,-147.79 235.91,-139.16"/>
<polygon fill="#63b8ff" stroke="#63b8ff" points="304.53,-172.9 315.1,-173.69 307.33,-166.48 304.53,-172.9"/>
</a>
</g>
</g>
<!-- Node4 -->
<g id="Node000004" class="node">
<title>Node4</title>
<g id="a_Node000004"><a xlink:href="kicker__drive__train__task_8h.html" target="_top" xlink:title="Contains the externs and defines for the kicker drive train task.">
<polygon fill="white" stroke="#666666" points="461.5,-80.5 240,-80.5 240,-58.25 461.5,-58.25 461.5,-80.5"/>
<text text-anchor="middle" x="350.75" y="-65.1" font-family="Arial" font-size="12.00">include/tasks/kicker_drive_train_task.h</text>
</a>
</g>
</g>
<!-- Node2&#45;&gt;Node4 -->
<g id="edge7_Node000002_Node000004" class="edge">
<title>Node2&#45;&gt;Node4</title>
<g id="a_edge7_Node000002_Node000004"><a xlink:title=" ">
<path fill="none" stroke="#63b8ff" d="M342.67,-162.93C344.81,-138.33 348.21,-99.47 349.83,-80.92"/>
<polygon fill="#63b8ff" stroke="#63b8ff" points="339.19,-162.53 341.8,-172.8 346.16,-163.14 339.19,-162.53"/>
</a>
</g>
</g>
<!-- Node8 -->
<g id="Node000008" class="node">
<title>Node8</title>
<g id="a_Node000008"><a xlink:href="o_drive_8cpp.html" target="_top" xlink:title=" ">
<polygon fill="white" stroke="#666666" points="520.75,-138.75 378.75,-138.75 378.75,-116.5 520.75,-116.5 520.75,-138.75"/>
<text text-anchor="middle" x="449.75" y="-123.35" font-family="Arial" font-size="12.00">main/drivers/oDrive.cpp</text>
</a>
</g>
</g>
<!-- Node2&#45;&gt;Node8 -->
<g id="edge8_Node000002_Node000008" class="edge">
<title>Node2&#45;&gt;Node8</title>
<g id="a_edge8_Node000002_Node000008"><a xlink:title=" ">
<path fill="none" stroke="#63b8ff" d="M371.28,-169.12C389.83,-159.55 413,-147.59 429.34,-139.16"/>
<polygon fill="#63b8ff" stroke="#63b8ff" points="369.88,-165.9 362.6,-173.6 373.09,-172.13 369.88,-165.9"/>
</a>
</g>
</g>
<!-- Node3&#45;&gt;Node4 -->
<g id="edge3_Node000003_Node000004" class="edge">
<title>Node3&#45;&gt;Node4</title>
<g id="a_edge3_Node000003_Node000004"><a xlink:title=" ">
<path fill="none" stroke="#63b8ff" d="M248.39,-111.8C272.4,-102.08 303.21,-89.62 324.72,-80.91"/>
<polygon fill="#63b8ff" stroke="#63b8ff" points="247.25,-108.48 239.3,-115.48 249.88,-114.97 247.25,-108.48"/>
</a>
</g>
</g>
<!-- Node7 -->
<g id="Node000007" class="node">
<title>Node7</title>
<g id="a_Node000007"><a xlink:href="kicker__drive__train_8cpp.html" target="_top" xlink:title="source file for the class that handles the drive train">
<polygon fill="white" stroke="#666666" points="221.5,-80.5 0,-80.5 0,-58.25 221.5,-58.25 221.5,-80.5"/>
<text text-anchor="middle" x="110.75" y="-65.1" font-family="Arial" font-size="12.00">main/supporting/kicker_drive_train.cpp</text>
</a>
</g>
</g>
<!-- Node3&#45;&gt;Node7 -->
<g id="edge6_Node000003_Node000007" class="edge">
<title>Node3&#45;&gt;Node7</title>
<g id="a_edge6_Node000003_Node000007"><a xlink:title=" ">
<path fill="none" stroke="#63b8ff" d="M182.74,-110.47C165.68,-100.97 144.59,-89.22 129.66,-80.91"/>
<polygon fill="#63b8ff" stroke="#63b8ff" points="180.99,-113.5 191.43,-115.31 184.4,-107.38 180.99,-113.5"/>
</a>
</g>
</g>
<!-- Node5 -->
<g id="Node000005" class="node">
<title>Node5</title>
<g id="a_Node000005"><a xlink:href="main_8cpp.html" target="_top" xlink:title="This is the file that contains the main function and all other tasks for the robot.">
<polygon fill="white" stroke="#666666" points="309.75,-22.25 215.75,-22.25 215.75,0 309.75,0 309.75,-22.25"/>
<text text-anchor="middle" x="262.75" y="-6.85" font-family="Arial" font-size="12.00">main/main.cpp</text>
</a>
</g>
</g>
<!-- Node4&#45;&gt;Node5 -->
<g id="edge4_Node000004_Node000005" class="edge">
<title>Node4&#45;&gt;Node5</title>
<g id="a_edge4_Node000004_Node000005"><a xlink:title=" ">
<path fill="none" stroke="#63b8ff" d="M324.63,-51.68C309.92,-42.27 291.99,-30.82 279.23,-22.66"/>
<polygon fill="#63b8ff" stroke="#63b8ff" points="322.61,-54.54 332.92,-56.98 326.38,-48.64 322.61,-54.54"/>
</a>
</g>
</g>
<!-- Node6 -->
<g id="Node000006" class="node">
<title>Node6</title>
<g id="a_Node000006"><a xlink:href="kicker__drive__train__task_8cpp.html" target="_top" xlink:title=" ">
<polygon fill="white" stroke="#666666" points="549.5,-22.25 328,-22.25 328,0 549.5,0 549.5,-22.25"/>
<text text-anchor="middle" x="438.75" y="-6.85" font-family="Arial" font-size="12.00">main/tasks/kicker_drive_train_task.cpp</text>
</a>
</g>
</g>
<!-- Node4&#45;&gt;Node6 -->
<g id="edge5_Node000004_Node000006" class="edge">
<title>Node4&#45;&gt;Node6</title>
<g id="a_edge5_Node000004_Node000006"><a xlink:title=" ">
<path fill="none" stroke="#63b8ff" d="M376.87,-51.68C391.58,-42.27 409.51,-30.82 422.27,-22.66"/>
<polygon fill="#63b8ff" stroke="#63b8ff" points="375.12,-48.64 368.58,-56.98 378.89,-54.54 375.12,-48.64"/>
</a>
</g>
</g>
</g>
</svg>
