<?xml version="1.0" encoding="UTF-8" standalone="no"?>
<!DOCTYPE svg PUBLIC "-//W3C//DTD SVG 1.1//EN"
 "http://www.w3.org/Graphics/SVG/1.1/DTD/svg11.dtd">
<!-- Generated by graphviz version 12.2.1 (20241206.2353)
 -->
<!-- Title: include/pinout.h Pages: 1 -->
<!--zoomable 322 -->

<svg id="main" version="1.1" xmlns="http://www.w3.org/2000/svg" xmlns:xlink="http://www.w3.org/1999/xlink" xml:space="preserve" onload="init(evt)">

<style type="text/css"><![CDATA[
.node, .edge {opacity: 0.7;}
.node.selected, .edge.selected {opacity: 1;}
.edge:hover path { stroke: red; }
.edge:hover polygon { stroke: red; fill: red; }
]]></style>

<defs>
  <circle id="rim" cx="0" cy="0" r="7"/>
  <circle id="rim2" cx="0" cy="0" r="3.5"/>
  <g id="zoomPlus">
    <use xlink:href="#rim" fill="#404040"><set attributeName="fill" to="#808080" begin="zoomplus.mouseover" end="zoomplus.mouseout"/></use>
    <path d="M-4,0h8M0,-4v8" fill="none" stroke="white" stroke-width="1.5" pointer-events="none"/>
  </g>
  <g id="zoomMin">
    <use xlink:href="#rim" fill="#404040"><set attributeName="fill" to="#808080" begin="zoomminus.mouseover" end="zoomminus.mouseout"/></use>
    <path d="M-4,0h8" fill="none" stroke="white" stroke-width="1.5" pointer-events="none"/>
  </g>
  <g id="arrowUp" transform="translate(30 24)">
    <use xlink:href="#rim"/>
    <path pointer-events="none" fill="none" stroke="white" stroke-width="1.5" d="M0,-3.0v7 M-2.5,-0.5L0,-3.0L2.5,-0.5"/>
  </g>
  <g id="arrowRight" transform="rotate(90) translate(36 -43)">
    <use xlink:href="#rim"/>
    <path pointer-events="none" fill="none" stroke="white" stroke-width="1.5" d="M0,-3.0v7 M-2.5,-0.5L0,-3.0L2.5,-0.5"/>
  </g>
  <g id="arrowDown" transform="rotate(180) translate(-30 -48)">
    <use xlink:href="#rim"/>
    <path pointer-events="none" fill="none" stroke="white" stroke-width="1.5" d="M0,-3.0v7 M-2.5,-0.5L0,-3.0L2.5,-0.5"/>
  </g>
  <g id="arrowLeft" transform="rotate(270) translate(-36 17)">
    <use xlink:href="#rim"/>
    <path pointer-events="none" fill="none" stroke="white" stroke-width="1.5" d="M0,-3.0v7 M-2.5,-0.5L0,-3.0L2.5,-0.5"/>
  </g>
  <g id="resetDef">
    <use xlink:href="#rim2" fill="#404040"><set attributeName="fill" to="#808080" begin="reset.mouseover" end="reset.mouseout"/></use>
  </g>
</defs>
<script type="application/ecmascript">
var viewWidth = 2349;
var viewHeight = 322;
var sectionId = 'dynsection-1';
</script>
<script type="application/ecmascript" xlink:href="svg.min.js"/>
<svg id="graph" class="graph">
<g id="viewport">
<title>include/pinout.h</title>
<!-- Node1 -->
<g id="Node000001" class="node">
<title>Node1</title>
<g id="a_Node000001"><a xlink:title="This is the file that contains the pinout and other configuration information.">
<polygon fill="#999999" stroke="#666666" points="1028.38,-313.5 927.62,-313.5 927.62,-291.25 1028.38,-291.25 1028.38,-313.5"/>
<text text-anchor="middle" x="978" y="-298.1" font-family="Arial" font-size="12.00">include/pinout.h</text>
</a>
</g>
</g>
<!-- Node2 -->
<g id="Node000002" class="node">
<title>Node2</title>
<g id="a_Node000002"><a xlink:href="o_drive_8h.html" target="_top" xlink:title="This is the header for the oDrive class.">
<polygon fill="white" stroke="#666666" points="873,-255.25 731,-255.25 731,-233 873,-233 873,-255.25"/>
<text text-anchor="middle" x="802" y="-239.85" font-family="Arial" font-size="12.00">include/drivers/oDrive.h</text>
</a>
</g>
</g>
<!-- Node1&#45;&gt;Node2 -->
<g id="edge1_Node000001_Node000002" class="edge">
<title>Node1&#45;&gt;Node2</title>
<g id="a_edge1_Node000001_Node000002"><a xlink:title=" ">
<path fill="none" stroke="#63b8ff" d="M934.05,-287.33C903.32,-277.51 862.94,-264.6 834.96,-255.66"/>
<polygon fill="#63b8ff" stroke="#63b8ff" points="932.86,-290.62 943.45,-290.33 934.99,-283.96 932.86,-290.62"/>
</a>
</g>
</g>
<!-- Node3 -->
<g id="Node000003" class="node">
<title>Node3</title>
<g id="a_Node000003"><a xlink:href="kicker__drive__train_8h.html" target="_top" xlink:title="Header for the kicker drive_train class.">
<polygon fill="white" stroke="#666666" points="693.75,-197 472.25,-197 472.25,-174.75 693.75,-174.75 693.75,-197"/>
<text text-anchor="middle" x="583" y="-181.6" font-family="Arial" font-size="12.00">include/supporting/kicker_drive_train.h</text>
</a>
</g>
</g>
<!-- Node1&#45;&gt;Node3 -->
<g id="edge32_Node000001_Node000003" class="edge">
<title>Node1&#45;&gt;Node3</title>
<g id="a_edge32_Node000001_Node000003"><a xlink:title=" ">
<path fill="none" stroke="#63b8ff" d="M916.26,-295.14C863.65,-288.68 786.55,-276.48 722,-255.25 676.01,-240.13 625.98,-212.47 600.32,-197.38"/>
<polygon fill="#63b8ff" stroke="#63b8ff" points="915.58,-298.59 925.92,-296.29 916.41,-291.64 915.58,-298.59"/>
</a>
</g>
</g>
<!-- Node4 -->
<g id="Node000004" class="node">
<title>Node4</title>
<g id="a_Node000004"><a xlink:href="kicker__drive__train__task_8h.html" target="_top" xlink:title="Contains the externs and defines for the kicker drive train task.">
<polygon fill="white" stroke="#666666" points="942.75,-138.75 721.25,-138.75 721.25,-116.5 942.75,-116.5 942.75,-138.75"/>
<text text-anchor="middle" x="832" y="-123.35" font-family="Arial" font-size="12.00">include/tasks/kicker_drive_train_task.h</text>
</a>
</g>
</g>
<!-- Node1&#45;&gt;Node4 -->
<g id="edge37_Node000001_Node000004" class="edge">
<title>Node1&#45;&gt;Node4</title>
<g id="a_edge37_Node000001_Node000004"><a xlink:title=" ">
<path fill="none" stroke="#63b8ff" d="M961.53,-282.36C954.49,-274.11 946.24,-264.29 939,-255.25 910.94,-220.21 907.47,-208.61 878,-174.75 866.86,-161.95 852.98,-148.32 843.4,-139.22"/>
<polygon fill="#63b8ff" stroke="#63b8ff" points="958.69,-284.43 967.87,-289.74 964,-279.87 958.69,-284.43"/>
</a>
</g>
</g>
<!-- Node5 -->
<g id="Node000005" class="node">
<title>Node5</title>
<g id="a_Node000005"><a xlink:href="main_8cpp.html" target="_top" xlink:title="This is the file that contains the main function and all other tasks for the robot.">
<polygon fill="white" stroke="#666666" points="1426,-22.25 1332,-22.25 1332,0 1426,0 1426,-22.25"/>
<text text-anchor="middle" x="1379" y="-6.85" font-family="Arial" font-size="12.00">main/main.cpp</text>
</a>
</g>
</g>
<!-- Node1&#45;&gt;Node5 -->
<g id="edge42_Node000001_Node000005" class="edge">
<title>Node1&#45;&gt;Node5</title>
<g id="a_edge42_Node000001_Node000005"><a xlink:title=" ">
<path fill="none" stroke="#63b8ff" d="M1040.16,-300.59C1292.26,-297.21 2227.63,-282.87 2284,-255.25 2319.53,-237.84 2341,-226.44 2341,-186.88 2341,-186.88 2341,-186.88 2341,-126.62 2341,-33.44 1620,-15.78 1426.38,-12.72"/>
<polygon fill="#63b8ff" stroke="#63b8ff" points="1040.15,-297.09 1030.2,-300.72 1040.24,-304.09 1040.15,-297.09"/>
</a>
</g>
</g>
<!-- Node9 -->
<g id="Node000009" class="node">
<title>Node9</title>
<g id="a_Node000009"><a xlink:href="ssd1306_8h.html" target="_top" xlink:title=" ">
<polygon fill="white" stroke="#666666" points="251.25,-197 98.75,-197 98.75,-174.75 251.25,-174.75 251.25,-197"/>
<text text-anchor="middle" x="175" y="-181.6" font-family="Arial" font-size="12.00">include/drivers/ssd1306.h</text>
</a>
</g>
</g>
<!-- Node1&#45;&gt;Node9 -->
<g id="edge9_Node000001_Node000009" class="edge">
<title>Node1&#45;&gt;Node9</title>
<g id="a_edge9_Node000001_Node000009"><a xlink:title=" ">
<path fill="none" stroke="#63b8ff" d="M915.82,-302.11C764.29,-303.13 379.68,-301.01 261,-255.25 228.43,-242.69 198.48,-213.15 184.05,-197.32"/>
<polygon fill="#63b8ff" stroke="#63b8ff" points="915.7,-305.61 925.67,-302.03 915.64,-298.61 915.7,-305.61"/>
</a>
</g>
</g>
<!-- Node11 -->
<g id="Node000011" class="node">
<title>Node11</title>
<g id="a_Node000011"><a xlink:href="display__driver__task_8h.html" target="_top" xlink:title="Contains the externs and defines for the display driver task.">
<polygon fill="white" stroke="#666666" points="202,-80.5 0,-80.5 0,-58.25 202,-58.25 202,-80.5"/>
<text text-anchor="middle" x="101" y="-65.1" font-family="Arial" font-size="12.00">include/tasks/display_driver_task.h</text>
</a>
</g>
</g>
<!-- Node1&#45;&gt;Node11 -->
<g id="edge33_Node000001_Node000011" class="edge">
<title>Node1&#45;&gt;Node11</title>
<g id="a_edge33_Node000001_Node000011"><a xlink:title=" ">
<path fill="none" stroke="#63b8ff" d="M916,-300.44C759.61,-297.61 352.26,-287.32 221,-255.25 159.1,-240.13 124.72,-250.43 90,-197 66.08,-160.18 85.99,-104.09 96.05,-80.94"/>
<polygon fill="#63b8ff" stroke="#63b8ff" points="915.68,-303.93 925.74,-300.61 915.81,-296.93 915.68,-303.93"/>
</a>
</g>
</g>
<!-- Node14 -->
<g id="Node000014" class="node">
<title>Node14</title>
<g id="a_Node000014"><a xlink:href="ssd1306_8cpp.html" target="_top" xlink:title=" ">
<polygon fill="white" stroke="#666666" points="463.25,-138.75 310.75,-138.75 310.75,-116.5 463.25,-116.5 463.25,-138.75"/>
<text text-anchor="middle" x="387" y="-123.35" font-family="Arial" font-size="12.00">main/drivers/ssd1306.cpp</text>
</a>
</g>
</g>
<!-- Node1&#45;&gt;Node14 -->
<g id="edge41_Node000001_Node000014" class="edge">
<title>Node1&#45;&gt;Node14</title>
<g id="a_edge41_Node000001_Node000014"><a xlink:title=" ">
<path fill="none" stroke="#63b8ff" d="M916.19,-300.63C815.17,-296.95 611.15,-278.97 463,-197 435.05,-181.53 408.83,-154.01 395.73,-139.04"/>
<polygon fill="#63b8ff" stroke="#63b8ff" points="915.78,-304.12 925.89,-300.95 916,-297.13 915.78,-304.12"/>
</a>
</g>
</g>
<!-- Node15 -->
<g id="Node000015" class="node">
<title>Node15</title>
<g id="a_Node000015"><a xlink:href="esp__now__callback__setup_8h.html" target="_top" xlink:title="Contains the callback functions for esp&#45;now.">
<polygon fill="white" stroke="#666666" points="1610.88,-255.25 1375.12,-255.25 1375.12,-233 1610.88,-233 1610.88,-255.25"/>
<text text-anchor="middle" x="1493" y="-239.85" font-family="Arial" font-size="12.00">include/setup/esp_now_callback_setup.h</text>
</a>
</g>
</g>
<!-- Node1&#45;&gt;Node15 -->
<g id="edge17_Node000001_Node000015" class="edge">
<title>Node1&#45;&gt;Node15</title>
<g id="a_edge17_Node000001_Node000015"><a xlink:title=" ">
<path fill="none" stroke="#63b8ff" d="M1039.97,-294.61C1128.33,-284.95 1291.39,-267.15 1395.89,-255.73"/>
<polygon fill="#63b8ff" stroke="#63b8ff" points="1039.86,-291.1 1030.29,-295.66 1040.62,-298.06 1039.86,-291.1"/>
</a>
</g>
</g>
<!-- Node16 -->
<g id="Node000016" class="node">
<title>Node16</title>
<g id="a_Node000016"><a xlink:href="esp__now__setup_8h.html" target="_top" xlink:title="Contains the code that sets up the ESP&#45;NOW communication.">
<polygon fill="white" stroke="#666666" points="1572.38,-197 1387.62,-197 1387.62,-174.75 1572.38,-174.75 1572.38,-197"/>
<text text-anchor="middle" x="1480" y="-181.6" font-family="Arial" font-size="12.00">include/setup/esp_now_setup.h</text>
</a>
</g>
</g>
<!-- Node1&#45;&gt;Node16 -->
<g id="edge22_Node000001_Node000016" class="edge">
<title>Node1&#45;&gt;Node16</title>
<g id="a_edge22_Node000001_Node000016"><a xlink:title=" ">
<path fill="none" stroke="#63b8ff" d="M1040.14,-300.57C1111.46,-297.99 1231.07,-288.49 1328,-255.25 1346.51,-248.9 1348.44,-241.64 1366,-233 1393.97,-219.24 1427.12,-206.18 1450.44,-197.48"/>
<polygon fill="#63b8ff" stroke="#63b8ff" points="1040.09,-297.07 1030.21,-300.9 1040.31,-304.07 1040.09,-297.07"/>
</a>
</g>
</g>
<!-- Node19 -->
<g id="Node000019" class="node">
<title>Node19</title>
<g id="a_Node000019"><a xlink:href="i2c__setup_8h.html" target="_top" xlink:title="Contains the code that sets up the i2c bus.">
<polygon fill="white" stroke="#666666" points="1318.88,-255.25 1167.12,-255.25 1167.12,-233 1318.88,-233 1318.88,-255.25"/>
<text text-anchor="middle" x="1243" y="-239.85" font-family="Arial" font-size="12.00">include/setup/i2c_setup.h</text>
</a>
</g>
</g>
<!-- Node1&#45;&gt;Node19 -->
<g id="edge23_Node000001_Node000019" class="edge">
<title>Node1&#45;&gt;Node19</title>
<g id="a_edge23_Node000001_Node000019"><a xlink:title=" ">
<path fill="none" stroke="#63b8ff" d="M1039.06,-288.41C1085.88,-278.48 1149.68,-264.93 1193.38,-255.66"/>
<polygon fill="#63b8ff" stroke="#63b8ff" points="1038.38,-284.98 1029.33,-290.48 1039.83,-291.83 1038.38,-284.98"/>
</a>
</g>
</g>
<!-- Node21 -->
<g id="Node000021" class="node">
<title>Node21</title>
<g id="a_Node000021"><a xlink:href="led__strip__setup_8h.html" target="_top" xlink:title="Contains the code to set up RMT for LED strips.">
<polygon fill="white" stroke="#666666" points="2274.88,-255.25 2093.12,-255.25 2093.12,-233 2274.88,-233 2274.88,-255.25"/>
<text text-anchor="middle" x="2184" y="-239.85" font-family="Arial" font-size="12.00">include/setup/led_strip_setup.h</text>
</a>
</g>
</g>
<!-- Node1&#45;&gt;Node21 -->
<g id="edge26_Node000001_Node000021" class="edge">
<title>Node1&#45;&gt;Node21</title>
<g id="a_edge26_Node000001_Node000021"><a xlink:title=" ">
<path fill="none" stroke="#63b8ff" d="M1040.01,-298.48C1238.37,-289.23 1858.03,-260.33 2092.7,-249.38"/>
<polygon fill="#63b8ff" stroke="#63b8ff" points="1040,-294.98 1030.18,-298.94 1040.33,-301.97 1040,-294.98"/>
</a>
</g>
</g>
<!-- Node23 -->
<g id="Node000023" class="node">
<title>Node23</title>
<g id="a_Node000023"><a xlink:href="font_8h.html" target="_top" xlink:title="This file contains the class for the 12x16 font class.">
<polygon fill="white" stroke="#666666" points="416.25,-255.25 269.75,-255.25 269.75,-233 416.25,-233 416.25,-255.25"/>
<text text-anchor="middle" x="343" y="-239.85" font-family="Arial" font-size="12.00">include/supporting/font.h</text>
</a>
</g>
</g>
<!-- Node1&#45;&gt;Node23 -->
<g id="edge29_Node000001_Node000023" class="edge">
<title>Node1&#45;&gt;Node23</title>
<g id="a_edge29_Node000001_Node000023"><a xlink:title=" ">
<path fill="none" stroke="#63b8ff" d="M916.07,-296.81C814.47,-289.17 606.09,-272.9 430,-255.25 425.61,-254.81 421.1,-254.34 416.55,-253.85"/>
<polygon fill="#63b8ff" stroke="#63b8ff" points="915.59,-300.28 925.82,-297.54 916.11,-293.3 915.59,-300.28"/>
</a>
</g>
</g>
<!-- Node25 -->
<g id="Node000025" class="node">
<title>Node25</title>
<g id="a_Node000025"><a xlink:href="esp__now__task_8h.html" target="_top" xlink:title="Contains the externs and defines for the esp_now task.">
<polygon fill="white" stroke="#666666" points="1123.88,-255.25 948.12,-255.25 948.12,-233 1123.88,-233 1123.88,-255.25"/>
<text text-anchor="middle" x="1036" y="-239.85" font-family="Arial" font-size="12.00">include/tasks/esp_now_task.h</text>
</a>
</g>
</g>
<!-- Node1&#45;&gt;Node25 -->
<g id="edge34_Node000001_Node000025" class="edge">
<title>Node1&#45;&gt;Node25</title>
<g id="a_edge34_Node000001_Node000025"><a xlink:title=" ">
<path fill="none" stroke="#63b8ff" d="M996.91,-283.03C1006.26,-273.96 1017.21,-263.35 1025.14,-255.66"/>
<polygon fill="#63b8ff" stroke="#63b8ff" points="994.74,-280.27 990,-289.74 999.61,-285.29 994.74,-280.27"/>
</a>
</g>
</g>
<!-- Node27 -->
<g id="Node000027" class="node">
<title>Node27</title>
<g id="a_Node000027"><a xlink:href="servo__driver__task_8h.html" target="_top" xlink:title="Contains the externs and defines for the servo driver task.">
<polygon fill="white" stroke="#666666" points="1950.5,-255.25 1757.5,-255.25 1757.5,-233 1950.5,-233 1950.5,-255.25"/>
<text text-anchor="middle" x="1854" y="-239.85" font-family="Arial" font-size="12.00">include/tasks/servo_driver_task.h</text>
</a>
</g>
</g>
<!-- Node1&#45;&gt;Node27 -->
<g id="edge38_Node000001_Node000027" class="edge">
<title>Node1&#45;&gt;Node27</title>
<g id="a_edge38_Node000001_Node000027"><a xlink:title=" ">
<path fill="none" stroke="#63b8ff" d="M1039.83,-297.4C1190.16,-287.75 1575.79,-262.99 1757.08,-251.35"/>
<polygon fill="#63b8ff" stroke="#63b8ff" points="1039.83,-293.9 1030.07,-298.03 1040.28,-300.88 1039.83,-293.9"/>
</a>
</g>
</g>
<!-- Node2&#45;&gt;Node3 -->
<g id="edge2_Node000002_Node000003" class="edge">
<title>Node2&#45;&gt;Node3</title>
<g id="a_edge2_Node000002_Node000003"><a xlink:title=" ">
<path fill="none" stroke="#63b8ff" d="M749.81,-229.72C711.29,-219.83 659.59,-206.55 624.01,-197.41"/>
<polygon fill="#63b8ff" stroke="#63b8ff" points="748.79,-233.07 759.34,-232.17 750.53,-226.29 748.79,-233.07"/>
</a>
</g>
</g>
<!-- Node2&#45;&gt;Node4 -->
<g id="edge7_Node000002_Node000004" class="edge">
<title>Node2&#45;&gt;Node4</title>
<g id="a_edge7_Node000002_Node000004"><a xlink:title=" ">
<path fill="none" stroke="#63b8ff" d="M834.59,-226.65C845.71,-219.22 856.87,-209.32 863,-197 873.1,-176.7 855.15,-152.41 842.61,-138.93"/>
<polygon fill="#63b8ff" stroke="#63b8ff" points="832.96,-223.55 826.25,-231.75 836.61,-229.52 832.96,-223.55"/>
</a>
</g>
</g>
<!-- Node8 -->
<g id="Node000008" class="node">
<title>Node8</title>
<g id="a_Node000008"><a xlink:href="o_drive_8cpp.html" target="_top" xlink:title=" ">
<polygon fill="white" stroke="#666666" points="854,-197 712,-197 712,-174.75 854,-174.75 854,-197"/>
<text text-anchor="middle" x="783" y="-181.6" font-family="Arial" font-size="12.00">main/drivers/oDrive.cpp</text>
</a>
</g>
</g>
<!-- Node2&#45;&gt;Node8 -->
<g id="edge8_Node000002_Node000008" class="edge">
<title>Node2&#45;&gt;Node8</title>
<g id="a_edge8_Node000002_Node000008"><a xlink:title=" ">
<path fill="none" stroke="#63b8ff" d="M794.75,-221.68C791.95,-213.37 788.86,-204.23 786.56,-197.41"/>
<polygon fill="#63b8ff" stroke="#63b8ff" points="791.43,-222.76 797.94,-231.11 798.06,-220.52 791.43,-222.76"/>
</a>
</g>
</g>
<!-- Node3&#45;&gt;Node4 -->
<g id="edge3_Node000003_Node000004" class="edge">
<title>Node3&#45;&gt;Node4</title>
<g id="a_edge3_Node000003_Node000004"><a xlink:title=" ">
<path fill="none" stroke="#63b8ff" d="M640.93,-171.79C684.87,-161.86 744.49,-148.39 785.38,-139.16"/>
<polygon fill="#63b8ff" stroke="#63b8ff" points="640.29,-168.34 631.31,-173.96 641.84,-175.17 640.29,-168.34"/>
</a>
</g>
</g>
<!-- Node7 -->
<g id="Node000007" class="node">
<title>Node7</title>
<g id="a_Node000007"><a xlink:href="kicker__drive__train_8cpp.html" target="_top" xlink:title="source file for the class that handles the drive train">
<polygon fill="white" stroke="#666666" points="702.75,-138.75 481.25,-138.75 481.25,-116.5 702.75,-116.5 702.75,-138.75"/>
<text text-anchor="middle" x="592" y="-123.35" font-family="Arial" font-size="12.00">main/supporting/kicker_drive_train.cpp</text>
</a>
</g>
</g>
<!-- Node3&#45;&gt;Node7 -->
<g id="edge6_Node000003_Node000007" class="edge">
<title>Node3&#45;&gt;Node7</title>
<g id="a_edge6_Node000003_Node000007"><a xlink:title=" ">
<path fill="none" stroke="#63b8ff" d="M586.48,-163.14C587.79,-154.91 589.24,-145.9 590.31,-139.16"/>
<polygon fill="#63b8ff" stroke="#63b8ff" points="583.06,-162.37 584.93,-172.8 589.97,-163.48 583.06,-162.37"/>
</a>
</g>
</g>
<!-- Node4&#45;&gt;Node5 -->
<g id="edge4_Node000004_Node000005" class="edge">
<title>Node4&#45;&gt;Node5</title>
<g id="a_edge4_Node000004_Node000005"><a xlink:title=" ">
<path fill="none" stroke="#63b8ff" d="M860.5,-110.67C895.78,-90.98 951.86,-59.87 957,-58.25 1088.12,-17.01 1252.16,-11.38 1331.57,-11.36"/>
<polygon fill="#63b8ff" stroke="#63b8ff" points="859.07,-107.46 852.05,-115.39 862.49,-113.57 859.07,-107.46"/>
</a>
</g>
</g>
<!-- Node6 -->
<g id="Node000006" class="node">
<title>Node6</title>
<g id="a_Node000006"><a xlink:href="kicker__drive__train__task_8cpp.html" target="_top" xlink:title=" ">
<polygon fill="white" stroke="#666666" points="904.75,-80.5 683.25,-80.5 683.25,-58.25 904.75,-58.25 904.75,-80.5"/>
<text text-anchor="middle" x="794" y="-65.1" font-family="Arial" font-size="12.00">main/tasks/kicker_drive_train_task.cpp</text>
</a>
</g>
</g>
<!-- Node4&#45;&gt;Node6 -->
<g id="edge5_Node000004_Node000006" class="edge">
<title>Node4&#45;&gt;Node6</title>
<g id="a_edge5_Node000004_Node000006"><a xlink:title=" ">
<path fill="none" stroke="#63b8ff" d="M818.47,-106.6C812.61,-97.92 805.99,-88.12 801.12,-80.91"/>
<polygon fill="#63b8ff" stroke="#63b8ff" points="815.51,-108.46 824.01,-114.79 821.31,-104.54 815.51,-108.46"/>
</a>
</g>
</g>
<!-- Node10 -->
<g id="Node000010" class="node">
<title>Node10</title>
<g id="a_Node000010"><a xlink:href="menus_8h.html" target="_top" xlink:title="This is the file that contains the class for menus.">
<polygon fill="white" stroke="#666666" points="292.5,-138.75 129.5,-138.75 129.5,-116.5 292.5,-116.5 292.5,-138.75"/>
<text text-anchor="middle" x="211" y="-123.35" font-family="Arial" font-size="12.00">include/supporting/menus.h</text>
</a>
</g>
</g>
<!-- Node9&#45;&gt;Node10 -->
<g id="edge10_Node000009_Node000010" class="edge">
<title>Node9&#45;&gt;Node10</title>
<g id="a_edge10_Node000009_Node000010"><a xlink:title=" ">
<path fill="none" stroke="#63b8ff" d="M187.82,-164.85C193.37,-156.17 199.64,-146.37 204.26,-139.16"/>
<polygon fill="#63b8ff" stroke="#63b8ff" points="185.03,-162.71 182.59,-173.02 190.93,-166.48 185.03,-162.71"/>
</a>
</g>
</g>
<!-- Node9&#45;&gt;Node11 -->
<g id="edge15_Node000009_Node000011" class="edge">
<title>Node9&#45;&gt;Node11</title>
<g id="a_edge15_Node000009_Node000011"><a xlink:title=" ">
<path fill="none" stroke="#63b8ff" d="M148.09,-167.55C137.98,-159.83 127.21,-149.95 120,-138.75 108.26,-120.52 103.68,-95.04 101.97,-80.89"/>
<polygon fill="#63b8ff" stroke="#63b8ff" points="146.04,-170.39 156.2,-173.38 150.12,-164.7 146.04,-170.39"/>
</a>
</g>
</g>
<!-- Node9&#45;&gt;Node14 -->
<g id="edge16_Node000009_Node000014" class="edge">
<title>Node9&#45;&gt;Node14</title>
<g id="a_edge16_Node000009_Node000014"><a xlink:title=" ">
<path fill="none" stroke="#63b8ff" d="M226,-171.34C263.24,-161.46 313.01,-148.26 347.3,-139.16"/>
<polygon fill="#63b8ff" stroke="#63b8ff" points="225.11,-167.96 216.34,-173.91 226.9,-174.72 225.11,-167.96"/>
</a>
</g>
</g>
<!-- Node10&#45;&gt;Node11 -->
<g id="edge11_Node000010_Node000011" class="edge">
<title>Node10&#45;&gt;Node11</title>
<g id="a_edge11_Node000010_Node000011"><a xlink:title=" ">
<path fill="none" stroke="#63b8ff" d="M180.19,-110.87C161.47,-101.3 138.09,-89.34 121.6,-80.91"/>
<polygon fill="#63b8ff" stroke="#63b8ff" points="178.47,-113.92 188.96,-115.36 181.65,-107.69 178.47,-113.92"/>
</a>
</g>
</g>
<!-- Node13 -->
<g id="Node000013" class="node">
<title>Node13</title>
<g id="a_Node000013"><a xlink:href="menus_8cpp.html" target="_top" xlink:title="source file for the class that handles the creation of menus">
<polygon fill="white" stroke="#666666" points="383.5,-80.5 220.5,-80.5 220.5,-58.25 383.5,-58.25 383.5,-80.5"/>
<text text-anchor="middle" x="302" y="-65.1" font-family="Arial" font-size="12.00">main/supporting/menus.cpp</text>
</a>
</g>
</g>
<!-- Node10&#45;&gt;Node13 -->
<g id="edge14_Node000010_Node000013" class="edge">
<title>Node10&#45;&gt;Node13</title>
<g id="a_edge14_Node000010_Node000013"><a xlink:title=" ">
<path fill="none" stroke="#63b8ff" d="M237.57,-110.2C252.87,-100.74 271.64,-89.14 284.96,-80.91"/>
<polygon fill="#63b8ff" stroke="#63b8ff" points="236.07,-107.01 229.4,-115.25 239.75,-112.97 236.07,-107.01"/>
</a>
</g>
</g>
<!-- Node11&#45;&gt;Node5 -->
<g id="edge12_Node000011_Node000005" class="edge">
<title>Node11&#45;&gt;Node5</title>
<g id="a_edge12_Node000011_Node000005"><a xlink:title=" ">
<path fill="none" stroke="#63b8ff" d="M213.67,-58.11C654.85,-29.45 1174.42,-16.55 1331.67,-13.11"/>
<polygon fill="#63b8ff" stroke="#63b8ff" points="213.54,-54.61 203.79,-58.75 214,-61.59 213.54,-54.61"/>
</a>
</g>
</g>
<!-- Node12 -->
<g id="Node000012" class="node">
<title>Node12</title>
<g id="a_Node000012"><a xlink:href="display__driver__task_8cpp.html" target="_top" xlink:title="source file for the task that drives the display, displays controller connected status,...">
<polygon fill="white" stroke="#666666" points="202,-22.25 0,-22.25 0,0 202,0 202,-22.25"/>
<text text-anchor="middle" x="101" y="-6.85" font-family="Arial" font-size="12.00">main/tasks/display_driver_task.cpp</text>
</a>
</g>
</g>
<!-- Node11&#45;&gt;Node12 -->
<g id="edge13_Node000011_Node000012" class="edge">
<title>Node11&#45;&gt;Node12</title>
<g id="a_edge13_Node000011_Node000012"><a xlink:title=" ">
<path fill="none" stroke="#63b8ff" d="M101,-46.35C101,-38.2 101,-29.33 101,-22.66"/>
<polygon fill="#63b8ff" stroke="#63b8ff" points="97.5,-46.28 101,-56.28 104.5,-46.28 97.5,-46.28"/>
</a>
</g>
</g>
<!-- Node15&#45;&gt;Node16 -->
<g id="edge18_Node000015_Node000016" class="edge">
<title>Node15&#45;&gt;Node16</title>
<g id="a_edge18_Node000015_Node000016"><a xlink:title=" ">
<path fill="none" stroke="#63b8ff" d="M1487.98,-221.39C1486.07,-213.16 1483.99,-204.15 1482.43,-197.41"/>
<polygon fill="#63b8ff" stroke="#63b8ff" points="1484.55,-222.12 1490.21,-231.07 1491.37,-220.54 1484.55,-222.12"/>
</a>
</g>
</g>
<!-- Node18 -->
<g id="Node000018" class="node">
<title>Node18</title>
<g id="a_Node000018"><a xlink:href="esp__now__callback__setup_8cpp.html" target="_top" xlink:title="source file that sets up esp&#45;now callbacks">
<polygon fill="white" stroke="#666666" points="1825.88,-197 1590.12,-197 1590.12,-174.75 1825.88,-174.75 1825.88,-197"/>
<text text-anchor="middle" x="1708" y="-181.6" font-family="Arial" font-size="12.00">main/setup/esp_now_callback_setup.cpp</text>
</a>
</g>
</g>
<!-- Node15&#45;&gt;Node18 -->
<g id="edge21_Node000015_Node000018" class="edge">
<title>Node15&#45;&gt;Node18</title>
<g id="a_edge21_Node000015_Node000018"><a xlink:title=" ">
<path fill="none" stroke="#63b8ff" d="M1544.23,-229.72C1582.05,-219.83 1632.81,-206.55 1667.74,-197.41"/>
<polygon fill="#63b8ff" stroke="#63b8ff" points="1543.69,-226.24 1534.9,-232.16 1545.46,-233.02 1543.69,-226.24"/>
</a>
</g>
</g>
<!-- Node16&#45;&gt;Node5 -->
<g id="edge19_Node000016_Node000005" class="edge">
<title>Node16&#45;&gt;Node5</title>
<g id="a_edge19_Node000016_Node000005"><a xlink:title=" ">
<path fill="none" stroke="#63b8ff" d="M1449.84,-168.57C1438.12,-160.89 1425.5,-150.77 1417,-138.75 1390.64,-101.45 1382.3,-45.62 1379.89,-22.61"/>
<polygon fill="#63b8ff" stroke="#63b8ff" points="1447.72,-171.37 1458.08,-173.63 1451.39,-165.41 1447.72,-171.37"/>
</a>
</g>
</g>
<!-- Node17 -->
<g id="Node000017" class="node">
<title>Node17</title>
<g id="a_Node000017"><a xlink:href="esp__now__setup_8cpp.html" target="_top" xlink:title="source file that sets up esp&#45;now">
<polygon fill="white" stroke="#666666" points="1610.38,-138.75 1425.62,-138.75 1425.62,-116.5 1610.38,-116.5 1610.38,-138.75"/>
<text text-anchor="middle" x="1518" y="-123.35" font-family="Arial" font-size="12.00">main/setup/esp_now_setup.cpp</text>
</a>
</g>
</g>
<!-- Node16&#45;&gt;Node17 -->
<g id="edge20_Node000016_Node000017" class="edge">
<title>Node16&#45;&gt;Node17</title>
<g id="a_edge20_Node000016_Node000017"><a xlink:title=" ">
<path fill="none" stroke="#63b8ff" d="M1493.53,-164.85C1499.39,-156.17 1506.01,-146.37 1510.88,-139.16"/>
<polygon fill="#63b8ff" stroke="#63b8ff" points="1490.69,-162.79 1487.99,-173.04 1496.49,-166.71 1490.69,-162.79"/>
</a>
</g>
</g>
<!-- Node19&#45;&gt;Node5 -->
<g id="edge24_Node000019_Node000005" class="edge">
<title>Node19&#45;&gt;Node5</title>
<g id="a_edge24_Node000019_Node000005"><a xlink:title=" ">
<path fill="none" stroke="#63b8ff" d="M1296.03,-228.59C1312.67,-221.58 1329.64,-211.44 1341,-197 1383.56,-142.93 1381.87,-53.16 1379.88,-22.65"/>
<polygon fill="#63b8ff" stroke="#63b8ff" points="1295.24,-225.14 1287.18,-232.02 1297.77,-231.67 1295.24,-225.14"/>
</a>
</g>
</g>
<!-- Node20 -->
<g id="Node000020" class="node">
<title>Node20</title>
<g id="a_Node000020"><a xlink:href="i2c__setup_8cpp.html" target="_top" xlink:title="source file that sets up the i2c bus">
<polygon fill="white" stroke="#666666" points="1331.88,-197 1180.12,-197 1180.12,-174.75 1331.88,-174.75 1331.88,-197"/>
<text text-anchor="middle" x="1256" y="-181.6" font-family="Arial" font-size="12.00">main/setup/i2c_setup.cpp</text>
</a>
</g>
</g>
<!-- Node19&#45;&gt;Node20 -->
<g id="edge25_Node000019_Node000020" class="edge">
<title>Node19&#45;&gt;Node20</title>
<g id="a_edge25_Node000019_Node000020"><a xlink:title=" ">
<path fill="none" stroke="#63b8ff" d="M1248.02,-221.39C1249.93,-213.16 1252.01,-204.15 1253.57,-197.41"/>
<polygon fill="#63b8ff" stroke="#63b8ff" points="1244.63,-220.54 1245.79,-231.07 1251.45,-222.12 1244.63,-220.54"/>
</a>
</g>
</g>
<!-- Node21&#45;&gt;Node5 -->
<g id="edge27_Node000021_Node000005" class="edge">
<title>Node21&#45;&gt;Node5</title>
<g id="a_edge27_Node000021_Node000005"><a xlink:title=" ">
<path fill="none" stroke="#63b8ff" d="M2235.16,-228.93C2268.83,-217.04 2303.38,-198.24 2284,-174.75 2173.46,-40.76 1596.85,-17.06 1426.46,-12.96"/>
<polygon fill="#63b8ff" stroke="#63b8ff" points="2234.15,-225.58 2225.77,-232.07 2236.36,-232.22 2234.15,-225.58"/>
</a>
</g>
</g>
<!-- Node22 -->
<g id="Node000022" class="node">
<title>Node22</title>
<g id="a_Node000022"><a xlink:href="led__strip__setup_8cpp.html" target="_top" xlink:title="source file that sets up the led strips">
<polygon fill="white" stroke="#666666" points="2274.88,-197 2093.12,-197 2093.12,-174.75 2274.88,-174.75 2274.88,-197"/>
<text text-anchor="middle" x="2184" y="-181.6" font-family="Arial" font-size="12.00">main/setup/led_strip_setup.cpp</text>
</a>
</g>
</g>
<!-- Node21&#45;&gt;Node22 -->
<g id="edge28_Node000021_Node000022" class="edge">
<title>Node21&#45;&gt;Node22</title>
<g id="a_edge28_Node000021_Node000022"><a xlink:title=" ">
<path fill="none" stroke="#63b8ff" d="M2184,-221.1C2184,-212.95 2184,-204.08 2184,-197.41"/>
<polygon fill="#63b8ff" stroke="#63b8ff" points="2180.5,-221.03 2184,-231.03 2187.5,-221.03 2180.5,-221.03"/>
</a>
</g>
</g>
<!-- Node23&#45;&gt;Node9 -->
<g id="edge30_Node000023_Node000009" class="edge">
<title>Node23&#45;&gt;Node9</title>
<g id="a_edge30_Node000023_Node000009"><a xlink:title=" ">
<path fill="none" stroke="#63b8ff" d="M300.66,-228.95C271.38,-219.14 233.05,-206.31 206.46,-197.41"/>
<polygon fill="#63b8ff" stroke="#63b8ff" points="299.37,-232.21 309.97,-232.06 301.59,-225.57 299.37,-232.21"/>
</a>
</g>
</g>
<!-- Node24 -->
<g id="Node000024" class="node">
<title>Node24</title>
<g id="a_Node000024"><a xlink:href="font_8cpp.html" target="_top" xlink:title="source file for the class that maps ascii characters to their font representation">
<polygon fill="white" stroke="#666666" points="416.25,-197 269.75,-197 269.75,-174.75 416.25,-174.75 416.25,-197"/>
<text text-anchor="middle" x="343" y="-181.6" font-family="Arial" font-size="12.00">main/supporting/font.cpp</text>
</a>
</g>
</g>
<!-- Node23&#45;&gt;Node24 -->
<g id="edge31_Node000023_Node000024" class="edge">
<title>Node23&#45;&gt;Node24</title>
<g id="a_edge31_Node000023_Node000024"><a xlink:title=" ">
<path fill="none" stroke="#63b8ff" d="M343,-221.1C343,-212.95 343,-204.08 343,-197.41"/>
<polygon fill="#63b8ff" stroke="#63b8ff" points="339.5,-221.03 343,-231.03 346.5,-221.03 339.5,-221.03"/>
</a>
</g>
</g>
<!-- Node25&#45;&gt;Node5 -->
<g id="edge35_Node000025_Node000005" class="edge">
<title>Node25&#45;&gt;Node5</title>
<g id="a_edge35_Node000025_Node000005"><a xlink:title=" ">
<path fill="none" stroke="#63b8ff" d="M1005.63,-226.64C985.22,-213.33 964.2,-193.74 977,-174.75 1057.91,-54.74 1244.01,-23.26 1331.68,-15.03"/>
<polygon fill="#63b8ff" stroke="#63b8ff" points="1003.8,-229.62 1014.16,-231.85 1007.46,-223.65 1003.8,-229.62"/>
</a>
</g>
</g>
<!-- Node26 -->
<g id="Node000026" class="node">
<title>Node26</title>
<g id="a_Node000026"><a xlink:href="esp__now__task_8cpp.html" target="_top" xlink:title="source file for the task that sends the battery voltage to the controller">
<polygon fill="white" stroke="#666666" points="1161.88,-197 986.12,-197 986.12,-174.75 1161.88,-174.75 1161.88,-197"/>
<text text-anchor="middle" x="1074" y="-181.6" font-family="Arial" font-size="12.00">main/tasks/esp_now_task.cpp</text>
</a>
</g>
</g>
<!-- Node25&#45;&gt;Node26 -->
<g id="edge36_Node000025_Node000026" class="edge">
<title>Node25&#45;&gt;Node26</title>
<g id="a_edge36_Node000025_Node000026"><a xlink:title=" ">
<path fill="none" stroke="#63b8ff" d="M1049.53,-223.1C1055.39,-214.42 1062.01,-204.62 1066.88,-197.41"/>
<polygon fill="#63b8ff" stroke="#63b8ff" points="1046.69,-221.04 1043.99,-231.29 1052.49,-224.96 1046.69,-221.04"/>
</a>
</g>
</g>
<!-- Node27&#45;&gt;Node5 -->
<g id="edge39_Node000027_Node000005" class="edge">
<title>Node27&#45;&gt;Node5</title>
<g id="a_edge39_Node000027_Node000005"><a xlink:title=" ">
<path fill="none" stroke="#63b8ff" d="M1853.09,-221.71C1851.37,-206.81 1846.81,-187.43 1835,-174.75 1723.75,-55.25 1518.79,-23.47 1426.38,-15.09"/>
<polygon fill="#63b8ff" stroke="#63b8ff" points="1849.58,-221.71 1853.85,-231.41 1856.56,-221.17 1849.58,-221.71"/>
</a>
</g>
</g>
<!-- Node28 -->
<g id="Node000028" class="node">
<title>Node28</title>
<g id="a_Node000028"><a xlink:href="servo__driver__task_8cpp.html" target="_top" xlink:title="source file for the task to control the servos">
<polygon fill="white" stroke="#666666" points="2075.5,-197 1882.5,-197 1882.5,-174.75 2075.5,-174.75 2075.5,-197"/>
<text text-anchor="middle" x="1979" y="-181.6" font-family="Arial" font-size="12.00">main/tasks/servo_driver_task.cpp</text>
</a>
</g>
</g>
<!-- Node27&#45;&gt;Node28 -->
<g id="edge40_Node000027_Node000028" class="edge">
<title>Node27&#45;&gt;Node28</title>
<g id="a_edge40_Node000027_Node000028"><a xlink:title=" ">
<path fill="none" stroke="#63b8ff" d="M1887.83,-227.9C1909.29,-218.25 1936.51,-206 1955.59,-197.41"/>
<polygon fill="#63b8ff" stroke="#63b8ff" points="1886.57,-224.63 1878.89,-231.92 1889.45,-231.01 1886.57,-224.63"/>
</a>
</g>
</g>
</g>
</svg>

<g id="navigator" transform="translate(0 0)" fill="#404254">
  <rect fill="#f2f5e9" fill-opacity="0.5" stroke="#606060" stroke-width=".5" x="0" y="0" width="60" height="60"/>
  <use id="zoomplus" xlink:href="#zoomPlus" x="17" y="9" onmousedown="handleZoom(evt,'in')"/>
  <use id="zoomminus" xlink:href="#zoomMin" x="42" y="9" onmousedown="handleZoom(evt,'out')"/>
  <use id="reset" xlink:href="#resetDef" x="30" y="36" onmousedown="handleReset()"/>
   <use id="arrowup" xlink:href="#arrowUp" x="0" y="0" onmousedown="handlePan(0,-1)"/>
  <use id="arrowright" xlink:href="#arrowRight" x="0" y="0" onmousedown="handlePan(1,0)"/>
  <use id="arrowdown" xlink:href="#arrowDown" x="0" y="0" onmousedown="handlePan(0,1)"/>
  <use id="arrowleft" xlink:href="#arrowLeft" x="0" y="0" onmousedown="handlePan(-1,0)"/>
</g>
<svg viewBox="0 0 15 15" width="100%" height="30px" preserveAspectRatio="xMaxYMin meet">
 <g id="arrow_out" transform="scale(0.3 0.3)">
  <a xlink:href="pinout_8h__dep__incl_org.svg" target="_base">
   <rect id="button" ry="5" rx="5" y="6" x="6" height="38" width="38"
        fill="#f2f5e9" fill-opacity="0.5" stroke="#606060" stroke-width="1.0"/>
   <path id="arrow"
     d="M 11.500037,31.436501 C 11.940474,20.09759 22.043105,11.32322 32.158766,21.979434 L 37.068811,17.246167 C 37.068811,17.246167 37.088388,32 37.088388,32 L 22.160133,31.978069 C 22.160133,31.978069 26.997745,27.140456 26.997745,27.140456 C 18.528582,18.264221 13.291696,25.230495 11.500037,31.436501 z"
     style="fill:#404040;"/>
  </a>
 </g>
</svg>

<style type='text/css'>
<![CDATA[
[data-mouse-over-selected='false'] { opacity: 0.7; }
[data-mouse-over-selected='true']  { opacity: 1.0; }
]]>
</style>
<script type="application/ecmascript"><![CDATA[
document.addEventListener('DOMContentLoaded', (event) => {
  highlightEdges();
  highlightAdjacentNodes();
});
]]></script>
</svg>
