<?xml version="1.0" encoding="UTF-8" standalone="no"?>
<!DOCTYPE svg PUBLIC "-//W3C//DTD SVG 1.1//EN"
 "http://www.w3.org/Graphics/SVG/1.1/DTD/svg11.dtd">
<!-- Generated by graphviz version 12.2.1 (20241206.2353)
 -->
<!-- Title: include/drivers/servo.h Pages: 1 -->
<svg width="387pt" height="147pt"
 viewBox="0.00 0.00 387.00 146.75" xmlns="http://www.w3.org/2000/svg" xmlns:xlink="http://www.w3.org/1999/xlink">
<g id="graph0" class="graph" transform="scale(1 1) rotate(0) translate(4 142.75)">
<title>include/drivers/servo.h</title>
<!-- Node1 -->
<g id="Node000001" class="node">
<title>Node1</title>
<g id="a_Node000001"><a xlink:title="This is the header for the servo motor class.">
<polygon fill="#999999" stroke="#666666" points="287,-138.75 151,-138.75 151,-116.5 287,-116.5 287,-138.75"/>
<text text-anchor="middle" x="219" y="-123.35" font-family="Arial" font-size="12.00">include/drivers/servo.h</text>
</a>
</g>
</g>
<!-- Node2 -->
<g id="Node000002" class="node">
<title>Node2</title>
<g id="a_Node000002"><a xlink:href="servo__driver__task_8h.html" target="_top" xlink:title="Contains the externs and defines for the servo driver task.">
<polygon fill="white" stroke="#666666" points="224.5,-80.5 31.5,-80.5 31.5,-58.25 224.5,-58.25 224.5,-80.5"/>
<text text-anchor="middle" x="128" y="-65.1" font-family="Arial" font-size="12.00">include/tasks/servo_driver_task.h</text>
</a>
</g>
</g>
<!-- Node1&#45;&gt;Node2 -->
<g id="edge1_Node000001_Node000002" class="edge">
<title>Node1&#45;&gt;Node2</title>
<g id="a_edge1_Node000001_Node000002"><a xlink:title=" ">
<path fill="none" stroke="#63b8ff" d="M192.43,-110.2C177.13,-100.74 158.36,-89.14 145.04,-80.91"/>
<polygon fill="#63b8ff" stroke="#63b8ff" points="190.25,-112.97 200.6,-115.25 193.93,-107.01 190.25,-112.97"/>
</a>
</g>
</g>
<!-- Node5 -->
<g id="Node000005" class="node">
<title>Node5</title>
<g id="a_Node000005"><a xlink:href="servo_8cpp.html" target="_top" xlink:title="This is the source file for the servo motor class.">
<polygon fill="white" stroke="#666666" points="379,-80.5 243,-80.5 243,-58.25 379,-58.25 379,-80.5"/>
<text text-anchor="middle" x="311" y="-65.1" font-family="Arial" font-size="12.00">main/drivers/servo.cpp</text>
</a>
</g>
</g>
<!-- Node1&#45;&gt;Node5 -->
<g id="edge4_Node000001_Node000005" class="edge">
<title>Node1&#45;&gt;Node5</title>
<g id="a_edge4_Node000001_Node000005"><a xlink:title=" ">
<path fill="none" stroke="#63b8ff" d="M245.87,-110.2C261.33,-100.74 280.3,-89.14 293.77,-80.91"/>
<polygon fill="#63b8ff" stroke="#63b8ff" points="244.3,-107.05 237.6,-115.26 247.95,-113.02 244.3,-107.05"/>
</a>
</g>
</g>
<!-- Node3 -->
<g id="Node000003" class="node">
<title>Node3</title>
<g id="a_Node000003"><a xlink:href="main_8cpp.html" target="_top" xlink:title="This is the file that contains the main function and all other tasks for the robot.">
<polygon fill="white" stroke="#666666" points="94,-22.25 0,-22.25 0,0 94,0 94,-22.25"/>
<text text-anchor="middle" x="47" y="-6.85" font-family="Arial" font-size="12.00">main/main.cpp</text>
</a>
</g>
</g>
<!-- Node2&#45;&gt;Node3 -->
<g id="edge2_Node000002_Node000003" class="edge">
<title>Node2&#45;&gt;Node3</title>
<g id="a_edge2_Node000002_Node000003"><a xlink:title=" ">
<path fill="none" stroke="#63b8ff" d="M103.57,-51.41C90.1,-42.05 73.8,-30.74 62.17,-22.66"/>
<polygon fill="#63b8ff" stroke="#63b8ff" points="101.31,-54.1 111.52,-56.93 105.3,-48.35 101.31,-54.1"/>
</a>
</g>
</g>
<!-- Node4 -->
<g id="Node000004" class="node">
<title>Node4</title>
<g id="a_Node000004"><a xlink:href="servo__driver__task_8cpp.html" target="_top" xlink:title="source file for the task to control the servos">
<polygon fill="white" stroke="#666666" points="305.5,-22.25 112.5,-22.25 112.5,0 305.5,0 305.5,-22.25"/>
<text text-anchor="middle" x="209" y="-6.85" font-family="Arial" font-size="12.00">main/tasks/servo_driver_task.cpp</text>
</a>
</g>
</g>
<!-- Node2&#45;&gt;Node4 -->
<g id="edge3_Node000002_Node000004" class="edge">
<title>Node2&#45;&gt;Node4</title>
<g id="a_edge3_Node000002_Node000004"><a xlink:title=" ">
<path fill="none" stroke="#63b8ff" d="M152.43,-51.41C165.9,-42.05 182.2,-30.74 193.83,-22.66"/>
<polygon fill="#63b8ff" stroke="#63b8ff" points="150.7,-48.35 144.48,-56.93 154.69,-54.1 150.7,-48.35"/>
</a>
</g>
</g>
</g>
</svg>
